M48
; DRILL file KiCad 10.0.3 date 2026-06-30T16:59:10
; FORMAT={-:-/ absolute / metric / decimal}
; #@! TF.CreationDate,2026-06-30T16:59:10+02:00
; #@! TF.GenerationSoftware,Kicad,Pcbnew,10.0.3
; #@! TF.FileFunction,MixedPlating,1,6
FMAT,2
METRIC
; #@! TA.AperFunction,Plated,PTH,ViaDrill
T1C0.250
; #@! TA.AperFunction,Plated,PTH,ComponentDrill
T2C0.600
%
G90
G05
T1
X119.575Y-55.001
X119.6Y-54.176
X119.6Y-55.926
X119.625Y-83.251
X119.65Y-82.326
X119.65Y-84.076
X120.05Y-56.876
X120.15Y-53.451
X120.2Y-84.801
X120.295Y-70.916
X120.3Y-64.376
X120.305Y-70.011
X120.31Y-71.621
X120.315Y-69.106
X120.325Y-59.201
X120.325Y-61.051
X120.325Y-62.826
X120.325Y-66.281
X120.36Y-77.061
X120.37Y-78.106
X120.395Y-75.911
X120.655Y-80.301
X120.8Y-52.801
X120.85Y-85.451
X121.265Y-69.676
X121.3Y-76.001
X121.325Y-71.116
X121.405Y-77.401
X121.51Y-66.496
X121.675Y-80.316
X121.845Y-78.091
X121.9Y-59.951
X121.9Y-61.601
X122.176Y-60.477
X122.176Y-61.123
X122.19Y-76.136
X122.22Y-71.516
X122.285Y-69.136
X122.295Y-69.771
X122.295Y-70.656
X122.35Y-87.051
X122.4Y-51.201
X122.51Y-77.566
X122.575Y-62.826
X122.583Y-61.679
X122.601Y-59.876
X122.795Y-80.346
X122.87Y-78.471
X122.94Y-66.701
X122.94Y-67.571
X122.984Y-68.535
X122.985Y-69.006
X122.985Y-69.471
X123.0Y-87.701
X123.05Y-50.551
X123.275Y-62.751
X123.345Y-81.241
X123.375Y-79.341
X123.525Y-63.626
X123.67Y-73.546
X123.675Y-74.006
X123.675Y-74.461
X123.725Y-88.251
X123.775Y-50.001
X124.1Y-60.101
X124.225Y-57.851
X124.55Y-88.276
X124.57Y-73.431
X124.57Y-73.891
X124.57Y-74.373
X124.57Y-74.826
X124.575Y-62.826
X124.6Y-49.976
X124.65Y-59.526
X124.65Y-62.026
X125.03Y-66.546
X125.05Y-62.426
X125.115Y-81.796
X125.3Y-57.976
X125.43Y-73.996
X125.475Y-88.251
X125.525Y-50.001
X125.54Y-75.316
X125.555Y-67.636
X125.595Y-80.951
X125.7Y-80.301
X125.755Y-79.396
X125.928Y-78.837
X125.955Y-74.211
X126.07Y-81.671
X126.075Y-83.326
X126.205Y-66.796
X126.325Y-53.176
X126.38Y-80.791
X126.425Y-87.801
X126.455Y-78.696
X126.475Y-50.451
X126.525Y-76.401
X126.55Y-74.216
X126.55Y-77.076
X126.63Y-82.751
X126.745Y-54.786
X126.745Y-55.281
X126.75Y-53.851
X126.75Y-54.331
X126.855Y-84.036
X126.975Y-67.826
X127.145Y-69.781
X127.175Y-68.851
X127.325Y-66.601
X127.35Y-50.926
X127.35Y-52.176
X127.462Y-72.313
X127.6Y-83.151
X127.65Y-74.551
X127.65Y-75.776
X127.65Y-77.076
X127.96Y-80.696
X128.01Y-82.101
X128.25Y-69.326
X128.28Y-69.925
X128.3Y-68.701
X128.305Y-70.551
X128.34Y-85.706
X128.345Y-59.351
X128.345Y-59.821
X128.35Y-67.826
X128.42Y-85.1
X128.51Y-61.846
X128.75Y-54.401
X128.765Y-59.071
X128.77Y-62.721
X128.775Y-59.536
X128.775Y-60.006
X128.843Y-57.356
X129.014Y-63.092
X129.03Y-61.841
X129.2Y-76.346
X129.215Y-75.306
X129.25Y-79.751
X129.265Y-62.716
X129.28Y-57.931
X129.28Y-58.521
X129.305Y-86.121
X129.32Y-74.75
X129.359Y-54.491
X129.46Y-75.816
X129.47Y-72.571
X129.53Y-63.086
X129.63Y-58.221
X129.665Y-86.806
X129.723Y-73.115
X129.755Y-76.338
X129.77Y-74.45
X129.83Y-62.716
X129.889Y-54.381
X129.98Y-75.631
X129.985Y-57.931
X129.985Y-58.521
X130.11Y-63.086
X130.15Y-61.843
X130.17Y-85.7
X130.2Y-69.376
X130.205Y-71.016
X130.225Y-70.376
X130.287Y-74.754
X130.45Y-54.451
X130.475Y-87.151
X130.571Y-65.281
X130.71Y-71.606
X130.745Y-71.076
X130.775Y-58.576
X131.06Y-54.381
X131.069Y-65.109
X131.45Y-68.501
X131.529Y-80.644
X131.572Y-65.267
X131.61Y-87.196
X131.625Y-70.651
X131.65Y-71.476
X131.7Y-54.401
X131.85Y-80.151
X131.96Y-64.91
X132.027Y-71.051
X132.2Y-69.151
X132.255Y-68.436
X132.35Y-73.45
X132.351Y-77.456
X132.352Y-72.646
X132.36Y-54.381
X132.37Y-65.25
X132.645Y-82.321
X132.673Y-71.051
X132.685Y-87.201
X132.753Y-84.078
X132.77Y-64.206
X132.905Y-65.001
X132.95Y-69.826
X133.025Y-70.601
X133.025Y-71.501
X133.075Y-68.651
X133.141Y-75.785
X133.15Y-78.251
X133.15Y-79.049
X133.152Y-75.052
X133.2Y-53.301
X133.325Y-84.271
X133.325Y-84.726
X133.52Y-69.471
X133.7Y-53.611
X133.71Y-67.236
X133.72Y-65.206
X133.854Y-78.368
X133.94Y-75.026
X133.948Y-75.857
X133.95Y-68.801
X133.95Y-77.451
X133.951Y-74.253
X133.953Y-73.445
X134.0Y-82.966
X134.095Y-68.141
X134.115Y-83.926
X134.13Y-83.476
X134.2Y-53.301
X134.402Y-70.731
X134.435Y-71.266
X134.65Y-54.301
X134.741Y-74.272
X134.747Y-75.001
X134.75Y-79.045
X134.75Y-77.45
X134.75Y-78.251
X134.793Y-76.565
X134.845Y-64.121
X134.85Y-64.751
X134.863Y-75.848
X134.875Y-65.286
X135.1Y-53.956
X135.275Y-67.851
X135.317Y-70.691
X135.327Y-71.251
X135.481Y-75.877
X135.53Y-79.048
X135.55Y-80.151
X135.55Y-74.25
X135.7Y-52.651
X135.823Y-83.34
X136.05Y-53.051
X136.21Y-70.961
X136.355Y-74.242
X136.391Y-76.661
X136.4Y-52.701
X136.43Y-53.631
X136.646Y-64.803
X136.75Y-53.051
X136.75Y-57.251
X136.782Y-80.076
X137.0Y-52.651
X137.015Y-65.276
X137.155Y-74.25
X137.157Y-75.074
X137.2Y-53.501
X137.2Y-57.251
X137.375Y-67.701
X137.45Y-64.951
X137.65Y-57.235
X137.675Y-68.916
X137.683Y-83.891
X137.69Y-82.001
X137.699Y-80.779
X137.87Y-84.446
X137.9Y-53.451
X137.9Y-81.301
X137.94Y-52.561
X138.025Y-65.251
X138.038Y-64.651
X138.357Y-54.651
X138.36Y-54.191
X138.365Y-55.111
X138.48Y-71.341
X138.53Y-51.451
X138.53Y-51.981
X138.53Y-52.561
X138.775Y-54.876
X138.775Y-55.371
X138.778Y-54.416
X138.85Y-80.851
X138.939Y-77.797
X139.23Y-84.966
X139.29Y-75.986
X139.35Y-78.851
X139.35Y-79.401
X139.375Y-71.311
X139.485Y-77.826
X139.73Y-70.781
X139.82Y-84.281
X140.05Y-76.001
X140.105Y-78.136
X140.31Y-71.351
X140.45Y-67.601
X140.55Y-81.701
X140.65Y-76.701
X140.7Y-56.301
X140.7Y-56.751
X140.7Y-57.201
X140.7Y-57.651
X140.7Y-58.101
X140.7Y-58.551
X140.7Y-59.001
X140.72Y-73.411
X140.925Y-82.116
X140.95Y-54.301
X140.96Y-71.766
X141.14Y-70.951
X141.15Y-59.001
X141.15Y-84.266
X141.18Y-81.62
X141.2Y-68.501
X141.206Y-85.211
X141.425Y-58.301
X141.468Y-53.973
X141.494Y-84.685
X141.65Y-56.501
X141.7Y-59.001
X141.763Y-60.328
X141.763Y-61.173
X141.95Y-57.601
X141.993Y-60.753
X142.01Y-71.621
X142.024Y-84.966
X142.05Y-53.751
X142.074Y-63.772
X142.095Y-56.091
X142.223Y-61.178
X142.223Y-60.333
X142.3Y-59.001
X142.35Y-63.386
X142.35Y-64.136
X142.355Y-73.451
X142.453Y-60.758
X142.525Y-62.678
X142.6Y-56.351
X142.615Y-63.771
X142.688Y-61.178
X142.693Y-60.328
X142.72Y-53.9
X142.75Y-58.376
X142.9Y-59.001
X142.915Y-63.386
X142.915Y-64.136
X142.923Y-60.753
X143.05Y-62.678
X143.115Y-56.091
X143.195Y-63.771
X143.2Y-53.601
X143.42Y-75.431
X143.53Y-71.051
X143.55Y-56.451
X143.615Y-81.356
X143.645Y-76.431
X143.72Y-53.875
X143.8Y-66.801
X143.8Y-79.051
X143.802Y-84.973
X143.85Y-79.701
X143.95Y-71.621
X143.955Y-75.31
X144.044Y-56.108
X144.05Y-83.051
X144.12Y-71.131
X144.19Y-76.511
X144.25Y-53.601
X144.28Y-68.56
X144.515Y-75.091
X144.55Y-56.451
X144.55Y-71.721
X144.585Y-83.231
X144.71Y-76.756
X144.745Y-53.951
X144.907Y-74.464
X145.015Y-56.081
X145.1Y-85.101
X145.109Y-83.2
X145.2Y-53.501
X145.525Y-79.141
X145.62Y-61.166
X145.66Y-58.182
X145.67Y-53.921
X145.7Y-57.401
X145.747Y-58.712
X145.75Y-56.451
X145.75Y-56.951
X146.0Y-68.861
X146.0Y-69.541
X146.05Y-57.83
X146.05Y-75.971
X146.06Y-76.626
X146.08Y-61.151
X146.15Y-56.101
X146.189Y-78.667
X146.2Y-53.601
X146.2Y-62.901
X146.445Y-78.186
X146.55Y-61.146
X146.55Y-80.996
X146.72Y-53.861
X146.85Y-71.801
X147.01Y-61.141
X147.215Y-74.561
X147.305Y-80.271
X147.4Y-85.451
X147.505Y-61.136
X147.635Y-71.361
X147.8Y-71.951
X148.03Y-77.221
X148.1Y-53.401
X148.1Y-53.901
X148.198Y-77.712
X148.2Y-75.161
X148.2Y-75.671
X148.315Y-71.141
X148.35Y-71.951
X148.54Y-86.711
X148.95Y-71.951
X149.0Y-85.051
X149.02Y-86.711
X149.105Y-74.396
X149.11Y-79.321
X149.115Y-74.936
X149.123Y-78.746
X149.32Y-55.381
X149.32Y-55.956
X149.35Y-59.601
X149.4Y-71.001
X149.525Y-74.131
X149.535Y-74.661
X149.68Y-55.091
X149.68Y-55.676
X149.681Y-56.242
X149.7Y-84.351
X150.03Y-55.381
X150.035Y-55.956
X150.2Y-83.851
X150.3Y-81.251
X150.3Y-82.551
X150.475Y-62.926
X150.925Y-87.751
X150.975Y-50.351
X150.975Y-66.901
X151.05Y-86.201
X151.15Y-54.176
X151.275Y-55.276
X151.28Y-68.15
X151.3Y-52.601
X151.6Y-62.776
X151.6Y-82.451
X151.65Y-72.026
X151.654Y-78.585
X151.66Y-68.476
X151.67Y-78.061
X151.69Y-79.951
X151.7Y-51.726
X151.75Y-66.901
X151.76Y-71.331
X151.875Y-56.551
X151.875Y-88.201
X151.925Y-49.901
X152.054Y-79.572
X152.08Y-73.671
X152.1Y-80.751
X152.165Y-61.091
X152.23Y-71.331
X152.325Y-66.351
X152.35Y-65.551
X152.35Y-67.501
X152.36Y-73.181
X152.375Y-56.551
X152.45Y-81.601
X152.62Y-61.091
X152.8Y-88.226
X152.85Y-49.876
X152.875Y-56.551
X153.07Y-61.091
X153.25Y-80.801
X153.36Y-73.141
X153.375Y-65.501
X153.375Y-67.576
X153.375Y-73.876
X153.375Y-74.526
X153.5Y-57.951
X153.52Y-61.081
X153.625Y-88.201
X153.675Y-49.901
X153.886Y-76.684
X153.94Y-73.141
X154.14Y-63.051
X154.35Y-87.651
X154.4Y-50.451
X154.475Y-81.651
X154.483Y-76.697
X154.51Y-78.231
X154.525Y-62.676
X154.68Y-75.044
X154.72Y-72.836
X154.72Y-73.291
X154.72Y-73.756
X154.72Y-74.211
X154.829Y-75.547
X154.97Y-76.495
X155.0Y-87.001
X155.01Y-77.751
X155.05Y-51.101
X155.075Y-56.526
X155.25Y-62.591
X155.25Y-63.061
X155.256Y-75.854
X155.26Y-63.571
X155.33Y-72.791
X155.33Y-73.271
X155.34Y-73.771
X155.4Y-68.376
X155.4Y-69.201
X155.4Y-70.051
X155.5Y-59.176
X156.225Y-61.526
X156.3Y-56.526
X156.425Y-59.176
X156.475Y-81.801
X156.525Y-63.501
X156.575Y-52.776
X156.625Y-85.426
X156.75Y-79.176
X157.1Y-59.476
X157.1Y-61.626
X157.1Y-62.726
X157.1Y-64.251
X157.125Y-70.001
X157.125Y-76.351
X157.125Y-77.926
X157.131Y-74.051
X157.131Y-72.726
X157.131Y-68.351
X157.225Y-53.426
X157.275Y-84.776
X157.325Y-56.851
X157.375Y-81.351
X157.775Y-54.151
X157.775Y-55.901
X157.8Y-54.976
X157.825Y-82.301
X157.825Y-84.051
X157.85Y-83.226
T2
G00X122.507Y-56.94
M15
G01X121.308Y-56.94
M16
G05
G00X122.507Y-65.58
M15
G01X121.308Y-65.58
M16
G05
G00X126.308Y-56.94
M15
G01X125.507Y-56.94
M16
G05
G00X126.308Y-65.58
M15
G01X125.507Y-65.58
M16
G05
M30
