%TF.GenerationSoftware,KiCad,Pcbnew,10.0.3*%
%TF.CreationDate,2026-06-29T16:11:00+02:00*%
%TF.ProjectId,LEVIA_H7,4c455649-415f-4483-972e-6b696361645f,0.1*%
%TF.SameCoordinates,Original*%
%TF.FileFunction,Paste,Bot*%
%TF.FilePolarity,Positive*%
%FSLAX46Y46*%
G04 Gerber Fmt 4.6, Leading zero omitted, Abs format (unit mm)*
G04 Created by KiCad (PCBNEW 10.0.3) date 2026-06-29 16:11:00*
%MOMM*%
%LPD*%
G01*
G04 APERTURE LIST*
G04 Aperture macros list*
%AMRoundRect*
0 Rectangle with rounded corners*
0 $1 Rounding radius*
0 $2 $3 $4 $5 $6 $7 $8 $9 X,Y pos of 4 corners*
0 Add a 4 corners polygon primitive as box body*
4,1,4,$2,$3,$4,$5,$6,$7,$8,$9,$2,$3,0*
0 Add four circle primitives for the rounded corners*
1,1,$1+$1,$2,$3*
1,1,$1+$1,$4,$5*
1,1,$1+$1,$6,$7*
1,1,$1+$1,$8,$9*
0 Add four rect primitives between the rounded corners*
20,1,$1+$1,$2,$3,$4,$5,0*
20,1,$1+$1,$4,$5,$6,$7,0*
20,1,$1+$1,$6,$7,$8,$9,0*
20,1,$1+$1,$8,$9,$2,$3,0*%
%AMFreePoly0*
4,1,17,0.415339,0.330376,0.429984,0.295021,0.429984,-0.294996,0.415339,-0.330351,0.379984,-0.344996,-0.030023,-0.344996,-0.065378,-0.330351,-0.080023,-0.294996,-0.080023,0.005016,-0.380035,0.005016,-0.415390,0.019661,-0.430035,0.055016,-0.430035,0.295021,-0.415390,0.330376,-0.380035,0.345021,0.379984,0.345021,0.415339,0.330376,0.415339,0.330376,$1*%
%AMFreePoly1*
4,1,17,0.415237,0.330427,0.429882,0.295072,0.429882,-0.294970,0.415237,-0.330325,0.379882,-0.344970,-0.380136,-0.344970,-0.415491,-0.330325,-0.430136,-0.294970,-0.430136,-0.054966,-0.415491,-0.019611,-0.380136,-0.004966,-0.080124,-0.004966,-0.080124,0.295072,-0.065479,0.330427,-0.030124,0.345072,0.379882,0.345072,0.415237,0.330427,0.415237,0.330427,$1*%
%AMFreePoly2*
4,1,17,0.065276,0.330452,0.079921,0.295097,0.079921,-0.004915,0.379959,-0.004915,0.415314,-0.019560,0.429959,-0.054915,0.429959,-0.294919,0.415314,-0.330274,0.379959,-0.344919,-0.380086,-0.344919,-0.415441,-0.330274,-0.430086,-0.294919,-0.430086,0.295097,-0.415441,0.330452,-0.380086,0.345097,0.029921,0.345097,0.065276,0.330452,0.065276,0.330452,$1*%
%AMFreePoly3*
4,1,17,0.415339,0.330351,0.429984,0.294996,0.429984,0.054991,0.415339,0.019636,0.379984,0.004991,0.079972,0.004991,0.079972,-0.295021,0.065327,-0.330376,0.029972,-0.345021,-0.380035,-0.345021,-0.415390,-0.330376,-0.430035,-0.295021,-0.430035,0.294996,-0.415390,0.330351,-0.380035,0.344996,0.379984,0.344996,0.415339,0.330351,0.415339,0.330351,$1*%
%AMFreePoly4*
4,1,17,0.240384,0.280440,0.255029,0.245085,0.255029,-0.244932,0.240384,-0.280287,0.205029,-0.294932,-0.054991,-0.294932,-0.090346,-0.280287,-0.104991,-0.244932,-0.104991,-0.154927,-0.204978,-0.154927,-0.240333,-0.140282,-0.254978,-0.104927,-0.254978,0.245085,-0.240333,0.280440,-0.204978,0.295085,0.205029,0.295085,0.240384,0.280440,0.240384,0.280440,$1*%
%AMFreePoly5*
4,1,27,-0.004650,0.260425,0.060691,0.195085,0.999998,0.195085,1.035353,0.180440,1.049998,0.145085,1.049998,-0.144932,1.035353,-0.180287,0.999998,-0.194932,0.060715,-0.194932,0.055370,-0.200277,0.055327,-0.200294,-0.004650,-0.260272,-0.040005,-0.274917,-0.870001,-0.274917,-0.905356,-0.260272,-0.910701,-0.254927,-0.999998,-0.254927,-1.035353,-0.240282,-1.049998,-0.204927,-1.049998,0.195072,
-1.035353,0.230427,-0.999998,0.245072,-0.916662,0.245072,-0.889989,0.265072,-0.859993,0.275069,-0.040005,0.275069,-0.004650,0.260425,-0.004650,0.260425,$1*%
%AMFreePoly6*
4,1,17,0.235456,0.285342,0.250101,0.249987,0.250101,-0.250012,0.235456,-0.285367,0.200101,-0.300012,-0.199898,-0.300012,-0.235253,-0.285367,-0.249898,-0.250012,-0.249898,0.089992,-0.235253,0.125347,-0.199898,0.139992,-0.099911,0.139992,-0.099911,0.249987,-0.085266,0.285342,-0.049911,0.299987,0.200101,0.299987,0.235456,0.285342,0.235456,0.285342,$1*%
%AMFreePoly7*
4,1,13,0.155446,0.265276,0.170091,0.229921,0.170091,-0.230073,0.155446,-0.265428,0.120091,-0.280073,-0.119913,-0.280073,-0.155268,-0.265428,-0.169913,-0.230073,-0.169888,0.229924,-0.155241,0.265278,-0.119888,0.279921,0.120091,0.279921,0.155446,0.265276,0.155446,0.265276,$1*%
%AMFreePoly8*
4,1,17,0.110387,0.210412,0.125032,0.175057,0.125032,0.065062,0.225044,0.065062,0.260399,0.050417,0.275044,0.015062,0.275044,-0.174930,0.260399,-0.210285,0.225044,-0.224930,-0.224968,-0.224930,-0.260323,-0.210285,-0.274968,-0.174930,-0.274968,0.175057,-0.260323,0.210412,-0.224968,0.225057,0.075032,0.225057,0.110387,0.210412,0.110387,0.210412,$1*%
%AMFreePoly9*
4,1,13,0.260399,0.155421,0.275044,0.120066,0.275044,-0.119913,0.260399,-0.155268,0.225044,-0.169913,-0.224968,-0.169913,-0.260323,-0.155268,-0.274968,-0.119913,-0.274968,0.120066,-0.260323,0.155421,-0.224968,0.170066,0.225044,0.170066,0.260399,0.155421,0.260399,0.155421,$1*%
%AMFreePoly10*
4,1,13,0.260399,0.155446,0.275044,0.120091,0.275019,-0.119918,0.260371,-0.155272,0.225019,-0.169913,-0.224942,-0.169913,-0.260297,-0.155268,-0.274942,-0.119918,-0.274968,0.120086,-0.260327,0.155443,-0.224973,0.170091,0.225044,0.170091,0.260399,0.155446,0.260399,0.155446,$1*%
%AMFreePoly11*
4,1,17,0.260374,0.205357,0.275019,0.170008,0.275044,-0.029991,0.260404,-0.065348,0.225050,-0.079997,0.125032,-0.079997,0.125032,-0.170002,0.110387,-0.205357,0.075032,-0.220002,-0.224968,-0.220002,-0.260323,-0.205357,-0.274968,-0.170002,-0.274942,0.170006,-0.260295,0.205360,-0.224942,0.220002,0.225019,0.220002,0.260374,0.205357,0.260374,0.205357,$1*%
%AMFreePoly12*
4,1,13,0.160272,0.260501,0.174917,0.225146,0.174917,-0.224866,0.160272,-0.260221,0.124917,-0.274866,-0.125070,-0.274866,-0.160425,-0.260221,-0.175070,-0.224869,-0.175095,0.225143,-0.160452,0.260499,-0.125098,0.275146,0.124917,0.275146,0.160272,0.260501,0.160272,0.260501,$1*%
G04 Aperture macros list end*
%ADD10RoundRect,0.125000X0.675000X-0.125000X0.675000X0.125000X-0.675000X0.125000X-0.675000X-0.125000X0*%
%ADD11RoundRect,0.250000X0.950000X-0.300000X0.950000X0.300000X-0.950000X0.300000X-0.950000X-0.300000X0*%
%ADD12RoundRect,0.135000X0.185000X-0.135000X0.185000X0.135000X-0.185000X0.135000X-0.185000X-0.135000X0*%
%ADD13RoundRect,0.140000X-0.140000X-0.170000X0.140000X-0.170000X0.140000X0.170000X-0.140000X0.170000X0*%
%ADD14RoundRect,0.140000X-0.170000X0.140000X-0.170000X-0.140000X0.170000X-0.140000X0.170000X0.140000X0*%
%ADD15RoundRect,0.135000X-0.185000X0.135000X-0.185000X-0.135000X0.185000X-0.135000X0.185000X0.135000X0*%
%ADD16RoundRect,0.250000X0.475000X-0.250000X0.475000X0.250000X-0.475000X0.250000X-0.475000X-0.250000X0*%
%ADD17RoundRect,0.140000X0.140000X0.170000X-0.140000X0.170000X-0.140000X-0.170000X0.140000X-0.170000X0*%
%ADD18RoundRect,0.250000X-0.475000X0.250000X-0.475000X-0.250000X0.475000X-0.250000X0.475000X0.250000X0*%
%ADD19RoundRect,0.093750X-0.156250X-0.093750X0.156250X-0.093750X0.156250X0.093750X-0.156250X0.093750X0*%
%ADD20RoundRect,0.075000X-0.250000X-0.075000X0.250000X-0.075000X0.250000X0.075000X-0.250000X0.075000X0*%
%ADD21RoundRect,0.225000X0.225000X0.250000X-0.225000X0.250000X-0.225000X-0.250000X0.225000X-0.250000X0*%
%ADD22RoundRect,0.135000X0.135000X0.185000X-0.135000X0.185000X-0.135000X-0.185000X0.135000X-0.185000X0*%
%ADD23RoundRect,0.147500X0.147500X0.172500X-0.147500X0.172500X-0.147500X-0.172500X0.147500X-0.172500X0*%
%ADD24FreePoly0,270.000000*%
%ADD25R,0.250000X0.600000*%
%ADD26FreePoly1,270.000000*%
%ADD27FreePoly2,270.000000*%
%ADD28FreePoly3,270.000000*%
%ADD29R,1.300000X0.350000*%
%ADD30RoundRect,0.245000X-1.455000X0.245000X-1.455000X-0.245000X1.455000X-0.245000X1.455000X0.245000X0*%
%ADD31RoundRect,0.250000X0.950000X-0.325000X0.950000X0.325000X-0.950000X0.325000X-0.950000X-0.325000X0*%
%ADD32FreePoly4,180.000000*%
%ADD33FreePoly5,180.000000*%
%ADD34FreePoly6,180.000000*%
%ADD35FreePoly7,180.000000*%
%ADD36FreePoly8,180.000000*%
%ADD37FreePoly9,180.000000*%
%ADD38FreePoly10,180.000000*%
%ADD39FreePoly11,180.000000*%
%ADD40FreePoly12,180.000000*%
%ADD41RoundRect,0.125000X0.125000X0.675000X-0.125000X0.675000X-0.125000X-0.675000X0.125000X-0.675000X0*%
%ADD42RoundRect,0.250000X0.325000X0.950000X-0.325000X0.950000X-0.325000X-0.950000X0.325000X-0.950000X0*%
%ADD43R,0.711000X0.356000*%
%ADD44R,1.600000X2.400000*%
%ADD45RoundRect,0.140000X-0.021213X0.219203X-0.219203X0.021213X0.021213X-0.219203X0.219203X-0.021213X0*%
%ADD46RoundRect,0.140000X0.170000X-0.140000X0.170000X0.140000X-0.170000X0.140000X-0.170000X-0.140000X0*%
%ADD47RoundRect,0.200000X-0.250000X-0.200000X0.250000X-0.200000X0.250000X0.200000X-0.250000X0.200000X0*%
%ADD48RoundRect,0.250000X0.300000X0.950000X-0.300000X0.950000X-0.300000X-0.950000X0.300000X-0.950000X0*%
G04 APERTURE END LIST*
D10*
%TO.C,U21*%
X124545000Y-78105000D03*
X124545000Y-77105000D03*
X124545000Y-76105000D03*
D11*
X121145000Y-79205000D03*
X121145000Y-75005000D03*
%TD*%
D12*
%TO.C,R12*%
X134239997Y-56615001D03*
X134239997Y-55595003D03*
%TD*%
D13*
%TO.C,C11*%
X135570000Y-74960617D03*
X136530000Y-74960617D03*
%TD*%
D14*
%TO.C,C7*%
X137915000Y-75845617D03*
X137915000Y-76805617D03*
%TD*%
%TO.C,C3*%
X136260000Y-80215617D03*
X136260000Y-81175617D03*
%TD*%
D12*
%TO.C,R46*%
X132350000Y-53900616D03*
X132350000Y-52880618D03*
%TD*%
D15*
%TO.C,R37*%
X132520000Y-65865618D03*
X132520000Y-66885616D03*
%TD*%
%TO.C,R41*%
X131580000Y-65865618D03*
X131580000Y-66885616D03*
%TD*%
D16*
%TO.C,C25*%
X132189997Y-63195004D03*
X132189997Y-61295006D03*
%TD*%
D13*
%TO.C,C8*%
X135620000Y-73600617D03*
X136580000Y-73600617D03*
%TD*%
D17*
%TO.C,C39*%
X152115000Y-74650617D03*
X151155000Y-74650617D03*
%TD*%
D15*
%TO.C,R38*%
X137069995Y-65840005D03*
X137069995Y-66860003D03*
%TD*%
D16*
%TO.C,C24*%
X146256268Y-63846179D03*
X146256268Y-61946181D03*
%TD*%
D18*
%TO.C,C14*%
X139639998Y-56285004D03*
X139639998Y-58185002D03*
%TD*%
D14*
%TO.C,C15*%
X149519995Y-56915002D03*
X149519995Y-57875002D03*
%TD*%
D19*
%TO.C,U1*%
X123245000Y-61337504D03*
D20*
X123170000Y-60800004D03*
D19*
X123245000Y-60262504D03*
X124945000Y-60262504D03*
D20*
X125020000Y-60800004D03*
D19*
X124945000Y-61337504D03*
%TD*%
D16*
%TO.C,C27*%
X134164997Y-63195001D03*
X134164997Y-61295003D03*
%TD*%
D14*
%TO.C,C40*%
X148522745Y-76275004D03*
X148522745Y-77235004D03*
%TD*%
D21*
%TO.C,C18*%
X146531268Y-60106179D03*
X144981268Y-60106179D03*
%TD*%
D22*
%TO.C,R8*%
X136774995Y-55045004D03*
X135754997Y-55045004D03*
%TD*%
D23*
%TO.C,FB1*%
X138310000Y-80100617D03*
X137340000Y-80100617D03*
%TD*%
D12*
%TO.C,R32*%
X129300000Y-78940616D03*
X129300000Y-77920618D03*
%TD*%
D14*
%TO.C,C16*%
X138164996Y-56215003D03*
X138164996Y-57175003D03*
%TD*%
D12*
%TO.C,R49*%
X128350000Y-53900616D03*
X128350000Y-52880618D03*
%TD*%
D24*
%TO.C,U4*%
X146499995Y-56930004D03*
D25*
X147169995Y-56860004D03*
X147669995Y-56860004D03*
D26*
X148319995Y-56940004D03*
D27*
X148319995Y-58720004D03*
D25*
X147669995Y-58800004D03*
X147169995Y-58800004D03*
D28*
X146499995Y-58720004D03*
D29*
X146869995Y-57830004D03*
%TD*%
D17*
%TO.C,C2*%
X138350000Y-78230617D03*
X137390000Y-78230617D03*
%TD*%
D12*
%TO.C,R47*%
X131050000Y-53900616D03*
X131050000Y-52880618D03*
%TD*%
D13*
%TO.C,C9*%
X135930000Y-77190617D03*
X136890000Y-77190617D03*
%TD*%
D16*
%TO.C,C22*%
X144276268Y-63846178D03*
X144276268Y-61946180D03*
%TD*%
D22*
%TO.C,R1*%
X124184999Y-59225617D03*
X123165001Y-59225617D03*
%TD*%
D17*
%TO.C,C12*%
X134180000Y-76775617D03*
X133220000Y-76775617D03*
%TD*%
D30*
%TO.C,L1*%
X149644998Y-61510001D03*
X149644998Y-63880003D03*
%TD*%
D13*
%TO.C,C20*%
X147689993Y-59820002D03*
X148649993Y-59820002D03*
%TD*%
D15*
%TO.C,R39*%
X138119995Y-65840005D03*
X138119995Y-66860003D03*
%TD*%
%TO.C,R40*%
X130640000Y-65865618D03*
X130640000Y-66885616D03*
%TD*%
D30*
%TO.C,L2*%
X137539995Y-60920004D03*
X137539995Y-63290006D03*
%TD*%
D10*
%TO.C,U3*%
X124550564Y-72340000D03*
X124550564Y-71340000D03*
X124550564Y-70340000D03*
X124550564Y-69340000D03*
D31*
X121150564Y-68240000D03*
X121150564Y-73440000D03*
%TD*%
D13*
%TO.C,C21*%
X135979995Y-59245002D03*
X136939995Y-59245002D03*
%TD*%
D32*
%TO.C,U5*%
X136849995Y-56235002D03*
D33*
X136059995Y-57235002D03*
D34*
X136859995Y-58235002D03*
D35*
X136129994Y-58255002D03*
D36*
X135279995Y-58315002D03*
D37*
X135279995Y-57755002D03*
D38*
X135279995Y-56705002D03*
D39*
X135279995Y-56155002D03*
D40*
X136129994Y-56215002D03*
%TD*%
D22*
%TO.C,R16*%
X132349997Y-57820004D03*
X131329999Y-57820004D03*
%TD*%
D12*
%TO.C,R43*%
X143744995Y-55535003D03*
X143744995Y-54515005D03*
%TD*%
D22*
%TO.C,R7*%
X126949998Y-72935617D03*
X125930000Y-72935617D03*
%TD*%
D41*
%TO.C,U8*%
X148994335Y-83247531D03*
X147994335Y-83247531D03*
X146994335Y-83247531D03*
X145994335Y-83247531D03*
D42*
X144894335Y-86647531D03*
X150094335Y-86647531D03*
%TD*%
D22*
%TO.C,R34*%
X127949999Y-79835617D03*
X126930001Y-79835617D03*
%TD*%
D15*
%TO.C,R2*%
X125675000Y-63165618D03*
X125675000Y-64185616D03*
%TD*%
%TO.C,R35*%
X126970000Y-80775618D03*
X126970000Y-81795616D03*
%TD*%
D43*
%TO.C,U12*%
X149459995Y-77620004D03*
X149459995Y-76960004D03*
X149459995Y-76310004D03*
X149459995Y-75660004D03*
X152319995Y-75660004D03*
X152319995Y-76310004D03*
X152319995Y-76960004D03*
X152319995Y-77620004D03*
D44*
X150889995Y-76640004D03*
%TD*%
D15*
%TO.C,R9*%
X134239997Y-58295004D03*
X134239997Y-59315002D03*
%TD*%
D18*
%TO.C,C13*%
X150969998Y-56920004D03*
X150969998Y-58820002D03*
%TD*%
D12*
%TO.C,R48*%
X129700000Y-53900616D03*
X129700000Y-52880618D03*
%TD*%
D41*
%TO.C,U24*%
X142350000Y-83260000D03*
X141350000Y-83260000D03*
X140350000Y-83260000D03*
X139350000Y-83260000D03*
D42*
X138250000Y-86660000D03*
X143450000Y-86660000D03*
%TD*%
D45*
%TO.C,C6*%
X134234411Y-78646206D03*
X133555589Y-79325028D03*
%TD*%
D46*
%TO.C,C5*%
X136260000Y-79345617D03*
X136260000Y-78385617D03*
%TD*%
D13*
%TO.C,C10*%
X135950000Y-76130617D03*
X136910000Y-76130617D03*
%TD*%
D12*
%TO.C,R45*%
X141744995Y-55535003D03*
X141744995Y-54515005D03*
%TD*%
D17*
%TO.C,C4*%
X138330000Y-79165617D03*
X137370000Y-79165617D03*
%TD*%
D47*
%TO.C,D6*%
X153819995Y-77450004D03*
X153819995Y-75550004D03*
X155819995Y-76500004D03*
%TD*%
D15*
%TO.C,R15*%
X133274997Y-57770004D03*
X133274997Y-58790002D03*
%TD*%
D12*
%TO.C,R44*%
X142744995Y-55535003D03*
X142744995Y-54515005D03*
%TD*%
%TO.C,R42*%
X144744995Y-55535003D03*
X144744995Y-54515005D03*
%TD*%
D15*
%TO.C,R36*%
X135325000Y-65830618D03*
X135325000Y-66850616D03*
%TD*%
D46*
%TO.C,C53*%
X133455000Y-66835617D03*
X133455000Y-65875617D03*
%TD*%
%TO.C,C28*%
X130739998Y-62975003D03*
X130739998Y-62015003D03*
%TD*%
D41*
%TO.C,U19*%
X133330000Y-83260000D03*
X132330000Y-83260000D03*
X131330000Y-83260000D03*
X130330000Y-83260000D03*
X129330000Y-83260000D03*
X128330000Y-83260000D03*
D48*
X127230000Y-86660000D03*
X134430000Y-86660000D03*
%TD*%
D46*
%TO.C,C54*%
X134375000Y-66835617D03*
X134375000Y-65875617D03*
%TD*%
M02*
