%TF.GenerationSoftware,KiCad,Pcbnew,10.0.3*%
%TF.CreationDate,2026-06-30T16:58:57+02:00*%
%TF.ProjectId,LEVIA_H7,4c455649-415f-4483-972e-6b696361645f,0.1*%
%TF.SameCoordinates,Original*%
%TF.FileFunction,Soldermask,Top*%
%TF.FilePolarity,Negative*%
%FSLAX46Y46*%
G04 Gerber Fmt 4.6, Leading zero omitted, Abs format (unit mm)*
G04 Created by KiCad (PCBNEW 10.0.3) date 2026-06-30 16:58:57*
%MOMM*%
%LPD*%
G01*
G04 APERTURE LIST*
G04 Aperture macros list*
%AMRoundRect*
0 Rectangle with rounded corners*
0 $1 Rounding radius*
0 $2 $3 $4 $5 $6 $7 $8 $9 X,Y pos of 4 corners*
0 Add a 4 corners polygon primitive as box body*
4,1,4,$2,$3,$4,$5,$6,$7,$8,$9,$2,$3,0*
0 Add four circle primitives for the rounded corners*
1,1,$1+$1,$2,$3*
1,1,$1+$1,$4,$5*
1,1,$1+$1,$6,$7*
1,1,$1+$1,$8,$9*
0 Add four rect primitives between the rounded corners*
20,1,$1+$1,$2,$3,$4,$5,0*
20,1,$1+$1,$4,$5,$6,$7,0*
20,1,$1+$1,$6,$7,$8,$9,0*
20,1,$1+$1,$8,$9,$2,$3,0*%
%AMFreePoly0*
4,1,42,-0.233530,0.434667,-0.125000,0.389711,-0.031801,0.318198,0.039711,0.225000,0.084668,0.116469,0.097130,0.021799,0.098079,0.019509,0.098079,0.016997,0.098769,0.015643,0.098316,0.012786,0.100000,0.000000,0.098079,-0.014591,0.098079,-0.019509,0.097130,-0.021799,0.084668,-0.116469,0.039711,-0.225000,-0.031801,-0.318198,-0.125000,-0.389711,-0.233530,-0.434667,-0.332164,-0.447652,
-0.334357,-0.448770,-0.337213,-0.448316,-0.349999,-0.450000,-0.383850,-0.440931,-0.395399,-0.439101,-0.397127,-0.437372,-0.400000,-0.436603,-0.436603,-0.400000,-0.437372,-0.397127,-0.439101,-0.395399,-0.450000,-0.349999,-0.450000,0.349999,-0.436603,0.400000,-0.432383,0.404219,-0.430902,0.408779,-0.419646,0.416956,-0.400000,0.436603,-0.388285,0.439741,-0.380902,0.445106,-0.368265,0.445106,
-0.349999,0.450000,-0.233530,0.434667,-0.233530,0.434667,$1*%
G04 Aperture macros list end*
%ADD10C,0.300000*%
%ADD11FreePoly0,315.000000*%
%ADD12FreePoly0,135.000000*%
%ADD13RoundRect,0.277778X0.622222X-0.472222X0.622222X0.472222X-0.622222X0.472222X-0.622222X-0.472222X0*%
%ADD14RoundRect,0.175000X-0.175000X0.525000X-0.175000X-0.525000X0.175000X-0.525000X0.175000X0.525000X0*%
%ADD15RoundRect,0.250000X0.450000X-1.625000X0.450000X1.625000X-0.450000X1.625000X-0.450000X-1.625000X0*%
%ADD16RoundRect,0.135000X0.135000X0.185000X-0.135000X0.185000X-0.135000X-0.185000X0.135000X-0.185000X0*%
%ADD17RoundRect,0.125000X0.675000X-0.125000X0.675000X0.125000X-0.675000X0.125000X-0.675000X-0.125000X0*%
%ADD18RoundRect,0.250000X0.950000X-0.325000X0.950000X0.325000X-0.950000X0.325000X-0.950000X-0.325000X0*%
%ADD19RoundRect,0.100000X0.175000X0.100000X-0.175000X0.100000X-0.175000X-0.100000X0.175000X-0.100000X0*%
%ADD20RoundRect,0.125000X0.225000X0.125000X-0.225000X0.125000X-0.225000X-0.125000X0.225000X-0.125000X0*%
%ADD21RoundRect,0.140000X-0.170000X0.140000X-0.170000X-0.140000X0.170000X-0.140000X0.170000X0.140000X0*%
%ADD22RoundRect,0.125000X-0.675000X0.125000X-0.675000X-0.125000X0.675000X-0.125000X0.675000X0.125000X0*%
%ADD23RoundRect,0.250000X-0.950000X0.325000X-0.950000X-0.325000X0.950000X-0.325000X0.950000X0.325000X0*%
%ADD24RoundRect,0.140000X-0.140000X-0.170000X0.140000X-0.170000X0.140000X0.170000X-0.140000X0.170000X0*%
%ADD25RoundRect,0.135000X-0.185000X0.135000X-0.185000X-0.135000X0.185000X-0.135000X0.185000X0.135000X0*%
%ADD26RoundRect,0.140000X0.140000X0.170000X-0.140000X0.170000X-0.140000X-0.170000X0.140000X-0.170000X0*%
%ADD27RoundRect,0.225000X0.225000X0.375000X-0.225000X0.375000X-0.225000X-0.375000X0.225000X-0.375000X0*%
%ADD28R,0.600000X1.400000*%
%ADD29RoundRect,0.135000X0.185000X-0.135000X0.185000X0.135000X-0.185000X0.135000X-0.185000X-0.135000X0*%
%ADD30RoundRect,0.225000X-0.225000X-0.250000X0.225000X-0.250000X0.225000X0.250000X-0.225000X0.250000X0*%
%ADD31RoundRect,0.225000X0.225000X0.250000X-0.225000X0.250000X-0.225000X-0.250000X0.225000X-0.250000X0*%
%ADD32R,0.800000X0.364000*%
%ADD33R,1.500000X2.800000*%
%ADD34RoundRect,0.125000X0.125000X0.675000X-0.125000X0.675000X-0.125000X-0.675000X0.125000X-0.675000X0*%
%ADD35RoundRect,0.250000X0.300000X0.950000X-0.300000X0.950000X-0.300000X-0.950000X0.300000X-0.950000X0*%
%ADD36RoundRect,0.225000X-0.225000X-0.375000X0.225000X-0.375000X0.225000X0.375000X-0.225000X0.375000X0*%
%ADD37R,0.280000X0.675000*%
%ADD38R,0.675000X0.280000*%
%ADD39RoundRect,0.250000X0.475000X-0.250000X0.475000X0.250000X-0.475000X0.250000X-0.475000X-0.250000X0*%
%ADD40RoundRect,0.135000X-0.135000X-0.185000X0.135000X-0.185000X0.135000X0.185000X-0.135000X0.185000X0*%
%ADD41R,0.625000X0.280000*%
%ADD42R,1.500000X2.250000*%
%ADD43RoundRect,0.162500X0.237500X0.162500X-0.237500X0.162500X-0.237500X-0.162500X0.237500X-0.162500X0*%
%ADD44C,0.470000*%
%ADD45RoundRect,0.140000X0.170000X-0.140000X0.170000X0.140000X-0.170000X0.140000X-0.170000X-0.140000X0*%
%ADD46RoundRect,0.250000X0.950000X-0.300000X0.950000X0.300000X-0.950000X0.300000X-0.950000X-0.300000X0*%
%ADD47RoundRect,0.150000X0.150000X-0.587500X0.150000X0.587500X-0.150000X0.587500X-0.150000X-0.587500X0*%
%ADD48RoundRect,0.250000X-0.950000X0.300000X-0.950000X-0.300000X0.950000X-0.300000X0.950000X0.300000X0*%
%ADD49RoundRect,0.225000X-0.250000X0.225000X-0.250000X-0.225000X0.250000X-0.225000X0.250000X0.225000X0*%
%ADD50R,0.450000X0.250000*%
%ADD51R,0.250000X0.450000*%
%ADD52R,0.400000X0.600000*%
%ADD53RoundRect,0.225000X0.250000X-0.225000X0.250000X0.225000X-0.250000X0.225000X-0.250000X-0.225000X0*%
%ADD54RoundRect,0.250000X1.000000X0.650000X-1.000000X0.650000X-1.000000X-0.650000X1.000000X-0.650000X0*%
%ADD55O,1.800000X1.000000*%
%ADD56O,2.200000X1.000000*%
%ADD57R,1.150000X0.300000*%
%ADD58RoundRect,0.200000X-0.200000X0.250000X-0.200000X-0.250000X0.200000X-0.250000X0.200000X0.250000X0*%
G04 APERTURE END LIST*
D10*
X147487344Y-63273540D02*
X146730844Y-64534374D01*
X148243845Y-64534374D01*
X147487344Y-63273540D01*
G36*
X148243845Y-64534374D02*
G01*
X146730844Y-64534374D01*
X147487344Y-63273540D01*
X148243845Y-64534374D01*
G37*
D11*
%TO.C,JP1*%
X151123676Y-77554293D03*
D12*
X150360000Y-76790617D03*
%TD*%
D13*
%TO.C,J1*%
X128992500Y-64320004D03*
D14*
X130442500Y-66200004D03*
X131542500Y-66200004D03*
X132632500Y-66200004D03*
X133732500Y-66200004D03*
X134842500Y-66200004D03*
X135942500Y-66200004D03*
X137032500Y-66200004D03*
X138142500Y-66200004D03*
D15*
X139632500Y-63700004D03*
%TD*%
D16*
%TO.C,R4*%
X131629994Y-86260006D03*
X130609996Y-86260006D03*
%TD*%
D17*
%TO.C,U13*%
X152870000Y-79060000D03*
X152870000Y-78060000D03*
X152870000Y-77060000D03*
X152870000Y-76060000D03*
D18*
X156270000Y-74960000D03*
X156270000Y-80160000D03*
%TD*%
D19*
%TO.C,D1*%
X133939995Y-86060004D03*
D20*
X133989995Y-85340004D03*
D19*
X133939995Y-84620004D03*
X132539995Y-86060004D03*
D20*
X132489995Y-85340004D03*
D19*
X132539995Y-84620004D03*
%TD*%
D21*
%TO.C,C51*%
X148125000Y-78845001D03*
X148125000Y-79805001D03*
%TD*%
D22*
%TO.C,U18*%
X124544995Y-68535004D03*
X124544995Y-69535004D03*
X124544995Y-70535004D03*
X124544995Y-71535004D03*
D23*
X121144995Y-72635004D03*
X121144995Y-67435004D03*
%TD*%
D17*
%TO.C,U10*%
X152870000Y-64615000D03*
X152870000Y-63615000D03*
X152870000Y-62615000D03*
X152870000Y-61615000D03*
D18*
X156270000Y-60515000D03*
X156270000Y-65715000D03*
%TD*%
D24*
%TO.C,C44*%
X143680000Y-85500000D03*
X144640000Y-85500000D03*
%TD*%
D25*
%TO.C,R31*%
X126280000Y-69190618D03*
X126280000Y-70210616D03*
%TD*%
D16*
%TO.C,R5*%
X131629994Y-85320005D03*
X130609996Y-85320005D03*
%TD*%
D24*
%TO.C,C38*%
X149355000Y-68365617D03*
X150315000Y-68365617D03*
%TD*%
D26*
%TO.C,C50*%
X145750000Y-72710000D03*
X144790000Y-72710000D03*
%TD*%
D24*
%TO.C,C34*%
X144180000Y-64565617D03*
X145140000Y-64565617D03*
%TD*%
D16*
%TO.C,R27*%
X140759999Y-84975617D03*
X139740001Y-84975617D03*
%TD*%
D27*
%TO.C,D4*%
X133610000Y-55990000D03*
X130310000Y-55990000D03*
%TD*%
D28*
%TO.C,Y1*%
X131944995Y-81650004D03*
X133144995Y-81650004D03*
X134344995Y-81650004D03*
%TD*%
D29*
%TO.C,R19*%
X134740000Y-61079999D03*
X134740000Y-60060001D03*
%TD*%
D16*
%TO.C,R24*%
X151480000Y-76080617D03*
X150460002Y-76080617D03*
%TD*%
D30*
%TO.C,C30*%
X135963750Y-60995000D03*
X137513750Y-60995000D03*
%TD*%
D24*
%TO.C,C35*%
X149160000Y-66910617D03*
X150120000Y-66910617D03*
%TD*%
D26*
%TO.C,C48*%
X147580000Y-72710000D03*
X146620000Y-72710000D03*
%TD*%
D29*
%TO.C,R22*%
X151180000Y-65885616D03*
X151180000Y-64865618D03*
%TD*%
D31*
%TO.C,C29*%
X133412500Y-57914998D03*
X131862500Y-57914998D03*
%TD*%
D29*
%TO.C,R23*%
X151460000Y-70155616D03*
X151460000Y-69135618D03*
%TD*%
D16*
%TO.C,R3*%
X128579994Y-84100004D03*
X127559996Y-84100004D03*
%TD*%
D26*
%TO.C,C45*%
X135799995Y-85020000D03*
X134839995Y-85020000D03*
%TD*%
D32*
%TO.C,U9*%
X144950000Y-65900000D03*
X144950000Y-66550000D03*
X144950000Y-67200000D03*
X144950000Y-67850000D03*
X144950000Y-68500000D03*
X144950000Y-69150000D03*
X144950000Y-69800000D03*
X144950000Y-70450000D03*
X148110000Y-70450000D03*
X148110000Y-69800000D03*
X148110000Y-69150000D03*
X148110000Y-68500000D03*
X148110000Y-67850000D03*
X148110000Y-67200000D03*
X148110000Y-66550000D03*
X148110000Y-65900000D03*
D33*
X146530000Y-67000000D03*
X146530000Y-69999999D03*
%TD*%
D25*
%TO.C,R20*%
X134720000Y-57660001D03*
X134720000Y-58679999D03*
%TD*%
D34*
%TO.C,U22*%
X148730000Y-54940000D03*
X147730000Y-54940000D03*
X146730000Y-54940000D03*
X145730000Y-54940000D03*
X144730000Y-54940000D03*
X143730000Y-54940000D03*
X142730000Y-54940000D03*
X141730000Y-54940000D03*
D35*
X140630000Y-51540000D03*
X149830000Y-51540000D03*
%TD*%
D29*
%TO.C,R30*%
X126294995Y-72100004D03*
X126294995Y-71080006D03*
%TD*%
D36*
%TO.C,D3*%
X135057499Y-55990000D03*
X138357499Y-55990000D03*
%TD*%
D25*
%TO.C,R26*%
X142320000Y-73920618D03*
X142320000Y-74940616D03*
%TD*%
D37*
%TO.C,U14*%
X138400001Y-83180000D03*
X137900000Y-83180000D03*
X137400000Y-83180000D03*
X136899999Y-83180000D03*
D38*
X136640000Y-83940000D03*
X136640000Y-84440000D03*
X136640000Y-84940000D03*
D37*
X136899999Y-85700000D03*
X137400000Y-85700000D03*
X137900000Y-85700000D03*
X138400001Y-85700000D03*
D38*
X138660000Y-84940000D03*
X138660000Y-84440000D03*
X138660000Y-83940000D03*
%TD*%
D39*
%TO.C,C52*%
X126430000Y-75320616D03*
X126430000Y-73420618D03*
%TD*%
D24*
%TO.C,C37*%
X149160000Y-65980617D03*
X150120000Y-65980617D03*
%TD*%
D16*
%TO.C,R11*%
X147345000Y-58390617D03*
X146325002Y-58390617D03*
%TD*%
%TO.C,R10*%
X149229999Y-58384999D03*
X148210001Y-58384999D03*
%TD*%
D40*
%TO.C,R21*%
X142260001Y-72750617D03*
X143279999Y-72750617D03*
%TD*%
D41*
%TO.C,U6*%
X130802500Y-59179998D03*
X130802500Y-59819998D03*
X130802500Y-60479998D03*
X130802500Y-61119998D03*
X133622500Y-61119998D03*
X133622500Y-60479998D03*
X133622500Y-59819998D03*
X133622500Y-59179998D03*
D42*
X132212500Y-60149998D03*
%TD*%
D24*
%TO.C,C47*%
X146745000Y-76450000D03*
X147705000Y-76450000D03*
%TD*%
D41*
%TO.C,U7*%
X138460000Y-59680000D03*
X138460000Y-59040000D03*
X138460000Y-58380000D03*
X138460000Y-57740000D03*
X135640000Y-57740000D03*
X135640000Y-58380000D03*
X135640000Y-59040000D03*
X135640000Y-59680000D03*
D42*
X137050000Y-58710000D03*
%TD*%
D43*
%TO.C,SW2*%
X129069995Y-86850004D03*
X126069995Y-86850004D03*
X129069995Y-85050004D03*
X126069995Y-85050004D03*
%TD*%
D26*
%TO.C,C17*%
X147290000Y-59325617D03*
X146330000Y-59325617D03*
%TD*%
D21*
%TO.C,C33*%
X149370000Y-69425617D03*
X149370000Y-70385617D03*
%TD*%
D44*
%TO.C,U2*%
X131150000Y-79450617D03*
X131150001Y-78650617D03*
X131150000Y-77850617D03*
X131150000Y-77050618D03*
X131150000Y-76250617D03*
X131150000Y-75450617D03*
X131150000Y-74650616D03*
X131150000Y-73850617D03*
X131150001Y-73050617D03*
X131150000Y-72250617D03*
X131950000Y-79450616D03*
X131950000Y-78650617D03*
X131950000Y-77850618D03*
X131950000Y-77050617D03*
X131950000Y-76250617D03*
X131950000Y-75450617D03*
X131950000Y-74650617D03*
X131950000Y-73850616D03*
X131950000Y-73050617D03*
X131950000Y-72250618D03*
X132750000Y-79450617D03*
X132749999Y-78650617D03*
X132750000Y-77850617D03*
X132750000Y-77050618D03*
X132750000Y-76250617D03*
X132750000Y-75450617D03*
X132750000Y-74650616D03*
X132750000Y-73850617D03*
X132749999Y-73050617D03*
X132750000Y-72250617D03*
X133549999Y-79450617D03*
X133550000Y-78650617D03*
X133549999Y-77850617D03*
X133550000Y-77050617D03*
X133550000Y-76250617D03*
X133550000Y-75450617D03*
X133550000Y-74650617D03*
X133549999Y-73850617D03*
X133550000Y-73050617D03*
X133549999Y-72250617D03*
X134350000Y-79450617D03*
X134350000Y-78650617D03*
X134350000Y-77850617D03*
X134350000Y-77050617D03*
X134350000Y-76250617D03*
X134350000Y-75450617D03*
X134350000Y-74650617D03*
X134350000Y-73850617D03*
X134350000Y-73050617D03*
X134350000Y-72250617D03*
X135150000Y-79450617D03*
X135150000Y-78650617D03*
X135150000Y-77850617D03*
X135150000Y-77050617D03*
X135150000Y-76250617D03*
X135150000Y-75450617D03*
X135150000Y-74650617D03*
X135150000Y-73850617D03*
X135150000Y-73050617D03*
X135150000Y-72250617D03*
X135950001Y-79450617D03*
X135950000Y-78650617D03*
X135950001Y-77850617D03*
X135950000Y-77050617D03*
X135950000Y-76250617D03*
X135950000Y-75450617D03*
X135950000Y-74650617D03*
X135950001Y-73850617D03*
X135950000Y-73050617D03*
X135950001Y-72250617D03*
X136750000Y-79450617D03*
X136750001Y-78650617D03*
X136750000Y-77850617D03*
X136750000Y-77050618D03*
X136750000Y-76250617D03*
X136750000Y-75450617D03*
X136750000Y-74650616D03*
X136750000Y-73850617D03*
X136750001Y-73050617D03*
X136750000Y-72250617D03*
X137550000Y-79450616D03*
X137550000Y-78650617D03*
X137550000Y-77850618D03*
X137550000Y-77050617D03*
X137550000Y-76250617D03*
X137550000Y-75450617D03*
X137550000Y-74650617D03*
X137550000Y-73850616D03*
X137550000Y-73050617D03*
X137550000Y-72250618D03*
X138350000Y-79450617D03*
X138349999Y-78650617D03*
X138350000Y-77850617D03*
X138350000Y-77050618D03*
X138350000Y-76250617D03*
X138350000Y-75450617D03*
X138350000Y-74650616D03*
X138350000Y-73850617D03*
X138349999Y-73050617D03*
X138350000Y-72250617D03*
%TD*%
D38*
%TO.C,U15*%
X143270000Y-82750000D03*
X143270000Y-83250000D03*
X143270000Y-83750000D03*
X143270000Y-84250000D03*
D37*
X144030000Y-84510000D03*
X144530000Y-84510000D03*
X145030000Y-84510000D03*
D38*
X145790000Y-84250000D03*
X145790000Y-83750000D03*
X145790000Y-83250000D03*
X145790000Y-82750000D03*
D37*
X145030000Y-82490000D03*
X144530000Y-82490000D03*
X144030000Y-82490000D03*
%TD*%
D45*
%TO.C,C42*%
X147650000Y-84230617D03*
X147650000Y-83270617D03*
%TD*%
D16*
%TO.C,R28*%
X146214999Y-81495617D03*
X145195001Y-81495617D03*
%TD*%
D17*
%TO.C,U11*%
X152870001Y-70310000D03*
X152870001Y-69310000D03*
X152870001Y-68310000D03*
D46*
X156270001Y-71410000D03*
X156270001Y-67210000D03*
%TD*%
D26*
%TO.C,C46*%
X146470000Y-85500000D03*
X145510000Y-85500000D03*
%TD*%
%TO.C,C41*%
X135799995Y-85960000D03*
X134839995Y-85960000D03*
%TD*%
D29*
%TO.C,R29*%
X144310000Y-74604999D03*
X144310000Y-73585001D03*
%TD*%
D45*
%TO.C,C49*%
X143974998Y-78230617D03*
X143974998Y-77270617D03*
%TD*%
D21*
%TO.C,C1*%
X135550000Y-81295004D03*
X135550000Y-82255004D03*
%TD*%
D16*
%TO.C,R6*%
X131629994Y-84360004D03*
X130609996Y-84360004D03*
%TD*%
D47*
%TO.C,Q1*%
X127019995Y-81275005D03*
X128919995Y-81275005D03*
X127969995Y-79400005D03*
%TD*%
D22*
%TO.C,U20*%
X124544995Y-75310004D03*
X124544995Y-76310004D03*
X124544995Y-77310004D03*
X124544995Y-78310004D03*
X124544995Y-79310004D03*
X124544995Y-80310004D03*
D48*
X121144995Y-81410004D03*
X121144995Y-74210004D03*
%TD*%
D49*
%TO.C,C31*%
X129570000Y-59164998D03*
X129570000Y-60714998D03*
%TD*%
D24*
%TO.C,C36*%
X149155000Y-64900617D03*
X150115000Y-64900617D03*
%TD*%
D26*
%TO.C,C43*%
X135799995Y-84050004D03*
X134839995Y-84050004D03*
%TD*%
D50*
%TO.C,U17*%
X144740000Y-77809999D03*
X144740000Y-78310000D03*
X144740000Y-78810000D03*
X144740000Y-79310001D03*
D51*
X145249999Y-79820000D03*
X145750000Y-79820000D03*
X146250000Y-79820000D03*
X146750001Y-79820000D03*
D50*
X147260000Y-79310001D03*
X147260000Y-78810000D03*
X147260000Y-78310000D03*
X147260000Y-77809999D03*
D51*
X146750001Y-77300000D03*
X146250000Y-77300000D03*
X145750000Y-77300000D03*
X145249999Y-77300000D03*
%TD*%
D52*
%TO.C,U16*%
X147150001Y-75080000D03*
X146490000Y-75080000D03*
X145850000Y-75080000D03*
X145189999Y-75080000D03*
X145189999Y-73640000D03*
X145850000Y-73640000D03*
X146490000Y-73640000D03*
X147150001Y-73640000D03*
%TD*%
D26*
%TO.C,C26*%
X137635000Y-54380004D03*
X136675000Y-54380004D03*
%TD*%
D53*
%TO.C,C32*%
X139792499Y-59665000D03*
X139792499Y-58115000D03*
%TD*%
D25*
%TO.C,R25*%
X143269995Y-73640005D03*
X143269995Y-74660003D03*
%TD*%
D54*
%TO.C,D2*%
X155442501Y-57850617D03*
X151442499Y-57850617D03*
%TD*%
D55*
%TO.C,USB1*%
X125907500Y-65580000D03*
D56*
X121907500Y-65580000D03*
X121907500Y-56940000D03*
D55*
X125907500Y-56940000D03*
D57*
X126467500Y-57910000D03*
X126467500Y-58710000D03*
X126467500Y-60010000D03*
X126467500Y-61010000D03*
X126467500Y-61510000D03*
X126467500Y-62510000D03*
X126467500Y-63810000D03*
X126467500Y-64610000D03*
X126467500Y-64310000D03*
X126467500Y-63510000D03*
X126467500Y-63009999D03*
X126467500Y-62010001D03*
X126467500Y-60509999D03*
X126467500Y-59510001D03*
X126467500Y-59010000D03*
X126467500Y-58210000D03*
%TD*%
D58*
%TO.C,Y2*%
X141855340Y-66571982D03*
X141855340Y-67971982D03*
X142955340Y-67971982D03*
X142955340Y-66571982D03*
%TD*%
M02*
