%TF.GenerationSoftware,KiCad,Pcbnew,10.0.3*%
%TF.CreationDate,2026-06-30T16:58:57+02:00*%
%TF.ProjectId,LEVIA_H7,4c455649-415f-4483-972e-6b696361645f,0.1*%
%TF.SameCoordinates,Original*%
%TF.FileFunction,Legend,Top*%
%TF.FilePolarity,Positive*%
%FSLAX46Y46*%
G04 Gerber Fmt 4.6, Leading zero omitted, Abs format (unit mm)*
G04 Created by KiCad (PCBNEW 10.0.3) date 2026-06-30 16:58:57*
%MOMM*%
%LPD*%
G01*
G04 APERTURE LIST*
%ADD10C,0.250000*%
%ADD11C,0.375000*%
%ADD12C,0.100000*%
%ADD13C,0.000000*%
%ADD14C,0.150000*%
%ADD15C,0.060000*%
%ADD16C,0.120000*%
G04 APERTURE END LIST*
D10*
G36*
X136963294Y-69879698D02*
G01*
X137031441Y-69888541D01*
X137078872Y-69901020D01*
X137121262Y-69922344D01*
X137154732Y-69952632D01*
X137180416Y-69992977D01*
X137195494Y-70038741D01*
X137199980Y-70092459D01*
X137192323Y-70156375D01*
X137177025Y-70210543D01*
X137155340Y-70258388D01*
X137127355Y-70300723D01*
X137093361Y-70338572D01*
X137054657Y-70371302D01*
X137010851Y-70399153D01*
X136963720Y-70420038D01*
X136902407Y-70437499D01*
X136943182Y-70455682D01*
X136967864Y-70472670D01*
X136982392Y-70489302D01*
X137005722Y-70526037D01*
X137026208Y-70564994D01*
X137035397Y-70588991D01*
X137122348Y-70880617D01*
X136776195Y-70880617D01*
X136677643Y-70573237D01*
X136656873Y-70520537D01*
X136639541Y-70496911D01*
X136609431Y-70480073D01*
X136571458Y-70474196D01*
X136546362Y-70474196D01*
X136461854Y-70880617D01*
X136153803Y-70880617D01*
X136278088Y-70282710D01*
X136586113Y-70282710D01*
X136711348Y-70282710D01*
X136793902Y-70269155D01*
X136822644Y-70258604D01*
X136848613Y-70238319D01*
X136868321Y-70211463D01*
X136879204Y-70181288D01*
X136881908Y-70150346D01*
X136876813Y-70126875D01*
X136864977Y-70108687D01*
X136846648Y-70096372D01*
X136813702Y-70087193D01*
X136758914Y-70083408D01*
X136627573Y-70083408D01*
X136586113Y-70282710D01*
X136278088Y-70282710D01*
X136362569Y-69876290D01*
X136868640Y-69876290D01*
X136963294Y-69879698D01*
G37*
G36*
X138026779Y-69860658D02*
G01*
X137814776Y-70880617D01*
X137535484Y-70880617D01*
X137673115Y-70218657D01*
X137599138Y-70264201D01*
X137530172Y-70299624D01*
X137456218Y-70329719D01*
X137357370Y-70361723D01*
X137405364Y-70130730D01*
X137503664Y-70095741D01*
X137582479Y-70058736D01*
X137644722Y-70020210D01*
X137701539Y-69974121D01*
X137752600Y-69921099D01*
X137798168Y-69860658D01*
X138026779Y-69860658D01*
G37*
G36*
X138212281Y-70599249D02*
G01*
X138506899Y-70599249D01*
X138448403Y-70880617D01*
X138153785Y-70880617D01*
X138212281Y-70599249D01*
G37*
G36*
X139279806Y-69863902D02*
G01*
X139331601Y-69872653D01*
X139371580Y-69885693D01*
X139424892Y-69915412D01*
X139462377Y-69950906D01*
X139490252Y-69992578D01*
X139508478Y-70035231D01*
X139519219Y-70081445D01*
X139524354Y-70138179D01*
X139521340Y-70250946D01*
X139503349Y-70371370D01*
X139467696Y-70509953D01*
X139426163Y-70619498D01*
X139380000Y-70704765D01*
X139329937Y-70769852D01*
X139281146Y-70813791D01*
X139224343Y-70848519D01*
X139158321Y-70874235D01*
X139081455Y-70890497D01*
X138991782Y-70896248D01*
X138909489Y-70890994D01*
X138846656Y-70876894D01*
X138799258Y-70855826D01*
X138757953Y-70824911D01*
X138724391Y-70785750D01*
X138698080Y-70737185D01*
X138685565Y-70699365D01*
X138677156Y-70649815D01*
X138674084Y-70585815D01*
X138674131Y-70585029D01*
X138945581Y-70585029D01*
X138951299Y-70632222D01*
X138964057Y-70663829D01*
X138981245Y-70684442D01*
X139003020Y-70696586D01*
X139030922Y-70700854D01*
X139069855Y-70693811D01*
X139107737Y-70671728D01*
X139139996Y-70636372D01*
X139171301Y-70579038D01*
X139196522Y-70506072D01*
X139226805Y-70380590D01*
X139249946Y-70244838D01*
X139255027Y-70162056D01*
X139249337Y-70115526D01*
X139236474Y-70084939D01*
X139218764Y-70064683D01*
X139195867Y-70052551D01*
X139166050Y-70048237D01*
X139125424Y-70055471D01*
X139089118Y-70077445D01*
X139055530Y-70117235D01*
X139030778Y-70166192D01*
X139002953Y-70247722D01*
X138972365Y-70373935D01*
X138950374Y-70503864D01*
X138945581Y-70585029D01*
X138674131Y-70585029D01*
X138679919Y-70487809D01*
X138698386Y-70373935D01*
X138728345Y-70254409D01*
X138762466Y-70157972D01*
X138799854Y-70081180D01*
X138839908Y-70020982D01*
X138882362Y-69974781D01*
X138933824Y-69934793D01*
X138991654Y-69903305D01*
X139056748Y-69880176D01*
X139130260Y-69865713D01*
X139213555Y-69860658D01*
X139279806Y-69863902D01*
G37*
D11*
G36*
X129062809Y-67889127D02*
G01*
X129522780Y-67889127D01*
X129287574Y-69020459D01*
X129996305Y-69020459D01*
X129918361Y-69395617D01*
X128749659Y-69395617D01*
X129062809Y-67889127D01*
G37*
G36*
X130461405Y-67889127D02*
G01*
X131684146Y-67889127D01*
X131615910Y-68217389D01*
X130854056Y-68217389D01*
X130805329Y-68451862D01*
X131511954Y-68451862D01*
X131447383Y-68762539D01*
X130740758Y-68762539D01*
X130681040Y-69049769D01*
X131464877Y-69049769D01*
X131392978Y-69395617D01*
X130148255Y-69395617D01*
X130461405Y-67889127D01*
G37*
G36*
X131831241Y-67889127D02*
G01*
X132312460Y-67889127D01*
X132417973Y-68961750D01*
X132964497Y-67889127D01*
X133432344Y-67889127D01*
X132571846Y-69395617D01*
X132075514Y-69395617D01*
X131831241Y-67889127D01*
G37*
G36*
X133628258Y-67889127D02*
G01*
X134089235Y-67889127D01*
X133776086Y-69395617D01*
X133315108Y-69395617D01*
X133628258Y-67889127D01*
G37*
G36*
X135571637Y-69395617D02*
G01*
X135090417Y-69395617D01*
X135069443Y-69149420D01*
X134556808Y-69149420D01*
X134434351Y-69395617D01*
X133963481Y-69395617D01*
X134294333Y-68821157D01*
X134724969Y-68821157D01*
X135040683Y-68821157D01*
X134992140Y-68292952D01*
X134724969Y-68821157D01*
X134294333Y-68821157D01*
X134831123Y-67889127D01*
X135330294Y-67889127D01*
X135571637Y-69395617D01*
G37*
G36*
X136760031Y-67889127D02*
G01*
X137219910Y-67889127D01*
X137111466Y-68410829D01*
X137601661Y-68410829D01*
X137710105Y-67889127D01*
X138172182Y-67889127D01*
X137859032Y-69395617D01*
X137396955Y-69395617D01*
X137523717Y-68785986D01*
X137033522Y-68785986D01*
X136906760Y-69395617D01*
X136446881Y-69395617D01*
X136760031Y-67889127D01*
G37*
G36*
X138447138Y-67889127D02*
G01*
X139644783Y-67889127D01*
X139585432Y-68174891D01*
X139465295Y-68274660D01*
X139357389Y-68378102D01*
X139261017Y-68485293D01*
X139154533Y-68624257D01*
X139056904Y-68774359D01*
X138968108Y-68936287D01*
X138907683Y-69067120D01*
X138849566Y-69219420D01*
X138794269Y-69395617D01*
X138380918Y-69395617D01*
X138472927Y-69149928D01*
X138566883Y-68944592D01*
X138662103Y-68774721D01*
X138772501Y-68614174D01*
X138915254Y-68438696D01*
X139095054Y-68246698D01*
X138372858Y-68246698D01*
X138447138Y-67889127D01*
G37*
%TO.C,JP1*%
D12*
X151250955Y-76932039D02*
G75*
G02*
X150501422Y-77681572I-374767J-374766D01*
G01*
X150239792Y-77419942D02*
G75*
G02*
X150989325Y-76670409I374767J374766D01*
G01*
%TO.C,J1*%
X139932500Y-66470004D02*
X138662500Y-66470004D01*
X139932500Y-65830004D02*
X139932500Y-66470004D01*
X137262500Y-67360004D02*
X131162500Y-67360004D01*
X137262500Y-67030004D02*
X137262500Y-67360004D01*
X131162500Y-67360004D02*
X131162500Y-66980004D01*
X129852500Y-66470004D02*
X128502500Y-66470004D01*
X128502500Y-66470004D02*
X128502500Y-65380004D01*
X128502500Y-63520004D02*
X128502500Y-61780004D01*
X128502500Y-61780004D02*
X138662500Y-61780004D01*
D10*
X129820011Y-67230004D02*
G75*
G02*
X129660989Y-67230004I-79511J0D01*
G01*
X129660989Y-67230004D02*
G75*
G02*
X129820011Y-67230004I79511J0D01*
G01*
%TO.C,R4*%
D12*
X131273636Y-85880006D02*
X130966354Y-85880006D01*
X131273636Y-86640006D02*
X130966354Y-86640006D01*
D13*
%TO.C,U13*%
G36*
X152742978Y-80091872D02*
G01*
X152361978Y-79837872D01*
X152742978Y-79583872D01*
X152742978Y-80091872D01*
G37*
%TO.C,D1*%
D14*
X133109995Y-85340004D02*
X133409995Y-85340004D01*
X133109995Y-85970004D02*
X133109995Y-84700004D01*
D15*
X134069995Y-86150004D02*
G75*
G02*
X134009995Y-86150004I-30000J0D01*
G01*
X134009995Y-86150004D02*
G75*
G02*
X134069995Y-86150004I30000J0D01*
G01*
%TO.C,C51*%
D12*
X147765000Y-79217165D02*
X147765000Y-79432837D01*
X148485000Y-79217165D02*
X148485000Y-79432837D01*
D13*
%TO.C,U18*%
G36*
X125053017Y-67757132D02*
G01*
X124672017Y-68011132D01*
X124672017Y-67503132D01*
X125053017Y-67757132D01*
G37*
%TO.C,U10*%
G36*
X152742978Y-65646872D02*
G01*
X152361978Y-65392872D01*
X152742978Y-65138872D01*
X152742978Y-65646872D01*
G37*
%TO.C,C44*%
D12*
X144052164Y-85140000D02*
X144267836Y-85140000D01*
X144052164Y-85860000D02*
X144267836Y-85860000D01*
%TO.C,R31*%
X125900000Y-69546976D02*
X125900000Y-69854258D01*
X126660000Y-69546976D02*
X126660000Y-69854258D01*
%TO.C,R5*%
X131273636Y-84940005D02*
X130966354Y-84940005D01*
X131273636Y-85700005D02*
X130966354Y-85700005D01*
%TO.C,C38*%
X149727164Y-68005617D02*
X149942836Y-68005617D01*
X149727164Y-68725617D02*
X149942836Y-68725617D01*
%TO.C,C50*%
X145377836Y-72350000D02*
X145162164Y-72350000D01*
X145377836Y-73070000D02*
X145162164Y-73070000D01*
%TO.C,C34*%
X144552164Y-64205617D02*
X144767836Y-64205617D01*
X144552164Y-64925617D02*
X144767836Y-64925617D01*
D13*
%TO.C,kibuzzard-6A40F4B5*%
G36*
X151516323Y-80364258D02*
G01*
X151578126Y-80406318D01*
X151620186Y-80468121D01*
X151634206Y-80541368D01*
X151620186Y-80614473D01*
X151578126Y-80675846D01*
X151516609Y-80717477D01*
X151444220Y-80731354D01*
X151351516Y-80731354D01*
X151351516Y-80350238D01*
X151443076Y-80350238D01*
X151516323Y-80364258D01*
G37*
G36*
X151939022Y-81910562D02*
G01*
X151843648Y-81910562D01*
X151064249Y-81910562D01*
X150351230Y-81910562D01*
X149800730Y-81910562D01*
X149536352Y-81910562D01*
X149440978Y-81910562D01*
X149440978Y-81498163D01*
X149536352Y-81498163D01*
X149543219Y-81553099D01*
X149565536Y-81581711D01*
X149591860Y-81591440D01*
X149624478Y-81593156D01*
X149706881Y-81593156D01*
X149706881Y-81667548D01*
X149708598Y-81702455D01*
X149718326Y-81731068D01*
X149746938Y-81755102D01*
X149800730Y-81762541D01*
X149855665Y-81755102D01*
X149884278Y-81731640D01*
X149894006Y-81703600D01*
X149895722Y-81668693D01*
X149895722Y-81665259D01*
X150086853Y-81665259D01*
X150130343Y-81735073D01*
X150154378Y-81755674D01*
X150232203Y-81795159D01*
X150289428Y-81810181D01*
X150351230Y-81815188D01*
X150425622Y-81806095D01*
X150491621Y-81778818D01*
X150549227Y-81733357D01*
X150593735Y-81674542D01*
X150620440Y-81607208D01*
X150629342Y-81531354D01*
X150620186Y-81463256D01*
X150592718Y-81400882D01*
X150546938Y-81344229D01*
X150489078Y-81299403D01*
X150425368Y-81272508D01*
X150355808Y-81263543D01*
X150350086Y-81263543D01*
X150330629Y-81265832D01*
X150338641Y-81205174D01*
X150514893Y-81205174D01*
X150551516Y-81203457D01*
X150581273Y-81193156D01*
X150605880Y-81162827D01*
X150613319Y-81105603D01*
X150608248Y-81066118D01*
X150678555Y-81066118D01*
X150690000Y-81145660D01*
X150961245Y-81741940D01*
X151000157Y-81784859D01*
X151064249Y-81799165D01*
X151123190Y-81783714D01*
X151162675Y-81741940D01*
X151433920Y-81145660D01*
X151447082Y-81066690D01*
X151381273Y-81011754D01*
X151296581Y-80995159D01*
X151246223Y-81055696D01*
X151242790Y-81059823D01*
X151061960Y-81505030D01*
X150881130Y-81059823D01*
X150828484Y-80994587D01*
X150742647Y-81011754D01*
X150678555Y-81066118D01*
X150608248Y-81066118D01*
X150605308Y-81043228D01*
X150579557Y-81011182D01*
X150548655Y-81000309D01*
X150509170Y-80998020D01*
X150478269Y-80997885D01*
X150326052Y-80997221D01*
X150247082Y-80996876D01*
X150192718Y-81007176D01*
X150160672Y-81037505D01*
X150147511Y-81068979D01*
X150141788Y-81101025D01*
X150099442Y-81426060D01*
X150113748Y-81459251D01*
X150164678Y-81493586D01*
X150239070Y-81516475D01*
X150303162Y-81489008D01*
X150347797Y-81472985D01*
X150398155Y-81491869D01*
X150418755Y-81539365D01*
X150399299Y-81587434D01*
X150344363Y-81604601D01*
X150277983Y-81586289D01*
X150200157Y-81548521D01*
X150129199Y-81587434D01*
X150086853Y-81665259D01*
X149895722Y-81665259D01*
X149895722Y-81593156D01*
X149976981Y-81593156D01*
X150009599Y-81591440D01*
X150035923Y-81581711D01*
X150058240Y-81553099D01*
X150065107Y-81499308D01*
X150057668Y-81443800D01*
X150034206Y-81414616D01*
X150006166Y-81404887D01*
X149971259Y-81403171D01*
X149963247Y-81403171D01*
X149895722Y-81403171D01*
X149895722Y-81328779D01*
X149894006Y-81293872D01*
X149884278Y-81265832D01*
X149855665Y-81242370D01*
X149801874Y-81234930D01*
X149746938Y-81241797D01*
X149718326Y-81264687D01*
X149708598Y-81292727D01*
X149706881Y-81327634D01*
X149706881Y-81403171D01*
X149632489Y-81403171D01*
X149597010Y-81404887D01*
X149567825Y-81414616D01*
X149543791Y-81443228D01*
X149536352Y-81498163D01*
X149440978Y-81498163D01*
X149440978Y-80529923D01*
X149560386Y-80529923D01*
X149567825Y-80613829D01*
X149590143Y-80691583D01*
X149627339Y-80763185D01*
X149679413Y-80828636D01*
X149741788Y-80883214D01*
X149809886Y-80922198D01*
X149883705Y-80945588D01*
X149963247Y-80953385D01*
X150050992Y-80948426D01*
X150126528Y-80933547D01*
X150189857Y-80908750D01*
X150231917Y-80882284D01*
X150264249Y-80850953D01*
X150291717Y-80785145D01*
X150291717Y-80550524D01*
X150291144Y-80521912D01*
X150285994Y-80496733D01*
X150272260Y-80473843D01*
X150245365Y-80458965D01*
X150201302Y-80450953D01*
X150001016Y-80450953D01*
X149970114Y-80452670D01*
X149944936Y-80461826D01*
X149923763Y-80488721D01*
X149917468Y-80539079D01*
X149923190Y-80590581D01*
X149942647Y-80617477D01*
X149966681Y-80626633D01*
X149997582Y-80628349D01*
X150082275Y-80628349D01*
X150082275Y-80726776D01*
X150033634Y-80737935D01*
X149967825Y-80741654D01*
X149893720Y-80725917D01*
X149829342Y-80678707D01*
X149784707Y-80610610D01*
X149769828Y-80532212D01*
X149784134Y-80456246D01*
X149827053Y-80393156D01*
X149890286Y-80350667D01*
X149965536Y-80336504D01*
X150036209Y-80344515D01*
X150094864Y-80368550D01*
X150156667Y-80394873D01*
X150199013Y-80379709D01*
X150241359Y-80334215D01*
X150267682Y-80270123D01*
X150258685Y-80242656D01*
X150375265Y-80242656D01*
X150375265Y-80836647D01*
X150377554Y-80876704D01*
X150388426Y-80908178D01*
X150419328Y-80933929D01*
X150478269Y-80941940D01*
X150538927Y-80933929D01*
X150570973Y-80908178D01*
X150581845Y-80877277D01*
X150583562Y-80837792D01*
X150583562Y-80519623D01*
X150879986Y-80911039D01*
X150913748Y-80935646D01*
X150972690Y-80941940D01*
X151033348Y-80933929D01*
X151065393Y-80908178D01*
X151076266Y-80877277D01*
X151077983Y-80837792D01*
X151077983Y-80247234D01*
X151077834Y-80243800D01*
X151142074Y-80243800D01*
X151142074Y-80835503D01*
X151144936Y-80876132D01*
X151156953Y-80908178D01*
X151188426Y-80932784D01*
X151246223Y-80940796D01*
X151440787Y-80940796D01*
X151521259Y-80933392D01*
X151595579Y-80911182D01*
X151663748Y-80874165D01*
X151725765Y-80822341D01*
X151777339Y-80760073D01*
X151814177Y-80691726D01*
X151836280Y-80617298D01*
X151843648Y-80536790D01*
X151836280Y-80458392D01*
X151814177Y-80385717D01*
X151777339Y-80318764D01*
X151725765Y-80257534D01*
X151663963Y-80206461D01*
X151596438Y-80169980D01*
X151523190Y-80148092D01*
X151444220Y-80140796D01*
X151247368Y-80140796D01*
X151186710Y-80148235D01*
X151154664Y-80173986D01*
X151143791Y-80205460D01*
X151142074Y-80243800D01*
X151077834Y-80243800D01*
X151076266Y-80207749D01*
X151065393Y-80176275D01*
X151033348Y-80149952D01*
X151020758Y-80148257D01*
X150973834Y-80141940D01*
X150914320Y-80149952D01*
X150882275Y-80174558D01*
X150870830Y-80204887D01*
X150868541Y-80242656D01*
X150868541Y-80571125D01*
X150582418Y-80186576D01*
X150561817Y-80163113D01*
X150532632Y-80148807D01*
X150480558Y-80141940D01*
X150420472Y-80149380D01*
X150388999Y-80173986D01*
X150377554Y-80204315D01*
X150375265Y-80242656D01*
X150258685Y-80242656D01*
X150256810Y-80236933D01*
X150235637Y-80212899D01*
X150203591Y-80190009D01*
X150154521Y-80163543D01*
X150094292Y-80143657D01*
X150030629Y-80131211D01*
X149971259Y-80127062D01*
X149950658Y-80128930D01*
X149889607Y-80134465D01*
X149814034Y-80156676D01*
X149744542Y-80193693D01*
X149681130Y-80245517D01*
X149628305Y-80307713D01*
X149590572Y-80375846D01*
X149567933Y-80449916D01*
X149560386Y-80529923D01*
X149440978Y-80529923D01*
X149440978Y-79678421D01*
X149536352Y-79678421D01*
X149543648Y-79761683D01*
X149565536Y-79837505D01*
X149598584Y-79903171D01*
X149639356Y-79955960D01*
X149686996Y-79998879D01*
X149740644Y-80034930D01*
X149796438Y-80062827D01*
X149850515Y-80081282D01*
X149902160Y-80091583D01*
X149950658Y-80095016D01*
X150024669Y-80087895D01*
X150095627Y-80066531D01*
X150163534Y-80030925D01*
X150210458Y-79996018D01*
X150211556Y-79993156D01*
X150256237Y-79993156D01*
X150261960Y-80038936D01*
X150326052Y-80072126D01*
X150775837Y-80072126D01*
X150825050Y-80062970D01*
X150841645Y-80038936D01*
X150846795Y-79993729D01*
X150841073Y-79948521D01*
X150776981Y-79914186D01*
X150327196Y-79914186D01*
X150326052Y-79914399D01*
X150277983Y-79923342D01*
X150260815Y-79947377D01*
X150256237Y-79993156D01*
X150211556Y-79993156D01*
X150226481Y-79954244D01*
X150201302Y-79887863D01*
X150160100Y-79838936D01*
X150121187Y-79822627D01*
X150063963Y-79845517D01*
X150006452Y-79873843D01*
X149946080Y-79883285D01*
X149859099Y-79864973D01*
X149817754Y-79839365D01*
X149780701Y-79799165D01*
X149754521Y-79746661D01*
X149745794Y-79684143D01*
X149750658Y-79635503D01*
X149765250Y-79592584D01*
X149816180Y-79530209D01*
X149880844Y-79496447D01*
X149946080Y-79485002D01*
X149973548Y-79486146D01*
X149996438Y-79490152D01*
X150014750Y-79494730D01*
X150030200Y-79500452D01*
X150041073Y-79506747D01*
X150050801Y-79513042D01*
X150058240Y-79518192D01*
X150120043Y-79544515D01*
X150159528Y-79529065D01*
X150202446Y-79482713D01*
X150227625Y-79418621D01*
X150217478Y-79386576D01*
X150916609Y-79386576D01*
X150916609Y-79978278D01*
X150918326Y-80017763D01*
X150929199Y-80049236D01*
X150961245Y-80075560D01*
X151020758Y-80083571D01*
X151404163Y-80083571D01*
X151436781Y-80081854D01*
X151464249Y-80072126D01*
X151486567Y-80044658D01*
X151493433Y-79994301D01*
X151486567Y-79942799D01*
X151464249Y-79915903D01*
X151437926Y-79906747D01*
X151405308Y-79905030D01*
X151126052Y-79905030D01*
X151126052Y-79387720D01*
X151124335Y-79348235D01*
X151113462Y-79316761D01*
X151081416Y-79290438D01*
X151021903Y-79282427D01*
X150995579Y-79285903D01*
X150961245Y-79290438D01*
X150929199Y-79316761D01*
X150918326Y-79348235D01*
X150916609Y-79386576D01*
X150217478Y-79386576D01*
X150216753Y-79384287D01*
X150195579Y-79360252D01*
X150164678Y-79338507D01*
X150092448Y-79302900D01*
X150022252Y-79281537D01*
X149954092Y-79274415D01*
X149950658Y-79274649D01*
X149903591Y-79277849D01*
X149850515Y-79288149D01*
X149795579Y-79306318D01*
X149739499Y-79333357D01*
X149685851Y-79368264D01*
X149638212Y-79410038D01*
X149597582Y-79461397D01*
X149564964Y-79525059D01*
X149543505Y-79598307D01*
X149536352Y-79678421D01*
X149440978Y-79678421D01*
X149440978Y-78820052D01*
X149536352Y-78820052D01*
X149543648Y-78903314D01*
X149565536Y-78979136D01*
X149598584Y-79044802D01*
X149639356Y-79097591D01*
X149686996Y-79140510D01*
X149740644Y-79176561D01*
X149796438Y-79204458D01*
X149850515Y-79222913D01*
X149902160Y-79233214D01*
X149950658Y-79236647D01*
X150024669Y-79229526D01*
X150095627Y-79208162D01*
X150163534Y-79172555D01*
X150210458Y-79137648D01*
X150211555Y-79134787D01*
X150256237Y-79134787D01*
X150261960Y-79180567D01*
X150326052Y-79213757D01*
X150775837Y-79213757D01*
X150825050Y-79204601D01*
X150841645Y-79180567D01*
X150846795Y-79135359D01*
X150841073Y-79090152D01*
X150776981Y-79055817D01*
X150327196Y-79055817D01*
X150277983Y-79064973D01*
X150260815Y-79089008D01*
X150256237Y-79134787D01*
X150211555Y-79134787D01*
X150226481Y-79095875D01*
X150201302Y-79029494D01*
X150160100Y-78980567D01*
X150121187Y-78964258D01*
X150063963Y-78987148D01*
X150006452Y-79015474D01*
X149946080Y-79024916D01*
X149859099Y-79006604D01*
X149817754Y-78980996D01*
X149780701Y-78940796D01*
X149754521Y-78888292D01*
X149745794Y-78825774D01*
X149750658Y-78777133D01*
X149765250Y-78734215D01*
X149816180Y-78671840D01*
X149880844Y-78638078D01*
X149946080Y-78626633D01*
X149973548Y-78627777D01*
X149996438Y-78631783D01*
X150014750Y-78636361D01*
X150030200Y-78642083D01*
X150041073Y-78648378D01*
X150050801Y-78654673D01*
X150058240Y-78659823D01*
X150120043Y-78686146D01*
X150159528Y-78670696D01*
X150202446Y-78624344D01*
X150227625Y-78560252D01*
X150217478Y-78528206D01*
X150891431Y-78528206D01*
X150891431Y-79118764D01*
X150893147Y-79158249D01*
X150904020Y-79189723D01*
X150936066Y-79216046D01*
X150995579Y-79224058D01*
X151056237Y-79216046D01*
X151088283Y-79190295D01*
X151099156Y-79159394D01*
X151100873Y-79119909D01*
X151100873Y-78913900D01*
X151361817Y-78913900D01*
X151361817Y-79118764D01*
X151363534Y-79158249D01*
X151374406Y-79189723D01*
X151406452Y-79216046D01*
X151465966Y-79224058D01*
X151526624Y-79216046D01*
X151558670Y-79190295D01*
X151569542Y-79159394D01*
X151571259Y-79119909D01*
X151571259Y-78529351D01*
X151569542Y-78489866D01*
X151558670Y-78458392D01*
X151526624Y-78432069D01*
X151467110Y-78424058D01*
X151406452Y-78432069D01*
X151374406Y-78458392D01*
X151363534Y-78489866D01*
X151361817Y-78528206D01*
X151361817Y-78735359D01*
X151100873Y-78735359D01*
X151100873Y-78529351D01*
X151099156Y-78489866D01*
X151088283Y-78458392D01*
X151056237Y-78432069D01*
X150996724Y-78424058D01*
X150936066Y-78432069D01*
X150904020Y-78458392D01*
X150893147Y-78489866D01*
X150891431Y-78528206D01*
X150217478Y-78528206D01*
X150216753Y-78525917D01*
X150195579Y-78501883D01*
X150164678Y-78480138D01*
X150092448Y-78444531D01*
X150022252Y-78423167D01*
X149954092Y-78416046D01*
X149903591Y-78419480D01*
X149850515Y-78429780D01*
X149795579Y-78447949D01*
X149739499Y-78474988D01*
X149685851Y-78509895D01*
X149638212Y-78551669D01*
X149597582Y-78603028D01*
X149564964Y-78666690D01*
X149543505Y-78739937D01*
X149536352Y-78820052D01*
X149440978Y-78820052D01*
X149440978Y-78320672D01*
X149536352Y-78320672D01*
X151843648Y-78320672D01*
X151939022Y-78320672D01*
X151939022Y-81910562D01*
G37*
%TO.C,R27*%
D12*
X140403641Y-84595617D02*
X140096359Y-84595617D01*
X140403641Y-85355617D02*
X140096359Y-85355617D01*
%TO.C,D4*%
X134320000Y-54990000D02*
X130310000Y-54990000D01*
X134320000Y-56990000D02*
X130310000Y-56990000D01*
X134320000Y-56990000D02*
X134320000Y-54990000D01*
%TO.C,Y1*%
X131424995Y-81000004D02*
X131424995Y-82300004D01*
X132424996Y-81000004D02*
X132664995Y-81000004D01*
X132424996Y-82300004D02*
X132664995Y-82300004D01*
X133624995Y-81000004D02*
X133864994Y-81000004D01*
X133624995Y-82300004D02*
X133864994Y-82300004D01*
X134864995Y-82290004D02*
X134864995Y-80990004D01*
X131104995Y-81650004D02*
G75*
G02*
X130864995Y-81650004I-120000J0D01*
G01*
X130864995Y-81650004D02*
G75*
G02*
X131104995Y-81650004I120000J0D01*
G01*
X131574995Y-82300004D02*
G75*
G02*
X131514995Y-82300004I-30000J0D01*
G01*
X131514995Y-82300004D02*
G75*
G02*
X131574995Y-82300004I30000J0D01*
G01*
%TO.C,R19*%
X134360000Y-60723641D02*
X134360000Y-60416359D01*
X135120000Y-60723641D02*
X135120000Y-60416359D01*
%TO.C,R24*%
X151123642Y-75700617D02*
X150816360Y-75700617D01*
X151123642Y-76460617D02*
X150816360Y-76460617D01*
%TO.C,C30*%
X136598169Y-60485000D02*
X136879331Y-60485000D01*
X136598169Y-61505000D02*
X136879331Y-61505000D01*
%TO.C,C35*%
X149532164Y-66550617D02*
X149747836Y-66550617D01*
X149532164Y-67270617D02*
X149747836Y-67270617D01*
%TO.C,C48*%
X147207836Y-72350000D02*
X146992164Y-72350000D01*
X147207836Y-73070000D02*
X146992164Y-73070000D01*
%TO.C,R22*%
X150800000Y-65529258D02*
X150800000Y-65221976D01*
X151560000Y-65529258D02*
X151560000Y-65221976D01*
%TO.C,C29*%
X132778081Y-57404998D02*
X132496919Y-57404998D01*
X132778081Y-58424998D02*
X132496919Y-58424998D01*
%TO.C,R23*%
X151080000Y-69799258D02*
X151080000Y-69491976D01*
X151840000Y-69799258D02*
X151840000Y-69491976D01*
%TO.C,R3*%
X128223636Y-83720004D02*
X127916354Y-83720004D01*
X128223636Y-84480004D02*
X127916354Y-84480004D01*
%TO.C,C45*%
X135427831Y-84660000D02*
X135212159Y-84660000D01*
X135427831Y-85380000D02*
X135212159Y-85380000D01*
%TO.C,U9*%
X144530000Y-65090001D02*
X148530000Y-65090001D01*
X144530000Y-65480000D02*
X144530000Y-65090001D01*
X144530000Y-71890000D02*
X144530000Y-70860000D01*
X148530000Y-65090001D02*
X148530000Y-65480000D01*
X148530000Y-70860000D02*
X148530000Y-71890000D01*
X148530000Y-71890000D02*
X144530000Y-71890000D01*
X144140000Y-66210000D02*
G75*
G02*
X143840000Y-66210000I-150000J0D01*
G01*
X143840000Y-66210000D02*
G75*
G02*
X144140000Y-66210000I150000J0D01*
G01*
X144560001Y-65090001D02*
G75*
G02*
X144499999Y-65090001I-30001J0D01*
G01*
X144499999Y-65090001D02*
G75*
G02*
X144560001Y-65090001I30001J0D01*
G01*
%TO.C,R20*%
X134340000Y-58016359D02*
X134340000Y-58323641D01*
X135100000Y-58016359D02*
X135100000Y-58323641D01*
D13*
%TO.C,U22*%
G36*
X149507944Y-55448098D02*
G01*
X149253944Y-55067098D01*
X149761944Y-55067098D01*
X149507944Y-55448098D01*
G37*
%TO.C,R30*%
D12*
X125914995Y-71743646D02*
X125914995Y-71436364D01*
X126674995Y-71743646D02*
X126674995Y-71436364D01*
%TO.C,D3*%
X134347499Y-54990000D02*
X134347499Y-56990000D01*
X134347499Y-54990000D02*
X138357499Y-54990000D01*
X134347499Y-56990000D02*
X138357499Y-56990000D01*
%TO.C,R26*%
X141940000Y-74276976D02*
X141940000Y-74584258D01*
X142700000Y-74276976D02*
X142700000Y-74584258D01*
%TO.C,U14*%
X136320000Y-82860000D02*
X136570000Y-82860000D01*
X136320000Y-83609999D02*
X136320000Y-82860000D01*
X136320000Y-85270001D02*
X136320000Y-86020000D01*
X136320000Y-86020000D02*
X136570000Y-86020000D01*
X138980000Y-82860000D02*
X138730000Y-82860000D01*
X138980000Y-83609999D02*
X138980000Y-82860000D01*
X138980000Y-85270001D02*
X138980000Y-86020000D01*
X138980000Y-86020000D02*
X138730000Y-86020000D01*
X138490000Y-82530000D02*
G75*
G02*
X138330000Y-82530000I-80000J0D01*
G01*
X138330000Y-82530000D02*
G75*
G02*
X138490000Y-82530000I80000J0D01*
G01*
X138930001Y-82940000D02*
G75*
G02*
X138869999Y-82940000I-30001J0D01*
G01*
X138869999Y-82940000D02*
G75*
G02*
X138930001Y-82940000I30001J0D01*
G01*
%TO.C,C52*%
X125695000Y-74631870D02*
X125695000Y-74109364D01*
X127165000Y-74631870D02*
X127165000Y-74109364D01*
%TO.C,C37*%
X149532164Y-65620617D02*
X149747836Y-65620617D01*
X149532164Y-66340617D02*
X149747836Y-66340617D01*
%TO.C,R11*%
X146988642Y-58010617D02*
X146681360Y-58010617D01*
X146988642Y-58770617D02*
X146681360Y-58770617D01*
%TO.C,R10*%
X148873641Y-58004999D02*
X148566359Y-58004999D01*
X148873641Y-58764999D02*
X148566359Y-58764999D01*
%TO.C,R21*%
X142616359Y-72370617D02*
X142923641Y-72370617D01*
X142616359Y-73130617D02*
X142923641Y-73130617D01*
%TO.C,U6*%
X130632500Y-58569998D02*
X130632500Y-58569998D01*
X130632500Y-58569998D02*
X130642500Y-58799998D01*
X130632500Y-61729998D02*
X130632500Y-61729998D01*
X130632500Y-61729998D02*
X133792500Y-61729998D01*
X130642500Y-61469998D02*
X130632500Y-61729998D01*
X133782500Y-58829998D02*
X133792500Y-58569998D01*
X133792500Y-58569998D02*
X130632500Y-58569998D01*
X133792500Y-58569998D02*
X133792500Y-58569998D01*
X133792500Y-61729998D02*
X133782500Y-61499998D01*
X133792500Y-61729998D02*
X133792500Y-61729998D01*
X130352500Y-58679998D02*
G75*
G02*
X130212500Y-58679998I-70000J0D01*
G01*
X130212500Y-58679998D02*
G75*
G02*
X130352500Y-58679998I70000J0D01*
G01*
X130742500Y-58649998D02*
G75*
G02*
X130682500Y-58649998I-30000J0D01*
G01*
X130682500Y-58649998D02*
G75*
G02*
X130742500Y-58649998I30000J0D01*
G01*
D13*
%TO.C,kibuzzard-6A4131D0*%
G36*
X128729578Y-76630946D02*
G01*
X128751109Y-76683020D01*
X128728076Y-76738099D01*
X128680007Y-76756125D01*
X128569850Y-76756125D01*
X128569850Y-76609916D01*
X128678004Y-76609916D01*
X128729578Y-76630946D01*
G37*
G36*
X128729578Y-78133092D02*
G01*
X128751109Y-78185166D01*
X128728076Y-78240245D01*
X128680007Y-78258271D01*
X128569850Y-78258271D01*
X128569850Y-78112062D01*
X128678004Y-78112062D01*
X128729578Y-78133092D01*
G37*
G36*
X129147175Y-74346683D02*
G01*
X129161695Y-74388743D01*
X129143670Y-74423292D01*
X129094599Y-74435810D01*
X129052539Y-74422291D01*
X129036516Y-74386740D01*
X129051538Y-74346182D01*
X129099607Y-74333664D01*
X129147175Y-74346683D01*
G37*
G36*
X130098033Y-75120038D02*
G01*
X130152110Y-75156840D01*
X130188913Y-75210917D01*
X130201180Y-75275009D01*
X130188913Y-75338975D01*
X130152110Y-75392677D01*
X130098283Y-75429104D01*
X130034943Y-75441246D01*
X129953827Y-75441246D01*
X129953827Y-75107770D01*
X130033941Y-75107770D01*
X130098033Y-75120038D01*
G37*
G36*
X130098033Y-77373256D02*
G01*
X130152110Y-77410059D01*
X130188913Y-77464136D01*
X130201180Y-77528228D01*
X130188913Y-77592194D01*
X130152110Y-77645896D01*
X130098283Y-77682323D01*
X130034943Y-77694465D01*
X129953827Y-77694465D01*
X129953827Y-77360989D01*
X130033941Y-77360989D01*
X130098033Y-77373256D01*
G37*
G36*
X130467895Y-78725271D02*
G01*
X130384442Y-78725271D01*
X129927790Y-78725271D01*
X129530222Y-78725271D01*
X128826216Y-78725271D01*
X128365558Y-78725271D01*
X128282105Y-78725271D01*
X128282105Y-78019930D01*
X128386588Y-78019930D01*
X128386588Y-78536669D01*
X128388090Y-78571218D01*
X128397604Y-78598757D01*
X128425644Y-78621790D01*
X128477718Y-78628800D01*
X128530794Y-78621790D01*
X128558834Y-78599258D01*
X128568348Y-78572219D01*
X128569850Y-78537670D01*
X128569850Y-78440531D01*
X128662983Y-78440531D01*
X128770136Y-78585739D01*
X128826216Y-78632305D01*
X128897318Y-78604766D01*
X128945386Y-78545681D01*
X128918348Y-78476583D01*
X128846245Y-78380445D01*
X128895203Y-78325923D01*
X128924579Y-78261164D01*
X128934371Y-78186168D01*
X128928112Y-78126708D01*
X128909335Y-78072505D01*
X128880669Y-78026314D01*
X128872163Y-78017927D01*
X128964914Y-78017927D01*
X128998462Y-78082019D01*
X129178720Y-78279301D01*
X128999464Y-78476583D01*
X128964914Y-78541175D01*
X129004471Y-78604766D01*
X129072568Y-78640317D01*
X129133655Y-78598757D01*
X129301896Y-78414494D01*
X129469134Y-78598757D01*
X129530222Y-78640317D01*
X129598319Y-78604766D01*
X129637876Y-78541175D01*
X129603326Y-78476583D01*
X129549640Y-78417498D01*
X129660408Y-78417498D01*
X129669309Y-78474524D01*
X129696014Y-78526765D01*
X129740522Y-78574222D01*
X129796936Y-78611776D01*
X129859359Y-78634308D01*
X129927790Y-78641819D01*
X130001395Y-78634308D01*
X130065987Y-78611776D01*
X130121567Y-78574222D01*
X130164127Y-78525208D01*
X130189664Y-78468293D01*
X130198176Y-78403478D01*
X130191416Y-78355410D01*
X130171137Y-78315352D01*
X130115057Y-78261275D01*
X130166881Y-78211454D01*
X130184156Y-78138099D01*
X130176423Y-78084356D01*
X130153223Y-78033950D01*
X130114557Y-77986883D01*
X130062872Y-77949051D01*
X130000616Y-77926352D01*
X129927790Y-77918786D01*
X129872210Y-77923292D01*
X129861695Y-77926035D01*
X129826144Y-77935309D01*
X129789092Y-77952834D01*
X129759549Y-77973364D01*
X129737518Y-77994895D01*
X129721495Y-78014923D01*
X129711481Y-78031447D01*
X129705973Y-78042462D01*
X129704471Y-78045968D01*
X129689950Y-78115066D01*
X129739521Y-78170145D01*
X129793153Y-78188059D01*
X129835213Y-78176376D01*
X129865701Y-78135095D01*
X129894742Y-78105052D01*
X129937804Y-78095038D01*
X129983369Y-78107555D01*
X129999893Y-78142105D01*
X129985372Y-78167641D01*
X129938805Y-78174151D01*
X129931795Y-78174151D01*
X129899750Y-78175653D01*
X129874213Y-78184165D01*
X129853183Y-78210202D01*
X129846674Y-78260274D01*
X129852682Y-78304337D01*
X129864700Y-78330374D01*
X129887232Y-78342892D01*
X129910265Y-78347398D01*
X129937804Y-78347398D01*
X129995637Y-78361919D01*
X130014914Y-78405481D01*
X129991381Y-78447040D01*
X129928791Y-78462563D01*
X129893240Y-78457055D01*
X129869206Y-78445038D01*
X129854185Y-78430016D01*
X129846674Y-78417999D01*
X129844671Y-78412491D01*
X129815629Y-78365424D01*
X129760551Y-78354408D01*
X129685443Y-78370181D01*
X129660408Y-78417498D01*
X129549640Y-78417498D01*
X129424070Y-78279301D01*
X129604328Y-78082019D01*
X129638376Y-78017927D01*
X129599320Y-77952834D01*
X129531223Y-77917284D01*
X129470136Y-77958843D01*
X129301896Y-78144108D01*
X129189735Y-78021329D01*
X129132654Y-77958843D01*
X129071567Y-77917284D01*
X129003469Y-77952834D01*
X128964914Y-78017927D01*
X128872163Y-78017927D01*
X128844742Y-77990889D01*
X128804435Y-77964351D01*
X128762625Y-77944823D01*
X128739092Y-77938079D01*
X128720690Y-77932806D01*
X128680007Y-77928800D01*
X128478720Y-77928800D01*
X128425644Y-77935810D01*
X128397604Y-77958843D01*
X128388090Y-77986382D01*
X128386588Y-78019930D01*
X128282105Y-78019930D01*
X128282105Y-77518214D01*
X128386588Y-77518214D01*
X128393097Y-77591631D01*
X128412625Y-77659666D01*
X128445172Y-77722318D01*
X128490737Y-77779587D01*
X128545315Y-77827343D01*
X128604900Y-77861454D01*
X128669492Y-77881921D01*
X128739092Y-77888743D01*
X128815868Y-77884403D01*
X128881962Y-77871385D01*
X128937375Y-77849687D01*
X128974177Y-77826529D01*
X129002468Y-77799115D01*
X129026502Y-77741533D01*
X129026502Y-77536239D01*
X129026001Y-77511204D01*
X129021495Y-77489172D01*
X129009478Y-77469143D01*
X128985944Y-77456125D01*
X128947389Y-77449115D01*
X128772139Y-77449115D01*
X128745100Y-77450617D01*
X128723069Y-77458628D01*
X128704542Y-77482162D01*
X128699034Y-77526225D01*
X128704041Y-77571289D01*
X128721066Y-77594823D01*
X128742096Y-77602834D01*
X128769134Y-77604337D01*
X128843240Y-77604337D01*
X128843240Y-77690460D01*
X128800680Y-77700224D01*
X128743097Y-77703478D01*
X128678255Y-77689709D01*
X128621924Y-77648400D01*
X128582868Y-77588814D01*
X128569850Y-77520216D01*
X128582368Y-77453746D01*
X128619921Y-77398543D01*
X128675250Y-77361364D01*
X128741094Y-77348972D01*
X128802933Y-77355982D01*
X128854256Y-77377012D01*
X128908333Y-77400045D01*
X128945386Y-77386776D01*
X128982439Y-77346969D01*
X129005472Y-77290889D01*
X128997599Y-77266854D01*
X129099607Y-77266854D01*
X129099607Y-77786597D01*
X129101609Y-77821647D01*
X129111123Y-77849186D01*
X129138162Y-77871719D01*
X129189735Y-77878729D01*
X129242811Y-77871719D01*
X129270851Y-77849186D01*
X129280365Y-77822148D01*
X129281867Y-77787598D01*
X129281867Y-77509201D01*
X129541237Y-77851690D01*
X129570780Y-77873221D01*
X129622353Y-77878729D01*
X129675429Y-77871719D01*
X129703469Y-77849186D01*
X129712983Y-77822148D01*
X129714485Y-77787598D01*
X129714485Y-77270860D01*
X129714354Y-77267856D01*
X129770565Y-77267856D01*
X129770565Y-77785596D01*
X129773069Y-77821146D01*
X129783584Y-77849186D01*
X129811123Y-77870717D01*
X129861695Y-77877727D01*
X130031938Y-77877727D01*
X130102352Y-77871249D01*
X130167382Y-77851815D01*
X130227030Y-77819425D01*
X130281295Y-77774079D01*
X130326422Y-77719595D01*
X130358655Y-77659791D01*
X130377995Y-77594667D01*
X130384442Y-77524222D01*
X130377995Y-77455624D01*
X130358655Y-77392033D01*
X130326422Y-77333450D01*
X130281295Y-77279873D01*
X130227217Y-77235184D01*
X130168133Y-77203264D01*
X130104041Y-77184111D01*
X130077003Y-77181613D01*
X130034943Y-77177727D01*
X129862697Y-77177727D01*
X129809621Y-77184236D01*
X129781581Y-77206769D01*
X129772067Y-77234308D01*
X129770565Y-77267856D01*
X129714354Y-77267856D01*
X129712983Y-77236311D01*
X129703469Y-77208772D01*
X129675429Y-77185739D01*
X129623355Y-77178729D01*
X129571280Y-77185739D01*
X129543240Y-77207269D01*
X129533226Y-77233807D01*
X129531223Y-77266854D01*
X129531223Y-77554265D01*
X129530222Y-77552919D01*
X129280866Y-77217784D01*
X129262840Y-77197255D01*
X129237303Y-77184737D01*
X129191738Y-77178729D01*
X129139163Y-77185238D01*
X129111624Y-77206769D01*
X129101609Y-77233307D01*
X129099607Y-77266854D01*
X128997599Y-77266854D01*
X128995959Y-77261847D01*
X128977432Y-77240817D01*
X128949392Y-77220789D01*
X128906456Y-77197631D01*
X128853755Y-77180231D01*
X128826216Y-77174847D01*
X128798051Y-77169340D01*
X128746102Y-77165710D01*
X128674656Y-77172188D01*
X128608530Y-77191622D01*
X128547724Y-77224012D01*
X128492239Y-77269358D01*
X128446017Y-77323780D01*
X128413001Y-77383396D01*
X128393191Y-77448207D01*
X128386588Y-77518214D01*
X128282105Y-77518214D01*
X128282105Y-76517784D01*
X128386588Y-76517784D01*
X128386588Y-77034523D01*
X128388090Y-77069072D01*
X128397604Y-77096611D01*
X128425644Y-77119644D01*
X128477718Y-77126654D01*
X128530794Y-77119644D01*
X128558834Y-77097112D01*
X128568348Y-77070073D01*
X128569850Y-77035524D01*
X128569850Y-76938385D01*
X128662983Y-76938385D01*
X128770136Y-77083593D01*
X128826216Y-77130159D01*
X128897318Y-77102620D01*
X128945386Y-77043535D01*
X128918348Y-76974437D01*
X128846245Y-76878299D01*
X128895203Y-76823777D01*
X128924579Y-76759018D01*
X128934371Y-76684022D01*
X128928112Y-76624562D01*
X128909335Y-76570359D01*
X128880669Y-76524169D01*
X128872163Y-76515782D01*
X128964914Y-76515782D01*
X128998462Y-76579873D01*
X129178720Y-76777155D01*
X128999464Y-76974437D01*
X128964914Y-77039029D01*
X129004471Y-77102620D01*
X129072568Y-77138171D01*
X129133655Y-77096611D01*
X129301896Y-76912348D01*
X129469134Y-77096611D01*
X129530222Y-77138171D01*
X129598319Y-77102620D01*
X129637876Y-77039029D01*
X129603326Y-76974437D01*
X129479575Y-76838242D01*
X129651395Y-76838242D01*
X129652897Y-76872792D01*
X129662411Y-76900331D01*
X129690451Y-76923364D01*
X129742525Y-76930374D01*
X129985873Y-76930374D01*
X129985873Y-77034523D01*
X129987375Y-77069072D01*
X129996888Y-77096611D01*
X130024928Y-77119644D01*
X130077003Y-77126654D01*
X130130079Y-77119644D01*
X130158119Y-77097613D01*
X130168133Y-77070073D01*
X130170136Y-77035524D01*
X130170136Y-76517784D01*
X130168133Y-76483736D01*
X130158619Y-76455696D01*
X130131080Y-76432663D01*
X130113054Y-76430236D01*
X130079006Y-76425653D01*
X130025429Y-76432162D01*
X129996888Y-76453693D01*
X129987375Y-76479730D01*
X129985873Y-76512777D01*
X129985873Y-76758128D01*
X129854685Y-76758128D01*
X129916774Y-76502763D01*
X129902754Y-76458700D01*
X129844671Y-76429658D01*
X129769063Y-76428657D01*
X129731509Y-76494751D01*
X129654399Y-76806196D01*
X129651395Y-76838242D01*
X129479575Y-76838242D01*
X129424070Y-76777155D01*
X129604328Y-76579873D01*
X129638376Y-76515782D01*
X129599320Y-76450689D01*
X129566273Y-76433436D01*
X129531223Y-76415138D01*
X129470136Y-76456697D01*
X129301896Y-76641962D01*
X129132654Y-76456697D01*
X129071567Y-76415138D01*
X129003469Y-76450689D01*
X128964914Y-76515782D01*
X128872163Y-76515782D01*
X128844742Y-76488743D01*
X128804435Y-76462205D01*
X128762625Y-76442677D01*
X128720690Y-76430660D01*
X128680007Y-76426654D01*
X128670994Y-76426654D01*
X128478720Y-76426654D01*
X128425644Y-76433664D01*
X128397604Y-76456697D01*
X128388090Y-76484236D01*
X128386588Y-76517784D01*
X128282105Y-76517784D01*
X128282105Y-75750689D01*
X128366559Y-75750689D01*
X128372568Y-75795753D01*
X128391595Y-75819287D01*
X128414127Y-75827298D01*
X128442668Y-75828800D01*
X128581867Y-75828800D01*
X128581867Y-76286454D01*
X128583369Y-76320002D01*
X128592382Y-76347040D01*
X128619421Y-76369573D01*
X128670994Y-76376583D01*
X128723069Y-76369573D01*
X128751109Y-76347541D01*
X128760622Y-76321003D01*
X128762124Y-76287455D01*
X128762124Y-75828800D01*
X128900322Y-75828800D01*
X128928863Y-75827298D01*
X128951896Y-75819287D01*
X128971423Y-75795753D01*
X128975657Y-75764709D01*
X129000966Y-75764709D01*
X129034514Y-75828800D01*
X129214771Y-76026082D01*
X129035515Y-76223364D01*
X129000966Y-76287956D01*
X129040522Y-76351547D01*
X129108619Y-76387098D01*
X129169707Y-76345538D01*
X129337947Y-76161275D01*
X129505186Y-76345538D01*
X129566273Y-76387098D01*
X129634371Y-76351547D01*
X129673927Y-76287956D01*
X129639378Y-76223364D01*
X129515627Y-76087169D01*
X129687446Y-76087169D01*
X129688948Y-76121719D01*
X129698462Y-76149258D01*
X129726502Y-76172291D01*
X129778577Y-76179301D01*
X130021924Y-76179301D01*
X130021924Y-76283450D01*
X130023426Y-76317999D01*
X130032940Y-76345538D01*
X130060980Y-76368571D01*
X130113054Y-76375581D01*
X130166130Y-76368571D01*
X130194170Y-76346540D01*
X130204185Y-76319000D01*
X130206187Y-76284451D01*
X130206187Y-75766711D01*
X130204185Y-75732663D01*
X130194671Y-75704623D01*
X130167132Y-75681590D01*
X130115057Y-75674580D01*
X130061481Y-75681089D01*
X130032940Y-75702620D01*
X130023426Y-75728657D01*
X130021924Y-75761704D01*
X130021924Y-76007055D01*
X129890737Y-76007055D01*
X129952825Y-75751690D01*
X129938805Y-75707627D01*
X129880722Y-75678586D01*
X129861695Y-75678334D01*
X129805114Y-75677584D01*
X129767561Y-75743679D01*
X129730508Y-75893334D01*
X129690451Y-76055123D01*
X129687446Y-76087169D01*
X129515627Y-76087169D01*
X129460122Y-76026082D01*
X129640379Y-75828800D01*
X129674428Y-75764709D01*
X129635372Y-75699616D01*
X129567275Y-75664065D01*
X129506187Y-75705624D01*
X129337947Y-75890889D01*
X129189735Y-75728645D01*
X129168705Y-75705624D01*
X129107618Y-75664065D01*
X129039521Y-75699616D01*
X129000966Y-75764709D01*
X128975657Y-75764709D01*
X128977432Y-75751690D01*
X128971423Y-75707627D01*
X128952396Y-75684093D01*
X128929864Y-75676082D01*
X128901323Y-75674580D01*
X128739092Y-75674580D01*
X128443670Y-75674580D01*
X128415129Y-75676082D01*
X128392096Y-75684093D01*
X128372568Y-75707126D01*
X128366559Y-75750689D01*
X128282105Y-75750689D01*
X128282105Y-75264995D01*
X128386588Y-75264995D01*
X128393097Y-75338412D01*
X128412625Y-75406447D01*
X128445172Y-75469099D01*
X128490737Y-75526368D01*
X128545315Y-75574124D01*
X128604900Y-75608235D01*
X128669492Y-75628702D01*
X128739092Y-75635524D01*
X128815868Y-75631184D01*
X128881962Y-75618166D01*
X128937375Y-75596468D01*
X128974177Y-75573310D01*
X129002468Y-75545896D01*
X129026502Y-75488314D01*
X129026502Y-75283020D01*
X129026001Y-75257985D01*
X129021495Y-75235953D01*
X129009478Y-75215925D01*
X128985944Y-75202906D01*
X128947389Y-75195896D01*
X128772139Y-75195896D01*
X128745100Y-75197398D01*
X128723069Y-75205410D01*
X128704542Y-75228943D01*
X128699034Y-75273006D01*
X128704041Y-75318071D01*
X128721066Y-75341604D01*
X128742096Y-75349616D01*
X128769134Y-75351118D01*
X128843240Y-75351118D01*
X128843240Y-75437241D01*
X128800680Y-75447005D01*
X128743097Y-75450259D01*
X128678255Y-75436490D01*
X128621924Y-75395181D01*
X128582868Y-75335596D01*
X128569850Y-75266998D01*
X128582368Y-75200528D01*
X128619921Y-75145324D01*
X128675250Y-75108146D01*
X128741094Y-75095753D01*
X128802933Y-75102763D01*
X128854256Y-75123793D01*
X128908333Y-75146826D01*
X128945386Y-75133557D01*
X128982439Y-75093750D01*
X129005472Y-75037670D01*
X128997599Y-75013636D01*
X129099607Y-75013636D01*
X129099607Y-75533378D01*
X129101609Y-75568428D01*
X129111123Y-75595968D01*
X129138162Y-75618500D01*
X129189735Y-75625510D01*
X129242811Y-75618500D01*
X129270851Y-75595968D01*
X129280365Y-75568929D01*
X129281867Y-75534380D01*
X129281867Y-75255982D01*
X129541237Y-75598471D01*
X129570780Y-75620002D01*
X129622353Y-75625510D01*
X129675429Y-75618500D01*
X129703469Y-75595968D01*
X129712983Y-75568929D01*
X129714485Y-75534380D01*
X129714485Y-75017641D01*
X129714354Y-75014637D01*
X129770565Y-75014637D01*
X129770565Y-75532377D01*
X129773069Y-75567927D01*
X129783584Y-75595968D01*
X129811123Y-75617498D01*
X129861695Y-75624508D01*
X130031938Y-75624508D01*
X130102352Y-75618030D01*
X130167382Y-75598596D01*
X130227030Y-75566206D01*
X130281295Y-75520860D01*
X130326422Y-75466376D01*
X130358655Y-75406572D01*
X130377995Y-75341448D01*
X130384442Y-75271003D01*
X130377995Y-75202405D01*
X130358655Y-75138814D01*
X130326422Y-75080231D01*
X130281295Y-75026654D01*
X130227217Y-74981965D01*
X130168133Y-74950045D01*
X130104041Y-74930892D01*
X130034943Y-74924508D01*
X129862697Y-74924508D01*
X129809621Y-74931018D01*
X129781581Y-74953550D01*
X129772067Y-74981089D01*
X129770565Y-75014637D01*
X129714354Y-75014637D01*
X129712983Y-74983092D01*
X129703469Y-74955553D01*
X129675429Y-74932520D01*
X129623355Y-74925510D01*
X129571280Y-74932520D01*
X129543240Y-74954050D01*
X129533226Y-74980588D01*
X129531223Y-75013636D01*
X129531223Y-75301046D01*
X129280866Y-74964565D01*
X129262840Y-74944036D01*
X129237303Y-74931518D01*
X129191738Y-74925510D01*
X129139163Y-74932019D01*
X129111624Y-74953550D01*
X129101609Y-74980088D01*
X129099607Y-75013636D01*
X128997599Y-75013636D01*
X128995959Y-75008628D01*
X128977432Y-74987598D01*
X128959406Y-74974723D01*
X128949392Y-74967570D01*
X128906456Y-74944412D01*
X128853755Y-74927012D01*
X128798051Y-74916121D01*
X128746102Y-74912491D01*
X128674656Y-74918969D01*
X128608530Y-74938403D01*
X128596888Y-74944604D01*
X128547724Y-74970793D01*
X128492239Y-75016139D01*
X128446017Y-75070561D01*
X128413001Y-75130177D01*
X128393191Y-75194988D01*
X128386588Y-75264995D01*
X128282105Y-75264995D01*
X128282105Y-74610059D01*
X128365558Y-74610059D01*
X128371567Y-74658128D01*
X128391094Y-74683163D01*
X128414127Y-74691676D01*
X128442668Y-74693178D01*
X128514771Y-74693178D01*
X128514771Y-74758271D01*
X128516273Y-74788814D01*
X128524785Y-74813850D01*
X128549821Y-74834880D01*
X128596888Y-74841390D01*
X128644957Y-74834880D01*
X128669993Y-74814351D01*
X128678505Y-74789816D01*
X128680007Y-74759272D01*
X128680007Y-74693178D01*
X128751109Y-74693178D01*
X128779649Y-74691676D01*
X128802682Y-74683163D01*
X128822210Y-74658128D01*
X128828219Y-74611060D01*
X128821710Y-74562491D01*
X128801180Y-74536955D01*
X128776645Y-74528442D01*
X128746102Y-74526940D01*
X128680007Y-74526940D01*
X128680007Y-74461847D01*
X128678505Y-74431304D01*
X128669993Y-74406769D01*
X128652896Y-74392749D01*
X128856259Y-74392749D01*
X128863992Y-74445824D01*
X128887192Y-74494227D01*
X128925858Y-74537956D01*
X128974873Y-74572450D01*
X129029117Y-74593146D01*
X129088591Y-74600045D01*
X129141667Y-74591032D01*
X129100497Y-74647223D01*
X129042414Y-74680938D01*
X128967418Y-74692176D01*
X128932368Y-74693679D01*
X128904328Y-74703192D01*
X128881295Y-74731232D01*
X128874285Y-74783307D01*
X128880794Y-74835381D01*
X128901824Y-74863421D01*
X128927861Y-74873435D01*
X128959406Y-74875438D01*
X129027143Y-74870751D01*
X129089352Y-74856691D01*
X129146033Y-74833258D01*
X129197186Y-74800451D01*
X129242811Y-74758271D01*
X129281386Y-74708440D01*
X129311389Y-74652680D01*
X129332820Y-74590992D01*
X129345678Y-74523375D01*
X129349964Y-74449830D01*
X129342454Y-74366767D01*
X129319921Y-74296500D01*
X129282368Y-74239029D01*
X129274002Y-74232019D01*
X129393026Y-74232019D01*
X129403040Y-74301618D01*
X129640379Y-74823364D01*
X129674428Y-74860917D01*
X129730508Y-74873435D01*
X129782082Y-74859916D01*
X129816631Y-74823364D01*
X130053970Y-74301618D01*
X130065486Y-74232520D01*
X130007904Y-74184451D01*
X129933798Y-74169930D01*
X129886731Y-74226511D01*
X129728505Y-74616068D01*
X129570279Y-74226511D01*
X129524213Y-74169430D01*
X129449106Y-74184451D01*
X129393026Y-74232019D01*
X129274002Y-74232019D01*
X129231573Y-74196468D01*
X129169317Y-74170932D01*
X129095601Y-74162420D01*
X129031732Y-74169819D01*
X128974984Y-74192017D01*
X128925358Y-74229015D01*
X128886969Y-74276805D01*
X128863937Y-74331383D01*
X128856259Y-74392749D01*
X128652896Y-74392749D01*
X128644957Y-74386239D01*
X128597890Y-74379730D01*
X128549821Y-74385739D01*
X128524785Y-74405767D01*
X128516273Y-74430302D01*
X128514771Y-74460846D01*
X128514771Y-74526940D01*
X128449678Y-74526940D01*
X128418634Y-74528442D01*
X128393097Y-74536955D01*
X128372067Y-74561990D01*
X128365558Y-74610059D01*
X128282105Y-74610059D01*
X128282105Y-74075963D01*
X128365558Y-74075963D01*
X130384442Y-74075963D01*
X130467895Y-74075963D01*
X130467895Y-78725271D01*
G37*
%TO.C,C47*%
D12*
X147117164Y-76090000D02*
X147332836Y-76090000D01*
X147117164Y-76810000D02*
X147332836Y-76810000D01*
%TO.C,U7*%
X135470000Y-57130000D02*
X135470000Y-57130000D01*
X135470000Y-57130000D02*
X135480000Y-57360000D01*
X135470000Y-60290000D02*
X135470000Y-60290000D01*
X135470000Y-60290000D02*
X138630000Y-60290000D01*
X135480000Y-60030000D02*
X135470000Y-60290000D01*
X138620000Y-57390000D02*
X138630000Y-57130000D01*
X138630000Y-57130000D02*
X135470000Y-57130000D01*
X138630000Y-57130000D02*
X138630000Y-57130000D01*
X138630000Y-60290000D02*
X138620000Y-60060000D01*
X138630000Y-60290000D02*
X138630000Y-60290000D01*
X138580000Y-60210000D02*
G75*
G02*
X138520000Y-60210000I-30000J0D01*
G01*
X138520000Y-60210000D02*
G75*
G02*
X138580000Y-60210000I30000J0D01*
G01*
X139050000Y-60180000D02*
G75*
G02*
X138910000Y-60180000I-70000J0D01*
G01*
X138910000Y-60180000D02*
G75*
G02*
X139050000Y-60180000I70000J0D01*
G01*
%TO.C,SW2*%
X126069995Y-85620004D02*
X126069995Y-86290004D01*
X126609995Y-84650004D02*
X128529995Y-84650004D01*
X126609995Y-87250004D02*
X128529995Y-87250004D01*
X129069995Y-86290004D02*
X129069995Y-85610004D01*
X127969995Y-85950004D02*
G75*
G02*
X127169995Y-85950004I-400000J0D01*
G01*
X127169995Y-85950004D02*
G75*
G02*
X127969995Y-85950004I400000J0D01*
G01*
X129390706Y-87375004D02*
G75*
G02*
X129249284Y-87375004I-70711J0D01*
G01*
X129249284Y-87375004D02*
G75*
G02*
X129390706Y-87375004I70711J0D01*
G01*
%TO.C,C17*%
X146917836Y-58965617D02*
X146702164Y-58965617D01*
X146917836Y-59685617D02*
X146702164Y-59685617D01*
%TO.C,C33*%
X149010000Y-69797781D02*
X149010000Y-70013453D01*
X149730000Y-69797781D02*
X149730000Y-70013453D01*
%TO.C,U2*%
X130640000Y-71740617D02*
X138860000Y-71740617D01*
X130640000Y-78960617D02*
X130640000Y-71740617D01*
X138860000Y-71740617D02*
X138860000Y-79960617D01*
X138860000Y-79960617D02*
X131640000Y-79960617D01*
X130640000Y-79960617D02*
X130640000Y-80460617D01*
X130140000Y-79960617D01*
X130640000Y-79960617D01*
G36*
X130640000Y-80460617D02*
G01*
X130140000Y-79960617D01*
X130640000Y-79960617D01*
X130640000Y-80460617D01*
G37*
%TO.C,U15*%
X142950000Y-82170000D02*
X142950000Y-82420000D01*
X142950000Y-84830000D02*
X142950000Y-84580000D01*
X143700000Y-82170000D02*
X142950000Y-82170000D01*
X143700000Y-84830000D02*
X142950000Y-84830000D01*
X145360000Y-82170000D02*
X146110000Y-82170000D01*
X145360000Y-84830000D02*
X146110000Y-84830000D01*
X146110000Y-82170000D02*
X146110000Y-82420000D01*
X146110000Y-84830000D02*
X146110000Y-84580000D01*
X142700000Y-82740000D02*
G75*
G02*
X142540000Y-82740000I-80000J0D01*
G01*
X142540000Y-82740000D02*
G75*
G02*
X142700000Y-82740000I80000J0D01*
G01*
X143060000Y-82250000D02*
G75*
G02*
X143000000Y-82250000I-30000J0D01*
G01*
X143000000Y-82250000D02*
G75*
G02*
X143060000Y-82250000I30000J0D01*
G01*
%TO.C,C42*%
X147290000Y-83858453D02*
X147290000Y-83642781D01*
X148010000Y-83858453D02*
X148010000Y-83642781D01*
%TO.C,R28*%
X145858641Y-81115617D02*
X145551359Y-81115617D01*
X145858641Y-81875617D02*
X145551359Y-81875617D01*
D13*
%TO.C,U11*%
G36*
X152742979Y-71341873D02*
G01*
X152361979Y-71087873D01*
X152742979Y-70833873D01*
X152742979Y-71341873D01*
G37*
%TO.C,kibuzzard-6A40F45A*%
G36*
X151775565Y-72863035D02*
G01*
X151800172Y-72922548D01*
X151773848Y-72985495D01*
X151718913Y-73006096D01*
X151593019Y-73006096D01*
X151593019Y-72839000D01*
X151716624Y-72839000D01*
X151775565Y-72863035D01*
G37*
G36*
X152506323Y-71994651D02*
G01*
X152568126Y-72036711D01*
X152610186Y-72098514D01*
X152624206Y-72171761D01*
X152610186Y-72244866D01*
X152568126Y-72306239D01*
X152506609Y-72347870D01*
X152434220Y-72361747D01*
X152341516Y-72361747D01*
X152341516Y-71980631D01*
X152433076Y-71980631D01*
X152506323Y-71994651D01*
G37*
G36*
X152929022Y-73539811D02*
G01*
X152833648Y-73539811D01*
X152690587Y-73539811D01*
X151886009Y-73539811D01*
X151341230Y-73539811D01*
X150929213Y-73539811D01*
X150526352Y-73539811D01*
X150430978Y-73539811D01*
X150430978Y-72696511D01*
X150543519Y-72696511D01*
X150554964Y-72776053D01*
X150826209Y-73372334D01*
X150865122Y-73415252D01*
X150929213Y-73429558D01*
X150988155Y-73414108D01*
X151027639Y-73372334D01*
X151298884Y-72776053D01*
X151305942Y-72733707D01*
X151383577Y-72733707D01*
X151383577Y-73324265D01*
X151385293Y-73363750D01*
X151396166Y-73395224D01*
X151428212Y-73421547D01*
X151487725Y-73429558D01*
X151548383Y-73421547D01*
X151580429Y-73395796D01*
X151591302Y-73364895D01*
X151593019Y-73325410D01*
X151593019Y-73214394D01*
X151699456Y-73214394D01*
X151821917Y-73380345D01*
X151886009Y-73433564D01*
X151967268Y-73402091D01*
X152022203Y-73334565D01*
X151991302Y-73255596D01*
X151908898Y-73145724D01*
X151964851Y-73083413D01*
X151998423Y-73009403D01*
X152009614Y-72923693D01*
X152002461Y-72855739D01*
X151981001Y-72793793D01*
X151948240Y-72741003D01*
X151938520Y-72731418D01*
X152044521Y-72731418D01*
X152082861Y-72804666D01*
X152288870Y-73030131D01*
X152084006Y-73255596D01*
X152044521Y-73329415D01*
X152089728Y-73402091D01*
X152167554Y-73442720D01*
X152237368Y-73395224D01*
X152429642Y-73184637D01*
X152620773Y-73395224D01*
X152690587Y-73442720D01*
X152768412Y-73402091D01*
X152813619Y-73329415D01*
X152774134Y-73255596D01*
X152569270Y-73030131D01*
X152775279Y-72804666D01*
X152814192Y-72731418D01*
X152769557Y-72657026D01*
X152691731Y-72616397D01*
X152621917Y-72663893D01*
X152429642Y-72875624D01*
X152236223Y-72663893D01*
X152166409Y-72616397D01*
X152088584Y-72657026D01*
X152044521Y-72731418D01*
X151938520Y-72731418D01*
X151907182Y-72700517D01*
X151861116Y-72670188D01*
X151813333Y-72647870D01*
X151765408Y-72634136D01*
X151718913Y-72629558D01*
X151488870Y-72629558D01*
X151468269Y-72632279D01*
X151428212Y-72637570D01*
X151396166Y-72663893D01*
X151385293Y-72695367D01*
X151383577Y-72733707D01*
X151305942Y-72733707D01*
X151312046Y-72697083D01*
X151246237Y-72642148D01*
X151161545Y-72625553D01*
X151107754Y-72690216D01*
X150953247Y-73070615D01*
X150926924Y-73135424D01*
X150746094Y-72690216D01*
X150693448Y-72624980D01*
X150607611Y-72642148D01*
X150543519Y-72696511D01*
X150430978Y-72696511D01*
X150430978Y-72160317D01*
X150550386Y-72160317D01*
X150557825Y-72244222D01*
X150580143Y-72321976D01*
X150617339Y-72393578D01*
X150669413Y-72459029D01*
X150731788Y-72513607D01*
X150799886Y-72552591D01*
X150873705Y-72575982D01*
X150953247Y-72583779D01*
X151040992Y-72578819D01*
X151116528Y-72563941D01*
X151179857Y-72539143D01*
X151221917Y-72512677D01*
X151254249Y-72481347D01*
X151281717Y-72415538D01*
X151281717Y-72180917D01*
X151281144Y-72152305D01*
X151275994Y-72127126D01*
X151262260Y-72104236D01*
X151235365Y-72089358D01*
X151191302Y-72081347D01*
X150991016Y-72081347D01*
X150960114Y-72083063D01*
X150934936Y-72092219D01*
X150913763Y-72119115D01*
X150907468Y-72169473D01*
X150913190Y-72220975D01*
X150932647Y-72247870D01*
X150956681Y-72257026D01*
X150987582Y-72258743D01*
X151072275Y-72258743D01*
X151072275Y-72357169D01*
X151023634Y-72368328D01*
X150957825Y-72372048D01*
X150883720Y-72356311D01*
X150819342Y-72309101D01*
X150774707Y-72241003D01*
X150759828Y-72162606D01*
X150774134Y-72086640D01*
X150817053Y-72023550D01*
X150880286Y-71981060D01*
X150955536Y-71966897D01*
X151026209Y-71974909D01*
X151084864Y-71998943D01*
X151146667Y-72025266D01*
X151189013Y-72010102D01*
X151231359Y-71964608D01*
X151257682Y-71900517D01*
X151248684Y-71873049D01*
X151365265Y-71873049D01*
X151365265Y-72467040D01*
X151367554Y-72507098D01*
X151378426Y-72538571D01*
X151409328Y-72564322D01*
X151468269Y-72572334D01*
X151528927Y-72564322D01*
X151560973Y-72538571D01*
X151571845Y-72507670D01*
X151573562Y-72468185D01*
X151573562Y-72150016D01*
X151869986Y-72541432D01*
X151903748Y-72566039D01*
X151962690Y-72572334D01*
X152023348Y-72564322D01*
X152055393Y-72538571D01*
X152066266Y-72507670D01*
X152067983Y-72468185D01*
X152067983Y-71877627D01*
X152067834Y-71874194D01*
X152132074Y-71874194D01*
X152132074Y-72465896D01*
X152134936Y-72506525D01*
X152146953Y-72538571D01*
X152178426Y-72563178D01*
X152236223Y-72571189D01*
X152430787Y-72571189D01*
X152511259Y-72563786D01*
X152585579Y-72541576D01*
X152653748Y-72504558D01*
X152715765Y-72452734D01*
X152767339Y-72390467D01*
X152804177Y-72322119D01*
X152826280Y-72247691D01*
X152833648Y-72167184D01*
X152826280Y-72088786D01*
X152804177Y-72016111D01*
X152767339Y-71949158D01*
X152715765Y-71887927D01*
X152653963Y-71836854D01*
X152586438Y-71800374D01*
X152513190Y-71778485D01*
X152434220Y-71771189D01*
X152237368Y-71771189D01*
X152176710Y-71778628D01*
X152144664Y-71804380D01*
X152133791Y-71835853D01*
X152132074Y-71874194D01*
X152067834Y-71874194D01*
X152066266Y-71838142D01*
X152055393Y-71806669D01*
X152054249Y-71805728D01*
X152023348Y-71780345D01*
X151963834Y-71772334D01*
X151904320Y-71780345D01*
X151872275Y-71804952D01*
X151860830Y-71835281D01*
X151858541Y-71873049D01*
X151858541Y-72201518D01*
X151572418Y-71816969D01*
X151551817Y-71793507D01*
X151522632Y-71779201D01*
X151470558Y-71772334D01*
X151410472Y-71779773D01*
X151378999Y-71804380D01*
X151367554Y-71834709D01*
X151365265Y-71873049D01*
X151248684Y-71873049D01*
X151246810Y-71867327D01*
X151225637Y-71843292D01*
X151193591Y-71820402D01*
X151144521Y-71793936D01*
X151084292Y-71774050D01*
X151020629Y-71761604D01*
X150961259Y-71757455D01*
X150879607Y-71764859D01*
X150804034Y-71787069D01*
X150790730Y-71794156D01*
X150734542Y-71824086D01*
X150671130Y-71875910D01*
X150618305Y-71938106D01*
X150580572Y-72006239D01*
X150557933Y-72080309D01*
X150550386Y-72160317D01*
X150430978Y-72160317D01*
X150430978Y-71411819D01*
X150526352Y-71411819D01*
X150533219Y-71466754D01*
X150555536Y-71495367D01*
X150581860Y-71505095D01*
X150614478Y-71506812D01*
X150696881Y-71506812D01*
X150696881Y-71581204D01*
X150698598Y-71616111D01*
X150708326Y-71644723D01*
X150736938Y-71668757D01*
X150790730Y-71676196D01*
X150845665Y-71668757D01*
X150874278Y-71645295D01*
X150884006Y-71617255D01*
X150885722Y-71582348D01*
X150885722Y-71578915D01*
X151076853Y-71578915D01*
X151120343Y-71648729D01*
X151144378Y-71669329D01*
X151222203Y-71708814D01*
X151279428Y-71723836D01*
X151341230Y-71728843D01*
X151415622Y-71719751D01*
X151481621Y-71692474D01*
X151539227Y-71647012D01*
X151583735Y-71588198D01*
X151610440Y-71520863D01*
X151619342Y-71445009D01*
X151610186Y-71376912D01*
X151582718Y-71314537D01*
X151536938Y-71257885D01*
X151479078Y-71213059D01*
X151415368Y-71186163D01*
X151345808Y-71177198D01*
X151340086Y-71177198D01*
X151320629Y-71179487D01*
X151328641Y-71118829D01*
X151504893Y-71118829D01*
X151541516Y-71117112D01*
X151571273Y-71106812D01*
X151595880Y-71076483D01*
X151603319Y-71019258D01*
X151598248Y-70979773D01*
X151668555Y-70979773D01*
X151680000Y-71059315D01*
X151951245Y-71655596D01*
X151990157Y-71698514D01*
X152054249Y-71712820D01*
X152113190Y-71697370D01*
X152152675Y-71655596D01*
X152423920Y-71059315D01*
X152437082Y-70980345D01*
X152371273Y-70925410D01*
X152286581Y-70908814D01*
X152232790Y-70973478D01*
X152051960Y-71418686D01*
X151871130Y-70973478D01*
X151818484Y-70908242D01*
X151732647Y-70925410D01*
X151668555Y-70979773D01*
X151598248Y-70979773D01*
X151595308Y-70956883D01*
X151569557Y-70924837D01*
X151538655Y-70913965D01*
X151499170Y-70911676D01*
X151237082Y-70910531D01*
X151182718Y-70920832D01*
X151150672Y-70951161D01*
X151137511Y-70982634D01*
X151131788Y-71014680D01*
X151089442Y-71339716D01*
X151103748Y-71372906D01*
X151154678Y-71407241D01*
X151229070Y-71430131D01*
X151293162Y-71402663D01*
X151337797Y-71386640D01*
X151388155Y-71405524D01*
X151408755Y-71453020D01*
X151389299Y-71501089D01*
X151334363Y-71518256D01*
X151267983Y-71499945D01*
X151190157Y-71462176D01*
X151119199Y-71501089D01*
X151076853Y-71578915D01*
X150885722Y-71578915D01*
X150885722Y-71506812D01*
X150966981Y-71506812D01*
X150999599Y-71505095D01*
X151025923Y-71495367D01*
X151048240Y-71466754D01*
X151055107Y-71412963D01*
X151047668Y-71357455D01*
X151024206Y-71328271D01*
X150996166Y-71318543D01*
X150961259Y-71316826D01*
X150885722Y-71316826D01*
X150885722Y-71242434D01*
X150884006Y-71207527D01*
X150874278Y-71179487D01*
X150845665Y-71156025D01*
X150791874Y-71148586D01*
X150736938Y-71155452D01*
X150708326Y-71178342D01*
X150698598Y-71206382D01*
X150696881Y-71241289D01*
X150696881Y-71316826D01*
X150622489Y-71316826D01*
X150587010Y-71318543D01*
X150557825Y-71328271D01*
X150533791Y-71356883D01*
X150526352Y-71411819D01*
X150430978Y-71411819D01*
X150430978Y-70801423D01*
X150526352Y-70801423D01*
X152833648Y-70801423D01*
X152929022Y-70801423D01*
X152929022Y-73539811D01*
G37*
%TO.C,C46*%
D12*
X146097836Y-85140000D02*
X145882164Y-85140000D01*
X146097836Y-85860000D02*
X145882164Y-85860000D01*
%TO.C,C41*%
X135427831Y-85600000D02*
X135212159Y-85600000D01*
X135427831Y-86320000D02*
X135212159Y-86320000D01*
D13*
%TO.C,kibuzzard-6A4131DD*%
G36*
X129954328Y-72502226D02*
G01*
X129860193Y-72502226D01*
X129907260Y-72405088D01*
X129954328Y-72502226D01*
G37*
G36*
X129251323Y-72298185D02*
G01*
X129305401Y-72334988D01*
X129342203Y-72389065D01*
X129354471Y-72453156D01*
X129342203Y-72517123D01*
X129305401Y-72570824D01*
X129251574Y-72607251D01*
X129188233Y-72619394D01*
X129107117Y-72619394D01*
X129107117Y-72285917D01*
X129187232Y-72285917D01*
X129251323Y-72298185D01*
G37*
G36*
X130099535Y-71547112D02*
G01*
X130153612Y-71583915D01*
X130190415Y-71637992D01*
X130202682Y-71702083D01*
X130190415Y-71766050D01*
X130153612Y-71819751D01*
X130099785Y-71856179D01*
X130036445Y-71868321D01*
X129955329Y-71868321D01*
X129955329Y-71534844D01*
X130035443Y-71534844D01*
X130099535Y-71547112D01*
G37*
G36*
X130469397Y-73648197D02*
G01*
X130385944Y-73648197D01*
X130126574Y-73648197D01*
X129668920Y-73648197D01*
X129272353Y-73648197D01*
X128624428Y-73648197D01*
X128364056Y-73648197D01*
X128280603Y-73648197D01*
X128280603Y-73390495D01*
X128368062Y-73390495D01*
X128393097Y-73455588D01*
X128399106Y-73462598D01*
X128410122Y-73476618D01*
X128427647Y-73494143D01*
X128451681Y-73513671D01*
X128482725Y-73532699D01*
X128521280Y-73549222D01*
X128568348Y-73560238D01*
X128624428Y-73564744D01*
X128691023Y-73557234D01*
X128759621Y-73531697D01*
X128821209Y-73487133D01*
X128864771Y-73419537D01*
X128877539Y-73376225D01*
X128881795Y-73328407D01*
X128872407Y-73253550D01*
X128844761Y-73200224D01*
X128909835Y-73200224D01*
X128916220Y-73273078D01*
X128935372Y-73339422D01*
X128964288Y-73396880D01*
X128999964Y-73443071D01*
X129041649Y-73480624D01*
X129088591Y-73512169D01*
X129137411Y-73536579D01*
X129184728Y-73552727D01*
X129229918Y-73561740D01*
X129272353Y-73564744D01*
X129337113Y-73558513D01*
X129399201Y-73539820D01*
X129458619Y-73508664D01*
X129499678Y-73478121D01*
X129513698Y-73441568D01*
X129491667Y-73383485D01*
X129455615Y-73340674D01*
X129421567Y-73326404D01*
X129371495Y-73346432D01*
X129321173Y-73371218D01*
X129268348Y-73379480D01*
X129192239Y-73363457D01*
X129156062Y-73341050D01*
X129123641Y-73305875D01*
X129100733Y-73259934D01*
X129093097Y-73205231D01*
X129097353Y-73162670D01*
X129110122Y-73125116D01*
X129154685Y-73070538D01*
X129211266Y-73040996D01*
X129268348Y-73030982D01*
X129292382Y-73031983D01*
X129312411Y-73035488D01*
X129328433Y-73039494D01*
X129341953Y-73044501D01*
X129351466Y-73050009D01*
X129359979Y-73055517D01*
X129366488Y-73060023D01*
X129420565Y-73083056D01*
X129455114Y-73069537D01*
X129492668Y-73028979D01*
X129514700Y-72972899D01*
X129505820Y-72944859D01*
X129577790Y-72944859D01*
X129577790Y-73462598D01*
X129579292Y-73497148D01*
X129588805Y-73524687D01*
X129616845Y-73547720D01*
X129668920Y-73554730D01*
X130004399Y-73554730D01*
X130032940Y-73553228D01*
X130056974Y-73544716D01*
X130076502Y-73520681D01*
X130082511Y-73476618D01*
X130076502Y-73431554D01*
X130056974Y-73408020D01*
X130033941Y-73400009D01*
X130005401Y-73398507D01*
X129761052Y-73398507D01*
X129761052Y-72945860D01*
X129759549Y-72911311D01*
X129750036Y-72883772D01*
X129721996Y-72860739D01*
X129669921Y-72853729D01*
X129616845Y-72860739D01*
X129588805Y-72883772D01*
X129579292Y-72911311D01*
X129577790Y-72944859D01*
X129505820Y-72944859D01*
X129505186Y-72942856D01*
X129486660Y-72921826D01*
X129459621Y-72902799D01*
X129396419Y-72871643D01*
X129334998Y-72852950D01*
X129275358Y-72846719D01*
X129231170Y-72849723D01*
X129184728Y-72858736D01*
X129136660Y-72874633D01*
X129087589Y-72898292D01*
X129040647Y-72928836D01*
X129014986Y-72951338D01*
X128998963Y-72965388D01*
X128963412Y-73010327D01*
X128934871Y-73066032D01*
X128916094Y-73130123D01*
X128909835Y-73200224D01*
X128844761Y-73200224D01*
X128844242Y-73199222D01*
X128800304Y-73161168D01*
X128743598Y-73135131D01*
X128679506Y-73119608D01*
X128618419Y-73107091D01*
X128578863Y-73089565D01*
X128561338Y-73057019D01*
X128577361Y-73026475D01*
X128614413Y-73013957D01*
X128647461Y-73017462D01*
X128666989Y-73024973D01*
X128681009Y-73036490D01*
X128692525Y-73046003D01*
X128759621Y-73064530D01*
X128818705Y-73015960D01*
X128842740Y-72954372D01*
X128806688Y-72902799D01*
X128754725Y-72869418D01*
X128690967Y-72849389D01*
X128624428Y-72843509D01*
X128615415Y-72842713D01*
X128551212Y-72849445D01*
X128494798Y-72869640D01*
X128446173Y-72903299D01*
X128408898Y-72947195D01*
X128386532Y-72998102D01*
X128379077Y-73056018D01*
X128387089Y-73121111D01*
X128411123Y-73175188D01*
X128451180Y-73218249D01*
X128507260Y-73250295D01*
X128545190Y-73263940D01*
X128592883Y-73276833D01*
X128671495Y-73300367D01*
X128697532Y-73331411D01*
X128679506Y-73377978D01*
X128620422Y-73392498D01*
X128580866Y-73382985D01*
X128540308Y-73346432D01*
X128495132Y-73309936D01*
X128451737Y-73303260D01*
X128410122Y-73326404D01*
X128368062Y-73390495D01*
X128280603Y-73390495D01*
X128280603Y-72639422D01*
X128368062Y-72639422D01*
X128393097Y-72704515D01*
X128399106Y-72711525D01*
X128410122Y-72725545D01*
X128427647Y-72743071D01*
X128451681Y-72762598D01*
X128482725Y-72781626D01*
X128521280Y-72798149D01*
X128568348Y-72809165D01*
X128624428Y-72813671D01*
X128691023Y-72806161D01*
X128759621Y-72780624D01*
X128821209Y-72736060D01*
X128864771Y-72668464D01*
X128877539Y-72625152D01*
X128881795Y-72577334D01*
X128872407Y-72502477D01*
X128844242Y-72448149D01*
X128800304Y-72410095D01*
X128743598Y-72384058D01*
X128679506Y-72368535D01*
X128618419Y-72356018D01*
X128578863Y-72338493D01*
X128561338Y-72305946D01*
X128577361Y-72275402D01*
X128614413Y-72262885D01*
X128647461Y-72266390D01*
X128666989Y-72273900D01*
X128681009Y-72285417D01*
X128692525Y-72294930D01*
X128759621Y-72313457D01*
X128818705Y-72264887D01*
X128842740Y-72203299D01*
X128835390Y-72192784D01*
X128923856Y-72192784D01*
X128923856Y-72710524D01*
X128926359Y-72746075D01*
X128936874Y-72774115D01*
X128964413Y-72795646D01*
X129014986Y-72802656D01*
X129185229Y-72802656D01*
X129255642Y-72796178D01*
X129320672Y-72776744D01*
X129375307Y-72747076D01*
X129559764Y-72747076D01*
X129615844Y-72795646D01*
X129688948Y-72810166D01*
X129739020Y-72754587D01*
X129785086Y-72658450D01*
X130031438Y-72658450D01*
X130077504Y-72753586D01*
X130126574Y-72811168D01*
X130200680Y-72796647D01*
X130256259Y-72747577D01*
X130242740Y-72676475D01*
X129991381Y-72156733D01*
X129957082Y-72116175D01*
X129908262Y-72102656D01*
X129863197Y-72115991D01*
X129859192Y-72117176D01*
X129824142Y-72155731D01*
X129572783Y-72676475D01*
X129559764Y-72747076D01*
X129375307Y-72747076D01*
X129380320Y-72744354D01*
X129434585Y-72699008D01*
X129479712Y-72644523D01*
X129511946Y-72584719D01*
X129531286Y-72519595D01*
X129537732Y-72449151D01*
X129531286Y-72380553D01*
X129511946Y-72316962D01*
X129479712Y-72258378D01*
X129434585Y-72204802D01*
X129380508Y-72160113D01*
X129321423Y-72128192D01*
X129257332Y-72109040D01*
X129191237Y-72102933D01*
X129188233Y-72102656D01*
X129080079Y-72102656D01*
X129015987Y-72102656D01*
X128962911Y-72109165D01*
X128934871Y-72131697D01*
X128925358Y-72159236D01*
X128923856Y-72192784D01*
X128835390Y-72192784D01*
X128806688Y-72151726D01*
X128754725Y-72118345D01*
X128740594Y-72113906D01*
X128690967Y-72098316D01*
X128615415Y-72091640D01*
X128551212Y-72098372D01*
X128494798Y-72118567D01*
X128446173Y-72152226D01*
X128408898Y-72196122D01*
X128386532Y-72247029D01*
X128379077Y-72304945D01*
X128387089Y-72370038D01*
X128411123Y-72424115D01*
X128451180Y-72467176D01*
X128507260Y-72499222D01*
X128545190Y-72512867D01*
X128592883Y-72525760D01*
X128671495Y-72549294D01*
X128697532Y-72580338D01*
X128679506Y-72626905D01*
X128620422Y-72641425D01*
X128580866Y-72631912D01*
X128540308Y-72595359D01*
X128495132Y-72558863D01*
X128451737Y-72552187D01*
X128410122Y-72575331D01*
X128368062Y-72639422D01*
X128280603Y-72639422D01*
X128280603Y-71692069D01*
X128388090Y-71692069D01*
X128394599Y-71765486D01*
X128414127Y-71833521D01*
X128446674Y-71896173D01*
X128492239Y-71953442D01*
X128546817Y-72001198D01*
X128606402Y-72035309D01*
X128670994Y-72055776D01*
X128740594Y-72062598D01*
X128817370Y-72058259D01*
X128883464Y-72045240D01*
X128938877Y-72023543D01*
X128975680Y-72000385D01*
X129003970Y-71972970D01*
X129028004Y-71915388D01*
X129028004Y-71710095D01*
X129027504Y-71685059D01*
X129022997Y-71663028D01*
X129010980Y-71642999D01*
X128987446Y-71629980D01*
X128948891Y-71622970D01*
X128773641Y-71622970D01*
X128746602Y-71624473D01*
X128724571Y-71632484D01*
X128706044Y-71656018D01*
X128700536Y-71700081D01*
X128705544Y-71745145D01*
X128722568Y-71768679D01*
X128743598Y-71776690D01*
X128770637Y-71778192D01*
X128844742Y-71778192D01*
X128844742Y-71864315D01*
X128802182Y-71874079D01*
X128744599Y-71877334D01*
X128679757Y-71863564D01*
X128623426Y-71822255D01*
X128584371Y-71762670D01*
X128571352Y-71694072D01*
X128583870Y-71627602D01*
X128621423Y-71572398D01*
X128676753Y-71535220D01*
X128742597Y-71522827D01*
X128804435Y-71529837D01*
X128855758Y-71550867D01*
X128909835Y-71573900D01*
X128946888Y-71560631D01*
X128983941Y-71520824D01*
X129006974Y-71464744D01*
X128999101Y-71440710D01*
X129101109Y-71440710D01*
X129101109Y-71960452D01*
X129103112Y-71995503D01*
X129112625Y-72023042D01*
X129139664Y-72045574D01*
X129191237Y-72052584D01*
X129244313Y-72045574D01*
X129272353Y-72023042D01*
X129281867Y-71996003D01*
X129283369Y-71961454D01*
X129283369Y-71683056D01*
X129542740Y-72025545D01*
X129572282Y-72047076D01*
X129623856Y-72052584D01*
X129676931Y-72045574D01*
X129704971Y-72023042D01*
X129714485Y-71996003D01*
X129715987Y-71961454D01*
X129715987Y-71444716D01*
X129715856Y-71441711D01*
X129772067Y-71441711D01*
X129772067Y-71959451D01*
X129774571Y-71995002D01*
X129785086Y-72023042D01*
X129812625Y-72044573D01*
X129863197Y-72051583D01*
X130033441Y-72051583D01*
X130103854Y-72045105D01*
X130168884Y-72025671D01*
X130228532Y-71993281D01*
X130282797Y-71947935D01*
X130327924Y-71893451D01*
X130360157Y-71833646D01*
X130379497Y-71768522D01*
X130385944Y-71698078D01*
X130379497Y-71629480D01*
X130360157Y-71565889D01*
X130327924Y-71507305D01*
X130282797Y-71453729D01*
X130228720Y-71409040D01*
X130169635Y-71377119D01*
X130105544Y-71357967D01*
X130036445Y-71351583D01*
X129864199Y-71351583D01*
X129811123Y-71358092D01*
X129783083Y-71380624D01*
X129773569Y-71408163D01*
X129772067Y-71441711D01*
X129715856Y-71441711D01*
X129714485Y-71410166D01*
X129704971Y-71382627D01*
X129703970Y-71381804D01*
X129676931Y-71359594D01*
X129624857Y-71352584D01*
X129572783Y-71359594D01*
X129544742Y-71381125D01*
X129534728Y-71407663D01*
X129532725Y-71440710D01*
X129532725Y-71728121D01*
X129282368Y-71391640D01*
X129264342Y-71371111D01*
X129238805Y-71358593D01*
X129193240Y-71352584D01*
X129140665Y-71359093D01*
X129113126Y-71380624D01*
X129103112Y-71407162D01*
X129101109Y-71440710D01*
X128999101Y-71440710D01*
X128997461Y-71435703D01*
X128978934Y-71414673D01*
X128950894Y-71394644D01*
X128907958Y-71371486D01*
X128855258Y-71354086D01*
X128799553Y-71343196D01*
X128747604Y-71339565D01*
X128676158Y-71346044D01*
X128610032Y-71365478D01*
X128598391Y-71371679D01*
X128549227Y-71397868D01*
X128493741Y-71443214D01*
X128447519Y-71497635D01*
X128414503Y-71557251D01*
X128394693Y-71622063D01*
X128388090Y-71692069D01*
X128280603Y-71692069D01*
X128280603Y-71037133D01*
X128367060Y-71037133D01*
X128373069Y-71085202D01*
X128392597Y-71110238D01*
X128415629Y-71118750D01*
X128444170Y-71120252D01*
X128516273Y-71120252D01*
X128516273Y-71185345D01*
X128517775Y-71215889D01*
X128526288Y-71240925D01*
X128551323Y-71261955D01*
X128598391Y-71268464D01*
X128646459Y-71261955D01*
X128671495Y-71241425D01*
X128680007Y-71216890D01*
X128681509Y-71186347D01*
X128681509Y-71183342D01*
X128848748Y-71183342D01*
X128886803Y-71244430D01*
X128907833Y-71262455D01*
X128975930Y-71297005D01*
X129026001Y-71310148D01*
X129080079Y-71314530D01*
X129145172Y-71306574D01*
X129202921Y-71282706D01*
X129253326Y-71242927D01*
X129292271Y-71191465D01*
X129315637Y-71132548D01*
X129323426Y-71066175D01*
X129315415Y-71006590D01*
X129291381Y-70952012D01*
X129251323Y-70902441D01*
X129200695Y-70863218D01*
X129144949Y-70839685D01*
X129084084Y-70831840D01*
X129079077Y-70831840D01*
X129062053Y-70833843D01*
X129069063Y-70780767D01*
X129223283Y-70780767D01*
X129255329Y-70779265D01*
X129281366Y-70770252D01*
X129302897Y-70743714D01*
X129309406Y-70693643D01*
X129304968Y-70659093D01*
X129366488Y-70659093D01*
X129376502Y-70728693D01*
X129613841Y-71250438D01*
X129647890Y-71287992D01*
X129703970Y-71300510D01*
X129755544Y-71286990D01*
X129790093Y-71250438D01*
X130027432Y-70728693D01*
X130038948Y-70659594D01*
X129981366Y-70611525D01*
X129907260Y-70597005D01*
X129860193Y-70653586D01*
X129701967Y-71043142D01*
X129543741Y-70653586D01*
X129497675Y-70596504D01*
X129422568Y-70611525D01*
X129366488Y-70659093D01*
X129304968Y-70659093D01*
X129302396Y-70639065D01*
X129279864Y-70611025D01*
X129252825Y-70601511D01*
X129218276Y-70599508D01*
X128988948Y-70598507D01*
X128941381Y-70607520D01*
X128913340Y-70634058D01*
X128901824Y-70661597D01*
X128896817Y-70689637D01*
X128859764Y-70974043D01*
X128872282Y-71003085D01*
X128916845Y-71033128D01*
X128981938Y-71053156D01*
X129038019Y-71029122D01*
X129077074Y-71015102D01*
X129121137Y-71031626D01*
X129139163Y-71073185D01*
X129122139Y-71115245D01*
X129074070Y-71130266D01*
X129015987Y-71114244D01*
X128947890Y-71081196D01*
X128885801Y-71115245D01*
X128848748Y-71183342D01*
X128681509Y-71183342D01*
X128681509Y-71120252D01*
X128752611Y-71120252D01*
X128781152Y-71118750D01*
X128804185Y-71110238D01*
X128823712Y-71085202D01*
X128829721Y-71038135D01*
X128823212Y-70989565D01*
X128802682Y-70964029D01*
X128778147Y-70955517D01*
X128747604Y-70954015D01*
X128681509Y-70954015D01*
X128681509Y-70888922D01*
X128680007Y-70858378D01*
X128671495Y-70833843D01*
X128646459Y-70813314D01*
X128599392Y-70806804D01*
X128551323Y-70812813D01*
X128526288Y-70832842D01*
X128517775Y-70857377D01*
X128516273Y-70887920D01*
X128516273Y-70954015D01*
X128451180Y-70954015D01*
X128420136Y-70955517D01*
X128394599Y-70964029D01*
X128373569Y-70989065D01*
X128367060Y-71037133D01*
X128280603Y-71037133D01*
X128280603Y-70503037D01*
X128364056Y-70503037D01*
X130385944Y-70503037D01*
X130469397Y-70503037D01*
X130469397Y-73648197D01*
G37*
%TO.C,R29*%
D12*
X143930000Y-74248641D02*
X143930000Y-73941359D01*
X144690000Y-74248641D02*
X144690000Y-73941359D01*
%TO.C,C49*%
X143614998Y-77858453D02*
X143614998Y-77642781D01*
X144334998Y-77858453D02*
X144334998Y-77642781D01*
%TO.C,C1*%
X135190000Y-81667168D02*
X135190000Y-81882840D01*
X135910000Y-81667168D02*
X135910000Y-81882840D01*
%TO.C,R6*%
X131273636Y-83980004D02*
X130966354Y-83980004D01*
X131273636Y-84740004D02*
X130966354Y-84740004D01*
%TO.C,Q1*%
D16*
X126409995Y-79577505D02*
X127409995Y-79577505D01*
X126409995Y-81097505D02*
X126409995Y-79577505D01*
X126459995Y-81097505D02*
X126409995Y-81097505D01*
X128359995Y-81097505D02*
X127579995Y-81097505D01*
X128529995Y-79577505D02*
X129529995Y-79577505D01*
X129529995Y-79577505D02*
X129529995Y-81097505D01*
X129529995Y-81097505D02*
X129479995Y-81097505D01*
X127589995Y-81637505D02*
X127919995Y-81397505D01*
X127919995Y-81877505D01*
X127589995Y-81637505D01*
G36*
X127919995Y-81877505D02*
G01*
X127589995Y-81637505D01*
X127919995Y-81397505D01*
X127919995Y-81877505D01*
G37*
D13*
%TO.C,U20*%
G36*
X125053017Y-74532134D02*
G01*
X124672017Y-74786134D01*
X124672017Y-74278134D01*
X125053017Y-74532134D01*
G37*
%TO.C,C31*%
D12*
X129060000Y-59799417D02*
X129060000Y-60080579D01*
X130080000Y-59799417D02*
X130080000Y-60080579D01*
%TO.C,C36*%
X149527164Y-64540617D02*
X149742836Y-64540617D01*
X149527164Y-65260617D02*
X149742836Y-65260617D01*
%TO.C,C43*%
X135427831Y-83690004D02*
X135212159Y-83690004D01*
X135427831Y-84410004D02*
X135212159Y-84410004D01*
D13*
%TO.C,kibuzzard-6A40F422*%
G36*
X150283755Y-61186633D02*
G01*
X150300351Y-61234701D01*
X150279750Y-61274186D01*
X150223670Y-61288493D01*
X150175601Y-61273042D01*
X150157289Y-61232412D01*
X150174456Y-61186060D01*
X150229392Y-61171754D01*
X150283755Y-61186633D01*
G37*
G36*
X151370451Y-62070467D02*
G01*
X151432253Y-62112527D01*
X151474313Y-62174329D01*
X151488333Y-62247577D01*
X151474313Y-62320681D01*
X151432253Y-62382055D01*
X151370737Y-62423686D01*
X151298348Y-62437563D01*
X151205644Y-62437563D01*
X151205644Y-62056447D01*
X151297203Y-62056447D01*
X151370451Y-62070467D01*
G37*
G36*
X151814895Y-64473996D02*
G01*
X151719521Y-64473996D01*
X151595916Y-64473996D01*
X150572740Y-64473996D01*
X149793340Y-64473996D01*
X149390479Y-64473996D01*
X149295105Y-64473996D01*
X149295105Y-63630696D01*
X149407647Y-63630696D01*
X149419092Y-63710238D01*
X149690336Y-64306518D01*
X149729249Y-64349437D01*
X149793340Y-64363743D01*
X149852282Y-64348292D01*
X149891767Y-64306518D01*
X150163011Y-63710238D01*
X150173121Y-63649580D01*
X150224814Y-63649580D01*
X150231681Y-63701082D01*
X150253426Y-63727978D01*
X150279177Y-63737133D01*
X150311795Y-63738850D01*
X150470880Y-63738850D01*
X150470880Y-64261883D01*
X150472597Y-64300224D01*
X150482897Y-64331125D01*
X150513798Y-64356876D01*
X150572740Y-64364887D01*
X150632253Y-64356876D01*
X150664299Y-64331697D01*
X150675172Y-64301368D01*
X150676888Y-64263028D01*
X150676888Y-63738850D01*
X150834828Y-63738850D01*
X150867446Y-63737133D01*
X150893770Y-63727978D01*
X150916087Y-63701082D01*
X150920925Y-63665603D01*
X150949850Y-63665603D01*
X150988190Y-63738850D01*
X151194199Y-63964315D01*
X150989335Y-64189780D01*
X150949850Y-64263600D01*
X150995057Y-64336275D01*
X151072883Y-64376905D01*
X151142697Y-64329408D01*
X151334971Y-64118822D01*
X151526102Y-64329408D01*
X151595916Y-64376905D01*
X151673741Y-64336275D01*
X151718948Y-64263600D01*
X151679464Y-64189780D01*
X151474599Y-63964315D01*
X151680608Y-63738850D01*
X151719521Y-63665603D01*
X151674886Y-63591211D01*
X151597060Y-63550581D01*
X151527246Y-63598078D01*
X151334971Y-63809809D01*
X151191910Y-63653203D01*
X151141552Y-63598078D01*
X151071738Y-63550581D01*
X150993913Y-63591211D01*
X150949850Y-63665603D01*
X150920925Y-63665603D01*
X150922954Y-63650724D01*
X150916087Y-63600367D01*
X150894342Y-63573471D01*
X150868591Y-63564315D01*
X150835973Y-63562598D01*
X150762725Y-63562598D01*
X150312940Y-63562598D01*
X150280322Y-63564315D01*
X150253999Y-63573471D01*
X150231681Y-63599794D01*
X150224814Y-63649580D01*
X150173121Y-63649580D01*
X150176173Y-63631268D01*
X150110365Y-63576332D01*
X150025672Y-63559737D01*
X149971881Y-63624401D01*
X149791052Y-64069608D01*
X149739549Y-63942809D01*
X149610222Y-63624401D01*
X149557575Y-63559165D01*
X149471738Y-63576332D01*
X149407647Y-63630696D01*
X149295105Y-63630696D01*
X149295105Y-62791211D01*
X149391624Y-62791211D01*
X149398491Y-62842713D01*
X149420236Y-62869608D01*
X149445987Y-62878764D01*
X149478605Y-62880481D01*
X149637690Y-62880481D01*
X149637690Y-63403514D01*
X149639406Y-63441854D01*
X149649707Y-63472756D01*
X149680608Y-63498507D01*
X149739549Y-63506518D01*
X149799063Y-63498507D01*
X149831109Y-63473328D01*
X149841981Y-63442999D01*
X149843698Y-63404658D01*
X149843698Y-62880481D01*
X150001638Y-62880481D01*
X150034256Y-62878764D01*
X150060579Y-62869608D01*
X150082897Y-62842713D01*
X150087735Y-62807234D01*
X150116660Y-62807234D01*
X150155000Y-62880481D01*
X150361009Y-63105946D01*
X150156144Y-63331411D01*
X150116660Y-63405231D01*
X150161867Y-63477906D01*
X150239692Y-63518535D01*
X150309506Y-63471039D01*
X150501781Y-63260452D01*
X150692911Y-63471039D01*
X150762725Y-63518535D01*
X150840551Y-63477906D01*
X150885758Y-63405231D01*
X150846273Y-63331411D01*
X150641409Y-63105946D01*
X150787811Y-62945717D01*
X150903498Y-62945717D01*
X150938977Y-63021254D01*
X151007074Y-63061311D01*
X151077461Y-63028121D01*
X151088906Y-63017820D01*
X151088906Y-63404658D01*
X151111795Y-63485917D01*
X151191910Y-63508807D01*
X151273169Y-63485917D01*
X151296059Y-63405803D01*
X151296059Y-62810667D01*
X151273169Y-62728836D01*
X151193054Y-62705374D01*
X151115229Y-62724830D01*
X151100351Y-62736919D01*
X151096917Y-62739709D01*
X150951567Y-62870181D01*
X150950422Y-62871456D01*
X150916660Y-62909093D01*
X150903498Y-62945717D01*
X150787811Y-62945717D01*
X150847418Y-62880481D01*
X150886330Y-62807234D01*
X150841695Y-62732842D01*
X150763870Y-62692212D01*
X150694056Y-62739709D01*
X150501781Y-62951440D01*
X150332396Y-62766018D01*
X150308362Y-62739709D01*
X150238548Y-62692212D01*
X150160722Y-62732842D01*
X150116660Y-62807234D01*
X150087735Y-62807234D01*
X150089764Y-62792355D01*
X150082897Y-62741998D01*
X150061152Y-62715102D01*
X150035401Y-62705946D01*
X150002783Y-62704229D01*
X149817375Y-62704229D01*
X149479750Y-62704229D01*
X149447132Y-62705946D01*
X149420808Y-62715102D01*
X149398491Y-62741425D01*
X149391624Y-62791211D01*
X149295105Y-62791211D01*
X149295105Y-62236132D01*
X149414514Y-62236132D01*
X149421953Y-62320038D01*
X149444270Y-62397792D01*
X149481466Y-62469394D01*
X149533541Y-62534844D01*
X149595916Y-62589422D01*
X149664013Y-62628407D01*
X149737833Y-62651797D01*
X149817375Y-62659594D01*
X149905119Y-62654635D01*
X149980656Y-62639756D01*
X150043984Y-62614959D01*
X150086044Y-62588493D01*
X150118376Y-62557162D01*
X150145844Y-62491354D01*
X150145844Y-62256733D01*
X150145272Y-62228121D01*
X150140122Y-62202942D01*
X150126388Y-62180052D01*
X150099492Y-62165174D01*
X150055429Y-62157162D01*
X149855143Y-62157162D01*
X149824242Y-62158879D01*
X149799063Y-62168035D01*
X149777890Y-62194930D01*
X149771595Y-62245288D01*
X149777318Y-62296790D01*
X149796774Y-62323686D01*
X149820808Y-62332842D01*
X149851710Y-62334558D01*
X149936402Y-62334558D01*
X149936402Y-62432985D01*
X149887761Y-62444143D01*
X149821953Y-62447863D01*
X149747847Y-62432126D01*
X149683469Y-62384916D01*
X149638834Y-62316819D01*
X149623956Y-62238421D01*
X149638262Y-62162455D01*
X149681180Y-62099365D01*
X149744413Y-62056876D01*
X149819664Y-62042713D01*
X149890336Y-62050724D01*
X149948991Y-62074759D01*
X150010794Y-62101082D01*
X150053140Y-62085917D01*
X150095486Y-62040424D01*
X150121810Y-61976332D01*
X150112812Y-61948864D01*
X150229392Y-61948864D01*
X150229392Y-62542856D01*
X150231681Y-62582913D01*
X150242554Y-62614387D01*
X150273455Y-62640138D01*
X150332396Y-62648149D01*
X150393054Y-62640138D01*
X150425100Y-62614387D01*
X150435973Y-62583485D01*
X150437690Y-62544000D01*
X150437690Y-62225832D01*
X150734113Y-62617248D01*
X150767876Y-62641854D01*
X150826817Y-62648149D01*
X150887475Y-62640138D01*
X150919521Y-62614387D01*
X150930393Y-62583485D01*
X150932110Y-62544000D01*
X150932110Y-61953442D01*
X150931961Y-61950009D01*
X150996202Y-61950009D01*
X150996202Y-62541711D01*
X150999063Y-62582341D01*
X151011080Y-62614387D01*
X151042554Y-62638993D01*
X151100351Y-62647005D01*
X151294914Y-62647005D01*
X151375386Y-62639601D01*
X151449707Y-62617391D01*
X151517876Y-62580374D01*
X151579893Y-62528550D01*
X151631466Y-62466282D01*
X151668305Y-62397935D01*
X151690408Y-62323507D01*
X151697775Y-62242999D01*
X151690408Y-62164601D01*
X151668305Y-62091926D01*
X151631466Y-62024973D01*
X151579893Y-61963743D01*
X151518090Y-61912670D01*
X151450565Y-61876189D01*
X151377318Y-61854301D01*
X151298348Y-61847005D01*
X151101495Y-61847005D01*
X151040837Y-61854444D01*
X151008791Y-61880195D01*
X150997918Y-61911669D01*
X150996202Y-61950009D01*
X150931961Y-61950009D01*
X150930393Y-61913957D01*
X150919521Y-61882484D01*
X150887475Y-61856161D01*
X150827961Y-61848149D01*
X150768448Y-61856161D01*
X150736402Y-61880767D01*
X150724957Y-61911096D01*
X150722668Y-61948864D01*
X150722668Y-62277334D01*
X150436545Y-61892784D01*
X150415944Y-61869322D01*
X150386760Y-61855016D01*
X150334685Y-61848149D01*
X150274599Y-61855588D01*
X150243126Y-61880195D01*
X150231681Y-61910524D01*
X150229392Y-61948864D01*
X150112812Y-61948864D01*
X150110937Y-61943142D01*
X150089764Y-61919108D01*
X150069163Y-61904393D01*
X150057718Y-61896218D01*
X150008648Y-61869751D01*
X149948419Y-61849866D01*
X149884757Y-61837420D01*
X149825386Y-61833271D01*
X149743734Y-61840674D01*
X149668162Y-61862885D01*
X149654857Y-61869972D01*
X149598670Y-61899902D01*
X149535258Y-61951726D01*
X149482432Y-62013922D01*
X149444700Y-62082055D01*
X149422060Y-62156125D01*
X149414514Y-62236132D01*
X149295105Y-62236132D01*
X149295105Y-61487634D01*
X149390479Y-61487634D01*
X149397346Y-61542570D01*
X149419664Y-61571182D01*
X149445987Y-61580910D01*
X149478605Y-61582627D01*
X149561009Y-61582627D01*
X149561009Y-61657019D01*
X149562725Y-61691926D01*
X149572454Y-61720538D01*
X149601066Y-61744573D01*
X149654857Y-61752012D01*
X149709793Y-61744573D01*
X149738405Y-61721111D01*
X149748133Y-61693071D01*
X149749850Y-61658163D01*
X149749850Y-61582627D01*
X149831109Y-61582627D01*
X149863727Y-61580910D01*
X149890050Y-61571182D01*
X149912368Y-61542570D01*
X149919235Y-61488779D01*
X149911795Y-61433271D01*
X149888333Y-61404086D01*
X149860293Y-61394358D01*
X149825386Y-61392641D01*
X149749850Y-61392641D01*
X149749850Y-61318249D01*
X149748133Y-61283342D01*
X149738405Y-61255302D01*
X149718865Y-61239279D01*
X149951280Y-61239279D01*
X149960118Y-61299937D01*
X149986632Y-61355255D01*
X150030823Y-61405231D01*
X150086839Y-61444652D01*
X150148832Y-61468305D01*
X150216803Y-61476189D01*
X150277461Y-61465889D01*
X150230409Y-61530108D01*
X150164029Y-61568639D01*
X150078319Y-61581483D01*
X150038262Y-61583199D01*
X150006216Y-61594072D01*
X149979893Y-61626118D01*
X149971881Y-61685631D01*
X149979320Y-61745145D01*
X150003355Y-61777191D01*
X150033112Y-61788636D01*
X150069163Y-61790925D01*
X150146577Y-61785568D01*
X150217672Y-61769500D01*
X150282451Y-61742719D01*
X150340911Y-61705225D01*
X150393054Y-61657019D01*
X150437140Y-61600069D01*
X150471429Y-61536344D01*
X150495921Y-61465843D01*
X150510617Y-61388567D01*
X150515515Y-61304515D01*
X150506931Y-61209586D01*
X150481180Y-61129281D01*
X150438262Y-61063600D01*
X150428700Y-61055588D01*
X150564728Y-61055588D01*
X150576173Y-61135131D01*
X150847418Y-61731411D01*
X150886330Y-61774329D01*
X150950422Y-61788636D01*
X151009363Y-61773185D01*
X151048848Y-61731411D01*
X151320093Y-61135131D01*
X151333255Y-61056161D01*
X151267446Y-61001225D01*
X151182754Y-60984630D01*
X151128963Y-61049294D01*
X150948133Y-61494501D01*
X150767303Y-61049294D01*
X150714657Y-60984058D01*
X150628820Y-61001225D01*
X150564728Y-61055588D01*
X150428700Y-61055588D01*
X150380211Y-61014959D01*
X150309061Y-60985774D01*
X150224814Y-60976046D01*
X150151821Y-60984503D01*
X150086966Y-61009872D01*
X150030250Y-61052155D01*
X149986378Y-61106773D01*
X149960055Y-61169147D01*
X149951280Y-61239279D01*
X149718865Y-61239279D01*
X149709793Y-61231840D01*
X149656001Y-61224401D01*
X149601066Y-61231268D01*
X149572454Y-61254158D01*
X149562725Y-61282198D01*
X149561009Y-61317105D01*
X149561009Y-61392641D01*
X149486617Y-61392641D01*
X149451137Y-61394358D01*
X149421953Y-61404086D01*
X149397918Y-61432699D01*
X149390479Y-61487634D01*
X149295105Y-61487634D01*
X149295105Y-60877238D01*
X149390479Y-60877238D01*
X151719521Y-60877238D01*
X151814895Y-60877238D01*
X151814895Y-64473996D01*
G37*
%TO.C,kibuzzard-6A40F56A*%
G36*
X145958090Y-56386032D02*
G01*
X145988848Y-56460424D01*
X145955944Y-56539108D01*
X145887275Y-56564859D01*
X145729907Y-56564859D01*
X145729907Y-56355989D01*
X145884413Y-56355989D01*
X145958090Y-56386032D01*
G37*
G36*
X149577308Y-57232002D02*
G01*
X149458090Y-57232002D01*
X149127618Y-57232002D01*
X148319320Y-57232002D01*
X147156230Y-57232002D01*
X146096144Y-57232002D01*
X144910165Y-57232002D01*
X143543927Y-57232002D01*
X142651223Y-57232002D01*
X141739921Y-57232002D01*
X141131910Y-57232002D01*
X141012692Y-57232002D01*
X141012692Y-56682169D01*
X141131910Y-56682169D01*
X141134056Y-56731525D01*
X141147647Y-56770867D01*
X141187704Y-56803772D01*
X141262096Y-56813786D01*
X141609735Y-56813786D01*
X141609735Y-56962570D01*
X141611881Y-57011926D01*
X141625472Y-57051268D01*
X141665529Y-57084172D01*
X141739921Y-57094186D01*
X141815744Y-57084172D01*
X141855801Y-57052699D01*
X141870107Y-57013357D01*
X141872969Y-56964000D01*
X141872969Y-56792327D01*
X142269249Y-56792327D01*
X142281966Y-56873792D01*
X142320115Y-56948423D01*
X142383698Y-57016218D01*
X142464289Y-57069866D01*
X142553464Y-57102055D01*
X142651223Y-57112784D01*
X142756373Y-57102055D01*
X142848648Y-57069866D01*
X142928047Y-57016218D01*
X142988848Y-56946197D01*
X143025329Y-56864891D01*
X143037489Y-56772298D01*
X143027833Y-56703628D01*
X142998863Y-56646404D01*
X142918748Y-56569151D01*
X142992783Y-56497978D01*
X143003985Y-56450410D01*
X143413741Y-56450410D01*
X143415887Y-56499766D01*
X143429478Y-56539108D01*
X143469535Y-56572012D01*
X143543927Y-56582026D01*
X143619750Y-56572727D01*
X143659807Y-56542684D01*
X143673398Y-56506204D01*
X143675544Y-56460424D01*
X143703441Y-56371368D01*
X143787132Y-56341683D01*
X143859378Y-56360996D01*
X143890851Y-56398192D01*
X143895858Y-56436103D01*
X143883162Y-56491182D01*
X143845072Y-56544830D01*
X143790529Y-56593471D01*
X143728476Y-56633528D01*
X143659449Y-56673764D01*
X143583984Y-56722942D01*
X143514957Y-56775696D01*
X143465243Y-56826661D01*
X143426617Y-56892827D01*
X143413741Y-56965431D01*
X143452368Y-57059136D01*
X143543927Y-57098478D01*
X144060379Y-57098478D01*
X144109735Y-57095617D01*
X144150508Y-57081311D01*
X144183412Y-57041969D01*
X144193426Y-56968292D01*
X144183412Y-56892470D01*
X144151223Y-56852412D01*
X144112597Y-56838106D01*
X144063240Y-56835245D01*
X143884413Y-56835245D01*
X143970250Y-56784458D01*
X144057518Y-56709351D01*
X144098827Y-56658564D01*
X144131195Y-56597763D01*
X144152117Y-56529809D01*
X144159092Y-56457563D01*
X144151462Y-56394616D01*
X144549649Y-56394616D01*
X144593999Y-56489036D01*
X144679120Y-56539108D01*
X144767103Y-56497620D01*
X144781409Y-56484744D01*
X144781409Y-56968292D01*
X144810021Y-57069866D01*
X144910165Y-57098478D01*
X145011738Y-57069866D01*
X145040351Y-56969723D01*
X145040351Y-56225803D01*
X145039951Y-56224372D01*
X145468104Y-56224372D01*
X145468104Y-56962570D01*
X145470250Y-57011926D01*
X145483841Y-57051268D01*
X145523898Y-57084172D01*
X145598290Y-57094186D01*
X145674113Y-57084172D01*
X145714170Y-57051983D01*
X145727761Y-57013357D01*
X145729907Y-56964000D01*
X145729907Y-56825231D01*
X145862954Y-56825231D01*
X146016030Y-57032670D01*
X146096144Y-57099194D01*
X146197718Y-57059852D01*
X146266388Y-56975445D01*
X146227761Y-56876733D01*
X146124757Y-56739394D01*
X146194698Y-56661505D01*
X146227506Y-56589179D01*
X146638348Y-56589179D01*
X146647468Y-56693256D01*
X146674828Y-56788035D01*
X146716137Y-56870116D01*
X146767103Y-56936103D01*
X146826652Y-56989751D01*
X146893712Y-57034816D01*
X146963455Y-57069687D01*
X147031052Y-57092756D01*
X147095608Y-57105631D01*
X147156230Y-57109923D01*
X147248743Y-57101022D01*
X147337442Y-57074317D01*
X147422325Y-57029809D01*
X147480980Y-56986175D01*
X147501009Y-56933957D01*
X147469535Y-56850982D01*
X147418033Y-56789823D01*
X147369392Y-56769437D01*
X147297861Y-56798049D01*
X147225973Y-56833457D01*
X147150508Y-56845259D01*
X147041781Y-56822370D01*
X146990100Y-56790359D01*
X146943784Y-56740109D01*
X146932727Y-56717935D01*
X148797146Y-56717935D01*
X148805730Y-56786604D01*
X148833627Y-56822370D01*
X148866531Y-56834530D01*
X148907303Y-56836676D01*
X149010308Y-56836676D01*
X149010308Y-56929666D01*
X149012454Y-56973299D01*
X149024614Y-57009065D01*
X149060379Y-57039108D01*
X149127618Y-57048407D01*
X149196288Y-57039108D01*
X149232053Y-57009780D01*
X149244213Y-56974730D01*
X149246359Y-56931096D01*
X149246359Y-56836676D01*
X149347933Y-56836676D01*
X149388705Y-56834530D01*
X149421609Y-56822370D01*
X149449506Y-56786604D01*
X149458090Y-56719365D01*
X149448791Y-56649980D01*
X149419464Y-56613500D01*
X149384413Y-56601339D01*
X149340780Y-56599194D01*
X149246359Y-56599194D01*
X149246359Y-56506204D01*
X149244213Y-56462570D01*
X149232053Y-56427520D01*
X149196288Y-56398192D01*
X149129049Y-56388893D01*
X149060379Y-56397477D01*
X149024614Y-56426089D01*
X149012454Y-56461139D01*
X149010308Y-56504773D01*
X149010308Y-56599194D01*
X148917318Y-56599194D01*
X148872969Y-56601339D01*
X148836488Y-56613500D01*
X148806445Y-56649265D01*
X148797146Y-56717935D01*
X146932727Y-56717935D01*
X146911059Y-56674480D01*
X146900150Y-56596332D01*
X146906230Y-56535531D01*
X146914256Y-56511926D01*
X147875830Y-56511926D01*
X147882983Y-56577734D01*
X147914814Y-56614215D01*
X147978834Y-56626375D01*
X148319320Y-56626375D01*
X148390851Y-56613500D01*
X148415887Y-56578450D01*
X148423755Y-56513357D01*
X148415172Y-56447548D01*
X148384413Y-56412141D01*
X148320751Y-56400338D01*
X147980265Y-56400338D01*
X147911595Y-56413214D01*
X147884413Y-56447548D01*
X147875830Y-56511926D01*
X146914256Y-56511926D01*
X146924471Y-56481883D01*
X146988133Y-56403915D01*
X147068963Y-56361711D01*
X147150508Y-56347405D01*
X147184843Y-56348836D01*
X147213455Y-56353843D01*
X147236345Y-56359565D01*
X147255658Y-56366719D01*
X147269249Y-56374587D01*
X147281409Y-56382455D01*
X147290708Y-56388893D01*
X147367961Y-56421797D01*
X147417318Y-56402484D01*
X147470966Y-56344544D01*
X147502439Y-56264430D01*
X147488848Y-56221511D01*
X147462382Y-56191468D01*
X147423755Y-56164287D01*
X147333468Y-56119779D01*
X147245723Y-56093074D01*
X147160522Y-56084172D01*
X147097396Y-56088464D01*
X147031052Y-56101339D01*
X146962382Y-56124050D01*
X146892282Y-56157849D01*
X146825222Y-56201483D01*
X146765672Y-56253700D01*
X146714886Y-56317899D01*
X146674113Y-56397477D01*
X146647289Y-56489036D01*
X146638348Y-56589179D01*
X146227506Y-56589179D01*
X146236663Y-56568992D01*
X146250651Y-56461854D01*
X146241710Y-56376912D01*
X146214886Y-56299480D01*
X146173934Y-56233493D01*
X146122611Y-56182885D01*
X146065029Y-56144973D01*
X146005300Y-56117076D01*
X145945393Y-56099909D01*
X145887275Y-56094186D01*
X145599721Y-56094186D01*
X145523898Y-56104201D01*
X145483841Y-56137105D01*
X145470250Y-56176447D01*
X145468104Y-56224372D01*
X145039951Y-56224372D01*
X145011738Y-56123514D01*
X144911595Y-56094186D01*
X144814313Y-56118507D01*
X144791423Y-56137105D01*
X144609735Y-56300195D01*
X144566102Y-56348836D01*
X144549649Y-56394616D01*
X144151462Y-56394616D01*
X144147011Y-56357896D01*
X144110769Y-56268721D01*
X144050365Y-56190038D01*
X143972635Y-56128839D01*
X143884413Y-56092120D01*
X143785701Y-56079880D01*
X143682061Y-56092597D01*
X143592409Y-56130747D01*
X143516745Y-56194329D01*
X143459521Y-56273649D01*
X143425186Y-56359009D01*
X143413741Y-56450410D01*
X143003985Y-56450410D01*
X143017461Y-56393185D01*
X143006413Y-56316409D01*
X142973271Y-56244401D01*
X142918033Y-56177162D01*
X142844197Y-56123117D01*
X142755261Y-56090689D01*
X142651223Y-56079880D01*
X142571824Y-56086318D01*
X142506016Y-56103485D01*
X142453083Y-56128521D01*
X142410880Y-56157849D01*
X142379406Y-56188607D01*
X142356516Y-56217219D01*
X142342210Y-56240824D01*
X142334342Y-56256561D01*
X142332196Y-56261568D01*
X142311452Y-56360281D01*
X142382268Y-56438965D01*
X142458885Y-56464557D01*
X142518971Y-56447866D01*
X142562525Y-56388893D01*
X142604013Y-56345975D01*
X142665529Y-56331669D01*
X142730622Y-56349551D01*
X142754227Y-56398907D01*
X142733484Y-56435388D01*
X142666960Y-56444687D01*
X142656946Y-56444687D01*
X142611166Y-56446833D01*
X142574685Y-56458993D01*
X142544642Y-56496189D01*
X142535343Y-56567720D01*
X142543927Y-56630667D01*
X142561094Y-56667863D01*
X142593283Y-56685746D01*
X142626187Y-56692184D01*
X142665529Y-56692184D01*
X142748147Y-56712927D01*
X142775687Y-56775159D01*
X142742067Y-56834530D01*
X142652654Y-56856704D01*
X142601867Y-56848836D01*
X142567532Y-56831669D01*
X142546073Y-56810209D01*
X142535343Y-56793042D01*
X142532482Y-56785174D01*
X142490994Y-56717935D01*
X142412310Y-56702198D01*
X142305014Y-56724730D01*
X142269249Y-56792327D01*
X141872969Y-56792327D01*
X141872969Y-56224372D01*
X141870107Y-56175731D01*
X141856516Y-56135674D01*
X141817175Y-56102770D01*
X141742783Y-56092756D01*
X141666245Y-56102055D01*
X141625472Y-56132813D01*
X141611881Y-56170009D01*
X141609735Y-56217219D01*
X141609735Y-56567720D01*
X141422325Y-56567720D01*
X141511023Y-56202913D01*
X141490994Y-56139966D01*
X141408019Y-56098478D01*
X141300007Y-56097048D01*
X141246359Y-56191468D01*
X141136202Y-56636390D01*
X141131910Y-56682169D01*
X141012692Y-56682169D01*
X141012692Y-55959232D01*
X141131910Y-55959232D01*
X149458090Y-55959232D01*
X149577308Y-55959232D01*
X149577308Y-57232002D01*
G37*
%TO.C,U17*%
D12*
X144390000Y-80160000D02*
X144390000Y-79750000D01*
X144400000Y-76950000D02*
X144810000Y-76950000D01*
X144400000Y-77360000D02*
X144400000Y-76950000D01*
X144800000Y-80160000D02*
X144390000Y-80160000D01*
X147190000Y-76960000D02*
X147600000Y-76960000D01*
X147600000Y-76960000D02*
X147600000Y-77370000D01*
X147600000Y-79760000D02*
X147600000Y-80170000D01*
X147600000Y-80170000D02*
X147190000Y-80170000D01*
X144300000Y-77760000D02*
G75*
G02*
X144299975Y-77757571I-120000J-20D01*
G01*
X144530000Y-77060000D02*
G75*
G02*
X144470000Y-77060000I-30000J0D01*
G01*
X144470000Y-77060000D02*
G75*
G02*
X144530000Y-77060000I30000J0D01*
G01*
%TO.C,U16*%
X144770000Y-73260000D02*
X144770000Y-75460000D01*
X144829999Y-73260000D02*
X144770000Y-73260000D01*
X144829999Y-75460000D02*
X144770000Y-75460000D01*
X147570000Y-73260000D02*
X147510001Y-73260000D01*
X147570000Y-73260000D02*
X147570000Y-75460000D01*
X147570000Y-75460000D02*
X147510001Y-75460000D01*
X147270000Y-75660000D02*
G75*
G02*
X147070000Y-75660000I-100000J0D01*
G01*
X147070000Y-75660000D02*
G75*
G02*
X147270000Y-75660000I100000J0D01*
G01*
X147450000Y-75360000D02*
G75*
G02*
X147390000Y-75360000I-30000J0D01*
G01*
X147390000Y-75360000D02*
G75*
G02*
X147450000Y-75360000I30000J0D01*
G01*
%TO.C,C26*%
X137262836Y-54020004D02*
X137047164Y-54020004D01*
X137262836Y-54740004D02*
X137047164Y-54740004D01*
%TO.C,C32*%
X139282499Y-59030581D02*
X139282499Y-58749419D01*
X140302499Y-59030581D02*
X140302499Y-58749419D01*
%TO.C,R25*%
X142889995Y-73996363D02*
X142889995Y-74303645D01*
X143649995Y-73996363D02*
X143649995Y-74303645D01*
%TO.C,D2*%
X156952500Y-56200617D02*
X151442500Y-56200617D01*
X156952500Y-59500617D02*
X151442500Y-59500617D01*
X156952500Y-59500617D02*
X156952500Y-56200617D01*
%TO.C,USB1*%
X119797500Y-56790000D02*
X119797500Y-65730000D01*
X119797500Y-56790000D02*
X120587500Y-56790000D01*
X119797500Y-65730000D02*
X120587500Y-65730000D01*
X123217500Y-56790000D02*
X124787500Y-56790000D01*
X123217500Y-65730000D02*
X124787500Y-65730000D01*
%TO.C,Y2*%
D16*
X141195340Y-65861982D02*
X141195340Y-66571982D01*
X141805340Y-65861982D02*
X141195340Y-65861982D01*
%TD*%
M02*
