%TF.GenerationSoftware,KiCad,Pcbnew,10.0.3*%
%TF.CreationDate,2026-06-30T16:58:57+02:00*%
%TF.ProjectId,LEVIA_H7,4c455649-415f-4483-972e-6b696361645f,0.1*%
%TF.SameCoordinates,Original*%
%TF.FileFunction,Soldermask,Bot*%
%TF.FilePolarity,Negative*%
%FSLAX46Y46*%
G04 Gerber Fmt 4.6, Leading zero omitted, Abs format (unit mm)*
G04 Created by KiCad (PCBNEW 10.0.3) date 2026-06-30 16:58:57*
%MOMM*%
%LPD*%
G01*
G04 APERTURE LIST*
G04 Aperture macros list*
%AMRoundRect*
0 Rectangle with rounded corners*
0 $1 Rounding radius*
0 $2 $3 $4 $5 $6 $7 $8 $9 X,Y pos of 4 corners*
0 Add a 4 corners polygon primitive as box body*
4,1,4,$2,$3,$4,$5,$6,$7,$8,$9,$2,$3,0*
0 Add four circle primitives for the rounded corners*
1,1,$1+$1,$2,$3*
1,1,$1+$1,$4,$5*
1,1,$1+$1,$6,$7*
1,1,$1+$1,$8,$9*
0 Add four rect primitives between the rounded corners*
20,1,$1+$1,$2,$3,$4,$5,0*
20,1,$1+$1,$4,$5,$6,$7,0*
20,1,$1+$1,$6,$7,$8,$9,0*
20,1,$1+$1,$8,$9,$2,$3,0*%
%AMFreePoly0*
4,1,17,0.415339,0.330376,0.429984,0.295021,0.429984,-0.294996,0.415339,-0.330351,0.379984,-0.344996,-0.030023,-0.344996,-0.065378,-0.330351,-0.080023,-0.294996,-0.080023,0.005016,-0.380035,0.005016,-0.415390,0.019661,-0.430035,0.055016,-0.430035,0.295021,-0.415390,0.330376,-0.380035,0.345021,0.379984,0.345021,0.415339,0.330376,0.415339,0.330376,$1*%
%AMFreePoly1*
4,1,17,0.415237,0.330427,0.429882,0.295072,0.429882,-0.294970,0.415237,-0.330325,0.379882,-0.344970,-0.380136,-0.344970,-0.415491,-0.330325,-0.430136,-0.294970,-0.430136,-0.054966,-0.415491,-0.019611,-0.380136,-0.004966,-0.080124,-0.004966,-0.080124,0.295072,-0.065479,0.330427,-0.030124,0.345072,0.379882,0.345072,0.415237,0.330427,0.415237,0.330427,$1*%
%AMFreePoly2*
4,1,17,0.065276,0.330452,0.079921,0.295097,0.079921,-0.004915,0.379959,-0.004915,0.415314,-0.019560,0.429959,-0.054915,0.429959,-0.294919,0.415314,-0.330274,0.379959,-0.344919,-0.380086,-0.344919,-0.415441,-0.330274,-0.430086,-0.294919,-0.430086,0.295097,-0.415441,0.330452,-0.380086,0.345097,0.029921,0.345097,0.065276,0.330452,0.065276,0.330452,$1*%
%AMFreePoly3*
4,1,17,0.415339,0.330351,0.429984,0.294996,0.429984,0.054991,0.415339,0.019636,0.379984,0.004991,0.079972,0.004991,0.079972,-0.295021,0.065327,-0.330376,0.029972,-0.345021,-0.380035,-0.345021,-0.415390,-0.330376,-0.430035,-0.295021,-0.430035,0.294996,-0.415390,0.330351,-0.380035,0.344996,0.379984,0.344996,0.415339,0.330351,0.415339,0.330351,$1*%
%AMFreePoly4*
4,1,17,0.240384,0.280440,0.255029,0.245085,0.255029,-0.244932,0.240384,-0.280287,0.205029,-0.294932,-0.054991,-0.294932,-0.090346,-0.280287,-0.104991,-0.244932,-0.104991,-0.154927,-0.204978,-0.154927,-0.240333,-0.140282,-0.254978,-0.104927,-0.254978,0.245085,-0.240333,0.280440,-0.204978,0.295085,0.205029,0.295085,0.240384,0.280440,0.240384,0.280440,$1*%
%AMFreePoly5*
4,1,27,-0.004650,0.260425,0.060691,0.195085,0.999998,0.195085,1.035353,0.180440,1.049998,0.145085,1.049998,-0.144932,1.035353,-0.180287,0.999998,-0.194932,0.060715,-0.194932,0.055370,-0.200277,0.055327,-0.200294,-0.004650,-0.260272,-0.040005,-0.274917,-0.870001,-0.274917,-0.905356,-0.260272,-0.910701,-0.254927,-0.999998,-0.254927,-1.035353,-0.240282,-1.049998,-0.204927,-1.049998,0.195072,
-1.035353,0.230427,-0.999998,0.245072,-0.916662,0.245072,-0.889989,0.265072,-0.859993,0.275069,-0.040005,0.275069,-0.004650,0.260425,-0.004650,0.260425,$1*%
%AMFreePoly6*
4,1,17,0.235456,0.285342,0.250101,0.249987,0.250101,-0.250012,0.235456,-0.285367,0.200101,-0.300012,-0.199898,-0.300012,-0.235253,-0.285367,-0.249898,-0.250012,-0.249898,0.089992,-0.235253,0.125347,-0.199898,0.139992,-0.099911,0.139992,-0.099911,0.249987,-0.085266,0.285342,-0.049911,0.299987,0.200101,0.299987,0.235456,0.285342,0.235456,0.285342,$1*%
%AMFreePoly7*
4,1,13,0.155446,0.265276,0.170091,0.229921,0.170091,-0.230073,0.155446,-0.265428,0.120091,-0.280073,-0.119913,-0.280073,-0.155268,-0.265428,-0.169913,-0.230073,-0.169888,0.229924,-0.155241,0.265278,-0.119888,0.279921,0.120091,0.279921,0.155446,0.265276,0.155446,0.265276,$1*%
%AMFreePoly8*
4,1,17,0.110387,0.210412,0.125032,0.175057,0.125032,0.065062,0.225044,0.065062,0.260399,0.050417,0.275044,0.015062,0.275044,-0.174930,0.260399,-0.210285,0.225044,-0.224930,-0.224968,-0.224930,-0.260323,-0.210285,-0.274968,-0.174930,-0.274968,0.175057,-0.260323,0.210412,-0.224968,0.225057,0.075032,0.225057,0.110387,0.210412,0.110387,0.210412,$1*%
%AMFreePoly9*
4,1,13,0.260399,0.155421,0.275044,0.120066,0.275044,-0.119913,0.260399,-0.155268,0.225044,-0.169913,-0.224968,-0.169913,-0.260323,-0.155268,-0.274968,-0.119913,-0.274968,0.120066,-0.260323,0.155421,-0.224968,0.170066,0.225044,0.170066,0.260399,0.155421,0.260399,0.155421,$1*%
%AMFreePoly10*
4,1,13,0.260399,0.155446,0.275044,0.120091,0.275019,-0.119918,0.260371,-0.155272,0.225019,-0.169913,-0.224942,-0.169913,-0.260297,-0.155268,-0.274942,-0.119918,-0.274968,0.120086,-0.260327,0.155443,-0.224973,0.170091,0.225044,0.170091,0.260399,0.155446,0.260399,0.155446,$1*%
%AMFreePoly11*
4,1,17,0.260374,0.205357,0.275019,0.170008,0.275044,-0.029991,0.260404,-0.065348,0.225050,-0.079997,0.125032,-0.079997,0.125032,-0.170002,0.110387,-0.205357,0.075032,-0.220002,-0.224968,-0.220002,-0.260323,-0.205357,-0.274968,-0.170002,-0.274942,0.170006,-0.260295,0.205360,-0.224942,0.220002,0.225019,0.220002,0.260374,0.205357,0.260374,0.205357,$1*%
%AMFreePoly12*
4,1,13,0.160272,0.260501,0.174917,0.225146,0.174917,-0.224866,0.160272,-0.260221,0.124917,-0.274866,-0.125070,-0.274866,-0.160425,-0.260221,-0.175070,-0.224869,-0.175095,0.225143,-0.160452,0.260499,-0.125098,0.275146,0.124917,0.275146,0.160272,0.260501,0.160272,0.260501,$1*%
G04 Aperture macros list end*
%ADD10C,0.100000*%
%ADD11C,0.400000*%
%ADD12RoundRect,0.225000X0.225000X0.675000X-0.225000X0.675000X-0.225000X-0.675000X0.225000X-0.675000X0*%
%ADD13RoundRect,0.075000X0.175000X-0.075000X0.175000X0.075000X-0.175000X0.075000X-0.175000X-0.075000X0*%
%ADD14O,1.800000X1.000000*%
%ADD15O,2.200000X1.000000*%
%ADD16RoundRect,0.125000X0.675000X-0.125000X0.675000X0.125000X-0.675000X0.125000X-0.675000X-0.125000X0*%
%ADD17RoundRect,0.250000X0.950000X-0.300000X0.950000X0.300000X-0.950000X0.300000X-0.950000X-0.300000X0*%
%ADD18RoundRect,0.135000X0.185000X-0.135000X0.185000X0.135000X-0.185000X0.135000X-0.185000X-0.135000X0*%
%ADD19RoundRect,0.140000X-0.140000X-0.170000X0.140000X-0.170000X0.140000X0.170000X-0.140000X0.170000X0*%
%ADD20RoundRect,0.140000X-0.170000X0.140000X-0.170000X-0.140000X0.170000X-0.140000X0.170000X0.140000X0*%
%ADD21RoundRect,0.135000X-0.185000X0.135000X-0.185000X-0.135000X0.185000X-0.135000X0.185000X0.135000X0*%
%ADD22RoundRect,0.250000X0.475000X-0.250000X0.475000X0.250000X-0.475000X0.250000X-0.475000X-0.250000X0*%
%ADD23RoundRect,0.140000X0.140000X0.170000X-0.140000X0.170000X-0.140000X-0.170000X0.140000X-0.170000X0*%
%ADD24RoundRect,0.250000X-0.475000X0.250000X-0.475000X-0.250000X0.475000X-0.250000X0.475000X0.250000X0*%
%ADD25RoundRect,0.225000X0.225000X0.250000X-0.225000X0.250000X-0.225000X-0.250000X0.225000X-0.250000X0*%
%ADD26RoundRect,0.135000X0.135000X0.185000X-0.135000X0.185000X-0.135000X-0.185000X0.135000X-0.185000X0*%
%ADD27RoundRect,0.147500X0.147500X0.172500X-0.147500X0.172500X-0.147500X-0.172500X0.147500X-0.172500X0*%
%ADD28FreePoly0,270.000000*%
%ADD29R,0.250000X0.600000*%
%ADD30FreePoly1,270.000000*%
%ADD31FreePoly2,270.000000*%
%ADD32FreePoly3,270.000000*%
%ADD33R,1.300000X0.350000*%
%ADD34RoundRect,0.245000X-1.455000X0.245000X-1.455000X-0.245000X1.455000X-0.245000X1.455000X0.245000X0*%
%ADD35RoundRect,0.250000X0.950000X-0.325000X0.950000X0.325000X-0.950000X0.325000X-0.950000X-0.325000X0*%
%ADD36FreePoly4,180.000000*%
%ADD37FreePoly5,180.000000*%
%ADD38FreePoly6,180.000000*%
%ADD39FreePoly7,180.000000*%
%ADD40FreePoly8,180.000000*%
%ADD41FreePoly9,180.000000*%
%ADD42FreePoly10,180.000000*%
%ADD43FreePoly11,180.000000*%
%ADD44FreePoly12,180.000000*%
%ADD45RoundRect,0.125000X0.125000X0.675000X-0.125000X0.675000X-0.125000X-0.675000X0.125000X-0.675000X0*%
%ADD46RoundRect,0.250000X0.325000X0.950000X-0.325000X0.950000X-0.325000X-0.950000X0.325000X-0.950000X0*%
%ADD47R,0.711000X0.356000*%
%ADD48R,1.600000X2.400000*%
%ADD49RoundRect,0.140000X-0.021213X0.219203X-0.219203X0.021213X0.021213X-0.219203X0.219203X-0.021213X0*%
%ADD50RoundRect,0.140000X0.170000X-0.140000X0.170000X0.140000X-0.170000X0.140000X-0.170000X-0.140000X0*%
%ADD51RoundRect,0.200000X-0.250000X-0.200000X0.250000X-0.200000X0.250000X0.200000X-0.250000X0.200000X0*%
%ADD52RoundRect,0.250000X0.300000X0.950000X-0.300000X0.950000X-0.300000X-0.950000X0.300000X-0.950000X0*%
G04 APERTURE END LIST*
D10*
X148486833Y-70366572D02*
X148550920Y-70366572D01*
X148519503Y-70204497D01*
X148518247Y-70204496D01*
X148486833Y-70366572D01*
G36*
X148519503Y-70204497D02*
G01*
X148550920Y-70366572D01*
X148486833Y-70366572D01*
X148518247Y-70204496D01*
X148519503Y-70204497D01*
G37*
X148743300Y-65848527D02*
X150594415Y-69085433D01*
X150603107Y-69101762D01*
X150608748Y-69112935D01*
X150610322Y-69116376D01*
X150610975Y-69118247D01*
X150595516Y-69120715D01*
X148624147Y-69132736D01*
X148207654Y-69853253D01*
X148207264Y-69854393D01*
X151882672Y-69863268D01*
X149585062Y-65842466D01*
X148743300Y-65848527D01*
G36*
X151882672Y-69863268D02*
G01*
X148207264Y-69854393D01*
X148207654Y-69853253D01*
X148624147Y-69132736D01*
X150595516Y-69120715D01*
X150610975Y-69118247D01*
X150610322Y-69116376D01*
X150608748Y-69112935D01*
X150603107Y-69101762D01*
X150594415Y-69085433D01*
X148743300Y-65848527D01*
X149585062Y-65842466D01*
X151882672Y-69863268D01*
G37*
X148678359Y-65884113D02*
X148677161Y-65884710D01*
X148675729Y-65885759D01*
X148674076Y-65887246D01*
X148672220Y-65889126D01*
X148670189Y-65891394D01*
X146342165Y-69887563D01*
X146754313Y-70594041D01*
X146756694Y-70596892D01*
X146758872Y-70599344D01*
X146760843Y-70601376D01*
X146762574Y-70602951D01*
X146763347Y-70603557D01*
X146764046Y-70604053D01*
X146764683Y-70604405D01*
X146765251Y-70604632D01*
X146765889Y-70604583D01*
X146766759Y-70604114D01*
X146769159Y-70602000D01*
X146772381Y-70598370D01*
X146776402Y-70593275D01*
X148671236Y-67361101D01*
X148674054Y-67358995D01*
X148675194Y-67358470D01*
X148676149Y-67358285D01*
X148676966Y-67358307D01*
X148677804Y-67358401D01*
X148679540Y-67358754D01*
X148680422Y-67359003D01*
X148681328Y-67359326D01*
X148685001Y-67361090D01*
X149667604Y-69068061D01*
X150488988Y-69063518D01*
X150496833Y-69062360D01*
X150501522Y-69061102D01*
X150502690Y-69060438D01*
X150503079Y-69059751D01*
X150500000Y-69050617D01*
X149274276Y-66904404D01*
X148690615Y-65895562D01*
X148687161Y-65891302D01*
X148684163Y-65887977D01*
X148682854Y-65886676D01*
X148681680Y-65885632D01*
X148680637Y-65884845D01*
X148679735Y-65884329D01*
X148678971Y-65884076D01*
X148678359Y-65884113D01*
G36*
X148679735Y-65884329D02*
G01*
X148680637Y-65884845D01*
X148681680Y-65885632D01*
X148682854Y-65886676D01*
X148684163Y-65887977D01*
X148687161Y-65891302D01*
X148690615Y-65895562D01*
X149274276Y-66904404D01*
X150500000Y-69050617D01*
X150503079Y-69059751D01*
X150502690Y-69060438D01*
X150501522Y-69061102D01*
X150496833Y-69062360D01*
X150488988Y-69063518D01*
X149667604Y-69068061D01*
X148685001Y-67361090D01*
X148681328Y-67359326D01*
X148680422Y-67359003D01*
X148679540Y-67358754D01*
X148677804Y-67358401D01*
X148676966Y-67358307D01*
X148676149Y-67358285D01*
X148675194Y-67358470D01*
X148674054Y-67358995D01*
X148671236Y-67361101D01*
X146776402Y-70593275D01*
X146772381Y-70598370D01*
X146769159Y-70602000D01*
X146766759Y-70604114D01*
X146765889Y-70604583D01*
X146765251Y-70604632D01*
X146764683Y-70604405D01*
X146764046Y-70604053D01*
X146763347Y-70603557D01*
X146762574Y-70602951D01*
X146760843Y-70601376D01*
X146758872Y-70599344D01*
X146756694Y-70596892D01*
X146754313Y-70594041D01*
X146342165Y-69887563D01*
X148670189Y-65891394D01*
X148672220Y-65889126D01*
X148674076Y-65887246D01*
X148675729Y-65885759D01*
X148677161Y-65884710D01*
X148678359Y-65884113D01*
X148678971Y-65884076D01*
X148679735Y-65884329D01*
G37*
X150679246Y-70136063D02*
X150675323Y-70136270D01*
X150671579Y-70136608D01*
X150668001Y-70137101D01*
X150664591Y-70137716D01*
X150661353Y-70138473D01*
X150658288Y-70139372D01*
X150656798Y-70139868D01*
X150655377Y-70140402D01*
X150653976Y-70140957D01*
X150652620Y-70141573D01*
X150651319Y-70142205D01*
X150650052Y-70142877D01*
X150648819Y-70143582D01*
X150647645Y-70144317D01*
X150646497Y-70145096D01*
X150645399Y-70145906D01*
X150644345Y-70146748D01*
X150643330Y-70147623D01*
X150642360Y-70148531D01*
X150641414Y-70149478D01*
X150640522Y-70150461D01*
X150639677Y-70151471D01*
X150638860Y-70152518D01*
X150638097Y-70153599D01*
X150637405Y-70154791D01*
X150636741Y-70156020D01*
X150636110Y-70157272D01*
X150635504Y-70158543D01*
X150634928Y-70159860D01*
X150634389Y-70161201D01*
X150633869Y-70162571D01*
X150633387Y-70163966D01*
X150632919Y-70165388D01*
X150632496Y-70166844D01*
X150632105Y-70168337D01*
X150631728Y-70169855D01*
X150631398Y-70171399D01*
X150631083Y-70172979D01*
X150630799Y-70174584D01*
X150630553Y-70176204D01*
X150630102Y-70179432D01*
X150629728Y-70182774D01*
X150629397Y-70186262D01*
X150629128Y-70189888D01*
X150628916Y-70193648D01*
X150628771Y-70197544D01*
X150628676Y-70201584D01*
X150628651Y-70205753D01*
X150628676Y-70209943D01*
X150628771Y-70214002D01*
X150628916Y-70217947D01*
X150629128Y-70221776D01*
X150629397Y-70225488D01*
X150629728Y-70229079D01*
X150630102Y-70232561D01*
X150630553Y-70235910D01*
X150630797Y-70237464D01*
X150631067Y-70238995D01*
X150631368Y-70240499D01*
X150631690Y-70241950D01*
X150632035Y-70243390D01*
X150632402Y-70244808D01*
X150632793Y-70246184D01*
X150633218Y-70247526D01*
X150633660Y-70248849D01*
X150634124Y-70250137D01*
X150634622Y-70251397D01*
X150635139Y-70252631D01*
X150635680Y-70253830D01*
X150636246Y-70255013D01*
X150636840Y-70256157D01*
X150637459Y-70257264D01*
X150638175Y-70258348D01*
X150638934Y-70259406D01*
X150639724Y-70260429D01*
X150640551Y-70261425D01*
X150641414Y-70262387D01*
X150642316Y-70263326D01*
X150643248Y-70264234D01*
X150644217Y-70265109D01*
X150645210Y-70265950D01*
X150646247Y-70266770D01*
X150647303Y-70267559D01*
X150648415Y-70268324D01*
X150649546Y-70269057D01*
X150650706Y-70269756D01*
X150651921Y-70270424D01*
X150653156Y-70271076D01*
X150654448Y-70271604D01*
X150655777Y-70272106D01*
X150657175Y-70272565D01*
X150658617Y-70272991D01*
X150660123Y-70273391D01*
X150661674Y-70273756D01*
X150663285Y-70274086D01*
X150664948Y-70274372D01*
X150666660Y-70274634D01*
X150668434Y-70274862D01*
X150672140Y-70275208D01*
X150676049Y-70275418D01*
X150680191Y-70275485D01*
X150716632Y-70275485D01*
X150716632Y-70135990D01*
X150683313Y-70135990D01*
X150679246Y-70136063D01*
G36*
X150716632Y-70275485D02*
G01*
X150680191Y-70275485D01*
X150676049Y-70275418D01*
X150672140Y-70275208D01*
X150668434Y-70274862D01*
X150666660Y-70274634D01*
X150664948Y-70274372D01*
X150663285Y-70274086D01*
X150661674Y-70273756D01*
X150660123Y-70273391D01*
X150658617Y-70272991D01*
X150657175Y-70272565D01*
X150655777Y-70272106D01*
X150654448Y-70271604D01*
X150653156Y-70271076D01*
X150651921Y-70270424D01*
X150650706Y-70269756D01*
X150649546Y-70269057D01*
X150648415Y-70268324D01*
X150647303Y-70267559D01*
X150646247Y-70266770D01*
X150645210Y-70265950D01*
X150644217Y-70265109D01*
X150643248Y-70264234D01*
X150642316Y-70263326D01*
X150641414Y-70262387D01*
X150640551Y-70261425D01*
X150639724Y-70260429D01*
X150638934Y-70259406D01*
X150638175Y-70258348D01*
X150637459Y-70257264D01*
X150636840Y-70256157D01*
X150636246Y-70255013D01*
X150635680Y-70253830D01*
X150635139Y-70252631D01*
X150634622Y-70251397D01*
X150634124Y-70250137D01*
X150633660Y-70248849D01*
X150633218Y-70247526D01*
X150632793Y-70246184D01*
X150632402Y-70244808D01*
X150632035Y-70243390D01*
X150631690Y-70241950D01*
X150631368Y-70240499D01*
X150631067Y-70238995D01*
X150630797Y-70237464D01*
X150630553Y-70235910D01*
X150630102Y-70232561D01*
X150629728Y-70229079D01*
X150629397Y-70225488D01*
X150629128Y-70221776D01*
X150628916Y-70217947D01*
X150628771Y-70214002D01*
X150628676Y-70209943D01*
X150628651Y-70205753D01*
X150628676Y-70201584D01*
X150628771Y-70197544D01*
X150628916Y-70193648D01*
X150629128Y-70189888D01*
X150629397Y-70186262D01*
X150629728Y-70182774D01*
X150630102Y-70179432D01*
X150630553Y-70176204D01*
X150630799Y-70174584D01*
X150631083Y-70172979D01*
X150631398Y-70171399D01*
X150631728Y-70169855D01*
X150632105Y-70168337D01*
X150632496Y-70166844D01*
X150632919Y-70165388D01*
X150633387Y-70163966D01*
X150633869Y-70162571D01*
X150634389Y-70161201D01*
X150634928Y-70159860D01*
X150635504Y-70158543D01*
X150636110Y-70157272D01*
X150636741Y-70156020D01*
X150637405Y-70154791D01*
X150638097Y-70153599D01*
X150638860Y-70152518D01*
X150639677Y-70151471D01*
X150640522Y-70150461D01*
X150641414Y-70149478D01*
X150642360Y-70148531D01*
X150643330Y-70147623D01*
X150644345Y-70146748D01*
X150645399Y-70145906D01*
X150646497Y-70145096D01*
X150647645Y-70144317D01*
X150648819Y-70143582D01*
X150650052Y-70142877D01*
X150651319Y-70142205D01*
X150652620Y-70141573D01*
X150653976Y-70140957D01*
X150655377Y-70140402D01*
X150656798Y-70139868D01*
X150658288Y-70139372D01*
X150661353Y-70138473D01*
X150664591Y-70137716D01*
X150668001Y-70137101D01*
X150671579Y-70136608D01*
X150675323Y-70136270D01*
X150679246Y-70136063D01*
X150683313Y-70135990D01*
X150716632Y-70135990D01*
X150716632Y-70275485D01*
G37*
X151297347Y-70136016D02*
X151295095Y-70136090D01*
X151292909Y-70136198D01*
X151290794Y-70136350D01*
X151288748Y-70136552D01*
X151286765Y-70136793D01*
X151284864Y-70137089D01*
X151283019Y-70137419D01*
X151281244Y-70137795D01*
X151279550Y-70138213D01*
X151277910Y-70138682D01*
X151276347Y-70139186D01*
X151274849Y-70139752D01*
X151273418Y-70140341D01*
X151272067Y-70140977D01*
X151270774Y-70141665D01*
X151269528Y-70142400D01*
X151268334Y-70143163D01*
X151267176Y-70143970D01*
X151266050Y-70144808D01*
X151264977Y-70145691D01*
X151263931Y-70146607D01*
X151262938Y-70147568D01*
X151261963Y-70148574D01*
X151261037Y-70149613D01*
X151260162Y-70150701D01*
X151259317Y-70151806D01*
X151258504Y-70152968D01*
X151257742Y-70154163D01*
X151257013Y-70155392D01*
X151256322Y-70156667D01*
X151255678Y-70157992D01*
X151255065Y-70159340D01*
X151254488Y-70160725D01*
X151253945Y-70162122D01*
X151253436Y-70163566D01*
X151252973Y-70165034D01*
X151252528Y-70166531D01*
X151252121Y-70168055D01*
X151251754Y-70169602D01*
X151251418Y-70171192D01*
X151251125Y-70172805D01*
X151250847Y-70174453D01*
X151250611Y-70176129D01*
X151250416Y-70177829D01*
X151250259Y-70179562D01*
X151250028Y-70183115D01*
X151249757Y-70190148D01*
X151249567Y-70197416D01*
X151249456Y-70204917D01*
X151249422Y-70212659D01*
X151249442Y-70216850D01*
X151249495Y-70220941D01*
X151249588Y-70224935D01*
X151249735Y-70228828D01*
X151249912Y-70232626D01*
X151250124Y-70236325D01*
X151250390Y-70239926D01*
X151250676Y-70243430D01*
X151250773Y-70245136D01*
X151250903Y-70246816D01*
X151251062Y-70248458D01*
X151251268Y-70250068D01*
X151251499Y-70251638D01*
X151251767Y-70253184D01*
X151252059Y-70254688D01*
X151252395Y-70256160D01*
X151252772Y-70257599D01*
X151253173Y-70258997D01*
X151253610Y-70260365D01*
X151254087Y-70261700D01*
X151254589Y-70262994D01*
X151255131Y-70264259D01*
X151255707Y-70265476D01*
X151256322Y-70266682D01*
X151256974Y-70267925D01*
X151257670Y-70269123D01*
X151258403Y-70270300D01*
X151259185Y-70271437D01*
X151260012Y-70272532D01*
X151260886Y-70273595D01*
X151261801Y-70274634D01*
X151262759Y-70275630D01*
X151263766Y-70276610D01*
X151264813Y-70277528D01*
X151265902Y-70278427D01*
X151267041Y-70279283D01*
X151268222Y-70280111D01*
X151269445Y-70280905D01*
X151270723Y-70281657D01*
X151272025Y-70282388D01*
X151273397Y-70283073D01*
X151274839Y-70283710D01*
X151276346Y-70284305D01*
X151277912Y-70284860D01*
X151279555Y-70285370D01*
X151281276Y-70285837D01*
X151283055Y-70286248D01*
X151284904Y-70286623D01*
X151286831Y-70286956D01*
X151288816Y-70287235D01*
X151290874Y-70287482D01*
X151292990Y-70287683D01*
X151295189Y-70287841D01*
X151297448Y-70287952D01*
X151302181Y-70288029D01*
X151332992Y-70288029D01*
X151332992Y-70135990D01*
X151299666Y-70135990D01*
X151297347Y-70136016D01*
G36*
X151332992Y-70288029D02*
G01*
X151302181Y-70288029D01*
X151297448Y-70287952D01*
X151295189Y-70287841D01*
X151292990Y-70287683D01*
X151290874Y-70287482D01*
X151288816Y-70287235D01*
X151286831Y-70286956D01*
X151284904Y-70286623D01*
X151283055Y-70286248D01*
X151281276Y-70285837D01*
X151279555Y-70285370D01*
X151277912Y-70284860D01*
X151276346Y-70284305D01*
X151274839Y-70283710D01*
X151273397Y-70283073D01*
X151272025Y-70282388D01*
X151270723Y-70281657D01*
X151269445Y-70280905D01*
X151268222Y-70280111D01*
X151267041Y-70279283D01*
X151265902Y-70278427D01*
X151264813Y-70277528D01*
X151263766Y-70276610D01*
X151262759Y-70275630D01*
X151261801Y-70274634D01*
X151260886Y-70273595D01*
X151260012Y-70272532D01*
X151259185Y-70271437D01*
X151258403Y-70270300D01*
X151257670Y-70269123D01*
X151256974Y-70267925D01*
X151256322Y-70266682D01*
X151255707Y-70265476D01*
X151255131Y-70264259D01*
X151254589Y-70262994D01*
X151254087Y-70261700D01*
X151253610Y-70260365D01*
X151253173Y-70258997D01*
X151252772Y-70257599D01*
X151252395Y-70256160D01*
X151252059Y-70254688D01*
X151251767Y-70253184D01*
X151251499Y-70251638D01*
X151251268Y-70250068D01*
X151251062Y-70248458D01*
X151250903Y-70246816D01*
X151250773Y-70245136D01*
X151250676Y-70243430D01*
X151250390Y-70239926D01*
X151250124Y-70236325D01*
X151249912Y-70232626D01*
X151249735Y-70228828D01*
X151249588Y-70224935D01*
X151249495Y-70220941D01*
X151249442Y-70216850D01*
X151249422Y-70212659D01*
X151249456Y-70204917D01*
X151249567Y-70197416D01*
X151249757Y-70190148D01*
X151250028Y-70183115D01*
X151250259Y-70179562D01*
X151250416Y-70177829D01*
X151250611Y-70176129D01*
X151250847Y-70174453D01*
X151251125Y-70172805D01*
X151251418Y-70171192D01*
X151251754Y-70169602D01*
X151252121Y-70168055D01*
X151252528Y-70166531D01*
X151252973Y-70165034D01*
X151253436Y-70163566D01*
X151253945Y-70162122D01*
X151254488Y-70160725D01*
X151255065Y-70159340D01*
X151255678Y-70157992D01*
X151256322Y-70156667D01*
X151257013Y-70155392D01*
X151257742Y-70154163D01*
X151258504Y-70152968D01*
X151259317Y-70151806D01*
X151260162Y-70150701D01*
X151261037Y-70149613D01*
X151261963Y-70148574D01*
X151262938Y-70147568D01*
X151263931Y-70146607D01*
X151264977Y-70145691D01*
X151266050Y-70144808D01*
X151267176Y-70143970D01*
X151268334Y-70143163D01*
X151269528Y-70142400D01*
X151270774Y-70141665D01*
X151272067Y-70140977D01*
X151273418Y-70140341D01*
X151274849Y-70139752D01*
X151276347Y-70139186D01*
X151277910Y-70138682D01*
X151279550Y-70138213D01*
X151281244Y-70137795D01*
X151283019Y-70137419D01*
X151284864Y-70137089D01*
X151286765Y-70136793D01*
X151288748Y-70136552D01*
X151290794Y-70136350D01*
X151292909Y-70136198D01*
X151295095Y-70136090D01*
X151297347Y-70136016D01*
X151299666Y-70135990D01*
X151332992Y-70135990D01*
X151332992Y-70288029D01*
G37*
X149010532Y-70136040D02*
X149008391Y-70136168D01*
X149006295Y-70136392D01*
X149004234Y-70136705D01*
X149002206Y-70137110D01*
X149000228Y-70137584D01*
X148998290Y-70138173D01*
X148996376Y-70138823D01*
X148994520Y-70139578D01*
X148992691Y-70140423D01*
X148990904Y-70141347D01*
X148989154Y-70142365D01*
X148987452Y-70143466D01*
X148985778Y-70144661D01*
X148984153Y-70145950D01*
X148982564Y-70147309D01*
X148980964Y-70148701D01*
X148979461Y-70150182D01*
X148978075Y-70151764D01*
X148976789Y-70153449D01*
X148975599Y-70155216D01*
X148974510Y-70157093D01*
X148973540Y-70159064D01*
X148972666Y-70161140D01*
X148971896Y-70163307D01*
X148971217Y-70165582D01*
X148970657Y-70167941D01*
X148970195Y-70170401D01*
X148969831Y-70172970D01*
X148969578Y-70175631D01*
X148969420Y-70178389D01*
X148969368Y-70181246D01*
X148969368Y-70417463D01*
X148969419Y-70420328D01*
X148969578Y-70423087D01*
X148969831Y-70425765D01*
X148970195Y-70428345D01*
X148970657Y-70430834D01*
X148971217Y-70433224D01*
X148971896Y-70435533D01*
X148972666Y-70437727D01*
X148973540Y-70439848D01*
X148974510Y-70441872D01*
X148975599Y-70443797D01*
X148976789Y-70445642D01*
X148978075Y-70447380D01*
X148979461Y-70449019D01*
X148980964Y-70450573D01*
X148982564Y-70452045D01*
X148984156Y-70453329D01*
X148985778Y-70454543D01*
X148987452Y-70455669D01*
X148989154Y-70456717D01*
X148990904Y-70457666D01*
X148992693Y-70458541D01*
X148994520Y-70459340D01*
X148996376Y-70460038D01*
X148998290Y-70460674D01*
X149000228Y-70461220D01*
X149002208Y-70461671D01*
X149004234Y-70462046D01*
X149006295Y-70462340D01*
X149008391Y-70462544D01*
X149010533Y-70462675D01*
X149012715Y-70462714D01*
X149014900Y-70462675D01*
X149017046Y-70462544D01*
X149019162Y-70462340D01*
X149021241Y-70462046D01*
X149023283Y-70461671D01*
X149025297Y-70461220D01*
X149027275Y-70460674D01*
X149029213Y-70460038D01*
X149031125Y-70459340D01*
X149033003Y-70458541D01*
X149034835Y-70457666D01*
X149036643Y-70456717D01*
X149038416Y-70455669D01*
X149040151Y-70454543D01*
X149041847Y-70453328D01*
X149043516Y-70452045D01*
X149045038Y-70450573D01*
X149046462Y-70449019D01*
X149047785Y-70447379D01*
X149049010Y-70445640D01*
X149050135Y-70443797D01*
X149051171Y-70441872D01*
X149052099Y-70439848D01*
X149052930Y-70437727D01*
X149053666Y-70435533D01*
X149054301Y-70433224D01*
X149054842Y-70430834D01*
X149055284Y-70428345D01*
X149055624Y-70425765D01*
X149055871Y-70423087D01*
X149056013Y-70420328D01*
X149056067Y-70417463D01*
X149056067Y-70181244D01*
X149056013Y-70178389D01*
X149055871Y-70175631D01*
X149055624Y-70172970D01*
X149055284Y-70170401D01*
X149054842Y-70167941D01*
X149054303Y-70165582D01*
X149053671Y-70163307D01*
X149052930Y-70161140D01*
X149052099Y-70159064D01*
X149051171Y-70157093D01*
X149050135Y-70155216D01*
X149049010Y-70153449D01*
X149047785Y-70151764D01*
X149046462Y-70150182D01*
X149045038Y-70148701D01*
X149043516Y-70147309D01*
X149041847Y-70145950D01*
X149040151Y-70144661D01*
X149038415Y-70143466D01*
X149036643Y-70142365D01*
X149034835Y-70141347D01*
X149033003Y-70140423D01*
X149031125Y-70139578D01*
X149029213Y-70138823D01*
X149027275Y-70138173D01*
X149025297Y-70137584D01*
X149023283Y-70137110D01*
X149021241Y-70136705D01*
X149019162Y-70136392D01*
X149017046Y-70136168D01*
X149014900Y-70136040D01*
X149012715Y-70135990D01*
X149010532Y-70136040D01*
G36*
X149014900Y-70136040D02*
G01*
X149017046Y-70136168D01*
X149019162Y-70136392D01*
X149021241Y-70136705D01*
X149023283Y-70137110D01*
X149025297Y-70137584D01*
X149027275Y-70138173D01*
X149029213Y-70138823D01*
X149031125Y-70139578D01*
X149033003Y-70140423D01*
X149034835Y-70141347D01*
X149036643Y-70142365D01*
X149038415Y-70143466D01*
X149040151Y-70144661D01*
X149041847Y-70145950D01*
X149043516Y-70147309D01*
X149045038Y-70148701D01*
X149046462Y-70150182D01*
X149047785Y-70151764D01*
X149049010Y-70153449D01*
X149050135Y-70155216D01*
X149051171Y-70157093D01*
X149052099Y-70159064D01*
X149052930Y-70161140D01*
X149053671Y-70163307D01*
X149054303Y-70165582D01*
X149054842Y-70167941D01*
X149055284Y-70170401D01*
X149055624Y-70172970D01*
X149055871Y-70175631D01*
X149056013Y-70178389D01*
X149056067Y-70181244D01*
X149056067Y-70417463D01*
X149056013Y-70420328D01*
X149055871Y-70423087D01*
X149055624Y-70425765D01*
X149055284Y-70428345D01*
X149054842Y-70430834D01*
X149054301Y-70433224D01*
X149053666Y-70435533D01*
X149052930Y-70437727D01*
X149052099Y-70439848D01*
X149051171Y-70441872D01*
X149050135Y-70443797D01*
X149049010Y-70445640D01*
X149047785Y-70447379D01*
X149046462Y-70449019D01*
X149045038Y-70450573D01*
X149043516Y-70452045D01*
X149041847Y-70453328D01*
X149040151Y-70454543D01*
X149038416Y-70455669D01*
X149036643Y-70456717D01*
X149034835Y-70457666D01*
X149033003Y-70458541D01*
X149031125Y-70459340D01*
X149029213Y-70460038D01*
X149027275Y-70460674D01*
X149025297Y-70461220D01*
X149023283Y-70461671D01*
X149021241Y-70462046D01*
X149019162Y-70462340D01*
X149017046Y-70462544D01*
X149014900Y-70462675D01*
X149012715Y-70462714D01*
X149010533Y-70462675D01*
X149008391Y-70462544D01*
X149006295Y-70462340D01*
X149004234Y-70462046D01*
X149002208Y-70461671D01*
X149000228Y-70461220D01*
X148998290Y-70460674D01*
X148996376Y-70460038D01*
X148994520Y-70459340D01*
X148992693Y-70458541D01*
X148990904Y-70457666D01*
X148989154Y-70456717D01*
X148987452Y-70455669D01*
X148985778Y-70454543D01*
X148984156Y-70453329D01*
X148982564Y-70452045D01*
X148980964Y-70450573D01*
X148979461Y-70449019D01*
X148978075Y-70447380D01*
X148976789Y-70445642D01*
X148975599Y-70443797D01*
X148974510Y-70441872D01*
X148973540Y-70439848D01*
X148972666Y-70437727D01*
X148971896Y-70435533D01*
X148971217Y-70433224D01*
X148970657Y-70430834D01*
X148970195Y-70428345D01*
X148969831Y-70425765D01*
X148969578Y-70423087D01*
X148969419Y-70420328D01*
X148969368Y-70417463D01*
X148969368Y-70181246D01*
X148969420Y-70178389D01*
X148969578Y-70175631D01*
X148969831Y-70172970D01*
X148970195Y-70170401D01*
X148970657Y-70167941D01*
X148971217Y-70165582D01*
X148971896Y-70163307D01*
X148972666Y-70161140D01*
X148973540Y-70159064D01*
X148974510Y-70157093D01*
X148975599Y-70155216D01*
X148976789Y-70153449D01*
X148978075Y-70151764D01*
X148979461Y-70150182D01*
X148980964Y-70148701D01*
X148982564Y-70147309D01*
X148984153Y-70145950D01*
X148985778Y-70144661D01*
X148987452Y-70143466D01*
X148989154Y-70142365D01*
X148990904Y-70141347D01*
X148992691Y-70140423D01*
X148994520Y-70139578D01*
X148996376Y-70138823D01*
X148998290Y-70138173D01*
X149000228Y-70137584D01*
X149002206Y-70137110D01*
X149004234Y-70136705D01*
X149006295Y-70136392D01*
X149008391Y-70136168D01*
X149010532Y-70136040D01*
X149012715Y-70135990D01*
X149014900Y-70136040D01*
G37*
X148671734Y-67481582D02*
X148664439Y-67490741D01*
X148654245Y-67505235D01*
X146832921Y-70644517D01*
X151470083Y-70665626D01*
X151552549Y-70523024D01*
X151397043Y-70523024D01*
X151139470Y-70523024D01*
X151075376Y-70523020D01*
X151075376Y-70075680D01*
X151013168Y-70075680D01*
X151013168Y-70523020D01*
X150822168Y-70523024D01*
X150822168Y-70458938D01*
X150949085Y-70458938D01*
X150949085Y-70327638D01*
X150838516Y-70327638D01*
X150838514Y-70267320D01*
X150949085Y-70267320D01*
X150949085Y-70135990D01*
X150822168Y-70135990D01*
X150822168Y-70075680D01*
X150780724Y-70075680D01*
X150780724Y-70523024D01*
X150716632Y-70523024D01*
X150716632Y-70332026D01*
X150678288Y-70332026D01*
X150618618Y-70523024D01*
X150550758Y-70523024D01*
X150619884Y-70318834D01*
X150616099Y-70316671D01*
X150612476Y-70314433D01*
X150608992Y-70312097D01*
X150605655Y-70309691D01*
X150602469Y-70307189D01*
X150599434Y-70304612D01*
X150596540Y-70301944D01*
X150593796Y-70299204D01*
X150591204Y-70296370D01*
X150588747Y-70293457D01*
X150586443Y-70290467D01*
X150584292Y-70287389D01*
X150582279Y-70284223D01*
X150580418Y-70280973D01*
X150578709Y-70277646D01*
X150577144Y-70274235D01*
X150575611Y-70270722D01*
X150574192Y-70267128D01*
X150572872Y-70263438D01*
X150571643Y-70259656D01*
X150570517Y-70255776D01*
X150569487Y-70251801D01*
X150568556Y-70247742D01*
X150567720Y-70243587D01*
X150566990Y-70239344D01*
X150566354Y-70234992D01*
X150565814Y-70230560D01*
X150565380Y-70226027D01*
X150565025Y-70221405D01*
X150564790Y-70216693D01*
X150564644Y-70211884D01*
X150564588Y-70206980D01*
X150564697Y-70198903D01*
X150565025Y-70191084D01*
X150565586Y-70183517D01*
X150566359Y-70176199D01*
X150567351Y-70169154D01*
X150568566Y-70162356D01*
X150570003Y-70155812D01*
X150571650Y-70149527D01*
X150573539Y-70143509D01*
X150575637Y-70137736D01*
X150577948Y-70132222D01*
X150580489Y-70126969D01*
X150583257Y-70121968D01*
X150586232Y-70117224D01*
X150589436Y-70112736D01*
X150592855Y-70108499D01*
X150596499Y-70104531D01*
X150600361Y-70100818D01*
X150604456Y-70097351D01*
X150608750Y-70094142D01*
X150613287Y-70091194D01*
X150618036Y-70088503D01*
X150623001Y-70086066D01*
X150628199Y-70083883D01*
X150633608Y-70081957D01*
X150639244Y-70080302D01*
X150645095Y-70078884D01*
X150651172Y-70077732D01*
X150657469Y-70076835D01*
X150663975Y-70076190D01*
X150670718Y-70075813D01*
X150677620Y-70075680D01*
X150513056Y-70075680D01*
X150513056Y-70523024D01*
X150322055Y-70523024D01*
X150322055Y-70458938D01*
X150448971Y-70458938D01*
X150448971Y-70422494D01*
X150280605Y-70422494D01*
X150280575Y-70425228D01*
X150280477Y-70427935D01*
X150280321Y-70430627D01*
X150280094Y-70433289D01*
X150279804Y-70435929D01*
X150279453Y-70438541D01*
X150279037Y-70441132D01*
X150278552Y-70443692D01*
X150278011Y-70446239D01*
X150277395Y-70448750D01*
X150276727Y-70451240D01*
X150275990Y-70453707D01*
X150275198Y-70456150D01*
X150274335Y-70458564D01*
X150273401Y-70460956D01*
X150272420Y-70463326D01*
X150271373Y-70465591D01*
X150270270Y-70467822D01*
X150269130Y-70470032D01*
X150267942Y-70472206D01*
X150266695Y-70474351D01*
X150265410Y-70476467D01*
X150264070Y-70478551D01*
X150262682Y-70480601D01*
X150261242Y-70482640D01*
X150259757Y-70484631D01*
X150258221Y-70486607D01*
X150256634Y-70488545D01*
X150255003Y-70490448D01*
X150253322Y-70492326D01*
X150251587Y-70494179D01*
X150249811Y-70496000D01*
X150247978Y-70497786D01*
X150246129Y-70499516D01*
X150244255Y-70501202D01*
X150242347Y-70502832D01*
X150240405Y-70504430D01*
X150238437Y-70505967D01*
X150236439Y-70507449D01*
X150234410Y-70508894D01*
X150232353Y-70510279D01*
X150230267Y-70511623D01*
X150228158Y-70512916D01*
X150226014Y-70514162D01*
X150223832Y-70515364D01*
X150221627Y-70516501D01*
X150219391Y-70517595D01*
X150217132Y-70518644D01*
X150214760Y-70519628D01*
X150212376Y-70520556D01*
X150209977Y-70521420D01*
X150207552Y-70522212D01*
X150205105Y-70522949D01*
X150202644Y-70523613D01*
X150200157Y-70524223D01*
X150197651Y-70524762D01*
X150195132Y-70525240D01*
X150192591Y-70525652D01*
X150190019Y-70526010D01*
X150187445Y-70526295D01*
X150184834Y-70526526D01*
X150182211Y-70526674D01*
X150179576Y-70526776D01*
X150176913Y-70526798D01*
X150174253Y-70526776D01*
X150171613Y-70526674D01*
X150168993Y-70526526D01*
X150166396Y-70526295D01*
X150163810Y-70526010D01*
X150161256Y-70525652D01*
X150158713Y-70525240D01*
X150156194Y-70524762D01*
X150153696Y-70524223D01*
X150151208Y-70523613D01*
X150149036Y-70523020D01*
X150011069Y-70523020D01*
X149946978Y-70523024D01*
X149946978Y-70181246D01*
X149888543Y-70181246D01*
X149888543Y-70417463D01*
X149888507Y-70420971D01*
X149888397Y-70424405D01*
X149888206Y-70427785D01*
X149887953Y-70431097D01*
X149887623Y-70434328D01*
X149887217Y-70437523D01*
X149886735Y-70440642D01*
X149886192Y-70443692D01*
X149885567Y-70446689D01*
X149884866Y-70449620D01*
X149884089Y-70452478D01*
X149883243Y-70455280D01*
X149882327Y-70458011D01*
X149881342Y-70460692D01*
X149880271Y-70463300D01*
X149879123Y-70465842D01*
X149877919Y-70468330D01*
X149876670Y-70470762D01*
X149875366Y-70473145D01*
X149874019Y-70475464D01*
X149872616Y-70477743D01*
X149871170Y-70479956D01*
X149869681Y-70482122D01*
X149868127Y-70484230D01*
X149866535Y-70486290D01*
X149864885Y-70488290D01*
X149863203Y-70490235D01*
X149861455Y-70492136D01*
X149859666Y-70493966D01*
X149857829Y-70495754D01*
X149855939Y-70497480D01*
X149854002Y-70499158D01*
X149852101Y-70500861D01*
X149850169Y-70502503D01*
X149848208Y-70504099D01*
X149846225Y-70505638D01*
X149844205Y-70507115D01*
X149842161Y-70508544D01*
X149840081Y-70509925D01*
X149837974Y-70511242D01*
X149835834Y-70512501D01*
X149833676Y-70513722D01*
X149831480Y-70514876D01*
X149829260Y-70515984D01*
X149827006Y-70517035D01*
X149824717Y-70518038D01*
X149822410Y-70518975D01*
X149820064Y-70519860D01*
X149815202Y-70521492D01*
X149810326Y-70522890D01*
X149807893Y-70523523D01*
X149805457Y-70524085D01*
X149803025Y-70524594D01*
X149800590Y-70525059D01*
X149798157Y-70525466D01*
X149795722Y-70525816D01*
X149793280Y-70526111D01*
X149790851Y-70526362D01*
X149788414Y-70526559D01*
X149785982Y-70526694D01*
X149783545Y-70526783D01*
X149781114Y-70526798D01*
X149778674Y-70526783D01*
X149776245Y-70526699D01*
X149773833Y-70526559D01*
X149771408Y-70526362D01*
X149768995Y-70526111D01*
X149766588Y-70525816D01*
X149764193Y-70525466D01*
X149761794Y-70525059D01*
X149759396Y-70524594D01*
X149757015Y-70524085D01*
X149754631Y-70523528D01*
X149752763Y-70523024D01*
X149615228Y-70523024D01*
X149551148Y-70523024D01*
X149551148Y-70421237D01*
X149375851Y-70421237D01*
X149375815Y-70425047D01*
X149375702Y-70428774D01*
X149375524Y-70432411D01*
X149375264Y-70435964D01*
X149374929Y-70439432D01*
X149374528Y-70442822D01*
X149374049Y-70446137D01*
X149373499Y-70449357D01*
X149372864Y-70452498D01*
X149372175Y-70455546D01*
X149371401Y-70458519D01*
X149370553Y-70461418D01*
X149369634Y-70464219D01*
X149368637Y-70466940D01*
X149367578Y-70469582D01*
X149366436Y-70472128D01*
X149365160Y-70474541D01*
X149363842Y-70476892D01*
X149362491Y-70479195D01*
X149361094Y-70481434D01*
X149359661Y-70483634D01*
X149358194Y-70485760D01*
X149356681Y-70487844D01*
X149355127Y-70489874D01*
X149353528Y-70491848D01*
X149351913Y-70493772D01*
X149350243Y-70495638D01*
X149348531Y-70497449D01*
X149346788Y-70499201D01*
X149345008Y-70500915D01*
X149343174Y-70502563D01*
X149341316Y-70504166D01*
X149339420Y-70505703D01*
X149337475Y-70507187D01*
X149335519Y-70508612D01*
X149333534Y-70509972D01*
X149331521Y-70511272D01*
X149329476Y-70512524D01*
X149327394Y-70513721D01*
X149325284Y-70514845D01*
X149323144Y-70515915D01*
X149320983Y-70516933D01*
X149318787Y-70517886D01*
X149316573Y-70518780D01*
X149314313Y-70519613D01*
X149312029Y-70520396D01*
X149309719Y-70521113D01*
X149307380Y-70521768D01*
X149302668Y-70522949D01*
X149297992Y-70523967D01*
X149293329Y-70524829D01*
X149288689Y-70525544D01*
X149284067Y-70526087D01*
X149279463Y-70526483D01*
X149274882Y-70526721D01*
X149270324Y-70526798D01*
X149267661Y-70526777D01*
X149265027Y-70526675D01*
X149262426Y-70526526D01*
X149259833Y-70526295D01*
X149257283Y-70526010D01*
X149254742Y-70525652D01*
X149252240Y-70525240D01*
X149249746Y-70524762D01*
X149247283Y-70524223D01*
X149244850Y-70523613D01*
X149242431Y-70522949D01*
X149240054Y-70522212D01*
X149237692Y-70521420D01*
X149235347Y-70520556D01*
X149233033Y-70519628D01*
X149230755Y-70518644D01*
X149228410Y-70517522D01*
X149226112Y-70516349D01*
X149223850Y-70515143D01*
X149221634Y-70513891D01*
X149219449Y-70512587D01*
X149217316Y-70511246D01*
X149215213Y-70509858D01*
X149213154Y-70508428D01*
X149211129Y-70506955D01*
X149209145Y-70505432D01*
X149207201Y-70503866D01*
X149205303Y-70502250D01*
X149203432Y-70500602D01*
X149201609Y-70498909D01*
X149199820Y-70497167D01*
X149198077Y-70495387D01*
X149196367Y-70493569D01*
X149194717Y-70491713D01*
X149193113Y-70489831D01*
X149191555Y-70487929D01*
X149190042Y-70485987D01*
X149188585Y-70484013D01*
X149187175Y-70482020D01*
X149185811Y-70479993D01*
X149184500Y-70477942D01*
X149183239Y-70475845D01*
X149182016Y-70473738D01*
X149180859Y-70471588D01*
X149179746Y-70469424D01*
X149178679Y-70467210D01*
X149177657Y-70464979D01*
X149176690Y-70462718D01*
X149175699Y-70460352D01*
X149174781Y-70457968D01*
X149173913Y-70455580D01*
X149173119Y-70453173D01*
X149172387Y-70450750D01*
X149171710Y-70448320D01*
X149171106Y-70445862D01*
X149170567Y-70443397D01*
X149170085Y-70440924D01*
X149169669Y-70438418D01*
X149169320Y-70435914D01*
X149169038Y-70433386D01*
X149168824Y-70430852D01*
X149168660Y-70428298D01*
X149168563Y-70425721D01*
X149168538Y-70423132D01*
X149168538Y-70395472D01*
X149232615Y-70395472D01*
X149232615Y-70417463D01*
X149232626Y-70419093D01*
X149232676Y-70420701D01*
X149232752Y-70422266D01*
X149232857Y-70423787D01*
X149232983Y-70425285D01*
X149233146Y-70426744D01*
X149233342Y-70428164D01*
X149233559Y-70429559D01*
X149233813Y-70430917D01*
X149234092Y-70432249D01*
X149234406Y-70433532D01*
X149234740Y-70434780D01*
X149235107Y-70436007D01*
X149235509Y-70437195D01*
X149235931Y-70438341D01*
X149236401Y-70439461D01*
X149236868Y-70440544D01*
X149237363Y-70441596D01*
X149237867Y-70442625D01*
X149238390Y-70443631D01*
X149238928Y-70444589D01*
X149239477Y-70445533D01*
X149240048Y-70446441D01*
X149240623Y-70447316D01*
X149241227Y-70448169D01*
X149241835Y-70448991D01*
X149242458Y-70449786D01*
X149243093Y-70450543D01*
X149243761Y-70451276D01*
X149244423Y-70451979D01*
X149245110Y-70452650D01*
X149245808Y-70453294D01*
X149246599Y-70453911D01*
X149247400Y-70454514D01*
X149248209Y-70455091D01*
X149249032Y-70455650D01*
X149249864Y-70456194D01*
X149250696Y-70456709D01*
X149251551Y-70457201D01*
X149252413Y-70457678D01*
X149253288Y-70458139D01*
X149254158Y-70458584D01*
X149255050Y-70459001D01*
X149255945Y-70459401D01*
X149256863Y-70459778D01*
X149257774Y-70460145D01*
X149258709Y-70460491D01*
X149259643Y-70460816D01*
X149261367Y-70461249D01*
X149263061Y-70461633D01*
X149264734Y-70461965D01*
X149266401Y-70462232D01*
X149268035Y-70462445D01*
X149269656Y-70462599D01*
X149271252Y-70462686D01*
X149272837Y-70462718D01*
X149275535Y-70462666D01*
X149278126Y-70462509D01*
X149280617Y-70462246D01*
X149283006Y-70461891D01*
X149285284Y-70461427D01*
X149287470Y-70460865D01*
X149288524Y-70460542D01*
X149289544Y-70460191D01*
X149290544Y-70459824D01*
X149291512Y-70459418D01*
X149292463Y-70458992D01*
X149293391Y-70458536D01*
X149294282Y-70458062D01*
X149295157Y-70457565D01*
X149296005Y-70457031D01*
X149296830Y-70456476D01*
X149297620Y-70455903D01*
X149298382Y-70455291D01*
X149299132Y-70454664D01*
X149299833Y-70454008D01*
X149300534Y-70453318D01*
X149301200Y-70452614D01*
X149301837Y-70451879D01*
X149302457Y-70451116D01*
X149303048Y-70450335D01*
X149303604Y-70449524D01*
X149304597Y-70447850D01*
X149305516Y-70446135D01*
X149306374Y-70444348D01*
X149307180Y-70442543D01*
X149307904Y-70440660D01*
X149308580Y-70438741D01*
X149309186Y-70436768D01*
X149309726Y-70434757D01*
X149310204Y-70432693D01*
X149310613Y-70430569D01*
X149310971Y-70428408D01*
X149311257Y-70426198D01*
X149311477Y-70423930D01*
X149311641Y-70421620D01*
X149311726Y-70419265D01*
X149311771Y-70416847D01*
X149311771Y-70188153D01*
X149311742Y-70185351D01*
X149311652Y-70182621D01*
X149311496Y-70179955D01*
X149311300Y-70177353D01*
X149311036Y-70174807D01*
X149310714Y-70172331D01*
X149310329Y-70169919D01*
X149309887Y-70167582D01*
X149309394Y-70165289D01*
X149308838Y-70163075D01*
X149308219Y-70160916D01*
X149307547Y-70158815D01*
X149306808Y-70156788D01*
X149306019Y-70154823D01*
X149305158Y-70152927D01*
X149304245Y-70151087D01*
X149303164Y-70149259D01*
X149301957Y-70147551D01*
X149300635Y-70145962D01*
X149299180Y-70144493D01*
X149297614Y-70143127D01*
X149295916Y-70141888D01*
X149294094Y-70140774D01*
X149292142Y-70139768D01*
X149290082Y-70138881D01*
X149287888Y-70138122D01*
X149285583Y-70137460D01*
X149283144Y-70136940D01*
X149280593Y-70136526D01*
X149277915Y-70136228D01*
X149275111Y-70136054D01*
X149272187Y-70135990D01*
X149269936Y-70136050D01*
X149267762Y-70136214D01*
X149265617Y-70136480D01*
X149263556Y-70136864D01*
X149261536Y-70137351D01*
X149259585Y-70137941D01*
X149257694Y-70138646D01*
X149255849Y-70139459D01*
X149254079Y-70140378D01*
X149252364Y-70141402D01*
X149250699Y-70142535D01*
X149249107Y-70143778D01*
X149247561Y-70145122D01*
X149246079Y-70146592D01*
X149244663Y-70148154D01*
X149243292Y-70149835D01*
X149241994Y-70151584D01*
X149240788Y-70153365D01*
X149239661Y-70155196D01*
X149238619Y-70157049D01*
X149237660Y-70158956D01*
X149236778Y-70160908D01*
X149235996Y-70162883D01*
X149235279Y-70164899D01*
X149234662Y-70166964D01*
X149234107Y-70169072D01*
X149233662Y-70171208D01*
X149233285Y-70173392D01*
X149232988Y-70175618D01*
X149232785Y-70177868D01*
X149232660Y-70180162D01*
X149232615Y-70182503D01*
X149232615Y-70203858D01*
X149168538Y-70203857D01*
X149168538Y-70181244D01*
X149120151Y-70181244D01*
X149120151Y-70417463D01*
X149120116Y-70420971D01*
X149120002Y-70424405D01*
X149119820Y-70427785D01*
X149119563Y-70431097D01*
X149119229Y-70434328D01*
X149118827Y-70437523D01*
X149118351Y-70440642D01*
X149117804Y-70443692D01*
X149117172Y-70446689D01*
X149116473Y-70449619D01*
X149115701Y-70452478D01*
X149114853Y-70455275D01*
X149113931Y-70458011D01*
X149112942Y-70460692D01*
X149111870Y-70463300D01*
X149110737Y-70465842D01*
X149109533Y-70468330D01*
X149108285Y-70470758D01*
X149106982Y-70473145D01*
X149105624Y-70475464D01*
X149104236Y-70477743D01*
X149102778Y-70479956D01*
X149101281Y-70482121D01*
X149099738Y-70484228D01*
X149098150Y-70486290D01*
X149096496Y-70488290D01*
X149094806Y-70490235D01*
X149093066Y-70492136D01*
X149091271Y-70493966D01*
X149089434Y-70495754D01*
X149087548Y-70497480D01*
X149085605Y-70499158D01*
X149083709Y-70500861D01*
X149081771Y-70502503D01*
X149079818Y-70504099D01*
X149077833Y-70505639D01*
X149075814Y-70507115D01*
X149073769Y-70508545D01*
X149071691Y-70509925D01*
X149069584Y-70511242D01*
X149067446Y-70512501D01*
X149065280Y-70513722D01*
X149063088Y-70514876D01*
X149060868Y-70515984D01*
X149058617Y-70517035D01*
X149056331Y-70518039D01*
X149054021Y-70518975D01*
X149051672Y-70519860D01*
X149046811Y-70521492D01*
X149041933Y-70522890D01*
X149039502Y-70523528D01*
X149037067Y-70524085D01*
X149034634Y-70524594D01*
X149032199Y-70525059D01*
X149029764Y-70525473D01*
X149027321Y-70525816D01*
X149024895Y-70526111D01*
X149022456Y-70526362D01*
X149020021Y-70526559D01*
X149017585Y-70526694D01*
X149015152Y-70526782D01*
X149012715Y-70526798D01*
X149010285Y-70526782D01*
X149007858Y-70526694D01*
X149005433Y-70526559D01*
X149003022Y-70526362D01*
X149000609Y-70526111D01*
X148998201Y-70525816D01*
X148995792Y-70525466D01*
X148993405Y-70525059D01*
X148991009Y-70524594D01*
X148988620Y-70524085D01*
X148986240Y-70523528D01*
X148984371Y-70523024D01*
X148848736Y-70523024D01*
X148657738Y-70523024D01*
X148645160Y-70523024D01*
X148581081Y-70523020D01*
X148562237Y-70426876D01*
X148474900Y-70426876D01*
X148456064Y-70523024D01*
X148391978Y-70523024D01*
X148491869Y-70075680D01*
X148363078Y-70075680D01*
X148363078Y-70523024D01*
X148298996Y-70523024D01*
X148298998Y-70254102D01*
X148297732Y-70254102D01*
X148199721Y-70523024D01*
X148139402Y-70523024D01*
X148139402Y-70417467D01*
X148085378Y-70417467D01*
X148085342Y-70420971D01*
X148085233Y-70424405D01*
X148085050Y-70427785D01*
X148084784Y-70431097D01*
X148084460Y-70434328D01*
X148084054Y-70437523D01*
X148083571Y-70440642D01*
X148083012Y-70443692D01*
X148082384Y-70446689D01*
X148081682Y-70449620D01*
X148080905Y-70452478D01*
X148080058Y-70455280D01*
X148079134Y-70458011D01*
X148078143Y-70460692D01*
X148077075Y-70463300D01*
X148075941Y-70465842D01*
X148074725Y-70468330D01*
X148073474Y-70470758D01*
X148072177Y-70473145D01*
X148070822Y-70475464D01*
X148069427Y-70477743D01*
X148067986Y-70479956D01*
X148066484Y-70482122D01*
X148064945Y-70484230D01*
X148063344Y-70486290D01*
X148061709Y-70488290D01*
X148060010Y-70490235D01*
X148058265Y-70492136D01*
X148056475Y-70493966D01*
X148054633Y-70495753D01*
X148052741Y-70497479D01*
X148050806Y-70499158D01*
X148048908Y-70500861D01*
X148046974Y-70502503D01*
X148045022Y-70504099D01*
X148043027Y-70505638D01*
X148041017Y-70507115D01*
X148038968Y-70508544D01*
X148036890Y-70509925D01*
X148034786Y-70511242D01*
X148032643Y-70512501D01*
X148030479Y-70513722D01*
X148028295Y-70514876D01*
X148026063Y-70515984D01*
X148023812Y-70517035D01*
X148021530Y-70518039D01*
X148019216Y-70518981D01*
X148016871Y-70519860D01*
X148012013Y-70521492D01*
X148007144Y-70522890D01*
X148004706Y-70523523D01*
X148002272Y-70524085D01*
X147999848Y-70524594D01*
X147997410Y-70525059D01*
X147994978Y-70525473D01*
X147992545Y-70525816D01*
X147990114Y-70526111D01*
X147987686Y-70526362D01*
X147985256Y-70526559D01*
X147982814Y-70526699D01*
X147980383Y-70526783D01*
X147977956Y-70526798D01*
X147975516Y-70526783D01*
X147973084Y-70526694D01*
X147970660Y-70526559D01*
X147968246Y-70526362D01*
X147965825Y-70526111D01*
X147963416Y-70525816D01*
X147961013Y-70525466D01*
X147958622Y-70525059D01*
X147956214Y-70524594D01*
X147953820Y-70524085D01*
X147951446Y-70523528D01*
X147949576Y-70523024D01*
X147813940Y-70523024D01*
X147622945Y-70523024D01*
X147622945Y-70523020D01*
X147581497Y-70523020D01*
X147390497Y-70523024D01*
X147347150Y-70523024D01*
X147283063Y-70523024D01*
X147283063Y-70075680D01*
X147347147Y-70075680D01*
X147347150Y-70523024D01*
X147390497Y-70523024D01*
X147390497Y-70458938D01*
X147517411Y-70458938D01*
X147517411Y-70075680D01*
X147581497Y-70075680D01*
X147581497Y-70523020D01*
X147622945Y-70523020D01*
X147622945Y-70458938D01*
X147749850Y-70458938D01*
X147749855Y-70327638D01*
X147639291Y-70327638D01*
X147639291Y-70267320D01*
X147749855Y-70267320D01*
X147749850Y-70135990D01*
X147622945Y-70135990D01*
X147622945Y-70075680D01*
X147813940Y-70075677D01*
X147813940Y-70523024D01*
X147949576Y-70523024D01*
X147949070Y-70522890D01*
X147946692Y-70522222D01*
X147944324Y-70521492D01*
X147941964Y-70520703D01*
X147939600Y-70519860D01*
X147937180Y-70518975D01*
X147934791Y-70518038D01*
X147932428Y-70517035D01*
X147930097Y-70515984D01*
X147927795Y-70514876D01*
X147925523Y-70513721D01*
X147923273Y-70512501D01*
X147921067Y-70511242D01*
X147918884Y-70509923D01*
X147916727Y-70508544D01*
X147914599Y-70507115D01*
X147912502Y-70505638D01*
X147910431Y-70504099D01*
X147908390Y-70502503D01*
X147906392Y-70500861D01*
X147904412Y-70499158D01*
X147902553Y-70497480D01*
X147900727Y-70495753D01*
X147898955Y-70493966D01*
X147897233Y-70492136D01*
X147895544Y-70490235D01*
X147893902Y-70488289D01*
X147892313Y-70486290D01*
X147890755Y-70484228D01*
X147889249Y-70482122D01*
X147887789Y-70479956D01*
X147886369Y-70477743D01*
X147885004Y-70475464D01*
X147883667Y-70473145D01*
X147882372Y-70470762D01*
X147881130Y-70468330D01*
X147879928Y-70465842D01*
X147878790Y-70463300D01*
X147877725Y-70460692D01*
X147876720Y-70458011D01*
X147875809Y-70455280D01*
X147874960Y-70452478D01*
X147874177Y-70449620D01*
X147873482Y-70446689D01*
X147872854Y-70443692D01*
X147872295Y-70440642D01*
X147871816Y-70437523D01*
X147871408Y-70434328D01*
X147871074Y-70431097D01*
X147870821Y-70427785D01*
X147870633Y-70424405D01*
X147870521Y-70420971D01*
X147870487Y-70417463D01*
X147870487Y-70276746D01*
X147985467Y-70276746D01*
X147985467Y-70333288D01*
X147934575Y-70333288D01*
X147934575Y-70417463D01*
X147934620Y-70420328D01*
X147934775Y-70423087D01*
X147935035Y-70425762D01*
X147935397Y-70428345D01*
X147935871Y-70430834D01*
X147936432Y-70433224D01*
X147937103Y-70435533D01*
X147937881Y-70437727D01*
X147938758Y-70439848D01*
X147939741Y-70441872D01*
X147940824Y-70443796D01*
X147942009Y-70445640D01*
X147943304Y-70447378D01*
X147944700Y-70449019D01*
X147946191Y-70450573D01*
X147947788Y-70452045D01*
X147949384Y-70453328D01*
X147951011Y-70454543D01*
X147952676Y-70455669D01*
X147954390Y-70456717D01*
X147956139Y-70457666D01*
X147957924Y-70458541D01*
X147959749Y-70459340D01*
X147961610Y-70460038D01*
X147963516Y-70460674D01*
X147965461Y-70461220D01*
X147967445Y-70461671D01*
X147969467Y-70462046D01*
X147971528Y-70462341D01*
X147973631Y-70462544D01*
X147975771Y-70462675D01*
X147977956Y-70462718D01*
X147980129Y-70462675D01*
X147982274Y-70462544D01*
X147984384Y-70462340D01*
X147986476Y-70462046D01*
X147988511Y-70461671D01*
X147990520Y-70461220D01*
X147992490Y-70460671D01*
X147994425Y-70460038D01*
X147996332Y-70459340D01*
X147998208Y-70458541D01*
X148000049Y-70457666D01*
X148001849Y-70456717D01*
X148003614Y-70455669D01*
X148005353Y-70454543D01*
X148007051Y-70453328D01*
X148008716Y-70452045D01*
X148010235Y-70450573D01*
X148011665Y-70449019D01*
X148012989Y-70447379D01*
X148014216Y-70445640D01*
X148015347Y-70443797D01*
X148016374Y-70441872D01*
X148017316Y-70439848D01*
X148018149Y-70437727D01*
X148018881Y-70435533D01*
X148019518Y-70433224D01*
X148020063Y-70430834D01*
X148020503Y-70428345D01*
X148020852Y-70425765D01*
X148021102Y-70423087D01*
X148021247Y-70420328D01*
X148021296Y-70417463D01*
X148021296Y-70181246D01*
X148021247Y-70178389D01*
X148021102Y-70175631D01*
X148020852Y-70172970D01*
X148020503Y-70170401D01*
X148020063Y-70167941D01*
X148019518Y-70165582D01*
X148018881Y-70163307D01*
X148018149Y-70161140D01*
X148017316Y-70159061D01*
X148016374Y-70157093D01*
X148015347Y-70155216D01*
X148014216Y-70153449D01*
X148012988Y-70151764D01*
X148011665Y-70150182D01*
X148010235Y-70148701D01*
X148008716Y-70147309D01*
X148007051Y-70145950D01*
X148005353Y-70144661D01*
X148003614Y-70143466D01*
X148001849Y-70142365D01*
X148000049Y-70141347D01*
X147998208Y-70140423D01*
X147996332Y-70139578D01*
X147994425Y-70138823D01*
X147992490Y-70138173D01*
X147990520Y-70137584D01*
X147988511Y-70137107D01*
X147986476Y-70136705D01*
X147984384Y-70136392D01*
X147982279Y-70136168D01*
X147980137Y-70136040D01*
X147977958Y-70135990D01*
X147975772Y-70136040D01*
X147973632Y-70136168D01*
X147971528Y-70136392D01*
X147969467Y-70136705D01*
X147967446Y-70137110D01*
X147965461Y-70137584D01*
X147963516Y-70138173D01*
X147961610Y-70138823D01*
X147959749Y-70139578D01*
X147957924Y-70140423D01*
X147956139Y-70141347D01*
X147954390Y-70142365D01*
X147952676Y-70143466D01*
X147951011Y-70144661D01*
X147949384Y-70145950D01*
X147947788Y-70147309D01*
X147946191Y-70148701D01*
X147944700Y-70150182D01*
X147943304Y-70151764D01*
X147942009Y-70153449D01*
X147940824Y-70155216D01*
X147939741Y-70157093D01*
X147938758Y-70159064D01*
X147937881Y-70161140D01*
X147937103Y-70163307D01*
X147936431Y-70165582D01*
X147935871Y-70167941D01*
X147935397Y-70170401D01*
X147935035Y-70172970D01*
X147934775Y-70175631D01*
X147934617Y-70178389D01*
X147934575Y-70181244D01*
X147934578Y-70203858D01*
X147870487Y-70203857D01*
X147870487Y-70181244D01*
X147870521Y-70177884D01*
X147870633Y-70174595D01*
X147870821Y-70171333D01*
X147871074Y-70168128D01*
X147871408Y-70164968D01*
X147871816Y-70161864D01*
X147872295Y-70158795D01*
X147872853Y-70155789D01*
X147873480Y-70152834D01*
X147874177Y-70149921D01*
X147874960Y-70147059D01*
X147875809Y-70144235D01*
X147876720Y-70141476D01*
X147877725Y-70138767D01*
X147878790Y-70136096D01*
X147879928Y-70133483D01*
X147881130Y-70130917D01*
X147882372Y-70128400D01*
X147883667Y-70125946D01*
X147885004Y-70123546D01*
X147886369Y-70121201D01*
X147887789Y-70118898D01*
X147889249Y-70116667D01*
X147890755Y-70114478D01*
X147892312Y-70112345D01*
X147893902Y-70110271D01*
X147895544Y-70108242D01*
X147897233Y-70106280D01*
X147898955Y-70104363D01*
X147900727Y-70102491D01*
X147902553Y-70100694D01*
X147904412Y-70098936D01*
X147906392Y-70097306D01*
X147908390Y-70095737D01*
X147910435Y-70094202D01*
X147912502Y-70092734D01*
X147914599Y-70091300D01*
X147916728Y-70089925D01*
X147918885Y-70088599D01*
X147921067Y-70087310D01*
X147923273Y-70086091D01*
X147925523Y-70084907D01*
X147927795Y-70083775D01*
X147930097Y-70082687D01*
X147932428Y-70081655D01*
X147934791Y-70080675D01*
X147937180Y-70079725D01*
X147939600Y-70078843D01*
X147941964Y-70078007D01*
X147944324Y-70077226D01*
X147946692Y-70076487D01*
X147949070Y-70075817D01*
X147951446Y-70075190D01*
X147953820Y-70074630D01*
X147956214Y-70074111D01*
X147958622Y-70073640D01*
X147961013Y-70073238D01*
X147963416Y-70072886D01*
X147965825Y-70072589D01*
X147968246Y-70072340D01*
X147970660Y-70072154D01*
X147973084Y-70072020D01*
X147975516Y-70071932D01*
X147977956Y-70071901D01*
X147980383Y-70071932D01*
X147982814Y-70072020D01*
X147985256Y-70072154D01*
X147987686Y-70072340D01*
X147990114Y-70072589D01*
X147992545Y-70072886D01*
X147994978Y-70073238D01*
X147997410Y-70073640D01*
X147999844Y-70074111D01*
X148002272Y-70074630D01*
X148004706Y-70075190D01*
X148007144Y-70075817D01*
X148012013Y-70077221D01*
X148016871Y-70078843D01*
X148019216Y-70079725D01*
X148021528Y-70080675D01*
X148023812Y-70081655D01*
X148026063Y-70082687D01*
X148028295Y-70083775D01*
X148030479Y-70084907D01*
X148032643Y-70086091D01*
X148034786Y-70087310D01*
X148036888Y-70088599D01*
X148038968Y-70089925D01*
X148041017Y-70091300D01*
X148043027Y-70092728D01*
X148045022Y-70094201D01*
X148046974Y-70095737D01*
X148048908Y-70097306D01*
X148050806Y-70098933D01*
X148052741Y-70100694D01*
X148054632Y-70102491D01*
X148056475Y-70104362D01*
X148058262Y-70106279D01*
X148060010Y-70108242D01*
X148061709Y-70110270D01*
X148063344Y-70112345D01*
X148064945Y-70114478D01*
X148066484Y-70116667D01*
X148067986Y-70118898D01*
X148069427Y-70121200D01*
X148070822Y-70123544D01*
X148072177Y-70125946D01*
X148073474Y-70128400D01*
X148074725Y-70130917D01*
X148075941Y-70133483D01*
X148077075Y-70136096D01*
X148078143Y-70138767D01*
X148079134Y-70141476D01*
X148080058Y-70144235D01*
X148080905Y-70147059D01*
X148081682Y-70149921D01*
X148082384Y-70152834D01*
X148083012Y-70155789D01*
X148083571Y-70158796D01*
X148084054Y-70161864D01*
X148084460Y-70164968D01*
X148084784Y-70168128D01*
X148085046Y-70171333D01*
X148085233Y-70174595D01*
X148085342Y-70177884D01*
X148085378Y-70181244D01*
X148085378Y-70417467D01*
X148139402Y-70417467D01*
X148139402Y-70075680D01*
X148203496Y-70075677D01*
X148203496Y-70345210D01*
X148204753Y-70345210D01*
X148301511Y-70075680D01*
X148363078Y-70075680D01*
X148491869Y-70075680D01*
X148545275Y-70075680D01*
X148645160Y-70523024D01*
X148657738Y-70523024D01*
X148657738Y-70458938D01*
X148784655Y-70458938D01*
X148784655Y-70075680D01*
X148848736Y-70075680D01*
X148848736Y-70523024D01*
X148984371Y-70523024D01*
X148983859Y-70522891D01*
X148981486Y-70522222D01*
X148979127Y-70521492D01*
X148976751Y-70520704D01*
X148974400Y-70519861D01*
X148971977Y-70518981D01*
X148969583Y-70518039D01*
X148967230Y-70517035D01*
X148964891Y-70515984D01*
X148962590Y-70514881D01*
X148960322Y-70513722D01*
X148958076Y-70512501D01*
X148955863Y-70511242D01*
X148953679Y-70509925D01*
X148951526Y-70508545D01*
X148949397Y-70507115D01*
X148947295Y-70505638D01*
X148945232Y-70504099D01*
X148943204Y-70502503D01*
X148941195Y-70500861D01*
X148939207Y-70499158D01*
X148937348Y-70497480D01*
X148935539Y-70495754D01*
X148933759Y-70493966D01*
X148932025Y-70492136D01*
X148930334Y-70490235D01*
X148928694Y-70488290D01*
X148927092Y-70486290D01*
X148925541Y-70484230D01*
X148924027Y-70482122D01*
X148922564Y-70479956D01*
X148921153Y-70477743D01*
X148919768Y-70475464D01*
X148918440Y-70473145D01*
X148917141Y-70470758D01*
X148915897Y-70468330D01*
X148914706Y-70465842D01*
X148913557Y-70463300D01*
X148912486Y-70460692D01*
X148911498Y-70458011D01*
X148910579Y-70455275D01*
X148909736Y-70452478D01*
X148908960Y-70449620D01*
X148908267Y-70446689D01*
X148907641Y-70443692D01*
X148907080Y-70440642D01*
X148906601Y-70437523D01*
X148906195Y-70434328D01*
X148905877Y-70431097D01*
X148905612Y-70427785D01*
X148905433Y-70424405D01*
X148905324Y-70420971D01*
X148905279Y-70417467D01*
X148905279Y-70181244D01*
X148905324Y-70177884D01*
X148905433Y-70174595D01*
X148905615Y-70171333D01*
X148905878Y-70168128D01*
X148906195Y-70164968D01*
X148906601Y-70161864D01*
X148907080Y-70158796D01*
X148907642Y-70155789D01*
X148908267Y-70152834D01*
X148908960Y-70149921D01*
X148909736Y-70147059D01*
X148910579Y-70144235D01*
X148911498Y-70141476D01*
X148912486Y-70138767D01*
X148913557Y-70136096D01*
X148914706Y-70133483D01*
X148915897Y-70130917D01*
X148917141Y-70128400D01*
X148918440Y-70125946D01*
X148919768Y-70123546D01*
X148921153Y-70121201D01*
X148922564Y-70118898D01*
X148924027Y-70116667D01*
X148925541Y-70114478D01*
X148927092Y-70112345D01*
X148928693Y-70110270D01*
X148930334Y-70108242D01*
X148932025Y-70106279D01*
X148933759Y-70104362D01*
X148935539Y-70102491D01*
X148937348Y-70100694D01*
X148939207Y-70098936D01*
X148941195Y-70097306D01*
X148943204Y-70095737D01*
X148945232Y-70094202D01*
X148947295Y-70092734D01*
X148949397Y-70091300D01*
X148951526Y-70089925D01*
X148953679Y-70088599D01*
X148955863Y-70087312D01*
X148958076Y-70086091D01*
X148960322Y-70084907D01*
X148962590Y-70083775D01*
X148964894Y-70082687D01*
X148967230Y-70081655D01*
X148969583Y-70080675D01*
X148971977Y-70079725D01*
X148974400Y-70078843D01*
X148976751Y-70078007D01*
X148979127Y-70077226D01*
X148981485Y-70076487D01*
X148983859Y-70075817D01*
X148986240Y-70075190D01*
X148988620Y-70074630D01*
X148991009Y-70074111D01*
X148993405Y-70073640D01*
X148995792Y-70073238D01*
X148998201Y-70072886D01*
X149000609Y-70072589D01*
X149003023Y-70072340D01*
X149005433Y-70072154D01*
X149007858Y-70072020D01*
X149010285Y-70071934D01*
X149012715Y-70071901D01*
X149015152Y-70071934D01*
X149017591Y-70072020D01*
X149020021Y-70072154D01*
X149022456Y-70072340D01*
X149024895Y-70072589D01*
X149027321Y-70072886D01*
X149029764Y-70073238D01*
X149032199Y-70073640D01*
X149034634Y-70074111D01*
X149037067Y-70074630D01*
X149039502Y-70075190D01*
X149041933Y-70075817D01*
X149046811Y-70077221D01*
X149051672Y-70078843D01*
X149054021Y-70079725D01*
X149056331Y-70080675D01*
X149058617Y-70081655D01*
X149060868Y-70082687D01*
X149063088Y-70083775D01*
X149065280Y-70084907D01*
X149067446Y-70086091D01*
X149069584Y-70087312D01*
X149071691Y-70088599D01*
X149073769Y-70089925D01*
X149075814Y-70091300D01*
X149077833Y-70092734D01*
X149079818Y-70094202D01*
X149081771Y-70095737D01*
X149083709Y-70097306D01*
X149085605Y-70098936D01*
X149087548Y-70100694D01*
X149089434Y-70102491D01*
X149091271Y-70104363D01*
X149093066Y-70106280D01*
X149094806Y-70108242D01*
X149096496Y-70110271D01*
X149098150Y-70112345D01*
X149099738Y-70114478D01*
X149101281Y-70116667D01*
X149102778Y-70118898D01*
X149104236Y-70121201D01*
X149105624Y-70123546D01*
X149106982Y-70125946D01*
X149108285Y-70128400D01*
X149109533Y-70130917D01*
X149110737Y-70133483D01*
X149111870Y-70136096D01*
X149112942Y-70138767D01*
X149113931Y-70141476D01*
X149114853Y-70144235D01*
X149115701Y-70147059D01*
X149116473Y-70149921D01*
X149117172Y-70152834D01*
X149117804Y-70155789D01*
X149118351Y-70158795D01*
X149118827Y-70161864D01*
X149119229Y-70164968D01*
X149119563Y-70168128D01*
X149119820Y-70171333D01*
X149120002Y-70174595D01*
X149120116Y-70177884D01*
X149120151Y-70181244D01*
X149168538Y-70181244D01*
X149168538Y-70178729D01*
X149168563Y-70175836D01*
X149168660Y-70172979D01*
X149168820Y-70170144D01*
X149169038Y-70167341D01*
X149169320Y-70164566D01*
X149169669Y-70161825D01*
X149170085Y-70159105D01*
X149170567Y-70156418D01*
X149171106Y-70153758D01*
X149171710Y-70151134D01*
X149172387Y-70148531D01*
X149173120Y-70145966D01*
X149173913Y-70143428D01*
X149174781Y-70140928D01*
X149175699Y-70138441D01*
X149176690Y-70135990D01*
X149177657Y-70133506D01*
X149178679Y-70131059D01*
X149179746Y-70128650D01*
X149180859Y-70126294D01*
X149182016Y-70123986D01*
X149183239Y-70121703D01*
X149184500Y-70119490D01*
X149185811Y-70117313D01*
X149187175Y-70115172D01*
X149188588Y-70113081D01*
X149190042Y-70111031D01*
X149191555Y-70109023D01*
X149193113Y-70107062D01*
X149194717Y-70105145D01*
X149196368Y-70103273D01*
X149198077Y-70101448D01*
X149201672Y-70097866D01*
X149205408Y-70094523D01*
X149209272Y-70091422D01*
X149213263Y-70088526D01*
X149217403Y-70085872D01*
X149221668Y-70083449D01*
X149226058Y-70081260D01*
X149230586Y-70079294D01*
X149235241Y-70077568D01*
X149240041Y-70076071D01*
X149244954Y-70074796D01*
X149250021Y-70073753D01*
X149255209Y-70072948D01*
X149260529Y-70072365D01*
X149265986Y-70072027D01*
X149271583Y-70071901D01*
X149274469Y-70071938D01*
X149277331Y-70072037D01*
X149280153Y-70072196D01*
X149282959Y-70072427D01*
X149285731Y-70072713D01*
X149288473Y-70073066D01*
X149291194Y-70073480D01*
X149293870Y-70073965D01*
X149296529Y-70074506D01*
X149299152Y-70075115D01*
X149301752Y-70075793D01*
X149304312Y-70076520D01*
X149306848Y-70077322D01*
X149309354Y-70078180D01*
X149311833Y-70079115D01*
X149314288Y-70080100D01*
X149316613Y-70081062D01*
X149318917Y-70082080D01*
X149321179Y-70083140D01*
X149323395Y-70084264D01*
X149325574Y-70085422D01*
X149327713Y-70086633D01*
X149329813Y-70087898D01*
X149331871Y-70089201D01*
X149333890Y-70090560D01*
X149335883Y-70091964D01*
X149337824Y-70093431D01*
X149339727Y-70094938D01*
X149341588Y-70096486D01*
X149343424Y-70098094D01*
X149345206Y-70099746D01*
X149346948Y-70101448D01*
X149348654Y-70103204D01*
X149350306Y-70104986D01*
X149351921Y-70106804D01*
X149353480Y-70108665D01*
X149354986Y-70110579D01*
X149356440Y-70112520D01*
X149357853Y-70114503D01*
X149359219Y-70116528D01*
X149360527Y-70118591D01*
X149361791Y-70120692D01*
X149363006Y-70122825D01*
X149364170Y-70125011D01*
X149365289Y-70127231D01*
X149366349Y-70129481D01*
X149367366Y-70131783D01*
X149368335Y-70134121D01*
X149369247Y-70136489D01*
X149370099Y-70138879D01*
X149370896Y-70141304D01*
X149371629Y-70143738D01*
X149372309Y-70146202D01*
X149372926Y-70148701D01*
X149373483Y-70151210D01*
X149373977Y-70153748D01*
X149374420Y-70156314D01*
X149374804Y-70158903D01*
X149375117Y-70161518D01*
X149375381Y-70164158D01*
X149375591Y-70166820D01*
X149375736Y-70169504D01*
X149375822Y-70172219D01*
X149375851Y-70174948D01*
X149375851Y-70421237D01*
X149551148Y-70421237D01*
X149551148Y-70075677D01*
X149615228Y-70075677D01*
X149615228Y-70523024D01*
X149752763Y-70523024D01*
X149752261Y-70522890D01*
X149749882Y-70522222D01*
X149747512Y-70521492D01*
X149745155Y-70520703D01*
X149742786Y-70519860D01*
X149740363Y-70518981D01*
X149737982Y-70518039D01*
X149735622Y-70517035D01*
X149733287Y-70515984D01*
X149730981Y-70514876D01*
X149728710Y-70513722D01*
X149726466Y-70512501D01*
X149724255Y-70511242D01*
X149722076Y-70509925D01*
X149719911Y-70508544D01*
X149717787Y-70507115D01*
X149715687Y-70505638D01*
X149713632Y-70504098D01*
X149711590Y-70502503D01*
X149709583Y-70500861D01*
X149707605Y-70499158D01*
X149705742Y-70497479D01*
X149703922Y-70495753D01*
X149702142Y-70493966D01*
X149700418Y-70492136D01*
X149698731Y-70490235D01*
X149697083Y-70488290D01*
X149695484Y-70486290D01*
X149693934Y-70484230D01*
X149692420Y-70482122D01*
X149690957Y-70479956D01*
X149689537Y-70477743D01*
X149688160Y-70475464D01*
X149686821Y-70473145D01*
X149685537Y-70470758D01*
X149684288Y-70468330D01*
X149683091Y-70465842D01*
X149681951Y-70463300D01*
X149680877Y-70460692D01*
X149679887Y-70458011D01*
X149678971Y-70455280D01*
X149678127Y-70452478D01*
X149677358Y-70449620D01*
X149676644Y-70446689D01*
X149676025Y-70443692D01*
X149675469Y-70440642D01*
X149674999Y-70437523D01*
X149674592Y-70434328D01*
X149674259Y-70431097D01*
X149674003Y-70427785D01*
X149673817Y-70424405D01*
X149673708Y-70420971D01*
X149673673Y-70417463D01*
X149673673Y-70276746D01*
X149788655Y-70276746D01*
X149788655Y-70333288D01*
X149737761Y-70333288D01*
X149737761Y-70417467D01*
X149737806Y-70420333D01*
X149737967Y-70423088D01*
X149738219Y-70425766D01*
X149738583Y-70428345D01*
X149739044Y-70430834D01*
X149739610Y-70433224D01*
X149740285Y-70435533D01*
X149741049Y-70437727D01*
X149741934Y-70439848D01*
X149742913Y-70441872D01*
X149743993Y-70443797D01*
X149745181Y-70445640D01*
X149746464Y-70447379D01*
X149747856Y-70449019D01*
X149749358Y-70450573D01*
X149750944Y-70452045D01*
X149752535Y-70453328D01*
X149754166Y-70454541D01*
X149755848Y-70455669D01*
X149757547Y-70456717D01*
X149759290Y-70457664D01*
X149761086Y-70458541D01*
X149762909Y-70459340D01*
X149764776Y-70460038D01*
X149766678Y-70460671D01*
X149768622Y-70461220D01*
X149770610Y-70461671D01*
X149772625Y-70462046D01*
X149774690Y-70462340D01*
X149776785Y-70462544D01*
X149778932Y-70462675D01*
X149781114Y-70462718D01*
X149783292Y-70462675D01*
X149785441Y-70462544D01*
X149787548Y-70462341D01*
X149789640Y-70462046D01*
X149791675Y-70461671D01*
X149793689Y-70461220D01*
X149795664Y-70460674D01*
X149797607Y-70460038D01*
X149799520Y-70459340D01*
X149801393Y-70458542D01*
X149803229Y-70457666D01*
X149805038Y-70456717D01*
X149806808Y-70455669D01*
X149808542Y-70454543D01*
X149810243Y-70453329D01*
X149811907Y-70452045D01*
X149813431Y-70450573D01*
X149814852Y-70449019D01*
X149816175Y-70447380D01*
X149817398Y-70445642D01*
X149818528Y-70443797D01*
X149819569Y-70441872D01*
X149820479Y-70439848D01*
X149821322Y-70437727D01*
X149822059Y-70435533D01*
X149822696Y-70433224D01*
X149823232Y-70430834D01*
X149823670Y-70428345D01*
X149824021Y-70425765D01*
X149824258Y-70423087D01*
X149824406Y-70420328D01*
X149824452Y-70417463D01*
X149824452Y-70181246D01*
X149824406Y-70178389D01*
X149824258Y-70175631D01*
X149824021Y-70172970D01*
X149823671Y-70170401D01*
X149823232Y-70167941D01*
X149822696Y-70165582D01*
X149822059Y-70163307D01*
X149821322Y-70161140D01*
X149820479Y-70159061D01*
X149819569Y-70157093D01*
X149818528Y-70155216D01*
X149817398Y-70153449D01*
X149816175Y-70151764D01*
X149814852Y-70150182D01*
X149813431Y-70148701D01*
X149811907Y-70147309D01*
X149810235Y-70145950D01*
X149808542Y-70144661D01*
X149806808Y-70143466D01*
X149805038Y-70142365D01*
X149803229Y-70141346D01*
X149801393Y-70140423D01*
X149799520Y-70139578D01*
X149797607Y-70138823D01*
X149795664Y-70138173D01*
X149793689Y-70137584D01*
X149791675Y-70137109D01*
X149789640Y-70136705D01*
X149787548Y-70136392D01*
X149785441Y-70136168D01*
X149783292Y-70136040D01*
X149781114Y-70135990D01*
X149778932Y-70136040D01*
X149776785Y-70136168D01*
X149774690Y-70136392D01*
X149772625Y-70136705D01*
X149770610Y-70137109D01*
X149768622Y-70137584D01*
X149766678Y-70138173D01*
X149764776Y-70138823D01*
X149762909Y-70139578D01*
X149761087Y-70140423D01*
X149759290Y-70141346D01*
X149757547Y-70142365D01*
X149755848Y-70143466D01*
X149754166Y-70144661D01*
X149752535Y-70145950D01*
X149750944Y-70147309D01*
X149749358Y-70148701D01*
X149747856Y-70150182D01*
X149746470Y-70151764D01*
X149745181Y-70153449D01*
X149743993Y-70155216D01*
X149742913Y-70157093D01*
X149741934Y-70159064D01*
X149741053Y-70161140D01*
X149740286Y-70163307D01*
X149739610Y-70165582D01*
X149739044Y-70167941D01*
X149738583Y-70170401D01*
X149738219Y-70172970D01*
X149737967Y-70175631D01*
X149737806Y-70178389D01*
X149737761Y-70181244D01*
X149737761Y-70203857D01*
X149673672Y-70203857D01*
X149673673Y-70181246D01*
X149673708Y-70177884D01*
X149673817Y-70174597D01*
X149674003Y-70171333D01*
X149674259Y-70168128D01*
X149674592Y-70164968D01*
X149674999Y-70161864D01*
X149675469Y-70158796D01*
X149676025Y-70155789D01*
X149676644Y-70152834D01*
X149677358Y-70149921D01*
X149678127Y-70147059D01*
X149678971Y-70144235D01*
X149679887Y-70141476D01*
X149680877Y-70138767D01*
X149681951Y-70136096D01*
X149683091Y-70133483D01*
X149684288Y-70130917D01*
X149685537Y-70128400D01*
X149686821Y-70125946D01*
X149688160Y-70123544D01*
X149689537Y-70121200D01*
X149690957Y-70118898D01*
X149692420Y-70116667D01*
X149693934Y-70114478D01*
X149695484Y-70112345D01*
X149697083Y-70110270D01*
X149698731Y-70108242D01*
X149700418Y-70106279D01*
X149702142Y-70104362D01*
X149703922Y-70102491D01*
X149705742Y-70100694D01*
X149707605Y-70098936D01*
X149709583Y-70097306D01*
X149711590Y-70095737D01*
X149713632Y-70094202D01*
X149715687Y-70092734D01*
X149717787Y-70091300D01*
X149719911Y-70089925D01*
X149722076Y-70088599D01*
X149724255Y-70087310D01*
X149726466Y-70086091D01*
X149728710Y-70084907D01*
X149730981Y-70083775D01*
X149733287Y-70082687D01*
X149735622Y-70081655D01*
X149737982Y-70080675D01*
X149740363Y-70079725D01*
X149742786Y-70078843D01*
X149745155Y-70078007D01*
X149747512Y-70077221D01*
X149749882Y-70076486D01*
X149752258Y-70075817D01*
X149754631Y-70075190D01*
X149757015Y-70074630D01*
X149759396Y-70074111D01*
X149761794Y-70073640D01*
X149764192Y-70073238D01*
X149766588Y-70072886D01*
X149768995Y-70072589D01*
X149771408Y-70072340D01*
X149773833Y-70072154D01*
X149776245Y-70072020D01*
X149778674Y-70071934D01*
X149781114Y-70071901D01*
X149783545Y-70071934D01*
X149785982Y-70072020D01*
X149788414Y-70072154D01*
X149790851Y-70072340D01*
X149793280Y-70072589D01*
X149795722Y-70072886D01*
X149798157Y-70073238D01*
X149800580Y-70073640D01*
X149803025Y-70074111D01*
X149805457Y-70074630D01*
X149807893Y-70075190D01*
X149810323Y-70075817D01*
X149815202Y-70077226D01*
X149820064Y-70078843D01*
X149822410Y-70079725D01*
X149824717Y-70080675D01*
X149827006Y-70081655D01*
X149829260Y-70082687D01*
X149831480Y-70083775D01*
X149833676Y-70084907D01*
X149835834Y-70086091D01*
X149837974Y-70087313D01*
X149840081Y-70088599D01*
X149842161Y-70089925D01*
X149844205Y-70091300D01*
X149846225Y-70092734D01*
X149848208Y-70094202D01*
X149850169Y-70095737D01*
X149852101Y-70097306D01*
X149854002Y-70098936D01*
X149855939Y-70100694D01*
X149857829Y-70102491D01*
X149859666Y-70104362D01*
X149861455Y-70106279D01*
X149863203Y-70108242D01*
X149864885Y-70110270D01*
X149866535Y-70112345D01*
X149868127Y-70114478D01*
X149869681Y-70116667D01*
X149871170Y-70118898D01*
X149872616Y-70121201D01*
X149874019Y-70123546D01*
X149875366Y-70125946D01*
X149876670Y-70128400D01*
X149877919Y-70130917D01*
X149879123Y-70133483D01*
X149880271Y-70136096D01*
X149881342Y-70138767D01*
X149882327Y-70141476D01*
X149883243Y-70144235D01*
X149884089Y-70147059D01*
X149884866Y-70149921D01*
X149885567Y-70152834D01*
X149886192Y-70155789D01*
X149886735Y-70158796D01*
X149887217Y-70161864D01*
X149887623Y-70164968D01*
X149887953Y-70168128D01*
X149888206Y-70171333D01*
X149888402Y-70174595D01*
X149888508Y-70177884D01*
X149888543Y-70181246D01*
X149946978Y-70181246D01*
X149946978Y-70075680D01*
X150011069Y-70075680D01*
X150011069Y-70523020D01*
X150149036Y-70523020D01*
X150148745Y-70522949D01*
X150146301Y-70522212D01*
X150143883Y-70521420D01*
X150141480Y-70520556D01*
X150139094Y-70519628D01*
X150136723Y-70518644D01*
X150134391Y-70517595D01*
X150132087Y-70516501D01*
X150129807Y-70515364D01*
X150127578Y-70514162D01*
X150125369Y-70512916D01*
X150123206Y-70511623D01*
X150121070Y-70510283D01*
X150118968Y-70508894D01*
X150116906Y-70507454D01*
X150114870Y-70505967D01*
X150112873Y-70504430D01*
X150110911Y-70502834D01*
X150108985Y-70501202D01*
X150107091Y-70499516D01*
X150105230Y-70497787D01*
X150103407Y-70496000D01*
X150101634Y-70494179D01*
X150099908Y-70492326D01*
X150098230Y-70490448D01*
X150096615Y-70488545D01*
X150095053Y-70486607D01*
X150093540Y-70484631D01*
X150092084Y-70482640D01*
X150090684Y-70480600D01*
X150089336Y-70478549D01*
X150088049Y-70476467D01*
X150086803Y-70474351D01*
X150085612Y-70472206D01*
X150084485Y-70470028D01*
X150083410Y-70467822D01*
X150082387Y-70465591D01*
X150081412Y-70463326D01*
X150080421Y-70460956D01*
X150079502Y-70458564D01*
X150078641Y-70456150D01*
X150077845Y-70453707D01*
X150077112Y-70451240D01*
X150076443Y-70448750D01*
X150075838Y-70446239D01*
X150075297Y-70443692D01*
X150074816Y-70441132D01*
X150074408Y-70438541D01*
X150074056Y-70435929D01*
X150073763Y-70433289D01*
X150073543Y-70430627D01*
X150073378Y-70427935D01*
X150073292Y-70425228D01*
X150073255Y-70422494D01*
X150073255Y-70075680D01*
X150137342Y-70075680D01*
X150137342Y-70416213D01*
X150137386Y-70419142D01*
X150137517Y-70421981D01*
X150137735Y-70424714D01*
X150138047Y-70427360D01*
X150138447Y-70429904D01*
X150138938Y-70432345D01*
X150139517Y-70434697D01*
X150140177Y-70436940D01*
X150140924Y-70439089D01*
X150141764Y-70441145D01*
X150142696Y-70443098D01*
X150143709Y-70444953D01*
X150144819Y-70446712D01*
X150146007Y-70448372D01*
X150147279Y-70449935D01*
X150148660Y-70451398D01*
X150150095Y-70452767D01*
X150151575Y-70454051D01*
X150153102Y-70455234D01*
X150154666Y-70456339D01*
X150156280Y-70457355D01*
X150157936Y-70458287D01*
X150159638Y-70459128D01*
X150161374Y-70459884D01*
X150163158Y-70460546D01*
X150164995Y-70461124D01*
X150166868Y-70461602D01*
X150168790Y-70462007D01*
X150170759Y-70462315D01*
X150172760Y-70462538D01*
X150174816Y-70462675D01*
X150176913Y-70462718D01*
X150179014Y-70462675D01*
X150181073Y-70462538D01*
X150183082Y-70462315D01*
X150185045Y-70462007D01*
X150186965Y-70461602D01*
X150188848Y-70461124D01*
X150190677Y-70460546D01*
X150192474Y-70459884D01*
X150194215Y-70459128D01*
X150195918Y-70458288D01*
X150197582Y-70457355D01*
X150199189Y-70456339D01*
X150200753Y-70455234D01*
X150202285Y-70454051D01*
X150203763Y-70452767D01*
X150205200Y-70451398D01*
X150206562Y-70449935D01*
X150207849Y-70448372D01*
X150209043Y-70446712D01*
X150210150Y-70444953D01*
X150211171Y-70443098D01*
X150212090Y-70441145D01*
X150212938Y-70439089D01*
X150213690Y-70436940D01*
X150214346Y-70434697D01*
X150214924Y-70432345D01*
X150215412Y-70429904D01*
X150215808Y-70427360D01*
X150216121Y-70424714D01*
X150216339Y-70421981D01*
X150216472Y-70419141D01*
X150216517Y-70416206D01*
X150216517Y-70075677D01*
X150280605Y-70075677D01*
X150280605Y-70422494D01*
X150448971Y-70422494D01*
X150448971Y-70075677D01*
X150513056Y-70075680D01*
X150677620Y-70075680D01*
X150677674Y-70075677D01*
X150780724Y-70075680D01*
X150822168Y-70075680D01*
X150822168Y-70075677D01*
X151013168Y-70075680D01*
X151075376Y-70075680D01*
X151139468Y-70075680D01*
X151139470Y-70523024D01*
X151397043Y-70523024D01*
X151332991Y-70523020D01*
X151332991Y-70348348D01*
X151300314Y-70348348D01*
X151295893Y-70348297D01*
X151291573Y-70348169D01*
X151287367Y-70347922D01*
X151283266Y-70347599D01*
X151279278Y-70347181D01*
X151275387Y-70346665D01*
X151271614Y-70346063D01*
X151267945Y-70345365D01*
X151264381Y-70344573D01*
X151260920Y-70343684D01*
X151257585Y-70342706D01*
X151254345Y-70341635D01*
X151251217Y-70340470D01*
X151248196Y-70339216D01*
X151245287Y-70337857D01*
X151242484Y-70336416D01*
X151239769Y-70334801D01*
X151237124Y-70333126D01*
X151234547Y-70331372D01*
X151232045Y-70329537D01*
X151229608Y-70327641D01*
X151227236Y-70325659D01*
X151224943Y-70323619D01*
X151222706Y-70321495D01*
X151220547Y-70319296D01*
X151218442Y-70317036D01*
X151216423Y-70314688D01*
X151214469Y-70312276D01*
X151212577Y-70309786D01*
X151210771Y-70307226D01*
X151209010Y-70304576D01*
X151207333Y-70301864D01*
X151205947Y-70299585D01*
X151204627Y-70297282D01*
X151203374Y-70294954D01*
X151202181Y-70292599D01*
X151201050Y-70290231D01*
X151199983Y-70287851D01*
X151198988Y-70285435D01*
X151198049Y-70283020D01*
X151197176Y-70280572D01*
X151196357Y-70278109D01*
X151195616Y-70275619D01*
X151194934Y-70273123D01*
X151194318Y-70270592D01*
X151193757Y-70268060D01*
X151193273Y-70265484D01*
X151192851Y-70262914D01*
X151191968Y-70257587D01*
X151191209Y-70251949D01*
X151190557Y-70246042D01*
X151190037Y-70239811D01*
X151189627Y-70233303D01*
X151189332Y-70226512D01*
X151189165Y-70219403D01*
X151189103Y-70212018D01*
X151189202Y-70202232D01*
X151189494Y-70192966D01*
X151189975Y-70184246D01*
X151190665Y-70176059D01*
X151191545Y-70168388D01*
X151192611Y-70161259D01*
X151193227Y-70157884D01*
X151193890Y-70154643D01*
X151194601Y-70151544D01*
X151195363Y-70148571D01*
X151196185Y-70145607D01*
X151197097Y-70142695D01*
X151198076Y-70139836D01*
X151199140Y-70137023D01*
X151200283Y-70134260D01*
X151201505Y-70131539D01*
X151202794Y-70128879D01*
X151204168Y-70126261D01*
X151205620Y-70123698D01*
X151207158Y-70121180D01*
X151208768Y-70118705D01*
X151210461Y-70116288D01*
X151212232Y-70113915D01*
X151214076Y-70111592D01*
X151215996Y-70109315D01*
X151218008Y-70107106D01*
X151220059Y-70104937D01*
X151222137Y-70102864D01*
X151224260Y-70100875D01*
X151226406Y-70098962D01*
X151228584Y-70097142D01*
X151230784Y-70095398D01*
X151233017Y-70093745D01*
X151235289Y-70092167D01*
X151237585Y-70090679D01*
X151239904Y-70089275D01*
X151242250Y-70087949D01*
X151244633Y-70086705D01*
X151247044Y-70085548D01*
X151249478Y-70084472D01*
X151251949Y-70083482D01*
X151254450Y-70082584D01*
X151256989Y-70081748D01*
X151259572Y-70080962D01*
X151264893Y-70079558D01*
X151270401Y-70078377D01*
X151276117Y-70077406D01*
X151282029Y-70076652D01*
X151288123Y-70076108D01*
X151294429Y-70075793D01*
X151300925Y-70075680D01*
X151397043Y-70075680D01*
X151397043Y-70523024D01*
X151552549Y-70523024D01*
X151885871Y-69939035D01*
X151785539Y-69939958D01*
X151466439Y-69935218D01*
X148657531Y-69922131D01*
X148418761Y-69920023D01*
X148134628Y-69912656D01*
X148116932Y-69910658D01*
X148111489Y-69909582D01*
X148108043Y-69908439D01*
X148106334Y-69907236D01*
X148106145Y-69905968D01*
X148108585Y-69900754D01*
X148113204Y-69891858D01*
X149086329Y-68210545D01*
X149090729Y-68201396D01*
X149091875Y-68198584D01*
X149092267Y-68197053D01*
X149091876Y-68195514D01*
X149090749Y-68192696D01*
X149086399Y-68183532D01*
X148689988Y-67496199D01*
X148684673Y-67488584D01*
X148680479Y-67482994D01*
X148677468Y-67479558D01*
X148676435Y-67478691D01*
X148675723Y-67478391D01*
X148671734Y-67481582D01*
G36*
X151470083Y-70665626D02*
G01*
X146832921Y-70644517D01*
X146903408Y-70523024D01*
X147283063Y-70523024D01*
X147347150Y-70523024D01*
X147347150Y-70458938D01*
X147390497Y-70458938D01*
X147390497Y-70523024D01*
X147622945Y-70523024D01*
X147813940Y-70523024D01*
X147813940Y-70181244D01*
X147870487Y-70181244D01*
X147870487Y-70203857D01*
X147934578Y-70203858D01*
X147934575Y-70181244D01*
X147934617Y-70178389D01*
X147934775Y-70175631D01*
X147935035Y-70172970D01*
X147935397Y-70170401D01*
X147935871Y-70167941D01*
X147936431Y-70165582D01*
X147937103Y-70163307D01*
X147937881Y-70161140D01*
X147938758Y-70159064D01*
X147939741Y-70157093D01*
X147940824Y-70155216D01*
X147942009Y-70153449D01*
X147943304Y-70151764D01*
X147944700Y-70150182D01*
X147946191Y-70148701D01*
X147947788Y-70147309D01*
X147949384Y-70145950D01*
X147951011Y-70144661D01*
X147952676Y-70143466D01*
X147954390Y-70142365D01*
X147956139Y-70141347D01*
X147957924Y-70140423D01*
X147959749Y-70139578D01*
X147961610Y-70138823D01*
X147963516Y-70138173D01*
X147965461Y-70137584D01*
X147967446Y-70137110D01*
X147969467Y-70136705D01*
X147971528Y-70136392D01*
X147973632Y-70136168D01*
X147975772Y-70136040D01*
X147977958Y-70135990D01*
X147980137Y-70136040D01*
X147982279Y-70136168D01*
X147984384Y-70136392D01*
X147986476Y-70136705D01*
X147988511Y-70137107D01*
X147990520Y-70137584D01*
X147992490Y-70138173D01*
X147994425Y-70138823D01*
X147996332Y-70139578D01*
X147998208Y-70140423D01*
X148000049Y-70141347D01*
X148001849Y-70142365D01*
X148003614Y-70143466D01*
X148005353Y-70144661D01*
X148007051Y-70145950D01*
X148008716Y-70147309D01*
X148010235Y-70148701D01*
X148011665Y-70150182D01*
X148012988Y-70151764D01*
X148014216Y-70153449D01*
X148015347Y-70155216D01*
X148016374Y-70157093D01*
X148017316Y-70159061D01*
X148018149Y-70161140D01*
X148018881Y-70163307D01*
X148019518Y-70165582D01*
X148020063Y-70167941D01*
X148020503Y-70170401D01*
X148020852Y-70172970D01*
X148021102Y-70175631D01*
X148021247Y-70178389D01*
X148021296Y-70181246D01*
X148021296Y-70417463D01*
X148021247Y-70420328D01*
X148021102Y-70423087D01*
X148020852Y-70425765D01*
X148020503Y-70428345D01*
X148020063Y-70430834D01*
X148019518Y-70433224D01*
X148018881Y-70435533D01*
X148018149Y-70437727D01*
X148017316Y-70439848D01*
X148016374Y-70441872D01*
X148015347Y-70443797D01*
X148014216Y-70445640D01*
X148012989Y-70447379D01*
X148011665Y-70449019D01*
X148010235Y-70450573D01*
X148008716Y-70452045D01*
X148007051Y-70453328D01*
X148005353Y-70454543D01*
X148003614Y-70455669D01*
X148001849Y-70456717D01*
X148000049Y-70457666D01*
X147998208Y-70458541D01*
X147996332Y-70459340D01*
X147994425Y-70460038D01*
X147992490Y-70460671D01*
X147990520Y-70461220D01*
X147988511Y-70461671D01*
X147986476Y-70462046D01*
X147984384Y-70462340D01*
X147982274Y-70462544D01*
X147980129Y-70462675D01*
X147977956Y-70462718D01*
X147975771Y-70462675D01*
X147973631Y-70462544D01*
X147971528Y-70462341D01*
X147969467Y-70462046D01*
X147967445Y-70461671D01*
X147965461Y-70461220D01*
X147963516Y-70460674D01*
X147961610Y-70460038D01*
X147959749Y-70459340D01*
X147957924Y-70458541D01*
X147956139Y-70457666D01*
X147954390Y-70456717D01*
X147952676Y-70455669D01*
X147951011Y-70454543D01*
X147949384Y-70453328D01*
X147947788Y-70452045D01*
X147946191Y-70450573D01*
X147944700Y-70449019D01*
X147943304Y-70447378D01*
X147942009Y-70445640D01*
X147940824Y-70443796D01*
X147939741Y-70441872D01*
X147938758Y-70439848D01*
X147937881Y-70437727D01*
X147937103Y-70435533D01*
X147936432Y-70433224D01*
X147935871Y-70430834D01*
X147935397Y-70428345D01*
X147935035Y-70425762D01*
X147934775Y-70423087D01*
X147934620Y-70420328D01*
X147934575Y-70417463D01*
X147934575Y-70333288D01*
X147985467Y-70333288D01*
X147985467Y-70276746D01*
X147870487Y-70276746D01*
X147870487Y-70417463D01*
X147870521Y-70420971D01*
X147870633Y-70424405D01*
X147870821Y-70427785D01*
X147871074Y-70431097D01*
X147871408Y-70434328D01*
X147871816Y-70437523D01*
X147872295Y-70440642D01*
X147872854Y-70443692D01*
X147873482Y-70446689D01*
X147874177Y-70449620D01*
X147874960Y-70452478D01*
X147875809Y-70455280D01*
X147876720Y-70458011D01*
X147877725Y-70460692D01*
X147878790Y-70463300D01*
X147879928Y-70465842D01*
X147881130Y-70468330D01*
X147882372Y-70470762D01*
X147883667Y-70473145D01*
X147885004Y-70475464D01*
X147886369Y-70477743D01*
X147887789Y-70479956D01*
X147889249Y-70482122D01*
X147890755Y-70484228D01*
X147892313Y-70486290D01*
X147893902Y-70488289D01*
X147895544Y-70490235D01*
X147897233Y-70492136D01*
X147898955Y-70493966D01*
X147900727Y-70495753D01*
X147902553Y-70497480D01*
X147904412Y-70499158D01*
X147906392Y-70500861D01*
X147908390Y-70502503D01*
X147910431Y-70504099D01*
X147912502Y-70505638D01*
X147914599Y-70507115D01*
X147916727Y-70508544D01*
X147918884Y-70509923D01*
X147921067Y-70511242D01*
X147923273Y-70512501D01*
X147925523Y-70513721D01*
X147927795Y-70514876D01*
X147930097Y-70515984D01*
X147932428Y-70517035D01*
X147934791Y-70518038D01*
X147937180Y-70518975D01*
X147939600Y-70519860D01*
X147941964Y-70520703D01*
X147944324Y-70521492D01*
X147946692Y-70522222D01*
X147949070Y-70522890D01*
X147949576Y-70523024D01*
X147951446Y-70523528D01*
X147953820Y-70524085D01*
X147956214Y-70524594D01*
X147958622Y-70525059D01*
X147961013Y-70525466D01*
X147963416Y-70525816D01*
X147965825Y-70526111D01*
X147968246Y-70526362D01*
X147970660Y-70526559D01*
X147973084Y-70526694D01*
X147975516Y-70526783D01*
X147977956Y-70526798D01*
X147980383Y-70526783D01*
X147982814Y-70526699D01*
X147985256Y-70526559D01*
X147987686Y-70526362D01*
X147990114Y-70526111D01*
X147992545Y-70525816D01*
X147994978Y-70525473D01*
X147997410Y-70525059D01*
X147999848Y-70524594D01*
X148002272Y-70524085D01*
X148004706Y-70523523D01*
X148006628Y-70523024D01*
X148139402Y-70523024D01*
X148199721Y-70523024D01*
X148297732Y-70254102D01*
X148298998Y-70254102D01*
X148298996Y-70523024D01*
X148363078Y-70523024D01*
X148391978Y-70523024D01*
X148456064Y-70523024D01*
X148474900Y-70426876D01*
X148562237Y-70426876D01*
X148581081Y-70523020D01*
X148645160Y-70523024D01*
X148630851Y-70458938D01*
X148657738Y-70458938D01*
X148657738Y-70523024D01*
X148848736Y-70523024D01*
X148848736Y-70181244D01*
X148905279Y-70181244D01*
X148905279Y-70417467D01*
X148905324Y-70420971D01*
X148905433Y-70424405D01*
X148905612Y-70427785D01*
X148905877Y-70431097D01*
X148906195Y-70434328D01*
X148906601Y-70437523D01*
X148907080Y-70440642D01*
X148907641Y-70443692D01*
X148908267Y-70446689D01*
X148908960Y-70449620D01*
X148909736Y-70452478D01*
X148910579Y-70455275D01*
X148911498Y-70458011D01*
X148912486Y-70460692D01*
X148913557Y-70463300D01*
X148914706Y-70465842D01*
X148915897Y-70468330D01*
X148917141Y-70470758D01*
X148918440Y-70473145D01*
X148919768Y-70475464D01*
X148921153Y-70477743D01*
X148922564Y-70479956D01*
X148924027Y-70482122D01*
X148925541Y-70484230D01*
X148927092Y-70486290D01*
X148928694Y-70488290D01*
X148930334Y-70490235D01*
X148932025Y-70492136D01*
X148933759Y-70493966D01*
X148935539Y-70495754D01*
X148937348Y-70497480D01*
X148939207Y-70499158D01*
X148941195Y-70500861D01*
X148943204Y-70502503D01*
X148945232Y-70504099D01*
X148947295Y-70505638D01*
X148949397Y-70507115D01*
X148951526Y-70508545D01*
X148953679Y-70509925D01*
X148955863Y-70511242D01*
X148958076Y-70512501D01*
X148960322Y-70513722D01*
X148962590Y-70514881D01*
X148964891Y-70515984D01*
X148967230Y-70517035D01*
X148969583Y-70518039D01*
X148971977Y-70518981D01*
X148974400Y-70519861D01*
X148976751Y-70520704D01*
X148979127Y-70521492D01*
X148981486Y-70522222D01*
X148983859Y-70522891D01*
X148984371Y-70523024D01*
X148986240Y-70523528D01*
X148988620Y-70524085D01*
X148991009Y-70524594D01*
X148993405Y-70525059D01*
X148995792Y-70525466D01*
X148998201Y-70525816D01*
X149000609Y-70526111D01*
X149003022Y-70526362D01*
X149005433Y-70526559D01*
X149007858Y-70526694D01*
X149010285Y-70526782D01*
X149012715Y-70526798D01*
X149015152Y-70526782D01*
X149017585Y-70526694D01*
X149020021Y-70526559D01*
X149022456Y-70526362D01*
X149024895Y-70526111D01*
X149027321Y-70525816D01*
X149029764Y-70525473D01*
X149032199Y-70525059D01*
X149034634Y-70524594D01*
X149037067Y-70524085D01*
X149039502Y-70523528D01*
X149041933Y-70522890D01*
X149046811Y-70521492D01*
X149051672Y-70519860D01*
X149054021Y-70518975D01*
X149056331Y-70518039D01*
X149058617Y-70517035D01*
X149060868Y-70515984D01*
X149063088Y-70514876D01*
X149065280Y-70513722D01*
X149067446Y-70512501D01*
X149069584Y-70511242D01*
X149071691Y-70509925D01*
X149073769Y-70508545D01*
X149075814Y-70507115D01*
X149077833Y-70505639D01*
X149079818Y-70504099D01*
X149081771Y-70502503D01*
X149083709Y-70500861D01*
X149085605Y-70499158D01*
X149087548Y-70497480D01*
X149089434Y-70495754D01*
X149091271Y-70493966D01*
X149093066Y-70492136D01*
X149094806Y-70490235D01*
X149096496Y-70488290D01*
X149098150Y-70486290D01*
X149099738Y-70484228D01*
X149101281Y-70482121D01*
X149102778Y-70479956D01*
X149104236Y-70477743D01*
X149105624Y-70475464D01*
X149106982Y-70473145D01*
X149108285Y-70470758D01*
X149109533Y-70468330D01*
X149110737Y-70465842D01*
X149111870Y-70463300D01*
X149112942Y-70460692D01*
X149113931Y-70458011D01*
X149114853Y-70455275D01*
X149115701Y-70452478D01*
X149116473Y-70449619D01*
X149117172Y-70446689D01*
X149117804Y-70443692D01*
X149118351Y-70440642D01*
X149118827Y-70437523D01*
X149119229Y-70434328D01*
X149119563Y-70431097D01*
X149119820Y-70427785D01*
X149120002Y-70424405D01*
X149120116Y-70420971D01*
X149120151Y-70417463D01*
X149120151Y-70203857D01*
X149168538Y-70203857D01*
X149232615Y-70203858D01*
X149232615Y-70182503D01*
X149232660Y-70180162D01*
X149232785Y-70177868D01*
X149232988Y-70175618D01*
X149233285Y-70173392D01*
X149233662Y-70171208D01*
X149234107Y-70169072D01*
X149234662Y-70166964D01*
X149235279Y-70164899D01*
X149235996Y-70162883D01*
X149236778Y-70160908D01*
X149237660Y-70158956D01*
X149238619Y-70157049D01*
X149239661Y-70155196D01*
X149240788Y-70153365D01*
X149241994Y-70151584D01*
X149243292Y-70149835D01*
X149244663Y-70148154D01*
X149246079Y-70146592D01*
X149247561Y-70145122D01*
X149249107Y-70143778D01*
X149250699Y-70142535D01*
X149252364Y-70141402D01*
X149254079Y-70140378D01*
X149255849Y-70139459D01*
X149257694Y-70138646D01*
X149259585Y-70137941D01*
X149261536Y-70137351D01*
X149263556Y-70136864D01*
X149265617Y-70136480D01*
X149267762Y-70136214D01*
X149269936Y-70136050D01*
X149272187Y-70135990D01*
X149275111Y-70136054D01*
X149277915Y-70136228D01*
X149280593Y-70136526D01*
X149283144Y-70136940D01*
X149285583Y-70137460D01*
X149287888Y-70138122D01*
X149290082Y-70138881D01*
X149292142Y-70139768D01*
X149294094Y-70140774D01*
X149295916Y-70141888D01*
X149297614Y-70143127D01*
X149299180Y-70144493D01*
X149300635Y-70145962D01*
X149301957Y-70147551D01*
X149303164Y-70149259D01*
X149304245Y-70151087D01*
X149305158Y-70152927D01*
X149306019Y-70154823D01*
X149306808Y-70156788D01*
X149307547Y-70158815D01*
X149308219Y-70160916D01*
X149308838Y-70163075D01*
X149309394Y-70165289D01*
X149309887Y-70167582D01*
X149310329Y-70169919D01*
X149310714Y-70172331D01*
X149311036Y-70174807D01*
X149311300Y-70177353D01*
X149311496Y-70179955D01*
X149311652Y-70182621D01*
X149311742Y-70185351D01*
X149311771Y-70188153D01*
X149311771Y-70416847D01*
X149311726Y-70419265D01*
X149311641Y-70421620D01*
X149311477Y-70423930D01*
X149311257Y-70426198D01*
X149310971Y-70428408D01*
X149310613Y-70430569D01*
X149310204Y-70432693D01*
X149309726Y-70434757D01*
X149309186Y-70436768D01*
X149308580Y-70438741D01*
X149307904Y-70440660D01*
X149307180Y-70442543D01*
X149306374Y-70444348D01*
X149305516Y-70446135D01*
X149304597Y-70447850D01*
X149303604Y-70449524D01*
X149303048Y-70450335D01*
X149302457Y-70451116D01*
X149301837Y-70451879D01*
X149301200Y-70452614D01*
X149300534Y-70453318D01*
X149299833Y-70454008D01*
X149299132Y-70454664D01*
X149298382Y-70455291D01*
X149297620Y-70455903D01*
X149296830Y-70456476D01*
X149296005Y-70457031D01*
X149295157Y-70457565D01*
X149294282Y-70458062D01*
X149293391Y-70458536D01*
X149292463Y-70458992D01*
X149291512Y-70459418D01*
X149290544Y-70459824D01*
X149289544Y-70460191D01*
X149288524Y-70460542D01*
X149287470Y-70460865D01*
X149285284Y-70461427D01*
X149283006Y-70461891D01*
X149280617Y-70462246D01*
X149278126Y-70462509D01*
X149275535Y-70462666D01*
X149272837Y-70462718D01*
X149271252Y-70462686D01*
X149269656Y-70462599D01*
X149268035Y-70462445D01*
X149266401Y-70462232D01*
X149264734Y-70461965D01*
X149263061Y-70461633D01*
X149261367Y-70461249D01*
X149259643Y-70460816D01*
X149258709Y-70460491D01*
X149257774Y-70460145D01*
X149256863Y-70459778D01*
X149255945Y-70459401D01*
X149255050Y-70459001D01*
X149254158Y-70458584D01*
X149253288Y-70458139D01*
X149252413Y-70457678D01*
X149251551Y-70457201D01*
X149250696Y-70456709D01*
X149249864Y-70456194D01*
X149249032Y-70455650D01*
X149248209Y-70455091D01*
X149247400Y-70454514D01*
X149246599Y-70453911D01*
X149245808Y-70453294D01*
X149245110Y-70452650D01*
X149244423Y-70451979D01*
X149243761Y-70451276D01*
X149243093Y-70450543D01*
X149242458Y-70449786D01*
X149241835Y-70448991D01*
X149241227Y-70448169D01*
X149240623Y-70447316D01*
X149240048Y-70446441D01*
X149239477Y-70445533D01*
X149238928Y-70444589D01*
X149238390Y-70443631D01*
X149237867Y-70442625D01*
X149237363Y-70441596D01*
X149236868Y-70440544D01*
X149236401Y-70439461D01*
X149235931Y-70438341D01*
X149235509Y-70437195D01*
X149235107Y-70436007D01*
X149234740Y-70434780D01*
X149234406Y-70433532D01*
X149234092Y-70432249D01*
X149233813Y-70430917D01*
X149233559Y-70429559D01*
X149233342Y-70428164D01*
X149233146Y-70426744D01*
X149232983Y-70425285D01*
X149232857Y-70423787D01*
X149232752Y-70422266D01*
X149232676Y-70420701D01*
X149232626Y-70419093D01*
X149232615Y-70417463D01*
X149232615Y-70395472D01*
X149168538Y-70395472D01*
X149168538Y-70423132D01*
X149168563Y-70425721D01*
X149168660Y-70428298D01*
X149168824Y-70430852D01*
X149169038Y-70433386D01*
X149169320Y-70435914D01*
X149169669Y-70438418D01*
X149170085Y-70440924D01*
X149170567Y-70443397D01*
X149171106Y-70445862D01*
X149171710Y-70448320D01*
X149172387Y-70450750D01*
X149173119Y-70453173D01*
X149173913Y-70455580D01*
X149174781Y-70457968D01*
X149175699Y-70460352D01*
X149176690Y-70462718D01*
X149177657Y-70464979D01*
X149178679Y-70467210D01*
X149179746Y-70469424D01*
X149180859Y-70471588D01*
X149182016Y-70473738D01*
X149183239Y-70475845D01*
X149184500Y-70477942D01*
X149185811Y-70479993D01*
X149187175Y-70482020D01*
X149188585Y-70484013D01*
X149190042Y-70485987D01*
X149191555Y-70487929D01*
X149193113Y-70489831D01*
X149194717Y-70491713D01*
X149196367Y-70493569D01*
X149198077Y-70495387D01*
X149199820Y-70497167D01*
X149201609Y-70498909D01*
X149203432Y-70500602D01*
X149205303Y-70502250D01*
X149207201Y-70503866D01*
X149209145Y-70505432D01*
X149211129Y-70506955D01*
X149213154Y-70508428D01*
X149215213Y-70509858D01*
X149217316Y-70511246D01*
X149219449Y-70512587D01*
X149221634Y-70513891D01*
X149223850Y-70515143D01*
X149226112Y-70516349D01*
X149228410Y-70517522D01*
X149230755Y-70518644D01*
X149233033Y-70519628D01*
X149235347Y-70520556D01*
X149237692Y-70521420D01*
X149240054Y-70522212D01*
X149242431Y-70522949D01*
X149244850Y-70523613D01*
X149247283Y-70524223D01*
X149249746Y-70524762D01*
X149252240Y-70525240D01*
X149254742Y-70525652D01*
X149257283Y-70526010D01*
X149259833Y-70526295D01*
X149262426Y-70526526D01*
X149265027Y-70526675D01*
X149267661Y-70526777D01*
X149270324Y-70526798D01*
X149274882Y-70526721D01*
X149279463Y-70526483D01*
X149284067Y-70526087D01*
X149288689Y-70525544D01*
X149293329Y-70524829D01*
X149297992Y-70523967D01*
X149302324Y-70523024D01*
X149551148Y-70523024D01*
X149615228Y-70523024D01*
X149615228Y-70203857D01*
X149673672Y-70203857D01*
X149737761Y-70203857D01*
X149737761Y-70181244D01*
X149737806Y-70178389D01*
X149737967Y-70175631D01*
X149738219Y-70172970D01*
X149738583Y-70170401D01*
X149739044Y-70167941D01*
X149739610Y-70165582D01*
X149740286Y-70163307D01*
X149741053Y-70161140D01*
X149741934Y-70159064D01*
X149742913Y-70157093D01*
X149743993Y-70155216D01*
X149745181Y-70153449D01*
X149746470Y-70151764D01*
X149747856Y-70150182D01*
X149749358Y-70148701D01*
X149750944Y-70147309D01*
X149752535Y-70145950D01*
X149754166Y-70144661D01*
X149755848Y-70143466D01*
X149757547Y-70142365D01*
X149759290Y-70141346D01*
X149761087Y-70140423D01*
X149762909Y-70139578D01*
X149764776Y-70138823D01*
X149766678Y-70138173D01*
X149768622Y-70137584D01*
X149770610Y-70137109D01*
X149772625Y-70136705D01*
X149774690Y-70136392D01*
X149776785Y-70136168D01*
X149778932Y-70136040D01*
X149781114Y-70135990D01*
X149783292Y-70136040D01*
X149785441Y-70136168D01*
X149787548Y-70136392D01*
X149789640Y-70136705D01*
X149791675Y-70137109D01*
X149793689Y-70137584D01*
X149795664Y-70138173D01*
X149797607Y-70138823D01*
X149799520Y-70139578D01*
X149801393Y-70140423D01*
X149803229Y-70141346D01*
X149805038Y-70142365D01*
X149806808Y-70143466D01*
X149808542Y-70144661D01*
X149810235Y-70145950D01*
X149811907Y-70147309D01*
X149813431Y-70148701D01*
X149814852Y-70150182D01*
X149816175Y-70151764D01*
X149817398Y-70153449D01*
X149818528Y-70155216D01*
X149819569Y-70157093D01*
X149820479Y-70159061D01*
X149821322Y-70161140D01*
X149822059Y-70163307D01*
X149822696Y-70165582D01*
X149823232Y-70167941D01*
X149823671Y-70170401D01*
X149824021Y-70172970D01*
X149824258Y-70175631D01*
X149824406Y-70178389D01*
X149824452Y-70181246D01*
X149824452Y-70417463D01*
X149824406Y-70420328D01*
X149824258Y-70423087D01*
X149824021Y-70425765D01*
X149823670Y-70428345D01*
X149823232Y-70430834D01*
X149822696Y-70433224D01*
X149822059Y-70435533D01*
X149821322Y-70437727D01*
X149820479Y-70439848D01*
X149819569Y-70441872D01*
X149818528Y-70443797D01*
X149817398Y-70445642D01*
X149816175Y-70447380D01*
X149814852Y-70449019D01*
X149813431Y-70450573D01*
X149811907Y-70452045D01*
X149810243Y-70453329D01*
X149808542Y-70454543D01*
X149806808Y-70455669D01*
X149805038Y-70456717D01*
X149803229Y-70457666D01*
X149801393Y-70458542D01*
X149799520Y-70459340D01*
X149797607Y-70460038D01*
X149795664Y-70460674D01*
X149793689Y-70461220D01*
X149791675Y-70461671D01*
X149789640Y-70462046D01*
X149787548Y-70462341D01*
X149785441Y-70462544D01*
X149783292Y-70462675D01*
X149781114Y-70462718D01*
X149778932Y-70462675D01*
X149776785Y-70462544D01*
X149774690Y-70462340D01*
X149772625Y-70462046D01*
X149770610Y-70461671D01*
X149768622Y-70461220D01*
X149766678Y-70460671D01*
X149764776Y-70460038D01*
X149762909Y-70459340D01*
X149761086Y-70458541D01*
X149759290Y-70457664D01*
X149757547Y-70456717D01*
X149755848Y-70455669D01*
X149754166Y-70454541D01*
X149752535Y-70453328D01*
X149750944Y-70452045D01*
X149749358Y-70450573D01*
X149747856Y-70449019D01*
X149746464Y-70447379D01*
X149745181Y-70445640D01*
X149743993Y-70443797D01*
X149742913Y-70441872D01*
X149741934Y-70439848D01*
X149741049Y-70437727D01*
X149740285Y-70435533D01*
X149739610Y-70433224D01*
X149739044Y-70430834D01*
X149738583Y-70428345D01*
X149738219Y-70425766D01*
X149737967Y-70423088D01*
X149737806Y-70420333D01*
X149737761Y-70417467D01*
X149737761Y-70333288D01*
X149788655Y-70333288D01*
X149788655Y-70276746D01*
X149673673Y-70276746D01*
X149673673Y-70417463D01*
X149673708Y-70420971D01*
X149673817Y-70424405D01*
X149674003Y-70427785D01*
X149674259Y-70431097D01*
X149674592Y-70434328D01*
X149674999Y-70437523D01*
X149675469Y-70440642D01*
X149676025Y-70443692D01*
X149676644Y-70446689D01*
X149677358Y-70449620D01*
X149678127Y-70452478D01*
X149678971Y-70455280D01*
X149679887Y-70458011D01*
X149680877Y-70460692D01*
X149681951Y-70463300D01*
X149683091Y-70465842D01*
X149684288Y-70468330D01*
X149685537Y-70470758D01*
X149686821Y-70473145D01*
X149688160Y-70475464D01*
X149689537Y-70477743D01*
X149690957Y-70479956D01*
X149692420Y-70482122D01*
X149693934Y-70484230D01*
X149695484Y-70486290D01*
X149697083Y-70488290D01*
X149698731Y-70490235D01*
X149700418Y-70492136D01*
X149702142Y-70493966D01*
X149703922Y-70495753D01*
X149705742Y-70497479D01*
X149707605Y-70499158D01*
X149709583Y-70500861D01*
X149711590Y-70502503D01*
X149713632Y-70504098D01*
X149715687Y-70505638D01*
X149717787Y-70507115D01*
X149719911Y-70508544D01*
X149722076Y-70509925D01*
X149724255Y-70511242D01*
X149726466Y-70512501D01*
X149728710Y-70513722D01*
X149730981Y-70514876D01*
X149733287Y-70515984D01*
X149735622Y-70517035D01*
X149737982Y-70518039D01*
X149740363Y-70518981D01*
X149742786Y-70519860D01*
X149745155Y-70520703D01*
X149747512Y-70521492D01*
X149749882Y-70522222D01*
X149752261Y-70522890D01*
X149752763Y-70523024D01*
X149754631Y-70523528D01*
X149757015Y-70524085D01*
X149759396Y-70524594D01*
X149761794Y-70525059D01*
X149764193Y-70525466D01*
X149766588Y-70525816D01*
X149768995Y-70526111D01*
X149771408Y-70526362D01*
X149773833Y-70526559D01*
X149776245Y-70526699D01*
X149778674Y-70526783D01*
X149781114Y-70526798D01*
X149783545Y-70526783D01*
X149785982Y-70526694D01*
X149788414Y-70526559D01*
X149790851Y-70526362D01*
X149793280Y-70526111D01*
X149795722Y-70525816D01*
X149798157Y-70525466D01*
X149800590Y-70525059D01*
X149803025Y-70524594D01*
X149805457Y-70524085D01*
X149807893Y-70523523D01*
X149809811Y-70523024D01*
X149946978Y-70523024D01*
X150011069Y-70523020D01*
X150011069Y-70075680D01*
X150073255Y-70075680D01*
X150073255Y-70422494D01*
X150073292Y-70425228D01*
X150073378Y-70427935D01*
X150073543Y-70430627D01*
X150073763Y-70433289D01*
X150074056Y-70435929D01*
X150074408Y-70438541D01*
X150074816Y-70441132D01*
X150075297Y-70443692D01*
X150075838Y-70446239D01*
X150076443Y-70448750D01*
X150077112Y-70451240D01*
X150077845Y-70453707D01*
X150078641Y-70456150D01*
X150079502Y-70458564D01*
X150080421Y-70460956D01*
X150081412Y-70463326D01*
X150082387Y-70465591D01*
X150083410Y-70467822D01*
X150084485Y-70470028D01*
X150085612Y-70472206D01*
X150086803Y-70474351D01*
X150088049Y-70476467D01*
X150089336Y-70478549D01*
X150090684Y-70480600D01*
X150092084Y-70482640D01*
X150093540Y-70484631D01*
X150095053Y-70486607D01*
X150096615Y-70488545D01*
X150098230Y-70490448D01*
X150099908Y-70492326D01*
X150101634Y-70494179D01*
X150103407Y-70496000D01*
X150105230Y-70497787D01*
X150107091Y-70499516D01*
X150108985Y-70501202D01*
X150110911Y-70502834D01*
X150112873Y-70504430D01*
X150114870Y-70505967D01*
X150116906Y-70507454D01*
X150118968Y-70508894D01*
X150121070Y-70510283D01*
X150123206Y-70511623D01*
X150125369Y-70512916D01*
X150127578Y-70514162D01*
X150129807Y-70515364D01*
X150132087Y-70516501D01*
X150134391Y-70517595D01*
X150136723Y-70518644D01*
X150139094Y-70519628D01*
X150141480Y-70520556D01*
X150143883Y-70521420D01*
X150146301Y-70522212D01*
X150148745Y-70522949D01*
X150149036Y-70523020D01*
X150151208Y-70523613D01*
X150153696Y-70524223D01*
X150156194Y-70524762D01*
X150158713Y-70525240D01*
X150161256Y-70525652D01*
X150163810Y-70526010D01*
X150166396Y-70526295D01*
X150168993Y-70526526D01*
X150171613Y-70526674D01*
X150174253Y-70526776D01*
X150176913Y-70526798D01*
X150179576Y-70526776D01*
X150182211Y-70526674D01*
X150184834Y-70526526D01*
X150187445Y-70526295D01*
X150190019Y-70526010D01*
X150192591Y-70525652D01*
X150195132Y-70525240D01*
X150197651Y-70524762D01*
X150200157Y-70524223D01*
X150202644Y-70523613D01*
X150205105Y-70522949D01*
X150207552Y-70522212D01*
X150209977Y-70521420D01*
X150212376Y-70520556D01*
X150214760Y-70519628D01*
X150217132Y-70518644D01*
X150219391Y-70517595D01*
X150221627Y-70516501D01*
X150223832Y-70515364D01*
X150226014Y-70514162D01*
X150228158Y-70512916D01*
X150230267Y-70511623D01*
X150232353Y-70510279D01*
X150234410Y-70508894D01*
X150236439Y-70507449D01*
X150238437Y-70505967D01*
X150240405Y-70504430D01*
X150242347Y-70502832D01*
X150244255Y-70501202D01*
X150246129Y-70499516D01*
X150247978Y-70497786D01*
X150249811Y-70496000D01*
X150251587Y-70494179D01*
X150253322Y-70492326D01*
X150255003Y-70490448D01*
X150256634Y-70488545D01*
X150258221Y-70486607D01*
X150259757Y-70484631D01*
X150261242Y-70482640D01*
X150262682Y-70480601D01*
X150264070Y-70478551D01*
X150265410Y-70476467D01*
X150266695Y-70474351D01*
X150267942Y-70472206D01*
X150269130Y-70470032D01*
X150270270Y-70467822D01*
X150271373Y-70465591D01*
X150272420Y-70463326D01*
X150273401Y-70460956D01*
X150274189Y-70458938D01*
X150322055Y-70458938D01*
X150322055Y-70523024D01*
X150513056Y-70523024D01*
X150550758Y-70523024D01*
X150618618Y-70523024D01*
X150678288Y-70332026D01*
X150716632Y-70332026D01*
X150716632Y-70523024D01*
X150780724Y-70523024D01*
X150780724Y-70135990D01*
X150822168Y-70135990D01*
X150949085Y-70135990D01*
X150949085Y-70267320D01*
X150838514Y-70267320D01*
X150838516Y-70327638D01*
X150949085Y-70327638D01*
X150949085Y-70458938D01*
X150822168Y-70458938D01*
X150822168Y-70523024D01*
X151013168Y-70523020D01*
X151013168Y-70075680D01*
X151075376Y-70075680D01*
X151075376Y-70523020D01*
X151139470Y-70523024D01*
X151139469Y-70212018D01*
X151189103Y-70212018D01*
X151189165Y-70219403D01*
X151189332Y-70226512D01*
X151189627Y-70233303D01*
X151190037Y-70239811D01*
X151190557Y-70246042D01*
X151191209Y-70251949D01*
X151191968Y-70257587D01*
X151192851Y-70262914D01*
X151193273Y-70265484D01*
X151193757Y-70268060D01*
X151194318Y-70270592D01*
X151194934Y-70273123D01*
X151195616Y-70275619D01*
X151196357Y-70278109D01*
X151197176Y-70280572D01*
X151198049Y-70283020D01*
X151198988Y-70285435D01*
X151199983Y-70287851D01*
X151201050Y-70290231D01*
X151202181Y-70292599D01*
X151203374Y-70294954D01*
X151204627Y-70297282D01*
X151205947Y-70299585D01*
X151207333Y-70301864D01*
X151209010Y-70304576D01*
X151210771Y-70307226D01*
X151212577Y-70309786D01*
X151214469Y-70312276D01*
X151216423Y-70314688D01*
X151218442Y-70317036D01*
X151220547Y-70319296D01*
X151222706Y-70321495D01*
X151224943Y-70323619D01*
X151227236Y-70325659D01*
X151229608Y-70327641D01*
X151232045Y-70329537D01*
X151234547Y-70331372D01*
X151237124Y-70333126D01*
X151239769Y-70334801D01*
X151242484Y-70336416D01*
X151245287Y-70337857D01*
X151248196Y-70339216D01*
X151251217Y-70340470D01*
X151254345Y-70341635D01*
X151257585Y-70342706D01*
X151260920Y-70343684D01*
X151264381Y-70344573D01*
X151267945Y-70345365D01*
X151271614Y-70346063D01*
X151275387Y-70346665D01*
X151279278Y-70347181D01*
X151283266Y-70347599D01*
X151287367Y-70347922D01*
X151291573Y-70348169D01*
X151295893Y-70348297D01*
X151300314Y-70348348D01*
X151332991Y-70348348D01*
X151332991Y-70523020D01*
X151397043Y-70523024D01*
X151397043Y-70075680D01*
X151300925Y-70075680D01*
X151294429Y-70075793D01*
X151288123Y-70076108D01*
X151282029Y-70076652D01*
X151276117Y-70077406D01*
X151270401Y-70078377D01*
X151264893Y-70079558D01*
X151259572Y-70080962D01*
X151256989Y-70081748D01*
X151254450Y-70082584D01*
X151251949Y-70083482D01*
X151249478Y-70084472D01*
X151247044Y-70085548D01*
X151244633Y-70086705D01*
X151242250Y-70087949D01*
X151239904Y-70089275D01*
X151237585Y-70090679D01*
X151235289Y-70092167D01*
X151233017Y-70093745D01*
X151230784Y-70095398D01*
X151228584Y-70097142D01*
X151226406Y-70098962D01*
X151224260Y-70100875D01*
X151222137Y-70102864D01*
X151220059Y-70104937D01*
X151218008Y-70107106D01*
X151215996Y-70109315D01*
X151214076Y-70111592D01*
X151212232Y-70113915D01*
X151210461Y-70116288D01*
X151208768Y-70118705D01*
X151207158Y-70121180D01*
X151205620Y-70123698D01*
X151204168Y-70126261D01*
X151202794Y-70128879D01*
X151201505Y-70131539D01*
X151200283Y-70134260D01*
X151199140Y-70137023D01*
X151198076Y-70139836D01*
X151197097Y-70142695D01*
X151196185Y-70145607D01*
X151195363Y-70148571D01*
X151194601Y-70151544D01*
X151193890Y-70154643D01*
X151193227Y-70157884D01*
X151192611Y-70161259D01*
X151191545Y-70168388D01*
X151190665Y-70176059D01*
X151189975Y-70184246D01*
X151189494Y-70192966D01*
X151189202Y-70202232D01*
X151189103Y-70212018D01*
X151139469Y-70212018D01*
X151139468Y-70075680D01*
X151075376Y-70075680D01*
X151013168Y-70075680D01*
X150822168Y-70075677D01*
X150822168Y-70075680D01*
X150822168Y-70135990D01*
X150780724Y-70135990D01*
X150780724Y-70075680D01*
X150677674Y-70075677D01*
X150677620Y-70075680D01*
X150670718Y-70075813D01*
X150663975Y-70076190D01*
X150657469Y-70076835D01*
X150651172Y-70077732D01*
X150645095Y-70078884D01*
X150639244Y-70080302D01*
X150633608Y-70081957D01*
X150628199Y-70083883D01*
X150623001Y-70086066D01*
X150618036Y-70088503D01*
X150613287Y-70091194D01*
X150608750Y-70094142D01*
X150604456Y-70097351D01*
X150600361Y-70100818D01*
X150596499Y-70104531D01*
X150592855Y-70108499D01*
X150589436Y-70112736D01*
X150586232Y-70117224D01*
X150583257Y-70121968D01*
X150580489Y-70126969D01*
X150577948Y-70132222D01*
X150575637Y-70137736D01*
X150573539Y-70143509D01*
X150571650Y-70149527D01*
X150570003Y-70155812D01*
X150568566Y-70162356D01*
X150567351Y-70169154D01*
X150566359Y-70176199D01*
X150565586Y-70183517D01*
X150565025Y-70191084D01*
X150564697Y-70198903D01*
X150564588Y-70206980D01*
X150564644Y-70211884D01*
X150564790Y-70216693D01*
X150565025Y-70221405D01*
X150565380Y-70226027D01*
X150565814Y-70230560D01*
X150566354Y-70234992D01*
X150566990Y-70239344D01*
X150567720Y-70243587D01*
X150568556Y-70247742D01*
X150569487Y-70251801D01*
X150570517Y-70255776D01*
X150571643Y-70259656D01*
X150572872Y-70263438D01*
X150574192Y-70267128D01*
X150575611Y-70270722D01*
X150577144Y-70274235D01*
X150578709Y-70277646D01*
X150580418Y-70280973D01*
X150582279Y-70284223D01*
X150584292Y-70287389D01*
X150586443Y-70290467D01*
X150588747Y-70293457D01*
X150591204Y-70296370D01*
X150593796Y-70299204D01*
X150596540Y-70301944D01*
X150599434Y-70304612D01*
X150602469Y-70307189D01*
X150605655Y-70309691D01*
X150608992Y-70312097D01*
X150612476Y-70314433D01*
X150616099Y-70316671D01*
X150619884Y-70318834D01*
X150550758Y-70523024D01*
X150513056Y-70523024D01*
X150513056Y-70075680D01*
X150448971Y-70075677D01*
X150448971Y-70422494D01*
X150448971Y-70458938D01*
X150322055Y-70458938D01*
X150274189Y-70458938D01*
X150274335Y-70458564D01*
X150275198Y-70456150D01*
X150275990Y-70453707D01*
X150276727Y-70451240D01*
X150277395Y-70448750D01*
X150278011Y-70446239D01*
X150278552Y-70443692D01*
X150279037Y-70441132D01*
X150279453Y-70438541D01*
X150279804Y-70435929D01*
X150280094Y-70433289D01*
X150280321Y-70430627D01*
X150280477Y-70427935D01*
X150280575Y-70425228D01*
X150280605Y-70422494D01*
X150280605Y-70075677D01*
X150216517Y-70075677D01*
X150216517Y-70416206D01*
X150216472Y-70419141D01*
X150216339Y-70421981D01*
X150216121Y-70424714D01*
X150215808Y-70427360D01*
X150215412Y-70429904D01*
X150214924Y-70432345D01*
X150214346Y-70434697D01*
X150213690Y-70436940D01*
X150212938Y-70439089D01*
X150212090Y-70441145D01*
X150211171Y-70443098D01*
X150210150Y-70444953D01*
X150209043Y-70446712D01*
X150207849Y-70448372D01*
X150206562Y-70449935D01*
X150205200Y-70451398D01*
X150203763Y-70452767D01*
X150202285Y-70454051D01*
X150200753Y-70455234D01*
X150199189Y-70456339D01*
X150197582Y-70457355D01*
X150195918Y-70458288D01*
X150194215Y-70459128D01*
X150192474Y-70459884D01*
X150190677Y-70460546D01*
X150188848Y-70461124D01*
X150186965Y-70461602D01*
X150185045Y-70462007D01*
X150183082Y-70462315D01*
X150181073Y-70462538D01*
X150179014Y-70462675D01*
X150176913Y-70462718D01*
X150174816Y-70462675D01*
X150172760Y-70462538D01*
X150170759Y-70462315D01*
X150168790Y-70462007D01*
X150166868Y-70461602D01*
X150164995Y-70461124D01*
X150163158Y-70460546D01*
X150161374Y-70459884D01*
X150159638Y-70459128D01*
X150157936Y-70458287D01*
X150156280Y-70457355D01*
X150154666Y-70456339D01*
X150153102Y-70455234D01*
X150151575Y-70454051D01*
X150150095Y-70452767D01*
X150148660Y-70451398D01*
X150147279Y-70449935D01*
X150146007Y-70448372D01*
X150144819Y-70446712D01*
X150143709Y-70444953D01*
X150142696Y-70443098D01*
X150141764Y-70441145D01*
X150140924Y-70439089D01*
X150140177Y-70436940D01*
X150139517Y-70434697D01*
X150138938Y-70432345D01*
X150138447Y-70429904D01*
X150138047Y-70427360D01*
X150137735Y-70424714D01*
X150137517Y-70421981D01*
X150137386Y-70419142D01*
X150137342Y-70416213D01*
X150137342Y-70075680D01*
X150073255Y-70075680D01*
X150011069Y-70075680D01*
X149946978Y-70075680D01*
X149946978Y-70181246D01*
X149946978Y-70523024D01*
X149809811Y-70523024D01*
X149810326Y-70522890D01*
X149815202Y-70521492D01*
X149820064Y-70519860D01*
X149822410Y-70518975D01*
X149824717Y-70518038D01*
X149827006Y-70517035D01*
X149829260Y-70515984D01*
X149831480Y-70514876D01*
X149833676Y-70513722D01*
X149835834Y-70512501D01*
X149837974Y-70511242D01*
X149840081Y-70509925D01*
X149842161Y-70508544D01*
X149844205Y-70507115D01*
X149846225Y-70505638D01*
X149848208Y-70504099D01*
X149850169Y-70502503D01*
X149852101Y-70500861D01*
X149854002Y-70499158D01*
X149855939Y-70497480D01*
X149857829Y-70495754D01*
X149859666Y-70493966D01*
X149861455Y-70492136D01*
X149863203Y-70490235D01*
X149864885Y-70488290D01*
X149866535Y-70486290D01*
X149868127Y-70484230D01*
X149869681Y-70482122D01*
X149871170Y-70479956D01*
X149872616Y-70477743D01*
X149874019Y-70475464D01*
X149875366Y-70473145D01*
X149876670Y-70470762D01*
X149877919Y-70468330D01*
X149879123Y-70465842D01*
X149880271Y-70463300D01*
X149881342Y-70460692D01*
X149882327Y-70458011D01*
X149883243Y-70455280D01*
X149884089Y-70452478D01*
X149884866Y-70449620D01*
X149885567Y-70446689D01*
X149886192Y-70443692D01*
X149886735Y-70440642D01*
X149887217Y-70437523D01*
X149887623Y-70434328D01*
X149887953Y-70431097D01*
X149888206Y-70427785D01*
X149888397Y-70424405D01*
X149888507Y-70420971D01*
X149888543Y-70417463D01*
X149888543Y-70181246D01*
X149888508Y-70177884D01*
X149888402Y-70174595D01*
X149888206Y-70171333D01*
X149887953Y-70168128D01*
X149887623Y-70164968D01*
X149887217Y-70161864D01*
X149886735Y-70158796D01*
X149886192Y-70155789D01*
X149885567Y-70152834D01*
X149884866Y-70149921D01*
X149884089Y-70147059D01*
X149883243Y-70144235D01*
X149882327Y-70141476D01*
X149881342Y-70138767D01*
X149880271Y-70136096D01*
X149879123Y-70133483D01*
X149877919Y-70130917D01*
X149876670Y-70128400D01*
X149875366Y-70125946D01*
X149874019Y-70123546D01*
X149872616Y-70121201D01*
X149871170Y-70118898D01*
X149869681Y-70116667D01*
X149868127Y-70114478D01*
X149866535Y-70112345D01*
X149864885Y-70110270D01*
X149863203Y-70108242D01*
X149861455Y-70106279D01*
X149859666Y-70104362D01*
X149857829Y-70102491D01*
X149855939Y-70100694D01*
X149854002Y-70098936D01*
X149852101Y-70097306D01*
X149850169Y-70095737D01*
X149848208Y-70094202D01*
X149846225Y-70092734D01*
X149844205Y-70091300D01*
X149842161Y-70089925D01*
X149840081Y-70088599D01*
X149837974Y-70087313D01*
X149835834Y-70086091D01*
X149833676Y-70084907D01*
X149831480Y-70083775D01*
X149829260Y-70082687D01*
X149827006Y-70081655D01*
X149824717Y-70080675D01*
X149822410Y-70079725D01*
X149820064Y-70078843D01*
X149815202Y-70077226D01*
X149810323Y-70075817D01*
X149807893Y-70075190D01*
X149805457Y-70074630D01*
X149803025Y-70074111D01*
X149800580Y-70073640D01*
X149798157Y-70073238D01*
X149795722Y-70072886D01*
X149793280Y-70072589D01*
X149790851Y-70072340D01*
X149788414Y-70072154D01*
X149785982Y-70072020D01*
X149783545Y-70071934D01*
X149781114Y-70071901D01*
X149778674Y-70071934D01*
X149776245Y-70072020D01*
X149773833Y-70072154D01*
X149771408Y-70072340D01*
X149768995Y-70072589D01*
X149766588Y-70072886D01*
X149764192Y-70073238D01*
X149761794Y-70073640D01*
X149759396Y-70074111D01*
X149757015Y-70074630D01*
X149754631Y-70075190D01*
X149752258Y-70075817D01*
X149749882Y-70076486D01*
X149747512Y-70077221D01*
X149745155Y-70078007D01*
X149742786Y-70078843D01*
X149740363Y-70079725D01*
X149737982Y-70080675D01*
X149735622Y-70081655D01*
X149733287Y-70082687D01*
X149730981Y-70083775D01*
X149728710Y-70084907D01*
X149726466Y-70086091D01*
X149724255Y-70087310D01*
X149722076Y-70088599D01*
X149719911Y-70089925D01*
X149717787Y-70091300D01*
X149715687Y-70092734D01*
X149713632Y-70094202D01*
X149711590Y-70095737D01*
X149709583Y-70097306D01*
X149707605Y-70098936D01*
X149705742Y-70100694D01*
X149703922Y-70102491D01*
X149702142Y-70104362D01*
X149700418Y-70106279D01*
X149698731Y-70108242D01*
X149697083Y-70110270D01*
X149695484Y-70112345D01*
X149693934Y-70114478D01*
X149692420Y-70116667D01*
X149690957Y-70118898D01*
X149689537Y-70121200D01*
X149688160Y-70123544D01*
X149686821Y-70125946D01*
X149685537Y-70128400D01*
X149684288Y-70130917D01*
X149683091Y-70133483D01*
X149681951Y-70136096D01*
X149680877Y-70138767D01*
X149679887Y-70141476D01*
X149678971Y-70144235D01*
X149678127Y-70147059D01*
X149677358Y-70149921D01*
X149676644Y-70152834D01*
X149676025Y-70155789D01*
X149675469Y-70158796D01*
X149674999Y-70161864D01*
X149674592Y-70164968D01*
X149674259Y-70168128D01*
X149674003Y-70171333D01*
X149673817Y-70174597D01*
X149673708Y-70177884D01*
X149673673Y-70181246D01*
X149673672Y-70203857D01*
X149615228Y-70203857D01*
X149615228Y-70075677D01*
X149551148Y-70075677D01*
X149551148Y-70421237D01*
X149551148Y-70523024D01*
X149302324Y-70523024D01*
X149302668Y-70522949D01*
X149307380Y-70521768D01*
X149309719Y-70521113D01*
X149312029Y-70520396D01*
X149314313Y-70519613D01*
X149316573Y-70518780D01*
X149318787Y-70517886D01*
X149320983Y-70516933D01*
X149323144Y-70515915D01*
X149325284Y-70514845D01*
X149327394Y-70513721D01*
X149329476Y-70512524D01*
X149331521Y-70511272D01*
X149333534Y-70509972D01*
X149335519Y-70508612D01*
X149337475Y-70507187D01*
X149339420Y-70505703D01*
X149341316Y-70504166D01*
X149343174Y-70502563D01*
X149345008Y-70500915D01*
X149346788Y-70499201D01*
X149348531Y-70497449D01*
X149350243Y-70495638D01*
X149351913Y-70493772D01*
X149353528Y-70491848D01*
X149355127Y-70489874D01*
X149356681Y-70487844D01*
X149358194Y-70485760D01*
X149359661Y-70483634D01*
X149361094Y-70481434D01*
X149362491Y-70479195D01*
X149363842Y-70476892D01*
X149365160Y-70474541D01*
X149366436Y-70472128D01*
X149367578Y-70469582D01*
X149368637Y-70466940D01*
X149369634Y-70464219D01*
X149370553Y-70461418D01*
X149371401Y-70458519D01*
X149372175Y-70455546D01*
X149372864Y-70452498D01*
X149373499Y-70449357D01*
X149374049Y-70446137D01*
X149374528Y-70442822D01*
X149374929Y-70439432D01*
X149375264Y-70435964D01*
X149375524Y-70432411D01*
X149375702Y-70428774D01*
X149375815Y-70425047D01*
X149375851Y-70421237D01*
X149375851Y-70174948D01*
X149375822Y-70172219D01*
X149375736Y-70169504D01*
X149375591Y-70166820D01*
X149375381Y-70164158D01*
X149375117Y-70161518D01*
X149374804Y-70158903D01*
X149374420Y-70156314D01*
X149373977Y-70153748D01*
X149373483Y-70151210D01*
X149372926Y-70148701D01*
X149372309Y-70146202D01*
X149371629Y-70143738D01*
X149370896Y-70141304D01*
X149370099Y-70138879D01*
X149369247Y-70136489D01*
X149368335Y-70134121D01*
X149367366Y-70131783D01*
X149366349Y-70129481D01*
X149365289Y-70127231D01*
X149364170Y-70125011D01*
X149363006Y-70122825D01*
X149361791Y-70120692D01*
X149360527Y-70118591D01*
X149359219Y-70116528D01*
X149357853Y-70114503D01*
X149356440Y-70112520D01*
X149354986Y-70110579D01*
X149353480Y-70108665D01*
X149351921Y-70106804D01*
X149350306Y-70104986D01*
X149348654Y-70103204D01*
X149346948Y-70101448D01*
X149345206Y-70099746D01*
X149343424Y-70098094D01*
X149341588Y-70096486D01*
X149339727Y-70094938D01*
X149337824Y-70093431D01*
X149335883Y-70091964D01*
X149333890Y-70090560D01*
X149331871Y-70089201D01*
X149329813Y-70087898D01*
X149327713Y-70086633D01*
X149325574Y-70085422D01*
X149323395Y-70084264D01*
X149321179Y-70083140D01*
X149318917Y-70082080D01*
X149316613Y-70081062D01*
X149314288Y-70080100D01*
X149311833Y-70079115D01*
X149309354Y-70078180D01*
X149306848Y-70077322D01*
X149304312Y-70076520D01*
X149301752Y-70075793D01*
X149299152Y-70075115D01*
X149296529Y-70074506D01*
X149293870Y-70073965D01*
X149291194Y-70073480D01*
X149288473Y-70073066D01*
X149285731Y-70072713D01*
X149282959Y-70072427D01*
X149280153Y-70072196D01*
X149277331Y-70072037D01*
X149274469Y-70071938D01*
X149271583Y-70071901D01*
X149265986Y-70072027D01*
X149260529Y-70072365D01*
X149255209Y-70072948D01*
X149250021Y-70073753D01*
X149244954Y-70074796D01*
X149240041Y-70076071D01*
X149235241Y-70077568D01*
X149230586Y-70079294D01*
X149226058Y-70081260D01*
X149221668Y-70083449D01*
X149217403Y-70085872D01*
X149213263Y-70088526D01*
X149209272Y-70091422D01*
X149205408Y-70094523D01*
X149201672Y-70097866D01*
X149198077Y-70101448D01*
X149196368Y-70103273D01*
X149194717Y-70105145D01*
X149193113Y-70107062D01*
X149191555Y-70109023D01*
X149190042Y-70111031D01*
X149188588Y-70113081D01*
X149187175Y-70115172D01*
X149185811Y-70117313D01*
X149184500Y-70119490D01*
X149183239Y-70121703D01*
X149182016Y-70123986D01*
X149180859Y-70126294D01*
X149179746Y-70128650D01*
X149178679Y-70131059D01*
X149177657Y-70133506D01*
X149176690Y-70135990D01*
X149175699Y-70138441D01*
X149174781Y-70140928D01*
X149173913Y-70143428D01*
X149173120Y-70145966D01*
X149172387Y-70148531D01*
X149171710Y-70151134D01*
X149171106Y-70153758D01*
X149170567Y-70156418D01*
X149170085Y-70159105D01*
X149169669Y-70161825D01*
X149169320Y-70164566D01*
X149169038Y-70167341D01*
X149168820Y-70170144D01*
X149168660Y-70172979D01*
X149168563Y-70175836D01*
X149168538Y-70178729D01*
X149168538Y-70181244D01*
X149168538Y-70203857D01*
X149120151Y-70203857D01*
X149120151Y-70181244D01*
X149120116Y-70177884D01*
X149120002Y-70174595D01*
X149119820Y-70171333D01*
X149119563Y-70168128D01*
X149119229Y-70164968D01*
X149118827Y-70161864D01*
X149118351Y-70158795D01*
X149117804Y-70155789D01*
X149117172Y-70152834D01*
X149116473Y-70149921D01*
X149115701Y-70147059D01*
X149114853Y-70144235D01*
X149113931Y-70141476D01*
X149112942Y-70138767D01*
X149111870Y-70136096D01*
X149110737Y-70133483D01*
X149109533Y-70130917D01*
X149108285Y-70128400D01*
X149106982Y-70125946D01*
X149105624Y-70123546D01*
X149104236Y-70121201D01*
X149102778Y-70118898D01*
X149101281Y-70116667D01*
X149099738Y-70114478D01*
X149098150Y-70112345D01*
X149096496Y-70110271D01*
X149094806Y-70108242D01*
X149093066Y-70106280D01*
X149091271Y-70104363D01*
X149089434Y-70102491D01*
X149087548Y-70100694D01*
X149085605Y-70098936D01*
X149083709Y-70097306D01*
X149081771Y-70095737D01*
X149079818Y-70094202D01*
X149077833Y-70092734D01*
X149075814Y-70091300D01*
X149073769Y-70089925D01*
X149071691Y-70088599D01*
X149069584Y-70087312D01*
X149067446Y-70086091D01*
X149065280Y-70084907D01*
X149063088Y-70083775D01*
X149060868Y-70082687D01*
X149058617Y-70081655D01*
X149056331Y-70080675D01*
X149054021Y-70079725D01*
X149051672Y-70078843D01*
X149046811Y-70077221D01*
X149041933Y-70075817D01*
X149039502Y-70075190D01*
X149037067Y-70074630D01*
X149034634Y-70074111D01*
X149032199Y-70073640D01*
X149029764Y-70073238D01*
X149027321Y-70072886D01*
X149024895Y-70072589D01*
X149022456Y-70072340D01*
X149020021Y-70072154D01*
X149017591Y-70072020D01*
X149015152Y-70071934D01*
X149012715Y-70071901D01*
X149010285Y-70071934D01*
X149007858Y-70072020D01*
X149005433Y-70072154D01*
X149003023Y-70072340D01*
X149000609Y-70072589D01*
X148998201Y-70072886D01*
X148995792Y-70073238D01*
X148993405Y-70073640D01*
X148991009Y-70074111D01*
X148988620Y-70074630D01*
X148986240Y-70075190D01*
X148983859Y-70075817D01*
X148981485Y-70076487D01*
X148979127Y-70077226D01*
X148976751Y-70078007D01*
X148974400Y-70078843D01*
X148971977Y-70079725D01*
X148969583Y-70080675D01*
X148967230Y-70081655D01*
X148964894Y-70082687D01*
X148962590Y-70083775D01*
X148960322Y-70084907D01*
X148958076Y-70086091D01*
X148955863Y-70087312D01*
X148953679Y-70088599D01*
X148951526Y-70089925D01*
X148949397Y-70091300D01*
X148947295Y-70092734D01*
X148945232Y-70094202D01*
X148943204Y-70095737D01*
X148941195Y-70097306D01*
X148939207Y-70098936D01*
X148937348Y-70100694D01*
X148935539Y-70102491D01*
X148933759Y-70104362D01*
X148932025Y-70106279D01*
X148930334Y-70108242D01*
X148928693Y-70110270D01*
X148927092Y-70112345D01*
X148925541Y-70114478D01*
X148924027Y-70116667D01*
X148922564Y-70118898D01*
X148921153Y-70121201D01*
X148919768Y-70123546D01*
X148918440Y-70125946D01*
X148917141Y-70128400D01*
X148915897Y-70130917D01*
X148914706Y-70133483D01*
X148913557Y-70136096D01*
X148912486Y-70138767D01*
X148911498Y-70141476D01*
X148910579Y-70144235D01*
X148909736Y-70147059D01*
X148908960Y-70149921D01*
X148908267Y-70152834D01*
X148907642Y-70155789D01*
X148907080Y-70158796D01*
X148906601Y-70161864D01*
X148906195Y-70164968D01*
X148905878Y-70168128D01*
X148905615Y-70171333D01*
X148905433Y-70174595D01*
X148905324Y-70177884D01*
X148905279Y-70181244D01*
X148848736Y-70181244D01*
X148848736Y-70075680D01*
X148784655Y-70075680D01*
X148784655Y-70458938D01*
X148657738Y-70458938D01*
X148630851Y-70458938D01*
X148545275Y-70075680D01*
X148491869Y-70075680D01*
X148391978Y-70523024D01*
X148363078Y-70523024D01*
X148363078Y-70075680D01*
X148301511Y-70075680D01*
X148204753Y-70345210D01*
X148203496Y-70345210D01*
X148203496Y-70075677D01*
X148139402Y-70075680D01*
X148139402Y-70417467D01*
X148139402Y-70523024D01*
X148006628Y-70523024D01*
X148007144Y-70522890D01*
X148012013Y-70521492D01*
X148016871Y-70519860D01*
X148019216Y-70518981D01*
X148021530Y-70518039D01*
X148023812Y-70517035D01*
X148026063Y-70515984D01*
X148028295Y-70514876D01*
X148030479Y-70513722D01*
X148032643Y-70512501D01*
X148034786Y-70511242D01*
X148036890Y-70509925D01*
X148038968Y-70508544D01*
X148041017Y-70507115D01*
X148043027Y-70505638D01*
X148045022Y-70504099D01*
X148046974Y-70502503D01*
X148048908Y-70500861D01*
X148050806Y-70499158D01*
X148052741Y-70497479D01*
X148054633Y-70495753D01*
X148056475Y-70493966D01*
X148058265Y-70492136D01*
X148060010Y-70490235D01*
X148061709Y-70488290D01*
X148063344Y-70486290D01*
X148064945Y-70484230D01*
X148066484Y-70482122D01*
X148067986Y-70479956D01*
X148069427Y-70477743D01*
X148070822Y-70475464D01*
X148072177Y-70473145D01*
X148073474Y-70470758D01*
X148074725Y-70468330D01*
X148075941Y-70465842D01*
X148077075Y-70463300D01*
X148078143Y-70460692D01*
X148079134Y-70458011D01*
X148080058Y-70455280D01*
X148080905Y-70452478D01*
X148081682Y-70449620D01*
X148082384Y-70446689D01*
X148083012Y-70443692D01*
X148083571Y-70440642D01*
X148084054Y-70437523D01*
X148084460Y-70434328D01*
X148084784Y-70431097D01*
X148085050Y-70427785D01*
X148085233Y-70424405D01*
X148085342Y-70420971D01*
X148085378Y-70417467D01*
X148085378Y-70181244D01*
X148085342Y-70177884D01*
X148085233Y-70174595D01*
X148085046Y-70171333D01*
X148084784Y-70168128D01*
X148084460Y-70164968D01*
X148084054Y-70161864D01*
X148083571Y-70158796D01*
X148083012Y-70155789D01*
X148082384Y-70152834D01*
X148081682Y-70149921D01*
X148080905Y-70147059D01*
X148080058Y-70144235D01*
X148079134Y-70141476D01*
X148078143Y-70138767D01*
X148077075Y-70136096D01*
X148075941Y-70133483D01*
X148074725Y-70130917D01*
X148073474Y-70128400D01*
X148072177Y-70125946D01*
X148070822Y-70123544D01*
X148069427Y-70121200D01*
X148067986Y-70118898D01*
X148066484Y-70116667D01*
X148064945Y-70114478D01*
X148063344Y-70112345D01*
X148061709Y-70110270D01*
X148060010Y-70108242D01*
X148058262Y-70106279D01*
X148056475Y-70104362D01*
X148054632Y-70102491D01*
X148052741Y-70100694D01*
X148050806Y-70098933D01*
X148048908Y-70097306D01*
X148046974Y-70095737D01*
X148045022Y-70094201D01*
X148043027Y-70092728D01*
X148041017Y-70091300D01*
X148038968Y-70089925D01*
X148036888Y-70088599D01*
X148034786Y-70087310D01*
X148032643Y-70086091D01*
X148030479Y-70084907D01*
X148028295Y-70083775D01*
X148026063Y-70082687D01*
X148023812Y-70081655D01*
X148021528Y-70080675D01*
X148019216Y-70079725D01*
X148016871Y-70078843D01*
X148012013Y-70077221D01*
X148007144Y-70075817D01*
X148004706Y-70075190D01*
X148002272Y-70074630D01*
X147999844Y-70074111D01*
X147997410Y-70073640D01*
X147994978Y-70073238D01*
X147992545Y-70072886D01*
X147990114Y-70072589D01*
X147987686Y-70072340D01*
X147985256Y-70072154D01*
X147982814Y-70072020D01*
X147980383Y-70071932D01*
X147977956Y-70071901D01*
X147975516Y-70071932D01*
X147973084Y-70072020D01*
X147970660Y-70072154D01*
X147968246Y-70072340D01*
X147965825Y-70072589D01*
X147963416Y-70072886D01*
X147961013Y-70073238D01*
X147958622Y-70073640D01*
X147956214Y-70074111D01*
X147953820Y-70074630D01*
X147951446Y-70075190D01*
X147949070Y-70075817D01*
X147946692Y-70076487D01*
X147944324Y-70077226D01*
X147941964Y-70078007D01*
X147939600Y-70078843D01*
X147937180Y-70079725D01*
X147934791Y-70080675D01*
X147932428Y-70081655D01*
X147930097Y-70082687D01*
X147927795Y-70083775D01*
X147925523Y-70084907D01*
X147923273Y-70086091D01*
X147921067Y-70087310D01*
X147918885Y-70088599D01*
X147916728Y-70089925D01*
X147914599Y-70091300D01*
X147912502Y-70092734D01*
X147910435Y-70094202D01*
X147908390Y-70095737D01*
X147906392Y-70097306D01*
X147904412Y-70098936D01*
X147902553Y-70100694D01*
X147900727Y-70102491D01*
X147898955Y-70104363D01*
X147897233Y-70106280D01*
X147895544Y-70108242D01*
X147893902Y-70110271D01*
X147892312Y-70112345D01*
X147890755Y-70114478D01*
X147889249Y-70116667D01*
X147887789Y-70118898D01*
X147886369Y-70121201D01*
X147885004Y-70123546D01*
X147883667Y-70125946D01*
X147882372Y-70128400D01*
X147881130Y-70130917D01*
X147879928Y-70133483D01*
X147878790Y-70136096D01*
X147877725Y-70138767D01*
X147876720Y-70141476D01*
X147875809Y-70144235D01*
X147874960Y-70147059D01*
X147874177Y-70149921D01*
X147873480Y-70152834D01*
X147872853Y-70155789D01*
X147872295Y-70158795D01*
X147871816Y-70161864D01*
X147871408Y-70164968D01*
X147871074Y-70168128D01*
X147870821Y-70171333D01*
X147870633Y-70174595D01*
X147870521Y-70177884D01*
X147870487Y-70181244D01*
X147813940Y-70181244D01*
X147813940Y-70075677D01*
X147622945Y-70075680D01*
X147622945Y-70135990D01*
X147749850Y-70135990D01*
X147749855Y-70267320D01*
X147639291Y-70267320D01*
X147639291Y-70327638D01*
X147749855Y-70327638D01*
X147749850Y-70458938D01*
X147622945Y-70458938D01*
X147622945Y-70523020D01*
X147622945Y-70523024D01*
X147390497Y-70523024D01*
X147581497Y-70523020D01*
X147581497Y-70075680D01*
X147517411Y-70075680D01*
X147517411Y-70458938D01*
X147390497Y-70458938D01*
X147347150Y-70458938D01*
X147347147Y-70075680D01*
X147283063Y-70075680D01*
X147283063Y-70523024D01*
X146903408Y-70523024D01*
X148654245Y-67505235D01*
X148664439Y-67490741D01*
X148671734Y-67481582D01*
X148675723Y-67478391D01*
X148676435Y-67478691D01*
X148677468Y-67479558D01*
X148680479Y-67482994D01*
X148684673Y-67488584D01*
X148689988Y-67496199D01*
X149086399Y-68183532D01*
X149090749Y-68192696D01*
X149091876Y-68195514D01*
X149092267Y-68197053D01*
X149091875Y-68198584D01*
X149090729Y-68201396D01*
X149086329Y-68210545D01*
X148113204Y-69891858D01*
X148108585Y-69900754D01*
X148106145Y-69905968D01*
X148106334Y-69907236D01*
X148108043Y-69908439D01*
X148111489Y-69909582D01*
X148116932Y-69910658D01*
X148134628Y-69912656D01*
X148418761Y-69920023D01*
X148657531Y-69922131D01*
X151466439Y-69935218D01*
X151785539Y-69939958D01*
X151885871Y-69939035D01*
X151552549Y-70523024D01*
X151470083Y-70665626D01*
G37*
D11*
%TO.C,TP11*%
X134355000Y-75445617D03*
%TD*%
D12*
%TO.C,TP19*%
X134957143Y-51400617D03*
%TD*%
%TO.C,TP18*%
X133635714Y-51400617D03*
%TD*%
%TO.C,TP17*%
X136278571Y-51400617D03*
%TD*%
%TO.C,TP16*%
X137600000Y-51400617D03*
%TD*%
%TO.C,TP15*%
X128350000Y-51400617D03*
%TD*%
%TO.C,TP14*%
X129671429Y-51400617D03*
%TD*%
%TO.C,TP13*%
X130992857Y-51400617D03*
%TD*%
%TO.C,TP12*%
X132314286Y-51400617D03*
%TD*%
%TO.C,TP10*%
X148024286Y-51400617D03*
%TD*%
%TO.C,TP9*%
X149345000Y-51400617D03*
%TD*%
%TO.C,TP8*%
X140100000Y-51400617D03*
%TD*%
%TO.C,TP7*%
X141420714Y-51400617D03*
%TD*%
%TO.C,TP6*%
X142741429Y-51400617D03*
%TD*%
%TO.C,TP5*%
X144062143Y-51400617D03*
%TD*%
%TO.C,TP4*%
X145382857Y-51400617D03*
%TD*%
%TO.C,TP3*%
X146703571Y-51400617D03*
%TD*%
D13*
%TO.C,U1*%
X124735000Y-61300616D03*
X124735000Y-60800617D03*
X124735000Y-60300618D03*
X123235000Y-60300618D03*
X123235000Y-60800617D03*
X123235000Y-61300616D03*
%TD*%
D14*
%TO.C,USB1*%
X125907500Y-65580000D03*
D15*
X121907500Y-65580000D03*
X121907500Y-56940000D03*
D14*
X125907500Y-56940000D03*
%TD*%
D16*
%TO.C,U21*%
X124545000Y-78105000D03*
X124545000Y-77105000D03*
X124545000Y-76105000D03*
D17*
X121145000Y-79205000D03*
X121145000Y-75005000D03*
%TD*%
D18*
%TO.C,R12*%
X134239997Y-56615001D03*
X134239997Y-55595003D03*
%TD*%
D19*
%TO.C,C11*%
X135570000Y-74960617D03*
X136530000Y-74960617D03*
%TD*%
D20*
%TO.C,C7*%
X137915000Y-75845617D03*
X137915000Y-76805617D03*
%TD*%
%TO.C,C3*%
X136260000Y-80215617D03*
X136260000Y-81175617D03*
%TD*%
D18*
%TO.C,R46*%
X132350000Y-53900616D03*
X132350000Y-52880618D03*
%TD*%
D21*
%TO.C,R37*%
X132520000Y-65865618D03*
X132520000Y-66885616D03*
%TD*%
%TO.C,R41*%
X131580000Y-65865618D03*
X131580000Y-66885616D03*
%TD*%
D22*
%TO.C,C25*%
X132189997Y-63195004D03*
X132189997Y-61295006D03*
%TD*%
D19*
%TO.C,C8*%
X135620000Y-73600617D03*
X136580000Y-73600617D03*
%TD*%
D23*
%TO.C,C39*%
X152115000Y-74650617D03*
X151155000Y-74650617D03*
%TD*%
D21*
%TO.C,R38*%
X137069995Y-65840005D03*
X137069995Y-66860003D03*
%TD*%
D22*
%TO.C,C24*%
X146256268Y-63846179D03*
X146256268Y-61946181D03*
%TD*%
D24*
%TO.C,C14*%
X139639998Y-56285004D03*
X139639998Y-58185002D03*
%TD*%
D20*
%TO.C,C15*%
X149519995Y-56915002D03*
X149519995Y-57875002D03*
%TD*%
D22*
%TO.C,C27*%
X134164997Y-63195001D03*
X134164997Y-61295003D03*
%TD*%
D20*
%TO.C,C40*%
X148522745Y-76275004D03*
X148522745Y-77235004D03*
%TD*%
D25*
%TO.C,C18*%
X146531268Y-60106179D03*
X144981268Y-60106179D03*
%TD*%
D26*
%TO.C,R8*%
X136774995Y-55045004D03*
X135754997Y-55045004D03*
%TD*%
D27*
%TO.C,FB1*%
X138310000Y-80100617D03*
X137340000Y-80100617D03*
%TD*%
D18*
%TO.C,R32*%
X129300000Y-78940616D03*
X129300000Y-77920618D03*
%TD*%
D20*
%TO.C,C16*%
X138164996Y-56215003D03*
X138164996Y-57175003D03*
%TD*%
D18*
%TO.C,R49*%
X128350000Y-53900616D03*
X128350000Y-52880618D03*
%TD*%
D28*
%TO.C,U4*%
X146499995Y-56930004D03*
D29*
X147169995Y-56860004D03*
X147669995Y-56860004D03*
D30*
X148319995Y-56940004D03*
D31*
X148319995Y-58720004D03*
D29*
X147669995Y-58800004D03*
X147169995Y-58800004D03*
D32*
X146499995Y-58720004D03*
D33*
X146869995Y-57830004D03*
%TD*%
D23*
%TO.C,C2*%
X138350000Y-78230617D03*
X137390000Y-78230617D03*
%TD*%
D18*
%TO.C,R47*%
X131050000Y-53900616D03*
X131050000Y-52880618D03*
%TD*%
D19*
%TO.C,C9*%
X135930000Y-77190617D03*
X136890000Y-77190617D03*
%TD*%
D22*
%TO.C,C22*%
X144276268Y-63846178D03*
X144276268Y-61946180D03*
%TD*%
D26*
%TO.C,R1*%
X124184999Y-59225617D03*
X123165001Y-59225617D03*
%TD*%
D23*
%TO.C,C12*%
X134180000Y-76775617D03*
X133220000Y-76775617D03*
%TD*%
D34*
%TO.C,L1*%
X149644998Y-61510001D03*
X149644998Y-63880003D03*
%TD*%
D19*
%TO.C,C20*%
X147689993Y-59820002D03*
X148649993Y-59820002D03*
%TD*%
D21*
%TO.C,R39*%
X138119995Y-65840005D03*
X138119995Y-66860003D03*
%TD*%
%TO.C,R40*%
X130640000Y-65865618D03*
X130640000Y-66885616D03*
%TD*%
D34*
%TO.C,L2*%
X137539995Y-60920004D03*
X137539995Y-63290006D03*
%TD*%
D16*
%TO.C,U3*%
X124550564Y-72340000D03*
X124550564Y-71340000D03*
X124550564Y-70340000D03*
X124550564Y-69340000D03*
D35*
X121150564Y-68240000D03*
X121150564Y-73440000D03*
%TD*%
D19*
%TO.C,C21*%
X135979995Y-59245002D03*
X136939995Y-59245002D03*
%TD*%
D36*
%TO.C,U5*%
X136849995Y-56235002D03*
D37*
X136059995Y-57235002D03*
D38*
X136859995Y-58235002D03*
D39*
X136129994Y-58255002D03*
D40*
X135279995Y-58315002D03*
D41*
X135279995Y-57755002D03*
D42*
X135279995Y-56705002D03*
D43*
X135279995Y-56155002D03*
D44*
X136129994Y-56215002D03*
%TD*%
D26*
%TO.C,R16*%
X132349997Y-57820004D03*
X131329999Y-57820004D03*
%TD*%
D18*
%TO.C,R43*%
X143744995Y-55535003D03*
X143744995Y-54515005D03*
%TD*%
D26*
%TO.C,R7*%
X126949998Y-72935617D03*
X125930000Y-72935617D03*
%TD*%
D45*
%TO.C,U8*%
X148994335Y-83247531D03*
X147994335Y-83247531D03*
X146994335Y-83247531D03*
X145994335Y-83247531D03*
D46*
X144894335Y-86647531D03*
X150094335Y-86647531D03*
%TD*%
D26*
%TO.C,R34*%
X127949999Y-79835617D03*
X126930001Y-79835617D03*
%TD*%
D21*
%TO.C,R2*%
X125675000Y-63165618D03*
X125675000Y-64185616D03*
%TD*%
%TO.C,R35*%
X126970000Y-80775618D03*
X126970000Y-81795616D03*
%TD*%
D47*
%TO.C,U12*%
X149459995Y-77620004D03*
X149459995Y-76960004D03*
X149459995Y-76310004D03*
X149459995Y-75660004D03*
X152319995Y-75660004D03*
X152319995Y-76310004D03*
X152319995Y-76960004D03*
X152319995Y-77620004D03*
D48*
X150889995Y-76640004D03*
%TD*%
D21*
%TO.C,R9*%
X134239997Y-58295004D03*
X134239997Y-59315002D03*
%TD*%
D24*
%TO.C,C13*%
X150969998Y-56920004D03*
X150969998Y-58820002D03*
%TD*%
D18*
%TO.C,R48*%
X129700000Y-53900616D03*
X129700000Y-52880618D03*
%TD*%
D45*
%TO.C,U24*%
X142350000Y-83260000D03*
X141350000Y-83260000D03*
X140350000Y-83260000D03*
X139350000Y-83260000D03*
D46*
X138250000Y-86660000D03*
X143450000Y-86660000D03*
%TD*%
D49*
%TO.C,C6*%
X134234411Y-78646206D03*
X133555589Y-79325028D03*
%TD*%
D50*
%TO.C,C5*%
X136260000Y-79345617D03*
X136260000Y-78385617D03*
%TD*%
D19*
%TO.C,C10*%
X135950000Y-76130617D03*
X136910000Y-76130617D03*
%TD*%
D18*
%TO.C,R45*%
X141744995Y-55535003D03*
X141744995Y-54515005D03*
%TD*%
D23*
%TO.C,C4*%
X138330000Y-79165617D03*
X137370000Y-79165617D03*
%TD*%
D51*
%TO.C,D6*%
X153819995Y-77450004D03*
X153819995Y-75550004D03*
X155819995Y-76500004D03*
%TD*%
D21*
%TO.C,R15*%
X133274997Y-57770004D03*
X133274997Y-58790002D03*
%TD*%
D18*
%TO.C,R44*%
X142744995Y-55535003D03*
X142744995Y-54515005D03*
%TD*%
%TO.C,R42*%
X144744995Y-55535003D03*
X144744995Y-54515005D03*
%TD*%
D21*
%TO.C,R36*%
X135325000Y-65830618D03*
X135325000Y-66850616D03*
%TD*%
D50*
%TO.C,C53*%
X133455000Y-66835617D03*
X133455000Y-65875617D03*
%TD*%
%TO.C,C28*%
X130739998Y-62975003D03*
X130739998Y-62015003D03*
%TD*%
D45*
%TO.C,U19*%
X133330000Y-83260000D03*
X132330000Y-83260000D03*
X131330000Y-83260000D03*
X130330000Y-83260000D03*
X129330000Y-83260000D03*
X128330000Y-83260000D03*
D52*
X127230000Y-86660000D03*
X134430000Y-86660000D03*
%TD*%
D50*
%TO.C,C54*%
X134375000Y-66835617D03*
X134375000Y-65875617D03*
%TD*%
M02*
