%TF.GenerationSoftware,KiCad,Pcbnew,10.0.3*%
%TF.CreationDate,2026-06-28T18:18:48+02:00*%
%TF.ProjectId,LEVIA_H7,4c455649-415f-4483-972e-6b696361645f,0.1*%
%TF.SameCoordinates,Original*%
%TF.FileFunction,Profile,NP*%
%FSLAX46Y46*%
G04 Gerber Fmt 4.6, Leading zero omitted, Abs format (unit mm)*
G04 Created by KiCad (PCBNEW 10.0.3) date 2026-06-28 18:18:48*
%MOMM*%
%LPD*%
G01*
G04 APERTURE LIST*
%TA.AperFunction,Profile*%
%ADD10C,0.100000*%
%TD*%
G04 APERTURE END LIST*
D10*
X-4524072Y1924712D02*
X-4524116Y463826D01*
X-4524072Y1924712D02*
G75*
G02*
X-4240558Y2674782I1133977J-8D01*
G01*
X-4523221Y30029059D02*
X-4523266Y28557656D01*
X-4523221Y30029059D02*
G75*
G02*
X-4191070Y30830884I1134026J-55D01*
G01*
X-4239789Y27807577D02*
G75*
G02*
X-4523262Y28557656I850494J750027D01*
G01*
X-4239789Y27807577D02*
G75*
G02*
X-3578351Y26057392I-1984506J-1750073D01*
G01*
X-4191986Y-338057D02*
G75*
G02*
X-4524119Y463826I801891J801861D01*
G01*
X-4191986Y-338057D02*
X-3154581Y-1375489D01*
X-3578996Y4424919D02*
G75*
G02*
X-4240552Y2674777I-2645999J85D01*
G01*
X-3578342Y26057392D02*
X-3578996Y4424919D01*
X-3156496Y31865456D02*
X-4191075Y30830889D01*
X-3156496Y31865456D02*
G75*
G02*
X-2087319Y31865481I534601J-534552D01*
G01*
X-2085436Y-1375503D02*
G75*
G02*
X-3154575Y-1375483I-534559J534607D01*
G01*
X-2085436Y-1375503D02*
X-1809993Y-1100068D01*
X-1810741Y31588836D02*
X-2087351Y31865449D01*
X-1810741Y31588836D02*
G75*
G02*
X-1609951Y30878972I-534554J-534532D01*
G01*
X-1609390Y-389241D02*
G75*
G02*
X-1809981Y-1100080I-735205J-176255D01*
G01*
X-1609390Y-389241D02*
G75*
G02*
X-391986Y-1605082I1598595J383245D01*
G01*
X-1380360Y32572430D02*
G75*
G02*
X-1380357Y33641581I534565J534574D01*
G01*
X-1380360Y32572430D02*
X-1104912Y32296979D01*
X-1378475Y-3151642D02*
G75*
G02*
X-1378442Y-2082517I534580J534546D01*
G01*
X-1378475Y-3151642D02*
X-343907Y-4186238D01*
X-1101854Y-1805898D02*
X-1378461Y-2082497D01*
X-1101854Y-1805898D02*
G75*
G02*
X-391989Y-1605094I534559J-534598D01*
G01*
X-394082Y32096381D02*
G75*
G02*
X-1609883Y30878955I383287J-1598577D01*
G01*
X-394082Y32096381D02*
G75*
G02*
X-1104877Y32297014I-176213J735123D01*
G01*
X-342940Y34678976D02*
X-1380353Y33641576D01*
X-342940Y34678976D02*
G75*
G02*
X458949Y35011103I801845J-801872D01*
G01*
X457928Y-4518389D02*
G75*
G02*
X-343884Y-4186215I77J1133993D01*
G01*
X457928Y-4518389D02*
X1929318Y-4518434D01*
X1919874Y35011067D02*
X458949Y35011112D01*
X1919874Y35011067D02*
G75*
G02*
X2669915Y34727520I-69J-1133963D01*
G01*
X2679397Y-4234957D02*
G75*
G02*
X1929318Y-4518456I-750092J850561D01*
G01*
X2679397Y-4234957D02*
G75*
G02*
X4429582Y-3573504I1750108J-1984539D01*
G01*
X4420080Y34065990D02*
G75*
G02*
X2669953Y34727563I125J2646014D01*
G01*
X4429582Y-3573511D02*
X26062058Y-3574171D01*
X26062058Y-3574171D02*
G75*
G02*
X27812218Y-4235706I-53J-2646025D01*
G01*
X26063041Y34065324D02*
X4420080Y34065990D01*
X27813226Y34726770D02*
G75*
G02*
X26063041Y34065307I-1750121J1984534D01*
G01*
X27813226Y34726770D02*
G75*
G02*
X28563306Y35010259I750079J-850566D01*
G01*
X28562264Y-4519247D02*
G75*
G02*
X27812196Y-4235730I41J1134051D01*
G01*
X28562264Y-4519247D02*
X30023077Y-4519291D01*
X30024250Y35010202D02*
X28563306Y35010247D01*
X30024250Y35010202D02*
G75*
G02*
X30826079Y34678045I-45J-1133998D01*
G01*
X30825040Y-4187081D02*
G75*
G02*
X30023077Y-4519297I-801935J801785D01*
G01*
X30825040Y-4187081D02*
X31862447Y-3149496D01*
X30876266Y-1604558D02*
G75*
G02*
X31587037Y-1805127I176239J-735138D01*
G01*
X30876266Y-1604558D02*
G75*
G02*
X32092079Y-387117I-383261J1598562D01*
G01*
X31584010Y32297728D02*
G75*
G02*
X30874137Y32096875I-534605J534576D01*
G01*
X31584010Y32297728D02*
X31860618Y32574330D01*
X31860632Y33643475D02*
X30826084Y34678050D01*
X31860632Y33643475D02*
G75*
G02*
X31860624Y32574324I-534627J-534571D01*
G01*
X31862354Y-2080350D02*
X31587060Y-1805104D01*
X31862354Y-2080350D02*
G75*
G02*
X31862474Y-3149522I-534549J-534646D01*
G01*
X32091534Y30881070D02*
G75*
G02*
X30874147Y32096917I-1598529J-383166D01*
G01*
X32091534Y30881070D02*
G75*
G02*
X32292139Y31591883I735171J176234D01*
G01*
X32292952Y-1097018D02*
G75*
G02*
X32092083Y-387118I534553J534622D01*
G01*
X32292952Y-1097018D02*
X32569282Y-1373301D01*
X32567598Y31867331D02*
X32292141Y31591881D01*
X32567598Y31867331D02*
G75*
G02*
X33636784Y31867359I534607J-534627D01*
G01*
X33638427Y-1373209D02*
G75*
G02*
X32569278Y-1373305I-534622J534513D01*
G01*
X33638427Y-1373209D02*
X34673298Y-338160D01*
X34060487Y4434896D02*
X34061125Y26056877D01*
X34061125Y26056877D02*
G75*
G02*
X34722678Y27807021I2645980J-73D01*
G01*
X34674112Y30829921D02*
X33636743Y31867317D01*
X34674112Y30829921D02*
G75*
G02*
X35006209Y30028039I-801907J-801817D01*
G01*
X34721935Y2684712D02*
G75*
G02*
X34060500Y4434896I1984570J1750092D01*
G01*
X34721935Y2684712D02*
G75*
G02*
X35005386Y1934633I-850530J-750008D01*
G01*
X35005369Y463597D02*
G75*
G02*
X34673303Y-338165I-1133964J7D01*
G01*
X35005369Y463597D02*
X35005413Y1934633D01*
X35006199Y28557084D02*
G75*
G02*
X34722682Y27807017I-1133994J20D01*
G01*
X35006199Y28557084D02*
X35006242Y30028039D01*
M02*
