M48
; DRILL file KiCad 10.0.3 date 2026-06-28T18:18:48
; FORMAT={-:-/ absolute / inch / decimal}
; #@! TF.CreationDate,2026-06-28T18:18:48+02:00
; #@! TF.GenerationSoftware,Kicad,Pcbnew,10.0.3
; #@! TF.FileFunction,Plated,1,6,PTH
FMAT,2
INCH
; #@! TA.AperFunction,Plated,PTH,ViaDrill
T1C0.0098
; #@! TA.AperFunction,Plated,PTH,ComponentDrill
T2C0.0236
%
G90
G05
T1
X-0.1533Y1.1555
X-0.1524Y1.188
X-0.1524Y1.1191
X-0.1514Y0.0433
X-0.1504Y0.0797
X-0.1504Y0.0108
X-0.1346Y1.0817
X-0.1307Y1.2165
X-0.1287Y-0.0177
X-0.125Y0.5289
X-0.1248Y0.7864
X-0.1246Y0.5645
X-0.1244Y0.5012
X-0.1242Y0.6002
X-0.1238Y0.9901
X-0.1238Y0.9173
X-0.1238Y0.8474
X-0.1238Y0.7114
X-0.1224Y0.287
X-0.122Y0.2458
X-0.1211Y0.3323
X-0.1108Y0.1594
X-0.1051Y1.2421
X-0.1031Y-0.0433
X-0.0868Y0.5777
X-0.0854Y0.3287
X-0.0844Y0.521
X-0.0825Y0.1949
X-0.0813Y0.2736
X-0.0772Y0.7029
X-0.0707Y0.1588
X-0.064Y0.2464
X-0.0618Y0.9606
X-0.0618Y0.8956
X-0.0509Y0.9399
X-0.0509Y0.9145
X-0.0504Y0.3234
X-0.0492Y0.5053
X-0.0467Y0.599
X-0.0463Y0.574
X-0.0463Y0.5391
X-0.0441Y-0.1063
X-0.0421Y1.3051
X-0.0378Y0.2671
X-0.0352Y0.8474
X-0.0343Y0.8947
X-0.0342Y0.9635
X-0.0266Y0.1577
X-0.0236Y0.2315
X-0.0209Y0.6949
X-0.0209Y0.6606
X-0.0191Y0.6226
X-0.0191Y0.6041
X-0.0191Y0.5858
X-0.0185Y-0.1319
X-0.0165Y1.3307
X-0.0077Y0.8504
X-0.0049Y0.1224
X-0.0037Y0.1972
X0.0022Y0.8159
X0.0079Y0.4254
X0.0081Y0.4073
X0.0081Y0.3893
X0.01Y-0.1536
X0.012Y1.3523
X0.0248Y0.9547
X0.0297Y1.0433
X0.0425Y-0.1546
X0.0433Y0.4299
X0.0433Y0.4118
X0.0433Y0.3928
X0.0433Y0.375
X0.0435Y0.8474
X0.0445Y1.3533
X0.0465Y0.9773
X0.0465Y0.8789
X0.0614Y0.701
X0.0622Y0.8632
X0.0648Y0.1006
X0.072Y1.0384
X0.0772Y0.4077
X0.0789Y-0.1536
X0.0809Y1.3523
X0.0815Y0.3557
X0.0821Y0.658
X0.0837Y0.1338
X0.0878Y0.1594
X0.09Y0.1951
X0.0968Y0.2171
X0.0978Y0.3992
X0.1024Y0.1055
X0.1026Y0.0403
X0.1077Y0.6911
X0.1124Y1.2273
X0.1146Y0.1401
X0.1163Y0.7844
X0.1163Y-0.1359
X0.1175Y0.2226
X0.1183Y1.3346
X0.1203Y0.313
X0.1213Y0.399
X0.1213Y0.2864
X0.1244Y0.063
X0.1289Y1.164
X0.1289Y1.1445
X0.1291Y1.2008
X0.1291Y1.1819
X0.1333Y0.0124
X0.138Y0.6506
X0.139Y0.7844
X0.1459Y0.6102
X0.1482Y0.5718
X0.1518Y0.6988
X0.1528Y1.3159
X0.1528Y1.2667
X0.1572Y0.4739
X0.1626Y0.0472
X0.1646Y0.3858
X0.1646Y0.3376
X0.1646Y0.2864
X0.1768Y0.1439
X0.1787Y0.0886
X0.1882Y0.5915
X0.1894Y0.5679
X0.1902Y0.6161
X0.1904Y0.5433
X0.1917Y-0.0534
X0.1919Y0.9842
X0.1919Y0.9657
X0.1921Y0.6506
X0.1949Y-0.0295
X0.199Y0.8819
X0.2079Y1.1791
X0.2085Y0.9953
X0.2089Y0.9769
X0.2089Y0.9584
X0.2115Y1.0628
X0.2173Y0.8371
X0.2197Y0.8819
X0.2256Y0.3151
X0.2262Y0.3561
X0.2276Y0.1811
X0.2281Y0.8517
X0.2281Y0.8226
X0.2287Y1.0401
X0.2287Y1.0169
X0.2297Y-0.0697
X0.2303Y0.378
X0.2319Y1.1755
X0.2358Y0.336
X0.2362Y0.4638
X0.2386Y0.8372
X0.2425Y1.0287
X0.2439Y-0.0967
X0.2462Y0.4423
X0.2474Y0.3154
X0.248Y0.3898
X0.2504Y0.8517
X0.2504Y0.823
X0.2527Y1.1799
X0.2563Y0.3433
X0.2565Y1.0401
X0.2565Y1.0169
X0.2614Y0.8372
X0.263Y0.8809
X0.2638Y-0.0531
X0.265Y0.5895
X0.2652Y0.525
X0.2659Y0.5502
X0.2684Y0.3778
X0.2748Y1.1771
X0.2758Y-0.1103
X0.2821Y0.7446
X0.285Y0.5017
X0.2864Y0.5226
X0.2876Y1.0147
X0.2988Y1.1799
X0.2992Y0.7575
X0.3142Y0.624
X0.3173Y0.1459
X0.3205Y-0.112
X0.3211Y0.5393
X0.3213Y0.7491
X0.322Y0.5069
X0.324Y1.1791
X0.3299Y0.1653
X0.3343Y0.7654
X0.3369Y0.5236
X0.3437Y0.5984
X0.3459Y0.6266
X0.3496Y0.4291
X0.3496Y0.2714
X0.3497Y0.4608
X0.35Y1.1799
X0.3504Y0.752
X0.3612Y0.0799
X0.3623Y0.5236
X0.3628Y-0.1122
X0.3655Y0.0107
X0.3661Y0.7931
X0.3715Y0.7618
X0.3732Y0.5718
X0.3762Y0.5413
X0.3762Y0.5059
X0.3781Y0.6181
X0.3807Y0.3372
X0.3811Y0.2401
X0.3811Y0.2087
X0.3812Y0.3661
X0.3831Y1.2224
X0.388Y0.0031
X0.388Y-0.0148
X0.3957Y0.5858
X0.4028Y1.2102
X0.4031Y0.6738
X0.4035Y0.7537
X0.4088Y0.2355
X0.4122Y0.3671
X0.4125Y0.3344
X0.4126Y0.6122
X0.4126Y0.2716
X0.4126Y0.3975
X0.4127Y0.4293
X0.4146Y0.0545
X0.4183Y0.6382
X0.4191Y0.0167
X0.4197Y0.0344
X0.4224Y1.2224
X0.4304Y0.5362
X0.4317Y0.5151
X0.4402Y1.183
X0.4438Y0.3968
X0.444Y0.3681
X0.4441Y0.2089
X0.4441Y0.2717
X0.4441Y0.2401
X0.4458Y0.3065
X0.4478Y0.7964
X0.448Y0.7716
X0.4483Y0.7467
X0.4485Y0.3347
X0.4579Y1.1966
X0.4648Y0.6496
X0.4664Y0.5378
X0.4668Y0.5157
X0.4729Y0.3336
X0.4748Y0.2087
X0.4756Y0.1653
X0.4756Y0.3976
X0.4815Y1.248
X0.4864Y0.0398
X0.4953Y1.2323
X0.5016Y0.5271
X0.5073Y0.398
X0.5087Y0.3027
X0.5091Y1.246
X0.5102Y1.2094
X0.5207Y0.7671
X0.5228Y1.2323
X0.5228Y1.0669
X0.5241Y0.1683
X0.5327Y1.248
X0.5354Y0.748
X0.5388Y0.3976
X0.5388Y0.3652
X0.5406Y1.2145
X0.5406Y1.0669
X0.5474Y0.6555
X0.5504Y0.7638
X0.5583Y1.0675
X0.5593Y0.6077
X0.5596Y0.0181
X0.5598Y0.0925
X0.5602Y0.1406
X0.5669Y-0.0038
X0.5671Y0.75
X0.5681Y1.2165
X0.5681Y0.1201
X0.5697Y1.2516
X0.5734Y0.7701
X0.5861Y1.1693
X0.5862Y1.1874
X0.5864Y1.1512
X0.5909Y0.5122
X0.5929Y1.2953
X0.5929Y1.2744
X0.5929Y1.2516
X0.6026Y1.1604
X0.6026Y1.1409
X0.6027Y1.1785
X0.6055Y0.1378
X0.609Y0.258
X0.6205Y-0.0242
X0.6228Y0.3293
X0.6252Y0.2165
X0.6252Y0.1949
X0.6262Y0.5134
X0.6305Y0.2569
X0.6402Y0.5342
X0.6419Y0.4293
X0.6437Y0.0027
X0.6528Y0.3287
X0.6549Y0.2447
X0.663Y0.5118
X0.6685Y0.6594
X0.6724Y0.1043
X0.6764Y0.3012
X0.6783Y1.1043
X0.6783Y1.0866
X0.6783Y1.0689
X0.6783Y1.0512
X0.6783Y1.0334
X0.6783Y1.0157
X0.6783Y0.998
X0.6791Y0.4307
X0.6872Y0.088
X0.6882Y1.183
X0.6886Y0.4954
X0.6957Y0.5275
X0.6961Y0.998
X0.6961Y0.0033
X0.6972Y0.1075
X0.698Y0.624
X0.6983Y-0.0339
X0.7069Y1.0256
X0.7086Y1.196
X0.7096Y-0.0132
X0.7157Y1.0964
X0.7177Y0.998
X0.7202Y0.9458
X0.7202Y0.9125
X0.7276Y1.0531
X0.7293Y0.929
X0.7299Y0.5012
X0.7305Y-0.0242
X0.7315Y1.2047
X0.7324Y0.8102
X0.7333Y1.1126
X0.7383Y0.9123
X0.7383Y0.9456
X0.7413Y0.998
X0.7433Y0.8254
X0.7433Y0.7958
X0.7435Y0.4291
X0.7474Y0.9288
X0.7502Y0.8532
X0.7531Y1.1023
X0.7537Y0.8102
X0.7566Y0.9123
X0.7568Y0.9458
X0.7579Y1.1988
X0.7591Y1.0226
X0.765Y0.998
X0.7656Y0.8254
X0.7656Y0.7958
X0.7659Y0.929
X0.7709Y0.8532
X0.7734Y1.1126
X0.7766Y0.8102
X0.7768Y1.2106
X0.7854Y0.3512
X0.7898Y0.5236
X0.7906Y1.0984
X0.7931Y0.1179
X0.7943Y0.3118
X0.7972Y1.1998
X0.8004Y0.6909
X0.8004Y0.2086
X0.8005Y-0.0245
X0.8024Y0.183
X0.8063Y0.5012
X0.8065Y0.3559
X0.81Y1.1119
X0.8102Y0.0512
X0.813Y0.5204
X0.8157Y0.3086
X0.8181Y1.2106
X0.8193Y0.6217
X0.8285Y0.3645
X0.8299Y1.0984
X0.8299Y0.4972
X0.8313Y0.0441
X0.8362Y0.299
X0.8376Y1.1968
X0.844Y0.3892
X0.8482Y1.113
X0.8516Y-0.0296
X0.8519Y0.0453
X0.8555Y1.2145
X0.8683Y0.2051
X0.872Y0.9128
X0.8736Y1.0303
X0.874Y1.198
X0.8752Y1.061
X0.877Y1.0094
X0.8772Y1.0984
X0.8772Y1.0787
X0.887Y0.6098
X0.887Y0.583
X0.889Y1.0441
X0.889Y0.3299
X0.8894Y0.3041
X0.8902Y0.9134
X0.8929Y1.1122
X0.8945Y0.2237
X0.8949Y1.2106
X0.8949Y0.8445
X0.9045Y0.2427
X0.9087Y0.9136
X0.9087Y0.1321
X0.9154Y1.2004
X0.9205Y0.4941
X0.9268Y0.9138
X0.9348Y0.3854
X0.9384Y0.1606
X0.9421Y-0.0433
X0.9463Y0.914
X0.9514Y0.5114
X0.9579Y0.4882
X0.9669Y0.2807
X0.9697Y1.2185
X0.9697Y1.1988
X0.9735Y0.2613
X0.9736Y0.3618
X0.9736Y0.3417
X0.9781Y0.5201
X0.9795Y0.4882
X0.987Y-0.0929
X1.0031Y0.4882
X1.0051Y-0.0276
X1.0059Y-0.0929
X1.0093Y0.3919
X1.0094Y0.198
X1.0096Y0.3706
X1.01Y0.2206
X1.0177Y1.1405
X1.0177Y1.1179
X1.0189Y0.9744
X1.0209Y0.5256
X1.0258Y0.4023
X1.0262Y0.3814
X1.0319Y1.1519
X1.0319Y1.1289
X1.0319Y1.1066
X1.0327Y-0.0
X1.0457Y1.1405
X1.0459Y1.1179
X1.0524Y0.0197
X1.0563Y0.122
X1.0563Y0.0708
X1.0632Y0.8435
X1.0809Y-0.1339
X1.0829Y1.3386
X1.0829Y0.687
X1.0858Y-0.0729
X1.0898Y1.188
X1.0947Y1.1447
X1.0949Y0.6378
X1.0957Y1.25
X1.1075Y0.8494
X1.1075Y0.0748
X1.1094Y0.4852
X1.1096Y0.227
X1.1098Y0.625
X1.1102Y0.2476
X1.111Y0.1732
X1.1114Y1.2844
X1.1134Y0.687
X1.1138Y0.5126
X1.1183Y1.0945
X1.1183Y-0.1516
X1.1203Y1.3563
X1.1253Y0.1881
X1.1264Y0.4204
X1.1272Y0.1417
X1.1297Y0.9157
X1.1323Y0.5126
X1.136Y0.7086
X1.137Y0.7401
X1.137Y0.6634
X1.1374Y0.4397
X1.138Y1.0945
X1.1409Y0.1082
X1.1476Y0.9157
X1.1547Y-0.1526
X1.1567Y1.3573
X1.1577Y1.0945
X1.1654Y0.9157
X1.1724Y0.1397
X1.1768Y0.4413
X1.1774Y0.7421
X1.1774Y0.6604
X1.1774Y0.4124
X1.1774Y0.3868
X1.1823Y1.0393
X1.1831Y0.9161
X1.1872Y-0.1516
X1.1892Y1.3563
X1.1975Y0.3018
X1.1996Y0.4413
X1.2075Y0.8386
X1.2157Y-0.1299
X1.2177Y1.3346
X1.2207Y0.1063
X1.221Y0.3013
X1.222Y0.2409
X1.2226Y0.8533
X1.2287Y0.3664
X1.2303Y0.4533
X1.2303Y0.4354
X1.2303Y0.4171
X1.2303Y0.3992
X1.2346Y0.3466
X1.2402Y0.3092
X1.2413Y-0.1044
X1.2417Y0.2598
X1.2433Y1.309
X1.2443Y1.0954
X1.2512Y0.8567
X1.2512Y0.8382
X1.2514Y0.3345
X1.2516Y0.8181
X1.2543Y0.4551
X1.2543Y0.4362
X1.2547Y0.4165
X1.2571Y0.6289
X1.2571Y0.5964
X1.2571Y0.563
X1.261Y0.9911
X1.2896Y0.8986
X1.2925Y1.0954
X1.2974Y0.9911
X1.2994Y0.1004
X1.3014Y0.8208
X1.3033Y1.2431
X1.3053Y-0.0423
X1.3102Y0.2037
X1.324Y0.9793
X1.324Y0.8947
X1.324Y0.8514
X1.324Y0.7913
X1.325Y0.5649
X1.325Y0.3149
X1.325Y0.2529
X1.3252Y0.4055
X1.3252Y0.4577
X1.3252Y0.6299
X1.3289Y1.2175
X1.3309Y-0.0168
X1.3329Y1.0827
X1.3348Y0.1181
X1.3506Y1.189
X1.3506Y1.1201
X1.3516Y1.1565
X1.3526Y0.0807
X1.3526Y0.0118
X1.3535Y0.0443
T2
G00X-0.0379Y1.0791
M15
G01X-0.0851Y1.0791
M16
G05
G00X-0.0379Y0.739
M15
G01X-0.0851Y0.739
M16
G05
G00X0.1117Y1.0791
M15
G01X0.0802Y1.0791
M16
G05
G00X0.1117Y0.739
M15
G01X0.0802Y0.739
M16
G05
M30
