%TF.GenerationSoftware,KiCad,Pcbnew,10.0.3*%
%TF.CreationDate,2026-06-28T18:18:48+02:00*%
%TF.ProjectId,LEVIA_H7,4c455649-415f-4483-972e-6b696361645f,0.1*%
%TF.SameCoordinates,Original*%
%TF.FileFunction,Paste,Bot*%
%TF.FilePolarity,Positive*%
%FSLAX46Y46*%
G04 Gerber Fmt 4.6, Leading zero omitted, Abs format (unit mm)*
G04 Created by KiCad (PCBNEW 10.0.3) date 2026-06-28 18:18:48*
%MOMM*%
%LPD*%
G01*
G04 APERTURE LIST*
G04 Aperture macros list*
%AMRoundRect*
0 Rectangle with rounded corners*
0 $1 Rounding radius*
0 $2 $3 $4 $5 $6 $7 $8 $9 X,Y pos of 4 corners*
0 Add a 4 corners polygon primitive as box body*
4,1,4,$2,$3,$4,$5,$6,$7,$8,$9,$2,$3,0*
0 Add four circle primitives for the rounded corners*
1,1,$1+$1,$2,$3*
1,1,$1+$1,$4,$5*
1,1,$1+$1,$6,$7*
1,1,$1+$1,$8,$9*
0 Add four rect primitives between the rounded corners*
20,1,$1+$1,$2,$3,$4,$5,0*
20,1,$1+$1,$4,$5,$6,$7,0*
20,1,$1+$1,$6,$7,$8,$9,0*
20,1,$1+$1,$8,$9,$2,$3,0*%
%AMFreePoly0*
4,1,17,0.415339,0.330376,0.429984,0.295021,0.429984,-0.294996,0.415339,-0.330351,0.379984,-0.344996,-0.030023,-0.344996,-0.065378,-0.330351,-0.080023,-0.294996,-0.080023,0.005016,-0.380035,0.005016,-0.415390,0.019661,-0.430035,0.055016,-0.430035,0.295021,-0.415390,0.330376,-0.380035,0.345021,0.379984,0.345021,0.415339,0.330376,0.415339,0.330376,$1*%
%AMFreePoly1*
4,1,17,0.415237,0.330427,0.429882,0.295072,0.429882,-0.294970,0.415237,-0.330325,0.379882,-0.344970,-0.380136,-0.344970,-0.415491,-0.330325,-0.430136,-0.294970,-0.430136,-0.054966,-0.415491,-0.019611,-0.380136,-0.004966,-0.080124,-0.004966,-0.080124,0.295072,-0.065479,0.330427,-0.030124,0.345072,0.379882,0.345072,0.415237,0.330427,0.415237,0.330427,$1*%
%AMFreePoly2*
4,1,17,0.065276,0.330452,0.079921,0.295097,0.079921,-0.004915,0.379959,-0.004915,0.415314,-0.019560,0.429959,-0.054915,0.429959,-0.294919,0.415314,-0.330274,0.379959,-0.344919,-0.380086,-0.344919,-0.415441,-0.330274,-0.430086,-0.294919,-0.430086,0.295097,-0.415441,0.330452,-0.380086,0.345097,0.029921,0.345097,0.065276,0.330452,0.065276,0.330452,$1*%
%AMFreePoly3*
4,1,17,0.415339,0.330351,0.429984,0.294996,0.429984,0.054991,0.415339,0.019636,0.379984,0.004991,0.079972,0.004991,0.079972,-0.295021,0.065327,-0.330376,0.029972,-0.345021,-0.380035,-0.345021,-0.415390,-0.330376,-0.430035,-0.295021,-0.430035,0.294996,-0.415390,0.330351,-0.380035,0.344996,0.379984,0.344996,0.415339,0.330351,0.415339,0.330351,$1*%
%AMFreePoly4*
4,1,17,0.240384,0.280440,0.255029,0.245085,0.255029,-0.244932,0.240384,-0.280287,0.205029,-0.294932,-0.054991,-0.294932,-0.090346,-0.280287,-0.104991,-0.244932,-0.104991,-0.154927,-0.204978,-0.154927,-0.240333,-0.140282,-0.254978,-0.104927,-0.254978,0.245085,-0.240333,0.280440,-0.204978,0.295085,0.205029,0.295085,0.240384,0.280440,0.240384,0.280440,$1*%
%AMFreePoly5*
4,1,27,-0.004650,0.260425,0.060691,0.195085,0.999998,0.195085,1.035353,0.180440,1.049998,0.145085,1.049998,-0.144932,1.035353,-0.180287,0.999998,-0.194932,0.060715,-0.194932,0.055370,-0.200277,0.055327,-0.200294,-0.004650,-0.260272,-0.040005,-0.274917,-0.870001,-0.274917,-0.905356,-0.260272,-0.910701,-0.254927,-0.999998,-0.254927,-1.035353,-0.240282,-1.049998,-0.204927,-1.049998,0.195072,
-1.035353,0.230427,-0.999998,0.245072,-0.916662,0.245072,-0.889989,0.265072,-0.859993,0.275069,-0.040005,0.275069,-0.004650,0.260425,-0.004650,0.260425,$1*%
%AMFreePoly6*
4,1,17,0.235456,0.285342,0.250101,0.249987,0.250101,-0.250012,0.235456,-0.285367,0.200101,-0.300012,-0.199898,-0.300012,-0.235253,-0.285367,-0.249898,-0.250012,-0.249898,0.089992,-0.235253,0.125347,-0.199898,0.139992,-0.099911,0.139992,-0.099911,0.249987,-0.085266,0.285342,-0.049911,0.299987,0.200101,0.299987,0.235456,0.285342,0.235456,0.285342,$1*%
%AMFreePoly7*
4,1,13,0.155446,0.265276,0.170091,0.229921,0.170091,-0.230073,0.155446,-0.265428,0.120091,-0.280073,-0.119913,-0.280073,-0.155268,-0.265428,-0.169913,-0.230073,-0.169888,0.229924,-0.155241,0.265278,-0.119888,0.279921,0.120091,0.279921,0.155446,0.265276,0.155446,0.265276,$1*%
%AMFreePoly8*
4,1,17,0.110387,0.210412,0.125032,0.175057,0.125032,0.065062,0.225044,0.065062,0.260399,0.050417,0.275044,0.015062,0.275044,-0.174930,0.260399,-0.210285,0.225044,-0.224930,-0.224968,-0.224930,-0.260323,-0.210285,-0.274968,-0.174930,-0.274968,0.175057,-0.260323,0.210412,-0.224968,0.225057,0.075032,0.225057,0.110387,0.210412,0.110387,0.210412,$1*%
%AMFreePoly9*
4,1,13,0.260399,0.155421,0.275044,0.120066,0.275044,-0.119913,0.260399,-0.155268,0.225044,-0.169913,-0.224968,-0.169913,-0.260323,-0.155268,-0.274968,-0.119913,-0.274968,0.120066,-0.260323,0.155421,-0.224968,0.170066,0.225044,0.170066,0.260399,0.155421,0.260399,0.155421,$1*%
%AMFreePoly10*
4,1,13,0.260399,0.155446,0.275044,0.120091,0.275019,-0.119918,0.260371,-0.155272,0.225019,-0.169913,-0.224942,-0.169913,-0.260297,-0.155268,-0.274942,-0.119918,-0.274968,0.120086,-0.260327,0.155443,-0.224973,0.170091,0.225044,0.170091,0.260399,0.155446,0.260399,0.155446,$1*%
%AMFreePoly11*
4,1,17,0.260374,0.205357,0.275019,0.170008,0.275044,-0.029991,0.260404,-0.065348,0.225050,-0.079997,0.125032,-0.079997,0.125032,-0.170002,0.110387,-0.205357,0.075032,-0.220002,-0.224968,-0.220002,-0.260323,-0.205357,-0.274968,-0.170002,-0.274942,0.170006,-0.260295,0.205360,-0.224942,0.220002,0.225019,0.220002,0.260374,0.205357,0.260374,0.205357,$1*%
%AMFreePoly12*
4,1,13,0.160272,0.260501,0.174917,0.225146,0.174917,-0.224866,0.160272,-0.260221,0.124917,-0.274866,-0.125070,-0.274866,-0.160425,-0.260221,-0.175070,-0.224869,-0.175095,0.225143,-0.160452,0.260499,-0.125098,0.275146,0.124917,0.275146,0.160272,0.260501,0.160272,0.260501,$1*%
G04 Aperture macros list end*
%ADD10RoundRect,0.125000X0.675000X-0.125000X0.675000X0.125000X-0.675000X0.125000X-0.675000X-0.125000X0*%
%ADD11RoundRect,0.250000X0.950000X-0.300000X0.950000X0.300000X-0.950000X0.300000X-0.950000X-0.300000X0*%
%ADD12RoundRect,0.135000X0.185000X-0.135000X0.185000X0.135000X-0.185000X0.135000X-0.185000X-0.135000X0*%
%ADD13RoundRect,0.140000X-0.140000X-0.170000X0.140000X-0.170000X0.140000X0.170000X-0.140000X0.170000X0*%
%ADD14RoundRect,0.140000X-0.170000X0.140000X-0.170000X-0.140000X0.170000X-0.140000X0.170000X0.140000X0*%
%ADD15RoundRect,0.135000X-0.185000X0.135000X-0.185000X-0.135000X0.185000X-0.135000X0.185000X0.135000X0*%
%ADD16RoundRect,0.250000X0.475000X-0.250000X0.475000X0.250000X-0.475000X0.250000X-0.475000X-0.250000X0*%
%ADD17RoundRect,0.140000X0.140000X0.170000X-0.140000X0.170000X-0.140000X-0.170000X0.140000X-0.170000X0*%
%ADD18RoundRect,0.250000X-0.475000X0.250000X-0.475000X-0.250000X0.475000X-0.250000X0.475000X0.250000X0*%
%ADD19RoundRect,0.093750X-0.156250X-0.093750X0.156250X-0.093750X0.156250X0.093750X-0.156250X0.093750X0*%
%ADD20RoundRect,0.075000X-0.250000X-0.075000X0.250000X-0.075000X0.250000X0.075000X-0.250000X0.075000X0*%
%ADD21RoundRect,0.225000X0.225000X0.250000X-0.225000X0.250000X-0.225000X-0.250000X0.225000X-0.250000X0*%
%ADD22RoundRect,0.135000X0.135000X0.185000X-0.135000X0.185000X-0.135000X-0.185000X0.135000X-0.185000X0*%
%ADD23RoundRect,0.147500X0.147500X0.172500X-0.147500X0.172500X-0.147500X-0.172500X0.147500X-0.172500X0*%
%ADD24FreePoly0,270.000000*%
%ADD25R,0.250000X0.600000*%
%ADD26FreePoly1,270.000000*%
%ADD27FreePoly2,270.000000*%
%ADD28FreePoly3,270.000000*%
%ADD29R,1.300000X0.350000*%
%ADD30RoundRect,0.245000X-1.455000X0.245000X-1.455000X-0.245000X1.455000X-0.245000X1.455000X0.245000X0*%
%ADD31RoundRect,0.250000X0.950000X-0.325000X0.950000X0.325000X-0.950000X0.325000X-0.950000X-0.325000X0*%
%ADD32FreePoly4,180.000000*%
%ADD33FreePoly5,180.000000*%
%ADD34FreePoly6,180.000000*%
%ADD35FreePoly7,180.000000*%
%ADD36FreePoly8,180.000000*%
%ADD37FreePoly9,180.000000*%
%ADD38FreePoly10,180.000000*%
%ADD39FreePoly11,180.000000*%
%ADD40FreePoly12,180.000000*%
%ADD41RoundRect,0.125000X0.125000X0.675000X-0.125000X0.675000X-0.125000X-0.675000X0.125000X-0.675000X0*%
%ADD42RoundRect,0.250000X0.325000X0.950000X-0.325000X0.950000X-0.325000X-0.950000X0.325000X-0.950000X0*%
%ADD43R,0.711000X0.356000*%
%ADD44R,1.600000X2.400000*%
%ADD45RoundRect,0.140000X-0.021213X0.219203X-0.219203X0.021213X0.021213X-0.219203X0.219203X-0.021213X0*%
%ADD46RoundRect,0.140000X0.170000X-0.140000X0.170000X0.140000X-0.170000X0.140000X-0.170000X-0.140000X0*%
%ADD47RoundRect,0.200000X-0.250000X-0.200000X0.250000X-0.200000X0.250000X0.200000X-0.250000X0.200000X0*%
%ADD48RoundRect,0.250000X0.300000X0.950000X-0.300000X0.950000X-0.300000X-0.950000X0.300000X-0.950000X0*%
G04 APERTURE END LIST*
D10*
%TO.C,U21*%
X1075005Y6245004D03*
X1075005Y7245004D03*
X1075005Y8245004D03*
D11*
X-2324995Y5145004D03*
X-2324995Y9345004D03*
%TD*%
D12*
%TO.C,R12*%
X10770002Y27735003D03*
X10770002Y28755001D03*
%TD*%
D13*
%TO.C,C11*%
X12100005Y9389387D03*
X13060005Y9389387D03*
%TD*%
D14*
%TO.C,C7*%
X14445005Y8504387D03*
X14445005Y7544387D03*
%TD*%
%TO.C,C3*%
X12790005Y4134387D03*
X12790005Y3174387D03*
%TD*%
D12*
%TO.C,R46*%
X8880005Y30449388D03*
X8880005Y31469386D03*
%TD*%
D15*
%TO.C,R37*%
X9050005Y18484386D03*
X9050005Y17464388D03*
%TD*%
%TO.C,R41*%
X8110005Y18484386D03*
X8110005Y17464388D03*
%TD*%
D16*
%TO.C,C25*%
X8720002Y21155000D03*
X8720002Y23054998D03*
%TD*%
D13*
%TO.C,C8*%
X12150005Y10749387D03*
X13110005Y10749387D03*
%TD*%
D17*
%TO.C,C39*%
X28645005Y9699387D03*
X27685005Y9699387D03*
%TD*%
D15*
%TO.C,R38*%
X13600000Y18509999D03*
X13600000Y17490001D03*
%TD*%
D16*
%TO.C,C24*%
X22786273Y20503825D03*
X22786273Y22403823D03*
%TD*%
D18*
%TO.C,C14*%
X16170003Y28065000D03*
X16170003Y26165002D03*
%TD*%
D14*
%TO.C,C15*%
X26050000Y27435002D03*
X26050000Y26475002D03*
%TD*%
D19*
%TO.C,U1*%
X-224995Y23012500D03*
D20*
X-299995Y23550000D03*
D19*
X-224995Y24087500D03*
X1475005Y24087500D03*
D20*
X1550005Y23550000D03*
D19*
X1475005Y23012500D03*
%TD*%
D16*
%TO.C,C27*%
X10695002Y21155003D03*
X10695002Y23055001D03*
%TD*%
D14*
%TO.C,C40*%
X25052750Y8075000D03*
X25052750Y7115000D03*
%TD*%
D21*
%TO.C,C18*%
X23061273Y24243825D03*
X21511273Y24243825D03*
%TD*%
D22*
%TO.C,R8*%
X13305000Y29305000D03*
X12285002Y29305000D03*
%TD*%
D23*
%TO.C,FB1*%
X14840005Y4249387D03*
X13870005Y4249387D03*
%TD*%
D12*
%TO.C,R32*%
X5830005Y5409388D03*
X5830005Y6429386D03*
%TD*%
D14*
%TO.C,C16*%
X14695001Y28135001D03*
X14695001Y27175001D03*
%TD*%
D12*
%TO.C,R49*%
X4880005Y30449388D03*
X4880005Y31469386D03*
%TD*%
D24*
%TO.C,U4*%
X23030000Y27420000D03*
D25*
X23700000Y27490000D03*
X24200000Y27490000D03*
D26*
X24850000Y27410000D03*
D27*
X24850000Y25630000D03*
D25*
X24200000Y25550000D03*
X23700000Y25550000D03*
D28*
X23030000Y25630000D03*
D29*
X23400000Y26520000D03*
%TD*%
D17*
%TO.C,C2*%
X14880005Y6119387D03*
X13920005Y6119387D03*
%TD*%
D12*
%TO.C,R47*%
X7580005Y30449388D03*
X7580005Y31469386D03*
%TD*%
D13*
%TO.C,C9*%
X12460005Y7159387D03*
X13420005Y7159387D03*
%TD*%
D16*
%TO.C,C22*%
X20806273Y20503826D03*
X20806273Y22403824D03*
%TD*%
D22*
%TO.C,R1*%
X715004Y25124387D03*
X-304994Y25124387D03*
%TD*%
D17*
%TO.C,C12*%
X10710005Y7574387D03*
X9750005Y7574387D03*
%TD*%
D30*
%TO.C,L1*%
X26175003Y22840003D03*
X26175003Y20470001D03*
%TD*%
D13*
%TO.C,C20*%
X24219998Y24530002D03*
X25179998Y24530002D03*
%TD*%
D15*
%TO.C,R39*%
X14650000Y18509999D03*
X14650000Y17490001D03*
%TD*%
%TO.C,R40*%
X7170005Y18484386D03*
X7170005Y17464388D03*
%TD*%
D30*
%TO.C,L2*%
X14070000Y23430000D03*
X14070000Y21059998D03*
%TD*%
D10*
%TO.C,U3*%
X1080569Y12010004D03*
X1080569Y13010004D03*
X1080569Y14010004D03*
X1080569Y15010004D03*
D31*
X-2319431Y16110004D03*
X-2319431Y10910004D03*
%TD*%
D13*
%TO.C,C21*%
X12510000Y25105002D03*
X13470000Y25105002D03*
%TD*%
D32*
%TO.C,U5*%
X13380000Y28115002D03*
D33*
X12590000Y27115002D03*
D34*
X13390000Y26115002D03*
D35*
X12659999Y26095002D03*
D36*
X11810000Y26035002D03*
D37*
X11810000Y26595002D03*
D38*
X11810000Y27645002D03*
D39*
X11810000Y28195002D03*
D40*
X12659999Y28135002D03*
%TD*%
D22*
%TO.C,R16*%
X8880002Y26530000D03*
X7860004Y26530000D03*
%TD*%
D12*
%TO.C,R43*%
X20275000Y28815001D03*
X20275000Y29834999D03*
%TD*%
D22*
%TO.C,R7*%
X3480003Y11414387D03*
X2460005Y11414387D03*
%TD*%
D41*
%TO.C,U8*%
X25524340Y1102473D03*
X24524340Y1102473D03*
X23524340Y1102473D03*
X22524340Y1102473D03*
D42*
X21424340Y-2297527D03*
X26624340Y-2297527D03*
%TD*%
D22*
%TO.C,R34*%
X4480004Y4514387D03*
X3460006Y4514387D03*
%TD*%
D15*
%TO.C,R2*%
X2205005Y21184386D03*
X2205005Y20164388D03*
%TD*%
%TO.C,R35*%
X3500005Y3574386D03*
X3500005Y2554388D03*
%TD*%
D43*
%TO.C,U12*%
X25990000Y6730000D03*
X25990000Y7390000D03*
X25990000Y8040000D03*
X25990000Y8690000D03*
X28850000Y8690000D03*
X28850000Y8040000D03*
X28850000Y7390000D03*
X28850000Y6730000D03*
D44*
X27420000Y7710000D03*
%TD*%
D15*
%TO.C,R9*%
X10770002Y26055000D03*
X10770002Y25035002D03*
%TD*%
D18*
%TO.C,C13*%
X27500003Y27430000D03*
X27500003Y25530002D03*
%TD*%
D12*
%TO.C,R48*%
X6230005Y30449388D03*
X6230005Y31469386D03*
%TD*%
D41*
%TO.C,U24*%
X18880005Y1090004D03*
X17880005Y1090004D03*
X16880005Y1090004D03*
X15880005Y1090004D03*
D42*
X14780005Y-2309996D03*
X19980005Y-2309996D03*
%TD*%
D45*
%TO.C,C6*%
X10764416Y5703798D03*
X10085594Y5024976D03*
%TD*%
D46*
%TO.C,C5*%
X12790005Y5004387D03*
X12790005Y5964387D03*
%TD*%
D13*
%TO.C,C10*%
X12480005Y8219387D03*
X13440005Y8219387D03*
%TD*%
D12*
%TO.C,R45*%
X18275000Y28815001D03*
X18275000Y29834999D03*
%TD*%
D17*
%TO.C,C4*%
X14860005Y5184387D03*
X13900005Y5184387D03*
%TD*%
D47*
%TO.C,D6*%
X30350000Y6900000D03*
X30350000Y8800000D03*
X32350000Y7850000D03*
%TD*%
D15*
%TO.C,R15*%
X9805002Y26580000D03*
X9805002Y25560002D03*
%TD*%
D12*
%TO.C,R44*%
X19275000Y28815001D03*
X19275000Y29834999D03*
%TD*%
%TO.C,R42*%
X21275000Y28815001D03*
X21275000Y29834999D03*
%TD*%
D15*
%TO.C,R36*%
X11855005Y18519386D03*
X11855005Y17499388D03*
%TD*%
D46*
%TO.C,C53*%
X9985005Y17514387D03*
X9985005Y18474387D03*
%TD*%
%TO.C,C28*%
X7270003Y21375001D03*
X7270003Y22335001D03*
%TD*%
D41*
%TO.C,U19*%
X9860005Y1090004D03*
X8860005Y1090004D03*
X7860005Y1090004D03*
X6860005Y1090004D03*
X5860005Y1090004D03*
X4860005Y1090004D03*
D48*
X3760005Y-2309996D03*
X10960005Y-2309996D03*
%TD*%
D46*
%TO.C,C54*%
X10905005Y17514387D03*
X10905005Y18474387D03*
%TD*%
M02*
