%TF.GenerationSoftware,KiCad,Pcbnew,10.0.3*%
%TF.CreationDate,2026-06-28T18:18:48+02:00*%
%TF.ProjectId,LEVIA_H7,4c455649-415f-4483-972e-6b696361645f,0.1*%
%TF.SameCoordinates,Original*%
%TF.FileFunction,Soldermask,Bot*%
%TF.FilePolarity,Negative*%
%FSLAX46Y46*%
G04 Gerber Fmt 4.6, Leading zero omitted, Abs format (unit mm)*
G04 Created by KiCad (PCBNEW 10.0.3) date 2026-06-28 18:18:48*
%MOMM*%
%LPD*%
G01*
G04 APERTURE LIST*
G04 Aperture macros list*
%AMRoundRect*
0 Rectangle with rounded corners*
0 $1 Rounding radius*
0 $2 $3 $4 $5 $6 $7 $8 $9 X,Y pos of 4 corners*
0 Add a 4 corners polygon primitive as box body*
4,1,4,$2,$3,$4,$5,$6,$7,$8,$9,$2,$3,0*
0 Add four circle primitives for the rounded corners*
1,1,$1+$1,$2,$3*
1,1,$1+$1,$4,$5*
1,1,$1+$1,$6,$7*
1,1,$1+$1,$8,$9*
0 Add four rect primitives between the rounded corners*
20,1,$1+$1,$2,$3,$4,$5,0*
20,1,$1+$1,$4,$5,$6,$7,0*
20,1,$1+$1,$6,$7,$8,$9,0*
20,1,$1+$1,$8,$9,$2,$3,0*%
%AMFreePoly0*
4,1,17,0.415339,0.330376,0.429984,0.295021,0.429984,-0.294996,0.415339,-0.330351,0.379984,-0.344996,-0.030023,-0.344996,-0.065378,-0.330351,-0.080023,-0.294996,-0.080023,0.005016,-0.380035,0.005016,-0.415390,0.019661,-0.430035,0.055016,-0.430035,0.295021,-0.415390,0.330376,-0.380035,0.345021,0.379984,0.345021,0.415339,0.330376,0.415339,0.330376,$1*%
%AMFreePoly1*
4,1,17,0.415237,0.330427,0.429882,0.295072,0.429882,-0.294970,0.415237,-0.330325,0.379882,-0.344970,-0.380136,-0.344970,-0.415491,-0.330325,-0.430136,-0.294970,-0.430136,-0.054966,-0.415491,-0.019611,-0.380136,-0.004966,-0.080124,-0.004966,-0.080124,0.295072,-0.065479,0.330427,-0.030124,0.345072,0.379882,0.345072,0.415237,0.330427,0.415237,0.330427,$1*%
%AMFreePoly2*
4,1,17,0.065276,0.330452,0.079921,0.295097,0.079921,-0.004915,0.379959,-0.004915,0.415314,-0.019560,0.429959,-0.054915,0.429959,-0.294919,0.415314,-0.330274,0.379959,-0.344919,-0.380086,-0.344919,-0.415441,-0.330274,-0.430086,-0.294919,-0.430086,0.295097,-0.415441,0.330452,-0.380086,0.345097,0.029921,0.345097,0.065276,0.330452,0.065276,0.330452,$1*%
%AMFreePoly3*
4,1,17,0.415339,0.330351,0.429984,0.294996,0.429984,0.054991,0.415339,0.019636,0.379984,0.004991,0.079972,0.004991,0.079972,-0.295021,0.065327,-0.330376,0.029972,-0.345021,-0.380035,-0.345021,-0.415390,-0.330376,-0.430035,-0.295021,-0.430035,0.294996,-0.415390,0.330351,-0.380035,0.344996,0.379984,0.344996,0.415339,0.330351,0.415339,0.330351,$1*%
%AMFreePoly4*
4,1,17,0.240384,0.280440,0.255029,0.245085,0.255029,-0.244932,0.240384,-0.280287,0.205029,-0.294932,-0.054991,-0.294932,-0.090346,-0.280287,-0.104991,-0.244932,-0.104991,-0.154927,-0.204978,-0.154927,-0.240333,-0.140282,-0.254978,-0.104927,-0.254978,0.245085,-0.240333,0.280440,-0.204978,0.295085,0.205029,0.295085,0.240384,0.280440,0.240384,0.280440,$1*%
%AMFreePoly5*
4,1,27,-0.004650,0.260425,0.060691,0.195085,0.999998,0.195085,1.035353,0.180440,1.049998,0.145085,1.049998,-0.144932,1.035353,-0.180287,0.999998,-0.194932,0.060715,-0.194932,0.055370,-0.200277,0.055327,-0.200294,-0.004650,-0.260272,-0.040005,-0.274917,-0.870001,-0.274917,-0.905356,-0.260272,-0.910701,-0.254927,-0.999998,-0.254927,-1.035353,-0.240282,-1.049998,-0.204927,-1.049998,0.195072,
-1.035353,0.230427,-0.999998,0.245072,-0.916662,0.245072,-0.889989,0.265072,-0.859993,0.275069,-0.040005,0.275069,-0.004650,0.260425,-0.004650,0.260425,$1*%
%AMFreePoly6*
4,1,17,0.235456,0.285342,0.250101,0.249987,0.250101,-0.250012,0.235456,-0.285367,0.200101,-0.300012,-0.199898,-0.300012,-0.235253,-0.285367,-0.249898,-0.250012,-0.249898,0.089992,-0.235253,0.125347,-0.199898,0.139992,-0.099911,0.139992,-0.099911,0.249987,-0.085266,0.285342,-0.049911,0.299987,0.200101,0.299987,0.235456,0.285342,0.235456,0.285342,$1*%
%AMFreePoly7*
4,1,13,0.155446,0.265276,0.170091,0.229921,0.170091,-0.230073,0.155446,-0.265428,0.120091,-0.280073,-0.119913,-0.280073,-0.155268,-0.265428,-0.169913,-0.230073,-0.169888,0.229924,-0.155241,0.265278,-0.119888,0.279921,0.120091,0.279921,0.155446,0.265276,0.155446,0.265276,$1*%
%AMFreePoly8*
4,1,17,0.110387,0.210412,0.125032,0.175057,0.125032,0.065062,0.225044,0.065062,0.260399,0.050417,0.275044,0.015062,0.275044,-0.174930,0.260399,-0.210285,0.225044,-0.224930,-0.224968,-0.224930,-0.260323,-0.210285,-0.274968,-0.174930,-0.274968,0.175057,-0.260323,0.210412,-0.224968,0.225057,0.075032,0.225057,0.110387,0.210412,0.110387,0.210412,$1*%
%AMFreePoly9*
4,1,13,0.260399,0.155421,0.275044,0.120066,0.275044,-0.119913,0.260399,-0.155268,0.225044,-0.169913,-0.224968,-0.169913,-0.260323,-0.155268,-0.274968,-0.119913,-0.274968,0.120066,-0.260323,0.155421,-0.224968,0.170066,0.225044,0.170066,0.260399,0.155421,0.260399,0.155421,$1*%
%AMFreePoly10*
4,1,13,0.260399,0.155446,0.275044,0.120091,0.275019,-0.119918,0.260371,-0.155272,0.225019,-0.169913,-0.224942,-0.169913,-0.260297,-0.155268,-0.274942,-0.119918,-0.274968,0.120086,-0.260327,0.155443,-0.224973,0.170091,0.225044,0.170091,0.260399,0.155446,0.260399,0.155446,$1*%
%AMFreePoly11*
4,1,17,0.260374,0.205357,0.275019,0.170008,0.275044,-0.029991,0.260404,-0.065348,0.225050,-0.079997,0.125032,-0.079997,0.125032,-0.170002,0.110387,-0.205357,0.075032,-0.220002,-0.224968,-0.220002,-0.260323,-0.205357,-0.274968,-0.170002,-0.274942,0.170006,-0.260295,0.205360,-0.224942,0.220002,0.225019,0.220002,0.260374,0.205357,0.260374,0.205357,$1*%
%AMFreePoly12*
4,1,13,0.160272,0.260501,0.174917,0.225146,0.174917,-0.224866,0.160272,-0.260221,0.124917,-0.274866,-0.125070,-0.274866,-0.160425,-0.260221,-0.175070,-0.224869,-0.175095,0.225143,-0.160452,0.260499,-0.125098,0.275146,0.124917,0.275146,0.160272,0.260501,0.160272,0.260501,$1*%
G04 Aperture macros list end*
%ADD10C,0.100000*%
%ADD11O,1.800000X1.000000*%
%ADD12O,2.200000X1.000000*%
%ADD13RoundRect,0.125000X0.675000X-0.125000X0.675000X0.125000X-0.675000X0.125000X-0.675000X-0.125000X0*%
%ADD14RoundRect,0.250000X0.950000X-0.300000X0.950000X0.300000X-0.950000X0.300000X-0.950000X-0.300000X0*%
%ADD15RoundRect,0.135000X0.185000X-0.135000X0.185000X0.135000X-0.185000X0.135000X-0.185000X-0.135000X0*%
%ADD16RoundRect,0.140000X-0.140000X-0.170000X0.140000X-0.170000X0.140000X0.170000X-0.140000X0.170000X0*%
%ADD17RoundRect,0.140000X-0.170000X0.140000X-0.170000X-0.140000X0.170000X-0.140000X0.170000X0.140000X0*%
%ADD18RoundRect,0.135000X-0.185000X0.135000X-0.185000X-0.135000X0.185000X-0.135000X0.185000X0.135000X0*%
%ADD19RoundRect,0.250000X0.475000X-0.250000X0.475000X0.250000X-0.475000X0.250000X-0.475000X-0.250000X0*%
%ADD20RoundRect,0.140000X0.140000X0.170000X-0.140000X0.170000X-0.140000X-0.170000X0.140000X-0.170000X0*%
%ADD21RoundRect,0.250000X-0.475000X0.250000X-0.475000X-0.250000X0.475000X-0.250000X0.475000X0.250000X0*%
%ADD22RoundRect,0.093750X-0.156250X-0.093750X0.156250X-0.093750X0.156250X0.093750X-0.156250X0.093750X0*%
%ADD23RoundRect,0.075000X-0.250000X-0.075000X0.250000X-0.075000X0.250000X0.075000X-0.250000X0.075000X0*%
%ADD24RoundRect,0.225000X0.225000X0.250000X-0.225000X0.250000X-0.225000X-0.250000X0.225000X-0.250000X0*%
%ADD25RoundRect,0.135000X0.135000X0.185000X-0.135000X0.185000X-0.135000X-0.185000X0.135000X-0.185000X0*%
%ADD26RoundRect,0.147500X0.147500X0.172500X-0.147500X0.172500X-0.147500X-0.172500X0.147500X-0.172500X0*%
%ADD27FreePoly0,270.000000*%
%ADD28R,0.250000X0.600000*%
%ADD29FreePoly1,270.000000*%
%ADD30FreePoly2,270.000000*%
%ADD31FreePoly3,270.000000*%
%ADD32R,1.300000X0.350000*%
%ADD33RoundRect,0.245000X-1.455000X0.245000X-1.455000X-0.245000X1.455000X-0.245000X1.455000X0.245000X0*%
%ADD34RoundRect,0.250000X0.950000X-0.325000X0.950000X0.325000X-0.950000X0.325000X-0.950000X-0.325000X0*%
%ADD35FreePoly4,180.000000*%
%ADD36FreePoly5,180.000000*%
%ADD37FreePoly6,180.000000*%
%ADD38FreePoly7,180.000000*%
%ADD39FreePoly8,180.000000*%
%ADD40FreePoly9,180.000000*%
%ADD41FreePoly10,180.000000*%
%ADD42FreePoly11,180.000000*%
%ADD43FreePoly12,180.000000*%
%ADD44RoundRect,0.125000X0.125000X0.675000X-0.125000X0.675000X-0.125000X-0.675000X0.125000X-0.675000X0*%
%ADD45RoundRect,0.250000X0.325000X0.950000X-0.325000X0.950000X-0.325000X-0.950000X0.325000X-0.950000X0*%
%ADD46R,0.711000X0.356000*%
%ADD47R,1.600000X2.400000*%
%ADD48RoundRect,0.140000X-0.021213X0.219203X-0.219203X0.021213X0.021213X-0.219203X0.219203X-0.021213X0*%
%ADD49RoundRect,0.140000X0.170000X-0.140000X0.170000X0.140000X-0.170000X0.140000X-0.170000X-0.140000X0*%
%ADD50RoundRect,0.200000X-0.250000X-0.200000X0.250000X-0.200000X0.250000X0.200000X-0.250000X0.200000X0*%
%ADD51RoundRect,0.250000X0.300000X0.950000X-0.300000X0.950000X-0.300000X-0.950000X0.300000X-0.950000X0*%
G04 APERTURE END LIST*
D10*
X25016838Y13983432D02*
X25080925Y13983432D01*
X25049508Y14145507D01*
X25048252Y14145508D01*
X25016838Y13983432D01*
G36*
X25049508Y14145507D02*
G01*
X25080925Y13983432D01*
X25016838Y13983432D01*
X25048252Y14145508D01*
X25049508Y14145507D01*
G37*
X25273305Y18501477D02*
X27124420Y15264571D01*
X27133112Y15248242D01*
X27138753Y15237069D01*
X27140327Y15233628D01*
X27140980Y15231757D01*
X27125521Y15229289D01*
X25154152Y15217268D01*
X24737659Y14496751D01*
X24737269Y14495611D01*
X28412677Y14486736D01*
X26115067Y18507538D01*
X25273305Y18501477D01*
G36*
X28412677Y14486736D02*
G01*
X24737269Y14495611D01*
X24737659Y14496751D01*
X25154152Y15217268D01*
X27125521Y15229289D01*
X27140980Y15231757D01*
X27140327Y15233628D01*
X27138753Y15237069D01*
X27133112Y15248242D01*
X27124420Y15264571D01*
X25273305Y18501477D01*
X26115067Y18507538D01*
X28412677Y14486736D01*
G37*
X25208364Y18465891D02*
X25207166Y18465294D01*
X25205734Y18464245D01*
X25204081Y18462758D01*
X25202225Y18460878D01*
X25200194Y18458610D01*
X22872170Y14462441D01*
X23284318Y13755963D01*
X23286699Y13753112D01*
X23288877Y13750660D01*
X23290848Y13748628D01*
X23292579Y13747053D01*
X23293352Y13746447D01*
X23294051Y13745951D01*
X23294688Y13745599D01*
X23295256Y13745372D01*
X23295894Y13745421D01*
X23296764Y13745890D01*
X23299164Y13748004D01*
X23302386Y13751634D01*
X23306407Y13756729D01*
X25201241Y16988903D01*
X25204059Y16991009D01*
X25205199Y16991534D01*
X25206154Y16991719D01*
X25206971Y16991697D01*
X25207809Y16991603D01*
X25209545Y16991250D01*
X25210427Y16991001D01*
X25211333Y16990678D01*
X25215006Y16988914D01*
X26197609Y15281943D01*
X27018993Y15286486D01*
X27026838Y15287644D01*
X27031527Y15288902D01*
X27032695Y15289566D01*
X27033084Y15290253D01*
X27030005Y15299387D01*
X25804281Y17445600D01*
X25220620Y18454442D01*
X25217166Y18458702D01*
X25214168Y18462027D01*
X25212859Y18463328D01*
X25211685Y18464372D01*
X25210642Y18465159D01*
X25209740Y18465675D01*
X25208976Y18465928D01*
X25208364Y18465891D01*
G36*
X25209740Y18465675D02*
G01*
X25210642Y18465159D01*
X25211685Y18464372D01*
X25212859Y18463328D01*
X25214168Y18462027D01*
X25217166Y18458702D01*
X25220620Y18454442D01*
X25804281Y17445600D01*
X27030005Y15299387D01*
X27033084Y15290253D01*
X27032695Y15289566D01*
X27031527Y15288902D01*
X27026838Y15287644D01*
X27018993Y15286486D01*
X26197609Y15281943D01*
X25215006Y16988914D01*
X25211333Y16990678D01*
X25210427Y16991001D01*
X25209545Y16991250D01*
X25207809Y16991603D01*
X25206971Y16991697D01*
X25206154Y16991719D01*
X25205199Y16991534D01*
X25204059Y16991009D01*
X25201241Y16988903D01*
X23306407Y13756729D01*
X23302386Y13751634D01*
X23299164Y13748004D01*
X23296764Y13745890D01*
X23295894Y13745421D01*
X23295256Y13745372D01*
X23294688Y13745599D01*
X23294051Y13745951D01*
X23293352Y13746447D01*
X23292579Y13747053D01*
X23290848Y13748628D01*
X23288877Y13750660D01*
X23286699Y13753112D01*
X23284318Y13755963D01*
X22872170Y14462441D01*
X25200194Y18458610D01*
X25202225Y18460878D01*
X25204081Y18462758D01*
X25205734Y18464245D01*
X25207166Y18465294D01*
X25208364Y18465891D01*
X25208976Y18465928D01*
X25209740Y18465675D01*
G37*
X27209251Y14213941D02*
X27205328Y14213734D01*
X27201584Y14213396D01*
X27198006Y14212903D01*
X27194596Y14212288D01*
X27191358Y14211531D01*
X27188293Y14210632D01*
X27186803Y14210136D01*
X27185382Y14209602D01*
X27183981Y14209047D01*
X27182625Y14208431D01*
X27181324Y14207799D01*
X27180057Y14207127D01*
X27178824Y14206422D01*
X27177650Y14205687D01*
X27176502Y14204908D01*
X27175404Y14204098D01*
X27174350Y14203256D01*
X27173335Y14202381D01*
X27172365Y14201473D01*
X27171419Y14200526D01*
X27170527Y14199543D01*
X27169682Y14198533D01*
X27168865Y14197486D01*
X27168102Y14196405D01*
X27167410Y14195213D01*
X27166746Y14193984D01*
X27166115Y14192732D01*
X27165509Y14191461D01*
X27164933Y14190144D01*
X27164394Y14188803D01*
X27163874Y14187433D01*
X27163392Y14186038D01*
X27162924Y14184616D01*
X27162501Y14183160D01*
X27162110Y14181667D01*
X27161733Y14180149D01*
X27161403Y14178605D01*
X27161088Y14177025D01*
X27160804Y14175420D01*
X27160558Y14173800D01*
X27160107Y14170572D01*
X27159733Y14167230D01*
X27159402Y14163742D01*
X27159133Y14160116D01*
X27158921Y14156356D01*
X27158776Y14152460D01*
X27158681Y14148420D01*
X27158656Y14144251D01*
X27158681Y14140061D01*
X27158776Y14136002D01*
X27158921Y14132057D01*
X27159133Y14128228D01*
X27159402Y14124516D01*
X27159733Y14120925D01*
X27160107Y14117443D01*
X27160558Y14114094D01*
X27160802Y14112540D01*
X27161072Y14111009D01*
X27161373Y14109505D01*
X27161695Y14108054D01*
X27162040Y14106614D01*
X27162407Y14105196D01*
X27162798Y14103820D01*
X27163223Y14102478D01*
X27163665Y14101155D01*
X27164129Y14099867D01*
X27164627Y14098607D01*
X27165144Y14097373D01*
X27165685Y14096174D01*
X27166251Y14094991D01*
X27166845Y14093847D01*
X27167464Y14092740D01*
X27168180Y14091656D01*
X27168939Y14090598D01*
X27169729Y14089575D01*
X27170556Y14088579D01*
X27171419Y14087617D01*
X27172321Y14086678D01*
X27173253Y14085770D01*
X27174222Y14084895D01*
X27175215Y14084054D01*
X27176252Y14083234D01*
X27177308Y14082445D01*
X27178420Y14081680D01*
X27179551Y14080947D01*
X27180711Y14080248D01*
X27181926Y14079580D01*
X27183161Y14078928D01*
X27184453Y14078400D01*
X27185782Y14077898D01*
X27187180Y14077439D01*
X27188622Y14077013D01*
X27190128Y14076613D01*
X27191679Y14076248D01*
X27193290Y14075918D01*
X27194953Y14075632D01*
X27196665Y14075370D01*
X27198439Y14075142D01*
X27202145Y14074796D01*
X27206054Y14074586D01*
X27210196Y14074519D01*
X27246637Y14074519D01*
X27246637Y14214014D01*
X27213318Y14214014D01*
X27209251Y14213941D01*
G36*
X27246637Y14074519D02*
G01*
X27210196Y14074519D01*
X27206054Y14074586D01*
X27202145Y14074796D01*
X27198439Y14075142D01*
X27196665Y14075370D01*
X27194953Y14075632D01*
X27193290Y14075918D01*
X27191679Y14076248D01*
X27190128Y14076613D01*
X27188622Y14077013D01*
X27187180Y14077439D01*
X27185782Y14077898D01*
X27184453Y14078400D01*
X27183161Y14078928D01*
X27181926Y14079580D01*
X27180711Y14080248D01*
X27179551Y14080947D01*
X27178420Y14081680D01*
X27177308Y14082445D01*
X27176252Y14083234D01*
X27175215Y14084054D01*
X27174222Y14084895D01*
X27173253Y14085770D01*
X27172321Y14086678D01*
X27171419Y14087617D01*
X27170556Y14088579D01*
X27169729Y14089575D01*
X27168939Y14090598D01*
X27168180Y14091656D01*
X27167464Y14092740D01*
X27166845Y14093847D01*
X27166251Y14094991D01*
X27165685Y14096174D01*
X27165144Y14097373D01*
X27164627Y14098607D01*
X27164129Y14099867D01*
X27163665Y14101155D01*
X27163223Y14102478D01*
X27162798Y14103820D01*
X27162407Y14105196D01*
X27162040Y14106614D01*
X27161695Y14108054D01*
X27161373Y14109505D01*
X27161072Y14111009D01*
X27160802Y14112540D01*
X27160558Y14114094D01*
X27160107Y14117443D01*
X27159733Y14120925D01*
X27159402Y14124516D01*
X27159133Y14128228D01*
X27158921Y14132057D01*
X27158776Y14136002D01*
X27158681Y14140061D01*
X27158656Y14144251D01*
X27158681Y14148420D01*
X27158776Y14152460D01*
X27158921Y14156356D01*
X27159133Y14160116D01*
X27159402Y14163742D01*
X27159733Y14167230D01*
X27160107Y14170572D01*
X27160558Y14173800D01*
X27160804Y14175420D01*
X27161088Y14177025D01*
X27161403Y14178605D01*
X27161733Y14180149D01*
X27162110Y14181667D01*
X27162501Y14183160D01*
X27162924Y14184616D01*
X27163392Y14186038D01*
X27163874Y14187433D01*
X27164394Y14188803D01*
X27164933Y14190144D01*
X27165509Y14191461D01*
X27166115Y14192732D01*
X27166746Y14193984D01*
X27167410Y14195213D01*
X27168102Y14196405D01*
X27168865Y14197486D01*
X27169682Y14198533D01*
X27170527Y14199543D01*
X27171419Y14200526D01*
X27172365Y14201473D01*
X27173335Y14202381D01*
X27174350Y14203256D01*
X27175404Y14204098D01*
X27176502Y14204908D01*
X27177650Y14205687D01*
X27178824Y14206422D01*
X27180057Y14207127D01*
X27181324Y14207799D01*
X27182625Y14208431D01*
X27183981Y14209047D01*
X27185382Y14209602D01*
X27186803Y14210136D01*
X27188293Y14210632D01*
X27191358Y14211531D01*
X27194596Y14212288D01*
X27198006Y14212903D01*
X27201584Y14213396D01*
X27205328Y14213734D01*
X27209251Y14213941D01*
X27213318Y14214014D01*
X27246637Y14214014D01*
X27246637Y14074519D01*
G37*
X27827352Y14213988D02*
X27825100Y14213914D01*
X27822914Y14213806D01*
X27820799Y14213654D01*
X27818753Y14213452D01*
X27816770Y14213211D01*
X27814869Y14212915D01*
X27813024Y14212585D01*
X27811249Y14212209D01*
X27809555Y14211791D01*
X27807915Y14211322D01*
X27806352Y14210818D01*
X27804854Y14210252D01*
X27803423Y14209663D01*
X27802072Y14209027D01*
X27800779Y14208339D01*
X27799533Y14207604D01*
X27798339Y14206841D01*
X27797181Y14206034D01*
X27796055Y14205196D01*
X27794982Y14204313D01*
X27793936Y14203397D01*
X27792943Y14202436D01*
X27791968Y14201430D01*
X27791042Y14200391D01*
X27790167Y14199303D01*
X27789322Y14198198D01*
X27788509Y14197036D01*
X27787747Y14195841D01*
X27787018Y14194612D01*
X27786327Y14193337D01*
X27785683Y14192012D01*
X27785070Y14190664D01*
X27784493Y14189279D01*
X27783950Y14187882D01*
X27783441Y14186438D01*
X27782978Y14184970D01*
X27782533Y14183473D01*
X27782126Y14181949D01*
X27781759Y14180402D01*
X27781423Y14178812D01*
X27781130Y14177199D01*
X27780852Y14175551D01*
X27780616Y14173875D01*
X27780421Y14172175D01*
X27780264Y14170442D01*
X27780033Y14166889D01*
X27779762Y14159856D01*
X27779572Y14152588D01*
X27779461Y14145087D01*
X27779427Y14137345D01*
X27779447Y14133154D01*
X27779500Y14129063D01*
X27779593Y14125069D01*
X27779740Y14121176D01*
X27779917Y14117378D01*
X27780129Y14113679D01*
X27780395Y14110078D01*
X27780681Y14106574D01*
X27780778Y14104868D01*
X27780908Y14103188D01*
X27781067Y14101546D01*
X27781273Y14099936D01*
X27781504Y14098366D01*
X27781772Y14096820D01*
X27782064Y14095316D01*
X27782400Y14093844D01*
X27782777Y14092405D01*
X27783178Y14091007D01*
X27783615Y14089639D01*
X27784092Y14088304D01*
X27784594Y14087010D01*
X27785136Y14085745D01*
X27785712Y14084528D01*
X27786327Y14083322D01*
X27786979Y14082079D01*
X27787675Y14080881D01*
X27788408Y14079704D01*
X27789190Y14078567D01*
X27790017Y14077472D01*
X27790891Y14076409D01*
X27791806Y14075370D01*
X27792764Y14074374D01*
X27793771Y14073394D01*
X27794818Y14072476D01*
X27795907Y14071577D01*
X27797046Y14070721D01*
X27798227Y14069893D01*
X27799450Y14069099D01*
X27800728Y14068347D01*
X27802030Y14067616D01*
X27803402Y14066931D01*
X27804844Y14066294D01*
X27806351Y14065699D01*
X27807917Y14065144D01*
X27809560Y14064634D01*
X27811281Y14064167D01*
X27813060Y14063756D01*
X27814909Y14063381D01*
X27816836Y14063048D01*
X27818821Y14062769D01*
X27820879Y14062522D01*
X27822995Y14062321D01*
X27825194Y14062163D01*
X27827453Y14062052D01*
X27832186Y14061975D01*
X27862997Y14061975D01*
X27862997Y14214014D01*
X27829671Y14214014D01*
X27827352Y14213988D01*
G36*
X27862997Y14061975D02*
G01*
X27832186Y14061975D01*
X27827453Y14062052D01*
X27825194Y14062163D01*
X27822995Y14062321D01*
X27820879Y14062522D01*
X27818821Y14062769D01*
X27816836Y14063048D01*
X27814909Y14063381D01*
X27813060Y14063756D01*
X27811281Y14064167D01*
X27809560Y14064634D01*
X27807917Y14065144D01*
X27806351Y14065699D01*
X27804844Y14066294D01*
X27803402Y14066931D01*
X27802030Y14067616D01*
X27800728Y14068347D01*
X27799450Y14069099D01*
X27798227Y14069893D01*
X27797046Y14070721D01*
X27795907Y14071577D01*
X27794818Y14072476D01*
X27793771Y14073394D01*
X27792764Y14074374D01*
X27791806Y14075370D01*
X27790891Y14076409D01*
X27790017Y14077472D01*
X27789190Y14078567D01*
X27788408Y14079704D01*
X27787675Y14080881D01*
X27786979Y14082079D01*
X27786327Y14083322D01*
X27785712Y14084528D01*
X27785136Y14085745D01*
X27784594Y14087010D01*
X27784092Y14088304D01*
X27783615Y14089639D01*
X27783178Y14091007D01*
X27782777Y14092405D01*
X27782400Y14093844D01*
X27782064Y14095316D01*
X27781772Y14096820D01*
X27781504Y14098366D01*
X27781273Y14099936D01*
X27781067Y14101546D01*
X27780908Y14103188D01*
X27780778Y14104868D01*
X27780681Y14106574D01*
X27780395Y14110078D01*
X27780129Y14113679D01*
X27779917Y14117378D01*
X27779740Y14121176D01*
X27779593Y14125069D01*
X27779500Y14129063D01*
X27779447Y14133154D01*
X27779427Y14137345D01*
X27779461Y14145087D01*
X27779572Y14152588D01*
X27779762Y14159856D01*
X27780033Y14166889D01*
X27780264Y14170442D01*
X27780421Y14172175D01*
X27780616Y14173875D01*
X27780852Y14175551D01*
X27781130Y14177199D01*
X27781423Y14178812D01*
X27781759Y14180402D01*
X27782126Y14181949D01*
X27782533Y14183473D01*
X27782978Y14184970D01*
X27783441Y14186438D01*
X27783950Y14187882D01*
X27784493Y14189279D01*
X27785070Y14190664D01*
X27785683Y14192012D01*
X27786327Y14193337D01*
X27787018Y14194612D01*
X27787747Y14195841D01*
X27788509Y14197036D01*
X27789322Y14198198D01*
X27790167Y14199303D01*
X27791042Y14200391D01*
X27791968Y14201430D01*
X27792943Y14202436D01*
X27793936Y14203397D01*
X27794982Y14204313D01*
X27796055Y14205196D01*
X27797181Y14206034D01*
X27798339Y14206841D01*
X27799533Y14207604D01*
X27800779Y14208339D01*
X27802072Y14209027D01*
X27803423Y14209663D01*
X27804854Y14210252D01*
X27806352Y14210818D01*
X27807915Y14211322D01*
X27809555Y14211791D01*
X27811249Y14212209D01*
X27813024Y14212585D01*
X27814869Y14212915D01*
X27816770Y14213211D01*
X27818753Y14213452D01*
X27820799Y14213654D01*
X27822914Y14213806D01*
X27825100Y14213914D01*
X27827352Y14213988D01*
X27829671Y14214014D01*
X27862997Y14214014D01*
X27862997Y14061975D01*
G37*
X25540537Y14213964D02*
X25538396Y14213836D01*
X25536300Y14213612D01*
X25534239Y14213299D01*
X25532211Y14212894D01*
X25530233Y14212420D01*
X25528295Y14211831D01*
X25526381Y14211181D01*
X25524525Y14210426D01*
X25522696Y14209581D01*
X25520909Y14208657D01*
X25519159Y14207639D01*
X25517457Y14206538D01*
X25515783Y14205343D01*
X25514158Y14204054D01*
X25512569Y14202695D01*
X25510969Y14201303D01*
X25509466Y14199822D01*
X25508080Y14198240D01*
X25506794Y14196555D01*
X25505604Y14194788D01*
X25504515Y14192911D01*
X25503545Y14190940D01*
X25502671Y14188864D01*
X25501901Y14186697D01*
X25501222Y14184422D01*
X25500662Y14182063D01*
X25500200Y14179603D01*
X25499836Y14177034D01*
X25499583Y14174373D01*
X25499425Y14171615D01*
X25499373Y14168758D01*
X25499373Y13932541D01*
X25499424Y13929676D01*
X25499583Y13926917D01*
X25499836Y13924239D01*
X25500200Y13921659D01*
X25500662Y13919170D01*
X25501222Y13916780D01*
X25501901Y13914471D01*
X25502671Y13912277D01*
X25503545Y13910156D01*
X25504515Y13908132D01*
X25505604Y13906207D01*
X25506794Y13904362D01*
X25508080Y13902624D01*
X25509466Y13900985D01*
X25510969Y13899431D01*
X25512569Y13897959D01*
X25514161Y13896675D01*
X25515783Y13895461D01*
X25517457Y13894335D01*
X25519159Y13893287D01*
X25520909Y13892338D01*
X25522698Y13891463D01*
X25524525Y13890664D01*
X25526381Y13889966D01*
X25528295Y13889330D01*
X25530233Y13888784D01*
X25532213Y13888333D01*
X25534239Y13887958D01*
X25536300Y13887664D01*
X25538396Y13887460D01*
X25540538Y13887329D01*
X25542720Y13887290D01*
X25544905Y13887329D01*
X25547051Y13887460D01*
X25549167Y13887664D01*
X25551246Y13887958D01*
X25553288Y13888333D01*
X25555302Y13888784D01*
X25557280Y13889330D01*
X25559218Y13889966D01*
X25561130Y13890664D01*
X25563008Y13891463D01*
X25564840Y13892338D01*
X25566648Y13893287D01*
X25568421Y13894335D01*
X25570156Y13895461D01*
X25571852Y13896676D01*
X25573521Y13897959D01*
X25575043Y13899431D01*
X25576467Y13900985D01*
X25577790Y13902625D01*
X25579015Y13904364D01*
X25580140Y13906207D01*
X25581176Y13908132D01*
X25582104Y13910156D01*
X25582935Y13912277D01*
X25583671Y13914471D01*
X25584306Y13916780D01*
X25584847Y13919170D01*
X25585289Y13921659D01*
X25585629Y13924239D01*
X25585876Y13926917D01*
X25586018Y13929676D01*
X25586072Y13932541D01*
X25586072Y14168760D01*
X25586018Y14171615D01*
X25585876Y14174373D01*
X25585629Y14177034D01*
X25585289Y14179603D01*
X25584847Y14182063D01*
X25584308Y14184422D01*
X25583676Y14186697D01*
X25582935Y14188864D01*
X25582104Y14190940D01*
X25581176Y14192911D01*
X25580140Y14194788D01*
X25579015Y14196555D01*
X25577790Y14198240D01*
X25576467Y14199822D01*
X25575043Y14201303D01*
X25573521Y14202695D01*
X25571852Y14204054D01*
X25570156Y14205343D01*
X25568420Y14206538D01*
X25566648Y14207639D01*
X25564840Y14208657D01*
X25563008Y14209581D01*
X25561130Y14210426D01*
X25559218Y14211181D01*
X25557280Y14211831D01*
X25555302Y14212420D01*
X25553288Y14212894D01*
X25551246Y14213299D01*
X25549167Y14213612D01*
X25547051Y14213836D01*
X25544905Y14213964D01*
X25542720Y14214014D01*
X25540537Y14213964D01*
G36*
X25544905Y14213964D02*
G01*
X25547051Y14213836D01*
X25549167Y14213612D01*
X25551246Y14213299D01*
X25553288Y14212894D01*
X25555302Y14212420D01*
X25557280Y14211831D01*
X25559218Y14211181D01*
X25561130Y14210426D01*
X25563008Y14209581D01*
X25564840Y14208657D01*
X25566648Y14207639D01*
X25568420Y14206538D01*
X25570156Y14205343D01*
X25571852Y14204054D01*
X25573521Y14202695D01*
X25575043Y14201303D01*
X25576467Y14199822D01*
X25577790Y14198240D01*
X25579015Y14196555D01*
X25580140Y14194788D01*
X25581176Y14192911D01*
X25582104Y14190940D01*
X25582935Y14188864D01*
X25583676Y14186697D01*
X25584308Y14184422D01*
X25584847Y14182063D01*
X25585289Y14179603D01*
X25585629Y14177034D01*
X25585876Y14174373D01*
X25586018Y14171615D01*
X25586072Y14168760D01*
X25586072Y13932541D01*
X25586018Y13929676D01*
X25585876Y13926917D01*
X25585629Y13924239D01*
X25585289Y13921659D01*
X25584847Y13919170D01*
X25584306Y13916780D01*
X25583671Y13914471D01*
X25582935Y13912277D01*
X25582104Y13910156D01*
X25581176Y13908132D01*
X25580140Y13906207D01*
X25579015Y13904364D01*
X25577790Y13902625D01*
X25576467Y13900985D01*
X25575043Y13899431D01*
X25573521Y13897959D01*
X25571852Y13896676D01*
X25570156Y13895461D01*
X25568421Y13894335D01*
X25566648Y13893287D01*
X25564840Y13892338D01*
X25563008Y13891463D01*
X25561130Y13890664D01*
X25559218Y13889966D01*
X25557280Y13889330D01*
X25555302Y13888784D01*
X25553288Y13888333D01*
X25551246Y13887958D01*
X25549167Y13887664D01*
X25547051Y13887460D01*
X25544905Y13887329D01*
X25542720Y13887290D01*
X25540538Y13887329D01*
X25538396Y13887460D01*
X25536300Y13887664D01*
X25534239Y13887958D01*
X25532213Y13888333D01*
X25530233Y13888784D01*
X25528295Y13889330D01*
X25526381Y13889966D01*
X25524525Y13890664D01*
X25522698Y13891463D01*
X25520909Y13892338D01*
X25519159Y13893287D01*
X25517457Y13894335D01*
X25515783Y13895461D01*
X25514161Y13896675D01*
X25512569Y13897959D01*
X25510969Y13899431D01*
X25509466Y13900985D01*
X25508080Y13902624D01*
X25506794Y13904362D01*
X25505604Y13906207D01*
X25504515Y13908132D01*
X25503545Y13910156D01*
X25502671Y13912277D01*
X25501901Y13914471D01*
X25501222Y13916780D01*
X25500662Y13919170D01*
X25500200Y13921659D01*
X25499836Y13924239D01*
X25499583Y13926917D01*
X25499424Y13929676D01*
X25499373Y13932541D01*
X25499373Y14168758D01*
X25499425Y14171615D01*
X25499583Y14174373D01*
X25499836Y14177034D01*
X25500200Y14179603D01*
X25500662Y14182063D01*
X25501222Y14184422D01*
X25501901Y14186697D01*
X25502671Y14188864D01*
X25503545Y14190940D01*
X25504515Y14192911D01*
X25505604Y14194788D01*
X25506794Y14196555D01*
X25508080Y14198240D01*
X25509466Y14199822D01*
X25510969Y14201303D01*
X25512569Y14202695D01*
X25514158Y14204054D01*
X25515783Y14205343D01*
X25517457Y14206538D01*
X25519159Y14207639D01*
X25520909Y14208657D01*
X25522696Y14209581D01*
X25524525Y14210426D01*
X25526381Y14211181D01*
X25528295Y14211831D01*
X25530233Y14212420D01*
X25532211Y14212894D01*
X25534239Y14213299D01*
X25536300Y14213612D01*
X25538396Y14213836D01*
X25540537Y14213964D01*
X25542720Y14214014D01*
X25544905Y14213964D01*
G37*
X25201739Y16868422D02*
X25194444Y16859263D01*
X25184250Y16844769D01*
X23362926Y13705487D01*
X28000088Y13684378D01*
X28082554Y13826980D01*
X27927048Y13826980D01*
X27669475Y13826980D01*
X27605381Y13826984D01*
X27605381Y14274324D01*
X27543173Y14274324D01*
X27543173Y13826984D01*
X27352173Y13826980D01*
X27352173Y13891066D01*
X27479090Y13891066D01*
X27479090Y14022366D01*
X27368521Y14022366D01*
X27368519Y14082684D01*
X27479090Y14082684D01*
X27479090Y14214014D01*
X27352173Y14214014D01*
X27352173Y14274324D01*
X27310729Y14274324D01*
X27310729Y13826980D01*
X27246637Y13826980D01*
X27246637Y14017978D01*
X27208293Y14017978D01*
X27148623Y13826980D01*
X27080763Y13826980D01*
X27149889Y14031170D01*
X27146104Y14033333D01*
X27142481Y14035571D01*
X27138997Y14037907D01*
X27135660Y14040313D01*
X27132474Y14042815D01*
X27129439Y14045392D01*
X27126545Y14048060D01*
X27123801Y14050800D01*
X27121209Y14053634D01*
X27118752Y14056547D01*
X27116448Y14059537D01*
X27114297Y14062615D01*
X27112284Y14065781D01*
X27110423Y14069031D01*
X27108714Y14072358D01*
X27107149Y14075769D01*
X27105616Y14079282D01*
X27104197Y14082876D01*
X27102877Y14086566D01*
X27101648Y14090348D01*
X27100522Y14094228D01*
X27099492Y14098203D01*
X27098561Y14102262D01*
X27097725Y14106417D01*
X27096995Y14110660D01*
X27096359Y14115012D01*
X27095819Y14119444D01*
X27095385Y14123977D01*
X27095030Y14128599D01*
X27094795Y14133311D01*
X27094649Y14138120D01*
X27094593Y14143024D01*
X27094702Y14151101D01*
X27095030Y14158920D01*
X27095591Y14166487D01*
X27096364Y14173805D01*
X27097356Y14180850D01*
X27098571Y14187648D01*
X27100008Y14194192D01*
X27101655Y14200477D01*
X27103544Y14206495D01*
X27105642Y14212268D01*
X27107953Y14217782D01*
X27110494Y14223035D01*
X27113262Y14228036D01*
X27116237Y14232780D01*
X27119441Y14237268D01*
X27122860Y14241505D01*
X27126504Y14245473D01*
X27130366Y14249186D01*
X27134461Y14252653D01*
X27138755Y14255862D01*
X27143292Y14258810D01*
X27148041Y14261501D01*
X27153006Y14263938D01*
X27158204Y14266121D01*
X27163613Y14268047D01*
X27169249Y14269702D01*
X27175100Y14271120D01*
X27181177Y14272272D01*
X27187474Y14273169D01*
X27193980Y14273814D01*
X27200723Y14274191D01*
X27207625Y14274324D01*
X27043061Y14274324D01*
X27043061Y13826980D01*
X26852060Y13826980D01*
X26852060Y13891066D01*
X26978976Y13891066D01*
X26978976Y13927510D01*
X26810610Y13927510D01*
X26810580Y13924776D01*
X26810482Y13922069D01*
X26810326Y13919377D01*
X26810099Y13916715D01*
X26809809Y13914075D01*
X26809458Y13911463D01*
X26809042Y13908872D01*
X26808557Y13906312D01*
X26808016Y13903765D01*
X26807400Y13901254D01*
X26806732Y13898764D01*
X26805995Y13896297D01*
X26805203Y13893854D01*
X26804340Y13891440D01*
X26803406Y13889048D01*
X26802425Y13886678D01*
X26801378Y13884413D01*
X26800275Y13882182D01*
X26799135Y13879972D01*
X26797947Y13877798D01*
X26796700Y13875653D01*
X26795415Y13873537D01*
X26794075Y13871453D01*
X26792687Y13869403D01*
X26791247Y13867364D01*
X26789762Y13865373D01*
X26788226Y13863397D01*
X26786639Y13861459D01*
X26785008Y13859556D01*
X26783327Y13857678D01*
X26781592Y13855825D01*
X26779816Y13854004D01*
X26777983Y13852218D01*
X26776134Y13850488D01*
X26774260Y13848802D01*
X26772352Y13847172D01*
X26770410Y13845574D01*
X26768442Y13844037D01*
X26766444Y13842555D01*
X26764415Y13841110D01*
X26762358Y13839725D01*
X26760272Y13838381D01*
X26758163Y13837088D01*
X26756019Y13835842D01*
X26753837Y13834640D01*
X26751632Y13833503D01*
X26749396Y13832409D01*
X26747137Y13831360D01*
X26744765Y13830376D01*
X26742381Y13829448D01*
X26739982Y13828584D01*
X26737557Y13827792D01*
X26735110Y13827055D01*
X26732649Y13826391D01*
X26730162Y13825781D01*
X26727656Y13825242D01*
X26725137Y13824764D01*
X26722596Y13824352D01*
X26720024Y13823994D01*
X26717450Y13823709D01*
X26714839Y13823478D01*
X26712216Y13823330D01*
X26709581Y13823228D01*
X26706918Y13823206D01*
X26704258Y13823228D01*
X26701618Y13823330D01*
X26698998Y13823478D01*
X26696401Y13823709D01*
X26693815Y13823994D01*
X26691261Y13824352D01*
X26688718Y13824764D01*
X26686199Y13825242D01*
X26683701Y13825781D01*
X26681213Y13826391D01*
X26679041Y13826984D01*
X26541074Y13826984D01*
X26476983Y13826980D01*
X26476983Y14168758D01*
X26418548Y14168758D01*
X26418548Y13932541D01*
X26418512Y13929033D01*
X26418402Y13925599D01*
X26418211Y13922219D01*
X26417958Y13918907D01*
X26417628Y13915676D01*
X26417222Y13912481D01*
X26416740Y13909362D01*
X26416197Y13906312D01*
X26415572Y13903315D01*
X26414871Y13900384D01*
X26414094Y13897526D01*
X26413248Y13894724D01*
X26412332Y13891993D01*
X26411347Y13889312D01*
X26410276Y13886704D01*
X26409128Y13884162D01*
X26407924Y13881674D01*
X26406675Y13879242D01*
X26405371Y13876859D01*
X26404024Y13874540D01*
X26402621Y13872261D01*
X26401175Y13870048D01*
X26399686Y13867882D01*
X26398132Y13865774D01*
X26396540Y13863714D01*
X26394890Y13861714D01*
X26393208Y13859769D01*
X26391460Y13857868D01*
X26389671Y13856038D01*
X26387834Y13854250D01*
X26385944Y13852524D01*
X26384007Y13850846D01*
X26382106Y13849143D01*
X26380174Y13847501D01*
X26378213Y13845905D01*
X26376230Y13844366D01*
X26374210Y13842889D01*
X26372166Y13841460D01*
X26370086Y13840079D01*
X26367979Y13838762D01*
X26365839Y13837503D01*
X26363681Y13836282D01*
X26361485Y13835128D01*
X26359265Y13834020D01*
X26357011Y13832969D01*
X26354722Y13831966D01*
X26352415Y13831029D01*
X26350069Y13830144D01*
X26345207Y13828512D01*
X26340331Y13827114D01*
X26337898Y13826481D01*
X26335462Y13825919D01*
X26333030Y13825410D01*
X26330595Y13824945D01*
X26328162Y13824538D01*
X26325727Y13824188D01*
X26323285Y13823893D01*
X26320856Y13823642D01*
X26318419Y13823445D01*
X26315987Y13823310D01*
X26313550Y13823221D01*
X26311119Y13823206D01*
X26308679Y13823221D01*
X26306250Y13823305D01*
X26303838Y13823445D01*
X26301413Y13823642D01*
X26299000Y13823893D01*
X26296593Y13824188D01*
X26294198Y13824538D01*
X26291799Y13824945D01*
X26289401Y13825410D01*
X26287020Y13825919D01*
X26284636Y13826476D01*
X26282768Y13826980D01*
X26145233Y13826980D01*
X26081153Y13826980D01*
X26081153Y13928767D01*
X25905856Y13928767D01*
X25905820Y13924957D01*
X25905707Y13921230D01*
X25905529Y13917593D01*
X25905269Y13914040D01*
X25904934Y13910572D01*
X25904533Y13907182D01*
X25904054Y13903867D01*
X25903504Y13900647D01*
X25902869Y13897506D01*
X25902180Y13894458D01*
X25901406Y13891485D01*
X25900558Y13888586D01*
X25899639Y13885785D01*
X25898642Y13883064D01*
X25897583Y13880422D01*
X25896441Y13877876D01*
X25895165Y13875463D01*
X25893847Y13873112D01*
X25892496Y13870809D01*
X25891099Y13868570D01*
X25889666Y13866370D01*
X25888199Y13864244D01*
X25886686Y13862160D01*
X25885132Y13860130D01*
X25883533Y13858156D01*
X25881918Y13856232D01*
X25880248Y13854366D01*
X25878536Y13852555D01*
X25876793Y13850803D01*
X25875013Y13849089D01*
X25873179Y13847441D01*
X25871321Y13845838D01*
X25869425Y13844301D01*
X25867480Y13842817D01*
X25865524Y13841392D01*
X25863539Y13840032D01*
X25861526Y13838732D01*
X25859481Y13837480D01*
X25857399Y13836283D01*
X25855289Y13835159D01*
X25853149Y13834089D01*
X25850988Y13833071D01*
X25848792Y13832118D01*
X25846578Y13831224D01*
X25844318Y13830391D01*
X25842034Y13829608D01*
X25839724Y13828891D01*
X25837385Y13828236D01*
X25832673Y13827055D01*
X25827997Y13826037D01*
X25823334Y13825175D01*
X25818694Y13824460D01*
X25814072Y13823917D01*
X25809468Y13823521D01*
X25804887Y13823283D01*
X25800329Y13823206D01*
X25797666Y13823227D01*
X25795032Y13823329D01*
X25792431Y13823478D01*
X25789838Y13823709D01*
X25787288Y13823994D01*
X25784747Y13824352D01*
X25782245Y13824764D01*
X25779751Y13825242D01*
X25777288Y13825781D01*
X25774855Y13826391D01*
X25772436Y13827055D01*
X25770059Y13827792D01*
X25767697Y13828584D01*
X25765352Y13829448D01*
X25763038Y13830376D01*
X25760760Y13831360D01*
X25758415Y13832482D01*
X25756117Y13833655D01*
X25753855Y13834861D01*
X25751639Y13836113D01*
X25749454Y13837417D01*
X25747321Y13838758D01*
X25745218Y13840146D01*
X25743159Y13841576D01*
X25741134Y13843049D01*
X25739150Y13844572D01*
X25737206Y13846138D01*
X25735308Y13847754D01*
X25733437Y13849402D01*
X25731614Y13851095D01*
X25729825Y13852837D01*
X25728082Y13854617D01*
X25726372Y13856435D01*
X25724722Y13858291D01*
X25723118Y13860173D01*
X25721560Y13862075D01*
X25720047Y13864017D01*
X25718590Y13865991D01*
X25717180Y13867984D01*
X25715816Y13870011D01*
X25714505Y13872062D01*
X25713244Y13874159D01*
X25712021Y13876266D01*
X25710864Y13878416D01*
X25709751Y13880580D01*
X25708684Y13882794D01*
X25707662Y13885025D01*
X25706695Y13887286D01*
X25705704Y13889652D01*
X25704786Y13892036D01*
X25703918Y13894424D01*
X25703124Y13896831D01*
X25702392Y13899254D01*
X25701715Y13901684D01*
X25701111Y13904142D01*
X25700572Y13906607D01*
X25700090Y13909080D01*
X25699674Y13911586D01*
X25699325Y13914090D01*
X25699043Y13916618D01*
X25698829Y13919152D01*
X25698665Y13921706D01*
X25698568Y13924283D01*
X25698543Y13926872D01*
X25698543Y13954532D01*
X25762620Y13954532D01*
X25762620Y13932541D01*
X25762631Y13930911D01*
X25762681Y13929303D01*
X25762757Y13927738D01*
X25762862Y13926217D01*
X25762988Y13924719D01*
X25763151Y13923260D01*
X25763347Y13921840D01*
X25763564Y13920445D01*
X25763818Y13919087D01*
X25764097Y13917755D01*
X25764411Y13916472D01*
X25764745Y13915224D01*
X25765112Y13913997D01*
X25765514Y13912809D01*
X25765936Y13911663D01*
X25766406Y13910543D01*
X25766873Y13909460D01*
X25767368Y13908408D01*
X25767872Y13907379D01*
X25768395Y13906373D01*
X25768933Y13905415D01*
X25769482Y13904471D01*
X25770053Y13903563D01*
X25770628Y13902688D01*
X25771232Y13901835D01*
X25771840Y13901013D01*
X25772463Y13900218D01*
X25773098Y13899461D01*
X25773766Y13898728D01*
X25774428Y13898025D01*
X25775115Y13897354D01*
X25775813Y13896710D01*
X25776604Y13896093D01*
X25777405Y13895490D01*
X25778214Y13894913D01*
X25779037Y13894354D01*
X25779869Y13893810D01*
X25780701Y13893295D01*
X25781556Y13892803D01*
X25782418Y13892326D01*
X25783293Y13891865D01*
X25784163Y13891420D01*
X25785055Y13891003D01*
X25785950Y13890603D01*
X25786868Y13890226D01*
X25787779Y13889859D01*
X25788714Y13889513D01*
X25789648Y13889188D01*
X25791372Y13888755D01*
X25793066Y13888371D01*
X25794739Y13888039D01*
X25796406Y13887772D01*
X25798040Y13887559D01*
X25799661Y13887405D01*
X25801257Y13887318D01*
X25802842Y13887286D01*
X25805540Y13887338D01*
X25808131Y13887495D01*
X25810622Y13887758D01*
X25813011Y13888113D01*
X25815289Y13888577D01*
X25817475Y13889139D01*
X25818529Y13889462D01*
X25819549Y13889813D01*
X25820549Y13890180D01*
X25821517Y13890586D01*
X25822468Y13891012D01*
X25823396Y13891468D01*
X25824287Y13891942D01*
X25825162Y13892439D01*
X25826010Y13892973D01*
X25826835Y13893528D01*
X25827625Y13894101D01*
X25828387Y13894713D01*
X25829137Y13895340D01*
X25829838Y13895996D01*
X25830539Y13896686D01*
X25831205Y13897390D01*
X25831842Y13898125D01*
X25832462Y13898888D01*
X25833053Y13899669D01*
X25833609Y13900480D01*
X25834602Y13902154D01*
X25835521Y13903869D01*
X25836379Y13905656D01*
X25837185Y13907461D01*
X25837909Y13909344D01*
X25838585Y13911263D01*
X25839191Y13913236D01*
X25839731Y13915247D01*
X25840209Y13917311D01*
X25840618Y13919435D01*
X25840976Y13921596D01*
X25841262Y13923806D01*
X25841482Y13926074D01*
X25841646Y13928384D01*
X25841731Y13930739D01*
X25841776Y13933157D01*
X25841776Y14161851D01*
X25841747Y14164653D01*
X25841657Y14167383D01*
X25841501Y14170049D01*
X25841305Y14172651D01*
X25841041Y14175197D01*
X25840719Y14177673D01*
X25840334Y14180085D01*
X25839892Y14182422D01*
X25839399Y14184715D01*
X25838843Y14186929D01*
X25838224Y14189088D01*
X25837552Y14191189D01*
X25836813Y14193216D01*
X25836024Y14195181D01*
X25835163Y14197077D01*
X25834250Y14198917D01*
X25833169Y14200745D01*
X25831962Y14202453D01*
X25830640Y14204042D01*
X25829185Y14205511D01*
X25827619Y14206877D01*
X25825921Y14208116D01*
X25824099Y14209230D01*
X25822147Y14210236D01*
X25820087Y14211123D01*
X25817893Y14211882D01*
X25815588Y14212544D01*
X25813149Y14213064D01*
X25810598Y14213478D01*
X25807920Y14213776D01*
X25805116Y14213950D01*
X25802192Y14214014D01*
X25799941Y14213954D01*
X25797767Y14213790D01*
X25795622Y14213524D01*
X25793561Y14213140D01*
X25791541Y14212653D01*
X25789590Y14212063D01*
X25787699Y14211358D01*
X25785854Y14210545D01*
X25784084Y14209626D01*
X25782369Y14208602D01*
X25780704Y14207469D01*
X25779112Y14206226D01*
X25777566Y14204882D01*
X25776084Y14203412D01*
X25774668Y14201850D01*
X25773297Y14200169D01*
X25771999Y14198420D01*
X25770793Y14196639D01*
X25769666Y14194808D01*
X25768624Y14192955D01*
X25767665Y14191048D01*
X25766783Y14189096D01*
X25766001Y14187121D01*
X25765284Y14185105D01*
X25764667Y14183040D01*
X25764112Y14180932D01*
X25763667Y14178796D01*
X25763290Y14176612D01*
X25762993Y14174386D01*
X25762790Y14172136D01*
X25762665Y14169842D01*
X25762620Y14167501D01*
X25762620Y14146146D01*
X25698543Y14146147D01*
X25698543Y14168760D01*
X25650156Y14168760D01*
X25650156Y13932541D01*
X25650121Y13929033D01*
X25650007Y13925599D01*
X25649825Y13922219D01*
X25649568Y13918907D01*
X25649234Y13915676D01*
X25648832Y13912481D01*
X25648356Y13909362D01*
X25647809Y13906312D01*
X25647177Y13903315D01*
X25646478Y13900385D01*
X25645706Y13897526D01*
X25644858Y13894729D01*
X25643936Y13891993D01*
X25642947Y13889312D01*
X25641875Y13886704D01*
X25640742Y13884162D01*
X25639538Y13881674D01*
X25638290Y13879246D01*
X25636987Y13876859D01*
X25635629Y13874540D01*
X25634241Y13872261D01*
X25632783Y13870048D01*
X25631286Y13867883D01*
X25629743Y13865776D01*
X25628155Y13863714D01*
X25626501Y13861714D01*
X25624811Y13859769D01*
X25623071Y13857868D01*
X25621276Y13856038D01*
X25619439Y13854250D01*
X25617553Y13852524D01*
X25615610Y13850846D01*
X25613714Y13849143D01*
X25611776Y13847501D01*
X25609823Y13845905D01*
X25607838Y13844365D01*
X25605819Y13842889D01*
X25603774Y13841459D01*
X25601696Y13840079D01*
X25599589Y13838762D01*
X25597451Y13837503D01*
X25595285Y13836282D01*
X25593093Y13835128D01*
X25590873Y13834020D01*
X25588622Y13832969D01*
X25586336Y13831965D01*
X25584026Y13831029D01*
X25581677Y13830144D01*
X25576816Y13828512D01*
X25571938Y13827114D01*
X25569507Y13826476D01*
X25567072Y13825919D01*
X25564639Y13825410D01*
X25562204Y13824945D01*
X25559769Y13824531D01*
X25557326Y13824188D01*
X25554900Y13823893D01*
X25552461Y13823642D01*
X25550026Y13823445D01*
X25547590Y13823310D01*
X25545157Y13823222D01*
X25542720Y13823206D01*
X25540290Y13823222D01*
X25537863Y13823310D01*
X25535438Y13823445D01*
X25533027Y13823642D01*
X25530614Y13823893D01*
X25528206Y13824188D01*
X25525797Y13824538D01*
X25523410Y13824945D01*
X25521014Y13825410D01*
X25518625Y13825919D01*
X25516245Y13826476D01*
X25514376Y13826980D01*
X25378741Y13826980D01*
X25187743Y13826980D01*
X25175165Y13826980D01*
X25111086Y13826984D01*
X25092242Y13923128D01*
X25004905Y13923128D01*
X24986069Y13826980D01*
X24921983Y13826980D01*
X25021874Y14274324D01*
X24893083Y14274324D01*
X24893083Y13826980D01*
X24829001Y13826980D01*
X24829003Y14095902D01*
X24827737Y14095902D01*
X24729726Y13826980D01*
X24669407Y13826980D01*
X24669407Y13932537D01*
X24615383Y13932537D01*
X24615347Y13929033D01*
X24615238Y13925599D01*
X24615055Y13922219D01*
X24614789Y13918907D01*
X24614465Y13915676D01*
X24614059Y13912481D01*
X24613576Y13909362D01*
X24613017Y13906312D01*
X24612389Y13903315D01*
X24611687Y13900384D01*
X24610910Y13897526D01*
X24610063Y13894724D01*
X24609139Y13891993D01*
X24608148Y13889312D01*
X24607080Y13886704D01*
X24605946Y13884162D01*
X24604730Y13881674D01*
X24603479Y13879246D01*
X24602182Y13876859D01*
X24600827Y13874540D01*
X24599432Y13872261D01*
X24597991Y13870048D01*
X24596489Y13867882D01*
X24594950Y13865774D01*
X24593349Y13863714D01*
X24591714Y13861714D01*
X24590015Y13859769D01*
X24588270Y13857868D01*
X24586480Y13856038D01*
X24584638Y13854251D01*
X24582746Y13852525D01*
X24580811Y13850846D01*
X24578913Y13849143D01*
X24576979Y13847501D01*
X24575027Y13845905D01*
X24573032Y13844366D01*
X24571022Y13842889D01*
X24568973Y13841460D01*
X24566895Y13840079D01*
X24564791Y13838762D01*
X24562648Y13837503D01*
X24560484Y13836282D01*
X24558300Y13835128D01*
X24556068Y13834020D01*
X24553817Y13832969D01*
X24551535Y13831965D01*
X24549221Y13831023D01*
X24546876Y13830144D01*
X24542018Y13828512D01*
X24537149Y13827114D01*
X24534711Y13826481D01*
X24532277Y13825919D01*
X24529853Y13825410D01*
X24527415Y13824945D01*
X24524983Y13824531D01*
X24522550Y13824188D01*
X24520119Y13823893D01*
X24517691Y13823642D01*
X24515261Y13823445D01*
X24512819Y13823305D01*
X24510388Y13823221D01*
X24507961Y13823206D01*
X24505521Y13823221D01*
X24503089Y13823310D01*
X24500665Y13823445D01*
X24498251Y13823642D01*
X24495830Y13823893D01*
X24493421Y13824188D01*
X24491018Y13824538D01*
X24488627Y13824945D01*
X24486219Y13825410D01*
X24483825Y13825919D01*
X24481451Y13826476D01*
X24479581Y13826980D01*
X24343945Y13826980D01*
X24152950Y13826980D01*
X24152950Y13826984D01*
X24111502Y13826984D01*
X23920502Y13826980D01*
X23877155Y13826980D01*
X23813068Y13826980D01*
X23813068Y14274324D01*
X23877152Y14274324D01*
X23877155Y13826980D01*
X23920502Y13826980D01*
X23920502Y13891066D01*
X24047416Y13891066D01*
X24047416Y14274324D01*
X24111502Y14274324D01*
X24111502Y13826984D01*
X24152950Y13826984D01*
X24152950Y13891066D01*
X24279855Y13891066D01*
X24279860Y14022366D01*
X24169296Y14022366D01*
X24169296Y14082684D01*
X24279860Y14082684D01*
X24279855Y14214014D01*
X24152950Y14214014D01*
X24152950Y14274324D01*
X24343945Y14274327D01*
X24343945Y13826980D01*
X24479581Y13826980D01*
X24479075Y13827114D01*
X24476697Y13827782D01*
X24474329Y13828512D01*
X24471969Y13829301D01*
X24469605Y13830144D01*
X24467185Y13831029D01*
X24464796Y13831966D01*
X24462433Y13832969D01*
X24460102Y13834020D01*
X24457800Y13835128D01*
X24455528Y13836283D01*
X24453278Y13837503D01*
X24451072Y13838762D01*
X24448889Y13840081D01*
X24446732Y13841460D01*
X24444604Y13842889D01*
X24442507Y13844366D01*
X24440436Y13845905D01*
X24438395Y13847501D01*
X24436397Y13849143D01*
X24434417Y13850846D01*
X24432558Y13852524D01*
X24430732Y13854251D01*
X24428960Y13856038D01*
X24427238Y13857868D01*
X24425549Y13859769D01*
X24423907Y13861715D01*
X24422318Y13863714D01*
X24420760Y13865776D01*
X24419254Y13867882D01*
X24417794Y13870048D01*
X24416374Y13872261D01*
X24415009Y13874540D01*
X24413672Y13876859D01*
X24412377Y13879242D01*
X24411135Y13881674D01*
X24409933Y13884162D01*
X24408795Y13886704D01*
X24407730Y13889312D01*
X24406725Y13891993D01*
X24405814Y13894724D01*
X24404965Y13897526D01*
X24404182Y13900384D01*
X24403487Y13903315D01*
X24402859Y13906312D01*
X24402300Y13909362D01*
X24401821Y13912481D01*
X24401413Y13915676D01*
X24401079Y13918907D01*
X24400826Y13922219D01*
X24400638Y13925599D01*
X24400526Y13929033D01*
X24400492Y13932541D01*
X24400492Y14073258D01*
X24515472Y14073258D01*
X24515472Y14016716D01*
X24464580Y14016716D01*
X24464580Y13932541D01*
X24464625Y13929676D01*
X24464780Y13926917D01*
X24465040Y13924242D01*
X24465402Y13921659D01*
X24465876Y13919170D01*
X24466437Y13916780D01*
X24467108Y13914471D01*
X24467886Y13912277D01*
X24468763Y13910156D01*
X24469746Y13908132D01*
X24470829Y13906208D01*
X24472014Y13904364D01*
X24473309Y13902626D01*
X24474705Y13900985D01*
X24476196Y13899431D01*
X24477793Y13897959D01*
X24479389Y13896676D01*
X24481016Y13895461D01*
X24482681Y13894335D01*
X24484395Y13893287D01*
X24486144Y13892338D01*
X24487929Y13891463D01*
X24489754Y13890664D01*
X24491615Y13889966D01*
X24493521Y13889330D01*
X24495466Y13888784D01*
X24497450Y13888333D01*
X24499472Y13887958D01*
X24501533Y13887663D01*
X24503636Y13887460D01*
X24505776Y13887329D01*
X24507961Y13887286D01*
X24510134Y13887329D01*
X24512279Y13887460D01*
X24514389Y13887664D01*
X24516481Y13887958D01*
X24518516Y13888333D01*
X24520525Y13888784D01*
X24522495Y13889333D01*
X24524430Y13889966D01*
X24526337Y13890664D01*
X24528213Y13891463D01*
X24530054Y13892338D01*
X24531854Y13893287D01*
X24533619Y13894335D01*
X24535358Y13895461D01*
X24537056Y13896676D01*
X24538721Y13897959D01*
X24540240Y13899431D01*
X24541670Y13900985D01*
X24542994Y13902625D01*
X24544221Y13904364D01*
X24545352Y13906207D01*
X24546379Y13908132D01*
X24547321Y13910156D01*
X24548154Y13912277D01*
X24548886Y13914471D01*
X24549523Y13916780D01*
X24550068Y13919170D01*
X24550508Y13921659D01*
X24550857Y13924239D01*
X24551107Y13926917D01*
X24551252Y13929676D01*
X24551301Y13932541D01*
X24551301Y14168758D01*
X24551252Y14171615D01*
X24551107Y14174373D01*
X24550857Y14177034D01*
X24550508Y14179603D01*
X24550068Y14182063D01*
X24549523Y14184422D01*
X24548886Y14186697D01*
X24548154Y14188864D01*
X24547321Y14190943D01*
X24546379Y14192911D01*
X24545352Y14194788D01*
X24544221Y14196555D01*
X24542993Y14198240D01*
X24541670Y14199822D01*
X24540240Y14201303D01*
X24538721Y14202695D01*
X24537056Y14204054D01*
X24535358Y14205343D01*
X24533619Y14206538D01*
X24531854Y14207639D01*
X24530054Y14208657D01*
X24528213Y14209581D01*
X24526337Y14210426D01*
X24524430Y14211181D01*
X24522495Y14211831D01*
X24520525Y14212420D01*
X24518516Y14212897D01*
X24516481Y14213299D01*
X24514389Y14213612D01*
X24512284Y14213836D01*
X24510142Y14213964D01*
X24507963Y14214014D01*
X24505777Y14213964D01*
X24503637Y14213836D01*
X24501533Y14213612D01*
X24499472Y14213299D01*
X24497451Y14212894D01*
X24495466Y14212420D01*
X24493521Y14211831D01*
X24491615Y14211181D01*
X24489754Y14210426D01*
X24487929Y14209581D01*
X24486144Y14208657D01*
X24484395Y14207639D01*
X24482681Y14206538D01*
X24481016Y14205343D01*
X24479389Y14204054D01*
X24477793Y14202695D01*
X24476196Y14201303D01*
X24474705Y14199822D01*
X24473309Y14198240D01*
X24472014Y14196555D01*
X24470829Y14194788D01*
X24469746Y14192911D01*
X24468763Y14190940D01*
X24467886Y14188864D01*
X24467108Y14186697D01*
X24466436Y14184422D01*
X24465876Y14182063D01*
X24465402Y14179603D01*
X24465040Y14177034D01*
X24464780Y14174373D01*
X24464622Y14171615D01*
X24464580Y14168760D01*
X24464583Y14146146D01*
X24400492Y14146147D01*
X24400492Y14168760D01*
X24400526Y14172120D01*
X24400638Y14175409D01*
X24400826Y14178671D01*
X24401079Y14181876D01*
X24401413Y14185036D01*
X24401821Y14188140D01*
X24402300Y14191209D01*
X24402858Y14194215D01*
X24403485Y14197170D01*
X24404182Y14200083D01*
X24404965Y14202945D01*
X24405814Y14205769D01*
X24406725Y14208528D01*
X24407730Y14211237D01*
X24408795Y14213908D01*
X24409933Y14216521D01*
X24411135Y14219087D01*
X24412377Y14221604D01*
X24413672Y14224058D01*
X24415009Y14226458D01*
X24416374Y14228803D01*
X24417794Y14231106D01*
X24419254Y14233337D01*
X24420760Y14235526D01*
X24422317Y14237659D01*
X24423907Y14239733D01*
X24425549Y14241762D01*
X24427238Y14243724D01*
X24428960Y14245641D01*
X24430732Y14247513D01*
X24432558Y14249310D01*
X24434417Y14251068D01*
X24436397Y14252698D01*
X24438395Y14254267D01*
X24440440Y14255802D01*
X24442507Y14257270D01*
X24444604Y14258704D01*
X24446733Y14260079D01*
X24448890Y14261405D01*
X24451072Y14262694D01*
X24453278Y14263913D01*
X24455528Y14265097D01*
X24457800Y14266229D01*
X24460102Y14267317D01*
X24462433Y14268349D01*
X24464796Y14269329D01*
X24467185Y14270279D01*
X24469605Y14271161D01*
X24471969Y14271997D01*
X24474329Y14272778D01*
X24476697Y14273517D01*
X24479075Y14274187D01*
X24481451Y14274814D01*
X24483825Y14275374D01*
X24486219Y14275893D01*
X24488627Y14276364D01*
X24491018Y14276766D01*
X24493421Y14277118D01*
X24495830Y14277415D01*
X24498251Y14277664D01*
X24500665Y14277850D01*
X24503089Y14277984D01*
X24505521Y14278072D01*
X24507961Y14278103D01*
X24510388Y14278072D01*
X24512819Y14277984D01*
X24515261Y14277850D01*
X24517691Y14277664D01*
X24520119Y14277415D01*
X24522550Y14277118D01*
X24524983Y14276766D01*
X24527415Y14276364D01*
X24529849Y14275893D01*
X24532277Y14275374D01*
X24534711Y14274814D01*
X24537149Y14274187D01*
X24542018Y14272783D01*
X24546876Y14271161D01*
X24549221Y14270279D01*
X24551533Y14269329D01*
X24553817Y14268349D01*
X24556068Y14267317D01*
X24558300Y14266229D01*
X24560484Y14265097D01*
X24562648Y14263913D01*
X24564791Y14262694D01*
X24566893Y14261405D01*
X24568973Y14260079D01*
X24571022Y14258704D01*
X24573032Y14257276D01*
X24575027Y14255803D01*
X24576979Y14254267D01*
X24578913Y14252698D01*
X24580811Y14251071D01*
X24582746Y14249310D01*
X24584637Y14247513D01*
X24586480Y14245642D01*
X24588267Y14243725D01*
X24590015Y14241762D01*
X24591714Y14239734D01*
X24593349Y14237659D01*
X24594950Y14235526D01*
X24596489Y14233337D01*
X24597991Y14231106D01*
X24599432Y14228804D01*
X24600827Y14226460D01*
X24602182Y14224058D01*
X24603479Y14221604D01*
X24604730Y14219087D01*
X24605946Y14216521D01*
X24607080Y14213908D01*
X24608148Y14211237D01*
X24609139Y14208528D01*
X24610063Y14205769D01*
X24610910Y14202945D01*
X24611687Y14200083D01*
X24612389Y14197170D01*
X24613017Y14194215D01*
X24613576Y14191208D01*
X24614059Y14188140D01*
X24614465Y14185036D01*
X24614789Y14181876D01*
X24615051Y14178671D01*
X24615238Y14175409D01*
X24615347Y14172120D01*
X24615383Y14168760D01*
X24615383Y13932537D01*
X24669407Y13932537D01*
X24669407Y14274324D01*
X24733501Y14274327D01*
X24733501Y14004794D01*
X24734758Y14004794D01*
X24831516Y14274324D01*
X24893083Y14274324D01*
X25021874Y14274324D01*
X25075280Y14274324D01*
X25175165Y13826980D01*
X25187743Y13826980D01*
X25187743Y13891066D01*
X25314660Y13891066D01*
X25314660Y14274324D01*
X25378741Y14274324D01*
X25378741Y13826980D01*
X25514376Y13826980D01*
X25513864Y13827113D01*
X25511491Y13827782D01*
X25509132Y13828512D01*
X25506756Y13829300D01*
X25504405Y13830143D01*
X25501982Y13831023D01*
X25499588Y13831965D01*
X25497235Y13832969D01*
X25494896Y13834020D01*
X25492595Y13835123D01*
X25490327Y13836282D01*
X25488081Y13837503D01*
X25485868Y13838762D01*
X25483684Y13840079D01*
X25481531Y13841459D01*
X25479402Y13842889D01*
X25477300Y13844366D01*
X25475237Y13845905D01*
X25473209Y13847501D01*
X25471200Y13849143D01*
X25469212Y13850846D01*
X25467353Y13852524D01*
X25465544Y13854250D01*
X25463764Y13856038D01*
X25462030Y13857868D01*
X25460339Y13859769D01*
X25458699Y13861714D01*
X25457097Y13863714D01*
X25455546Y13865774D01*
X25454032Y13867882D01*
X25452569Y13870048D01*
X25451158Y13872261D01*
X25449773Y13874540D01*
X25448445Y13876859D01*
X25447146Y13879246D01*
X25445902Y13881674D01*
X25444711Y13884162D01*
X25443562Y13886704D01*
X25442491Y13889312D01*
X25441503Y13891993D01*
X25440584Y13894729D01*
X25439741Y13897526D01*
X25438965Y13900384D01*
X25438272Y13903315D01*
X25437646Y13906312D01*
X25437085Y13909362D01*
X25436606Y13912481D01*
X25436200Y13915676D01*
X25435882Y13918907D01*
X25435617Y13922219D01*
X25435438Y13925599D01*
X25435329Y13929033D01*
X25435284Y13932537D01*
X25435284Y14168760D01*
X25435329Y14172120D01*
X25435438Y14175409D01*
X25435620Y14178671D01*
X25435883Y14181876D01*
X25436200Y14185036D01*
X25436606Y14188140D01*
X25437085Y14191208D01*
X25437647Y14194215D01*
X25438272Y14197170D01*
X25438965Y14200083D01*
X25439741Y14202945D01*
X25440584Y14205769D01*
X25441503Y14208528D01*
X25442491Y14211237D01*
X25443562Y14213908D01*
X25444711Y14216521D01*
X25445902Y14219087D01*
X25447146Y14221604D01*
X25448445Y14224058D01*
X25449773Y14226458D01*
X25451158Y14228803D01*
X25452569Y14231106D01*
X25454032Y14233337D01*
X25455546Y14235526D01*
X25457097Y14237659D01*
X25458698Y14239734D01*
X25460339Y14241762D01*
X25462030Y14243725D01*
X25463764Y14245642D01*
X25465544Y14247513D01*
X25467353Y14249310D01*
X25469212Y14251068D01*
X25471200Y14252698D01*
X25473209Y14254267D01*
X25475237Y14255802D01*
X25477300Y14257270D01*
X25479402Y14258704D01*
X25481531Y14260079D01*
X25483684Y14261405D01*
X25485868Y14262692D01*
X25488081Y14263913D01*
X25490327Y14265097D01*
X25492595Y14266229D01*
X25494899Y14267317D01*
X25497235Y14268349D01*
X25499588Y14269329D01*
X25501982Y14270279D01*
X25504405Y14271161D01*
X25506756Y14271997D01*
X25509132Y14272778D01*
X25511490Y14273517D01*
X25513864Y14274187D01*
X25516245Y14274814D01*
X25518625Y14275374D01*
X25521014Y14275893D01*
X25523410Y14276364D01*
X25525797Y14276766D01*
X25528206Y14277118D01*
X25530614Y14277415D01*
X25533028Y14277664D01*
X25535438Y14277850D01*
X25537863Y14277984D01*
X25540290Y14278070D01*
X25542720Y14278103D01*
X25545157Y14278070D01*
X25547596Y14277984D01*
X25550026Y14277850D01*
X25552461Y14277664D01*
X25554900Y14277415D01*
X25557326Y14277118D01*
X25559769Y14276766D01*
X25562204Y14276364D01*
X25564639Y14275893D01*
X25567072Y14275374D01*
X25569507Y14274814D01*
X25571938Y14274187D01*
X25576816Y14272783D01*
X25581677Y14271161D01*
X25584026Y14270279D01*
X25586336Y14269329D01*
X25588622Y14268349D01*
X25590873Y14267317D01*
X25593093Y14266229D01*
X25595285Y14265097D01*
X25597451Y14263913D01*
X25599589Y14262692D01*
X25601696Y14261405D01*
X25603774Y14260079D01*
X25605819Y14258704D01*
X25607838Y14257270D01*
X25609823Y14255802D01*
X25611776Y14254267D01*
X25613714Y14252698D01*
X25615610Y14251068D01*
X25617553Y14249310D01*
X25619439Y14247513D01*
X25621276Y14245641D01*
X25623071Y14243724D01*
X25624811Y14241762D01*
X25626501Y14239733D01*
X25628155Y14237659D01*
X25629743Y14235526D01*
X25631286Y14233337D01*
X25632783Y14231106D01*
X25634241Y14228803D01*
X25635629Y14226458D01*
X25636987Y14224058D01*
X25638290Y14221604D01*
X25639538Y14219087D01*
X25640742Y14216521D01*
X25641875Y14213908D01*
X25642947Y14211237D01*
X25643936Y14208528D01*
X25644858Y14205769D01*
X25645706Y14202945D01*
X25646478Y14200083D01*
X25647177Y14197170D01*
X25647809Y14194215D01*
X25648356Y14191209D01*
X25648832Y14188140D01*
X25649234Y14185036D01*
X25649568Y14181876D01*
X25649825Y14178671D01*
X25650007Y14175409D01*
X25650121Y14172120D01*
X25650156Y14168760D01*
X25698543Y14168760D01*
X25698543Y14171275D01*
X25698568Y14174168D01*
X25698665Y14177025D01*
X25698825Y14179860D01*
X25699043Y14182663D01*
X25699325Y14185438D01*
X25699674Y14188179D01*
X25700090Y14190899D01*
X25700572Y14193586D01*
X25701111Y14196246D01*
X25701715Y14198870D01*
X25702392Y14201473D01*
X25703125Y14204038D01*
X25703918Y14206576D01*
X25704786Y14209076D01*
X25705704Y14211563D01*
X25706695Y14214014D01*
X25707662Y14216498D01*
X25708684Y14218945D01*
X25709751Y14221354D01*
X25710864Y14223710D01*
X25712021Y14226018D01*
X25713244Y14228301D01*
X25714505Y14230514D01*
X25715816Y14232691D01*
X25717180Y14234832D01*
X25718593Y14236923D01*
X25720047Y14238973D01*
X25721560Y14240981D01*
X25723118Y14242942D01*
X25724722Y14244859D01*
X25726373Y14246731D01*
X25728082Y14248556D01*
X25731677Y14252138D01*
X25735413Y14255481D01*
X25739277Y14258582D01*
X25743268Y14261478D01*
X25747408Y14264132D01*
X25751673Y14266555D01*
X25756063Y14268744D01*
X25760591Y14270710D01*
X25765246Y14272436D01*
X25770046Y14273933D01*
X25774959Y14275208D01*
X25780026Y14276251D01*
X25785214Y14277056D01*
X25790534Y14277639D01*
X25795991Y14277977D01*
X25801588Y14278103D01*
X25804474Y14278066D01*
X25807336Y14277967D01*
X25810158Y14277808D01*
X25812964Y14277577D01*
X25815736Y14277291D01*
X25818478Y14276938D01*
X25821199Y14276524D01*
X25823875Y14276039D01*
X25826534Y14275498D01*
X25829157Y14274889D01*
X25831757Y14274211D01*
X25834317Y14273484D01*
X25836853Y14272682D01*
X25839359Y14271824D01*
X25841838Y14270889D01*
X25844293Y14269904D01*
X25846618Y14268942D01*
X25848922Y14267924D01*
X25851184Y14266864D01*
X25853400Y14265740D01*
X25855579Y14264582D01*
X25857718Y14263371D01*
X25859818Y14262106D01*
X25861876Y14260803D01*
X25863895Y14259444D01*
X25865888Y14258040D01*
X25867829Y14256573D01*
X25869732Y14255066D01*
X25871593Y14253518D01*
X25873429Y14251910D01*
X25875211Y14250258D01*
X25876953Y14248556D01*
X25878659Y14246800D01*
X25880311Y14245018D01*
X25881926Y14243200D01*
X25883485Y14241339D01*
X25884991Y14239425D01*
X25886445Y14237484D01*
X25887858Y14235501D01*
X25889224Y14233476D01*
X25890532Y14231413D01*
X25891796Y14229312D01*
X25893011Y14227179D01*
X25894175Y14224993D01*
X25895294Y14222773D01*
X25896354Y14220523D01*
X25897371Y14218221D01*
X25898340Y14215883D01*
X25899252Y14213515D01*
X25900104Y14211125D01*
X25900901Y14208700D01*
X25901634Y14206266D01*
X25902314Y14203802D01*
X25902931Y14201303D01*
X25903488Y14198794D01*
X25903982Y14196256D01*
X25904425Y14193690D01*
X25904809Y14191101D01*
X25905122Y14188486D01*
X25905386Y14185846D01*
X25905596Y14183184D01*
X25905741Y14180500D01*
X25905827Y14177785D01*
X25905856Y14175056D01*
X25905856Y13928767D01*
X26081153Y13928767D01*
X26081153Y14274327D01*
X26145233Y14274327D01*
X26145233Y13826980D01*
X26282768Y13826980D01*
X26282266Y13827114D01*
X26279887Y13827782D01*
X26277517Y13828512D01*
X26275160Y13829301D01*
X26272791Y13830144D01*
X26270368Y13831023D01*
X26267987Y13831965D01*
X26265627Y13832969D01*
X26263292Y13834020D01*
X26260986Y13835128D01*
X26258715Y13836282D01*
X26256471Y13837503D01*
X26254260Y13838762D01*
X26252081Y13840079D01*
X26249916Y13841460D01*
X26247792Y13842889D01*
X26245692Y13844366D01*
X26243637Y13845906D01*
X26241595Y13847501D01*
X26239588Y13849143D01*
X26237610Y13850846D01*
X26235747Y13852525D01*
X26233927Y13854251D01*
X26232147Y13856038D01*
X26230423Y13857868D01*
X26228736Y13859769D01*
X26227088Y13861714D01*
X26225489Y13863714D01*
X26223939Y13865774D01*
X26222425Y13867882D01*
X26220962Y13870048D01*
X26219542Y13872261D01*
X26218165Y13874540D01*
X26216826Y13876859D01*
X26215542Y13879246D01*
X26214293Y13881674D01*
X26213096Y13884162D01*
X26211956Y13886704D01*
X26210882Y13889312D01*
X26209892Y13891993D01*
X26208976Y13894724D01*
X26208132Y13897526D01*
X26207363Y13900384D01*
X26206649Y13903315D01*
X26206030Y13906312D01*
X26205474Y13909362D01*
X26205004Y13912481D01*
X26204597Y13915676D01*
X26204264Y13918907D01*
X26204008Y13922219D01*
X26203822Y13925599D01*
X26203713Y13929033D01*
X26203678Y13932541D01*
X26203678Y14073258D01*
X26318660Y14073258D01*
X26318660Y14016716D01*
X26267766Y14016716D01*
X26267766Y13932537D01*
X26267811Y13929671D01*
X26267972Y13926916D01*
X26268224Y13924238D01*
X26268588Y13921659D01*
X26269049Y13919170D01*
X26269615Y13916780D01*
X26270290Y13914471D01*
X26271054Y13912277D01*
X26271939Y13910156D01*
X26272918Y13908132D01*
X26273998Y13906207D01*
X26275186Y13904364D01*
X26276469Y13902625D01*
X26277861Y13900985D01*
X26279363Y13899431D01*
X26280949Y13897959D01*
X26282540Y13896676D01*
X26284171Y13895463D01*
X26285853Y13894335D01*
X26287552Y13893287D01*
X26289295Y13892340D01*
X26291091Y13891463D01*
X26292914Y13890664D01*
X26294781Y13889966D01*
X26296683Y13889333D01*
X26298627Y13888784D01*
X26300615Y13888333D01*
X26302630Y13887958D01*
X26304695Y13887664D01*
X26306790Y13887460D01*
X26308937Y13887329D01*
X26311119Y13887286D01*
X26313297Y13887329D01*
X26315446Y13887460D01*
X26317553Y13887663D01*
X26319645Y13887958D01*
X26321680Y13888333D01*
X26323694Y13888784D01*
X26325669Y13889330D01*
X26327612Y13889966D01*
X26329525Y13890664D01*
X26331398Y13891462D01*
X26333234Y13892338D01*
X26335043Y13893287D01*
X26336813Y13894335D01*
X26338547Y13895461D01*
X26340248Y13896675D01*
X26341912Y13897959D01*
X26343436Y13899431D01*
X26344857Y13900985D01*
X26346180Y13902624D01*
X26347403Y13904362D01*
X26348533Y13906207D01*
X26349574Y13908132D01*
X26350484Y13910156D01*
X26351327Y13912277D01*
X26352064Y13914471D01*
X26352701Y13916780D01*
X26353237Y13919170D01*
X26353675Y13921659D01*
X26354026Y13924239D01*
X26354263Y13926917D01*
X26354411Y13929676D01*
X26354457Y13932541D01*
X26354457Y14168758D01*
X26354411Y14171615D01*
X26354263Y14174373D01*
X26354026Y14177034D01*
X26353676Y14179603D01*
X26353237Y14182063D01*
X26352701Y14184422D01*
X26352064Y14186697D01*
X26351327Y14188864D01*
X26350484Y14190943D01*
X26349574Y14192911D01*
X26348533Y14194788D01*
X26347403Y14196555D01*
X26346180Y14198240D01*
X26344857Y14199822D01*
X26343436Y14201303D01*
X26341912Y14202695D01*
X26340240Y14204054D01*
X26338547Y14205343D01*
X26336813Y14206538D01*
X26335043Y14207639D01*
X26333234Y14208658D01*
X26331398Y14209581D01*
X26329525Y14210426D01*
X26327612Y14211181D01*
X26325669Y14211831D01*
X26323694Y14212420D01*
X26321680Y14212895D01*
X26319645Y14213299D01*
X26317553Y14213612D01*
X26315446Y14213836D01*
X26313297Y14213964D01*
X26311119Y14214014D01*
X26308937Y14213964D01*
X26306790Y14213836D01*
X26304695Y14213612D01*
X26302630Y14213299D01*
X26300615Y14212895D01*
X26298627Y14212420D01*
X26296683Y14211831D01*
X26294781Y14211181D01*
X26292914Y14210426D01*
X26291092Y14209581D01*
X26289295Y14208658D01*
X26287552Y14207639D01*
X26285853Y14206538D01*
X26284171Y14205343D01*
X26282540Y14204054D01*
X26280949Y14202695D01*
X26279363Y14201303D01*
X26277861Y14199822D01*
X26276475Y14198240D01*
X26275186Y14196555D01*
X26273998Y14194788D01*
X26272918Y14192911D01*
X26271939Y14190940D01*
X26271058Y14188864D01*
X26270291Y14186697D01*
X26269615Y14184422D01*
X26269049Y14182063D01*
X26268588Y14179603D01*
X26268224Y14177034D01*
X26267972Y14174373D01*
X26267811Y14171615D01*
X26267766Y14168760D01*
X26267766Y14146147D01*
X26203677Y14146147D01*
X26203678Y14168758D01*
X26203713Y14172120D01*
X26203822Y14175407D01*
X26204008Y14178671D01*
X26204264Y14181876D01*
X26204597Y14185036D01*
X26205004Y14188140D01*
X26205474Y14191208D01*
X26206030Y14194215D01*
X26206649Y14197170D01*
X26207363Y14200083D01*
X26208132Y14202945D01*
X26208976Y14205769D01*
X26209892Y14208528D01*
X26210882Y14211237D01*
X26211956Y14213908D01*
X26213096Y14216521D01*
X26214293Y14219087D01*
X26215542Y14221604D01*
X26216826Y14224058D01*
X26218165Y14226460D01*
X26219542Y14228804D01*
X26220962Y14231106D01*
X26222425Y14233337D01*
X26223939Y14235526D01*
X26225489Y14237659D01*
X26227088Y14239734D01*
X26228736Y14241762D01*
X26230423Y14243725D01*
X26232147Y14245642D01*
X26233927Y14247513D01*
X26235747Y14249310D01*
X26237610Y14251068D01*
X26239588Y14252698D01*
X26241595Y14254267D01*
X26243637Y14255802D01*
X26245692Y14257270D01*
X26247792Y14258704D01*
X26249916Y14260079D01*
X26252081Y14261405D01*
X26254260Y14262694D01*
X26256471Y14263913D01*
X26258715Y14265097D01*
X26260986Y14266229D01*
X26263292Y14267317D01*
X26265627Y14268349D01*
X26267987Y14269329D01*
X26270368Y14270279D01*
X26272791Y14271161D01*
X26275160Y14271997D01*
X26277517Y14272783D01*
X26279887Y14273518D01*
X26282263Y14274187D01*
X26284636Y14274814D01*
X26287020Y14275374D01*
X26289401Y14275893D01*
X26291799Y14276364D01*
X26294197Y14276766D01*
X26296593Y14277118D01*
X26299000Y14277415D01*
X26301413Y14277664D01*
X26303838Y14277850D01*
X26306250Y14277984D01*
X26308679Y14278070D01*
X26311119Y14278103D01*
X26313550Y14278070D01*
X26315987Y14277984D01*
X26318419Y14277850D01*
X26320856Y14277664D01*
X26323285Y14277415D01*
X26325727Y14277118D01*
X26328162Y14276766D01*
X26330585Y14276364D01*
X26333030Y14275893D01*
X26335462Y14275374D01*
X26337898Y14274814D01*
X26340328Y14274187D01*
X26345207Y14272778D01*
X26350069Y14271161D01*
X26352415Y14270279D01*
X26354722Y14269329D01*
X26357011Y14268349D01*
X26359265Y14267317D01*
X26361485Y14266229D01*
X26363681Y14265097D01*
X26365839Y14263913D01*
X26367979Y14262691D01*
X26370086Y14261405D01*
X26372166Y14260079D01*
X26374210Y14258704D01*
X26376230Y14257270D01*
X26378213Y14255802D01*
X26380174Y14254267D01*
X26382106Y14252698D01*
X26384007Y14251068D01*
X26385944Y14249310D01*
X26387834Y14247513D01*
X26389671Y14245642D01*
X26391460Y14243725D01*
X26393208Y14241762D01*
X26394890Y14239734D01*
X26396540Y14237659D01*
X26398132Y14235526D01*
X26399686Y14233337D01*
X26401175Y14231106D01*
X26402621Y14228803D01*
X26404024Y14226458D01*
X26405371Y14224058D01*
X26406675Y14221604D01*
X26407924Y14219087D01*
X26409128Y14216521D01*
X26410276Y14213908D01*
X26411347Y14211237D01*
X26412332Y14208528D01*
X26413248Y14205769D01*
X26414094Y14202945D01*
X26414871Y14200083D01*
X26415572Y14197170D01*
X26416197Y14194215D01*
X26416740Y14191208D01*
X26417222Y14188140D01*
X26417628Y14185036D01*
X26417958Y14181876D01*
X26418211Y14178671D01*
X26418407Y14175409D01*
X26418513Y14172120D01*
X26418548Y14168758D01*
X26476983Y14168758D01*
X26476983Y14274324D01*
X26541074Y14274324D01*
X26541074Y13826984D01*
X26679041Y13826984D01*
X26678750Y13827055D01*
X26676306Y13827792D01*
X26673888Y13828584D01*
X26671485Y13829448D01*
X26669099Y13830376D01*
X26666728Y13831360D01*
X26664396Y13832409D01*
X26662092Y13833503D01*
X26659812Y13834640D01*
X26657583Y13835842D01*
X26655374Y13837088D01*
X26653211Y13838381D01*
X26651075Y13839721D01*
X26648973Y13841110D01*
X26646911Y13842550D01*
X26644875Y13844037D01*
X26642878Y13845574D01*
X26640916Y13847170D01*
X26638990Y13848802D01*
X26637096Y13850488D01*
X26635235Y13852217D01*
X26633412Y13854004D01*
X26631639Y13855825D01*
X26629913Y13857678D01*
X26628235Y13859556D01*
X26626620Y13861459D01*
X26625058Y13863397D01*
X26623545Y13865373D01*
X26622089Y13867364D01*
X26620689Y13869404D01*
X26619341Y13871455D01*
X26618054Y13873537D01*
X26616808Y13875653D01*
X26615617Y13877798D01*
X26614490Y13879976D01*
X26613415Y13882182D01*
X26612392Y13884413D01*
X26611417Y13886678D01*
X26610426Y13889048D01*
X26609507Y13891440D01*
X26608646Y13893854D01*
X26607850Y13896297D01*
X26607117Y13898764D01*
X26606448Y13901254D01*
X26605843Y13903765D01*
X26605302Y13906312D01*
X26604821Y13908872D01*
X26604413Y13911463D01*
X26604061Y13914075D01*
X26603768Y13916715D01*
X26603548Y13919377D01*
X26603383Y13922069D01*
X26603297Y13924776D01*
X26603260Y13927510D01*
X26603260Y14274324D01*
X26667347Y14274324D01*
X26667347Y13933791D01*
X26667391Y13930862D01*
X26667522Y13928023D01*
X26667740Y13925290D01*
X26668052Y13922644D01*
X26668452Y13920100D01*
X26668943Y13917659D01*
X26669522Y13915307D01*
X26670182Y13913064D01*
X26670929Y13910915D01*
X26671769Y13908859D01*
X26672701Y13906906D01*
X26673714Y13905051D01*
X26674824Y13903292D01*
X26676012Y13901632D01*
X26677284Y13900069D01*
X26678665Y13898606D01*
X26680100Y13897237D01*
X26681580Y13895953D01*
X26683107Y13894770D01*
X26684671Y13893665D01*
X26686285Y13892649D01*
X26687941Y13891717D01*
X26689643Y13890876D01*
X26691379Y13890120D01*
X26693163Y13889458D01*
X26695000Y13888880D01*
X26696873Y13888402D01*
X26698795Y13887997D01*
X26700764Y13887689D01*
X26702765Y13887466D01*
X26704821Y13887329D01*
X26706918Y13887286D01*
X26709019Y13887329D01*
X26711078Y13887466D01*
X26713087Y13887689D01*
X26715050Y13887997D01*
X26716970Y13888402D01*
X26718853Y13888880D01*
X26720682Y13889458D01*
X26722479Y13890120D01*
X26724220Y13890876D01*
X26725923Y13891716D01*
X26727587Y13892649D01*
X26729194Y13893665D01*
X26730758Y13894770D01*
X26732290Y13895953D01*
X26733768Y13897237D01*
X26735205Y13898606D01*
X26736567Y13900069D01*
X26737854Y13901632D01*
X26739048Y13903292D01*
X26740155Y13905051D01*
X26741176Y13906906D01*
X26742095Y13908859D01*
X26742943Y13910915D01*
X26743695Y13913064D01*
X26744351Y13915307D01*
X26744929Y13917659D01*
X26745417Y13920100D01*
X26745813Y13922644D01*
X26746126Y13925290D01*
X26746344Y13928023D01*
X26746477Y13930863D01*
X26746522Y13933798D01*
X26746522Y14274327D01*
X26810610Y14274327D01*
X26810610Y13927510D01*
X26978976Y13927510D01*
X26978976Y14274327D01*
X27043061Y14274324D01*
X27207625Y14274324D01*
X27207679Y14274327D01*
X27310729Y14274324D01*
X27352173Y14274324D01*
X27352173Y14274327D01*
X27543173Y14274324D01*
X27605381Y14274324D01*
X27669473Y14274324D01*
X27669475Y13826980D01*
X27927048Y13826980D01*
X27862996Y13826984D01*
X27862996Y14001656D01*
X27830319Y14001656D01*
X27825898Y14001707D01*
X27821578Y14001835D01*
X27817372Y14002082D01*
X27813271Y14002405D01*
X27809283Y14002823D01*
X27805392Y14003339D01*
X27801619Y14003941D01*
X27797950Y14004639D01*
X27794386Y14005431D01*
X27790925Y14006320D01*
X27787590Y14007298D01*
X27784350Y14008369D01*
X27781222Y14009534D01*
X27778201Y14010788D01*
X27775292Y14012147D01*
X27772489Y14013588D01*
X27769774Y14015203D01*
X27767129Y14016878D01*
X27764552Y14018632D01*
X27762050Y14020467D01*
X27759613Y14022363D01*
X27757241Y14024345D01*
X27754948Y14026385D01*
X27752711Y14028509D01*
X27750552Y14030708D01*
X27748447Y14032968D01*
X27746428Y14035316D01*
X27744474Y14037728D01*
X27742582Y14040218D01*
X27740776Y14042778D01*
X27739015Y14045428D01*
X27737338Y14048140D01*
X27735952Y14050419D01*
X27734632Y14052722D01*
X27733379Y14055050D01*
X27732186Y14057405D01*
X27731055Y14059773D01*
X27729988Y14062153D01*
X27728993Y14064569D01*
X27728054Y14066984D01*
X27727181Y14069432D01*
X27726362Y14071895D01*
X27725621Y14074385D01*
X27724939Y14076881D01*
X27724323Y14079412D01*
X27723762Y14081944D01*
X27723278Y14084520D01*
X27722856Y14087090D01*
X27721973Y14092417D01*
X27721214Y14098055D01*
X27720562Y14103962D01*
X27720042Y14110193D01*
X27719632Y14116701D01*
X27719337Y14123492D01*
X27719170Y14130601D01*
X27719108Y14137986D01*
X27719207Y14147772D01*
X27719499Y14157038D01*
X27719980Y14165758D01*
X27720670Y14173945D01*
X27721550Y14181616D01*
X27722616Y14188745D01*
X27723232Y14192120D01*
X27723895Y14195361D01*
X27724606Y14198460D01*
X27725368Y14201433D01*
X27726190Y14204397D01*
X27727102Y14207309D01*
X27728081Y14210168D01*
X27729145Y14212981D01*
X27730288Y14215744D01*
X27731510Y14218465D01*
X27732799Y14221125D01*
X27734173Y14223743D01*
X27735625Y14226306D01*
X27737163Y14228824D01*
X27738773Y14231299D01*
X27740466Y14233716D01*
X27742237Y14236089D01*
X27744081Y14238412D01*
X27746001Y14240689D01*
X27748013Y14242898D01*
X27750064Y14245067D01*
X27752142Y14247140D01*
X27754265Y14249129D01*
X27756411Y14251042D01*
X27758589Y14252862D01*
X27760789Y14254606D01*
X27763022Y14256259D01*
X27765294Y14257837D01*
X27767590Y14259325D01*
X27769909Y14260729D01*
X27772255Y14262055D01*
X27774638Y14263299D01*
X27777049Y14264456D01*
X27779483Y14265532D01*
X27781954Y14266522D01*
X27784455Y14267420D01*
X27786994Y14268256D01*
X27789577Y14269042D01*
X27794898Y14270446D01*
X27800406Y14271627D01*
X27806122Y14272598D01*
X27812034Y14273352D01*
X27818128Y14273896D01*
X27824434Y14274211D01*
X27830930Y14274324D01*
X27927048Y14274324D01*
X27927048Y13826980D01*
X28082554Y13826980D01*
X28415876Y14410969D01*
X28315544Y14410046D01*
X27996444Y14414786D01*
X25187536Y14427873D01*
X24948766Y14429981D01*
X24664633Y14437348D01*
X24646937Y14439346D01*
X24641494Y14440422D01*
X24638048Y14441565D01*
X24636339Y14442768D01*
X24636150Y14444036D01*
X24638590Y14449250D01*
X24643209Y14458146D01*
X25616334Y16139459D01*
X25620734Y16148608D01*
X25621880Y16151420D01*
X25622272Y16152951D01*
X25621881Y16154490D01*
X25620754Y16157308D01*
X25616404Y16166472D01*
X25219993Y16853805D01*
X25214678Y16861420D01*
X25210484Y16867010D01*
X25207473Y16870446D01*
X25206440Y16871313D01*
X25205728Y16871613D01*
X25201739Y16868422D01*
G36*
X28000088Y13684378D02*
G01*
X23362926Y13705487D01*
X23433413Y13826980D01*
X23813068Y13826980D01*
X23877155Y13826980D01*
X23877155Y13891066D01*
X23920502Y13891066D01*
X23920502Y13826980D01*
X24152950Y13826980D01*
X24343945Y13826980D01*
X24343945Y14168760D01*
X24400492Y14168760D01*
X24400492Y14146147D01*
X24464583Y14146146D01*
X24464580Y14168760D01*
X24464622Y14171615D01*
X24464780Y14174373D01*
X24465040Y14177034D01*
X24465402Y14179603D01*
X24465876Y14182063D01*
X24466436Y14184422D01*
X24467108Y14186697D01*
X24467886Y14188864D01*
X24468763Y14190940D01*
X24469746Y14192911D01*
X24470829Y14194788D01*
X24472014Y14196555D01*
X24473309Y14198240D01*
X24474705Y14199822D01*
X24476196Y14201303D01*
X24477793Y14202695D01*
X24479389Y14204054D01*
X24481016Y14205343D01*
X24482681Y14206538D01*
X24484395Y14207639D01*
X24486144Y14208657D01*
X24487929Y14209581D01*
X24489754Y14210426D01*
X24491615Y14211181D01*
X24493521Y14211831D01*
X24495466Y14212420D01*
X24497451Y14212894D01*
X24499472Y14213299D01*
X24501533Y14213612D01*
X24503637Y14213836D01*
X24505777Y14213964D01*
X24507963Y14214014D01*
X24510142Y14213964D01*
X24512284Y14213836D01*
X24514389Y14213612D01*
X24516481Y14213299D01*
X24518516Y14212897D01*
X24520525Y14212420D01*
X24522495Y14211831D01*
X24524430Y14211181D01*
X24526337Y14210426D01*
X24528213Y14209581D01*
X24530054Y14208657D01*
X24531854Y14207639D01*
X24533619Y14206538D01*
X24535358Y14205343D01*
X24537056Y14204054D01*
X24538721Y14202695D01*
X24540240Y14201303D01*
X24541670Y14199822D01*
X24542993Y14198240D01*
X24544221Y14196555D01*
X24545352Y14194788D01*
X24546379Y14192911D01*
X24547321Y14190943D01*
X24548154Y14188864D01*
X24548886Y14186697D01*
X24549523Y14184422D01*
X24550068Y14182063D01*
X24550508Y14179603D01*
X24550857Y14177034D01*
X24551107Y14174373D01*
X24551252Y14171615D01*
X24551301Y14168758D01*
X24551301Y13932541D01*
X24551252Y13929676D01*
X24551107Y13926917D01*
X24550857Y13924239D01*
X24550508Y13921659D01*
X24550068Y13919170D01*
X24549523Y13916780D01*
X24548886Y13914471D01*
X24548154Y13912277D01*
X24547321Y13910156D01*
X24546379Y13908132D01*
X24545352Y13906207D01*
X24544221Y13904364D01*
X24542994Y13902625D01*
X24541670Y13900985D01*
X24540240Y13899431D01*
X24538721Y13897959D01*
X24537056Y13896676D01*
X24535358Y13895461D01*
X24533619Y13894335D01*
X24531854Y13893287D01*
X24530054Y13892338D01*
X24528213Y13891463D01*
X24526337Y13890664D01*
X24524430Y13889966D01*
X24522495Y13889333D01*
X24520525Y13888784D01*
X24518516Y13888333D01*
X24516481Y13887958D01*
X24514389Y13887664D01*
X24512279Y13887460D01*
X24510134Y13887329D01*
X24507961Y13887286D01*
X24505776Y13887329D01*
X24503636Y13887460D01*
X24501533Y13887663D01*
X24499472Y13887958D01*
X24497450Y13888333D01*
X24495466Y13888784D01*
X24493521Y13889330D01*
X24491615Y13889966D01*
X24489754Y13890664D01*
X24487929Y13891463D01*
X24486144Y13892338D01*
X24484395Y13893287D01*
X24482681Y13894335D01*
X24481016Y13895461D01*
X24479389Y13896676D01*
X24477793Y13897959D01*
X24476196Y13899431D01*
X24474705Y13900985D01*
X24473309Y13902626D01*
X24472014Y13904364D01*
X24470829Y13906208D01*
X24469746Y13908132D01*
X24468763Y13910156D01*
X24467886Y13912277D01*
X24467108Y13914471D01*
X24466437Y13916780D01*
X24465876Y13919170D01*
X24465402Y13921659D01*
X24465040Y13924242D01*
X24464780Y13926917D01*
X24464625Y13929676D01*
X24464580Y13932541D01*
X24464580Y14016716D01*
X24515472Y14016716D01*
X24515472Y14073258D01*
X24400492Y14073258D01*
X24400492Y13932541D01*
X24400526Y13929033D01*
X24400638Y13925599D01*
X24400826Y13922219D01*
X24401079Y13918907D01*
X24401413Y13915676D01*
X24401821Y13912481D01*
X24402300Y13909362D01*
X24402859Y13906312D01*
X24403487Y13903315D01*
X24404182Y13900384D01*
X24404965Y13897526D01*
X24405814Y13894724D01*
X24406725Y13891993D01*
X24407730Y13889312D01*
X24408795Y13886704D01*
X24409933Y13884162D01*
X24411135Y13881674D01*
X24412377Y13879242D01*
X24413672Y13876859D01*
X24415009Y13874540D01*
X24416374Y13872261D01*
X24417794Y13870048D01*
X24419254Y13867882D01*
X24420760Y13865776D01*
X24422318Y13863714D01*
X24423907Y13861715D01*
X24425549Y13859769D01*
X24427238Y13857868D01*
X24428960Y13856038D01*
X24430732Y13854251D01*
X24432558Y13852524D01*
X24434417Y13850846D01*
X24436397Y13849143D01*
X24438395Y13847501D01*
X24440436Y13845905D01*
X24442507Y13844366D01*
X24444604Y13842889D01*
X24446732Y13841460D01*
X24448889Y13840081D01*
X24451072Y13838762D01*
X24453278Y13837503D01*
X24455528Y13836283D01*
X24457800Y13835128D01*
X24460102Y13834020D01*
X24462433Y13832969D01*
X24464796Y13831966D01*
X24467185Y13831029D01*
X24469605Y13830144D01*
X24471969Y13829301D01*
X24474329Y13828512D01*
X24476697Y13827782D01*
X24479075Y13827114D01*
X24479581Y13826980D01*
X24481451Y13826476D01*
X24483825Y13825919D01*
X24486219Y13825410D01*
X24488627Y13824945D01*
X24491018Y13824538D01*
X24493421Y13824188D01*
X24495830Y13823893D01*
X24498251Y13823642D01*
X24500665Y13823445D01*
X24503089Y13823310D01*
X24505521Y13823221D01*
X24507961Y13823206D01*
X24510388Y13823221D01*
X24512819Y13823305D01*
X24515261Y13823445D01*
X24517691Y13823642D01*
X24520119Y13823893D01*
X24522550Y13824188D01*
X24524983Y13824531D01*
X24527415Y13824945D01*
X24529853Y13825410D01*
X24532277Y13825919D01*
X24534711Y13826481D01*
X24536633Y13826980D01*
X24669407Y13826980D01*
X24729726Y13826980D01*
X24827737Y14095902D01*
X24829003Y14095902D01*
X24829001Y13826980D01*
X24893083Y13826980D01*
X24921983Y13826980D01*
X24986069Y13826980D01*
X25004905Y13923128D01*
X25092242Y13923128D01*
X25111086Y13826984D01*
X25175165Y13826980D01*
X25160856Y13891066D01*
X25187743Y13891066D01*
X25187743Y13826980D01*
X25378741Y13826980D01*
X25378741Y14168760D01*
X25435284Y14168760D01*
X25435284Y13932537D01*
X25435329Y13929033D01*
X25435438Y13925599D01*
X25435617Y13922219D01*
X25435882Y13918907D01*
X25436200Y13915676D01*
X25436606Y13912481D01*
X25437085Y13909362D01*
X25437646Y13906312D01*
X25438272Y13903315D01*
X25438965Y13900384D01*
X25439741Y13897526D01*
X25440584Y13894729D01*
X25441503Y13891993D01*
X25442491Y13889312D01*
X25443562Y13886704D01*
X25444711Y13884162D01*
X25445902Y13881674D01*
X25447146Y13879246D01*
X25448445Y13876859D01*
X25449773Y13874540D01*
X25451158Y13872261D01*
X25452569Y13870048D01*
X25454032Y13867882D01*
X25455546Y13865774D01*
X25457097Y13863714D01*
X25458699Y13861714D01*
X25460339Y13859769D01*
X25462030Y13857868D01*
X25463764Y13856038D01*
X25465544Y13854250D01*
X25467353Y13852524D01*
X25469212Y13850846D01*
X25471200Y13849143D01*
X25473209Y13847501D01*
X25475237Y13845905D01*
X25477300Y13844366D01*
X25479402Y13842889D01*
X25481531Y13841459D01*
X25483684Y13840079D01*
X25485868Y13838762D01*
X25488081Y13837503D01*
X25490327Y13836282D01*
X25492595Y13835123D01*
X25494896Y13834020D01*
X25497235Y13832969D01*
X25499588Y13831965D01*
X25501982Y13831023D01*
X25504405Y13830143D01*
X25506756Y13829300D01*
X25509132Y13828512D01*
X25511491Y13827782D01*
X25513864Y13827113D01*
X25514376Y13826980D01*
X25516245Y13826476D01*
X25518625Y13825919D01*
X25521014Y13825410D01*
X25523410Y13824945D01*
X25525797Y13824538D01*
X25528206Y13824188D01*
X25530614Y13823893D01*
X25533027Y13823642D01*
X25535438Y13823445D01*
X25537863Y13823310D01*
X25540290Y13823222D01*
X25542720Y13823206D01*
X25545157Y13823222D01*
X25547590Y13823310D01*
X25550026Y13823445D01*
X25552461Y13823642D01*
X25554900Y13823893D01*
X25557326Y13824188D01*
X25559769Y13824531D01*
X25562204Y13824945D01*
X25564639Y13825410D01*
X25567072Y13825919D01*
X25569507Y13826476D01*
X25571938Y13827114D01*
X25576816Y13828512D01*
X25581677Y13830144D01*
X25584026Y13831029D01*
X25586336Y13831965D01*
X25588622Y13832969D01*
X25590873Y13834020D01*
X25593093Y13835128D01*
X25595285Y13836282D01*
X25597451Y13837503D01*
X25599589Y13838762D01*
X25601696Y13840079D01*
X25603774Y13841459D01*
X25605819Y13842889D01*
X25607838Y13844365D01*
X25609823Y13845905D01*
X25611776Y13847501D01*
X25613714Y13849143D01*
X25615610Y13850846D01*
X25617553Y13852524D01*
X25619439Y13854250D01*
X25621276Y13856038D01*
X25623071Y13857868D01*
X25624811Y13859769D01*
X25626501Y13861714D01*
X25628155Y13863714D01*
X25629743Y13865776D01*
X25631286Y13867883D01*
X25632783Y13870048D01*
X25634241Y13872261D01*
X25635629Y13874540D01*
X25636987Y13876859D01*
X25638290Y13879246D01*
X25639538Y13881674D01*
X25640742Y13884162D01*
X25641875Y13886704D01*
X25642947Y13889312D01*
X25643936Y13891993D01*
X25644858Y13894729D01*
X25645706Y13897526D01*
X25646478Y13900385D01*
X25647177Y13903315D01*
X25647809Y13906312D01*
X25648356Y13909362D01*
X25648832Y13912481D01*
X25649234Y13915676D01*
X25649568Y13918907D01*
X25649825Y13922219D01*
X25650007Y13925599D01*
X25650121Y13929033D01*
X25650156Y13932541D01*
X25650156Y14146147D01*
X25698543Y14146147D01*
X25762620Y14146146D01*
X25762620Y14167501D01*
X25762665Y14169842D01*
X25762790Y14172136D01*
X25762993Y14174386D01*
X25763290Y14176612D01*
X25763667Y14178796D01*
X25764112Y14180932D01*
X25764667Y14183040D01*
X25765284Y14185105D01*
X25766001Y14187121D01*
X25766783Y14189096D01*
X25767665Y14191048D01*
X25768624Y14192955D01*
X25769666Y14194808D01*
X25770793Y14196639D01*
X25771999Y14198420D01*
X25773297Y14200169D01*
X25774668Y14201850D01*
X25776084Y14203412D01*
X25777566Y14204882D01*
X25779112Y14206226D01*
X25780704Y14207469D01*
X25782369Y14208602D01*
X25784084Y14209626D01*
X25785854Y14210545D01*
X25787699Y14211358D01*
X25789590Y14212063D01*
X25791541Y14212653D01*
X25793561Y14213140D01*
X25795622Y14213524D01*
X25797767Y14213790D01*
X25799941Y14213954D01*
X25802192Y14214014D01*
X25805116Y14213950D01*
X25807920Y14213776D01*
X25810598Y14213478D01*
X25813149Y14213064D01*
X25815588Y14212544D01*
X25817893Y14211882D01*
X25820087Y14211123D01*
X25822147Y14210236D01*
X25824099Y14209230D01*
X25825921Y14208116D01*
X25827619Y14206877D01*
X25829185Y14205511D01*
X25830640Y14204042D01*
X25831962Y14202453D01*
X25833169Y14200745D01*
X25834250Y14198917D01*
X25835163Y14197077D01*
X25836024Y14195181D01*
X25836813Y14193216D01*
X25837552Y14191189D01*
X25838224Y14189088D01*
X25838843Y14186929D01*
X25839399Y14184715D01*
X25839892Y14182422D01*
X25840334Y14180085D01*
X25840719Y14177673D01*
X25841041Y14175197D01*
X25841305Y14172651D01*
X25841501Y14170049D01*
X25841657Y14167383D01*
X25841747Y14164653D01*
X25841776Y14161851D01*
X25841776Y13933157D01*
X25841731Y13930739D01*
X25841646Y13928384D01*
X25841482Y13926074D01*
X25841262Y13923806D01*
X25840976Y13921596D01*
X25840618Y13919435D01*
X25840209Y13917311D01*
X25839731Y13915247D01*
X25839191Y13913236D01*
X25838585Y13911263D01*
X25837909Y13909344D01*
X25837185Y13907461D01*
X25836379Y13905656D01*
X25835521Y13903869D01*
X25834602Y13902154D01*
X25833609Y13900480D01*
X25833053Y13899669D01*
X25832462Y13898888D01*
X25831842Y13898125D01*
X25831205Y13897390D01*
X25830539Y13896686D01*
X25829838Y13895996D01*
X25829137Y13895340D01*
X25828387Y13894713D01*
X25827625Y13894101D01*
X25826835Y13893528D01*
X25826010Y13892973D01*
X25825162Y13892439D01*
X25824287Y13891942D01*
X25823396Y13891468D01*
X25822468Y13891012D01*
X25821517Y13890586D01*
X25820549Y13890180D01*
X25819549Y13889813D01*
X25818529Y13889462D01*
X25817475Y13889139D01*
X25815289Y13888577D01*
X25813011Y13888113D01*
X25810622Y13887758D01*
X25808131Y13887495D01*
X25805540Y13887338D01*
X25802842Y13887286D01*
X25801257Y13887318D01*
X25799661Y13887405D01*
X25798040Y13887559D01*
X25796406Y13887772D01*
X25794739Y13888039D01*
X25793066Y13888371D01*
X25791372Y13888755D01*
X25789648Y13889188D01*
X25788714Y13889513D01*
X25787779Y13889859D01*
X25786868Y13890226D01*
X25785950Y13890603D01*
X25785055Y13891003D01*
X25784163Y13891420D01*
X25783293Y13891865D01*
X25782418Y13892326D01*
X25781556Y13892803D01*
X25780701Y13893295D01*
X25779869Y13893810D01*
X25779037Y13894354D01*
X25778214Y13894913D01*
X25777405Y13895490D01*
X25776604Y13896093D01*
X25775813Y13896710D01*
X25775115Y13897354D01*
X25774428Y13898025D01*
X25773766Y13898728D01*
X25773098Y13899461D01*
X25772463Y13900218D01*
X25771840Y13901013D01*
X25771232Y13901835D01*
X25770628Y13902688D01*
X25770053Y13903563D01*
X25769482Y13904471D01*
X25768933Y13905415D01*
X25768395Y13906373D01*
X25767872Y13907379D01*
X25767368Y13908408D01*
X25766873Y13909460D01*
X25766406Y13910543D01*
X25765936Y13911663D01*
X25765514Y13912809D01*
X25765112Y13913997D01*
X25764745Y13915224D01*
X25764411Y13916472D01*
X25764097Y13917755D01*
X25763818Y13919087D01*
X25763564Y13920445D01*
X25763347Y13921840D01*
X25763151Y13923260D01*
X25762988Y13924719D01*
X25762862Y13926217D01*
X25762757Y13927738D01*
X25762681Y13929303D01*
X25762631Y13930911D01*
X25762620Y13932541D01*
X25762620Y13954532D01*
X25698543Y13954532D01*
X25698543Y13926872D01*
X25698568Y13924283D01*
X25698665Y13921706D01*
X25698829Y13919152D01*
X25699043Y13916618D01*
X25699325Y13914090D01*
X25699674Y13911586D01*
X25700090Y13909080D01*
X25700572Y13906607D01*
X25701111Y13904142D01*
X25701715Y13901684D01*
X25702392Y13899254D01*
X25703124Y13896831D01*
X25703918Y13894424D01*
X25704786Y13892036D01*
X25705704Y13889652D01*
X25706695Y13887286D01*
X25707662Y13885025D01*
X25708684Y13882794D01*
X25709751Y13880580D01*
X25710864Y13878416D01*
X25712021Y13876266D01*
X25713244Y13874159D01*
X25714505Y13872062D01*
X25715816Y13870011D01*
X25717180Y13867984D01*
X25718590Y13865991D01*
X25720047Y13864017D01*
X25721560Y13862075D01*
X25723118Y13860173D01*
X25724722Y13858291D01*
X25726372Y13856435D01*
X25728082Y13854617D01*
X25729825Y13852837D01*
X25731614Y13851095D01*
X25733437Y13849402D01*
X25735308Y13847754D01*
X25737206Y13846138D01*
X25739150Y13844572D01*
X25741134Y13843049D01*
X25743159Y13841576D01*
X25745218Y13840146D01*
X25747321Y13838758D01*
X25749454Y13837417D01*
X25751639Y13836113D01*
X25753855Y13834861D01*
X25756117Y13833655D01*
X25758415Y13832482D01*
X25760760Y13831360D01*
X25763038Y13830376D01*
X25765352Y13829448D01*
X25767697Y13828584D01*
X25770059Y13827792D01*
X25772436Y13827055D01*
X25774855Y13826391D01*
X25777288Y13825781D01*
X25779751Y13825242D01*
X25782245Y13824764D01*
X25784747Y13824352D01*
X25787288Y13823994D01*
X25789838Y13823709D01*
X25792431Y13823478D01*
X25795032Y13823329D01*
X25797666Y13823227D01*
X25800329Y13823206D01*
X25804887Y13823283D01*
X25809468Y13823521D01*
X25814072Y13823917D01*
X25818694Y13824460D01*
X25823334Y13825175D01*
X25827997Y13826037D01*
X25832329Y13826980D01*
X26081153Y13826980D01*
X26145233Y13826980D01*
X26145233Y14146147D01*
X26203677Y14146147D01*
X26267766Y14146147D01*
X26267766Y14168760D01*
X26267811Y14171615D01*
X26267972Y14174373D01*
X26268224Y14177034D01*
X26268588Y14179603D01*
X26269049Y14182063D01*
X26269615Y14184422D01*
X26270291Y14186697D01*
X26271058Y14188864D01*
X26271939Y14190940D01*
X26272918Y14192911D01*
X26273998Y14194788D01*
X26275186Y14196555D01*
X26276475Y14198240D01*
X26277861Y14199822D01*
X26279363Y14201303D01*
X26280949Y14202695D01*
X26282540Y14204054D01*
X26284171Y14205343D01*
X26285853Y14206538D01*
X26287552Y14207639D01*
X26289295Y14208658D01*
X26291092Y14209581D01*
X26292914Y14210426D01*
X26294781Y14211181D01*
X26296683Y14211831D01*
X26298627Y14212420D01*
X26300615Y14212895D01*
X26302630Y14213299D01*
X26304695Y14213612D01*
X26306790Y14213836D01*
X26308937Y14213964D01*
X26311119Y14214014D01*
X26313297Y14213964D01*
X26315446Y14213836D01*
X26317553Y14213612D01*
X26319645Y14213299D01*
X26321680Y14212895D01*
X26323694Y14212420D01*
X26325669Y14211831D01*
X26327612Y14211181D01*
X26329525Y14210426D01*
X26331398Y14209581D01*
X26333234Y14208658D01*
X26335043Y14207639D01*
X26336813Y14206538D01*
X26338547Y14205343D01*
X26340240Y14204054D01*
X26341912Y14202695D01*
X26343436Y14201303D01*
X26344857Y14199822D01*
X26346180Y14198240D01*
X26347403Y14196555D01*
X26348533Y14194788D01*
X26349574Y14192911D01*
X26350484Y14190943D01*
X26351327Y14188864D01*
X26352064Y14186697D01*
X26352701Y14184422D01*
X26353237Y14182063D01*
X26353676Y14179603D01*
X26354026Y14177034D01*
X26354263Y14174373D01*
X26354411Y14171615D01*
X26354457Y14168758D01*
X26354457Y13932541D01*
X26354411Y13929676D01*
X26354263Y13926917D01*
X26354026Y13924239D01*
X26353675Y13921659D01*
X26353237Y13919170D01*
X26352701Y13916780D01*
X26352064Y13914471D01*
X26351327Y13912277D01*
X26350484Y13910156D01*
X26349574Y13908132D01*
X26348533Y13906207D01*
X26347403Y13904362D01*
X26346180Y13902624D01*
X26344857Y13900985D01*
X26343436Y13899431D01*
X26341912Y13897959D01*
X26340248Y13896675D01*
X26338547Y13895461D01*
X26336813Y13894335D01*
X26335043Y13893287D01*
X26333234Y13892338D01*
X26331398Y13891462D01*
X26329525Y13890664D01*
X26327612Y13889966D01*
X26325669Y13889330D01*
X26323694Y13888784D01*
X26321680Y13888333D01*
X26319645Y13887958D01*
X26317553Y13887663D01*
X26315446Y13887460D01*
X26313297Y13887329D01*
X26311119Y13887286D01*
X26308937Y13887329D01*
X26306790Y13887460D01*
X26304695Y13887664D01*
X26302630Y13887958D01*
X26300615Y13888333D01*
X26298627Y13888784D01*
X26296683Y13889333D01*
X26294781Y13889966D01*
X26292914Y13890664D01*
X26291091Y13891463D01*
X26289295Y13892340D01*
X26287552Y13893287D01*
X26285853Y13894335D01*
X26284171Y13895463D01*
X26282540Y13896676D01*
X26280949Y13897959D01*
X26279363Y13899431D01*
X26277861Y13900985D01*
X26276469Y13902625D01*
X26275186Y13904364D01*
X26273998Y13906207D01*
X26272918Y13908132D01*
X26271939Y13910156D01*
X26271054Y13912277D01*
X26270290Y13914471D01*
X26269615Y13916780D01*
X26269049Y13919170D01*
X26268588Y13921659D01*
X26268224Y13924238D01*
X26267972Y13926916D01*
X26267811Y13929671D01*
X26267766Y13932537D01*
X26267766Y14016716D01*
X26318660Y14016716D01*
X26318660Y14073258D01*
X26203678Y14073258D01*
X26203678Y13932541D01*
X26203713Y13929033D01*
X26203822Y13925599D01*
X26204008Y13922219D01*
X26204264Y13918907D01*
X26204597Y13915676D01*
X26205004Y13912481D01*
X26205474Y13909362D01*
X26206030Y13906312D01*
X26206649Y13903315D01*
X26207363Y13900384D01*
X26208132Y13897526D01*
X26208976Y13894724D01*
X26209892Y13891993D01*
X26210882Y13889312D01*
X26211956Y13886704D01*
X26213096Y13884162D01*
X26214293Y13881674D01*
X26215542Y13879246D01*
X26216826Y13876859D01*
X26218165Y13874540D01*
X26219542Y13872261D01*
X26220962Y13870048D01*
X26222425Y13867882D01*
X26223939Y13865774D01*
X26225489Y13863714D01*
X26227088Y13861714D01*
X26228736Y13859769D01*
X26230423Y13857868D01*
X26232147Y13856038D01*
X26233927Y13854251D01*
X26235747Y13852525D01*
X26237610Y13850846D01*
X26239588Y13849143D01*
X26241595Y13847501D01*
X26243637Y13845906D01*
X26245692Y13844366D01*
X26247792Y13842889D01*
X26249916Y13841460D01*
X26252081Y13840079D01*
X26254260Y13838762D01*
X26256471Y13837503D01*
X26258715Y13836282D01*
X26260986Y13835128D01*
X26263292Y13834020D01*
X26265627Y13832969D01*
X26267987Y13831965D01*
X26270368Y13831023D01*
X26272791Y13830144D01*
X26275160Y13829301D01*
X26277517Y13828512D01*
X26279887Y13827782D01*
X26282266Y13827114D01*
X26282768Y13826980D01*
X26284636Y13826476D01*
X26287020Y13825919D01*
X26289401Y13825410D01*
X26291799Y13824945D01*
X26294198Y13824538D01*
X26296593Y13824188D01*
X26299000Y13823893D01*
X26301413Y13823642D01*
X26303838Y13823445D01*
X26306250Y13823305D01*
X26308679Y13823221D01*
X26311119Y13823206D01*
X26313550Y13823221D01*
X26315987Y13823310D01*
X26318419Y13823445D01*
X26320856Y13823642D01*
X26323285Y13823893D01*
X26325727Y13824188D01*
X26328162Y13824538D01*
X26330595Y13824945D01*
X26333030Y13825410D01*
X26335462Y13825919D01*
X26337898Y13826481D01*
X26339816Y13826980D01*
X26476983Y13826980D01*
X26541074Y13826984D01*
X26541074Y14274324D01*
X26603260Y14274324D01*
X26603260Y13927510D01*
X26603297Y13924776D01*
X26603383Y13922069D01*
X26603548Y13919377D01*
X26603768Y13916715D01*
X26604061Y13914075D01*
X26604413Y13911463D01*
X26604821Y13908872D01*
X26605302Y13906312D01*
X26605843Y13903765D01*
X26606448Y13901254D01*
X26607117Y13898764D01*
X26607850Y13896297D01*
X26608646Y13893854D01*
X26609507Y13891440D01*
X26610426Y13889048D01*
X26611417Y13886678D01*
X26612392Y13884413D01*
X26613415Y13882182D01*
X26614490Y13879976D01*
X26615617Y13877798D01*
X26616808Y13875653D01*
X26618054Y13873537D01*
X26619341Y13871455D01*
X26620689Y13869404D01*
X26622089Y13867364D01*
X26623545Y13865373D01*
X26625058Y13863397D01*
X26626620Y13861459D01*
X26628235Y13859556D01*
X26629913Y13857678D01*
X26631639Y13855825D01*
X26633412Y13854004D01*
X26635235Y13852217D01*
X26637096Y13850488D01*
X26638990Y13848802D01*
X26640916Y13847170D01*
X26642878Y13845574D01*
X26644875Y13844037D01*
X26646911Y13842550D01*
X26648973Y13841110D01*
X26651075Y13839721D01*
X26653211Y13838381D01*
X26655374Y13837088D01*
X26657583Y13835842D01*
X26659812Y13834640D01*
X26662092Y13833503D01*
X26664396Y13832409D01*
X26666728Y13831360D01*
X26669099Y13830376D01*
X26671485Y13829448D01*
X26673888Y13828584D01*
X26676306Y13827792D01*
X26678750Y13827055D01*
X26679041Y13826984D01*
X26681213Y13826391D01*
X26683701Y13825781D01*
X26686199Y13825242D01*
X26688718Y13824764D01*
X26691261Y13824352D01*
X26693815Y13823994D01*
X26696401Y13823709D01*
X26698998Y13823478D01*
X26701618Y13823330D01*
X26704258Y13823228D01*
X26706918Y13823206D01*
X26709581Y13823228D01*
X26712216Y13823330D01*
X26714839Y13823478D01*
X26717450Y13823709D01*
X26720024Y13823994D01*
X26722596Y13824352D01*
X26725137Y13824764D01*
X26727656Y13825242D01*
X26730162Y13825781D01*
X26732649Y13826391D01*
X26735110Y13827055D01*
X26737557Y13827792D01*
X26739982Y13828584D01*
X26742381Y13829448D01*
X26744765Y13830376D01*
X26747137Y13831360D01*
X26749396Y13832409D01*
X26751632Y13833503D01*
X26753837Y13834640D01*
X26756019Y13835842D01*
X26758163Y13837088D01*
X26760272Y13838381D01*
X26762358Y13839725D01*
X26764415Y13841110D01*
X26766444Y13842555D01*
X26768442Y13844037D01*
X26770410Y13845574D01*
X26772352Y13847172D01*
X26774260Y13848802D01*
X26776134Y13850488D01*
X26777983Y13852218D01*
X26779816Y13854004D01*
X26781592Y13855825D01*
X26783327Y13857678D01*
X26785008Y13859556D01*
X26786639Y13861459D01*
X26788226Y13863397D01*
X26789762Y13865373D01*
X26791247Y13867364D01*
X26792687Y13869403D01*
X26794075Y13871453D01*
X26795415Y13873537D01*
X26796700Y13875653D01*
X26797947Y13877798D01*
X26799135Y13879972D01*
X26800275Y13882182D01*
X26801378Y13884413D01*
X26802425Y13886678D01*
X26803406Y13889048D01*
X26804194Y13891066D01*
X26852060Y13891066D01*
X26852060Y13826980D01*
X27043061Y13826980D01*
X27080763Y13826980D01*
X27148623Y13826980D01*
X27208293Y14017978D01*
X27246637Y14017978D01*
X27246637Y13826980D01*
X27310729Y13826980D01*
X27310729Y14214014D01*
X27352173Y14214014D01*
X27479090Y14214014D01*
X27479090Y14082684D01*
X27368519Y14082684D01*
X27368521Y14022366D01*
X27479090Y14022366D01*
X27479090Y13891066D01*
X27352173Y13891066D01*
X27352173Y13826980D01*
X27543173Y13826984D01*
X27543173Y14274324D01*
X27605381Y14274324D01*
X27605381Y13826984D01*
X27669475Y13826980D01*
X27669474Y14137986D01*
X27719108Y14137986D01*
X27719170Y14130601D01*
X27719337Y14123492D01*
X27719632Y14116701D01*
X27720042Y14110193D01*
X27720562Y14103962D01*
X27721214Y14098055D01*
X27721973Y14092417D01*
X27722856Y14087090D01*
X27723278Y14084520D01*
X27723762Y14081944D01*
X27724323Y14079412D01*
X27724939Y14076881D01*
X27725621Y14074385D01*
X27726362Y14071895D01*
X27727181Y14069432D01*
X27728054Y14066984D01*
X27728993Y14064569D01*
X27729988Y14062153D01*
X27731055Y14059773D01*
X27732186Y14057405D01*
X27733379Y14055050D01*
X27734632Y14052722D01*
X27735952Y14050419D01*
X27737338Y14048140D01*
X27739015Y14045428D01*
X27740776Y14042778D01*
X27742582Y14040218D01*
X27744474Y14037728D01*
X27746428Y14035316D01*
X27748447Y14032968D01*
X27750552Y14030708D01*
X27752711Y14028509D01*
X27754948Y14026385D01*
X27757241Y14024345D01*
X27759613Y14022363D01*
X27762050Y14020467D01*
X27764552Y14018632D01*
X27767129Y14016878D01*
X27769774Y14015203D01*
X27772489Y14013588D01*
X27775292Y14012147D01*
X27778201Y14010788D01*
X27781222Y14009534D01*
X27784350Y14008369D01*
X27787590Y14007298D01*
X27790925Y14006320D01*
X27794386Y14005431D01*
X27797950Y14004639D01*
X27801619Y14003941D01*
X27805392Y14003339D01*
X27809283Y14002823D01*
X27813271Y14002405D01*
X27817372Y14002082D01*
X27821578Y14001835D01*
X27825898Y14001707D01*
X27830319Y14001656D01*
X27862996Y14001656D01*
X27862996Y13826984D01*
X27927048Y13826980D01*
X27927048Y14274324D01*
X27830930Y14274324D01*
X27824434Y14274211D01*
X27818128Y14273896D01*
X27812034Y14273352D01*
X27806122Y14272598D01*
X27800406Y14271627D01*
X27794898Y14270446D01*
X27789577Y14269042D01*
X27786994Y14268256D01*
X27784455Y14267420D01*
X27781954Y14266522D01*
X27779483Y14265532D01*
X27777049Y14264456D01*
X27774638Y14263299D01*
X27772255Y14262055D01*
X27769909Y14260729D01*
X27767590Y14259325D01*
X27765294Y14257837D01*
X27763022Y14256259D01*
X27760789Y14254606D01*
X27758589Y14252862D01*
X27756411Y14251042D01*
X27754265Y14249129D01*
X27752142Y14247140D01*
X27750064Y14245067D01*
X27748013Y14242898D01*
X27746001Y14240689D01*
X27744081Y14238412D01*
X27742237Y14236089D01*
X27740466Y14233716D01*
X27738773Y14231299D01*
X27737163Y14228824D01*
X27735625Y14226306D01*
X27734173Y14223743D01*
X27732799Y14221125D01*
X27731510Y14218465D01*
X27730288Y14215744D01*
X27729145Y14212981D01*
X27728081Y14210168D01*
X27727102Y14207309D01*
X27726190Y14204397D01*
X27725368Y14201433D01*
X27724606Y14198460D01*
X27723895Y14195361D01*
X27723232Y14192120D01*
X27722616Y14188745D01*
X27721550Y14181616D01*
X27720670Y14173945D01*
X27719980Y14165758D01*
X27719499Y14157038D01*
X27719207Y14147772D01*
X27719108Y14137986D01*
X27669474Y14137986D01*
X27669473Y14274324D01*
X27605381Y14274324D01*
X27543173Y14274324D01*
X27352173Y14274327D01*
X27352173Y14274324D01*
X27352173Y14214014D01*
X27310729Y14214014D01*
X27310729Y14274324D01*
X27207679Y14274327D01*
X27207625Y14274324D01*
X27200723Y14274191D01*
X27193980Y14273814D01*
X27187474Y14273169D01*
X27181177Y14272272D01*
X27175100Y14271120D01*
X27169249Y14269702D01*
X27163613Y14268047D01*
X27158204Y14266121D01*
X27153006Y14263938D01*
X27148041Y14261501D01*
X27143292Y14258810D01*
X27138755Y14255862D01*
X27134461Y14252653D01*
X27130366Y14249186D01*
X27126504Y14245473D01*
X27122860Y14241505D01*
X27119441Y14237268D01*
X27116237Y14232780D01*
X27113262Y14228036D01*
X27110494Y14223035D01*
X27107953Y14217782D01*
X27105642Y14212268D01*
X27103544Y14206495D01*
X27101655Y14200477D01*
X27100008Y14194192D01*
X27098571Y14187648D01*
X27097356Y14180850D01*
X27096364Y14173805D01*
X27095591Y14166487D01*
X27095030Y14158920D01*
X27094702Y14151101D01*
X27094593Y14143024D01*
X27094649Y14138120D01*
X27094795Y14133311D01*
X27095030Y14128599D01*
X27095385Y14123977D01*
X27095819Y14119444D01*
X27096359Y14115012D01*
X27096995Y14110660D01*
X27097725Y14106417D01*
X27098561Y14102262D01*
X27099492Y14098203D01*
X27100522Y14094228D01*
X27101648Y14090348D01*
X27102877Y14086566D01*
X27104197Y14082876D01*
X27105616Y14079282D01*
X27107149Y14075769D01*
X27108714Y14072358D01*
X27110423Y14069031D01*
X27112284Y14065781D01*
X27114297Y14062615D01*
X27116448Y14059537D01*
X27118752Y14056547D01*
X27121209Y14053634D01*
X27123801Y14050800D01*
X27126545Y14048060D01*
X27129439Y14045392D01*
X27132474Y14042815D01*
X27135660Y14040313D01*
X27138997Y14037907D01*
X27142481Y14035571D01*
X27146104Y14033333D01*
X27149889Y14031170D01*
X27080763Y13826980D01*
X27043061Y13826980D01*
X27043061Y14274324D01*
X26978976Y14274327D01*
X26978976Y13927510D01*
X26978976Y13891066D01*
X26852060Y13891066D01*
X26804194Y13891066D01*
X26804340Y13891440D01*
X26805203Y13893854D01*
X26805995Y13896297D01*
X26806732Y13898764D01*
X26807400Y13901254D01*
X26808016Y13903765D01*
X26808557Y13906312D01*
X26809042Y13908872D01*
X26809458Y13911463D01*
X26809809Y13914075D01*
X26810099Y13916715D01*
X26810326Y13919377D01*
X26810482Y13922069D01*
X26810580Y13924776D01*
X26810610Y13927510D01*
X26810610Y14274327D01*
X26746522Y14274327D01*
X26746522Y13933798D01*
X26746477Y13930863D01*
X26746344Y13928023D01*
X26746126Y13925290D01*
X26745813Y13922644D01*
X26745417Y13920100D01*
X26744929Y13917659D01*
X26744351Y13915307D01*
X26743695Y13913064D01*
X26742943Y13910915D01*
X26742095Y13908859D01*
X26741176Y13906906D01*
X26740155Y13905051D01*
X26739048Y13903292D01*
X26737854Y13901632D01*
X26736567Y13900069D01*
X26735205Y13898606D01*
X26733768Y13897237D01*
X26732290Y13895953D01*
X26730758Y13894770D01*
X26729194Y13893665D01*
X26727587Y13892649D01*
X26725923Y13891716D01*
X26724220Y13890876D01*
X26722479Y13890120D01*
X26720682Y13889458D01*
X26718853Y13888880D01*
X26716970Y13888402D01*
X26715050Y13887997D01*
X26713087Y13887689D01*
X26711078Y13887466D01*
X26709019Y13887329D01*
X26706918Y13887286D01*
X26704821Y13887329D01*
X26702765Y13887466D01*
X26700764Y13887689D01*
X26698795Y13887997D01*
X26696873Y13888402D01*
X26695000Y13888880D01*
X26693163Y13889458D01*
X26691379Y13890120D01*
X26689643Y13890876D01*
X26687941Y13891717D01*
X26686285Y13892649D01*
X26684671Y13893665D01*
X26683107Y13894770D01*
X26681580Y13895953D01*
X26680100Y13897237D01*
X26678665Y13898606D01*
X26677284Y13900069D01*
X26676012Y13901632D01*
X26674824Y13903292D01*
X26673714Y13905051D01*
X26672701Y13906906D01*
X26671769Y13908859D01*
X26670929Y13910915D01*
X26670182Y13913064D01*
X26669522Y13915307D01*
X26668943Y13917659D01*
X26668452Y13920100D01*
X26668052Y13922644D01*
X26667740Y13925290D01*
X26667522Y13928023D01*
X26667391Y13930862D01*
X26667347Y13933791D01*
X26667347Y14274324D01*
X26603260Y14274324D01*
X26541074Y14274324D01*
X26476983Y14274324D01*
X26476983Y14168758D01*
X26476983Y13826980D01*
X26339816Y13826980D01*
X26340331Y13827114D01*
X26345207Y13828512D01*
X26350069Y13830144D01*
X26352415Y13831029D01*
X26354722Y13831966D01*
X26357011Y13832969D01*
X26359265Y13834020D01*
X26361485Y13835128D01*
X26363681Y13836282D01*
X26365839Y13837503D01*
X26367979Y13838762D01*
X26370086Y13840079D01*
X26372166Y13841460D01*
X26374210Y13842889D01*
X26376230Y13844366D01*
X26378213Y13845905D01*
X26380174Y13847501D01*
X26382106Y13849143D01*
X26384007Y13850846D01*
X26385944Y13852524D01*
X26387834Y13854250D01*
X26389671Y13856038D01*
X26391460Y13857868D01*
X26393208Y13859769D01*
X26394890Y13861714D01*
X26396540Y13863714D01*
X26398132Y13865774D01*
X26399686Y13867882D01*
X26401175Y13870048D01*
X26402621Y13872261D01*
X26404024Y13874540D01*
X26405371Y13876859D01*
X26406675Y13879242D01*
X26407924Y13881674D01*
X26409128Y13884162D01*
X26410276Y13886704D01*
X26411347Y13889312D01*
X26412332Y13891993D01*
X26413248Y13894724D01*
X26414094Y13897526D01*
X26414871Y13900384D01*
X26415572Y13903315D01*
X26416197Y13906312D01*
X26416740Y13909362D01*
X26417222Y13912481D01*
X26417628Y13915676D01*
X26417958Y13918907D01*
X26418211Y13922219D01*
X26418402Y13925599D01*
X26418512Y13929033D01*
X26418548Y13932541D01*
X26418548Y14168758D01*
X26418513Y14172120D01*
X26418407Y14175409D01*
X26418211Y14178671D01*
X26417958Y14181876D01*
X26417628Y14185036D01*
X26417222Y14188140D01*
X26416740Y14191208D01*
X26416197Y14194215D01*
X26415572Y14197170D01*
X26414871Y14200083D01*
X26414094Y14202945D01*
X26413248Y14205769D01*
X26412332Y14208528D01*
X26411347Y14211237D01*
X26410276Y14213908D01*
X26409128Y14216521D01*
X26407924Y14219087D01*
X26406675Y14221604D01*
X26405371Y14224058D01*
X26404024Y14226458D01*
X26402621Y14228803D01*
X26401175Y14231106D01*
X26399686Y14233337D01*
X26398132Y14235526D01*
X26396540Y14237659D01*
X26394890Y14239734D01*
X26393208Y14241762D01*
X26391460Y14243725D01*
X26389671Y14245642D01*
X26387834Y14247513D01*
X26385944Y14249310D01*
X26384007Y14251068D01*
X26382106Y14252698D01*
X26380174Y14254267D01*
X26378213Y14255802D01*
X26376230Y14257270D01*
X26374210Y14258704D01*
X26372166Y14260079D01*
X26370086Y14261405D01*
X26367979Y14262691D01*
X26365839Y14263913D01*
X26363681Y14265097D01*
X26361485Y14266229D01*
X26359265Y14267317D01*
X26357011Y14268349D01*
X26354722Y14269329D01*
X26352415Y14270279D01*
X26350069Y14271161D01*
X26345207Y14272778D01*
X26340328Y14274187D01*
X26337898Y14274814D01*
X26335462Y14275374D01*
X26333030Y14275893D01*
X26330585Y14276364D01*
X26328162Y14276766D01*
X26325727Y14277118D01*
X26323285Y14277415D01*
X26320856Y14277664D01*
X26318419Y14277850D01*
X26315987Y14277984D01*
X26313550Y14278070D01*
X26311119Y14278103D01*
X26308679Y14278070D01*
X26306250Y14277984D01*
X26303838Y14277850D01*
X26301413Y14277664D01*
X26299000Y14277415D01*
X26296593Y14277118D01*
X26294197Y14276766D01*
X26291799Y14276364D01*
X26289401Y14275893D01*
X26287020Y14275374D01*
X26284636Y14274814D01*
X26282263Y14274187D01*
X26279887Y14273518D01*
X26277517Y14272783D01*
X26275160Y14271997D01*
X26272791Y14271161D01*
X26270368Y14270279D01*
X26267987Y14269329D01*
X26265627Y14268349D01*
X26263292Y14267317D01*
X26260986Y14266229D01*
X26258715Y14265097D01*
X26256471Y14263913D01*
X26254260Y14262694D01*
X26252081Y14261405D01*
X26249916Y14260079D01*
X26247792Y14258704D01*
X26245692Y14257270D01*
X26243637Y14255802D01*
X26241595Y14254267D01*
X26239588Y14252698D01*
X26237610Y14251068D01*
X26235747Y14249310D01*
X26233927Y14247513D01*
X26232147Y14245642D01*
X26230423Y14243725D01*
X26228736Y14241762D01*
X26227088Y14239734D01*
X26225489Y14237659D01*
X26223939Y14235526D01*
X26222425Y14233337D01*
X26220962Y14231106D01*
X26219542Y14228804D01*
X26218165Y14226460D01*
X26216826Y14224058D01*
X26215542Y14221604D01*
X26214293Y14219087D01*
X26213096Y14216521D01*
X26211956Y14213908D01*
X26210882Y14211237D01*
X26209892Y14208528D01*
X26208976Y14205769D01*
X26208132Y14202945D01*
X26207363Y14200083D01*
X26206649Y14197170D01*
X26206030Y14194215D01*
X26205474Y14191208D01*
X26205004Y14188140D01*
X26204597Y14185036D01*
X26204264Y14181876D01*
X26204008Y14178671D01*
X26203822Y14175407D01*
X26203713Y14172120D01*
X26203678Y14168758D01*
X26203677Y14146147D01*
X26145233Y14146147D01*
X26145233Y14274327D01*
X26081153Y14274327D01*
X26081153Y13928767D01*
X26081153Y13826980D01*
X25832329Y13826980D01*
X25832673Y13827055D01*
X25837385Y13828236D01*
X25839724Y13828891D01*
X25842034Y13829608D01*
X25844318Y13830391D01*
X25846578Y13831224D01*
X25848792Y13832118D01*
X25850988Y13833071D01*
X25853149Y13834089D01*
X25855289Y13835159D01*
X25857399Y13836283D01*
X25859481Y13837480D01*
X25861526Y13838732D01*
X25863539Y13840032D01*
X25865524Y13841392D01*
X25867480Y13842817D01*
X25869425Y13844301D01*
X25871321Y13845838D01*
X25873179Y13847441D01*
X25875013Y13849089D01*
X25876793Y13850803D01*
X25878536Y13852555D01*
X25880248Y13854366D01*
X25881918Y13856232D01*
X25883533Y13858156D01*
X25885132Y13860130D01*
X25886686Y13862160D01*
X25888199Y13864244D01*
X25889666Y13866370D01*
X25891099Y13868570D01*
X25892496Y13870809D01*
X25893847Y13873112D01*
X25895165Y13875463D01*
X25896441Y13877876D01*
X25897583Y13880422D01*
X25898642Y13883064D01*
X25899639Y13885785D01*
X25900558Y13888586D01*
X25901406Y13891485D01*
X25902180Y13894458D01*
X25902869Y13897506D01*
X25903504Y13900647D01*
X25904054Y13903867D01*
X25904533Y13907182D01*
X25904934Y13910572D01*
X25905269Y13914040D01*
X25905529Y13917593D01*
X25905707Y13921230D01*
X25905820Y13924957D01*
X25905856Y13928767D01*
X25905856Y14175056D01*
X25905827Y14177785D01*
X25905741Y14180500D01*
X25905596Y14183184D01*
X25905386Y14185846D01*
X25905122Y14188486D01*
X25904809Y14191101D01*
X25904425Y14193690D01*
X25903982Y14196256D01*
X25903488Y14198794D01*
X25902931Y14201303D01*
X25902314Y14203802D01*
X25901634Y14206266D01*
X25900901Y14208700D01*
X25900104Y14211125D01*
X25899252Y14213515D01*
X25898340Y14215883D01*
X25897371Y14218221D01*
X25896354Y14220523D01*
X25895294Y14222773D01*
X25894175Y14224993D01*
X25893011Y14227179D01*
X25891796Y14229312D01*
X25890532Y14231413D01*
X25889224Y14233476D01*
X25887858Y14235501D01*
X25886445Y14237484D01*
X25884991Y14239425D01*
X25883485Y14241339D01*
X25881926Y14243200D01*
X25880311Y14245018D01*
X25878659Y14246800D01*
X25876953Y14248556D01*
X25875211Y14250258D01*
X25873429Y14251910D01*
X25871593Y14253518D01*
X25869732Y14255066D01*
X25867829Y14256573D01*
X25865888Y14258040D01*
X25863895Y14259444D01*
X25861876Y14260803D01*
X25859818Y14262106D01*
X25857718Y14263371D01*
X25855579Y14264582D01*
X25853400Y14265740D01*
X25851184Y14266864D01*
X25848922Y14267924D01*
X25846618Y14268942D01*
X25844293Y14269904D01*
X25841838Y14270889D01*
X25839359Y14271824D01*
X25836853Y14272682D01*
X25834317Y14273484D01*
X25831757Y14274211D01*
X25829157Y14274889D01*
X25826534Y14275498D01*
X25823875Y14276039D01*
X25821199Y14276524D01*
X25818478Y14276938D01*
X25815736Y14277291D01*
X25812964Y14277577D01*
X25810158Y14277808D01*
X25807336Y14277967D01*
X25804474Y14278066D01*
X25801588Y14278103D01*
X25795991Y14277977D01*
X25790534Y14277639D01*
X25785214Y14277056D01*
X25780026Y14276251D01*
X25774959Y14275208D01*
X25770046Y14273933D01*
X25765246Y14272436D01*
X25760591Y14270710D01*
X25756063Y14268744D01*
X25751673Y14266555D01*
X25747408Y14264132D01*
X25743268Y14261478D01*
X25739277Y14258582D01*
X25735413Y14255481D01*
X25731677Y14252138D01*
X25728082Y14248556D01*
X25726373Y14246731D01*
X25724722Y14244859D01*
X25723118Y14242942D01*
X25721560Y14240981D01*
X25720047Y14238973D01*
X25718593Y14236923D01*
X25717180Y14234832D01*
X25715816Y14232691D01*
X25714505Y14230514D01*
X25713244Y14228301D01*
X25712021Y14226018D01*
X25710864Y14223710D01*
X25709751Y14221354D01*
X25708684Y14218945D01*
X25707662Y14216498D01*
X25706695Y14214014D01*
X25705704Y14211563D01*
X25704786Y14209076D01*
X25703918Y14206576D01*
X25703125Y14204038D01*
X25702392Y14201473D01*
X25701715Y14198870D01*
X25701111Y14196246D01*
X25700572Y14193586D01*
X25700090Y14190899D01*
X25699674Y14188179D01*
X25699325Y14185438D01*
X25699043Y14182663D01*
X25698825Y14179860D01*
X25698665Y14177025D01*
X25698568Y14174168D01*
X25698543Y14171275D01*
X25698543Y14168760D01*
X25698543Y14146147D01*
X25650156Y14146147D01*
X25650156Y14168760D01*
X25650121Y14172120D01*
X25650007Y14175409D01*
X25649825Y14178671D01*
X25649568Y14181876D01*
X25649234Y14185036D01*
X25648832Y14188140D01*
X25648356Y14191209D01*
X25647809Y14194215D01*
X25647177Y14197170D01*
X25646478Y14200083D01*
X25645706Y14202945D01*
X25644858Y14205769D01*
X25643936Y14208528D01*
X25642947Y14211237D01*
X25641875Y14213908D01*
X25640742Y14216521D01*
X25639538Y14219087D01*
X25638290Y14221604D01*
X25636987Y14224058D01*
X25635629Y14226458D01*
X25634241Y14228803D01*
X25632783Y14231106D01*
X25631286Y14233337D01*
X25629743Y14235526D01*
X25628155Y14237659D01*
X25626501Y14239733D01*
X25624811Y14241762D01*
X25623071Y14243724D01*
X25621276Y14245641D01*
X25619439Y14247513D01*
X25617553Y14249310D01*
X25615610Y14251068D01*
X25613714Y14252698D01*
X25611776Y14254267D01*
X25609823Y14255802D01*
X25607838Y14257270D01*
X25605819Y14258704D01*
X25603774Y14260079D01*
X25601696Y14261405D01*
X25599589Y14262692D01*
X25597451Y14263913D01*
X25595285Y14265097D01*
X25593093Y14266229D01*
X25590873Y14267317D01*
X25588622Y14268349D01*
X25586336Y14269329D01*
X25584026Y14270279D01*
X25581677Y14271161D01*
X25576816Y14272783D01*
X25571938Y14274187D01*
X25569507Y14274814D01*
X25567072Y14275374D01*
X25564639Y14275893D01*
X25562204Y14276364D01*
X25559769Y14276766D01*
X25557326Y14277118D01*
X25554900Y14277415D01*
X25552461Y14277664D01*
X25550026Y14277850D01*
X25547596Y14277984D01*
X25545157Y14278070D01*
X25542720Y14278103D01*
X25540290Y14278070D01*
X25537863Y14277984D01*
X25535438Y14277850D01*
X25533028Y14277664D01*
X25530614Y14277415D01*
X25528206Y14277118D01*
X25525797Y14276766D01*
X25523410Y14276364D01*
X25521014Y14275893D01*
X25518625Y14275374D01*
X25516245Y14274814D01*
X25513864Y14274187D01*
X25511490Y14273517D01*
X25509132Y14272778D01*
X25506756Y14271997D01*
X25504405Y14271161D01*
X25501982Y14270279D01*
X25499588Y14269329D01*
X25497235Y14268349D01*
X25494899Y14267317D01*
X25492595Y14266229D01*
X25490327Y14265097D01*
X25488081Y14263913D01*
X25485868Y14262692D01*
X25483684Y14261405D01*
X25481531Y14260079D01*
X25479402Y14258704D01*
X25477300Y14257270D01*
X25475237Y14255802D01*
X25473209Y14254267D01*
X25471200Y14252698D01*
X25469212Y14251068D01*
X25467353Y14249310D01*
X25465544Y14247513D01*
X25463764Y14245642D01*
X25462030Y14243725D01*
X25460339Y14241762D01*
X25458698Y14239734D01*
X25457097Y14237659D01*
X25455546Y14235526D01*
X25454032Y14233337D01*
X25452569Y14231106D01*
X25451158Y14228803D01*
X25449773Y14226458D01*
X25448445Y14224058D01*
X25447146Y14221604D01*
X25445902Y14219087D01*
X25444711Y14216521D01*
X25443562Y14213908D01*
X25442491Y14211237D01*
X25441503Y14208528D01*
X25440584Y14205769D01*
X25439741Y14202945D01*
X25438965Y14200083D01*
X25438272Y14197170D01*
X25437647Y14194215D01*
X25437085Y14191208D01*
X25436606Y14188140D01*
X25436200Y14185036D01*
X25435883Y14181876D01*
X25435620Y14178671D01*
X25435438Y14175409D01*
X25435329Y14172120D01*
X25435284Y14168760D01*
X25378741Y14168760D01*
X25378741Y14274324D01*
X25314660Y14274324D01*
X25314660Y13891066D01*
X25187743Y13891066D01*
X25160856Y13891066D01*
X25075280Y14274324D01*
X25021874Y14274324D01*
X24921983Y13826980D01*
X24893083Y13826980D01*
X24893083Y14274324D01*
X24831516Y14274324D01*
X24734758Y14004794D01*
X24733501Y14004794D01*
X24733501Y14274327D01*
X24669407Y14274324D01*
X24669407Y13932537D01*
X24669407Y13826980D01*
X24536633Y13826980D01*
X24537149Y13827114D01*
X24542018Y13828512D01*
X24546876Y13830144D01*
X24549221Y13831023D01*
X24551535Y13831965D01*
X24553817Y13832969D01*
X24556068Y13834020D01*
X24558300Y13835128D01*
X24560484Y13836282D01*
X24562648Y13837503D01*
X24564791Y13838762D01*
X24566895Y13840079D01*
X24568973Y13841460D01*
X24571022Y13842889D01*
X24573032Y13844366D01*
X24575027Y13845905D01*
X24576979Y13847501D01*
X24578913Y13849143D01*
X24580811Y13850846D01*
X24582746Y13852525D01*
X24584638Y13854251D01*
X24586480Y13856038D01*
X24588270Y13857868D01*
X24590015Y13859769D01*
X24591714Y13861714D01*
X24593349Y13863714D01*
X24594950Y13865774D01*
X24596489Y13867882D01*
X24597991Y13870048D01*
X24599432Y13872261D01*
X24600827Y13874540D01*
X24602182Y13876859D01*
X24603479Y13879246D01*
X24604730Y13881674D01*
X24605946Y13884162D01*
X24607080Y13886704D01*
X24608148Y13889312D01*
X24609139Y13891993D01*
X24610063Y13894724D01*
X24610910Y13897526D01*
X24611687Y13900384D01*
X24612389Y13903315D01*
X24613017Y13906312D01*
X24613576Y13909362D01*
X24614059Y13912481D01*
X24614465Y13915676D01*
X24614789Y13918907D01*
X24615055Y13922219D01*
X24615238Y13925599D01*
X24615347Y13929033D01*
X24615383Y13932537D01*
X24615383Y14168760D01*
X24615347Y14172120D01*
X24615238Y14175409D01*
X24615051Y14178671D01*
X24614789Y14181876D01*
X24614465Y14185036D01*
X24614059Y14188140D01*
X24613576Y14191208D01*
X24613017Y14194215D01*
X24612389Y14197170D01*
X24611687Y14200083D01*
X24610910Y14202945D01*
X24610063Y14205769D01*
X24609139Y14208528D01*
X24608148Y14211237D01*
X24607080Y14213908D01*
X24605946Y14216521D01*
X24604730Y14219087D01*
X24603479Y14221604D01*
X24602182Y14224058D01*
X24600827Y14226460D01*
X24599432Y14228804D01*
X24597991Y14231106D01*
X24596489Y14233337D01*
X24594950Y14235526D01*
X24593349Y14237659D01*
X24591714Y14239734D01*
X24590015Y14241762D01*
X24588267Y14243725D01*
X24586480Y14245642D01*
X24584637Y14247513D01*
X24582746Y14249310D01*
X24580811Y14251071D01*
X24578913Y14252698D01*
X24576979Y14254267D01*
X24575027Y14255803D01*
X24573032Y14257276D01*
X24571022Y14258704D01*
X24568973Y14260079D01*
X24566893Y14261405D01*
X24564791Y14262694D01*
X24562648Y14263913D01*
X24560484Y14265097D01*
X24558300Y14266229D01*
X24556068Y14267317D01*
X24553817Y14268349D01*
X24551533Y14269329D01*
X24549221Y14270279D01*
X24546876Y14271161D01*
X24542018Y14272783D01*
X24537149Y14274187D01*
X24534711Y14274814D01*
X24532277Y14275374D01*
X24529849Y14275893D01*
X24527415Y14276364D01*
X24524983Y14276766D01*
X24522550Y14277118D01*
X24520119Y14277415D01*
X24517691Y14277664D01*
X24515261Y14277850D01*
X24512819Y14277984D01*
X24510388Y14278072D01*
X24507961Y14278103D01*
X24505521Y14278072D01*
X24503089Y14277984D01*
X24500665Y14277850D01*
X24498251Y14277664D01*
X24495830Y14277415D01*
X24493421Y14277118D01*
X24491018Y14276766D01*
X24488627Y14276364D01*
X24486219Y14275893D01*
X24483825Y14275374D01*
X24481451Y14274814D01*
X24479075Y14274187D01*
X24476697Y14273517D01*
X24474329Y14272778D01*
X24471969Y14271997D01*
X24469605Y14271161D01*
X24467185Y14270279D01*
X24464796Y14269329D01*
X24462433Y14268349D01*
X24460102Y14267317D01*
X24457800Y14266229D01*
X24455528Y14265097D01*
X24453278Y14263913D01*
X24451072Y14262694D01*
X24448890Y14261405D01*
X24446733Y14260079D01*
X24444604Y14258704D01*
X24442507Y14257270D01*
X24440440Y14255802D01*
X24438395Y14254267D01*
X24436397Y14252698D01*
X24434417Y14251068D01*
X24432558Y14249310D01*
X24430732Y14247513D01*
X24428960Y14245641D01*
X24427238Y14243724D01*
X24425549Y14241762D01*
X24423907Y14239733D01*
X24422317Y14237659D01*
X24420760Y14235526D01*
X24419254Y14233337D01*
X24417794Y14231106D01*
X24416374Y14228803D01*
X24415009Y14226458D01*
X24413672Y14224058D01*
X24412377Y14221604D01*
X24411135Y14219087D01*
X24409933Y14216521D01*
X24408795Y14213908D01*
X24407730Y14211237D01*
X24406725Y14208528D01*
X24405814Y14205769D01*
X24404965Y14202945D01*
X24404182Y14200083D01*
X24403485Y14197170D01*
X24402858Y14194215D01*
X24402300Y14191209D01*
X24401821Y14188140D01*
X24401413Y14185036D01*
X24401079Y14181876D01*
X24400826Y14178671D01*
X24400638Y14175409D01*
X24400526Y14172120D01*
X24400492Y14168760D01*
X24343945Y14168760D01*
X24343945Y14274327D01*
X24152950Y14274324D01*
X24152950Y14214014D01*
X24279855Y14214014D01*
X24279860Y14082684D01*
X24169296Y14082684D01*
X24169296Y14022366D01*
X24279860Y14022366D01*
X24279855Y13891066D01*
X24152950Y13891066D01*
X24152950Y13826984D01*
X24152950Y13826980D01*
X23920502Y13826980D01*
X24111502Y13826984D01*
X24111502Y14274324D01*
X24047416Y14274324D01*
X24047416Y13891066D01*
X23920502Y13891066D01*
X23877155Y13891066D01*
X23877152Y14274324D01*
X23813068Y14274324D01*
X23813068Y13826980D01*
X23433413Y13826980D01*
X25184250Y16844769D01*
X25194444Y16859263D01*
X25201739Y16868422D01*
X25205728Y16871613D01*
X25206440Y16871313D01*
X25207473Y16870446D01*
X25210484Y16867010D01*
X25214678Y16861420D01*
X25219993Y16853805D01*
X25616404Y16166472D01*
X25620754Y16157308D01*
X25621881Y16154490D01*
X25622272Y16152951D01*
X25621880Y16151420D01*
X25620734Y16148608D01*
X25616334Y16139459D01*
X24643209Y14458146D01*
X24638590Y14449250D01*
X24636150Y14444036D01*
X24636339Y14442768D01*
X24638048Y14441565D01*
X24641494Y14440422D01*
X24646937Y14439346D01*
X24664633Y14437348D01*
X24948766Y14429981D01*
X25187536Y14427873D01*
X27996444Y14414786D01*
X28315544Y14410046D01*
X28415876Y14410969D01*
X28082554Y13826980D01*
X28000088Y13684378D01*
G37*
D11*
%TO.C,USB1*%
X2437505Y18770004D03*
D12*
X-1562495Y18770004D03*
X-1562495Y27410004D03*
D11*
X2437505Y27410004D03*
%TD*%
D13*
%TO.C,U21*%
X1075005Y6245004D03*
X1075005Y7245004D03*
X1075005Y8245004D03*
D14*
X-2324995Y5145004D03*
X-2324995Y9345004D03*
%TD*%
D15*
%TO.C,R12*%
X10770002Y27735003D03*
X10770002Y28755001D03*
%TD*%
D16*
%TO.C,C11*%
X12100005Y9389387D03*
X13060005Y9389387D03*
%TD*%
D17*
%TO.C,C7*%
X14445005Y8504387D03*
X14445005Y7544387D03*
%TD*%
%TO.C,C3*%
X12790005Y4134387D03*
X12790005Y3174387D03*
%TD*%
D15*
%TO.C,R46*%
X8880005Y30449388D03*
X8880005Y31469386D03*
%TD*%
D18*
%TO.C,R37*%
X9050005Y18484386D03*
X9050005Y17464388D03*
%TD*%
%TO.C,R41*%
X8110005Y18484386D03*
X8110005Y17464388D03*
%TD*%
D19*
%TO.C,C25*%
X8720002Y21155000D03*
X8720002Y23054998D03*
%TD*%
D16*
%TO.C,C8*%
X12150005Y10749387D03*
X13110005Y10749387D03*
%TD*%
D20*
%TO.C,C39*%
X28645005Y9699387D03*
X27685005Y9699387D03*
%TD*%
D18*
%TO.C,R38*%
X13600000Y18509999D03*
X13600000Y17490001D03*
%TD*%
D19*
%TO.C,C24*%
X22786273Y20503825D03*
X22786273Y22403823D03*
%TD*%
D21*
%TO.C,C14*%
X16170003Y28065000D03*
X16170003Y26165002D03*
%TD*%
D17*
%TO.C,C15*%
X26050000Y27435002D03*
X26050000Y26475002D03*
%TD*%
D22*
%TO.C,U1*%
X-224995Y23012500D03*
D23*
X-299995Y23550000D03*
D22*
X-224995Y24087500D03*
X1475005Y24087500D03*
D23*
X1550005Y23550000D03*
D22*
X1475005Y23012500D03*
%TD*%
D19*
%TO.C,C27*%
X10695002Y21155003D03*
X10695002Y23055001D03*
%TD*%
D17*
%TO.C,C40*%
X25052750Y8075000D03*
X25052750Y7115000D03*
%TD*%
D24*
%TO.C,C18*%
X23061273Y24243825D03*
X21511273Y24243825D03*
%TD*%
D25*
%TO.C,R8*%
X13305000Y29305000D03*
X12285002Y29305000D03*
%TD*%
D26*
%TO.C,FB1*%
X14840005Y4249387D03*
X13870005Y4249387D03*
%TD*%
D15*
%TO.C,R32*%
X5830005Y5409388D03*
X5830005Y6429386D03*
%TD*%
D17*
%TO.C,C16*%
X14695001Y28135001D03*
X14695001Y27175001D03*
%TD*%
D15*
%TO.C,R49*%
X4880005Y30449388D03*
X4880005Y31469386D03*
%TD*%
D27*
%TO.C,U4*%
X23030000Y27420000D03*
D28*
X23700000Y27490000D03*
X24200000Y27490000D03*
D29*
X24850000Y27410000D03*
D30*
X24850000Y25630000D03*
D28*
X24200000Y25550000D03*
X23700000Y25550000D03*
D31*
X23030000Y25630000D03*
D32*
X23400000Y26520000D03*
%TD*%
D20*
%TO.C,C2*%
X14880005Y6119387D03*
X13920005Y6119387D03*
%TD*%
D15*
%TO.C,R47*%
X7580005Y30449388D03*
X7580005Y31469386D03*
%TD*%
D16*
%TO.C,C9*%
X12460005Y7159387D03*
X13420005Y7159387D03*
%TD*%
D19*
%TO.C,C22*%
X20806273Y20503826D03*
X20806273Y22403824D03*
%TD*%
D25*
%TO.C,R1*%
X715004Y25124387D03*
X-304994Y25124387D03*
%TD*%
D20*
%TO.C,C12*%
X10710005Y7574387D03*
X9750005Y7574387D03*
%TD*%
D33*
%TO.C,L1*%
X26175003Y22840003D03*
X26175003Y20470001D03*
%TD*%
D16*
%TO.C,C20*%
X24219998Y24530002D03*
X25179998Y24530002D03*
%TD*%
D18*
%TO.C,R39*%
X14650000Y18509999D03*
X14650000Y17490001D03*
%TD*%
%TO.C,R40*%
X7170005Y18484386D03*
X7170005Y17464388D03*
%TD*%
D33*
%TO.C,L2*%
X14070000Y23430000D03*
X14070000Y21059998D03*
%TD*%
D13*
%TO.C,U3*%
X1080569Y12010004D03*
X1080569Y13010004D03*
X1080569Y14010004D03*
X1080569Y15010004D03*
D34*
X-2319431Y16110004D03*
X-2319431Y10910004D03*
%TD*%
D16*
%TO.C,C21*%
X12510000Y25105002D03*
X13470000Y25105002D03*
%TD*%
D35*
%TO.C,U5*%
X13380000Y28115002D03*
D36*
X12590000Y27115002D03*
D37*
X13390000Y26115002D03*
D38*
X12659999Y26095002D03*
D39*
X11810000Y26035002D03*
D40*
X11810000Y26595002D03*
D41*
X11810000Y27645002D03*
D42*
X11810000Y28195002D03*
D43*
X12659999Y28135002D03*
%TD*%
D25*
%TO.C,R16*%
X8880002Y26530000D03*
X7860004Y26530000D03*
%TD*%
D15*
%TO.C,R43*%
X20275000Y28815001D03*
X20275000Y29834999D03*
%TD*%
D25*
%TO.C,R7*%
X3480003Y11414387D03*
X2460005Y11414387D03*
%TD*%
D44*
%TO.C,U8*%
X25524340Y1102473D03*
X24524340Y1102473D03*
X23524340Y1102473D03*
X22524340Y1102473D03*
D45*
X21424340Y-2297527D03*
X26624340Y-2297527D03*
%TD*%
D25*
%TO.C,R34*%
X4480004Y4514387D03*
X3460006Y4514387D03*
%TD*%
D18*
%TO.C,R2*%
X2205005Y21184386D03*
X2205005Y20164388D03*
%TD*%
%TO.C,R35*%
X3500005Y3574386D03*
X3500005Y2554388D03*
%TD*%
D46*
%TO.C,U12*%
X25990000Y6730000D03*
X25990000Y7390000D03*
X25990000Y8040000D03*
X25990000Y8690000D03*
X28850000Y8690000D03*
X28850000Y8040000D03*
X28850000Y7390000D03*
X28850000Y6730000D03*
D47*
X27420000Y7710000D03*
%TD*%
D18*
%TO.C,R9*%
X10770002Y26055000D03*
X10770002Y25035002D03*
%TD*%
D21*
%TO.C,C13*%
X27500003Y27430000D03*
X27500003Y25530002D03*
%TD*%
D15*
%TO.C,R48*%
X6230005Y30449388D03*
X6230005Y31469386D03*
%TD*%
D44*
%TO.C,U24*%
X18880005Y1090004D03*
X17880005Y1090004D03*
X16880005Y1090004D03*
X15880005Y1090004D03*
D45*
X14780005Y-2309996D03*
X19980005Y-2309996D03*
%TD*%
D48*
%TO.C,C6*%
X10764416Y5703798D03*
X10085594Y5024976D03*
%TD*%
D49*
%TO.C,C5*%
X12790005Y5004387D03*
X12790005Y5964387D03*
%TD*%
D16*
%TO.C,C10*%
X12480005Y8219387D03*
X13440005Y8219387D03*
%TD*%
D15*
%TO.C,R45*%
X18275000Y28815001D03*
X18275000Y29834999D03*
%TD*%
D20*
%TO.C,C4*%
X14860005Y5184387D03*
X13900005Y5184387D03*
%TD*%
D50*
%TO.C,D6*%
X30350000Y6900000D03*
X30350000Y8800000D03*
X32350000Y7850000D03*
%TD*%
D18*
%TO.C,R15*%
X9805002Y26580000D03*
X9805002Y25560002D03*
%TD*%
D15*
%TO.C,R44*%
X19275000Y28815001D03*
X19275000Y29834999D03*
%TD*%
%TO.C,R42*%
X21275000Y28815001D03*
X21275000Y29834999D03*
%TD*%
D18*
%TO.C,R36*%
X11855005Y18519386D03*
X11855005Y17499388D03*
%TD*%
D49*
%TO.C,C53*%
X9985005Y17514387D03*
X9985005Y18474387D03*
%TD*%
%TO.C,C28*%
X7270003Y21375001D03*
X7270003Y22335001D03*
%TD*%
D44*
%TO.C,U19*%
X9860005Y1090004D03*
X8860005Y1090004D03*
X7860005Y1090004D03*
X6860005Y1090004D03*
X5860005Y1090004D03*
X4860005Y1090004D03*
D51*
X3760005Y-2309996D03*
X10960005Y-2309996D03*
%TD*%
D49*
%TO.C,C54*%
X10905005Y17514387D03*
X10905005Y18474387D03*
%TD*%
M02*
