%TF.GenerationSoftware,KiCad,Pcbnew,10.0.3*%
%TF.CreationDate,2026-06-28T18:18:48+02:00*%
%TF.ProjectId,LEVIA_H7,4c455649-415f-4483-972e-6b696361645f,0.1*%
%TF.SameCoordinates,Original*%
%TF.FileFunction,Soldermask,Top*%
%TF.FilePolarity,Negative*%
%FSLAX46Y46*%
G04 Gerber Fmt 4.6, Leading zero omitted, Abs format (unit mm)*
G04 Created by KiCad (PCBNEW 10.0.3) date 2026-06-28 18:18:48*
%MOMM*%
%LPD*%
G01*
G04 APERTURE LIST*
G04 Aperture macros list*
%AMRoundRect*
0 Rectangle with rounded corners*
0 $1 Rounding radius*
0 $2 $3 $4 $5 $6 $7 $8 $9 X,Y pos of 4 corners*
0 Add a 4 corners polygon primitive as box body*
4,1,4,$2,$3,$4,$5,$6,$7,$8,$9,$2,$3,0*
0 Add four circle primitives for the rounded corners*
1,1,$1+$1,$2,$3*
1,1,$1+$1,$4,$5*
1,1,$1+$1,$6,$7*
1,1,$1+$1,$8,$9*
0 Add four rect primitives between the rounded corners*
20,1,$1+$1,$2,$3,$4,$5,0*
20,1,$1+$1,$4,$5,$6,$7,0*
20,1,$1+$1,$6,$7,$8,$9,0*
20,1,$1+$1,$8,$9,$2,$3,0*%
G04 Aperture macros list end*
%ADD10C,0.300000*%
%ADD11RoundRect,0.135000X0.135000X0.185000X-0.135000X0.185000X-0.135000X-0.185000X0.135000X-0.185000X0*%
%ADD12RoundRect,0.125000X0.675000X-0.125000X0.675000X0.125000X-0.675000X0.125000X-0.675000X-0.125000X0*%
%ADD13RoundRect,0.250000X0.950000X-0.325000X0.950000X0.325000X-0.950000X0.325000X-0.950000X-0.325000X0*%
%ADD14RoundRect,0.100000X0.175000X0.100000X-0.175000X0.100000X-0.175000X-0.100000X0.175000X-0.100000X0*%
%ADD15RoundRect,0.125000X0.225000X0.125000X-0.225000X0.125000X-0.225000X-0.125000X0.225000X-0.125000X0*%
%ADD16RoundRect,0.140000X-0.170000X0.140000X-0.170000X-0.140000X0.170000X-0.140000X0.170000X0.140000X0*%
%ADD17RoundRect,0.125000X-0.675000X0.125000X-0.675000X-0.125000X0.675000X-0.125000X0.675000X0.125000X0*%
%ADD18RoundRect,0.250000X-0.950000X0.325000X-0.950000X-0.325000X0.950000X-0.325000X0.950000X0.325000X0*%
%ADD19RoundRect,0.140000X-0.140000X-0.170000X0.140000X-0.170000X0.140000X0.170000X-0.140000X0.170000X0*%
%ADD20RoundRect,0.135000X-0.185000X0.135000X-0.185000X-0.135000X0.185000X-0.135000X0.185000X0.135000X0*%
%ADD21RoundRect,0.140000X0.140000X0.170000X-0.140000X0.170000X-0.140000X-0.170000X0.140000X-0.170000X0*%
%ADD22RoundRect,0.225000X0.225000X0.375000X-0.225000X0.375000X-0.225000X-0.375000X0.225000X-0.375000X0*%
%ADD23R,0.600000X1.400000*%
%ADD24RoundRect,0.135000X0.185000X-0.135000X0.185000X0.135000X-0.185000X0.135000X-0.185000X-0.135000X0*%
%ADD25RoundRect,0.225000X-0.225000X-0.250000X0.225000X-0.250000X0.225000X0.250000X-0.225000X0.250000X0*%
%ADD26RoundRect,0.225000X0.225000X0.250000X-0.225000X0.250000X-0.225000X-0.250000X0.225000X-0.250000X0*%
%ADD27R,0.800000X0.364000*%
%ADD28R,1.500000X2.800000*%
%ADD29RoundRect,0.125000X0.125000X0.675000X-0.125000X0.675000X-0.125000X-0.675000X0.125000X-0.675000X0*%
%ADD30RoundRect,0.250000X0.300000X0.950000X-0.300000X0.950000X-0.300000X-0.950000X0.300000X-0.950000X0*%
%ADD31RoundRect,0.175000X-0.175000X0.425000X-0.175000X-0.425000X0.175000X-0.425000X0.175000X0.425000X0*%
%ADD32RoundRect,0.250000X0.450000X-1.625000X0.450000X1.625000X-0.450000X1.625000X-0.450000X-1.625000X0*%
%ADD33RoundRect,0.250000X0.425000X-0.425000X0.425000X0.425000X-0.425000X0.425000X-0.425000X-0.425000X0*%
%ADD34RoundRect,0.225000X-0.225000X-0.375000X0.225000X-0.375000X0.225000X0.375000X-0.225000X0.375000X0*%
%ADD35R,0.280000X0.675000*%
%ADD36R,0.675000X0.280000*%
%ADD37RoundRect,0.250000X0.475000X-0.250000X0.475000X0.250000X-0.475000X0.250000X-0.475000X-0.250000X0*%
%ADD38RoundRect,0.135000X-0.135000X-0.185000X0.135000X-0.185000X0.135000X0.185000X-0.135000X0.185000X0*%
%ADD39R,0.625000X0.280000*%
%ADD40R,1.500000X2.250000*%
%ADD41RoundRect,0.162500X0.237500X0.162500X-0.237500X0.162500X-0.237500X-0.162500X0.237500X-0.162500X0*%
%ADD42C,0.470000*%
%ADD43RoundRect,0.140000X0.170000X-0.140000X0.170000X0.140000X-0.170000X0.140000X-0.170000X-0.140000X0*%
%ADD44RoundRect,0.250000X0.950000X-0.300000X0.950000X0.300000X-0.950000X0.300000X-0.950000X-0.300000X0*%
%ADD45RoundRect,0.150000X0.150000X-0.587500X0.150000X0.587500X-0.150000X0.587500X-0.150000X-0.587500X0*%
%ADD46RoundRect,0.250000X-0.950000X0.300000X-0.950000X-0.300000X0.950000X-0.300000X0.950000X0.300000X0*%
%ADD47RoundRect,0.225000X-0.250000X0.225000X-0.250000X-0.225000X0.250000X-0.225000X0.250000X0.225000X0*%
%ADD48R,0.450000X0.250000*%
%ADD49R,0.250000X0.450000*%
%ADD50R,0.400000X0.600000*%
%ADD51RoundRect,0.225000X0.250000X-0.225000X0.250000X0.225000X-0.250000X0.225000X-0.250000X-0.225000X0*%
%ADD52RoundRect,0.250000X1.000000X0.650000X-1.000000X0.650000X-1.000000X-0.650000X1.000000X-0.650000X0*%
%ADD53O,1.800000X1.000000*%
%ADD54O,2.200000X1.000000*%
%ADD55R,1.150000X0.300000*%
%ADD56RoundRect,0.200000X-0.200000X0.250000X-0.200000X-0.250000X0.200000X-0.250000X0.200000X0.250000X0*%
G04 APERTURE END LIST*
D10*
X24017349Y21076464D02*
X23260849Y19815630D01*
X24773850Y19815630D01*
X24017349Y21076464D01*
G36*
X24773850Y19815630D02*
G01*
X23260849Y19815630D01*
X24017349Y21076464D01*
X24773850Y19815630D01*
G37*
D11*
%TO.C,R4*%
X8159999Y-1910002D03*
X7140001Y-1910002D03*
%TD*%
D12*
%TO.C,U13*%
X29400005Y5290004D03*
X29400005Y6290004D03*
X29400005Y7290004D03*
X29400005Y8290004D03*
D13*
X32800005Y9390004D03*
X32800005Y4190004D03*
%TD*%
D14*
%TO.C,D1*%
X10470000Y-1710000D03*
D15*
X10520000Y-990000D03*
D14*
X10470000Y-270000D03*
X9070000Y-1710000D03*
D15*
X9020000Y-990000D03*
D14*
X9070000Y-270000D03*
%TD*%
D16*
%TO.C,C51*%
X24655005Y5505003D03*
X24655005Y4545003D03*
%TD*%
D17*
%TO.C,U18*%
X1075000Y15815000D03*
X1075000Y14815000D03*
X1075000Y13815000D03*
X1075000Y12815000D03*
D18*
X-2325000Y11715000D03*
X-2325000Y16915000D03*
%TD*%
D12*
%TO.C,U10*%
X29400005Y19735004D03*
X29400005Y20735004D03*
X29400005Y21735004D03*
X29400005Y22735004D03*
D13*
X32800005Y23835004D03*
X32800005Y18635004D03*
%TD*%
D19*
%TO.C,C44*%
X20210005Y-1149996D03*
X21170005Y-1149996D03*
%TD*%
D20*
%TO.C,R31*%
X2810005Y15159386D03*
X2810005Y14139388D03*
%TD*%
D11*
%TO.C,R5*%
X8159999Y-970001D03*
X7140001Y-970001D03*
%TD*%
D19*
%TO.C,C38*%
X25885005Y15984387D03*
X26845005Y15984387D03*
%TD*%
D21*
%TO.C,C50*%
X22280005Y11640004D03*
X21320005Y11640004D03*
%TD*%
D19*
%TO.C,C34*%
X20710005Y19784387D03*
X21670005Y19784387D03*
%TD*%
D11*
%TO.C,R27*%
X17290004Y-625613D03*
X16270006Y-625613D03*
%TD*%
D22*
%TO.C,D4*%
X10140005Y28360004D03*
X6840005Y28360004D03*
%TD*%
D23*
%TO.C,Y1*%
X8475000Y2700000D03*
X9675000Y2700000D03*
X10875000Y2700000D03*
%TD*%
D24*
%TO.C,R19*%
X11270005Y23270005D03*
X11270005Y24290003D03*
%TD*%
D11*
%TO.C,R24*%
X28010005Y8269387D03*
X26990007Y8269387D03*
%TD*%
D25*
%TO.C,C30*%
X12493755Y23355004D03*
X14043755Y23355004D03*
%TD*%
D19*
%TO.C,C35*%
X25690005Y17439387D03*
X26650005Y17439387D03*
%TD*%
D21*
%TO.C,C48*%
X24110005Y11640004D03*
X23150005Y11640004D03*
%TD*%
D24*
%TO.C,R22*%
X27710005Y18464388D03*
X27710005Y19484386D03*
%TD*%
D26*
%TO.C,C29*%
X9942505Y26435006D03*
X8392505Y26435006D03*
%TD*%
D24*
%TO.C,R23*%
X27990005Y14194388D03*
X27990005Y15214386D03*
%TD*%
D11*
%TO.C,R3*%
X5109999Y250000D03*
X4090001Y250000D03*
%TD*%
D21*
%TO.C,C45*%
X12330000Y-669996D03*
X11370000Y-669996D03*
%TD*%
D27*
%TO.C,U9*%
X21480005Y18450004D03*
X21480005Y17800004D03*
X21480005Y17150004D03*
X21480005Y16500004D03*
X21480005Y15850004D03*
X21480005Y15200004D03*
X21480005Y14550004D03*
X21480005Y13900004D03*
X24640005Y13900004D03*
X24640005Y14550004D03*
X24640005Y15200004D03*
X24640005Y15850004D03*
X24640005Y16500004D03*
X24640005Y17150004D03*
X24640005Y17800004D03*
X24640005Y18450004D03*
D28*
X23060005Y17350004D03*
X23060005Y14350005D03*
%TD*%
D20*
%TO.C,R20*%
X11250005Y26690003D03*
X11250005Y25670005D03*
%TD*%
D29*
%TO.C,U22*%
X25260005Y29410004D03*
X24260005Y29410004D03*
X23260005Y29410004D03*
X22260005Y29410004D03*
X21260005Y29410004D03*
X20260005Y29410004D03*
X19260005Y29410004D03*
X18260005Y29410004D03*
D30*
X17160005Y32810004D03*
X26360005Y32810004D03*
%TD*%
D31*
%TO.C,J1*%
X6972505Y18150000D03*
X8072505Y18150000D03*
X9162505Y18150000D03*
X10262505Y18150000D03*
X11372505Y18150000D03*
X12472505Y18150000D03*
X13562505Y18150000D03*
X14672505Y18150000D03*
D32*
X16162505Y20650000D03*
D33*
X5272505Y19900000D03*
%TD*%
D24*
%TO.C,R30*%
X2825000Y12250000D03*
X2825000Y13269998D03*
%TD*%
D34*
%TO.C,D3*%
X11587504Y28360004D03*
X14887504Y28360004D03*
%TD*%
D20*
%TO.C,R26*%
X18850005Y10429386D03*
X18850005Y9409388D03*
%TD*%
D35*
%TO.C,U14*%
X14930006Y1170004D03*
X14430005Y1170004D03*
X13930005Y1170004D03*
X13430004Y1170004D03*
D36*
X13170005Y410004D03*
X13170005Y-89996D03*
X13170005Y-589996D03*
D35*
X13430004Y-1349996D03*
X13930005Y-1349996D03*
X14430005Y-1349996D03*
X14930006Y-1349996D03*
D36*
X15190005Y-589996D03*
X15190005Y-89996D03*
X15190005Y410004D03*
%TD*%
D37*
%TO.C,C52*%
X2960005Y9029388D03*
X2960005Y10929386D03*
%TD*%
D19*
%TO.C,C37*%
X25690005Y18369387D03*
X26650005Y18369387D03*
%TD*%
D11*
%TO.C,R11*%
X23875005Y25959387D03*
X22855007Y25959387D03*
%TD*%
%TO.C,R10*%
X25760004Y25965005D03*
X24740006Y25965005D03*
%TD*%
D38*
%TO.C,R21*%
X18790006Y11599387D03*
X19810004Y11599387D03*
%TD*%
D39*
%TO.C,U6*%
X7332505Y25170006D03*
X7332505Y24530006D03*
X7332505Y23870006D03*
X7332505Y23230006D03*
X10152505Y23230006D03*
X10152505Y23870006D03*
X10152505Y24530006D03*
X10152505Y25170006D03*
D40*
X8742505Y24200006D03*
%TD*%
D19*
%TO.C,C47*%
X23275005Y7900004D03*
X24235005Y7900004D03*
%TD*%
D39*
%TO.C,U7*%
X14990005Y24670004D03*
X14990005Y25310004D03*
X14990005Y25970004D03*
X14990005Y26610004D03*
X12170005Y26610004D03*
X12170005Y25970004D03*
X12170005Y25310004D03*
X12170005Y24670004D03*
D40*
X13580005Y25640004D03*
%TD*%
D41*
%TO.C,SW2*%
X5600000Y-2500000D03*
X2600000Y-2500000D03*
X5600000Y-700000D03*
X2600000Y-700000D03*
%TD*%
D21*
%TO.C,C17*%
X23820005Y25024387D03*
X22860005Y25024387D03*
%TD*%
D16*
%TO.C,C33*%
X25900005Y14924387D03*
X25900005Y13964387D03*
%TD*%
D42*
%TO.C,U2*%
X7680005Y4899387D03*
X7680006Y5699387D03*
X7680005Y6499387D03*
X7680005Y7299386D03*
X7680005Y8099387D03*
X7680005Y8899387D03*
X7680005Y9699388D03*
X7680005Y10499387D03*
X7680006Y11299387D03*
X7680005Y12099387D03*
X8480005Y4899388D03*
X8480005Y5699387D03*
X8480005Y6499386D03*
X8480005Y7299387D03*
X8480005Y8099387D03*
X8480005Y8899387D03*
X8480005Y9699387D03*
X8480005Y10499388D03*
X8480005Y11299387D03*
X8480005Y12099386D03*
X9280005Y4899387D03*
X9280004Y5699387D03*
X9280005Y6499387D03*
X9280005Y7299386D03*
X9280005Y8099387D03*
X9280005Y8899387D03*
X9280005Y9699388D03*
X9280005Y10499387D03*
X9280004Y11299387D03*
X9280005Y12099387D03*
X10080004Y4899387D03*
X10080005Y5699387D03*
X10080004Y6499387D03*
X10080005Y7299387D03*
X10080005Y8099387D03*
X10080005Y8899387D03*
X10080005Y9699387D03*
X10080004Y10499387D03*
X10080005Y11299387D03*
X10080004Y12099387D03*
X10880005Y4899387D03*
X10880005Y5699387D03*
X10880005Y6499387D03*
X10880005Y7299387D03*
X10880005Y8099387D03*
X10880005Y8899387D03*
X10880005Y9699387D03*
X10880005Y10499387D03*
X10880005Y11299387D03*
X10880005Y12099387D03*
X11680005Y4899387D03*
X11680005Y5699387D03*
X11680005Y6499387D03*
X11680005Y7299387D03*
X11680005Y8099387D03*
X11680005Y8899387D03*
X11680005Y9699387D03*
X11680005Y10499387D03*
X11680005Y11299387D03*
X11680005Y12099387D03*
X12480006Y4899387D03*
X12480005Y5699387D03*
X12480006Y6499387D03*
X12480005Y7299387D03*
X12480005Y8099387D03*
X12480005Y8899387D03*
X12480005Y9699387D03*
X12480006Y10499387D03*
X12480005Y11299387D03*
X12480006Y12099387D03*
X13280005Y4899387D03*
X13280006Y5699387D03*
X13280005Y6499387D03*
X13280005Y7299386D03*
X13280005Y8099387D03*
X13280005Y8899387D03*
X13280005Y9699388D03*
X13280005Y10499387D03*
X13280006Y11299387D03*
X13280005Y12099387D03*
X14080005Y4899388D03*
X14080005Y5699387D03*
X14080005Y6499386D03*
X14080005Y7299387D03*
X14080005Y8099387D03*
X14080005Y8899387D03*
X14080005Y9699387D03*
X14080005Y10499388D03*
X14080005Y11299387D03*
X14080005Y12099386D03*
X14880005Y4899387D03*
X14880004Y5699387D03*
X14880005Y6499387D03*
X14880005Y7299386D03*
X14880005Y8099387D03*
X14880005Y8899387D03*
X14880005Y9699388D03*
X14880005Y10499387D03*
X14880004Y11299387D03*
X14880005Y12099387D03*
%TD*%
D36*
%TO.C,U15*%
X19800005Y1600004D03*
X19800005Y1100004D03*
X19800005Y600004D03*
X19800005Y100004D03*
D35*
X20560005Y-159996D03*
X21060005Y-159996D03*
X21560005Y-159996D03*
D36*
X22320005Y100004D03*
X22320005Y600004D03*
X22320005Y1100004D03*
X22320005Y1600004D03*
D35*
X21560005Y1860004D03*
X21060005Y1860004D03*
X20560005Y1860004D03*
%TD*%
D43*
%TO.C,C42*%
X24180005Y119387D03*
X24180005Y1079387D03*
%TD*%
D11*
%TO.C,R28*%
X22745004Y2854387D03*
X21725006Y2854387D03*
%TD*%
D12*
%TO.C,U11*%
X29400006Y14040004D03*
X29400006Y15040004D03*
X29400006Y16040004D03*
D44*
X32800006Y12940004D03*
X32800006Y17140004D03*
%TD*%
D21*
%TO.C,C46*%
X23000005Y-1149996D03*
X22040005Y-1149996D03*
%TD*%
%TO.C,C41*%
X12330000Y-1609996D03*
X11370000Y-1609996D03*
%TD*%
D24*
%TO.C,R29*%
X20840005Y9745005D03*
X20840005Y10765003D03*
%TD*%
D43*
%TO.C,C49*%
X20505003Y6119387D03*
X20505003Y7079387D03*
%TD*%
D16*
%TO.C,C1*%
X12080005Y3055000D03*
X12080005Y2095000D03*
%TD*%
D11*
%TO.C,R6*%
X8159999Y-10000D03*
X7140001Y-10000D03*
%TD*%
D45*
%TO.C,Q1*%
X3550000Y3074999D03*
X5450000Y3074999D03*
X4500000Y4949999D03*
%TD*%
D17*
%TO.C,U20*%
X1075000Y9040000D03*
X1075000Y8040000D03*
X1075000Y7040000D03*
X1075000Y6040000D03*
X1075000Y5040000D03*
X1075000Y4040000D03*
D46*
X-2325000Y2940000D03*
X-2325000Y10140000D03*
%TD*%
D47*
%TO.C,C31*%
X6100005Y25185006D03*
X6100005Y23635006D03*
%TD*%
D19*
%TO.C,C36*%
X25685005Y19449387D03*
X26645005Y19449387D03*
%TD*%
D21*
%TO.C,C43*%
X12330000Y300000D03*
X11370000Y300000D03*
%TD*%
D48*
%TO.C,U17*%
X21270005Y6540005D03*
X21270005Y6040004D03*
X21270005Y5540004D03*
X21270005Y5040003D03*
D49*
X21780004Y4530004D03*
X22280005Y4530004D03*
X22780005Y4530004D03*
X23280006Y4530004D03*
D48*
X23790005Y5040003D03*
X23790005Y5540004D03*
X23790005Y6040004D03*
X23790005Y6540005D03*
D49*
X23280006Y7050004D03*
X22780005Y7050004D03*
X22280005Y7050004D03*
X21780004Y7050004D03*
%TD*%
D50*
%TO.C,U16*%
X23680006Y9270004D03*
X23020005Y9270004D03*
X22380005Y9270004D03*
X21720004Y9270004D03*
X21720004Y10710004D03*
X22380005Y10710004D03*
X23020005Y10710004D03*
X23680006Y10710004D03*
%TD*%
D21*
%TO.C,C26*%
X14165005Y29970000D03*
X13205005Y29970000D03*
%TD*%
D51*
%TO.C,C32*%
X16322504Y24685004D03*
X16322504Y26235004D03*
%TD*%
D20*
%TO.C,R25*%
X19800000Y10709999D03*
X19800000Y9690001D03*
%TD*%
D52*
%TO.C,D2*%
X31972506Y26499387D03*
X27972504Y26499387D03*
%TD*%
D53*
%TO.C,USB1*%
X2437505Y18770004D03*
D54*
X-1562495Y18770004D03*
X-1562495Y27410004D03*
D53*
X2437505Y27410004D03*
D55*
X2997505Y26440004D03*
X2997505Y25640004D03*
X2997505Y24340004D03*
X2997505Y23340004D03*
X2997505Y22840004D03*
X2997505Y21840004D03*
X2997505Y20540004D03*
X2997505Y19740004D03*
X2997505Y20040004D03*
X2997505Y20840004D03*
X2997505Y21340005D03*
X2997505Y22340003D03*
X2997505Y23840005D03*
X2997505Y24840003D03*
X2997505Y25340004D03*
X2997505Y26140004D03*
%TD*%
D56*
%TO.C,Y2*%
X18385345Y17778022D03*
X18385345Y16378022D03*
X19485345Y16378022D03*
X19485345Y17778022D03*
%TD*%
M02*
