%TF.GenerationSoftware,KiCad,Pcbnew,10.0.3*%
%TF.CreationDate,2026-06-28T18:18:48+02:00*%
%TF.ProjectId,LEVIA_H7,4c455649-415f-4483-972e-6b696361645f,0.1*%
%TF.SameCoordinates,Original*%
%TF.FileFunction,Copper,L2,Inr*%
%TF.FilePolarity,Positive*%
%FSLAX46Y46*%
G04 Gerber Fmt 4.6, Leading zero omitted, Abs format (unit mm)*
G04 Created by KiCad (PCBNEW 10.0.3) date 2026-06-28 18:18:48*
%MOMM*%
%LPD*%
G01*
G04 APERTURE LIST*
%TA.AperFunction,ComponentPad*%
%ADD10O,1.800000X1.000000*%
%TD*%
%TA.AperFunction,ComponentPad*%
%ADD11O,2.200000X1.000000*%
%TD*%
%TA.AperFunction,ViaPad*%
%ADD12C,0.400000*%
%TD*%
G04 APERTURE END LIST*
D10*
%TO.N,GND*%
%TO.C,USB1*%
X2437505Y18770004D03*
D11*
X-1562495Y18770004D03*
X-1562495Y27410004D03*
D10*
X2437505Y27410004D03*
%TD*%
D12*
%TO.N,+5V_SYS*%
X31780005Y21289387D03*
X28290005Y13019387D03*
X28583889Y4777826D03*
X31790005Y20779387D03*
X28760005Y13019387D03*
X3280005Y30499387D03*
X25550005Y-2360613D03*
X24730005Y8679387D03*
X28220005Y4399387D03*
X-484995Y15344387D03*
X24845005Y13209387D03*
X9855005Y79387D03*
X9855005Y-375616D03*
X25070005Y-2360613D03*
X3275005Y29564387D03*
X-485607Y15814999D03*
X3280005Y30019387D03*
X3275005Y29069387D03*
X31780004Y21759386D03*
X-484995Y14879387D03*
X24730005Y9189387D03*
%TO.N,GND*%
X5889467Y29858849D03*
X-3144995Y23299387D03*
X10625005Y16209387D03*
X305005Y34349387D03*
X4180005Y9799387D03*
X17730005Y15849387D03*
X29330005Y-3875614D03*
X17455258Y2234050D03*
X-2144995Y13234387D03*
X13280005Y31299387D03*
X27455005Y-3400613D03*
X29780005Y3549387D03*
X21115005Y1119387D03*
X21436883Y9886265D03*
X-894995Y21524387D03*
X5055005Y22399387D03*
X3705005Y15499387D03*
X25930005Y13349387D03*
X-2169995Y8349387D03*
X27680005Y30174387D03*
X-124995Y3109387D03*
X20080005Y27899387D03*
X2605005Y1024387D03*
X1105005Y21524387D03*
X33905005Y2999387D03*
X18983351Y23592317D03*
X26830005Y1799387D03*
X-1794995Y4034387D03*
X27830005Y31749387D03*
X-3154995Y15244387D03*
X-2814995Y4049387D03*
X18753351Y24017315D03*
X-194995Y21599387D03*
X6680005Y22374387D03*
X28855005Y17999387D03*
X12740005Y13389387D03*
X10932005Y13619387D03*
X6300000Y9900000D03*
X31013002Y7653119D03*
X22530005Y14809387D03*
X31930005Y14299387D03*
X19055002Y21672387D03*
X5580008Y22399387D03*
X2005005Y-3900613D03*
X18830005Y25349387D03*
X17670005Y13399387D03*
X31540005Y6599387D03*
X16980005Y16749387D03*
X9283005Y272194D03*
X22680005Y28249387D03*
X1960005Y10354387D03*
X13730005Y27099387D03*
X-3109995Y7289387D03*
X25640005Y5029387D03*
X-3144995Y25149387D03*
X14205005Y15434387D03*
X19430005Y25349387D03*
X2085005Y16714387D03*
X-529995Y16779387D03*
X9300005Y20144387D03*
X25530005Y-700613D03*
X24630005Y30449387D03*
X-3319995Y30899387D03*
X-1174995Y13694387D03*
X9480005Y14524387D03*
X34305005Y28449387D03*
X25635005Y9954030D03*
X-1119995Y-2700613D03*
X-1569995Y22749387D03*
X33655005Y7999387D03*
X-1279995Y8214387D03*
X-2669995Y31549387D03*
X4130005Y1199387D03*
X-529995Y17649387D03*
X18180005Y27849387D03*
X-1624995Y6259387D03*
X21630005Y-750613D03*
X14430005Y30899387D03*
X24165005Y12989387D03*
X31870005Y10579387D03*
X2955005Y-3450613D03*
X28880005Y16849387D03*
X4835005Y13799387D03*
X30880005Y-3300613D03*
X33660827Y15999387D03*
X5835005Y-1770613D03*
X3005005Y33899387D03*
X17230005Y28049387D03*
X-3144995Y21524387D03*
X8730005Y15199387D03*
X17480005Y30049387D03*
X28455005Y34449387D03*
X14180005Y27115002D03*
X10660005Y874387D03*
X16840005Y12999387D03*
X-3819995Y2024387D03*
X28230005Y32624387D03*
X3385005Y314387D03*
X20480005Y12729387D03*
X34330006Y29374386D03*
X24035005Y23214387D03*
X5745005Y9044387D03*
X12920760Y7689205D03*
X7305005Y25774387D03*
X2125005Y3399387D03*
X33855005Y27499387D03*
X29905005Y10474387D03*
X18293350Y24022316D03*
X33655005Y6424387D03*
X9555005Y13749387D03*
X17955005Y26049387D03*
X31580005Y33249387D03*
X13980005Y19399387D03*
X4880005Y16524387D03*
X24560005Y7129387D03*
X31055005Y21674387D03*
X28890005Y11169387D03*
X21730005Y30849387D03*
X22730005Y30749387D03*
X7275005Y13274387D03*
X-3819995Y274387D03*
X19580005Y21672387D03*
X9215005Y-2850613D03*
X20145005Y2994387D03*
X31930005Y15149387D03*
X-3099995Y6244387D03*
X22190170Y26168352D03*
X9435005Y19349387D03*
X-3844996Y1099388D03*
X23540005Y23209387D03*
X13905005Y16649387D03*
X26730005Y499387D03*
X18293350Y23177316D03*
X2055005Y34349387D03*
X31359210Y8802708D03*
X28980005Y2749387D03*
X27505005Y33999387D03*
X8140005Y-2845613D03*
X18580005Y30599387D03*
X205005Y9889387D03*
X9680161Y5301174D03*
X9175005Y2029387D03*
X9605005Y15699387D03*
X-2204995Y14674387D03*
X27810380Y16199840D03*
X18023643Y-334660D03*
X17230005Y25799387D03*
X28180005Y12324387D03*
X17230005Y27599387D03*
X33280005Y5174387D03*
X22280005Y27399387D03*
X12230005Y31699387D03*
X20330005Y17549387D03*
X16350005Y69387D03*
X22580005Y8379387D03*
X20175005Y7919387D03*
X6755005Y13974387D03*
X2955005Y19924387D03*
X21045005Y9259387D03*
X16305005Y10904387D03*
X14400005Y-95613D03*
X34355005Y2049388D03*
X21639122Y1149859D03*
X24880005Y12399387D03*
X33155005Y-1075613D03*
X22730005Y21449387D03*
X-3164995Y14339387D03*
X2485005Y10139387D03*
X20720005Y7839387D03*
X6730005Y14974387D03*
X29905005Y16774387D03*
X3855005Y17749387D03*
X30470005Y11209387D03*
X11280005Y6900004D03*
X14229383Y3570852D03*
X-3419995Y27474387D03*
X6980005Y29899387D03*
X14565005Y19559387D03*
X28280005Y17449387D03*
X34305005Y30199387D03*
X3080005Y7274387D03*
X11847005Y13659387D03*
X4830005Y15649387D03*
X29905005Y9824387D03*
X28130005Y1899387D03*
X32830005Y27824387D03*
X29890005Y11209387D03*
X6000005Y11779387D03*
X31005005Y2699387D03*
X28184340Y5764619D03*
X24330005Y12399387D03*
X33805005Y-425613D03*
X31860005Y11079387D03*
X11180005Y30049387D03*
X22975005Y6164387D03*
X1180005Y22324387D03*
X10645005Y424387D03*
X23745005Y9789387D03*
X-419995Y33799387D03*
X3880005Y33424387D03*
X19453350Y23597317D03*
X3080005Y10134387D03*
X4870005Y-1355613D03*
X3880005Y32174387D03*
X17230005Y25349387D03*
X200005Y10804387D03*
X21080005Y27899387D03*
X33660660Y10299388D03*
X-2094995Y4949387D03*
X11805005Y16499387D03*
X18523350Y23597316D03*
X2985005Y5654387D03*
X22590005Y7724387D03*
X-469995Y-3350613D03*
X19218350Y23172316D03*
X-674995Y4004387D03*
X-1184995Y15214387D03*
X-1959995Y17854387D03*
X755005Y26499387D03*
X31530005Y-2650613D03*
X-1069995Y33149387D03*
X9730005Y31049387D03*
X3764888Y14522787D03*
X9555005Y12849387D03*
X26230005Y-613D03*
X22530005Y15489387D03*
X2855005Y31174387D03*
X1130005Y34374387D03*
X18480005Y26749387D03*
X27580005Y-1850613D03*
X630005Y24249387D03*
X-3144995Y18069387D03*
X22280005Y27899387D03*
X30030005Y26399387D03*
X4180005Y8574387D03*
X17230005Y26249387D03*
X32030005Y25174387D03*
X33630005Y22724387D03*
X17230005Y26699387D03*
X33105005Y31574387D03*
X1080005Y-3925613D03*
X18540005Y12729387D03*
X16015005Y6524387D03*
X22580005Y26520000D03*
X18230005Y25349387D03*
X8058599Y3705583D03*
X33055005Y20849387D03*
X33630005Y21624387D03*
X31605005Y27824387D03*
X4490005Y3654387D03*
X26064876Y9688586D03*
X4180005Y7274387D03*
X12930005Y31649387D03*
X31860005Y11559387D03*
X-3869995Y30174387D03*
X30930005Y33899387D03*
X-599995Y5879387D03*
X-1569995Y24399387D03*
X13225005Y19484387D03*
X8882011Y11704172D03*
X32955005Y25174387D03*
X5730005Y8004387D03*
X25645005Y9414387D03*
X205005Y10344387D03*
X-3869995Y28424386D03*
X25480005Y12399387D03*
X3055005Y7949387D03*
X-3894995Y29349387D03*
X23380005Y12549387D03*
X33630005Y20099387D03*
X32755005Y22824387D03*
X3530005Y19924387D03*
X2600005Y2679387D03*
X-2064995Y6949387D03*
X27805005Y29074387D03*
X12580005Y31299387D03*
X31786414Y8495796D03*
X19280005Y25974387D03*
X16260005Y13569387D03*
X20780005Y30749387D03*
X255005Y-3900613D03*
X17230005Y27149387D03*
X24727965Y6637721D03*
X-959995Y6784387D03*
X11380005Y19599387D03*
X17250005Y10939387D03*
X17680005Y25349387D03*
X31930005Y15974387D03*
X28200005Y6289387D03*
X19950005Y8919387D03*
X25653005Y5604387D03*
X13280005Y27099387D03*
X24630005Y30949387D03*
X-3269995Y-450613D03*
X1560005Y17804387D03*
X28190005Y15874387D03*
X28880005Y18799387D03*
X29905005Y18849387D03*
X7980005Y15849387D03*
X4540005Y2249387D03*
X-869995Y22724387D03*
X8490000Y19440000D03*
X33660699Y11624387D03*
X4809968Y14425133D03*
X-2619995Y-1100613D03*
X1830005Y26374387D03*
X2735005Y17554387D03*
X26830005Y3099387D03*
X28130005Y21574387D03*
X11375005Y20229387D03*
X34380005Y1124387D03*
X30155005Y-3850613D03*
X33755005Y30924387D03*
X-94995Y5009387D03*
X2285005Y4954387D03*
X-3159995Y12729387D03*
X30205005Y34449387D03*
X33630005Y24874387D03*
X8785005Y15914387D03*
X-1249995Y12834387D03*
X5990005Y8534387D03*
X22610005Y23199387D03*
X34355005Y299387D03*
X18753350Y23172316D03*
X31040005Y6119387D03*
X28630005Y3599387D03*
X8155005Y13699387D03*
X19223349Y24022316D03*
X-3169995Y19974387D03*
X31210041Y9306073D03*
X10530005Y1384387D03*
X7005005Y-2800613D03*
X8180005Y12874387D03*
X19730005Y30749387D03*
X3505005Y16524387D03*
X1645005Y2554387D03*
X13730005Y30849387D03*
X8230005Y29949387D03*
X-1174995Y14579387D03*
X23930005Y-1100613D03*
X-868696Y24473604D03*
X33005005Y2549387D03*
X22150005Y23184387D03*
X7599504Y19241387D03*
X23835005Y4079387D03*
X11280005Y6099387D03*
X33655005Y14349387D03*
X10480005Y15549387D03*
X3160005Y1599387D03*
X27005005Y21424387D03*
X19130005Y27999387D03*
X13530005Y31699387D03*
X22230005Y26949387D03*
X26055005Y10219387D03*
X5372832Y26994344D03*
X-3074995Y8439387D03*
X10730005Y31049387D03*
X28405005Y-3850613D03*
X29380005Y34474387D03*
X20650005Y13219387D03*
X-3174995Y13434387D03*
X23080005Y23204387D03*
X10470005Y9324387D03*
X27505005Y17449387D03*
%TO.N,/CAN/CAN1_L*%
X30415868Y7665679D03*
%TO.N,/CAN/CAN1_H*%
X31500000Y7854524D03*
%TO.N,/ANALOG VTX/UART1.TX*%
X30670005Y21299387D03*
X10050005Y14879387D03*
%TO.N,+9V*%
X30050005Y23269387D03*
X1100005Y10459387D03*
X29150005Y23259387D03*
X1100005Y9524387D03*
X6360005Y20904387D03*
X5518601Y21263386D03*
X6360005Y21634387D03*
X2070005Y9034387D03*
X28695005Y23259387D03*
X6060005Y21264386D03*
X29600005Y23259387D03*
X6640005Y21264387D03*
X5795004Y20894386D03*
X1100005Y9976887D03*
X1100005Y10919385D03*
X5795004Y21634386D03*
%TO.N,+3V3_SENS*%
X21080005Y12629387D03*
X31250005Y10594387D03*
X31250005Y10139387D03*
X31250005Y11059387D03*
X31250005Y11514387D03*
X20332505Y-623113D03*
%TO.N,+3V3_MCU*%
X10240005Y17114387D03*
X6700000Y-1350000D03*
X6515005Y25829387D03*
X6195005Y-2455613D03*
X5810005Y25829387D03*
X6515005Y26419387D03*
X10250005Y19144387D03*
X5810005Y26419387D03*
X17736387Y-861431D03*
X3992505Y12036887D03*
X28610005Y10679387D03*
X18885006Y10899387D03*
X23080005Y3354387D03*
X5780005Y4599387D03*
X4780005Y15024387D03*
X6160005Y26129387D03*
%TO.N,/MCU/SPI1.CS*%
X15760005Y-615613D03*
X8380005Y4199387D03*
%TO.N,VBUS*%
X55005Y20724387D03*
%TO.N,/MCU/BOOT0*%
X8880739Y6893653D03*
X4950000Y-750000D03*
%TO.N,/ANALOG VTX/SPI2.CS*%
X20060005Y13299387D03*
X20810005Y15790004D03*
%TO.N,VBAT*%
X26210006Y28674387D03*
X14470005Y31789387D03*
X15060005Y32899387D03*
X26560005Y28969387D03*
X15060005Y31789387D03*
X25850006Y28394386D03*
X26210006Y29259387D03*
X26211006Y28107983D03*
X25850005Y28969387D03*
X15060005Y32369387D03*
X26565006Y28394386D03*
X28905005Y27799387D03*
X29405005Y27799387D03*
X28405005Y27799387D03*
%TO.N,/MCU/ADC1_CURR1*%
X11280000Y5305000D03*
X23250005Y30489387D03*
%TO.N,/MCU/UART8.RX*%
X10480005Y6899387D03*
X22200005Y30429387D03*
%TO.N,/MOTORS[1-4]/S1*%
X21275000Y30399387D03*
%TO.N,/MOTORS[1-4]/S2*%
X20250000Y30475000D03*
%TO.N,/MOTORS[1-4]/S3*%
X19250000Y30450000D03*
%TO.N,/MOTORS[1-4]/S4*%
X17997809Y30377191D03*
%TO.N,/MCU/SDIO.D2*%
X7164560Y18913689D03*
%TO.N,/MCU/SDIO.D3*%
X8160617Y19026165D03*
%TO.N,/MCU/SDIO.CMD*%
X8900000Y19100000D03*
%TO.N,/MCU/SDIO.CK*%
X11386475Y18966770D03*
%TO.N,/MCU/SDIO.D0*%
X13600000Y19000000D03*
%TO.N,/MCU/SDIO.D1*%
X14405005Y19049387D03*
%TO.N,+5V*%
X22276854Y25637557D03*
X18880004Y20964386D03*
X15305005Y28979387D03*
X19145005Y20579386D03*
X15305005Y29474387D03*
X14890005Y30159387D03*
X19725005Y20579387D03*
X19445005Y20964387D03*
X14895005Y29239387D03*
X18880004Y20214386D03*
X19445005Y20214387D03*
X18603601Y20578386D03*
X14887504Y29699387D03*
X15307506Y29934387D03*
%TO.N,/MCU/GYRO1_EXTI*%
X12353460Y1010000D03*
X12060468Y5301995D03*
%TO.N,/MCU/GYRO1_CLKIN*%
X12885194Y10108078D03*
X16635005Y6214387D03*
%TO.N,/MCU/SPI1.MOSI*%
X14213495Y459125D03*
X10478479Y8492541D03*
%TO.N,/MCU/ADC1_VBAT1*%
X12080005Y4199387D03*
X25880005Y24749387D03*
%TO.N,/I2C1|SPI3/SPI3.MISO*%
X6510005Y8719387D03*
%TO.N,/I2C1|SPI3/SPI3.SCLK*%
X6817162Y9595787D03*
%TO.N,/BUZZER/BUZZER*%
X6252601Y11235146D03*
%TO.N,/MCU/SWCLK*%
X6735005Y13334387D03*
%TO.N,/MCU/SWDIO*%
X7240005Y12744387D03*
%TO.N,/MCU/UART2.TX*%
X18553802Y-615613D03*
X9682164Y9297851D03*
%TO.N,/MCU/USB_OTG_P.DP*%
X8557450Y13299387D03*
%TO.N,/I2C1|SPI3/SPI3.MOSI*%
X6285005Y8011887D03*
%TO.N,/MCU/UART2.RX*%
X9670740Y8565387D03*
X17680005Y84387D03*
%TO.N,/CAN/CAN1.SILENT*%
X5850000Y9600000D03*
%TO.N,/MCU/USB_OTG_P.DN*%
X9202560Y13299387D03*
%TO.N,/MCU/VDD*%
X11322636Y7785387D03*
X5295005Y25279387D03*
X11393005Y8502362D03*
X15380005Y3499387D03*
X5305005Y24814387D03*
X10383829Y5981996D03*
X5305005Y24344387D03*
X12010910Y8473490D03*
X4875005Y24999387D03*
X4875005Y24529387D03*
%TO.N,/MCU/9V_EN*%
X12960005Y30719387D03*
X9680005Y6099387D03*
%TO.N,/I2C1|SPI3/SPI3.CS1*%
X8880007Y10899789D03*
%TO.N,/CAN/CAN1.RX*%
X10482520Y10905009D03*
%TO.N,VCAP*%
X11271339Y10078053D03*
%TO.N,/CAN/CAN1.TX*%
X10480628Y10097000D03*
%TO.N,/MCU/UART6.RX*%
X10965005Y13084387D03*
X22055005Y5209387D03*
%TO.N,Net-(U2A-PDR_ON)*%
X11276906Y9349357D03*
%TO.N,/MCU/UART6.TX*%
X11857005Y13099387D03*
X22719222Y5682782D03*
%TO.N,/MCU/MOTOR3*%
X14220005Y2349387D03*
X19645005Y28259387D03*
%TO.N,/MCU/SPI4.MOSI*%
X13686591Y9276387D03*
X20580005Y1299387D03*
%TO.N,/MCU/GYRO2_CLKIN*%
X20330005Y5299387D03*
X12080006Y10099790D03*
%TO.N,/MCU/VDDA*%
X13311552Y4274016D03*
%TO.N,/MCU/MOTOR4*%
X18625005Y28259387D03*
X14430005Y3049387D03*
%TO.N,/MCU/UART7.RX*%
X10230005Y30739387D03*
X17180005Y7649387D03*
%TO.N,/MCU/SPI4.CS*%
X20380005Y4649387D03*
X15820005Y8364387D03*
%TO.N,/MCU/GYRO2_EXTI*%
X16580005Y8349387D03*
X13685000Y10100000D03*
%TO.N,/MCU/MOTOR5*%
X15880005Y4949387D03*
X8890005Y29969387D03*
%TO.N,/MCU/MOTOR1*%
X21545005Y28269387D03*
X17080005Y2649387D03*
%TO.N,/MCU/I2C2.SCL*%
X21240005Y7594387D03*
X20485309Y9039691D03*
%TO.N,/DIGITAL VTX/UART3.RX*%
X2230005Y4049387D03*
X17490005Y12584387D03*
%TO.N,/MCU/MOTOR8*%
X5280005Y29949387D03*
X15010005Y13009387D03*
%TO.N,/MCU/MOTOR6*%
X15880005Y5499387D03*
X7590005Y29969387D03*
%TO.N,/MCU/ADC1_CURR2*%
X15469359Y6553386D03*
X11630005Y30394387D03*
%TO.N,/MCU/MOTOR2*%
X20573599Y28242489D03*
X17709542Y2729951D03*
%TO.N,/MCU/MOTOR7*%
X15905005Y13039387D03*
X6418929Y29969387D03*
%TO.N,Net-(Q1-G)*%
X2910005Y3559387D03*
%TO.N,/BUZZER/BUZZ_PAD-*%
X2457765Y5513187D03*
%TO.N,Net-(USB1-CC1)*%
X1180005Y24824387D03*
%TO.N,/USB_OTG.DP*%
X-1293650Y23227445D03*
%TO.N,/USB_OTG.DN*%
X-1293650Y23872555D03*
%TO.N,Net-(USB1-CC2)*%
X1580005Y21924387D03*
%TD*%
%TA.AperFunction,Conductor*%
%TO.N,GND*%
G36*
X1879985Y34810569D02*
G01*
X1879987Y34810568D01*
X1916499Y34810568D01*
X1923222Y34810264D01*
X2080859Y34795979D01*
X2094158Y34793550D01*
X2243367Y34752085D01*
X2256014Y34747304D01*
X2395341Y34679703D01*
X2406928Y34672725D01*
X2534590Y34579169D01*
X2539834Y34574949D01*
X2567223Y34550793D01*
X2567235Y34550789D01*
X2647630Y34479901D01*
X2647633Y34479899D01*
X2647634Y34479898D01*
X2887116Y34309103D01*
X2940434Y34278839D01*
X3142934Y34163896D01*
X3180908Y34147255D01*
X3412349Y34045830D01*
X3414627Y34045101D01*
X3692507Y33956158D01*
X3980410Y33895838D01*
X3980418Y33895838D01*
X3980419Y33895837D01*
X3980416Y33895837D01*
X4272984Y33865514D01*
X4272990Y33865514D01*
X4272997Y33865513D01*
X4372034Y33865499D01*
X4372094Y33865491D01*
X9864779Y33865323D01*
X26023151Y33864826D01*
X26023153Y33864825D01*
X26063035Y33864824D01*
X26064832Y33864825D01*
X26102917Y33864823D01*
X26102919Y33864825D01*
X26110910Y33864824D01*
X26110960Y33864829D01*
X26210112Y33864838D01*
X26502701Y33895145D01*
X26790607Y33955447D01*
X27070766Y34045101D01*
X27340193Y34163152D01*
X27596018Y34308342D01*
X27835517Y34479126D01*
X27915914Y34550008D01*
X27915927Y34550012D01*
X27942289Y34573262D01*
X27942300Y34573272D01*
X27942312Y34573277D01*
X27942337Y34573305D01*
X27943366Y34574212D01*
X27948567Y34578392D01*
X28076235Y34671937D01*
X28087811Y34678909D01*
X28227151Y34746505D01*
X28239791Y34751282D01*
X28389015Y34792742D01*
X28402304Y34795168D01*
X28559919Y34809442D01*
X28566679Y34809747D01*
X29984360Y34809704D01*
X29984362Y34809703D01*
X30021316Y34809703D01*
X30027153Y34809473D01*
X30164392Y34798668D01*
X30176016Y34796826D01*
X30306968Y34765384D01*
X30318149Y34761751D01*
X30442580Y34710207D01*
X30453063Y34704865D01*
X30567891Y34634494D01*
X30577411Y34627577D01*
X30640942Y34573315D01*
X30680985Y34539114D01*
X30682065Y34538192D01*
X30686390Y34534194D01*
X30712507Y34508076D01*
X31690655Y33529903D01*
X31715876Y33504681D01*
X31721480Y33498410D01*
X31791144Y33411052D01*
X31800077Y33396834D01*
X31846715Y33299986D01*
X31852262Y33284134D01*
X31876179Y33179338D01*
X31878059Y33162649D01*
X31878058Y33055155D01*
X31876177Y33038466D01*
X31852257Y32933672D01*
X31846710Y32917820D01*
X31800072Y32820977D01*
X31791137Y32806756D01*
X31721468Y32719397D01*
X31715863Y32713126D01*
X31444933Y32442204D01*
X31439261Y32437083D01*
X31360523Y32372960D01*
X31347768Y32364575D01*
X31261071Y32319487D01*
X31246881Y32313859D01*
X31152861Y32287262D01*
X31137827Y32284623D01*
X31040362Y32277612D01*
X31025105Y32278072D01*
X30924428Y32291446D01*
X30916959Y32292826D01*
X30916451Y32292947D01*
X30881842Y32301196D01*
X30881784Y32301188D01*
X30874697Y32302872D01*
X30874696Y32302873D01*
X30874693Y32302873D01*
X30791289Y32322705D01*
X30791284Y32322706D01*
X30526452Y32346623D01*
X30526440Y32346624D01*
X30260927Y32332307D01*
X30000189Y32280051D01*
X29749656Y32190938D01*
X29749651Y32190936D01*
X29514496Y32066811D01*
X29299564Y31910231D01*
X29109321Y31724446D01*
X29109312Y31724437D01*
X28947686Y31513287D01*
X28947684Y31513284D01*
X28818021Y31281141D01*
X28818018Y31281135D01*
X28818018Y31281133D01*
X28800848Y31236261D01*
X28722991Y31032786D01*
X28722986Y31032770D01*
X28664566Y30773371D01*
X28664565Y30773364D01*
X28643957Y30508258D01*
X28643956Y30508249D01*
X28661588Y30242923D01*
X28699453Y30065529D01*
X28717098Y29982863D01*
X28808577Y29735505D01*
X28809335Y29733457D01*
X28936390Y29499863D01*
X28989311Y29429096D01*
X29095641Y29286908D01*
X29095645Y29286904D01*
X29095646Y29286903D01*
X29283786Y29099002D01*
X29283796Y29098993D01*
X29382296Y29025529D01*
X29471607Y28958918D01*
X29496946Y28940020D01*
X29496950Y28940017D01*
X29730694Y28813264D01*
X29730697Y28813263D01*
X29730704Y28813259D01*
X29980225Y28721339D01*
X30240352Y28666161D01*
X30461477Y28651748D01*
X30505702Y28648865D01*
X30505702Y28648866D01*
X30505703Y28648865D01*
X30770791Y28669811D01*
X30770795Y28669812D01*
X30770796Y28669812D01*
X30998245Y28721339D01*
X31030133Y28728563D01*
X31278366Y28823908D01*
X31510356Y28953873D01*
X31590693Y29015529D01*
X31721294Y29115761D01*
X31721298Y29115765D01*
X31721305Y29115770D01*
X31906851Y29306251D01*
X32063155Y29521378D01*
X32109730Y29609886D01*
X32186978Y29756683D01*
X32186979Y29756687D01*
X32186986Y29756699D01*
X32275781Y30007350D01*
X32327706Y30268145D01*
X32341685Y30533691D01*
X32341685Y30533693D01*
X32341685Y30533699D01*
X32317432Y30798489D01*
X32317431Y30798492D01*
X32317431Y30798497D01*
X32295797Y30888968D01*
X32295807Y30889026D01*
X32287392Y30924131D01*
X32287392Y30924140D01*
X32286001Y30931606D01*
X32282920Y30954599D01*
X32272494Y31032404D01*
X32272020Y31047668D01*
X32278954Y31145269D01*
X32281580Y31160302D01*
X32308162Y31254493D01*
X32313781Y31268676D01*
X32358902Y31355512D01*
X32367285Y31368272D01*
X32431504Y31447145D01*
X32436610Y31452801D01*
X32462115Y31478304D01*
X32462115Y31478306D01*
X32693407Y31709591D01*
X32706398Y31722582D01*
X32712654Y31728173D01*
X32800027Y31797848D01*
X32814233Y31806774D01*
X32911088Y31853416D01*
X32926933Y31858961D01*
X33031738Y31882880D01*
X33048422Y31884759D01*
X33155925Y31884758D01*
X33172599Y31882878D01*
X33277404Y31858956D01*
X33293250Y31853411D01*
X33330382Y31835529D01*
X33390098Y31806770D01*
X33404318Y31797835D01*
X33491672Y31728171D01*
X33497944Y31722566D01*
X34521234Y30699249D01*
X34530250Y30690233D01*
X34534248Y30685908D01*
X34623634Y30581248D01*
X34630552Y30571726D01*
X34700919Y30456891D01*
X34706261Y30446405D01*
X34757801Y30321971D01*
X34761438Y30310777D01*
X34792874Y30179820D01*
X34794715Y30168196D01*
X34805509Y30030985D01*
X34805740Y30025101D01*
X34805700Y28596971D01*
X34805699Y28560481D01*
X34805393Y28553714D01*
X34791111Y28396106D01*
X34788679Y28382794D01*
X34747218Y28233597D01*
X34742433Y28220938D01*
X34674836Y28081621D01*
X34667853Y28070028D01*
X34574304Y27942376D01*
X34570064Y27937106D01*
X34561403Y27927285D01*
X34545925Y27909735D01*
X34545922Y27909729D01*
X34541839Y27905098D01*
X34541839Y27905096D01*
X34475037Y27829334D01*
X34304235Y27589841D01*
X34159029Y27334025D01*
X34159025Y27334017D01*
X34040964Y27064610D01*
X33951294Y26784457D01*
X33951288Y26784435D01*
X33890971Y26496542D01*
X33890971Y26496541D01*
X33860648Y26203974D01*
X33860647Y26203953D01*
X33860632Y26103692D01*
X33860625Y26103626D01*
X33859999Y4858889D01*
X33859988Y4474785D01*
X33859988Y4474784D01*
X33859987Y4445531D01*
X33859986Y4395020D01*
X33859988Y4395012D01*
X33859989Y4388448D01*
X33859990Y4388447D01*
X33860000Y4287836D01*
X33860001Y4287825D01*
X33889480Y4003238D01*
X33890310Y3995231D01*
X33950610Y3707332D01*
X33950616Y3707310D01*
X34040265Y3427171D01*
X34158313Y3157749D01*
X34158317Y3157741D01*
X34303506Y2901921D01*
X34303511Y2901914D01*
X34474287Y2662426D01*
X34474291Y2662421D01*
X34540746Y2587043D01*
X34545172Y2582023D01*
X34545177Y2582011D01*
X34567098Y2557155D01*
X34568427Y2555648D01*
X34568432Y2555642D01*
X34569319Y2554636D01*
X34573553Y2549374D01*
X34667099Y2421705D01*
X34674073Y2410124D01*
X34725927Y2303238D01*
X34741666Y2270795D01*
X34746450Y2258136D01*
X34787903Y2108935D01*
X34790334Y2095622D01*
X34804605Y1938022D01*
X34804911Y1931256D01*
X34804870Y503485D01*
X34804869Y466554D01*
X34804638Y460670D01*
X34793838Y323476D01*
X34791997Y311854D01*
X34760562Y180917D01*
X34756926Y169726D01*
X34705399Y45315D01*
X34700059Y34834D01*
X34699087Y33246D01*
X34629703Y-79989D01*
X34622787Y-89508D01*
X34533432Y-194146D01*
X34529436Y-198470D01*
X33728545Y-999500D01*
X33540033Y-1188045D01*
X33514292Y-1213790D01*
X33514290Y-1213792D01*
X33499616Y-1228468D01*
X33493346Y-1234072D01*
X33406000Y-1303741D01*
X33391780Y-1312678D01*
X33294936Y-1359326D01*
X33279084Y-1364874D01*
X33174290Y-1388802D01*
X33157601Y-1390684D01*
X33050110Y-1390693D01*
X33033421Y-1388814D01*
X32928623Y-1364904D01*
X32912771Y-1359359D01*
X32815917Y-1312728D01*
X32801695Y-1303793D01*
X32759369Y-1270045D01*
X32714334Y-1234136D01*
X32708069Y-1228538D01*
X32697321Y-1217792D01*
X32437410Y-957926D01*
X32432292Y-952258D01*
X32430230Y-949727D01*
X32368154Y-873514D01*
X32359768Y-860759D01*
X32314673Y-774064D01*
X32309044Y-759875D01*
X32282435Y-665841D01*
X32279796Y-650811D01*
X32272780Y-553331D01*
X32273238Y-538091D01*
X32286611Y-437395D01*
X32287991Y-429929D01*
X32288006Y-429864D01*
X32296362Y-394809D01*
X32296352Y-394750D01*
X32317870Y-304248D01*
X32341783Y-39402D01*
X32341782Y-39396D01*
X32341783Y-39392D01*
X32329900Y180917D01*
X32327461Y226135D01*
X32290008Y412981D01*
X32275200Y486857D01*
X32275198Y486864D01*
X32275197Y486871D01*
X32186074Y737415D01*
X32061935Y972585D01*
X32061798Y972773D01*
X31905352Y1187510D01*
X31905349Y1187513D01*
X31905347Y1187516D01*
X31719549Y1377763D01*
X31673957Y1412660D01*
X31508390Y1539388D01*
X31508380Y1539395D01*
X31276224Y1669058D01*
X31276219Y1669060D01*
X31027853Y1764086D01*
X31027847Y1764087D01*
X30768428Y1822503D01*
X30768424Y1822504D01*
X30503300Y1843105D01*
X30503299Y1843105D01*
X30237962Y1825465D01*
X30237959Y1825464D01*
X29977908Y1769949D01*
X29728488Y1677698D01*
X29728479Y1677694D01*
X29494895Y1550633D01*
X29494886Y1550627D01*
X29281931Y1391366D01*
X29281930Y1391365D01*
X29094021Y1203204D01*
X29094017Y1203199D01*
X28935053Y990045D01*
X28935042Y990029D01*
X28808288Y756264D01*
X28808287Y756261D01*
X28716377Y506741D01*
X28716376Y506737D01*
X28661205Y246594D01*
X28661205Y246590D01*
X28643919Y-18763D01*
X28664875Y-283858D01*
X28723641Y-543212D01*
X28818995Y-791439D01*
X28818997Y-791443D01*
X28818999Y-791448D01*
X28841060Y-830824D01*
X28948972Y-1023432D01*
X28948973Y-1023434D01*
X28948977Y-1023440D01*
X29110889Y-1234390D01*
X29301385Y-1419933D01*
X29516525Y-1576234D01*
X29751860Y-1700058D01*
X29751866Y-1700060D01*
X29751868Y-1700061D01*
X29993864Y-1785779D01*
X30002523Y-1788846D01*
X30263330Y-1840760D01*
X30263339Y-1840760D01*
X30263343Y-1840761D01*
X30377174Y-1846748D01*
X30528886Y-1854728D01*
X30733565Y-1835969D01*
X30793691Y-1830460D01*
X30793692Y-1830459D01*
X30793699Y-1830459D01*
X30884171Y-1808821D01*
X30884231Y-1808831D01*
X30919338Y-1800413D01*
X30919346Y-1800414D01*
X30926795Y-1799025D01*
X31027599Y-1785511D01*
X31042858Y-1785035D01*
X31140461Y-1791964D01*
X31155510Y-1794593D01*
X31249671Y-1821160D01*
X31263869Y-1826782D01*
X31350695Y-1871888D01*
X31363464Y-1880276D01*
X31442329Y-1944475D01*
X31448003Y-1949597D01*
X31603366Y-2104932D01*
X31692387Y-2193938D01*
X31692388Y-2193939D01*
X31717613Y-2219160D01*
X31723217Y-2225430D01*
X31792886Y-2312777D01*
X31801823Y-2326996D01*
X31802857Y-2329143D01*
X31848473Y-2423844D01*
X31854020Y-2439693D01*
X31877948Y-2544487D01*
X31879830Y-2561175D01*
X31879840Y-2668666D01*
X31877961Y-2685356D01*
X31854050Y-2790154D01*
X31848505Y-2806006D01*
X31801874Y-2902859D01*
X31792939Y-2917081D01*
X31723286Y-3004438D01*
X31717683Y-3010709D01*
X30715731Y-4012834D01*
X30715726Y-4012839D01*
X30685337Y-4043233D01*
X30681013Y-4047231D01*
X30576345Y-4136639D01*
X30566823Y-4143558D01*
X30451976Y-4213945D01*
X30441488Y-4219289D01*
X30317050Y-4270837D01*
X30305856Y-4274475D01*
X30200335Y-4299809D01*
X30184774Y-4303545D01*
X30174877Y-4305921D01*
X30163250Y-4307762D01*
X30026022Y-4318558D01*
X30020138Y-4318789D01*
X28602153Y-4318748D01*
X28565662Y-4318747D01*
X28558895Y-4318441D01*
X28401286Y-4304158D01*
X28387974Y-4301726D01*
X28238776Y-4260265D01*
X28226117Y-4255480D01*
X28086796Y-4187881D01*
X28075204Y-4180899D01*
X27947563Y-4087360D01*
X27942309Y-4083135D01*
X27941469Y-4082394D01*
X27941413Y-4082345D01*
X27909932Y-4054578D01*
X27909882Y-4054541D01*
X27834514Y-3988086D01*
X27834503Y-3988077D01*
X27595021Y-3817283D01*
X27339205Y-3672077D01*
X27339197Y-3672073D01*
X27069790Y-3554011D01*
X26789637Y-3464341D01*
X26789638Y-3464341D01*
X26789631Y-3464339D01*
X26789626Y-3464337D01*
X26789619Y-3464336D01*
X26501718Y-3404017D01*
X26501721Y-3404017D01*
X26209154Y-3373694D01*
X26209133Y-3373693D01*
X26109392Y-3373678D01*
X26109331Y-3373671D01*
X4470008Y-3373012D01*
X4469471Y-3373012D01*
X4469470Y-3373012D01*
X4429588Y-3373011D01*
X4429587Y-3373011D01*
X4427876Y-3373011D01*
X4427869Y-3373011D01*
X4389706Y-3373010D01*
X4389697Y-3373012D01*
X4383641Y-3373013D01*
X4383641Y-3373014D01*
X4282520Y-3373024D01*
X4282509Y-3373025D01*
X3989921Y-3403332D01*
X3989911Y-3403334D01*
X3702018Y-3463633D01*
X3702013Y-3463634D01*
X3421848Y-3553291D01*
X3152434Y-3671336D01*
X3152425Y-3671341D01*
X2896608Y-3816526D01*
X2657110Y-3987309D01*
X2657106Y-3987312D01*
X2581332Y-4054116D01*
X2576705Y-4058195D01*
X2576696Y-4058199D01*
X2554484Y-4077786D01*
X2549314Y-4082345D01*
X2549312Y-4082345D01*
X2544043Y-4086585D01*
X2416399Y-4180115D01*
X2404806Y-4187097D01*
X2265479Y-4254688D01*
X2252820Y-4259472D01*
X2103619Y-4300924D01*
X2090306Y-4303355D01*
X1932706Y-4317626D01*
X1925940Y-4317932D01*
X497863Y-4317890D01*
X497817Y-4317890D01*
X497816Y-4317890D01*
X460885Y-4317889D01*
X455000Y-4317658D01*
X317785Y-4306854D01*
X306162Y-4305012D01*
X175214Y-4273571D01*
X164021Y-4269934D01*
X39596Y-4218392D01*
X29110Y-4213049D01*
X-84285Y-4143558D01*
X-85715Y-4142681D01*
X-95234Y-4135765D01*
X-199889Y-4046379D01*
X-204213Y-4042382D01*
X-230332Y-4016263D01*
X-1210661Y-3035907D01*
X-1233720Y-3012847D01*
X-1239324Y-3006576D01*
X-1241029Y-3004438D01*
X-1308989Y-2919216D01*
X-1317921Y-2905000D01*
X-1364559Y-2808152D01*
X-1370106Y-2792300D01*
X-1370596Y-2790154D01*
X-1394024Y-2687502D01*
X-1395903Y-2670815D01*
X-1395903Y-2648422D01*
X-1395902Y-2563313D01*
X-1394023Y-2546640D01*
X-1370100Y-2441832D01*
X-1364559Y-2425997D01*
X-1356600Y-2409471D01*
X5844505Y-2409471D01*
X5844505Y-2501754D01*
X5844506Y-2501762D01*
X5868390Y-2590899D01*
X5868391Y-2590901D01*
X5897363Y-2641082D01*
X5914536Y-2670825D01*
X5979793Y-2736082D01*
X6059717Y-2782227D01*
X6148861Y-2806113D01*
X6148863Y-2806113D01*
X6241147Y-2806113D01*
X6241149Y-2806113D01*
X6330293Y-2782227D01*
X6410217Y-2736082D01*
X6475474Y-2670825D01*
X6521619Y-2590901D01*
X6545505Y-2501757D01*
X6545505Y-2409469D01*
X6521619Y-2320325D01*
X6518239Y-2314471D01*
X24719505Y-2314471D01*
X24719505Y-2406754D01*
X24719506Y-2406762D01*
X24743390Y-2495899D01*
X24743391Y-2495901D01*
X24782316Y-2563321D01*
X24789536Y-2575825D01*
X24854793Y-2641082D01*
X24934717Y-2687227D01*
X25023861Y-2711113D01*
X25023863Y-2711113D01*
X25116147Y-2711113D01*
X25116149Y-2711113D01*
X25205293Y-2687227D01*
X25272504Y-2648422D01*
X25323028Y-2639512D01*
X25347506Y-2648422D01*
X25414713Y-2687225D01*
X25414714Y-2687225D01*
X25414717Y-2687227D01*
X25503861Y-2711113D01*
X25503863Y-2711113D01*
X25596147Y-2711113D01*
X25596149Y-2711113D01*
X25685293Y-2687227D01*
X25765217Y-2641082D01*
X25830474Y-2575825D01*
X25876619Y-2495901D01*
X25900505Y-2406757D01*
X25900505Y-2314469D01*
X25876619Y-2225325D01*
X25830474Y-2145401D01*
X25765217Y-2080144D01*
X25765216Y-2080143D01*
X25685293Y-2033999D01*
X25685291Y-2033998D01*
X25596154Y-2010114D01*
X25596151Y-2010113D01*
X25596149Y-2010113D01*
X25503861Y-2010113D01*
X25503859Y-2010113D01*
X25503855Y-2010114D01*
X25414718Y-2033998D01*
X25414715Y-2033999D01*
X25347505Y-2072804D01*
X25296982Y-2081713D01*
X25272505Y-2072804D01*
X25205294Y-2033999D01*
X25205291Y-2033998D01*
X25116154Y-2010114D01*
X25116151Y-2010113D01*
X25116149Y-2010113D01*
X25023861Y-2010113D01*
X25023859Y-2010113D01*
X25023855Y-2010114D01*
X24934718Y-2033998D01*
X24934716Y-2033999D01*
X24854793Y-2080143D01*
X24789535Y-2145401D01*
X24743391Y-2225324D01*
X24743390Y-2225326D01*
X24719506Y-2314463D01*
X24719505Y-2314471D01*
X6518239Y-2314471D01*
X6475474Y-2240401D01*
X6410217Y-2175144D01*
X6410216Y-2175143D01*
X6330293Y-2128999D01*
X6330291Y-2128998D01*
X6241154Y-2105114D01*
X6241151Y-2105113D01*
X6241149Y-2105113D01*
X6148861Y-2105113D01*
X6148859Y-2105113D01*
X6148855Y-2105114D01*
X6059718Y-2128998D01*
X6059716Y-2128999D01*
X5979793Y-2175143D01*
X5914535Y-2240401D01*
X5868391Y-2320324D01*
X5868390Y-2320326D01*
X5844506Y-2409463D01*
X5844505Y-2409471D01*
X-1356600Y-2409471D01*
X-1317911Y-2329134D01*
X-1308980Y-2314922D01*
X-1308618Y-2314469D01*
X-1239310Y-2227562D01*
X-1233711Y-2221296D01*
X-1227888Y-2215474D01*
X-988283Y-1975875D01*
X-988282Y-1975875D01*
X-962765Y-1950357D01*
X-957124Y-1945265D01*
X-878360Y-1881122D01*
X-865620Y-1872746D01*
X-778907Y-1827650D01*
X-764733Y-1822029D01*
X-670697Y-1795427D01*
X-655677Y-1792791D01*
X-558201Y-1785779D01*
X-542952Y-1786238D01*
X-442267Y-1799614D01*
X-434809Y-1800993D01*
X-399684Y-1809366D01*
X-399626Y-1809356D01*
X-396222Y-1810165D01*
X-392238Y-1811112D01*
X-392237Y-1811113D01*
X-392233Y-1811114D01*
X-309135Y-1830874D01*
X-309131Y-1830874D01*
X-309124Y-1830876D01*
X-44279Y-1854797D01*
X-44274Y-1854796D01*
X-44270Y-1854797D01*
X115042Y-1846207D01*
X221257Y-1840481D01*
X481995Y-1788225D01*
X732540Y-1699109D01*
X967712Y-1574977D01*
X1182647Y-1418395D01*
X1299933Y-1303858D01*
X6349500Y-1303858D01*
X6349500Y-1396141D01*
X6349501Y-1396149D01*
X6373385Y-1485286D01*
X6373386Y-1485288D01*
X6392865Y-1519027D01*
X6419531Y-1565212D01*
X6484788Y-1630469D01*
X6564712Y-1676614D01*
X6653856Y-1700500D01*
X6653858Y-1700500D01*
X6746142Y-1700500D01*
X6746144Y-1700500D01*
X6835288Y-1676614D01*
X6915212Y-1630469D01*
X6980469Y-1565212D01*
X7026614Y-1485288D01*
X7050500Y-1396144D01*
X7050500Y-1303856D01*
X7026614Y-1214712D01*
X6980469Y-1134788D01*
X6915212Y-1069531D01*
X6915211Y-1069530D01*
X6835288Y-1023386D01*
X6835286Y-1023385D01*
X6746149Y-999501D01*
X6746146Y-999500D01*
X6746144Y-999500D01*
X6653856Y-999500D01*
X6653854Y-999500D01*
X6653850Y-999501D01*
X6564713Y-1023385D01*
X6564711Y-1023386D01*
X6484788Y-1069530D01*
X6419530Y-1134788D01*
X6373386Y-1214711D01*
X6373385Y-1214713D01*
X6349501Y-1303850D01*
X6349500Y-1303858D01*
X1299933Y-1303858D01*
X1372899Y-1232602D01*
X1534533Y-1021441D01*
X1565941Y-965211D01*
X1660371Y-796149D01*
X1664208Y-789279D01*
X1696893Y-703858D01*
X4599500Y-703858D01*
X4599500Y-796141D01*
X4599501Y-796149D01*
X4623385Y-885286D01*
X4623386Y-885288D01*
X4667100Y-961003D01*
X4669531Y-965212D01*
X4734788Y-1030469D01*
X4814712Y-1076614D01*
X4903856Y-1100500D01*
X4903858Y-1100500D01*
X4996142Y-1100500D01*
X4996144Y-1100500D01*
X5085288Y-1076614D01*
X5165212Y-1030469D01*
X5230469Y-965212D01*
X5276614Y-885288D01*
X5300500Y-796144D01*
X5300500Y-703856D01*
X5276614Y-614712D01*
X5230469Y-534788D01*
X5165212Y-469531D01*
X5165211Y-469530D01*
X5085288Y-423386D01*
X5085286Y-423385D01*
X4996149Y-399501D01*
X4996146Y-399500D01*
X4996144Y-399500D01*
X4903856Y-399500D01*
X4903854Y-399500D01*
X4903850Y-399501D01*
X4814713Y-423385D01*
X4814711Y-423386D01*
X4734788Y-469530D01*
X4669530Y-534788D01*
X4623386Y-614711D01*
X4623385Y-614713D01*
X4599501Y-703850D01*
X4599500Y-703858D01*
X1696893Y-703858D01*
X1759240Y-540917D01*
X1786501Y-419867D01*
X1817663Y-281500D01*
X1817664Y-281493D01*
X1824118Y-198470D01*
X1838273Y-16370D01*
X1828843Y125529D01*
X9504505Y125529D01*
X9504505Y33246D01*
X9504506Y33238D01*
X9524629Y-41861D01*
X9528391Y-55901D01*
X9559980Y-110613D01*
X9568889Y-161137D01*
X9559980Y-185614D01*
X9528391Y-240326D01*
X9528390Y-240329D01*
X9504506Y-329466D01*
X9504505Y-329474D01*
X9504505Y-421757D01*
X9504506Y-421765D01*
X9528390Y-510902D01*
X9528391Y-510904D01*
X9568839Y-580962D01*
X9574536Y-590828D01*
X9639793Y-656085D01*
X9719717Y-702230D01*
X9808861Y-726116D01*
X9808863Y-726116D01*
X9901147Y-726116D01*
X9901149Y-726116D01*
X9990293Y-702230D01*
X10070217Y-656085D01*
X10135474Y-590828D01*
X10147805Y-569471D01*
X15409505Y-569471D01*
X15409505Y-661754D01*
X15409506Y-661762D01*
X15433390Y-750899D01*
X15433391Y-750901D01*
X15470561Y-815281D01*
X15479536Y-830825D01*
X15544793Y-896082D01*
X15624717Y-942227D01*
X15713861Y-966113D01*
X15713863Y-966113D01*
X15806147Y-966113D01*
X15806149Y-966113D01*
X15895293Y-942227D01*
X15975217Y-896082D01*
X16040474Y-830825D01*
X16049444Y-815289D01*
X17385887Y-815289D01*
X17385887Y-907572D01*
X17385888Y-907580D01*
X17409772Y-996717D01*
X17409773Y-996719D01*
X17455900Y-1076613D01*
X17455918Y-1076643D01*
X17521175Y-1141900D01*
X17601099Y-1188045D01*
X17690243Y-1211931D01*
X17690245Y-1211931D01*
X17782529Y-1211931D01*
X17782531Y-1211931D01*
X17871675Y-1188045D01*
X17951599Y-1141900D01*
X18016856Y-1076643D01*
X18063001Y-996719D01*
X18086887Y-907575D01*
X18086887Y-815287D01*
X18063001Y-726143D01*
X18016856Y-646219D01*
X17951599Y-580962D01*
X17951598Y-580961D01*
X17931697Y-569471D01*
X18203302Y-569471D01*
X18203302Y-661754D01*
X18203303Y-661762D01*
X18227187Y-750899D01*
X18227188Y-750901D01*
X18264358Y-815281D01*
X18273333Y-830825D01*
X18338590Y-896082D01*
X18418514Y-942227D01*
X18507658Y-966113D01*
X18507660Y-966113D01*
X18599944Y-966113D01*
X18599946Y-966113D01*
X18689090Y-942227D01*
X18769014Y-896082D01*
X18834271Y-830825D01*
X18880416Y-750901D01*
X18904302Y-661757D01*
X18904302Y-576971D01*
X19982005Y-576971D01*
X19982005Y-669254D01*
X19982006Y-669262D01*
X20005890Y-758399D01*
X20005891Y-758401D01*
X20047705Y-830825D01*
X20052036Y-838325D01*
X20117293Y-903582D01*
X20197217Y-949727D01*
X20286361Y-973613D01*
X20286363Y-973613D01*
X20378647Y-973613D01*
X20378649Y-973613D01*
X20467793Y-949727D01*
X20547717Y-903582D01*
X20612974Y-838325D01*
X20659119Y-758401D01*
X20683005Y-669257D01*
X20683005Y-576969D01*
X20659119Y-487825D01*
X20612974Y-407901D01*
X20547717Y-342644D01*
X20547716Y-342643D01*
X20467793Y-296499D01*
X20467791Y-296498D01*
X20378654Y-272614D01*
X20378651Y-272613D01*
X20378649Y-272613D01*
X20286361Y-272613D01*
X20286359Y-272613D01*
X20286355Y-272614D01*
X20197218Y-296498D01*
X20197216Y-296499D01*
X20117293Y-342643D01*
X20052035Y-407901D01*
X20005891Y-487824D01*
X20005890Y-487826D01*
X19982006Y-576963D01*
X19982005Y-576971D01*
X18904302Y-576971D01*
X18904302Y-569469D01*
X18880416Y-480325D01*
X18834271Y-400401D01*
X18769014Y-335144D01*
X18769013Y-335143D01*
X18689090Y-288999D01*
X18689088Y-288998D01*
X18599951Y-265114D01*
X18599948Y-265113D01*
X18599946Y-265113D01*
X18507658Y-265113D01*
X18507656Y-265113D01*
X18507652Y-265114D01*
X18418515Y-288998D01*
X18418513Y-288999D01*
X18338590Y-335143D01*
X18273332Y-400401D01*
X18227188Y-480324D01*
X18227187Y-480326D01*
X18203303Y-569463D01*
X18203302Y-569471D01*
X17931697Y-569471D01*
X17871675Y-534817D01*
X17871673Y-534816D01*
X17782536Y-510932D01*
X17782533Y-510931D01*
X17782531Y-510931D01*
X17690243Y-510931D01*
X17690241Y-510931D01*
X17690237Y-510932D01*
X17601100Y-534816D01*
X17601098Y-534817D01*
X17521175Y-580961D01*
X17455917Y-646219D01*
X17409773Y-726142D01*
X17409772Y-726144D01*
X17385888Y-815281D01*
X17385887Y-815289D01*
X16049444Y-815289D01*
X16086619Y-750901D01*
X16110505Y-661757D01*
X16110505Y-569469D01*
X16086619Y-480325D01*
X16040474Y-400401D01*
X15975217Y-335144D01*
X15975216Y-335143D01*
X15895293Y-288999D01*
X15895291Y-288998D01*
X15806154Y-265114D01*
X15806151Y-265113D01*
X15806149Y-265113D01*
X15713861Y-265113D01*
X15713859Y-265113D01*
X15713855Y-265114D01*
X15624718Y-288998D01*
X15624716Y-288999D01*
X15544793Y-335143D01*
X15479535Y-400401D01*
X15433391Y-480324D01*
X15433390Y-480326D01*
X15409506Y-569463D01*
X15409505Y-569471D01*
X10147805Y-569471D01*
X10181619Y-510904D01*
X10205505Y-421760D01*
X10205505Y-329472D01*
X10181619Y-240328D01*
X10156073Y-196082D01*
X10150029Y-185613D01*
X10141120Y-135090D01*
X10150027Y-110618D01*
X10181619Y-55901D01*
X10205505Y33243D01*
X10205505Y125531D01*
X10181619Y214675D01*
X10135474Y294599D01*
X10070217Y359856D01*
X10070216Y359857D01*
X9990293Y406001D01*
X9990291Y406002D01*
X9901154Y429886D01*
X9901151Y429887D01*
X9901149Y429887D01*
X9808861Y429887D01*
X9808859Y429887D01*
X9808855Y429886D01*
X9719718Y406002D01*
X9719716Y406001D01*
X9639793Y359857D01*
X9574535Y294599D01*
X9528391Y214676D01*
X9528390Y214674D01*
X9504506Y125537D01*
X9504505Y125529D01*
X1828843Y125529D01*
X1820639Y248967D01*
X1765931Y505267D01*
X13862995Y505267D01*
X13862995Y412984D01*
X13862996Y412976D01*
X13886880Y323839D01*
X13886881Y323837D01*
X13933024Y243915D01*
X13933026Y243913D01*
X13998283Y178656D01*
X14078207Y132511D01*
X14167351Y108625D01*
X14167353Y108625D01*
X14259637Y108625D01*
X14259639Y108625D01*
X14341386Y130529D01*
X17329505Y130529D01*
X17329505Y38246D01*
X17329506Y38238D01*
X17353390Y-50899D01*
X17353391Y-50901D01*
X17373016Y-84893D01*
X17399536Y-130825D01*
X17464793Y-196082D01*
X17544717Y-242227D01*
X17633861Y-266113D01*
X17633863Y-266113D01*
X17726147Y-266113D01*
X17726149Y-266113D01*
X17815293Y-242227D01*
X17895217Y-196082D01*
X17960474Y-130825D01*
X18006619Y-50901D01*
X18030505Y38243D01*
X18030505Y130531D01*
X18006619Y219675D01*
X17960474Y299599D01*
X17895217Y364856D01*
X17895216Y364857D01*
X17815293Y411001D01*
X17815291Y411002D01*
X17726154Y434886D01*
X17726151Y434887D01*
X17726149Y434887D01*
X17633861Y434887D01*
X17633859Y434887D01*
X17633855Y434886D01*
X17544718Y411002D01*
X17544716Y411001D01*
X17464793Y364857D01*
X17399535Y299599D01*
X17353391Y219676D01*
X17353390Y219674D01*
X17329506Y130537D01*
X17329505Y130529D01*
X14341386Y130529D01*
X14348783Y132511D01*
X14428707Y178656D01*
X14493964Y243913D01*
X14493966Y243915D01*
X14523228Y294599D01*
X14540109Y323837D01*
X14563995Y412981D01*
X14563995Y505269D01*
X14540109Y594413D01*
X14493964Y674337D01*
X14428707Y739594D01*
X14428706Y739595D01*
X14348783Y785739D01*
X14348781Y785740D01*
X14259644Y809624D01*
X14259641Y809625D01*
X14259639Y809625D01*
X14167351Y809625D01*
X14167349Y809625D01*
X14167345Y809624D01*
X14078208Y785740D01*
X14078206Y785739D01*
X13998283Y739595D01*
X13933025Y674337D01*
X13886881Y594414D01*
X13886880Y594412D01*
X13862996Y505275D01*
X13862995Y505267D01*
X1765931Y505267D01*
X1765128Y509031D01*
X1759777Y523499D01*
X1672891Y758434D01*
X1672882Y758452D01*
X1545829Y992038D01*
X1545815Y992060D01*
X1527807Y1016141D01*
X1527804Y1016144D01*
X1497893Y1056142D01*
X12002960Y1056142D01*
X12002960Y963859D01*
X12002961Y963851D01*
X12026845Y874714D01*
X12026846Y874712D01*
X12064424Y809625D01*
X12072991Y794788D01*
X12138248Y729531D01*
X12218172Y683386D01*
X12307316Y659500D01*
X12307318Y659500D01*
X12399602Y659500D01*
X12399604Y659500D01*
X12488748Y683386D01*
X12568672Y729531D01*
X12633929Y794788D01*
X12680074Y874712D01*
X12703960Y963856D01*
X12703960Y1056144D01*
X12680074Y1145288D01*
X12633929Y1225212D01*
X12568672Y1290469D01*
X12568671Y1290470D01*
X12488748Y1336614D01*
X12488746Y1336615D01*
X12455478Y1345529D01*
X20229505Y1345529D01*
X20229505Y1253246D01*
X20229506Y1253238D01*
X20253070Y1165295D01*
X20253391Y1164099D01*
X20299536Y1084175D01*
X20364793Y1018918D01*
X20444717Y972773D01*
X20533861Y948887D01*
X20533863Y948887D01*
X20626147Y948887D01*
X20626149Y948887D01*
X20715293Y972773D01*
X20795217Y1018918D01*
X20860474Y1084175D01*
X20906619Y1164099D01*
X20930505Y1253243D01*
X20930505Y1345531D01*
X20906619Y1434675D01*
X20860474Y1514599D01*
X20795217Y1579856D01*
X20795216Y1579857D01*
X20715293Y1626001D01*
X20715291Y1626002D01*
X20626154Y1649886D01*
X20626151Y1649887D01*
X20626149Y1649887D01*
X20533861Y1649887D01*
X20533859Y1649887D01*
X20533855Y1649886D01*
X20444718Y1626002D01*
X20444716Y1626001D01*
X20364793Y1579857D01*
X20299535Y1514599D01*
X20253391Y1434676D01*
X20253390Y1434674D01*
X20229506Y1345537D01*
X20229505Y1345529D01*
X12455478Y1345529D01*
X12399609Y1360499D01*
X12399606Y1360500D01*
X12399604Y1360500D01*
X12307316Y1360500D01*
X12307314Y1360500D01*
X12307310Y1360499D01*
X12218173Y1336615D01*
X12218171Y1336614D01*
X12138248Y1290470D01*
X12072990Y1225212D01*
X12026846Y1145289D01*
X12026845Y1145287D01*
X12002961Y1056150D01*
X12002960Y1056142D01*
X1497893Y1056142D01*
X1399653Y1187510D01*
X1386569Y1205006D01*
X1198413Y1392920D01*
X1157237Y1423630D01*
X985263Y1551893D01*
X985243Y1551906D01*
X848600Y1626002D01*
X751483Y1678665D01*
X501953Y1770585D01*
X241818Y1825763D01*
X241816Y1825764D01*
X241812Y1825764D01*
X-23541Y1843057D01*
X-288644Y1822107D01*
X-547984Y1763351D01*
X-796227Y1667999D01*
X-796231Y1667997D01*
X-1028221Y1538028D01*
X-1239175Y1376122D01*
X-1239181Y1376118D01*
X-1424726Y1185628D01*
X-1581024Y970504D01*
X-1581033Y970488D01*
X-1704859Y735168D01*
X-1704865Y735153D01*
X-1793653Y484509D01*
X-1793655Y484504D01*
X-1845575Y223707D01*
X-1859551Y-41856D01*
X-1859551Y-41861D01*
X-1835290Y-306671D01*
X-1815345Y-390073D01*
X-1815344Y-390075D01*
X-1813654Y-397141D01*
X-1813663Y-397201D01*
X-1805247Y-432303D01*
X-1805248Y-432311D01*
X-1803856Y-439782D01*
X-1790349Y-540571D01*
X-1789873Y-555844D01*
X-1796291Y-646219D01*
X-1796804Y-653436D01*
X-1799435Y-668492D01*
X-1826010Y-762658D01*
X-1831638Y-776868D01*
X-1876748Y-863687D01*
X-1885141Y-876462D01*
X-1949352Y-955324D01*
X-1954480Y-961003D01*
X-2217846Y-1224363D01*
X-2217849Y-1224366D01*
X-2224235Y-1230751D01*
X-2230503Y-1236352D01*
X-2317857Y-1306013D01*
X-2332078Y-1314948D01*
X-2428926Y-1361586D01*
X-2444778Y-1367133D01*
X-2549574Y-1391050D01*
X-2566263Y-1392930D01*
X-2673757Y-1392929D01*
X-2690446Y-1391048D01*
X-2692488Y-1390582D01*
X-2700624Y-1388724D01*
X-2795240Y-1367128D01*
X-2811092Y-1361581D01*
X-2881603Y-1327624D01*
X-2907937Y-1314942D01*
X-2922156Y-1306007D01*
X-3009516Y-1236337D01*
X-3015786Y-1230734D01*
X-3041006Y-1205514D01*
X-4027562Y-218932D01*
X-4027563Y-218931D01*
X-4048137Y-198357D01*
X-4052123Y-194043D01*
X-4141509Y-89381D01*
X-4148427Y-79860D01*
X-4218794Y34974D01*
X-4224136Y45460D01*
X-4275676Y169895D01*
X-4279313Y181089D01*
X-4287376Y214676D01*
X-4294394Y243915D01*
X-4310749Y312046D01*
X-4312590Y323670D01*
X-4323385Y460883D01*
X-4323616Y466767D01*
X-4323615Y484504D01*
X-4323615Y503702D01*
X-4323573Y1921336D01*
X-4323269Y1928061D01*
X-4308984Y2085700D01*
X-4306555Y2098995D01*
X-4265089Y2248209D01*
X-4260311Y2260850D01*
X-4194965Y2395529D01*
X13869505Y2395529D01*
X13869505Y2303246D01*
X13869506Y2303238D01*
X13884253Y2248200D01*
X13893391Y2214099D01*
X13939536Y2134175D01*
X14004793Y2068918D01*
X14084717Y2022773D01*
X14173861Y1998887D01*
X14173863Y1998887D01*
X14266147Y1998887D01*
X14266149Y1998887D01*
X14355293Y2022773D01*
X14435217Y2068918D01*
X14500474Y2134175D01*
X14546619Y2214099D01*
X14570505Y2303243D01*
X14570505Y2395531D01*
X14546619Y2484675D01*
X14500474Y2564599D01*
X14481279Y2583794D01*
X14459597Y2630290D01*
X14472876Y2679845D01*
X14495274Y2695529D01*
X16729505Y2695529D01*
X16729505Y2603246D01*
X16729506Y2603238D01*
X16753390Y2514101D01*
X16753391Y2514099D01*
X16774770Y2477069D01*
X16799536Y2434175D01*
X16864793Y2368918D01*
X16944717Y2322773D01*
X17033861Y2298887D01*
X17033863Y2298887D01*
X17126147Y2298887D01*
X17126149Y2298887D01*
X17215293Y2322773D01*
X17295217Y2368918D01*
X17360474Y2434175D01*
X17366199Y2444091D01*
X17405496Y2477069D01*
X17456799Y2477072D01*
X17484185Y2459627D01*
X17494330Y2449482D01*
X17574254Y2403337D01*
X17663398Y2379451D01*
X17663400Y2379451D01*
X17755684Y2379451D01*
X17755686Y2379451D01*
X17844830Y2403337D01*
X17924754Y2449482D01*
X17990011Y2514739D01*
X18036156Y2594663D01*
X18060042Y2683807D01*
X18060042Y2776095D01*
X18036156Y2865239D01*
X17990011Y2945163D01*
X17924754Y3010420D01*
X17924753Y3010421D01*
X17844830Y3056565D01*
X17844828Y3056566D01*
X17755691Y3080450D01*
X17755688Y3080451D01*
X17755686Y3080451D01*
X17663398Y3080451D01*
X17663396Y3080451D01*
X17663392Y3080450D01*
X17574255Y3056566D01*
X17574253Y3056565D01*
X17494330Y3010421D01*
X17429072Y2945163D01*
X17423345Y2935243D01*
X17384044Y2902267D01*
X17332741Y2902269D01*
X17305361Y2919712D01*
X17295216Y2929857D01*
X17215293Y2976001D01*
X17215291Y2976002D01*
X17126154Y2999886D01*
X17126151Y2999887D01*
X17126149Y2999887D01*
X17033861Y2999887D01*
X17033859Y2999887D01*
X17033855Y2999886D01*
X16944718Y2976002D01*
X16944716Y2976001D01*
X16864793Y2929857D01*
X16799535Y2864599D01*
X16753391Y2784676D01*
X16753390Y2784674D01*
X16729506Y2695537D01*
X16729505Y2695529D01*
X14495274Y2695529D01*
X14514899Y2709271D01*
X14565293Y2722773D01*
X14603630Y2744907D01*
X14639123Y2765399D01*
X14639124Y2765400D01*
X14645214Y2768916D01*
X14645214Y2768917D01*
X14645217Y2768918D01*
X14710474Y2834175D01*
X14756619Y2914099D01*
X14780505Y3003243D01*
X14780505Y3095531D01*
X14756619Y3184675D01*
X14710474Y3264599D01*
X14645217Y3329856D01*
X14645216Y3329857D01*
X14565293Y3376001D01*
X14565291Y3376002D01*
X14476154Y3399886D01*
X14476151Y3399887D01*
X14476149Y3399887D01*
X14383861Y3399887D01*
X14383859Y3399887D01*
X14383855Y3399886D01*
X14294718Y3376002D01*
X14294716Y3376001D01*
X14214793Y3329857D01*
X14149535Y3264599D01*
X14103391Y3184676D01*
X14103390Y3184674D01*
X14079506Y3095537D01*
X14079505Y3095529D01*
X14079505Y3003246D01*
X14079506Y3003238D01*
X14103390Y2914101D01*
X14103391Y2914099D01*
X14149535Y2834176D01*
X14168730Y2814981D01*
X14190412Y2768485D01*
X14177133Y2718930D01*
X14135109Y2689504D01*
X14084718Y2676002D01*
X14084716Y2676001D01*
X14004793Y2629857D01*
X13939535Y2564599D01*
X13893391Y2484676D01*
X13893390Y2484674D01*
X13869506Y2395537D01*
X13869505Y2395529D01*
X-4194965Y2395529D01*
X-4192706Y2400185D01*
X-4185727Y2411769D01*
X-4178439Y2421714D01*
X-4092176Y2539426D01*
X-4087932Y2544698D01*
X-4063798Y2572061D01*
X-4063798Y2572064D01*
X-4058543Y2578021D01*
X-4058512Y2578066D01*
X-3992906Y2652468D01*
X-3822108Y2891957D01*
X-3676902Y3147773D01*
X-3566419Y3399886D01*
X-3558836Y3417189D01*
X-3555641Y3427171D01*
X-3469164Y3697346D01*
X-3408844Y3985249D01*
X-3407809Y3995236D01*
X-3397413Y4095529D01*
X1879505Y4095529D01*
X1879505Y4003246D01*
X1879506Y4003238D01*
X1903390Y3914101D01*
X1903391Y3914099D01*
X1941040Y3848889D01*
X1949536Y3834175D01*
X2014793Y3768918D01*
X2094717Y3722773D01*
X2183861Y3698887D01*
X2183863Y3698887D01*
X2276147Y3698887D01*
X2276149Y3698887D01*
X2365293Y3722773D01*
X2445217Y3768918D01*
X2470731Y3794433D01*
X2517226Y3816114D01*
X2566781Y3802837D01*
X2596208Y3760813D01*
X2591738Y3709705D01*
X2588718Y3703903D01*
X2583391Y3694677D01*
X2583390Y3694674D01*
X2559506Y3605537D01*
X2559505Y3605529D01*
X2559505Y3513246D01*
X2559506Y3513238D01*
X2583390Y3424101D01*
X2583391Y3424099D01*
X2618032Y3364099D01*
X2629536Y3344175D01*
X2694793Y3278918D01*
X2774717Y3232773D01*
X2863861Y3208887D01*
X2863863Y3208887D01*
X2956147Y3208887D01*
X2956149Y3208887D01*
X3045293Y3232773D01*
X3125217Y3278918D01*
X3190474Y3344175D01*
X3236619Y3424099D01*
X3260505Y3513243D01*
X3260505Y3545529D01*
X15029505Y3545529D01*
X15029505Y3453246D01*
X15029506Y3453238D01*
X15053390Y3364101D01*
X15053391Y3364099D01*
X15073161Y3329856D01*
X15099536Y3284175D01*
X15164793Y3218918D01*
X15244717Y3172773D01*
X15333861Y3148887D01*
X15333863Y3148887D01*
X15426147Y3148887D01*
X15426149Y3148887D01*
X15515293Y3172773D01*
X15595217Y3218918D01*
X15660474Y3284175D01*
X15706619Y3364099D01*
X15716381Y3400529D01*
X22729505Y3400529D01*
X22729505Y3308246D01*
X22729506Y3308238D01*
X22753390Y3219101D01*
X22753391Y3219099D01*
X22794571Y3147773D01*
X22799536Y3139175D01*
X22864793Y3073918D01*
X22944717Y3027773D01*
X23033861Y3003887D01*
X23033863Y3003887D01*
X23126147Y3003887D01*
X23126149Y3003887D01*
X23215293Y3027773D01*
X23295217Y3073918D01*
X23360474Y3139175D01*
X23406619Y3219099D01*
X23430505Y3308243D01*
X23430505Y3400531D01*
X23406619Y3489675D01*
X23360474Y3569599D01*
X23295217Y3634856D01*
X23295216Y3634857D01*
X23215293Y3681001D01*
X23215291Y3681002D01*
X23126154Y3704886D01*
X23126151Y3704887D01*
X23126149Y3704887D01*
X23033861Y3704887D01*
X23033859Y3704887D01*
X23033855Y3704886D01*
X22944718Y3681002D01*
X22944716Y3681001D01*
X22864793Y3634857D01*
X22799535Y3569599D01*
X22753391Y3489676D01*
X22753390Y3489674D01*
X22729506Y3400537D01*
X22729505Y3400529D01*
X15716381Y3400529D01*
X15716383Y3400537D01*
X15722900Y3424859D01*
X15727875Y3443428D01*
X15730505Y3453243D01*
X15730505Y3545531D01*
X15706619Y3634675D01*
X15660474Y3714599D01*
X15595217Y3779856D01*
X15595216Y3779857D01*
X15515293Y3826001D01*
X15515291Y3826002D01*
X15426154Y3849886D01*
X15426151Y3849887D01*
X15426149Y3849887D01*
X15333861Y3849887D01*
X15333859Y3849887D01*
X15333855Y3849886D01*
X15244718Y3826002D01*
X15244716Y3826001D01*
X15164793Y3779857D01*
X15099535Y3714599D01*
X15053391Y3634676D01*
X15053390Y3634674D01*
X15029506Y3545537D01*
X15029505Y3545529D01*
X3260505Y3545529D01*
X3260505Y3605531D01*
X3236619Y3694675D01*
X3190474Y3774599D01*
X3125217Y3839856D01*
X3125216Y3839857D01*
X3045293Y3886001D01*
X3045291Y3886002D01*
X2956154Y3909886D01*
X2956151Y3909887D01*
X2956149Y3909887D01*
X2863861Y3909887D01*
X2863859Y3909887D01*
X2863855Y3909886D01*
X2774718Y3886002D01*
X2774716Y3886001D01*
X2694793Y3839857D01*
X2669277Y3814341D01*
X2622780Y3792660D01*
X2573226Y3805939D01*
X2543800Y3847965D01*
X2548272Y3899073D01*
X2551295Y3904878D01*
X2556619Y3914099D01*
X2580505Y4003243D01*
X2580505Y4095531D01*
X2556619Y4184675D01*
X2521484Y4245529D01*
X8029505Y4245529D01*
X8029505Y4153246D01*
X8029506Y4153238D01*
X8053390Y4064101D01*
X8053391Y4064099D01*
X8098915Y3985249D01*
X8099536Y3984175D01*
X8164793Y3918918D01*
X8244717Y3872773D01*
X8333861Y3848887D01*
X8333863Y3848887D01*
X8426147Y3848887D01*
X8426149Y3848887D01*
X8515293Y3872773D01*
X8595217Y3918918D01*
X8660474Y3984175D01*
X8706619Y4064099D01*
X8730505Y4153243D01*
X8730505Y4245529D01*
X11729505Y4245529D01*
X11729505Y4153246D01*
X11729506Y4153238D01*
X11753390Y4064101D01*
X11753391Y4064099D01*
X11798915Y3985249D01*
X11799536Y3984175D01*
X11864793Y3918918D01*
X11944717Y3872773D01*
X12033861Y3848887D01*
X12033863Y3848887D01*
X12126147Y3848887D01*
X12126149Y3848887D01*
X12215293Y3872773D01*
X12295217Y3918918D01*
X12360474Y3984175D01*
X12406619Y4064099D01*
X12430505Y4153243D01*
X12430505Y4245531D01*
X12425530Y4264099D01*
X12414393Y4305665D01*
X12410509Y4320158D01*
X12961052Y4320158D01*
X12961052Y4227875D01*
X12961053Y4227867D01*
X12984937Y4138730D01*
X12984938Y4138728D01*
X13028025Y4064099D01*
X13031083Y4058804D01*
X13096340Y3993547D01*
X13176264Y3947402D01*
X13265408Y3923516D01*
X13265410Y3923516D01*
X13357694Y3923516D01*
X13357696Y3923516D01*
X13446840Y3947402D01*
X13526764Y3993547D01*
X13592021Y4058804D01*
X13638166Y4138728D01*
X13662052Y4227872D01*
X13662052Y4320160D01*
X13638166Y4409304D01*
X13592021Y4489228D01*
X13526764Y4554485D01*
X13526763Y4554486D01*
X13446840Y4600630D01*
X13446838Y4600631D01*
X13357701Y4624515D01*
X13357698Y4624516D01*
X13357696Y4624516D01*
X13265408Y4624516D01*
X13265406Y4624516D01*
X13265402Y4624515D01*
X13176265Y4600631D01*
X13176263Y4600630D01*
X13096340Y4554486D01*
X13031082Y4489228D01*
X12984938Y4409305D01*
X12984937Y4409303D01*
X12961053Y4320166D01*
X12961052Y4320158D01*
X12410509Y4320158D01*
X12406619Y4334674D01*
X12406618Y4334676D01*
X12395898Y4353243D01*
X12360474Y4414599D01*
X12295217Y4479856D01*
X12295216Y4479857D01*
X12215293Y4526001D01*
X12215291Y4526002D01*
X12126154Y4549886D01*
X12126151Y4549887D01*
X12126149Y4549887D01*
X12033861Y4549887D01*
X12033859Y4549887D01*
X12033855Y4549886D01*
X11944718Y4526002D01*
X11944716Y4526001D01*
X11864793Y4479857D01*
X11799535Y4414599D01*
X11753391Y4334676D01*
X11753390Y4334674D01*
X11729506Y4245537D01*
X11729505Y4245529D01*
X8730505Y4245529D01*
X8730505Y4245531D01*
X8706619Y4334675D01*
X8660474Y4414599D01*
X8595217Y4479856D01*
X8595216Y4479857D01*
X8515293Y4526001D01*
X8515291Y4526002D01*
X8426154Y4549886D01*
X8426151Y4549887D01*
X8426149Y4549887D01*
X8333861Y4549887D01*
X8333859Y4549887D01*
X8333855Y4549886D01*
X8244718Y4526002D01*
X8244716Y4526001D01*
X8164793Y4479857D01*
X8099535Y4414599D01*
X8053391Y4334676D01*
X8053390Y4334674D01*
X8029506Y4245537D01*
X8029505Y4245529D01*
X2521484Y4245529D01*
X2510474Y4264599D01*
X2445217Y4329856D01*
X2445216Y4329857D01*
X2365293Y4376001D01*
X2365291Y4376002D01*
X2276154Y4399886D01*
X2276151Y4399887D01*
X2276149Y4399887D01*
X2183861Y4399887D01*
X2183859Y4399887D01*
X2183855Y4399886D01*
X2094718Y4376002D01*
X2094716Y4376001D01*
X2014793Y4329857D01*
X1949535Y4264599D01*
X1903391Y4184676D01*
X1903390Y4184674D01*
X1879506Y4095537D01*
X1879505Y4095529D01*
X-3397413Y4095529D01*
X-3396102Y4108179D01*
X-3378520Y4277824D01*
X-3378519Y4277843D01*
X-3378515Y4305665D01*
X-3378505Y4376283D01*
X-3378497Y4376339D01*
X-3378489Y4645529D01*
X5429505Y4645529D01*
X5429505Y4553246D01*
X5429506Y4553238D01*
X5453390Y4464101D01*
X5453391Y4464099D01*
X5499048Y4385019D01*
X5499536Y4384175D01*
X5564793Y4318918D01*
X5644717Y4272773D01*
X5733861Y4248887D01*
X5733863Y4248887D01*
X5826147Y4248887D01*
X5826149Y4248887D01*
X5915293Y4272773D01*
X5972263Y4305665D01*
X5989123Y4315399D01*
X5989124Y4315400D01*
X5995214Y4318916D01*
X5995214Y4318917D01*
X5995217Y4318918D01*
X6060474Y4384175D01*
X6106619Y4464099D01*
X6130505Y4553243D01*
X6130505Y4645531D01*
X6106619Y4734675D01*
X6060474Y4814599D01*
X5995217Y4879856D01*
X5995216Y4879857D01*
X5915293Y4926001D01*
X5915291Y4926002D01*
X5826154Y4949886D01*
X5826151Y4949887D01*
X5826149Y4949887D01*
X5733861Y4949887D01*
X5733859Y4949887D01*
X5733855Y4949886D01*
X5644718Y4926002D01*
X5644716Y4926001D01*
X5564793Y4879857D01*
X5499535Y4814599D01*
X5453391Y4734676D01*
X5453390Y4734674D01*
X5429506Y4645537D01*
X5429505Y4645529D01*
X-3378489Y4645529D01*
X-3378489Y4650449D01*
X-3378461Y5559329D01*
X2107265Y5559329D01*
X2107265Y5467046D01*
X2107266Y5467038D01*
X2131150Y5377901D01*
X2131151Y5377899D01*
X2150332Y5344676D01*
X2177296Y5297975D01*
X2242553Y5232718D01*
X2322477Y5186573D01*
X2411621Y5162687D01*
X2411623Y5162687D01*
X2503907Y5162687D01*
X2503909Y5162687D01*
X2593053Y5186573D01*
X2672977Y5232718D01*
X2738234Y5297975D01*
X2768931Y5351142D01*
X10929500Y5351142D01*
X10929500Y5258859D01*
X10929501Y5258851D01*
X10953385Y5169714D01*
X10953386Y5169712D01*
X10991071Y5104440D01*
X10999531Y5089788D01*
X11064788Y5024531D01*
X11144712Y4978386D01*
X11233856Y4954500D01*
X11233858Y4954500D01*
X11326142Y4954500D01*
X11326144Y4954500D01*
X11415288Y4978386D01*
X11495212Y5024531D01*
X11560469Y5089788D01*
X11604415Y5165905D01*
X11643714Y5198880D01*
X11695017Y5198880D01*
X11734318Y5165903D01*
X11769804Y5104440D01*
X11779999Y5086783D01*
X11845256Y5021526D01*
X11925180Y4975381D01*
X12014324Y4951495D01*
X12014326Y4951495D01*
X12106610Y4951495D01*
X12106612Y4951495D01*
X12195756Y4975381D01*
X12275680Y5021526D01*
X12340937Y5086783D01*
X12387082Y5166707D01*
X12410968Y5255851D01*
X12410968Y5348139D01*
X12387082Y5437283D01*
X12357767Y5488057D01*
X12343397Y5512947D01*
X12343396Y5512949D01*
X12340939Y5517205D01*
X12312615Y5545529D01*
X15529505Y5545529D01*
X15529505Y5453246D01*
X15529506Y5453238D01*
X15553390Y5364101D01*
X15553391Y5364099D01*
X15599535Y5284176D01*
X15606291Y5277420D01*
X15627973Y5230924D01*
X15614694Y5181369D01*
X15606291Y5171354D01*
X15599535Y5164599D01*
X15553391Y5084676D01*
X15553390Y5084674D01*
X15529506Y4995537D01*
X15529505Y4995529D01*
X15529505Y4903246D01*
X15529506Y4903238D01*
X15553390Y4814101D01*
X15553391Y4814099D01*
X15599247Y4734674D01*
X15599536Y4734175D01*
X15664793Y4668918D01*
X15744717Y4622773D01*
X15833861Y4598887D01*
X15833863Y4598887D01*
X15926147Y4598887D01*
X15926149Y4598887D01*
X16015293Y4622773D01*
X16095217Y4668918D01*
X16160474Y4734175D01*
X16206619Y4814099D01*
X16230505Y4903243D01*
X16230505Y4995531D01*
X16206619Y5084675D01*
X16160474Y5164599D01*
X16153719Y5171354D01*
X16132037Y5217850D01*
X16142040Y5262300D01*
X16146907Y5270609D01*
X16160474Y5284175D01*
X16195897Y5345529D01*
X19979505Y5345529D01*
X19979505Y5253246D01*
X19979506Y5253238D01*
X20003390Y5164101D01*
X20003391Y5164099D01*
X20049534Y5084177D01*
X20049536Y5084175D01*
X20114793Y5018918D01*
X20118306Y5016890D01*
X20151284Y4977590D01*
X20151284Y4926287D01*
X20133841Y4898905D01*
X20099535Y4864599D01*
X20053391Y4784676D01*
X20053390Y4784674D01*
X20029506Y4695537D01*
X20029505Y4695529D01*
X20029505Y4603246D01*
X20029506Y4603238D01*
X20053390Y4514101D01*
X20053391Y4514099D01*
X20089699Y4451212D01*
X20099536Y4434175D01*
X20164793Y4368918D01*
X20244717Y4322773D01*
X20333861Y4298887D01*
X20333863Y4298887D01*
X20426147Y4298887D01*
X20426149Y4298887D01*
X20515293Y4322773D01*
X20595217Y4368918D01*
X20660474Y4434175D01*
X20667031Y4445532D01*
X27869505Y4445532D01*
X27869505Y4353246D01*
X27869506Y4353238D01*
X27893390Y4264101D01*
X27893391Y4264099D01*
X27939247Y4184674D01*
X27939536Y4184175D01*
X28004793Y4118918D01*
X28084717Y4072773D01*
X28173861Y4048887D01*
X28173863Y4048887D01*
X28266147Y4048887D01*
X28266149Y4048887D01*
X28355293Y4072773D01*
X28435217Y4118918D01*
X28500474Y4184175D01*
X28546619Y4264099D01*
X28570505Y4353243D01*
X28570505Y4353826D01*
X28570624Y4354155D01*
X28571146Y4358115D01*
X28572024Y4358000D01*
X28588052Y4402035D01*
X28626094Y4426270D01*
X28719173Y4451211D01*
X28719172Y4451211D01*
X28719177Y4451212D01*
X28799101Y4497357D01*
X28864358Y4562614D01*
X28910503Y4642538D01*
X28934389Y4731682D01*
X28934389Y4823970D01*
X28910503Y4913114D01*
X28864358Y4993038D01*
X28799101Y5058295D01*
X28799100Y5058296D01*
X28719177Y5104440D01*
X28719175Y5104441D01*
X28630038Y5128325D01*
X28630035Y5128326D01*
X28630033Y5128326D01*
X28537745Y5128326D01*
X28537743Y5128326D01*
X28537739Y5128325D01*
X28448602Y5104441D01*
X28448600Y5104440D01*
X28368677Y5058296D01*
X28303419Y4993038D01*
X28257275Y4913115D01*
X28257274Y4913113D01*
X28233390Y4823976D01*
X28233389Y4823968D01*
X28233389Y4823388D01*
X28233269Y4823060D01*
X28232748Y4819098D01*
X28231869Y4819214D01*
X28215842Y4775179D01*
X28177801Y4750944D01*
X28084718Y4726002D01*
X28084716Y4726001D01*
X28004793Y4679857D01*
X27939535Y4614599D01*
X27893391Y4534676D01*
X27893390Y4534674D01*
X27869506Y4445537D01*
X27869505Y4445532D01*
X20667031Y4445532D01*
X20706619Y4514099D01*
X20730505Y4603243D01*
X20730505Y4695531D01*
X20706619Y4784675D01*
X20660474Y4864599D01*
X20595217Y4929856D01*
X20595216Y4929857D01*
X20591700Y4931887D01*
X20558724Y4971188D01*
X20558726Y5022491D01*
X20576168Y5049870D01*
X20610474Y5084175D01*
X20656619Y5164099D01*
X20680505Y5253243D01*
X20680505Y5255529D01*
X21704505Y5255529D01*
X21704505Y5163246D01*
X21704506Y5163238D01*
X21728390Y5074101D01*
X21728391Y5074099D01*
X21773749Y4995537D01*
X21774536Y4994175D01*
X21839793Y4928918D01*
X21919717Y4882773D01*
X22008861Y4858887D01*
X22008863Y4858887D01*
X22101147Y4858887D01*
X22101149Y4858887D01*
X22190293Y4882773D01*
X22270217Y4928918D01*
X22335474Y4994175D01*
X22381619Y5074099D01*
X22405505Y5163243D01*
X22405505Y5255531D01*
X22387685Y5322037D01*
X22392156Y5373144D01*
X22428432Y5409421D01*
X22479540Y5413893D01*
X22499371Y5404113D01*
X22499752Y5404771D01*
X22540846Y5381045D01*
X22583934Y5356168D01*
X22673078Y5332282D01*
X22673080Y5332282D01*
X22765364Y5332282D01*
X22765366Y5332282D01*
X22854510Y5356168D01*
X22934434Y5402313D01*
X22999691Y5467570D01*
X23045836Y5547494D01*
X23069722Y5636638D01*
X23069722Y5728926D01*
X23045836Y5818070D01*
X22999691Y5897994D01*
X22934434Y5963251D01*
X22934433Y5963252D01*
X22854510Y6009396D01*
X22854508Y6009397D01*
X22765371Y6033281D01*
X22765368Y6033282D01*
X22765366Y6033282D01*
X22673078Y6033282D01*
X22673076Y6033282D01*
X22673072Y6033281D01*
X22583935Y6009397D01*
X22583933Y6009396D01*
X22504010Y5963252D01*
X22438752Y5897994D01*
X22392608Y5818071D01*
X22392607Y5818069D01*
X22368723Y5728932D01*
X22368722Y5728924D01*
X22368722Y5636641D01*
X22368723Y5636630D01*
X22386541Y5570133D01*
X22382070Y5519025D01*
X22345793Y5482749D01*
X22294685Y5478278D01*
X22274855Y5488057D01*
X22274475Y5487398D01*
X22190293Y5536001D01*
X22190291Y5536002D01*
X22101154Y5559886D01*
X22101151Y5559887D01*
X22101149Y5559887D01*
X22008861Y5559887D01*
X22008859Y5559887D01*
X22008855Y5559886D01*
X21919718Y5536002D01*
X21919716Y5536001D01*
X21839793Y5489857D01*
X21774535Y5424599D01*
X21728391Y5344676D01*
X21728390Y5344674D01*
X21704506Y5255537D01*
X21704505Y5255529D01*
X20680505Y5255529D01*
X20680505Y5345531D01*
X20656619Y5434675D01*
X20610474Y5514599D01*
X20545217Y5579856D01*
X20545216Y5579857D01*
X20465293Y5626001D01*
X20465291Y5626002D01*
X20376154Y5649886D01*
X20376151Y5649887D01*
X20376149Y5649887D01*
X20283861Y5649887D01*
X20283859Y5649887D01*
X20283855Y5649886D01*
X20194718Y5626002D01*
X20194716Y5626001D01*
X20114793Y5579857D01*
X20049535Y5514599D01*
X20003391Y5434676D01*
X20003390Y5434674D01*
X19979506Y5345537D01*
X19979505Y5345529D01*
X16195897Y5345529D01*
X16206619Y5364099D01*
X16216859Y5402313D01*
X16230503Y5453236D01*
X16230505Y5453243D01*
X16230505Y5545531D01*
X16206619Y5634675D01*
X16160474Y5714599D01*
X16095217Y5779856D01*
X16095216Y5779857D01*
X16015293Y5826001D01*
X16015291Y5826002D01*
X15926154Y5849886D01*
X15926151Y5849887D01*
X15926149Y5849887D01*
X15833861Y5849887D01*
X15833859Y5849887D01*
X15833855Y5849886D01*
X15744718Y5826002D01*
X15744716Y5826001D01*
X15664793Y5779857D01*
X15599535Y5714599D01*
X15553391Y5634676D01*
X15553390Y5634674D01*
X15529506Y5545537D01*
X15529505Y5545529D01*
X12312615Y5545529D01*
X12275679Y5582465D01*
X12195756Y5628609D01*
X12195754Y5628610D01*
X12106617Y5652494D01*
X12106614Y5652495D01*
X12106612Y5652495D01*
X12014324Y5652495D01*
X12014322Y5652495D01*
X12014318Y5652494D01*
X11925181Y5628610D01*
X11925179Y5628609D01*
X11845256Y5582465D01*
X11779997Y5517206D01*
X11736052Y5441092D01*
X11696752Y5408116D01*
X11645449Y5408116D01*
X11606149Y5441093D01*
X11599132Y5453246D01*
X11560469Y5520212D01*
X11495212Y5585469D01*
X11495211Y5585470D01*
X11415288Y5631614D01*
X11415286Y5631615D01*
X11326149Y5655499D01*
X11326146Y5655500D01*
X11326144Y5655500D01*
X11233856Y5655500D01*
X11233854Y5655500D01*
X11233850Y5655499D01*
X11144713Y5631615D01*
X11144711Y5631614D01*
X11064788Y5585470D01*
X10999530Y5520212D01*
X10953386Y5440289D01*
X10953385Y5440287D01*
X10929501Y5351150D01*
X10929500Y5351142D01*
X2768931Y5351142D01*
X2784379Y5377899D01*
X2808265Y5467043D01*
X2808265Y5559331D01*
X2784379Y5648475D01*
X2738234Y5728399D01*
X2672977Y5793656D01*
X2672976Y5793657D01*
X2593053Y5839801D01*
X2593051Y5839802D01*
X2503914Y5863686D01*
X2503911Y5863687D01*
X2503909Y5863687D01*
X2411621Y5863687D01*
X2411619Y5863687D01*
X2411615Y5863686D01*
X2322478Y5839802D01*
X2322476Y5839801D01*
X2242553Y5793657D01*
X2177295Y5728399D01*
X2131151Y5648476D01*
X2131150Y5648474D01*
X2107266Y5559337D01*
X2107265Y5559329D01*
X-3378461Y5559329D01*
X-3378461Y5564249D01*
X-3378443Y6145529D01*
X9329505Y6145529D01*
X9329505Y6053246D01*
X9329506Y6053238D01*
X9353390Y5964101D01*
X9353391Y5964099D01*
X9399428Y5884361D01*
X9399536Y5884175D01*
X9464793Y5818918D01*
X9544717Y5772773D01*
X9633861Y5748887D01*
X9633863Y5748887D01*
X9726147Y5748887D01*
X9726149Y5748887D01*
X9815293Y5772773D01*
X9895217Y5818918D01*
X9938977Y5862679D01*
X9985473Y5884361D01*
X10035028Y5871083D01*
X10056962Y5847146D01*
X10099901Y5772774D01*
X10103360Y5766784D01*
X10168617Y5701527D01*
X10248541Y5655382D01*
X10337685Y5631496D01*
X10337687Y5631496D01*
X10429971Y5631496D01*
X10429973Y5631496D01*
X10519117Y5655382D01*
X10599041Y5701527D01*
X10664298Y5766784D01*
X10710443Y5846708D01*
X10734329Y5935852D01*
X10734329Y6028140D01*
X10710443Y6117284D01*
X10664298Y6197208D01*
X10599041Y6262465D01*
X10599040Y6262466D01*
X10519117Y6308610D01*
X10519115Y6308611D01*
X10429978Y6332495D01*
X10429975Y6332496D01*
X10429973Y6332496D01*
X10337685Y6332496D01*
X10337683Y6332496D01*
X10337679Y6332495D01*
X10248542Y6308611D01*
X10248540Y6308610D01*
X10168617Y6262466D01*
X10124855Y6218704D01*
X10078359Y6197023D01*
X10028804Y6210302D01*
X10006871Y6234238D01*
X9990573Y6262466D01*
X9960474Y6314599D01*
X9895217Y6379856D01*
X9895216Y6379857D01*
X9815293Y6426001D01*
X9815291Y6426002D01*
X9726154Y6449886D01*
X9726151Y6449887D01*
X9726149Y6449887D01*
X9633861Y6449887D01*
X9633859Y6449887D01*
X9633855Y6449886D01*
X9544718Y6426002D01*
X9544716Y6426001D01*
X9464793Y6379857D01*
X9399535Y6314599D01*
X9353391Y6234676D01*
X9353390Y6234674D01*
X9329506Y6145537D01*
X9329505Y6145529D01*
X-3378443Y6145529D01*
X-3378443Y6150449D01*
X-3378419Y6939795D01*
X8530239Y6939795D01*
X8530239Y6847512D01*
X8530240Y6847504D01*
X8554124Y6758367D01*
X8554125Y6758365D01*
X8596958Y6684176D01*
X8600270Y6678441D01*
X8665527Y6613184D01*
X8745451Y6567039D01*
X8834595Y6543153D01*
X8834597Y6543153D01*
X8926881Y6543153D01*
X8926883Y6543153D01*
X9016027Y6567039D01*
X9095951Y6613184D01*
X9161208Y6678441D01*
X9207353Y6758365D01*
X9231239Y6847509D01*
X9231239Y6939797D01*
X9229703Y6945529D01*
X10129505Y6945529D01*
X10129505Y6853246D01*
X10129506Y6853238D01*
X10153390Y6764101D01*
X10153391Y6764099D01*
X10196937Y6688675D01*
X10199536Y6684175D01*
X10264793Y6618918D01*
X10344717Y6572773D01*
X10433861Y6548887D01*
X10433863Y6548887D01*
X10526147Y6548887D01*
X10526149Y6548887D01*
X10615293Y6572773D01*
X10661633Y6599528D01*
X15118859Y6599528D01*
X15118859Y6507245D01*
X15118860Y6507237D01*
X15142744Y6418100D01*
X15142745Y6418098D01*
X15182249Y6349675D01*
X15188890Y6338174D01*
X15254147Y6272917D01*
X15334071Y6226772D01*
X15423215Y6202886D01*
X15423217Y6202886D01*
X15515501Y6202886D01*
X15515503Y6202886D01*
X15604647Y6226772D01*
X15663115Y6260529D01*
X16284505Y6260529D01*
X16284505Y6168246D01*
X16284506Y6168238D01*
X16308390Y6079101D01*
X16308391Y6079099D01*
X16348634Y6009396D01*
X16354536Y5999175D01*
X16419793Y5933918D01*
X16499717Y5887773D01*
X16588861Y5863887D01*
X16588863Y5863887D01*
X16681147Y5863887D01*
X16681149Y5863887D01*
X16770293Y5887773D01*
X16850217Y5933918D01*
X16915474Y5999175D01*
X16961619Y6079099D01*
X16985505Y6168243D01*
X16985505Y6260531D01*
X16961619Y6349675D01*
X16915474Y6429599D01*
X16850217Y6494856D01*
X16850216Y6494857D01*
X16770293Y6541001D01*
X16770291Y6541002D01*
X16681154Y6564886D01*
X16681151Y6564887D01*
X16681149Y6564887D01*
X16588861Y6564887D01*
X16588859Y6564887D01*
X16588855Y6564886D01*
X16499718Y6541002D01*
X16499716Y6541001D01*
X16419793Y6494857D01*
X16354535Y6429599D01*
X16308391Y6349676D01*
X16308390Y6349674D01*
X16284506Y6260537D01*
X16284505Y6260529D01*
X15663115Y6260529D01*
X15684571Y6272917D01*
X15749828Y6338174D01*
X15795973Y6418098D01*
X15819859Y6507242D01*
X15819859Y6599530D01*
X15795973Y6688674D01*
X15749828Y6768598D01*
X15684571Y6833855D01*
X15684570Y6833856D01*
X15604647Y6880000D01*
X15604645Y6880001D01*
X15515508Y6903885D01*
X15515505Y6903886D01*
X15515503Y6903886D01*
X15423215Y6903886D01*
X15423213Y6903886D01*
X15423209Y6903885D01*
X15334072Y6880001D01*
X15334070Y6880000D01*
X15254147Y6833856D01*
X15188889Y6768598D01*
X15142745Y6688675D01*
X15142744Y6688673D01*
X15118860Y6599536D01*
X15118859Y6599528D01*
X10661633Y6599528D01*
X10695217Y6618918D01*
X10760474Y6684175D01*
X10806619Y6764099D01*
X10830505Y6853243D01*
X10830505Y6945531D01*
X10806619Y7034675D01*
X10760474Y7114599D01*
X10695217Y7179856D01*
X10695216Y7179857D01*
X10615293Y7226001D01*
X10615291Y7226002D01*
X10526154Y7249886D01*
X10526151Y7249887D01*
X10526149Y7249887D01*
X10433861Y7249887D01*
X10433859Y7249887D01*
X10433855Y7249886D01*
X10344718Y7226002D01*
X10344716Y7226001D01*
X10264793Y7179857D01*
X10199535Y7114599D01*
X10153391Y7034676D01*
X10153390Y7034674D01*
X10129506Y6945537D01*
X10129505Y6945529D01*
X9229703Y6945529D01*
X9207353Y7028941D01*
X9161208Y7108865D01*
X9095951Y7174122D01*
X9095950Y7174123D01*
X9016027Y7220267D01*
X9016025Y7220268D01*
X8926888Y7244152D01*
X8926885Y7244153D01*
X8926883Y7244153D01*
X8834595Y7244153D01*
X8834593Y7244153D01*
X8834589Y7244152D01*
X8745452Y7220268D01*
X8745450Y7220267D01*
X8665527Y7174123D01*
X8600269Y7108865D01*
X8554125Y7028942D01*
X8554124Y7028940D01*
X8530240Y6939803D01*
X8530239Y6939795D01*
X-3378419Y6939795D01*
X-3378419Y6944715D01*
X-3378385Y8058029D01*
X5934505Y8058029D01*
X5934505Y7965746D01*
X5934506Y7965738D01*
X5958390Y7876601D01*
X5958391Y7876599D01*
X6002058Y7800966D01*
X6004536Y7796675D01*
X6069793Y7731418D01*
X6149717Y7685273D01*
X6238861Y7661387D01*
X6238863Y7661387D01*
X6331147Y7661387D01*
X6331149Y7661387D01*
X6420293Y7685273D01*
X6500217Y7731418D01*
X6565474Y7796675D01*
X6585597Y7831529D01*
X10972136Y7831529D01*
X10972136Y7739246D01*
X10972137Y7739238D01*
X10996021Y7650101D01*
X10996022Y7650099D01*
X11039926Y7574055D01*
X11042167Y7570175D01*
X11107424Y7504918D01*
X11187348Y7458773D01*
X11276492Y7434887D01*
X11276494Y7434887D01*
X11368778Y7434887D01*
X11368780Y7434887D01*
X11457924Y7458773D01*
X11537848Y7504918D01*
X11603105Y7570175D01*
X11649250Y7650099D01*
X11661423Y7695529D01*
X16829505Y7695529D01*
X16829505Y7603246D01*
X16829506Y7603238D01*
X16853390Y7514101D01*
X16853391Y7514099D01*
X16899123Y7434889D01*
X16899536Y7434175D01*
X16964793Y7368918D01*
X17044717Y7322773D01*
X17133861Y7298887D01*
X17133863Y7298887D01*
X17226147Y7298887D01*
X17226149Y7298887D01*
X17315293Y7322773D01*
X17395217Y7368918D01*
X17460474Y7434175D01*
X17506619Y7514099D01*
X17530505Y7603243D01*
X17530505Y7640529D01*
X20889505Y7640529D01*
X20889505Y7548246D01*
X20889506Y7548238D01*
X20913390Y7459101D01*
X20913391Y7459099D01*
X20956051Y7385210D01*
X20959536Y7379175D01*
X21024793Y7313918D01*
X21104717Y7267773D01*
X21193861Y7243887D01*
X21193863Y7243887D01*
X21286147Y7243887D01*
X21286149Y7243887D01*
X21375293Y7267773D01*
X21455217Y7313918D01*
X21520474Y7379175D01*
X21566619Y7459099D01*
X21590505Y7548243D01*
X21590505Y7640531D01*
X21582990Y7668575D01*
X21575287Y7697327D01*
X21571403Y7711821D01*
X30065368Y7711821D01*
X30065368Y7619538D01*
X30065369Y7619530D01*
X30089253Y7530393D01*
X30089254Y7530391D01*
X30130602Y7458774D01*
X30135399Y7450467D01*
X30200656Y7385210D01*
X30280580Y7339065D01*
X30369724Y7315179D01*
X30369726Y7315179D01*
X30462010Y7315179D01*
X30462012Y7315179D01*
X30551156Y7339065D01*
X30631080Y7385210D01*
X30696337Y7450467D01*
X30742482Y7530391D01*
X30766368Y7619535D01*
X30766368Y7711823D01*
X30742482Y7800967D01*
X30738202Y7808380D01*
X30703732Y7868084D01*
X30703731Y7868086D01*
X30696339Y7880889D01*
X30676562Y7900666D01*
X31149500Y7900666D01*
X31149500Y7808383D01*
X31149501Y7808375D01*
X31173385Y7719238D01*
X31173386Y7719236D01*
X31218823Y7640537D01*
X31219531Y7639312D01*
X31284788Y7574055D01*
X31364712Y7527910D01*
X31453856Y7504024D01*
X31453858Y7504024D01*
X31546142Y7504024D01*
X31546144Y7504024D01*
X31635288Y7527910D01*
X31715212Y7574055D01*
X31780469Y7639312D01*
X31826614Y7719236D01*
X31850500Y7808380D01*
X31850500Y7900668D01*
X31826614Y7989812D01*
X31780469Y8069736D01*
X31715212Y8134993D01*
X31715211Y8134994D01*
X31635288Y8181138D01*
X31635286Y8181139D01*
X31546149Y8205023D01*
X31546146Y8205024D01*
X31546144Y8205024D01*
X31453856Y8205024D01*
X31453854Y8205024D01*
X31453850Y8205023D01*
X31364713Y8181139D01*
X31364711Y8181138D01*
X31284788Y8134994D01*
X31219530Y8069736D01*
X31173386Y7989813D01*
X31173385Y7989811D01*
X31149501Y7900674D01*
X31149500Y7900666D01*
X30676562Y7900666D01*
X30631079Y7946149D01*
X30551156Y7992293D01*
X30551154Y7992294D01*
X30462017Y8016178D01*
X30462014Y8016179D01*
X30462012Y8016179D01*
X30369724Y8016179D01*
X30369722Y8016179D01*
X30369718Y8016178D01*
X30280581Y7992294D01*
X30280579Y7992293D01*
X30200656Y7946149D01*
X30135398Y7880891D01*
X30089254Y7800968D01*
X30089253Y7800966D01*
X30065369Y7711829D01*
X30065368Y7711821D01*
X21571403Y7711821D01*
X21566619Y7729674D01*
X21566618Y7729676D01*
X21565612Y7731418D01*
X21520474Y7809599D01*
X21455217Y7874856D01*
X21455216Y7874857D01*
X21375293Y7921001D01*
X21375291Y7921002D01*
X21286154Y7944886D01*
X21286151Y7944887D01*
X21286149Y7944887D01*
X21193861Y7944887D01*
X21193859Y7944887D01*
X21193855Y7944886D01*
X21104718Y7921002D01*
X21104716Y7921001D01*
X21024793Y7874857D01*
X20959535Y7809599D01*
X20913391Y7729676D01*
X20913390Y7729674D01*
X20889506Y7640537D01*
X20889505Y7640529D01*
X17530505Y7640529D01*
X17530505Y7695531D01*
X17506619Y7784675D01*
X17460474Y7864599D01*
X17395217Y7929856D01*
X17395216Y7929857D01*
X17315293Y7976001D01*
X17315291Y7976002D01*
X17226154Y7999886D01*
X17226151Y7999887D01*
X17226149Y7999887D01*
X17133861Y7999887D01*
X17133859Y7999887D01*
X17133855Y7999886D01*
X17044718Y7976002D01*
X17044716Y7976001D01*
X16964793Y7929857D01*
X16899535Y7864599D01*
X16853391Y7784676D01*
X16853390Y7784674D01*
X16829506Y7695537D01*
X16829505Y7695529D01*
X11661423Y7695529D01*
X11667943Y7719859D01*
X11672217Y7735814D01*
X11673136Y7739243D01*
X11673136Y7831531D01*
X11649250Y7920675D01*
X11603105Y8000599D01*
X11537848Y8065856D01*
X11534561Y8069143D01*
X11534285Y8069268D01*
X11525012Y8088594D01*
X11513502Y8106671D01*
X11514113Y8111307D01*
X11512091Y8115522D01*
X11517408Y8136282D01*
X11520212Y8157533D01*
X11523957Y8161851D01*
X11524821Y8165221D01*
X11535323Y8174953D01*
X11543035Y8183841D01*
X11546035Y8185993D01*
X11608217Y8221893D01*
X11638834Y8252511D01*
X11643827Y8256089D01*
X11662967Y8261446D01*
X11680983Y8269846D01*
X11687116Y8268203D01*
X11693232Y8269914D01*
X11711340Y8261713D01*
X11730538Y8256569D01*
X11739735Y8248853D01*
X11739965Y8248748D01*
X11740036Y8248600D01*
X11740554Y8248165D01*
X11795698Y8193021D01*
X11875622Y8146876D01*
X11964766Y8122990D01*
X11964768Y8122990D01*
X12057052Y8122990D01*
X12057054Y8122990D01*
X12146198Y8146876D01*
X12226122Y8193021D01*
X12291379Y8258278D01*
X12337524Y8338202D01*
X12356904Y8410529D01*
X15469505Y8410529D01*
X15469505Y8318246D01*
X15469506Y8318238D01*
X15493390Y8229101D01*
X15493391Y8229099D01*
X15537984Y8151862D01*
X15539536Y8149175D01*
X15604793Y8083918D01*
X15684717Y8037773D01*
X15773861Y8013887D01*
X15773863Y8013887D01*
X15866147Y8013887D01*
X15866149Y8013887D01*
X15955293Y8037773D01*
X16035217Y8083918D01*
X16100474Y8149175D01*
X16102026Y8151862D01*
X16125789Y8193021D01*
X16130724Y8201568D01*
X16170022Y8234544D01*
X16221325Y8234544D01*
X16260625Y8201568D01*
X16260626Y8201568D01*
X16299536Y8134175D01*
X16364793Y8068918D01*
X16444717Y8022773D01*
X16533861Y7998887D01*
X16533863Y7998887D01*
X16626147Y7998887D01*
X16626149Y7998887D01*
X16715293Y8022773D01*
X16795217Y8068918D01*
X16860474Y8134175D01*
X16906619Y8214099D01*
X16930505Y8303243D01*
X16930505Y8395531D01*
X16906619Y8484675D01*
X16860474Y8564599D01*
X16795217Y8629856D01*
X16795216Y8629857D01*
X16715293Y8676001D01*
X16715291Y8676002D01*
X16626154Y8699886D01*
X16626151Y8699887D01*
X16626149Y8699887D01*
X16533861Y8699887D01*
X16533859Y8699887D01*
X16533855Y8699886D01*
X16444718Y8676002D01*
X16444716Y8676001D01*
X16364793Y8629857D01*
X16299536Y8564600D01*
X16284574Y8538685D01*
X16269288Y8512208D01*
X16269287Y8512207D01*
X16229986Y8479231D01*
X16178683Y8479231D01*
X16139383Y8512208D01*
X16100474Y8579599D01*
X16035216Y8644857D01*
X15955293Y8691001D01*
X15955291Y8691002D01*
X15866154Y8714886D01*
X15866151Y8714887D01*
X15866149Y8714887D01*
X15773861Y8714887D01*
X15773859Y8714887D01*
X15773855Y8714886D01*
X15684718Y8691002D01*
X15684716Y8691001D01*
X15604793Y8644857D01*
X15539535Y8579599D01*
X15493391Y8499676D01*
X15493390Y8499674D01*
X15469506Y8410537D01*
X15469505Y8410529D01*
X12356904Y8410529D01*
X12361410Y8427346D01*
X12361410Y8519634D01*
X12337524Y8608778D01*
X12291379Y8688702D01*
X12226122Y8753959D01*
X12226121Y8753960D01*
X12146198Y8800104D01*
X12146196Y8800105D01*
X12057059Y8823989D01*
X12057056Y8823990D01*
X12057054Y8823990D01*
X11964766Y8823990D01*
X11964764Y8823990D01*
X11964760Y8823989D01*
X11875623Y8800105D01*
X11875621Y8800104D01*
X11795698Y8753960D01*
X11769425Y8727687D01*
X11722928Y8706006D01*
X11673374Y8719285D01*
X11663360Y8727688D01*
X11608216Y8782832D01*
X11528293Y8828976D01*
X11528291Y8828977D01*
X11439154Y8852861D01*
X11439151Y8852862D01*
X11439149Y8852862D01*
X11346861Y8852862D01*
X11337542Y8850366D01*
X11337529Y8850363D01*
X11257718Y8828977D01*
X11257716Y8828976D01*
X11177793Y8782832D01*
X11112535Y8717574D01*
X11066391Y8637651D01*
X11066390Y8637649D01*
X11042506Y8548512D01*
X11042505Y8548504D01*
X11042505Y8456221D01*
X11042506Y8456213D01*
X11066390Y8367076D01*
X11066391Y8367074D01*
X11112535Y8287151D01*
X11181269Y8218417D01*
X11179491Y8216640D01*
X11202134Y8181095D01*
X11195435Y8130231D01*
X11166412Y8099915D01*
X11107426Y8065859D01*
X11042166Y8000599D01*
X10996022Y7920676D01*
X10996021Y7920674D01*
X10972137Y7831537D01*
X10972136Y7831529D01*
X6585597Y7831529D01*
X6611619Y7876599D01*
X6635505Y7965743D01*
X6635505Y8058031D01*
X6611619Y8147175D01*
X6565474Y8227099D01*
X6543534Y8249039D01*
X6521852Y8295535D01*
X6535131Y8345090D01*
X6577155Y8374516D01*
X6645293Y8392773D01*
X6725217Y8438918D01*
X6790474Y8504175D01*
X6836619Y8584099D01*
X6843969Y8611529D01*
X9320240Y8611529D01*
X9320240Y8519246D01*
X9320241Y8519238D01*
X9344125Y8430101D01*
X9344126Y8430099D01*
X9386469Y8356759D01*
X9390271Y8350175D01*
X9455528Y8284918D01*
X9535452Y8238773D01*
X9624596Y8214887D01*
X9624598Y8214887D01*
X9716882Y8214887D01*
X9716884Y8214887D01*
X9806028Y8238773D01*
X9885952Y8284918D01*
X9951209Y8350175D01*
X9997354Y8430099D01*
X9997355Y8430101D01*
X9999022Y8432988D01*
X10038323Y8465965D01*
X10089626Y8465965D01*
X10128926Y8432988D01*
X10136418Y8414900D01*
X10151864Y8357255D01*
X10151865Y8357253D01*
X10192339Y8287150D01*
X10198010Y8277329D01*
X10263267Y8212072D01*
X10343191Y8165927D01*
X10432335Y8142041D01*
X10432337Y8142041D01*
X10524621Y8142041D01*
X10524623Y8142041D01*
X10613767Y8165927D01*
X10693691Y8212072D01*
X10758948Y8277329D01*
X10805093Y8357253D01*
X10828979Y8446397D01*
X10828979Y8538685D01*
X10805093Y8627829D01*
X10758948Y8707753D01*
X10693691Y8773010D01*
X10693690Y8773011D01*
X10613767Y8819155D01*
X10613765Y8819156D01*
X10524628Y8843040D01*
X10524625Y8843041D01*
X10524623Y8843041D01*
X10432335Y8843041D01*
X10432333Y8843041D01*
X10432329Y8843040D01*
X10343192Y8819156D01*
X10343190Y8819155D01*
X10263267Y8773011D01*
X10198007Y8707751D01*
X10150195Y8624940D01*
X10110894Y8591964D01*
X10059591Y8591965D01*
X10020291Y8624942D01*
X10012801Y8643024D01*
X9997354Y8700675D01*
X9951209Y8780599D01*
X9885952Y8845856D01*
X9885949Y8845859D01*
X9855618Y8863371D01*
X9822642Y8902672D01*
X9822643Y8953975D01*
X9855620Y8993274D01*
X9856085Y8993542D01*
X9897376Y9017382D01*
X9962633Y9082639D01*
X10008778Y9162563D01*
X10032664Y9251707D01*
X10032664Y9343995D01*
X10008778Y9433139D01*
X9962633Y9513063D01*
X9897376Y9578320D01*
X9897375Y9578321D01*
X9817452Y9624465D01*
X9817450Y9624466D01*
X9728313Y9648350D01*
X9728310Y9648351D01*
X9728308Y9648351D01*
X9636020Y9648351D01*
X9636018Y9648351D01*
X9636014Y9648350D01*
X9546877Y9624466D01*
X9546875Y9624465D01*
X9466952Y9578321D01*
X9401694Y9513063D01*
X9355550Y9433140D01*
X9355549Y9433138D01*
X9331665Y9344001D01*
X9331664Y9343993D01*
X9331664Y9251710D01*
X9331665Y9251702D01*
X9355549Y9162565D01*
X9355550Y9162563D01*
X9400072Y9085449D01*
X9401695Y9082639D01*
X9466952Y9017382D01*
X9494708Y9001357D01*
X9497285Y8999869D01*
X9530261Y8960568D01*
X9530261Y8909265D01*
X9497285Y8869966D01*
X9455530Y8845859D01*
X9390270Y8780599D01*
X9344126Y8700676D01*
X9344125Y8700674D01*
X9320241Y8611537D01*
X9320240Y8611529D01*
X6843969Y8611529D01*
X6860505Y8673243D01*
X6860505Y8765531D01*
X6836619Y8854675D01*
X6790474Y8934599D01*
X6725217Y8999856D01*
X6725216Y8999857D01*
X6645293Y9046001D01*
X6645291Y9046002D01*
X6556154Y9069886D01*
X6556151Y9069887D01*
X6556149Y9069887D01*
X6463861Y9069887D01*
X6463859Y9069887D01*
X6463855Y9069886D01*
X6374718Y9046002D01*
X6374716Y9046001D01*
X6294793Y8999857D01*
X6229535Y8934599D01*
X6183391Y8854676D01*
X6183390Y8854674D01*
X6159506Y8765537D01*
X6159505Y8765529D01*
X6159505Y8673246D01*
X6159506Y8673238D01*
X6183390Y8584101D01*
X6183391Y8584099D01*
X6229535Y8504176D01*
X6251475Y8482236D01*
X6273157Y8435740D01*
X6259878Y8386185D01*
X6217854Y8356759D01*
X6149718Y8338502D01*
X6149716Y8338501D01*
X6069793Y8292357D01*
X6004535Y8227099D01*
X5958391Y8147176D01*
X5958390Y8147174D01*
X5934506Y8058037D01*
X5934505Y8058029D01*
X-3378385Y8058029D01*
X-3378385Y8062949D01*
X-3378354Y9080529D01*
X1719505Y9080529D01*
X1719505Y8988246D01*
X1719506Y8988238D01*
X1743390Y8899101D01*
X1743391Y8899099D01*
X1786756Y8823989D01*
X1789536Y8819175D01*
X1854793Y8753918D01*
X1934717Y8707773D01*
X2023861Y8683887D01*
X2023863Y8683887D01*
X2116147Y8683887D01*
X2116149Y8683887D01*
X2205293Y8707773D01*
X2285217Y8753918D01*
X2350474Y8819175D01*
X2396619Y8899099D01*
X2420505Y8988243D01*
X2420505Y9080531D01*
X2396619Y9169675D01*
X2350474Y9249599D01*
X2285217Y9314856D01*
X2285216Y9314857D01*
X2205293Y9361001D01*
X2205291Y9361002D01*
X2116154Y9384886D01*
X2116151Y9384887D01*
X2116149Y9384887D01*
X2023861Y9384887D01*
X2023859Y9384887D01*
X2023855Y9384886D01*
X1934718Y9361002D01*
X1934716Y9361001D01*
X1854793Y9314857D01*
X1789535Y9249599D01*
X1743391Y9169676D01*
X1743390Y9169674D01*
X1719506Y9080537D01*
X1719505Y9080529D01*
X-3378354Y9080529D01*
X-3378354Y9085449D01*
X-3378297Y10965527D01*
X749505Y10965527D01*
X749505Y10873244D01*
X749506Y10873236D01*
X773390Y10784099D01*
X773391Y10784097D01*
X806422Y10726886D01*
X815331Y10676363D01*
X806422Y10651886D01*
X773391Y10594676D01*
X773390Y10594674D01*
X749506Y10505537D01*
X749505Y10505529D01*
X749505Y10413246D01*
X749506Y10413238D01*
X773390Y10324101D01*
X773391Y10324098D01*
X812917Y10255637D01*
X821826Y10205113D01*
X812917Y10180637D01*
X773391Y10112177D01*
X773390Y10112174D01*
X749506Y10023037D01*
X749505Y10023029D01*
X749505Y9930746D01*
X749506Y9930738D01*
X773390Y9841601D01*
X773391Y9841598D01*
X804257Y9788137D01*
X813166Y9737613D01*
X804257Y9713137D01*
X773391Y9659677D01*
X773390Y9659674D01*
X749506Y9570537D01*
X749505Y9570529D01*
X749505Y9478246D01*
X749506Y9478238D01*
X773390Y9389101D01*
X773391Y9389099D01*
X813556Y9319531D01*
X819536Y9309175D01*
X884793Y9243918D01*
X964717Y9197773D01*
X1053861Y9173887D01*
X1053863Y9173887D01*
X1146147Y9173887D01*
X1146149Y9173887D01*
X1235293Y9197773D01*
X1315217Y9243918D01*
X1380474Y9309175D01*
X1426619Y9389099D01*
X1450505Y9478243D01*
X1450505Y9570531D01*
X1430245Y9646142D01*
X5499500Y9646142D01*
X5499500Y9553859D01*
X5499501Y9553851D01*
X5523385Y9464714D01*
X5523386Y9464712D01*
X5569473Y9384887D01*
X5569531Y9384788D01*
X5634788Y9319531D01*
X5714712Y9273386D01*
X5803856Y9249500D01*
X5803858Y9249500D01*
X5896142Y9249500D01*
X5896144Y9249500D01*
X5985288Y9273386D01*
X6065212Y9319531D01*
X6130469Y9384788D01*
X6176614Y9464712D01*
X6200500Y9553856D01*
X6200500Y9641929D01*
X6466662Y9641929D01*
X6466662Y9549646D01*
X6466663Y9549638D01*
X6490547Y9460501D01*
X6490548Y9460499D01*
X6534260Y9384788D01*
X6536693Y9380575D01*
X6601950Y9315318D01*
X6681874Y9269173D01*
X6771018Y9245287D01*
X6771020Y9245287D01*
X6863304Y9245287D01*
X6863306Y9245287D01*
X6952450Y9269173D01*
X7032374Y9315318D01*
X7097631Y9380575D01*
X7143776Y9460499D01*
X7167662Y9549643D01*
X7167662Y9641931D01*
X7143776Y9731075D01*
X7097631Y9810999D01*
X7032374Y9876256D01*
X7032373Y9876257D01*
X6952450Y9922401D01*
X6952448Y9922402D01*
X6863311Y9946286D01*
X6863308Y9946287D01*
X6863306Y9946287D01*
X6771018Y9946287D01*
X6771016Y9946287D01*
X6771012Y9946286D01*
X6681875Y9922402D01*
X6681873Y9922401D01*
X6601950Y9876257D01*
X6536692Y9810999D01*
X6490548Y9731076D01*
X6490547Y9731074D01*
X6466663Y9641937D01*
X6466662Y9641929D01*
X6200500Y9641929D01*
X6200500Y9646144D01*
X6176614Y9735288D01*
X6130469Y9815212D01*
X6065212Y9880469D01*
X6065211Y9880470D01*
X5985288Y9926614D01*
X5985286Y9926615D01*
X5896149Y9950499D01*
X5896146Y9950500D01*
X5896144Y9950500D01*
X5803856Y9950500D01*
X5803854Y9950500D01*
X5803850Y9950499D01*
X5714713Y9926615D01*
X5714711Y9926614D01*
X5634788Y9880470D01*
X5569530Y9815212D01*
X5523386Y9735289D01*
X5523385Y9735287D01*
X5499501Y9646150D01*
X5499500Y9646142D01*
X1430245Y9646142D01*
X1426619Y9659675D01*
X1394027Y9716124D01*
X1392584Y9719258D01*
X1390735Y9741591D01*
X1386843Y9763660D01*
X1388525Y9768282D01*
X1388351Y9770386D01*
X1390288Y9773126D01*
X1395753Y9788138D01*
X1426617Y9841596D01*
X1426618Y9841598D01*
X1426619Y9841599D01*
X1450505Y9930743D01*
X1450505Y10023031D01*
X1426619Y10112175D01*
X1408740Y10143142D01*
X10130128Y10143142D01*
X10130128Y10050859D01*
X10130129Y10050851D01*
X10154013Y9961714D01*
X10154014Y9961712D01*
X10198547Y9884579D01*
X10200159Y9881788D01*
X10265416Y9816531D01*
X10345340Y9770386D01*
X10434484Y9746500D01*
X10434486Y9746500D01*
X10526770Y9746500D01*
X10526772Y9746500D01*
X10615916Y9770386D01*
X10695840Y9816531D01*
X10761097Y9881788D01*
X10807144Y9961544D01*
X10846445Y9994520D01*
X10897748Y9994520D01*
X10937048Y9961543D01*
X10944541Y9943453D01*
X10944725Y9942764D01*
X10990869Y9862842D01*
X11056129Y9797582D01*
X11091692Y9777049D01*
X11124668Y9737749D01*
X11124668Y9686445D01*
X11091692Y9647147D01*
X11061696Y9629829D01*
X10996436Y9564569D01*
X10950292Y9484646D01*
X10950291Y9484644D01*
X10926407Y9395507D01*
X10926406Y9395499D01*
X10926406Y9303216D01*
X10926407Y9303208D01*
X10950291Y9214071D01*
X10950292Y9214069D01*
X10992423Y9141096D01*
X10996437Y9134145D01*
X11061694Y9068888D01*
X11141618Y9022743D01*
X11230762Y8998857D01*
X11230764Y8998857D01*
X11316257Y8998857D01*
X11323050Y8998857D01*
X11332378Y9001357D01*
X11332381Y9001357D01*
X11356153Y9007728D01*
X11412194Y9022743D01*
X11492118Y9068888D01*
X11557375Y9134145D01*
X11603520Y9214069D01*
X11627406Y9303213D01*
X11627406Y9395501D01*
X11603520Y9484645D01*
X11557375Y9564569D01*
X11492118Y9629826D01*
X11492115Y9629829D01*
X11456552Y9650362D01*
X11423575Y9689663D01*
X11423577Y9740966D01*
X11456554Y9780265D01*
X11458633Y9781465D01*
X11486551Y9797584D01*
X11551808Y9862841D01*
X11597953Y9942765D01*
X11606140Y9973322D01*
X11635565Y10015345D01*
X11685119Y10028624D01*
X11731616Y10006943D01*
X11751027Y9973324D01*
X11753390Y9964507D01*
X11753392Y9964502D01*
X11799415Y9884788D01*
X11799537Y9884578D01*
X11864794Y9819321D01*
X11944718Y9773176D01*
X12033862Y9749290D01*
X12033864Y9749290D01*
X12126148Y9749290D01*
X12126150Y9749290D01*
X12215294Y9773176D01*
X12295218Y9819321D01*
X12360475Y9884578D01*
X12406620Y9964502D01*
X12411266Y9981842D01*
X12440691Y10023866D01*
X12490245Y10037145D01*
X12536742Y10015464D01*
X12556154Y9981843D01*
X12558579Y9972791D01*
X12558580Y9972790D01*
X12587672Y9922401D01*
X12604725Y9892866D01*
X12669982Y9827609D01*
X12749906Y9781464D01*
X12839050Y9757578D01*
X12839052Y9757578D01*
X12931336Y9757578D01*
X12931338Y9757578D01*
X13020482Y9781464D01*
X13100406Y9827609D01*
X13165663Y9892866D01*
X13211808Y9972790D01*
X13211809Y9972797D01*
X13213688Y9977329D01*
X13214994Y9976788D01*
X13240984Y10013920D01*
X13290536Y10027208D01*
X13337037Y10005536D01*
X13356457Y9971907D01*
X13358384Y9964717D01*
X13358386Y9964712D01*
X13399866Y9892867D01*
X13404531Y9884788D01*
X13469788Y9819531D01*
X13549712Y9773386D01*
X13598085Y9760425D01*
X13640108Y9731000D01*
X13653387Y9681445D01*
X13631705Y9634948D01*
X13598085Y9615537D01*
X13551302Y9603002D01*
X13551302Y9603001D01*
X13471379Y9556857D01*
X13406121Y9491599D01*
X13359977Y9411676D01*
X13359976Y9411674D01*
X13336092Y9322537D01*
X13336091Y9322529D01*
X13336091Y9230246D01*
X13336092Y9230238D01*
X13359976Y9141101D01*
X13359977Y9141099D01*
X13401668Y9068888D01*
X13406122Y9061175D01*
X13471379Y8995918D01*
X13551303Y8949773D01*
X13640447Y8925887D01*
X13640449Y8925887D01*
X13732733Y8925887D01*
X13732735Y8925887D01*
X13821879Y8949773D01*
X13901803Y8995918D01*
X13967060Y9061175D01*
X13981297Y9085833D01*
X20134809Y9085833D01*
X20134809Y8993550D01*
X20134810Y8993542D01*
X20158694Y8904405D01*
X20158695Y8904403D01*
X20202243Y8828976D01*
X20204840Y8824479D01*
X20270097Y8759222D01*
X20350021Y8713077D01*
X20439165Y8689191D01*
X20439167Y8689191D01*
X20531451Y8689191D01*
X20531453Y8689191D01*
X20620597Y8713077D01*
X20700521Y8759222D01*
X20765778Y8824479D01*
X20811923Y8904403D01*
X20835809Y8993547D01*
X20835809Y9085835D01*
X20811923Y9174979D01*
X20798763Y9197773D01*
X20795776Y9202947D01*
X20795775Y9202949D01*
X20776964Y9235529D01*
X24379505Y9235529D01*
X24379505Y9143246D01*
X24379506Y9143238D01*
X24403390Y9054101D01*
X24403391Y9054098D01*
X24450856Y8971887D01*
X24459765Y8921363D01*
X24450856Y8896887D01*
X24403391Y8814677D01*
X24403390Y8814674D01*
X24379506Y8725537D01*
X24379505Y8725529D01*
X24379505Y8633246D01*
X24379506Y8633238D01*
X24403390Y8544101D01*
X24403391Y8544099D01*
X24448502Y8465965D01*
X24449536Y8464175D01*
X24514793Y8398918D01*
X24594717Y8352773D01*
X24683861Y8328887D01*
X24683863Y8328887D01*
X24776147Y8328887D01*
X24776149Y8328887D01*
X24865293Y8352773D01*
X24945217Y8398918D01*
X25010474Y8464175D01*
X25056619Y8544099D01*
X25080505Y8633243D01*
X25080505Y8725531D01*
X25056619Y8814675D01*
X25010474Y8894599D01*
X25010472Y8894601D01*
X25009153Y8896886D01*
X25000244Y8947410D01*
X25009153Y8971888D01*
X25010472Y8974174D01*
X25010474Y8974175D01*
X25056619Y9054099D01*
X25080505Y9143243D01*
X25080505Y9235531D01*
X25056619Y9324675D01*
X25010474Y9404599D01*
X24945217Y9469856D01*
X24945216Y9469857D01*
X24865293Y9516001D01*
X24865291Y9516002D01*
X24776154Y9539886D01*
X24776151Y9539887D01*
X24776149Y9539887D01*
X24683861Y9539887D01*
X24683859Y9539887D01*
X24683855Y9539886D01*
X24594718Y9516002D01*
X24594716Y9516001D01*
X24514793Y9469857D01*
X24449535Y9404599D01*
X24403391Y9324676D01*
X24403390Y9324674D01*
X24379506Y9235537D01*
X24379505Y9235529D01*
X20776964Y9235529D01*
X20765779Y9254902D01*
X20700520Y9320161D01*
X20620597Y9366305D01*
X20620595Y9366306D01*
X20531458Y9390190D01*
X20531455Y9390191D01*
X20531453Y9390191D01*
X20439165Y9390191D01*
X20439163Y9390191D01*
X20439159Y9390190D01*
X20350022Y9366306D01*
X20350020Y9366305D01*
X20270097Y9320161D01*
X20204839Y9254903D01*
X20158695Y9174980D01*
X20158694Y9174978D01*
X20134810Y9085841D01*
X20134809Y9085833D01*
X13981297Y9085833D01*
X14013205Y9141099D01*
X14037091Y9230243D01*
X14037091Y9322531D01*
X14013205Y9411675D01*
X13967060Y9491599D01*
X13901803Y9556856D01*
X13901802Y9556857D01*
X13821879Y9603001D01*
X13821877Y9603002D01*
X13773506Y9615963D01*
X13731481Y9645389D01*
X13718203Y9694944D01*
X13739885Y9741440D01*
X13773504Y9760851D01*
X13820288Y9773386D01*
X13900212Y9819531D01*
X13965469Y9884788D01*
X14011614Y9964712D01*
X14035500Y10053856D01*
X14035500Y10146144D01*
X14011614Y10235288D01*
X13965469Y10315212D01*
X13900212Y10380469D01*
X13900211Y10380470D01*
X13820288Y10426614D01*
X13820286Y10426615D01*
X13731149Y10450499D01*
X13731146Y10450500D01*
X13731144Y10450500D01*
X13638856Y10450500D01*
X13638854Y10450500D01*
X13638850Y10450499D01*
X13549713Y10426615D01*
X13549711Y10426614D01*
X13469788Y10380470D01*
X13404530Y10315212D01*
X13358386Y10235289D01*
X13356506Y10230749D01*
X13355203Y10231289D01*
X13329191Y10194146D01*
X13279634Y10180873D01*
X13233140Y10202560D01*
X13213735Y10236175D01*
X13211808Y10243366D01*
X13165663Y10323290D01*
X13100406Y10388547D01*
X13100405Y10388548D01*
X13020482Y10434692D01*
X13020480Y10434693D01*
X12931343Y10458577D01*
X12931340Y10458578D01*
X12931338Y10458578D01*
X12839050Y10458578D01*
X12839048Y10458578D01*
X12839044Y10458577D01*
X12749907Y10434693D01*
X12749905Y10434692D01*
X12669982Y10388548D01*
X12604724Y10323290D01*
X12558580Y10243368D01*
X12553933Y10226025D01*
X12524505Y10184001D01*
X12474950Y10170725D01*
X12428454Y10192408D01*
X12409044Y10226030D01*
X12406620Y10235078D01*
X12360475Y10315002D01*
X12295218Y10380259D01*
X12295217Y10380260D01*
X12215294Y10426404D01*
X12215292Y10426405D01*
X12126155Y10450289D01*
X12126152Y10450290D01*
X12126150Y10450290D01*
X12033862Y10450290D01*
X12033860Y10450290D01*
X12033856Y10450289D01*
X11944719Y10426405D01*
X11944717Y10426404D01*
X11864794Y10380260D01*
X11799536Y10315002D01*
X11753392Y10235079D01*
X11753391Y10235079D01*
X11745204Y10204522D01*
X11715777Y10162498D01*
X11666222Y10149220D01*
X11619726Y10170903D01*
X11600316Y10204524D01*
X11597954Y10213338D01*
X11597953Y10213339D01*
X11597953Y10213341D01*
X11551808Y10293265D01*
X11486551Y10358522D01*
X11486550Y10358523D01*
X11406627Y10404667D01*
X11406625Y10404668D01*
X11317488Y10428552D01*
X11317485Y10428553D01*
X11317483Y10428553D01*
X11225195Y10428553D01*
X11225193Y10428553D01*
X11225189Y10428552D01*
X11136052Y10404668D01*
X11136050Y10404667D01*
X11056127Y10358523D01*
X10990867Y10293263D01*
X10944821Y10213510D01*
X10905520Y10180534D01*
X10854217Y10180534D01*
X10814918Y10213512D01*
X10807424Y10231606D01*
X10807242Y10232288D01*
X10761097Y10312212D01*
X10695840Y10377469D01*
X10695839Y10377470D01*
X10615916Y10423614D01*
X10615917Y10423614D01*
X10598400Y10428308D01*
X10556376Y10457736D01*
X10543100Y10507292D01*
X10564783Y10553787D01*
X10598401Y10573196D01*
X10617808Y10578395D01*
X10697732Y10624540D01*
X10762989Y10689797D01*
X10809134Y10769721D01*
X10833020Y10858865D01*
X10833020Y10945529D01*
X18534506Y10945529D01*
X18534506Y10853246D01*
X18534507Y10853238D01*
X18558391Y10764101D01*
X18558392Y10764099D01*
X18604304Y10684577D01*
X18604537Y10684175D01*
X18669794Y10618918D01*
X18749718Y10572773D01*
X18838862Y10548887D01*
X18838864Y10548887D01*
X18931148Y10548887D01*
X18931150Y10548887D01*
X19020294Y10572773D01*
X19100218Y10618918D01*
X19165475Y10684175D01*
X19189351Y10725529D01*
X28259505Y10725529D01*
X28259505Y10633246D01*
X28259506Y10633238D01*
X28283390Y10544101D01*
X28283391Y10544099D01*
X28305658Y10505531D01*
X28329536Y10464175D01*
X28394793Y10398918D01*
X28474717Y10352773D01*
X28563861Y10328887D01*
X28563863Y10328887D01*
X28656147Y10328887D01*
X28656149Y10328887D01*
X28745293Y10352773D01*
X28825217Y10398918D01*
X28890474Y10464175D01*
X28936619Y10544099D01*
X28960505Y10633243D01*
X28960505Y10725531D01*
X28936619Y10814675D01*
X28890474Y10894599D01*
X28825217Y10959856D01*
X28825216Y10959857D01*
X28745293Y11006001D01*
X28745291Y11006002D01*
X28656154Y11029886D01*
X28656151Y11029887D01*
X28656149Y11029887D01*
X28563861Y11029887D01*
X28563859Y11029887D01*
X28563855Y11029886D01*
X28474718Y11006002D01*
X28474716Y11006001D01*
X28394793Y10959857D01*
X28329535Y10894599D01*
X28283391Y10814676D01*
X28283390Y10814674D01*
X28259506Y10725537D01*
X28259505Y10725529D01*
X19189351Y10725529D01*
X19211620Y10764099D01*
X19235506Y10853243D01*
X19235506Y10945531D01*
X19211620Y11034675D01*
X19165475Y11114599D01*
X19100218Y11179856D01*
X19100217Y11179857D01*
X19020294Y11226001D01*
X19020292Y11226002D01*
X18931155Y11249886D01*
X18931152Y11249887D01*
X18931150Y11249887D01*
X18838862Y11249887D01*
X18838860Y11249887D01*
X18838856Y11249886D01*
X18749719Y11226002D01*
X18749717Y11226001D01*
X18669794Y11179857D01*
X18604536Y11114599D01*
X18558392Y11034676D01*
X18558391Y11034674D01*
X18534507Y10945537D01*
X18534506Y10945529D01*
X10833020Y10945529D01*
X10833020Y10951153D01*
X10809134Y11040297D01*
X10762989Y11120221D01*
X10697732Y11185478D01*
X10697731Y11185479D01*
X10617808Y11231623D01*
X10617806Y11231624D01*
X10528669Y11255508D01*
X10528666Y11255509D01*
X10528664Y11255509D01*
X10436376Y11255509D01*
X10436374Y11255509D01*
X10436370Y11255508D01*
X10347233Y11231624D01*
X10347231Y11231623D01*
X10267308Y11185479D01*
X10202050Y11120221D01*
X10155906Y11040298D01*
X10155905Y11040296D01*
X10132021Y10951159D01*
X10132020Y10951151D01*
X10132020Y10858868D01*
X10132021Y10858860D01*
X10155905Y10769723D01*
X10155906Y10769721D01*
X10181419Y10725531D01*
X10202051Y10689797D01*
X10267308Y10624540D01*
X10347232Y10578395D01*
X10354072Y10576563D01*
X10364745Y10573702D01*
X10406770Y10544276D01*
X10420048Y10494721D01*
X10398366Y10448225D01*
X10364745Y10428814D01*
X10345341Y10423615D01*
X10345339Y10423614D01*
X10265416Y10377470D01*
X10200158Y10312212D01*
X10154014Y10232289D01*
X10154013Y10232287D01*
X10130129Y10143150D01*
X10130128Y10143142D01*
X1408740Y10143142D01*
X1408739Y10143144D01*
X1387093Y10180636D01*
X1378183Y10231160D01*
X1387092Y10255637D01*
X1398083Y10274674D01*
X1426619Y10324099D01*
X1450505Y10413243D01*
X1450505Y10505531D01*
X1426619Y10594675D01*
X1393587Y10651886D01*
X1384678Y10702408D01*
X1393588Y10726887D01*
X1426617Y10784094D01*
X1426619Y10784097D01*
X1450505Y10873241D01*
X1450505Y10965529D01*
X1426619Y11054673D01*
X1380474Y11134597D01*
X1315217Y11199854D01*
X1315216Y11199855D01*
X1278152Y11221254D01*
X1235293Y11245999D01*
X1235290Y11246000D01*
X1146154Y11269884D01*
X1146151Y11269885D01*
X1146149Y11269885D01*
X1053861Y11269885D01*
X1053859Y11269885D01*
X1053855Y11269884D01*
X964718Y11246000D01*
X964716Y11245999D01*
X884793Y11199855D01*
X819535Y11134597D01*
X773391Y11054674D01*
X773390Y11054672D01*
X749506Y10965535D01*
X749505Y10965527D01*
X-3378297Y10965527D01*
X-3378297Y10970447D01*
X-3378288Y11281288D01*
X5902101Y11281288D01*
X5902101Y11189005D01*
X5902102Y11188997D01*
X5925986Y11099860D01*
X5925987Y11099858D01*
X5966385Y11029887D01*
X5972132Y11019934D01*
X6037389Y10954677D01*
X6117313Y10908532D01*
X6206457Y10884646D01*
X6206459Y10884646D01*
X6298743Y10884646D01*
X6298745Y10884646D01*
X6387889Y10908532D01*
X6452665Y10945931D01*
X8529507Y10945931D01*
X8529507Y10853648D01*
X8529508Y10853640D01*
X8553392Y10764503D01*
X8553393Y10764501D01*
X8596523Y10689798D01*
X8599538Y10684577D01*
X8664795Y10619320D01*
X8744719Y10573175D01*
X8833863Y10549289D01*
X8833865Y10549289D01*
X8926149Y10549289D01*
X8926151Y10549289D01*
X9015295Y10573175D01*
X9095219Y10619320D01*
X9160476Y10684577D01*
X9206621Y10764501D01*
X9230507Y10853645D01*
X9230507Y10945933D01*
X9206621Y11035077D01*
X9160476Y11115001D01*
X9095219Y11180258D01*
X9095218Y11180259D01*
X9015295Y11226403D01*
X9015293Y11226404D01*
X8926156Y11250288D01*
X8926153Y11250289D01*
X8926151Y11250289D01*
X8833863Y11250289D01*
X8833861Y11250289D01*
X8833857Y11250288D01*
X8744720Y11226404D01*
X8744718Y11226403D01*
X8664795Y11180259D01*
X8599537Y11115001D01*
X8553393Y11035078D01*
X8553392Y11035076D01*
X8529508Y10945939D01*
X8529507Y10945931D01*
X6452665Y10945931D01*
X6467813Y10954677D01*
X6533070Y11019934D01*
X6579215Y11099858D01*
X6603101Y11189002D01*
X6603101Y11281290D01*
X6579215Y11370434D01*
X6533070Y11450358D01*
X6467813Y11515615D01*
X6467812Y11515616D01*
X6390021Y11560529D01*
X30899505Y11560529D01*
X30899505Y11468246D01*
X30899506Y11468238D01*
X30923390Y11379101D01*
X30923391Y11379098D01*
X30954979Y11324387D01*
X30963888Y11273864D01*
X30954979Y11249387D01*
X30923391Y11194677D01*
X30923390Y11194674D01*
X30899506Y11105537D01*
X30899505Y11105529D01*
X30899505Y11013246D01*
X30899506Y11013238D01*
X30923390Y10924101D01*
X30923391Y10924099D01*
X30957866Y10864387D01*
X30966775Y10813864D01*
X30957866Y10789387D01*
X30923391Y10729676D01*
X30923390Y10729674D01*
X30899506Y10640537D01*
X30899505Y10640529D01*
X30899505Y10548246D01*
X30899506Y10548238D01*
X30923390Y10459101D01*
X30923391Y10459098D01*
X30954979Y10404387D01*
X30963888Y10353864D01*
X30954979Y10329387D01*
X30923391Y10274677D01*
X30923390Y10274674D01*
X30899506Y10185537D01*
X30899505Y10185529D01*
X30899505Y10093246D01*
X30899506Y10093238D01*
X30923390Y10004101D01*
X30923391Y10004099D01*
X30968127Y9926614D01*
X30969536Y9924175D01*
X31034793Y9858918D01*
X31114717Y9812773D01*
X31203861Y9788887D01*
X31203863Y9788887D01*
X31296147Y9788887D01*
X31296149Y9788887D01*
X31385293Y9812773D01*
X31465217Y9858918D01*
X31530474Y9924175D01*
X31576619Y10004099D01*
X31600505Y10093243D01*
X31600505Y10185531D01*
X31576619Y10274675D01*
X31545030Y10329387D01*
X31536121Y10379909D01*
X31545031Y10404388D01*
X31550141Y10413238D01*
X31576619Y10459099D01*
X31600505Y10548243D01*
X31600505Y10640531D01*
X31576619Y10729675D01*
X31542143Y10789387D01*
X31533234Y10839909D01*
X31542144Y10864388D01*
X31576619Y10924099D01*
X31600505Y11013243D01*
X31600505Y11105531D01*
X31576619Y11194675D01*
X31573628Y11199855D01*
X31545031Y11249386D01*
X31536121Y11299909D01*
X31545031Y11324388D01*
X31576619Y11379099D01*
X31600505Y11468243D01*
X31600505Y11560531D01*
X31576619Y11649675D01*
X31530474Y11729599D01*
X31465217Y11794856D01*
X31465216Y11794857D01*
X31385293Y11841001D01*
X31385291Y11841002D01*
X31296154Y11864886D01*
X31296151Y11864887D01*
X31296149Y11864887D01*
X31203861Y11864887D01*
X31203859Y11864887D01*
X31203855Y11864886D01*
X31114718Y11841002D01*
X31114716Y11841001D01*
X31034793Y11794857D01*
X30969535Y11729599D01*
X30923391Y11649676D01*
X30923390Y11649674D01*
X30899506Y11560537D01*
X30899505Y11560529D01*
X6390021Y11560529D01*
X6387889Y11561760D01*
X6387887Y11561761D01*
X6298750Y11585645D01*
X6298747Y11585646D01*
X6298745Y11585646D01*
X6206457Y11585646D01*
X6206455Y11585646D01*
X6206451Y11585645D01*
X6117314Y11561761D01*
X6117312Y11561760D01*
X6037389Y11515616D01*
X5972131Y11450358D01*
X5925987Y11370435D01*
X5925986Y11370433D01*
X5902102Y11281296D01*
X5902101Y11281288D01*
X-3378288Y11281288D01*
X-3378263Y12083029D01*
X3642005Y12083029D01*
X3642005Y11990746D01*
X3642006Y11990738D01*
X3665890Y11901601D01*
X3665891Y11901599D01*
X3687087Y11864886D01*
X3712036Y11821675D01*
X3777293Y11756418D01*
X3857217Y11710273D01*
X3946361Y11686387D01*
X3946363Y11686387D01*
X4038647Y11686387D01*
X4038649Y11686387D01*
X4127793Y11710273D01*
X4207717Y11756418D01*
X4272974Y11821675D01*
X4319119Y11901599D01*
X4343005Y11990743D01*
X4343005Y12083031D01*
X4319119Y12172175D01*
X4272974Y12252099D01*
X4207717Y12317356D01*
X4207716Y12317357D01*
X4127793Y12363501D01*
X4127791Y12363502D01*
X4038654Y12387386D01*
X4038651Y12387387D01*
X4038649Y12387387D01*
X3946361Y12387387D01*
X3946359Y12387387D01*
X3946355Y12387386D01*
X3857218Y12363502D01*
X3857216Y12363501D01*
X3777293Y12317357D01*
X3712035Y12252099D01*
X3665891Y12172176D01*
X3665890Y12172174D01*
X3642006Y12083037D01*
X3642005Y12083029D01*
X-3378263Y12083029D01*
X-3378263Y12087949D01*
X-3378224Y13380529D01*
X6384505Y13380529D01*
X6384505Y13288246D01*
X6384506Y13288238D01*
X6408390Y13199101D01*
X6408391Y13199099D01*
X6447980Y13130529D01*
X6454536Y13119175D01*
X6519793Y13053918D01*
X6599717Y13007773D01*
X6688861Y12983887D01*
X6688863Y12983887D01*
X6781147Y12983887D01*
X6781149Y12983887D01*
X6833874Y12998015D01*
X6884980Y12993545D01*
X6921257Y12957269D01*
X6925730Y12906161D01*
X6918240Y12888076D01*
X6913392Y12879678D01*
X6913390Y12879674D01*
X6889506Y12790537D01*
X6889505Y12790529D01*
X6889505Y12698246D01*
X6889506Y12698238D01*
X6913390Y12609101D01*
X6913391Y12609099D01*
X6954298Y12538246D01*
X6959536Y12529175D01*
X7024793Y12463918D01*
X7104717Y12417773D01*
X7193861Y12393887D01*
X7193863Y12393887D01*
X7286147Y12393887D01*
X7286149Y12393887D01*
X7375293Y12417773D01*
X7455217Y12463918D01*
X7520474Y12529175D01*
X7566619Y12609099D01*
X7572361Y12630529D01*
X17139505Y12630529D01*
X17139505Y12538246D01*
X17139506Y12538238D01*
X17163390Y12449101D01*
X17163391Y12449099D01*
X17199021Y12387386D01*
X17209536Y12369175D01*
X17274793Y12303918D01*
X17354717Y12257773D01*
X17443861Y12233887D01*
X17443863Y12233887D01*
X17536147Y12233887D01*
X17536149Y12233887D01*
X17625293Y12257773D01*
X17705217Y12303918D01*
X17770474Y12369175D01*
X17816619Y12449099D01*
X17840505Y12538243D01*
X17840505Y12630531D01*
X17840503Y12630539D01*
X17832332Y12661036D01*
X17828448Y12675529D01*
X20729505Y12675529D01*
X20729505Y12583246D01*
X20729506Y12583238D01*
X20753390Y12494101D01*
X20753391Y12494099D01*
X20797458Y12417773D01*
X20799536Y12414175D01*
X20864793Y12348918D01*
X20944717Y12302773D01*
X21033861Y12278887D01*
X21033863Y12278887D01*
X21126147Y12278887D01*
X21126149Y12278887D01*
X21215293Y12302773D01*
X21295217Y12348918D01*
X21360474Y12414175D01*
X21406619Y12494099D01*
X21430505Y12583243D01*
X21430505Y12675531D01*
X21406619Y12764675D01*
X21360474Y12844599D01*
X21295217Y12909856D01*
X21295216Y12909857D01*
X21215293Y12956001D01*
X21215291Y12956002D01*
X21126154Y12979886D01*
X21126151Y12979887D01*
X21126149Y12979887D01*
X21033861Y12979887D01*
X21033859Y12979887D01*
X21033855Y12979886D01*
X20944718Y12956002D01*
X20944716Y12956001D01*
X20864793Y12909857D01*
X20799535Y12844599D01*
X20753391Y12764676D01*
X20753390Y12764674D01*
X20729506Y12675537D01*
X20729505Y12675529D01*
X17828448Y12675529D01*
X17820680Y12704517D01*
X17816619Y12719675D01*
X17770474Y12799599D01*
X17705217Y12864856D01*
X17705216Y12864857D01*
X17625293Y12911001D01*
X17625291Y12911002D01*
X17536154Y12934886D01*
X17536151Y12934887D01*
X17536149Y12934887D01*
X17443861Y12934887D01*
X17443859Y12934887D01*
X17443855Y12934886D01*
X17354718Y12911002D01*
X17354716Y12911001D01*
X17274793Y12864857D01*
X17209535Y12799599D01*
X17163391Y12719676D01*
X17163390Y12719674D01*
X17139506Y12630537D01*
X17139505Y12630529D01*
X7572361Y12630529D01*
X7590505Y12698243D01*
X7590505Y12790531D01*
X7566619Y12879675D01*
X7520474Y12959599D01*
X7455217Y13024856D01*
X7455216Y13024857D01*
X7375293Y13071001D01*
X7375291Y13071002D01*
X7286154Y13094886D01*
X7286151Y13094887D01*
X7286149Y13094887D01*
X7193861Y13094887D01*
X7193859Y13094887D01*
X7193853Y13094886D01*
X7141135Y13080760D01*
X7090028Y13085231D01*
X7053751Y13121508D01*
X7049280Y13172616D01*
X7056773Y13190705D01*
X7058242Y13193252D01*
X7061619Y13199099D01*
X7085505Y13288243D01*
X7085505Y13345529D01*
X8206950Y13345529D01*
X8206950Y13253246D01*
X8206951Y13253238D01*
X8230835Y13164101D01*
X8230836Y13164099D01*
X8276194Y13085537D01*
X8276981Y13084175D01*
X8342238Y13018918D01*
X8422162Y12972773D01*
X8511306Y12948887D01*
X8511308Y12948887D01*
X8603592Y12948887D01*
X8603594Y12948887D01*
X8692738Y12972773D01*
X8772662Y13018918D01*
X8826972Y13073228D01*
X8873468Y13094910D01*
X8923023Y13081631D01*
X8933038Y13073228D01*
X8987348Y13018918D01*
X9067272Y12972773D01*
X9156416Y12948887D01*
X9156418Y12948887D01*
X9248702Y12948887D01*
X9248704Y12948887D01*
X9337848Y12972773D01*
X9417772Y13018918D01*
X9483029Y13084175D01*
X9509792Y13130529D01*
X10614505Y13130529D01*
X10614505Y13038246D01*
X10614506Y13038238D01*
X10638390Y12949101D01*
X10638391Y12949099D01*
X10678473Y12879675D01*
X10684536Y12869175D01*
X10749793Y12803918D01*
X10829717Y12757773D01*
X10918861Y12733887D01*
X10918863Y12733887D01*
X11011147Y12733887D01*
X11011149Y12733887D01*
X11100293Y12757773D01*
X11180217Y12803918D01*
X11245474Y12869175D01*
X11291619Y12949099D01*
X11315505Y13038243D01*
X11315505Y13130531D01*
X11315371Y13131032D01*
X11315371Y13131034D01*
X11315370Y13131036D01*
X11311487Y13145529D01*
X11506505Y13145529D01*
X11506505Y13053246D01*
X11506506Y13053238D01*
X11530390Y12964101D01*
X11530391Y12964099D01*
X11574283Y12888076D01*
X11576536Y12884175D01*
X11641793Y12818918D01*
X11721717Y12772773D01*
X11810861Y12748887D01*
X11810863Y12748887D01*
X11903147Y12748887D01*
X11903149Y12748887D01*
X11992293Y12772773D01*
X12072217Y12818918D01*
X12137474Y12884175D01*
X12183619Y12964099D01*
X12207505Y13053243D01*
X12207505Y13055529D01*
X14659505Y13055529D01*
X14659505Y12963246D01*
X14659506Y12963238D01*
X14683390Y12874101D01*
X14683391Y12874099D01*
X14723910Y12803918D01*
X14729536Y12794175D01*
X14794793Y12728918D01*
X14874717Y12682773D01*
X14963861Y12658887D01*
X14963863Y12658887D01*
X15056147Y12658887D01*
X15056149Y12658887D01*
X15145293Y12682773D01*
X15225217Y12728918D01*
X15290474Y12794175D01*
X15336619Y12874099D01*
X15360505Y12963243D01*
X15360505Y13055531D01*
X15356351Y13071035D01*
X15356351Y13071036D01*
X15352468Y13085529D01*
X15554505Y13085529D01*
X15554505Y12993246D01*
X15554506Y12993238D01*
X15578390Y12904101D01*
X15578391Y12904099D01*
X15604494Y12858887D01*
X15624536Y12824175D01*
X15689793Y12758918D01*
X15769717Y12712773D01*
X15858861Y12688887D01*
X15858863Y12688887D01*
X15951147Y12688887D01*
X15951149Y12688887D01*
X16002794Y12702726D01*
X16022074Y12707891D01*
X16022074Y12707892D01*
X16040293Y12712773D01*
X16120217Y12758918D01*
X16185474Y12824175D01*
X16231619Y12904099D01*
X16255505Y12993243D01*
X16255505Y13085531D01*
X16231619Y13174675D01*
X16185474Y13254599D01*
X16120217Y13319856D01*
X16120216Y13319857D01*
X16075751Y13345529D01*
X19709505Y13345529D01*
X19709505Y13253246D01*
X19709506Y13253238D01*
X19733390Y13164101D01*
X19733391Y13164099D01*
X19778749Y13085537D01*
X19779536Y13084175D01*
X19844793Y13018918D01*
X19924717Y12972773D01*
X20013861Y12948887D01*
X20013863Y12948887D01*
X20106147Y12948887D01*
X20106149Y12948887D01*
X20195293Y12972773D01*
X20275217Y13018918D01*
X20340474Y13084175D01*
X20386619Y13164099D01*
X20410505Y13253243D01*
X20410505Y13255529D01*
X24494505Y13255529D01*
X24494505Y13163246D01*
X24494506Y13163238D01*
X24518390Y13074101D01*
X24518391Y13074099D01*
X24529112Y13055529D01*
X24564536Y12994175D01*
X24629793Y12928918D01*
X24709717Y12882773D01*
X24798861Y12858887D01*
X24798863Y12858887D01*
X24891147Y12858887D01*
X24891149Y12858887D01*
X24980293Y12882773D01*
X25060217Y12928918D01*
X25125474Y12994175D01*
X25166671Y13065529D01*
X27939505Y13065529D01*
X27939505Y12973246D01*
X27939506Y12973238D01*
X27963390Y12884101D01*
X27963391Y12884099D01*
X27997988Y12824175D01*
X28009536Y12804175D01*
X28074793Y12738918D01*
X28154717Y12692773D01*
X28243861Y12668887D01*
X28243863Y12668887D01*
X28336147Y12668887D01*
X28336149Y12668887D01*
X28425293Y12692773D01*
X28471888Y12719675D01*
X28487504Y12728691D01*
X28538028Y12737601D01*
X28562506Y12728691D01*
X28624713Y12692775D01*
X28624714Y12692775D01*
X28624717Y12692773D01*
X28713861Y12668887D01*
X28713863Y12668887D01*
X28806147Y12668887D01*
X28806149Y12668887D01*
X28895293Y12692773D01*
X28975217Y12738918D01*
X29040474Y12804175D01*
X29086619Y12884099D01*
X29110505Y12973243D01*
X29110505Y13065531D01*
X29086619Y13154675D01*
X29040474Y13234599D01*
X28975217Y13299856D01*
X28975216Y13299857D01*
X28895293Y13346001D01*
X28895291Y13346002D01*
X28806154Y13369886D01*
X28806151Y13369887D01*
X28806149Y13369887D01*
X28713861Y13369887D01*
X28713859Y13369887D01*
X28713855Y13369886D01*
X28624718Y13346002D01*
X28624715Y13346001D01*
X28562505Y13310083D01*
X28511981Y13301174D01*
X28487505Y13310083D01*
X28425294Y13346001D01*
X28425291Y13346002D01*
X28336154Y13369886D01*
X28336151Y13369887D01*
X28336149Y13369887D01*
X28243861Y13369887D01*
X28243859Y13369887D01*
X28243855Y13369886D01*
X28154718Y13346002D01*
X28154716Y13346001D01*
X28074793Y13299857D01*
X28009535Y13234599D01*
X27963391Y13154676D01*
X27963390Y13154674D01*
X27939506Y13065537D01*
X27939505Y13065529D01*
X25166671Y13065529D01*
X25171619Y13074099D01*
X25195505Y13163243D01*
X25195505Y13255531D01*
X25171619Y13344675D01*
X25125474Y13424599D01*
X25060217Y13489856D01*
X25060216Y13489857D01*
X24980293Y13536001D01*
X24980291Y13536002D01*
X24891154Y13559886D01*
X24891151Y13559887D01*
X24891149Y13559887D01*
X24798861Y13559887D01*
X24798859Y13559887D01*
X24798855Y13559886D01*
X24709718Y13536002D01*
X24709716Y13536001D01*
X24629793Y13489857D01*
X24564535Y13424599D01*
X24518391Y13344676D01*
X24518390Y13344674D01*
X24494506Y13255537D01*
X24494505Y13255529D01*
X20410505Y13255529D01*
X20410505Y13345531D01*
X20386619Y13434675D01*
X20340474Y13514599D01*
X20275217Y13579856D01*
X20275216Y13579857D01*
X20195293Y13626001D01*
X20195291Y13626002D01*
X20106154Y13649886D01*
X20106151Y13649887D01*
X20106149Y13649887D01*
X20013861Y13649887D01*
X20013859Y13649887D01*
X20013855Y13649886D01*
X19924718Y13626002D01*
X19924716Y13626001D01*
X19844793Y13579857D01*
X19779535Y13514599D01*
X19733391Y13434676D01*
X19733390Y13434674D01*
X19709506Y13345537D01*
X19709505Y13345529D01*
X16075751Y13345529D01*
X16040293Y13366001D01*
X16040291Y13366002D01*
X15951154Y13389886D01*
X15951151Y13389887D01*
X15951149Y13389887D01*
X15858861Y13389887D01*
X15858859Y13389887D01*
X15858855Y13389886D01*
X15769718Y13366002D01*
X15769716Y13366001D01*
X15689793Y13319857D01*
X15624535Y13254599D01*
X15578391Y13174676D01*
X15578390Y13174674D01*
X15554506Y13085537D01*
X15554505Y13085529D01*
X15352468Y13085529D01*
X15336620Y13144672D01*
X15336619Y13144674D01*
X15336619Y13144675D01*
X15290474Y13224599D01*
X15225217Y13289856D01*
X15225216Y13289857D01*
X15145293Y13336001D01*
X15145291Y13336002D01*
X15056154Y13359886D01*
X15056151Y13359887D01*
X15056149Y13359887D01*
X14963861Y13359887D01*
X14963859Y13359887D01*
X14963855Y13359886D01*
X14874718Y13336002D01*
X14874716Y13336001D01*
X14794793Y13289857D01*
X14729535Y13224599D01*
X14683391Y13144676D01*
X14683390Y13144674D01*
X14659506Y13055537D01*
X14659505Y13055529D01*
X12207505Y13055529D01*
X12207505Y13145531D01*
X12183619Y13234675D01*
X12137474Y13314599D01*
X12072217Y13379856D01*
X12072216Y13379857D01*
X11992293Y13426001D01*
X11992291Y13426002D01*
X11903154Y13449886D01*
X11903151Y13449887D01*
X11903149Y13449887D01*
X11810861Y13449887D01*
X11810859Y13449887D01*
X11810855Y13449886D01*
X11721718Y13426002D01*
X11721716Y13426001D01*
X11641793Y13379857D01*
X11576535Y13314599D01*
X11530391Y13234676D01*
X11530390Y13234674D01*
X11506506Y13145537D01*
X11506505Y13145529D01*
X11311487Y13145529D01*
X11291620Y13219672D01*
X11291619Y13219674D01*
X11291619Y13219675D01*
X11245474Y13299599D01*
X11180217Y13364856D01*
X11180216Y13364857D01*
X11100293Y13411001D01*
X11100291Y13411002D01*
X11011154Y13434886D01*
X11011151Y13434887D01*
X11011149Y13434887D01*
X10918861Y13434887D01*
X10918859Y13434887D01*
X10918855Y13434886D01*
X10829718Y13411002D01*
X10829716Y13411001D01*
X10749793Y13364857D01*
X10684535Y13299599D01*
X10638391Y13219676D01*
X10638390Y13219674D01*
X10614506Y13130537D01*
X10614505Y13130529D01*
X9509792Y13130529D01*
X9529174Y13164099D01*
X9553060Y13253243D01*
X9553060Y13345531D01*
X9529174Y13434675D01*
X9483029Y13514599D01*
X9417772Y13579856D01*
X9417771Y13579857D01*
X9337848Y13626001D01*
X9337846Y13626002D01*
X9248709Y13649886D01*
X9248706Y13649887D01*
X9248704Y13649887D01*
X9156416Y13649887D01*
X9156414Y13649887D01*
X9156410Y13649886D01*
X9067273Y13626002D01*
X9067271Y13626001D01*
X8987348Y13579857D01*
X8933038Y13525546D01*
X8886542Y13503864D01*
X8836987Y13517143D01*
X8826972Y13525546D01*
X8772661Y13579857D01*
X8692738Y13626001D01*
X8692736Y13626002D01*
X8603599Y13649886D01*
X8603596Y13649887D01*
X8603594Y13649887D01*
X8511306Y13649887D01*
X8511304Y13649887D01*
X8511300Y13649886D01*
X8422163Y13626002D01*
X8422161Y13626001D01*
X8342238Y13579857D01*
X8276980Y13514599D01*
X8230836Y13434676D01*
X8230835Y13434674D01*
X8206951Y13345537D01*
X8206950Y13345529D01*
X7085505Y13345529D01*
X7085505Y13380531D01*
X7061619Y13469675D01*
X7015474Y13549599D01*
X6950217Y13614856D01*
X6950216Y13614857D01*
X6870293Y13661001D01*
X6870291Y13661002D01*
X6781154Y13684886D01*
X6781151Y13684887D01*
X6781149Y13684887D01*
X6688861Y13684887D01*
X6688859Y13684887D01*
X6688855Y13684886D01*
X6599718Y13661002D01*
X6599716Y13661001D01*
X6519793Y13614857D01*
X6454535Y13549599D01*
X6408391Y13469676D01*
X6408390Y13469674D01*
X6384506Y13380537D01*
X6384505Y13380529D01*
X-3378224Y13380529D01*
X-3378224Y13385449D01*
X-3378149Y15861141D01*
X-836107Y15861141D01*
X-836107Y15768858D01*
X-836106Y15768850D01*
X-812222Y15679713D01*
X-812221Y15679711D01*
X-775820Y15616663D01*
X-766911Y15566140D01*
X-775820Y15541663D01*
X-811609Y15479676D01*
X-811610Y15479674D01*
X-835494Y15390537D01*
X-835495Y15390529D01*
X-835495Y15298246D01*
X-835494Y15298238D01*
X-811610Y15209101D01*
X-811609Y15209099D01*
X-777134Y15149387D01*
X-768225Y15098864D01*
X-777134Y15074387D01*
X-811609Y15014676D01*
X-811610Y15014674D01*
X-835494Y14925537D01*
X-835495Y14925529D01*
X-835495Y14833246D01*
X-835494Y14833238D01*
X-811610Y14744101D01*
X-811609Y14744099D01*
X-771072Y14673887D01*
X-765464Y14664175D01*
X-700207Y14598918D01*
X-620283Y14552773D01*
X-531139Y14528887D01*
X-531137Y14528887D01*
X-438853Y14528887D01*
X-438851Y14528887D01*
X-349707Y14552773D01*
X-269783Y14598918D01*
X-204526Y14664175D01*
X-158381Y14744099D01*
X-134495Y14833243D01*
X-134495Y14925531D01*
X-158381Y15014675D01*
X-190629Y15070529D01*
X4429505Y15070529D01*
X4429505Y14978246D01*
X4429506Y14978238D01*
X4443629Y14925529D01*
X4453391Y14889099D01*
X4499536Y14809175D01*
X4564793Y14743918D01*
X4644717Y14697773D01*
X4733861Y14673887D01*
X4733863Y14673887D01*
X4826147Y14673887D01*
X4826149Y14673887D01*
X4915293Y14697773D01*
X4995217Y14743918D01*
X5060474Y14809175D01*
X5106619Y14889099D01*
X5116380Y14925529D01*
X9699505Y14925529D01*
X9699505Y14833246D01*
X9699506Y14833238D01*
X9723390Y14744101D01*
X9723391Y14744099D01*
X9763928Y14673887D01*
X9769536Y14664175D01*
X9834793Y14598918D01*
X9914717Y14552773D01*
X10003861Y14528887D01*
X10003863Y14528887D01*
X10096147Y14528887D01*
X10096149Y14528887D01*
X10185293Y14552773D01*
X10265217Y14598918D01*
X10330474Y14664175D01*
X10376619Y14744099D01*
X10400505Y14833243D01*
X10400505Y14925531D01*
X10376619Y15014675D01*
X10330474Y15094599D01*
X10265217Y15159856D01*
X10265216Y15159857D01*
X10185293Y15206001D01*
X10185291Y15206002D01*
X10096154Y15229886D01*
X10096151Y15229887D01*
X10096149Y15229887D01*
X10003861Y15229887D01*
X10003859Y15229887D01*
X10003855Y15229886D01*
X9914718Y15206002D01*
X9914716Y15206001D01*
X9834793Y15159857D01*
X9769535Y15094599D01*
X9723391Y15014676D01*
X9723390Y15014674D01*
X9699506Y14925537D01*
X9699505Y14925529D01*
X5116380Y14925529D01*
X5130505Y14978243D01*
X5130505Y15070531D01*
X5106619Y15159675D01*
X5060474Y15239599D01*
X4995217Y15304856D01*
X4995216Y15304857D01*
X4915293Y15351001D01*
X4915291Y15351002D01*
X4826154Y15374886D01*
X4826151Y15374887D01*
X4826149Y15374887D01*
X4733861Y15374887D01*
X4733859Y15374887D01*
X4733855Y15374886D01*
X4644718Y15351002D01*
X4644716Y15351001D01*
X4564793Y15304857D01*
X4499535Y15239599D01*
X4453391Y15159676D01*
X4453390Y15159674D01*
X4429506Y15070537D01*
X4429505Y15070529D01*
X-190629Y15070529D01*
X-192858Y15074389D01*
X-201766Y15124910D01*
X-192856Y15149388D01*
X-186917Y15159674D01*
X-158381Y15209099D01*
X-134495Y15298243D01*
X-134495Y15390531D01*
X-158381Y15479675D01*
X-194784Y15542725D01*
X-203692Y15593247D01*
X-194784Y15617722D01*
X-158993Y15679711D01*
X-135107Y15768855D01*
X-135107Y15836146D01*
X20459505Y15836146D01*
X20459505Y15743863D01*
X20459506Y15743855D01*
X20483390Y15654718D01*
X20483391Y15654716D01*
X20526529Y15579999D01*
X20529536Y15574792D01*
X20594793Y15509535D01*
X20674717Y15463390D01*
X20763861Y15439504D01*
X20763863Y15439504D01*
X20856147Y15439504D01*
X20856149Y15439504D01*
X20945293Y15463390D01*
X21025217Y15509535D01*
X21090474Y15574792D01*
X21136619Y15654716D01*
X21160505Y15743860D01*
X21160505Y15836148D01*
X21136619Y15925292D01*
X21090474Y16005216D01*
X21025217Y16070473D01*
X21025216Y16070474D01*
X20945293Y16116618D01*
X20945291Y16116619D01*
X20856154Y16140503D01*
X20856151Y16140504D01*
X20856149Y16140504D01*
X20763861Y16140504D01*
X20763859Y16140504D01*
X20763855Y16140503D01*
X20674718Y16116619D01*
X20674716Y16116618D01*
X20594793Y16070474D01*
X20529535Y16005216D01*
X20483391Y15925293D01*
X20483390Y15925291D01*
X20459506Y15836154D01*
X20459505Y15836146D01*
X-135107Y15836146D01*
X-135107Y15861143D01*
X-158993Y15950287D01*
X-205138Y16030211D01*
X-270395Y16095468D01*
X-270396Y16095469D01*
X-350319Y16141613D01*
X-350321Y16141614D01*
X-439458Y16165498D01*
X-439461Y16165499D01*
X-439463Y16165499D01*
X-531751Y16165499D01*
X-531753Y16165499D01*
X-531757Y16165498D01*
X-620894Y16141614D01*
X-620896Y16141613D01*
X-700819Y16095469D01*
X-766077Y16030211D01*
X-812221Y15950288D01*
X-812222Y15950286D01*
X-836106Y15861149D01*
X-836107Y15861141D01*
X-3378149Y15861141D01*
X-3378149Y15866061D01*
X-3378110Y17160533D01*
X9889505Y17160533D01*
X9889505Y17160531D01*
X9889505Y17068243D01*
X9913391Y16979099D01*
X9959536Y16899175D01*
X10024793Y16833918D01*
X10104717Y16787773D01*
X10193861Y16763887D01*
X10193863Y16763887D01*
X10286147Y16763887D01*
X10286149Y16763887D01*
X10375293Y16787773D01*
X10455217Y16833918D01*
X10520474Y16899175D01*
X10566619Y16979099D01*
X10590505Y17068243D01*
X10590505Y17160531D01*
X10566619Y17249675D01*
X10520474Y17329599D01*
X10455217Y17394856D01*
X10455216Y17394857D01*
X10375293Y17441001D01*
X10375291Y17441002D01*
X10286154Y17464886D01*
X10286151Y17464887D01*
X10286149Y17464887D01*
X10193861Y17464887D01*
X10193859Y17464887D01*
X10193855Y17464886D01*
X10104718Y17441002D01*
X10104716Y17441001D01*
X10024793Y17394857D01*
X9959535Y17329599D01*
X9913391Y17249676D01*
X9913390Y17249674D01*
X9889506Y17160537D01*
X9889505Y17160533D01*
X-3378110Y17160533D01*
X-3378110Y17165449D01*
X-3378066Y18615164D01*
X-3378057Y18924848D01*
X-3378056Y18945004D01*
X-2841399Y18945004D01*
X-2407868Y18945004D01*
X-2442049Y18885800D01*
X-2462493Y18809500D01*
X-2462493Y18730508D01*
X-2442049Y18654208D01*
X-2407868Y18595004D01*
X-2841399Y18595004D01*
X-2835594Y18565822D01*
X-2782828Y18438432D01*
X-2706221Y18323781D01*
X-2706219Y18323778D01*
X-2608722Y18226281D01*
X-2608719Y18226279D01*
X-2494068Y18149672D01*
X-2366678Y18096906D01*
X-2231440Y18070004D01*
X-1737495Y18070004D01*
X-1737495Y18470004D01*
X-1387495Y18470004D01*
X-1387495Y18070004D01*
X-893550Y18070004D01*
X-758313Y18096906D01*
X-630923Y18149672D01*
X-516272Y18226279D01*
X-516269Y18226281D01*
X-418772Y18323778D01*
X-418770Y18323781D01*
X-342163Y18438432D01*
X-289397Y18565822D01*
X-283591Y18595004D01*
X-717122Y18595004D01*
X-682941Y18654208D01*
X-662497Y18730508D01*
X-662497Y18809500D01*
X-682941Y18885800D01*
X-717122Y18945004D01*
X-283592Y18945004D01*
X1358601Y18945004D01*
X1792118Y18945004D01*
X1757937Y18885800D01*
X1737493Y18809500D01*
X1737493Y18730508D01*
X1757937Y18654208D01*
X1792118Y18595004D01*
X1358601Y18595004D01*
X1364406Y18565822D01*
X1417172Y18438432D01*
X1493779Y18323781D01*
X1493781Y18323778D01*
X1591278Y18226281D01*
X1591281Y18226279D01*
X1705932Y18149672D01*
X1833322Y18096906D01*
X1968560Y18070004D01*
X2262505Y18070004D01*
X2262505Y18470004D01*
X2612505Y18470004D01*
X2612505Y18070004D01*
X2906450Y18070004D01*
X3041687Y18096906D01*
X3169077Y18149672D01*
X3283728Y18226279D01*
X3283731Y18226281D01*
X3381228Y18323778D01*
X3381230Y18323781D01*
X3457837Y18438432D01*
X3510603Y18565822D01*
X3516409Y18595004D01*
X3082892Y18595004D01*
X3117073Y18654208D01*
X3137517Y18730508D01*
X3137517Y18809500D01*
X3117073Y18885800D01*
X3082892Y18945004D01*
X3516409Y18945004D01*
X3516409Y18945005D01*
X3515392Y18950118D01*
X3513459Y18959831D01*
X6814060Y18959831D01*
X6814060Y18867548D01*
X6814061Y18867540D01*
X6837945Y18778403D01*
X6837946Y18778401D01*
X6883470Y18699551D01*
X6884091Y18698477D01*
X6949348Y18633220D01*
X7029272Y18587075D01*
X7118416Y18563189D01*
X7118418Y18563189D01*
X7210702Y18563189D01*
X7210704Y18563189D01*
X7299848Y18587075D01*
X7379772Y18633220D01*
X7445029Y18698477D01*
X7491174Y18778401D01*
X7515060Y18867545D01*
X7515060Y18959833D01*
X7491174Y19048977D01*
X7477704Y19072307D01*
X7810117Y19072307D01*
X7810117Y18980024D01*
X7810118Y18980016D01*
X7834002Y18890879D01*
X7834003Y18890877D01*
X7876209Y18817774D01*
X7880148Y18810953D01*
X7945405Y18745696D01*
X8025329Y18699551D01*
X8114473Y18675665D01*
X8114475Y18675665D01*
X8206759Y18675665D01*
X8206761Y18675665D01*
X8295905Y18699551D01*
X8375829Y18745696D01*
X8441086Y18810953D01*
X8486672Y18889908D01*
X8525972Y18922884D01*
X8577275Y18922884D01*
X8616574Y18889908D01*
X8619528Y18884791D01*
X8619530Y18884789D01*
X8619531Y18884788D01*
X8684788Y18819531D01*
X8764712Y18773386D01*
X8853856Y18749500D01*
X8853858Y18749500D01*
X8946142Y18749500D01*
X8946144Y18749500D01*
X9035288Y18773386D01*
X9115212Y18819531D01*
X9180469Y18884788D01*
X9226614Y18964712D01*
X9250500Y19053856D01*
X9250500Y19146144D01*
X9242491Y19176035D01*
X9242491Y19176036D01*
X9238608Y19190529D01*
X9899505Y19190529D01*
X9899505Y19098246D01*
X9899506Y19098238D01*
X9923390Y19009101D01*
X9923391Y19009099D01*
X9940179Y18980021D01*
X9969536Y18929175D01*
X10034793Y18863918D01*
X10114717Y18817773D01*
X10203861Y18793887D01*
X10203863Y18793887D01*
X10296147Y18793887D01*
X10296149Y18793887D01*
X10385293Y18817773D01*
X10465217Y18863918D01*
X10530474Y18929175D01*
X10576619Y19009099D01*
X10577641Y19012912D01*
X11035975Y19012912D01*
X11035975Y18920629D01*
X11035976Y18920621D01*
X11059860Y18831484D01*
X11059861Y18831482D01*
X11093402Y18773387D01*
X11106006Y18751558D01*
X11171263Y18686301D01*
X11251187Y18640156D01*
X11340331Y18616270D01*
X11340333Y18616270D01*
X11432617Y18616270D01*
X11432619Y18616270D01*
X11521763Y18640156D01*
X11601687Y18686301D01*
X11666944Y18751558D01*
X11713089Y18831482D01*
X11736975Y18920626D01*
X11736975Y19012914D01*
X11731955Y19031649D01*
X11731955Y19031652D01*
X11728072Y19046142D01*
X13249500Y19046142D01*
X13249500Y18953859D01*
X13249501Y18953851D01*
X13273385Y18864714D01*
X13273386Y18864712D01*
X13314277Y18793887D01*
X13319531Y18784788D01*
X13384788Y18719531D01*
X13464712Y18673386D01*
X13553856Y18649500D01*
X13553858Y18649500D01*
X13646142Y18649500D01*
X13646144Y18649500D01*
X13735288Y18673386D01*
X13815212Y18719531D01*
X13880469Y18784788D01*
X13926614Y18864712D01*
X13937082Y18903782D01*
X13966507Y18945804D01*
X14016062Y18959083D01*
X14062558Y18937402D01*
X14075465Y18918087D01*
X14075933Y18918356D01*
X14107363Y18863918D01*
X14124536Y18834175D01*
X14189793Y18768918D01*
X14269717Y18722773D01*
X14358861Y18698887D01*
X14358863Y18698887D01*
X14451147Y18698887D01*
X14451149Y18698887D01*
X14540293Y18722773D01*
X14620217Y18768918D01*
X14685474Y18834175D01*
X14731619Y18914099D01*
X14755505Y19003243D01*
X14755505Y19095531D01*
X14731619Y19184675D01*
X14685474Y19264599D01*
X14620217Y19329856D01*
X14620216Y19329857D01*
X14540293Y19376001D01*
X14540291Y19376002D01*
X14451154Y19399886D01*
X14451151Y19399887D01*
X14451149Y19399887D01*
X14358861Y19399887D01*
X14358859Y19399887D01*
X14358855Y19399886D01*
X14269718Y19376002D01*
X14269716Y19376001D01*
X14189793Y19329857D01*
X14124535Y19264599D01*
X14078391Y19184676D01*
X14078390Y19184675D01*
X14067922Y19145607D01*
X14038495Y19103583D01*
X13988940Y19090306D01*
X13942444Y19111988D01*
X13929540Y19131302D01*
X13929072Y19131031D01*
X13880469Y19215212D01*
X13815211Y19280470D01*
X13735288Y19326614D01*
X13735286Y19326615D01*
X13646149Y19350499D01*
X13646146Y19350500D01*
X13646144Y19350500D01*
X13553856Y19350500D01*
X13553854Y19350500D01*
X13553850Y19350499D01*
X13464713Y19326615D01*
X13464711Y19326614D01*
X13384788Y19280470D01*
X13319530Y19215212D01*
X13273386Y19135289D01*
X13273385Y19135287D01*
X13249501Y19046150D01*
X13249500Y19046142D01*
X11728072Y19046142D01*
X11714836Y19095537D01*
X11713089Y19102058D01*
X11666944Y19181982D01*
X11601687Y19247239D01*
X11601686Y19247240D01*
X11521763Y19293384D01*
X11521761Y19293385D01*
X11432624Y19317269D01*
X11432621Y19317270D01*
X11432619Y19317270D01*
X11340331Y19317270D01*
X11340329Y19317270D01*
X11340325Y19317269D01*
X11251188Y19293385D01*
X11251186Y19293384D01*
X11171263Y19247240D01*
X11106005Y19181982D01*
X11059861Y19102059D01*
X11059860Y19102057D01*
X11035976Y19012920D01*
X11035975Y19012912D01*
X10577641Y19012912D01*
X10600505Y19098243D01*
X10600505Y19190531D01*
X10576619Y19279675D01*
X10530474Y19359599D01*
X10465217Y19424856D01*
X10465216Y19424857D01*
X10385293Y19471001D01*
X10385291Y19471002D01*
X10296154Y19494886D01*
X10296151Y19494887D01*
X10296149Y19494887D01*
X10203861Y19494887D01*
X10203859Y19494887D01*
X10203855Y19494886D01*
X10114718Y19471002D01*
X10114716Y19471001D01*
X10034793Y19424857D01*
X9969535Y19359599D01*
X9923391Y19279676D01*
X9923390Y19279674D01*
X9899506Y19190537D01*
X9899505Y19190529D01*
X9238608Y19190529D01*
X9226615Y19235285D01*
X9226614Y19235286D01*
X9226614Y19235288D01*
X9180469Y19315212D01*
X9115212Y19380469D01*
X9115211Y19380470D01*
X9035288Y19426614D01*
X9035286Y19426615D01*
X8946149Y19450499D01*
X8946146Y19450500D01*
X8946144Y19450500D01*
X8853856Y19450500D01*
X8853854Y19450500D01*
X8853850Y19450499D01*
X8764713Y19426615D01*
X8764711Y19426614D01*
X8684788Y19380470D01*
X8619528Y19315210D01*
X8573944Y19236258D01*
X8534643Y19203282D01*
X8483340Y19203283D01*
X8444040Y19236260D01*
X8441706Y19240303D01*
X8441086Y19241377D01*
X8375829Y19306634D01*
X8375828Y19306635D01*
X8295905Y19352779D01*
X8295903Y19352780D01*
X8206766Y19376664D01*
X8206763Y19376665D01*
X8206761Y19376665D01*
X8114473Y19376665D01*
X8114471Y19376665D01*
X8114467Y19376664D01*
X8025330Y19352780D01*
X8025328Y19352779D01*
X7945405Y19306635D01*
X7880147Y19241377D01*
X7834003Y19161454D01*
X7834002Y19161452D01*
X7810118Y19072315D01*
X7810117Y19072307D01*
X7477704Y19072307D01*
X7445029Y19128901D01*
X7379772Y19194158D01*
X7379771Y19194159D01*
X7299848Y19240303D01*
X7299846Y19240304D01*
X7210709Y19264188D01*
X7210706Y19264189D01*
X7210704Y19264189D01*
X7118416Y19264189D01*
X7118414Y19264189D01*
X7118410Y19264188D01*
X7029273Y19240304D01*
X7029271Y19240303D01*
X6949348Y19194159D01*
X6884090Y19128901D01*
X6837948Y19048981D01*
X6837945Y19048976D01*
X6814061Y18959839D01*
X6814060Y18959831D01*
X3513459Y18959831D01*
X3510603Y18974188D01*
X3457837Y19101577D01*
X3381230Y19216228D01*
X3381228Y19216231D01*
X3283731Y19313728D01*
X3283728Y19313730D01*
X3169077Y19390337D01*
X3041687Y19443103D01*
X2906450Y19470004D01*
X2612505Y19470004D01*
X2612505Y19070004D01*
X2262505Y19070004D01*
X2262505Y19470004D01*
X1968560Y19470004D01*
X1833322Y19443103D01*
X1705932Y19390337D01*
X1591281Y19313730D01*
X1591278Y19313728D01*
X1493781Y19216231D01*
X1493779Y19216228D01*
X1417172Y19101577D01*
X1364406Y18974187D01*
X1358601Y18945004D01*
X-283592Y18945004D01*
X-289397Y18974187D01*
X-342163Y19101577D01*
X-418770Y19216228D01*
X-418772Y19216231D01*
X-516269Y19313728D01*
X-516272Y19313730D01*
X-630923Y19390337D01*
X-758313Y19443103D01*
X-893550Y19470004D01*
X-1387495Y19470004D01*
X-1387495Y19070004D01*
X-1737495Y19070004D01*
X-1737495Y19470004D01*
X-2231440Y19470004D01*
X-2366678Y19443103D01*
X-2494068Y19390337D01*
X-2608719Y19313730D01*
X-2608722Y19313728D01*
X-2706219Y19216231D01*
X-2706221Y19216228D01*
X-2782828Y19101577D01*
X-2835594Y18974187D01*
X-2841399Y18945004D01*
X-3378056Y18945004D01*
X-3378001Y20770529D01*
X-295495Y20770529D01*
X-295495Y20678246D01*
X-295494Y20678238D01*
X-271610Y20589101D01*
X-271609Y20589099D01*
X-257220Y20564176D01*
X-225464Y20509175D01*
X-160207Y20443918D01*
X-80283Y20397773D01*
X8861Y20373887D01*
X8863Y20373887D01*
X101147Y20373887D01*
X101149Y20373887D01*
X190293Y20397773D01*
X270217Y20443918D01*
X335474Y20509175D01*
X381619Y20589099D01*
X405505Y20678243D01*
X405505Y20770531D01*
X381619Y20859675D01*
X335474Y20939599D01*
X270217Y21004856D01*
X270216Y21004857D01*
X190293Y21051001D01*
X190291Y21051002D01*
X101154Y21074886D01*
X101151Y21074887D01*
X101149Y21074887D01*
X8861Y21074887D01*
X8859Y21074887D01*
X8855Y21074886D01*
X-80282Y21051002D01*
X-80284Y21051001D01*
X-160207Y21004857D01*
X-225465Y20939599D01*
X-271609Y20859676D01*
X-271610Y20859674D01*
X-295494Y20770537D01*
X-295495Y20770529D01*
X-3378001Y20770529D01*
X-3378001Y20775449D01*
X-3377985Y21309528D01*
X5168101Y21309528D01*
X5168101Y21217245D01*
X5168102Y21217237D01*
X5191986Y21128100D01*
X5191987Y21128098D01*
X5236499Y21051001D01*
X5238132Y21048174D01*
X5303389Y20982917D01*
X5383313Y20936772D01*
X5388912Y20935272D01*
X5430938Y20905848D01*
X5444504Y20862827D01*
X5444504Y20848245D01*
X5444505Y20848237D01*
X5468389Y20759100D01*
X5468390Y20759098D01*
X5512626Y20682479D01*
X5514535Y20679174D01*
X5579792Y20613917D01*
X5659716Y20567772D01*
X5748860Y20543886D01*
X5748862Y20543886D01*
X5841146Y20543886D01*
X5841148Y20543886D01*
X5930292Y20567772D01*
X6010216Y20613917D01*
X6029472Y20633173D01*
X6075968Y20654855D01*
X6125523Y20641576D01*
X6135538Y20633173D01*
X6144793Y20623918D01*
X6224717Y20577773D01*
X6313861Y20553887D01*
X6313863Y20553887D01*
X6406147Y20553887D01*
X6406149Y20553887D01*
X6495293Y20577773D01*
X6575217Y20623918D01*
X6575827Y20624528D01*
X18253101Y20624528D01*
X18253101Y20532245D01*
X18253102Y20532237D01*
X18276986Y20443100D01*
X18276987Y20443098D01*
X18316946Y20373887D01*
X18323132Y20363174D01*
X18388389Y20297917D01*
X18468313Y20251772D01*
X18473912Y20250272D01*
X18515938Y20220848D01*
X18529504Y20177827D01*
X18529504Y20168245D01*
X18529505Y20168237D01*
X18553389Y20079100D01*
X18553390Y20079098D01*
X18599533Y19999176D01*
X18599535Y19999174D01*
X18664792Y19933917D01*
X18744716Y19887772D01*
X18833860Y19863886D01*
X18833862Y19863886D01*
X18926146Y19863886D01*
X18926148Y19863886D01*
X19015292Y19887772D01*
X19095216Y19933917D01*
X19109472Y19948173D01*
X19155968Y19969855D01*
X19205523Y19956576D01*
X19215538Y19948173D01*
X19229793Y19933918D01*
X19309717Y19887773D01*
X19398861Y19863887D01*
X19398863Y19863887D01*
X19491147Y19863887D01*
X19491149Y19863887D01*
X19580293Y19887773D01*
X19660217Y19933918D01*
X19725474Y19999175D01*
X19771619Y20079099D01*
X19795505Y20168243D01*
X19795505Y20177864D01*
X19813052Y20226073D01*
X19851092Y20250308D01*
X19860293Y20252773D01*
X19940217Y20298918D01*
X20005474Y20364175D01*
X20051619Y20444099D01*
X20075505Y20533243D01*
X20075505Y20625531D01*
X20051619Y20714675D01*
X20005474Y20794599D01*
X19940217Y20859856D01*
X19940216Y20859857D01*
X19860294Y20906001D01*
X19851090Y20908467D01*
X19809067Y20937895D01*
X19795505Y20980911D01*
X19795505Y21010529D01*
X19795503Y21010536D01*
X19771619Y21099675D01*
X19725474Y21179599D01*
X19660217Y21244856D01*
X19660216Y21244857D01*
X19589830Y21285495D01*
X19580294Y21291001D01*
X19580291Y21291002D01*
X19491154Y21314886D01*
X19491151Y21314887D01*
X19491149Y21314887D01*
X19398861Y21314887D01*
X19398859Y21314887D01*
X19398855Y21314886D01*
X19309718Y21291002D01*
X19309716Y21291001D01*
X19229793Y21244857D01*
X19215537Y21230600D01*
X19169041Y21208918D01*
X19119486Y21222197D01*
X19109471Y21230600D01*
X19095215Y21244856D01*
X19015292Y21291000D01*
X19015290Y21291001D01*
X18926153Y21314885D01*
X18926150Y21314886D01*
X18926148Y21314886D01*
X18833860Y21314886D01*
X18833858Y21314886D01*
X18833854Y21314885D01*
X18744717Y21291001D01*
X18744715Y21291000D01*
X18664792Y21244856D01*
X18599534Y21179598D01*
X18553390Y21099675D01*
X18553389Y21099673D01*
X18529505Y21010536D01*
X18529504Y21010528D01*
X18529504Y20978946D01*
X18511957Y20930737D01*
X18473917Y20906502D01*
X18468317Y20905002D01*
X18468315Y20905001D01*
X18388389Y20858856D01*
X18323131Y20793598D01*
X18276987Y20713675D01*
X18276986Y20713673D01*
X18253102Y20624536D01*
X18253101Y20624528D01*
X6575827Y20624528D01*
X6640474Y20689175D01*
X6686619Y20769099D01*
X6710505Y20858243D01*
X6710505Y20862864D01*
X6728052Y20911073D01*
X6766092Y20935308D01*
X6775293Y20937773D01*
X6855217Y20983918D01*
X6920474Y21049175D01*
X6966619Y21129099D01*
X6990505Y21218243D01*
X6990505Y21310531D01*
X6981127Y21345529D01*
X30319505Y21345529D01*
X30319505Y21253246D01*
X30319506Y21253238D01*
X30343390Y21164101D01*
X30343391Y21164099D01*
X30364176Y21128098D01*
X30389536Y21084175D01*
X30454793Y21018918D01*
X30534717Y20972773D01*
X30623861Y20948887D01*
X30623863Y20948887D01*
X30716147Y20948887D01*
X30716149Y20948887D01*
X30805293Y20972773D01*
X30885217Y21018918D01*
X30950474Y21084175D01*
X30996619Y21164099D01*
X31020505Y21253243D01*
X31020505Y21345531D01*
X30996619Y21434675D01*
X30950474Y21514599D01*
X30885217Y21579856D01*
X30885216Y21579857D01*
X30805293Y21626001D01*
X30805291Y21626002D01*
X30716154Y21649886D01*
X30716151Y21649887D01*
X30716149Y21649887D01*
X30623861Y21649887D01*
X30623859Y21649887D01*
X30623855Y21649886D01*
X30534718Y21626002D01*
X30534716Y21626001D01*
X30454793Y21579857D01*
X30389535Y21514599D01*
X30343391Y21434676D01*
X30343390Y21434674D01*
X30319506Y21345537D01*
X30319505Y21345529D01*
X6981127Y21345529D01*
X6966619Y21399675D01*
X6920474Y21479599D01*
X6855217Y21544856D01*
X6855216Y21544857D01*
X6775294Y21591001D01*
X6766090Y21593467D01*
X6724067Y21622895D01*
X6712708Y21647869D01*
X6710505Y21656758D01*
X6710505Y21680531D01*
X6686619Y21769675D01*
X6665919Y21805528D01*
X31429504Y21805528D01*
X31429504Y21713245D01*
X31429505Y21713237D01*
X31453389Y21624100D01*
X31453390Y21624097D01*
X31489308Y21561886D01*
X31498217Y21511362D01*
X31489308Y21486886D01*
X31453391Y21424677D01*
X31453390Y21424674D01*
X31429506Y21335537D01*
X31429505Y21335529D01*
X31429505Y21243246D01*
X31429506Y21243238D01*
X31453390Y21154101D01*
X31453391Y21154099D01*
X31499536Y21074175D01*
X31500949Y21072333D01*
X31501370Y21070998D01*
X31501994Y21069917D01*
X31501754Y21069779D01*
X31516379Y21023405D01*
X31506402Y20989173D01*
X31463391Y20914677D01*
X31463390Y20914674D01*
X31439506Y20825537D01*
X31439505Y20825529D01*
X31439505Y20733246D01*
X31439506Y20733238D01*
X31463390Y20644101D01*
X31463391Y20644099D01*
X31507458Y20567773D01*
X31509536Y20564175D01*
X31574793Y20498918D01*
X31654717Y20452773D01*
X31743861Y20428887D01*
X31743863Y20428887D01*
X31836147Y20428887D01*
X31836149Y20428887D01*
X31925293Y20452773D01*
X32005217Y20498918D01*
X32070474Y20564175D01*
X32116619Y20644099D01*
X32140505Y20733243D01*
X32140505Y20825531D01*
X32116619Y20914675D01*
X32070474Y20994599D01*
X32070471Y20994602D01*
X32069061Y20996440D01*
X32068639Y20997778D01*
X32068016Y20998857D01*
X32068255Y20998996D01*
X32053630Y21045368D01*
X32063608Y21079603D01*
X32106617Y21154096D01*
X32106619Y21154099D01*
X32130505Y21243243D01*
X32130505Y21335531D01*
X32106619Y21424675D01*
X32070700Y21486888D01*
X32061791Y21537411D01*
X32070701Y21561889D01*
X32091419Y21597773D01*
X32106618Y21624098D01*
X32130504Y21713242D01*
X32130504Y21805530D01*
X32106618Y21894674D01*
X32060473Y21974598D01*
X31995216Y22039855D01*
X31995215Y22039856D01*
X31915292Y22086000D01*
X31915290Y22086001D01*
X31826153Y22109885D01*
X31826150Y22109886D01*
X31826148Y22109886D01*
X31733860Y22109886D01*
X31733858Y22109886D01*
X31733854Y22109885D01*
X31644717Y22086001D01*
X31644715Y22086000D01*
X31564792Y22039856D01*
X31499534Y21974598D01*
X31453390Y21894675D01*
X31453389Y21894673D01*
X31429505Y21805536D01*
X31429504Y21805528D01*
X6665919Y21805528D01*
X6640474Y21849599D01*
X6575217Y21914856D01*
X6575216Y21914857D01*
X6495293Y21961001D01*
X6495291Y21961002D01*
X6406154Y21984886D01*
X6406151Y21984887D01*
X6406149Y21984887D01*
X6313861Y21984887D01*
X6313859Y21984887D01*
X6313855Y21984886D01*
X6224718Y21961002D01*
X6224716Y21961001D01*
X6144793Y21914857D01*
X6130537Y21900600D01*
X6084041Y21878918D01*
X6034486Y21892197D01*
X6024471Y21900600D01*
X6010215Y21914856D01*
X5930292Y21961000D01*
X5930290Y21961001D01*
X5841153Y21984885D01*
X5841150Y21984886D01*
X5841148Y21984886D01*
X5748860Y21984886D01*
X5748858Y21984886D01*
X5748854Y21984885D01*
X5659717Y21961001D01*
X5659715Y21961000D01*
X5579792Y21914856D01*
X5514534Y21849598D01*
X5468390Y21769675D01*
X5468389Y21769673D01*
X5444505Y21680536D01*
X5444504Y21680528D01*
X5444504Y21663946D01*
X5426957Y21615737D01*
X5388917Y21591502D01*
X5383317Y21590002D01*
X5383315Y21590001D01*
X5303389Y21543856D01*
X5238131Y21478598D01*
X5191987Y21398675D01*
X5191986Y21398673D01*
X5168102Y21309536D01*
X5168101Y21309528D01*
X-3377985Y21309528D01*
X-3377985Y21314448D01*
X-3377965Y21970529D01*
X1229505Y21970529D01*
X1229505Y21878246D01*
X1229506Y21878238D01*
X1253390Y21789101D01*
X1253391Y21789099D01*
X1297190Y21713237D01*
X1299536Y21709175D01*
X1364793Y21643918D01*
X1444717Y21597773D01*
X1533861Y21573887D01*
X1533863Y21573887D01*
X1626147Y21573887D01*
X1626149Y21573887D01*
X1715293Y21597773D01*
X1795217Y21643918D01*
X1860474Y21709175D01*
X1906619Y21789099D01*
X1930505Y21878243D01*
X1930505Y21970531D01*
X1906619Y22059675D01*
X1860474Y22139599D01*
X1795217Y22204856D01*
X1795216Y22204857D01*
X1715293Y22251001D01*
X1715291Y22251002D01*
X1626154Y22274886D01*
X1626151Y22274887D01*
X1626149Y22274887D01*
X1533861Y22274887D01*
X1533859Y22274887D01*
X1533855Y22274886D01*
X1444718Y22251002D01*
X1444716Y22251001D01*
X1364793Y22204857D01*
X1299535Y22139599D01*
X1253391Y22059676D01*
X1253390Y22059674D01*
X1229506Y21970537D01*
X1229505Y21970529D01*
X-3377965Y21970529D01*
X-3377965Y21975449D01*
X-3377906Y23918697D01*
X-1644150Y23918697D01*
X-1644150Y23826414D01*
X-1644149Y23826406D01*
X-1620265Y23737269D01*
X-1620264Y23737267D01*
X-1574120Y23657344D01*
X-1519809Y23603033D01*
X-1498127Y23556537D01*
X-1511406Y23506982D01*
X-1519809Y23496967D01*
X-1574120Y23442657D01*
X-1620264Y23362734D01*
X-1620265Y23362732D01*
X-1644149Y23273595D01*
X-1644150Y23273587D01*
X-1644150Y23181304D01*
X-1644149Y23181296D01*
X-1628824Y23124101D01*
X-1620264Y23092157D01*
X-1574119Y23012233D01*
X-1508862Y22946976D01*
X-1428938Y22900831D01*
X-1339794Y22876945D01*
X-1339792Y22876945D01*
X-1247508Y22876945D01*
X-1247506Y22876945D01*
X-1158362Y22900831D01*
X-1078438Y22946976D01*
X-1013181Y23012233D01*
X-967036Y23092157D01*
X-943150Y23181301D01*
X-943150Y23273589D01*
X-947825Y23291037D01*
X-947825Y23291039D01*
X-951708Y23305529D01*
X28344505Y23305529D01*
X28344505Y23213246D01*
X28344506Y23213238D01*
X28368390Y23124101D01*
X28368391Y23124099D01*
X28408761Y23054176D01*
X28414536Y23044175D01*
X28479793Y22978918D01*
X28559717Y22932773D01*
X28648861Y22908887D01*
X28648863Y22908887D01*
X28741147Y22908887D01*
X28741149Y22908887D01*
X28830293Y22932773D01*
X28885004Y22964362D01*
X28935527Y22973271D01*
X28960006Y22964361D01*
X29014713Y22932775D01*
X29014714Y22932775D01*
X29014717Y22932773D01*
X29103861Y22908887D01*
X29103863Y22908887D01*
X29196147Y22908887D01*
X29196149Y22908887D01*
X29285293Y22932773D01*
X29337505Y22962919D01*
X29388028Y22971827D01*
X29412504Y22962919D01*
X29464717Y22932773D01*
X29553861Y22908887D01*
X29553863Y22908887D01*
X29646147Y22908887D01*
X29646149Y22908887D01*
X29735293Y22932773D01*
X29796165Y22967919D01*
X29846688Y22976827D01*
X29871166Y22967918D01*
X29914717Y22942773D01*
X30003861Y22918887D01*
X30003863Y22918887D01*
X30096147Y22918887D01*
X30096149Y22918887D01*
X30185293Y22942773D01*
X30265217Y22988918D01*
X30330474Y23054175D01*
X30376619Y23134099D01*
X30400505Y23223243D01*
X30400505Y23315531D01*
X30376619Y23404675D01*
X30330474Y23484599D01*
X30265217Y23549856D01*
X30265216Y23549857D01*
X30185293Y23596001D01*
X30185291Y23596002D01*
X30096154Y23619886D01*
X30096151Y23619887D01*
X30096149Y23619887D01*
X30003861Y23619887D01*
X30003859Y23619887D01*
X30003855Y23619886D01*
X29914718Y23596002D01*
X29914712Y23595999D01*
X29853843Y23560857D01*
X29803320Y23551949D01*
X29778844Y23560857D01*
X29735294Y23586001D01*
X29735291Y23586002D01*
X29646154Y23609886D01*
X29646151Y23609887D01*
X29646149Y23609887D01*
X29553861Y23609887D01*
X29553859Y23609887D01*
X29553855Y23609886D01*
X29464718Y23586002D01*
X29464715Y23586001D01*
X29412505Y23555857D01*
X29361981Y23546948D01*
X29337505Y23555857D01*
X29285294Y23586001D01*
X29285291Y23586002D01*
X29196154Y23609886D01*
X29196151Y23609887D01*
X29196149Y23609887D01*
X29103861Y23609887D01*
X29103859Y23609887D01*
X29103855Y23609886D01*
X29014718Y23586002D01*
X29014715Y23586001D01*
X28960005Y23554413D01*
X28909482Y23545504D01*
X28885005Y23554413D01*
X28830294Y23586001D01*
X28830291Y23586002D01*
X28741154Y23609886D01*
X28741151Y23609887D01*
X28741149Y23609887D01*
X28648861Y23609887D01*
X28648859Y23609887D01*
X28648855Y23609886D01*
X28559718Y23586002D01*
X28559716Y23586001D01*
X28479793Y23539857D01*
X28414535Y23474599D01*
X28368391Y23394676D01*
X28368390Y23394674D01*
X28344506Y23305537D01*
X28344505Y23305529D01*
X-951708Y23305529D01*
X-967036Y23362732D01*
X-967037Y23362734D01*
X-985478Y23394674D01*
X-1013181Y23442657D01*
X-1067491Y23496967D01*
X-1089173Y23543463D01*
X-1075894Y23593018D01*
X-1067491Y23603033D01*
X-1050637Y23619887D01*
X-1013181Y23657343D01*
X-967036Y23737267D01*
X-943150Y23826411D01*
X-943150Y23918699D01*
X-967036Y24007843D01*
X-1013181Y24087767D01*
X-1078438Y24153024D01*
X-1078439Y24153025D01*
X-1158362Y24199169D01*
X-1158364Y24199170D01*
X-1247501Y24223054D01*
X-1247504Y24223055D01*
X-1247506Y24223055D01*
X-1339794Y24223055D01*
X-1339796Y24223055D01*
X-1339800Y24223054D01*
X-1428937Y24199170D01*
X-1428939Y24199169D01*
X-1508862Y24153025D01*
X-1574120Y24087767D01*
X-1620264Y24007844D01*
X-1620265Y24007842D01*
X-1644149Y23918705D01*
X-1644150Y23918697D01*
X-3377906Y23918697D01*
X-3377906Y23923617D01*
X-3377877Y24870529D01*
X829505Y24870529D01*
X829505Y24778246D01*
X829506Y24778238D01*
X853390Y24689101D01*
X853391Y24689099D01*
X895082Y24616888D01*
X899536Y24609175D01*
X964793Y24543918D01*
X1044717Y24497773D01*
X1133861Y24473887D01*
X1133863Y24473887D01*
X1226147Y24473887D01*
X1226149Y24473887D01*
X1315293Y24497773D01*
X1395217Y24543918D01*
X1460474Y24609175D01*
X1506619Y24689099D01*
X1530505Y24778243D01*
X1530505Y24870531D01*
X1506619Y24959675D01*
X1460474Y25039599D01*
X1454544Y25045529D01*
X4524505Y25045529D01*
X4524505Y24953246D01*
X4524506Y24953238D01*
X4548390Y24864101D01*
X4548391Y24864098D01*
X4584309Y24801887D01*
X4593218Y24751363D01*
X4584309Y24726887D01*
X4548391Y24664677D01*
X4548390Y24664674D01*
X4524506Y24575537D01*
X4524505Y24575529D01*
X4524505Y24483246D01*
X4524506Y24483238D01*
X4547107Y24398889D01*
X4548391Y24394099D01*
X4594536Y24314175D01*
X4659793Y24248918D01*
X4739717Y24202773D01*
X4828861Y24178887D01*
X4828863Y24178887D01*
X4921147Y24178887D01*
X4921149Y24178887D01*
X4930236Y24181322D01*
X4981343Y24176854D01*
X5014603Y24146379D01*
X5024536Y24129175D01*
X5089793Y24063918D01*
X5169717Y24017773D01*
X5258861Y23993887D01*
X5258863Y23993887D01*
X5351147Y23993887D01*
X5351149Y23993887D01*
X5440293Y24017773D01*
X5520217Y24063918D01*
X5585474Y24129175D01*
X5631619Y24209099D01*
X5655505Y24298243D01*
X5655505Y24390531D01*
X5631619Y24479675D01*
X5629557Y24483246D01*
X5595701Y24541886D01*
X5586791Y24592410D01*
X5595701Y24616888D01*
X5611258Y24643834D01*
X5631619Y24679099D01*
X5655505Y24768243D01*
X5655505Y24795529D01*
X25529505Y24795529D01*
X25529505Y24703246D01*
X25529506Y24703238D01*
X25553390Y24614101D01*
X25553391Y24614099D01*
X25593910Y24543918D01*
X25599536Y24534175D01*
X25664793Y24468918D01*
X25744717Y24422773D01*
X25833861Y24398887D01*
X25833863Y24398887D01*
X25926147Y24398887D01*
X25926149Y24398887D01*
X26015293Y24422773D01*
X26095217Y24468918D01*
X26160474Y24534175D01*
X26206619Y24614099D01*
X26230505Y24703243D01*
X26230505Y24795531D01*
X26206619Y24884675D01*
X26160474Y24964599D01*
X26095217Y25029856D01*
X26095216Y25029857D01*
X26015293Y25076001D01*
X26015291Y25076002D01*
X25926154Y25099886D01*
X25926151Y25099887D01*
X25926149Y25099887D01*
X25833861Y25099887D01*
X25833859Y25099887D01*
X25833855Y25099886D01*
X25744718Y25076002D01*
X25744716Y25076001D01*
X25664793Y25029857D01*
X25599535Y24964599D01*
X25553391Y24884676D01*
X25553390Y24884674D01*
X25529506Y24795537D01*
X25529505Y24795529D01*
X5655505Y24795529D01*
X5655505Y24860531D01*
X5631619Y24949675D01*
X5629559Y24953243D01*
X5592144Y25018047D01*
X5583234Y25068571D01*
X5592141Y25093044D01*
X5621619Y25144099D01*
X5645505Y25233243D01*
X5645505Y25325531D01*
X5625702Y25399438D01*
X5630173Y25450546D01*
X5666449Y25486823D01*
X5717557Y25491294D01*
X5763861Y25478887D01*
X5763863Y25478887D01*
X5856147Y25478887D01*
X5856149Y25478887D01*
X5945293Y25502773D01*
X6025217Y25548918D01*
X6090474Y25614175D01*
X6092383Y25617481D01*
X6097553Y25626435D01*
X6136853Y25659413D01*
X6188156Y25659413D01*
X6227456Y25626437D01*
X6227457Y25626435D01*
X6234533Y25614178D01*
X6234535Y25614176D01*
X6234536Y25614175D01*
X6299793Y25548918D01*
X6379717Y25502773D01*
X6468861Y25478887D01*
X6468863Y25478887D01*
X6561147Y25478887D01*
X6561149Y25478887D01*
X6650293Y25502773D01*
X6730217Y25548918D01*
X6795474Y25614175D01*
X6835614Y25683699D01*
X21926354Y25683699D01*
X21926354Y25591416D01*
X21926355Y25591408D01*
X21950239Y25502271D01*
X21950240Y25502269D01*
X21956576Y25491294D01*
X21996385Y25422345D01*
X22061642Y25357088D01*
X22141566Y25310943D01*
X22230710Y25287057D01*
X22230712Y25287057D01*
X22322996Y25287057D01*
X22322998Y25287057D01*
X22412142Y25310943D01*
X22492066Y25357088D01*
X22557323Y25422345D01*
X22603468Y25502269D01*
X22627354Y25591413D01*
X22627354Y25683701D01*
X22603468Y25772845D01*
X22557323Y25852769D01*
X22492066Y25918026D01*
X22492065Y25918027D01*
X22412142Y25964171D01*
X22412140Y25964172D01*
X22323003Y25988056D01*
X22323000Y25988057D01*
X22322998Y25988057D01*
X22230710Y25988057D01*
X22230708Y25988057D01*
X22230704Y25988056D01*
X22141567Y25964172D01*
X22141565Y25964171D01*
X22061642Y25918027D01*
X21996384Y25852769D01*
X21950240Y25772846D01*
X21950239Y25772844D01*
X21926355Y25683707D01*
X21926354Y25683699D01*
X6835614Y25683699D01*
X6841619Y25694099D01*
X6865505Y25783243D01*
X6865505Y25875531D01*
X6841619Y25964675D01*
X6795474Y26044599D01*
X6768719Y26071354D01*
X6747037Y26117850D01*
X6760316Y26167405D01*
X6768719Y26177420D01*
X6795474Y26204175D01*
X6841619Y26284099D01*
X6865505Y26373243D01*
X6865505Y26465531D01*
X6841619Y26554675D01*
X6795474Y26634599D01*
X6730217Y26699856D01*
X6730216Y26699857D01*
X6650293Y26746001D01*
X6650291Y26746002D01*
X6561154Y26769886D01*
X6561151Y26769887D01*
X6561149Y26769887D01*
X6468861Y26769887D01*
X6468859Y26769887D01*
X6468855Y26769886D01*
X6379718Y26746002D01*
X6379716Y26746001D01*
X6299793Y26699857D01*
X6234533Y26634597D01*
X6227456Y26622338D01*
X6188155Y26589362D01*
X6136852Y26589362D01*
X6097554Y26622338D01*
X6090476Y26634597D01*
X6025216Y26699857D01*
X5945293Y26746001D01*
X5945291Y26746002D01*
X5856154Y26769886D01*
X5856151Y26769887D01*
X5856149Y26769887D01*
X5763861Y26769887D01*
X5763859Y26769887D01*
X5763855Y26769886D01*
X5674718Y26746002D01*
X5674716Y26746001D01*
X5594793Y26699857D01*
X5529535Y26634599D01*
X5483391Y26554676D01*
X5483390Y26554674D01*
X5459506Y26465537D01*
X5459505Y26465529D01*
X5459505Y26373246D01*
X5459506Y26373238D01*
X5483390Y26284101D01*
X5483391Y26284099D01*
X5529535Y26204176D01*
X5556291Y26177420D01*
X5577973Y26130924D01*
X5564694Y26081369D01*
X5556291Y26071354D01*
X5529535Y26044599D01*
X5483391Y25964676D01*
X5483390Y25964674D01*
X5459506Y25875537D01*
X5459505Y25875529D01*
X5459505Y25783243D01*
X5479308Y25709336D01*
X5474836Y25658228D01*
X5438559Y25621952D01*
X5387452Y25617481D01*
X5341156Y25629886D01*
X5341150Y25629887D01*
X5341149Y25629887D01*
X5248861Y25629887D01*
X5248859Y25629887D01*
X5248855Y25629886D01*
X5159718Y25606002D01*
X5159716Y25606001D01*
X5079793Y25559857D01*
X5014535Y25494599D01*
X4968391Y25414677D01*
X4967290Y25410568D01*
X4965925Y25405476D01*
X4936502Y25363452D01*
X4893482Y25349887D01*
X4828861Y25349887D01*
X4828859Y25349887D01*
X4828855Y25349886D01*
X4739718Y25326002D01*
X4739716Y25326001D01*
X4659793Y25279857D01*
X4594535Y25214599D01*
X4548391Y25134676D01*
X4548390Y25134674D01*
X4524506Y25045537D01*
X4524505Y25045529D01*
X1454544Y25045529D01*
X1395217Y25104856D01*
X1395216Y25104857D01*
X1315293Y25151001D01*
X1315291Y25151002D01*
X1226154Y25174886D01*
X1226151Y25174887D01*
X1226149Y25174887D01*
X1133861Y25174887D01*
X1133859Y25174887D01*
X1133855Y25174886D01*
X1044718Y25151002D01*
X1044716Y25151001D01*
X964793Y25104857D01*
X899535Y25039599D01*
X853391Y24959676D01*
X853390Y24959674D01*
X829506Y24870537D01*
X829505Y24870529D01*
X-3377877Y24870529D01*
X-3377877Y24875449D01*
X-3377842Y26044600D01*
X-3377842Y26057362D01*
X-3377843Y26058970D01*
X-3377843Y26059010D01*
X-3377843Y26059021D01*
X-3377841Y26097268D01*
X-3377846Y26097280D01*
X-3377856Y26204463D01*
X-3408163Y26497052D01*
X-3468465Y26784959D01*
X-3558119Y27065118D01*
X-3604049Y27169944D01*
X-3628200Y27225063D01*
X-3676168Y27334540D01*
X-3676172Y27334548D01*
X-3780810Y27518918D01*
X-3818316Y27585004D01*
X-2841399Y27585004D01*
X-2407868Y27585004D01*
X-2442049Y27525800D01*
X-2462493Y27449500D01*
X-2462493Y27370508D01*
X-2442049Y27294208D01*
X-2407868Y27235004D01*
X-2841399Y27235004D01*
X-2835594Y27205822D01*
X-2782828Y27078432D01*
X-2706221Y26963781D01*
X-2706219Y26963778D01*
X-2608722Y26866281D01*
X-2608719Y26866279D01*
X-2494068Y26789672D01*
X-2366678Y26736906D01*
X-2231440Y26710004D01*
X-1737495Y26710004D01*
X-1737495Y27110004D01*
X-1387495Y27110004D01*
X-1387495Y26710004D01*
X-893550Y26710004D01*
X-758313Y26736906D01*
X-630923Y26789672D01*
X-516272Y26866279D01*
X-516269Y26866281D01*
X-418772Y26963778D01*
X-418770Y26963781D01*
X-342163Y27078432D01*
X-289397Y27205822D01*
X-283591Y27235004D01*
X-717122Y27235004D01*
X-682941Y27294208D01*
X-662497Y27370508D01*
X-662497Y27449500D01*
X-682941Y27525800D01*
X-717122Y27585004D01*
X-283592Y27585004D01*
X1358601Y27585004D01*
X1792118Y27585004D01*
X1757937Y27525800D01*
X1737493Y27449500D01*
X1737493Y27370508D01*
X1757937Y27294208D01*
X1792118Y27235004D01*
X1358601Y27235004D01*
X1364406Y27205822D01*
X1417172Y27078432D01*
X1493779Y26963781D01*
X1493781Y26963778D01*
X1591278Y26866281D01*
X1591281Y26866279D01*
X1705932Y26789672D01*
X1833322Y26736906D01*
X1968560Y26710004D01*
X2262505Y26710004D01*
X2262505Y27110004D01*
X2612505Y27110004D01*
X2612505Y26710004D01*
X2906450Y26710004D01*
X3041687Y26736906D01*
X3169077Y26789672D01*
X3283728Y26866279D01*
X3283731Y26866281D01*
X3381228Y26963778D01*
X3381230Y26963781D01*
X3457837Y27078432D01*
X3510603Y27205822D01*
X3516409Y27235004D01*
X3082892Y27235004D01*
X3117073Y27294208D01*
X3137517Y27370508D01*
X3137517Y27449500D01*
X3117073Y27525800D01*
X3082892Y27585004D01*
X3516408Y27585004D01*
X3510603Y27614187D01*
X3457837Y27741577D01*
X3381230Y27856228D01*
X3381228Y27856231D01*
X3283731Y27953728D01*
X3283728Y27953730D01*
X3169077Y28030337D01*
X3041687Y28083103D01*
X2906450Y28110004D01*
X2612505Y28110004D01*
X2612505Y27710004D01*
X2262505Y27710004D01*
X2262505Y28110004D01*
X1968560Y28110004D01*
X1833322Y28083103D01*
X1705932Y28030337D01*
X1591281Y27953730D01*
X1591278Y27953728D01*
X1493781Y27856231D01*
X1493779Y27856228D01*
X1417172Y27741577D01*
X1364406Y27614187D01*
X1358601Y27585004D01*
X-283592Y27585004D01*
X-289397Y27614187D01*
X-342163Y27741577D01*
X-418770Y27856228D01*
X-418772Y27856231D01*
X-516269Y27953728D01*
X-516272Y27953730D01*
X-630923Y28030337D01*
X-758313Y28083103D01*
X-893550Y28110004D01*
X-1387495Y28110004D01*
X-1387495Y27710004D01*
X-1737495Y27710004D01*
X-1737495Y28110004D01*
X-2231440Y28110004D01*
X-2366678Y28083103D01*
X-2494068Y28030337D01*
X-2608719Y27953730D01*
X-2608722Y27953728D01*
X-2706219Y27856231D01*
X-2706221Y27856228D01*
X-2782828Y27741577D01*
X-2835594Y27614187D01*
X-2841399Y27585004D01*
X-3818316Y27585004D01*
X-3821361Y27590369D01*
X-3937501Y27753238D01*
X-3992142Y27829864D01*
X-3992146Y27829869D01*
X-4058034Y27904603D01*
X-4063028Y27910267D01*
X-4063031Y27910278D01*
X-4087183Y27937665D01*
X-4091418Y27942931D01*
X-4117787Y27978918D01*
X-4184950Y28070578D01*
X-4191930Y28082168D01*
X-4259524Y28221501D01*
X-4264303Y28234147D01*
X-4284135Y28305529D01*
X18274505Y28305529D01*
X18274505Y28213246D01*
X18274506Y28213238D01*
X18298390Y28124101D01*
X18298391Y28124099D01*
X18338761Y28054176D01*
X18344536Y28044175D01*
X18409793Y27978918D01*
X18489717Y27932773D01*
X18578861Y27908887D01*
X18578863Y27908887D01*
X18671147Y27908887D01*
X18671149Y27908887D01*
X18760293Y27932773D01*
X18840217Y27978918D01*
X18905474Y28044175D01*
X18951619Y28124099D01*
X18975505Y28213243D01*
X18975505Y28305529D01*
X19294505Y28305529D01*
X19294505Y28213246D01*
X19294506Y28213238D01*
X19318390Y28124101D01*
X19318391Y28124099D01*
X19358761Y28054176D01*
X19364536Y28044175D01*
X19429793Y27978918D01*
X19509717Y27932773D01*
X19598861Y27908887D01*
X19598863Y27908887D01*
X19691147Y27908887D01*
X19691149Y27908887D01*
X19780293Y27932773D01*
X19860217Y27978918D01*
X19925474Y28044175D01*
X19971619Y28124099D01*
X19995505Y28213243D01*
X19995505Y28288631D01*
X20223099Y28288631D01*
X20223099Y28196348D01*
X20223100Y28196340D01*
X20246984Y28107203D01*
X20246985Y28107201D01*
X20286941Y28037995D01*
X20293130Y28027277D01*
X20358387Y27962020D01*
X20438311Y27915875D01*
X20527455Y27891989D01*
X20527457Y27891989D01*
X20619741Y27891989D01*
X20619743Y27891989D01*
X20708887Y27915875D01*
X20788811Y27962020D01*
X20854068Y28027277D01*
X20900213Y28107201D01*
X20924099Y28196345D01*
X20924099Y28288633D01*
X20919571Y28305531D01*
X20916892Y28315529D01*
X21194505Y28315529D01*
X21194505Y28223246D01*
X21194506Y28223238D01*
X21218390Y28134101D01*
X21218391Y28134099D01*
X21256685Y28067772D01*
X21264536Y28054175D01*
X21329793Y27988918D01*
X21409717Y27942773D01*
X21498861Y27918887D01*
X21498863Y27918887D01*
X21591147Y27918887D01*
X21591149Y27918887D01*
X21680293Y27942773D01*
X21760217Y27988918D01*
X21825474Y28054175D01*
X21871619Y28134099D01*
X21895505Y28223243D01*
X21895505Y28315531D01*
X21871619Y28404675D01*
X21825474Y28484599D01*
X21760217Y28549856D01*
X21760216Y28549857D01*
X21680293Y28596001D01*
X21680291Y28596002D01*
X21591154Y28619886D01*
X21591151Y28619887D01*
X21591149Y28619887D01*
X21498861Y28619887D01*
X21498859Y28619887D01*
X21498855Y28619886D01*
X21409718Y28596002D01*
X21409716Y28596001D01*
X21329793Y28549857D01*
X21264535Y28484599D01*
X21218391Y28404676D01*
X21218390Y28404674D01*
X21194506Y28315537D01*
X21194505Y28315529D01*
X20916892Y28315529D01*
X20900214Y28377774D01*
X20900213Y28377776D01*
X20900213Y28377777D01*
X20854068Y28457701D01*
X20788811Y28522958D01*
X20788810Y28522959D01*
X20708887Y28569103D01*
X20708885Y28569104D01*
X20619748Y28592988D01*
X20619745Y28592989D01*
X20619743Y28592989D01*
X20527455Y28592989D01*
X20527453Y28592989D01*
X20527449Y28592988D01*
X20438312Y28569104D01*
X20438310Y28569103D01*
X20358387Y28522959D01*
X20293129Y28457701D01*
X20246985Y28377778D01*
X20246984Y28377776D01*
X20223100Y28288639D01*
X20223099Y28288631D01*
X19995505Y28288631D01*
X19995505Y28305531D01*
X19971619Y28394675D01*
X19925474Y28474599D01*
X19860217Y28539856D01*
X19860216Y28539857D01*
X19780293Y28586001D01*
X19780291Y28586002D01*
X19691154Y28609886D01*
X19691151Y28609887D01*
X19691149Y28609887D01*
X19598861Y28609887D01*
X19598859Y28609887D01*
X19598855Y28609886D01*
X19509718Y28586002D01*
X19509716Y28586001D01*
X19429793Y28539857D01*
X19364535Y28474599D01*
X19318391Y28394676D01*
X19318390Y28394674D01*
X19294506Y28305537D01*
X19294505Y28305529D01*
X18975505Y28305529D01*
X18975505Y28305531D01*
X18951619Y28394675D01*
X18905474Y28474599D01*
X18840217Y28539856D01*
X18840216Y28539857D01*
X18760293Y28586001D01*
X18760291Y28586002D01*
X18671154Y28609886D01*
X18671151Y28609887D01*
X18671149Y28609887D01*
X18578861Y28609887D01*
X18578859Y28609887D01*
X18578855Y28609886D01*
X18489718Y28586002D01*
X18489716Y28586001D01*
X18409793Y28539857D01*
X18344535Y28474599D01*
X18298391Y28394676D01*
X18298390Y28394674D01*
X18274506Y28305537D01*
X18274505Y28305529D01*
X-4284135Y28305529D01*
X-4305760Y28383365D01*
X-4308188Y28396658D01*
X-4322460Y28554271D01*
X-4322766Y28561035D01*
X-4322766Y28562705D01*
X-4322721Y30012241D01*
X-4322721Y30026102D01*
X-4322490Y30031988D01*
X-4321027Y30050577D01*
X-4311688Y30169202D01*
X-4309846Y30180824D01*
X-4309041Y30184176D01*
X-4278403Y30311781D01*
X-4274773Y30322955D01*
X-4223228Y30447387D01*
X-4217887Y30457867D01*
X-4189509Y30504175D01*
X-4147511Y30572709D01*
X-4140615Y30582203D01*
X-4051193Y30686899D01*
X-4047234Y30691181D01*
X-4021100Y30717313D01*
X-4021100Y30717316D01*
X-3053474Y31684931D01*
X-3053470Y31684933D01*
X-3042924Y31695479D01*
X-3042923Y31695479D01*
X-3017693Y31720710D01*
X-3011440Y31726298D01*
X-2924067Y31795974D01*
X-2909866Y31804898D01*
X-2813001Y31851544D01*
X-2797165Y31857086D01*
X-2692356Y31881008D01*
X-2675670Y31882887D01*
X-2568169Y31882887D01*
X-2551495Y31881007D01*
X-2454914Y31858962D01*
X-2446695Y31857086D01*
X-2430843Y31851540D01*
X-2333993Y31804899D01*
X-2319773Y31795964D01*
X-2232421Y31726302D01*
X-2226153Y31720701D01*
X-2215043Y31709591D01*
X-1980717Y31475263D01*
X-1955221Y31449766D01*
X-1950108Y31444104D01*
X-1885964Y31365341D01*
X-1877583Y31352589D01*
X-1832499Y31265900D01*
X-1826870Y31251711D01*
X-1800270Y31157684D01*
X-1797631Y31142648D01*
X-1790621Y31045183D01*
X-1791081Y31029927D01*
X-1804454Y30929252D01*
X-1805835Y30921780D01*
X-1814206Y30886662D01*
X-1814198Y30886608D01*
X-1815894Y30879473D01*
X-1815894Y30879470D01*
X-1835716Y30796102D01*
X-1859637Y30531256D01*
X-1859638Y30531245D01*
X-1845321Y30265720D01*
X-1845321Y30265716D01*
X-1845320Y30265714D01*
X-1838133Y30229856D01*
X-1793063Y30004972D01*
X-1703949Y29754433D01*
X-1703945Y29754424D01*
X-1579814Y29519256D01*
X-1579810Y29519250D01*
X-1423232Y29304322D01*
X-1423230Y29304320D01*
X-1423227Y29304316D01*
X-1237432Y29114063D01*
X-1237428Y29114060D01*
X-1237426Y29114058D01*
X-1026267Y28952426D01*
X-1026264Y28952424D01*
X-794108Y28822754D01*
X-794093Y28822748D01*
X-769293Y28813259D01*
X-545738Y28727720D01*
X-286310Y28669296D01*
X-21190Y28648689D01*
X-21186Y28648688D01*
X-21186Y28648689D01*
X-21185Y28648688D01*
X244155Y28666323D01*
X504221Y28721836D01*
X753635Y28814079D01*
X987239Y28941144D01*
X1200201Y29100403D01*
X1388117Y29288562D01*
X1547100Y29501730D01*
X1606097Y29610529D01*
X2924505Y29610529D01*
X2924505Y29518246D01*
X2924506Y29518238D01*
X2948390Y29429101D01*
X2948391Y29429098D01*
X2991526Y29354387D01*
X3000435Y29303864D01*
X2991526Y29279387D01*
X2948391Y29204677D01*
X2948390Y29204674D01*
X2924506Y29115537D01*
X2924505Y29115529D01*
X2924505Y29023246D01*
X2924506Y29023238D01*
X2948390Y28934101D01*
X2948391Y28934099D01*
X2984625Y28871340D01*
X2994536Y28854175D01*
X3059793Y28788918D01*
X3139717Y28742773D01*
X3228861Y28718887D01*
X3228863Y28718887D01*
X3321147Y28718887D01*
X3321149Y28718887D01*
X3410293Y28742773D01*
X3490217Y28788918D01*
X3555474Y28854175D01*
X3601619Y28934099D01*
X3625505Y29023243D01*
X3625505Y29115531D01*
X3601619Y29204675D01*
X3601346Y29205147D01*
X3558484Y29279386D01*
X3549574Y29329910D01*
X3558484Y29354388D01*
X3581744Y29394675D01*
X3601619Y29429099D01*
X3625505Y29518243D01*
X3625505Y29610531D01*
X3601619Y29699675D01*
X3593516Y29713709D01*
X3572531Y29750056D01*
X3563621Y29800579D01*
X3572531Y29825058D01*
X3606619Y29884099D01*
X3630505Y29973243D01*
X3630505Y29995529D01*
X4929505Y29995529D01*
X4929505Y29903246D01*
X4929506Y29903238D01*
X4953390Y29814101D01*
X4953391Y29814099D01*
X4998773Y29735495D01*
X4999536Y29734175D01*
X5064793Y29668918D01*
X5144717Y29622773D01*
X5233861Y29598887D01*
X5233863Y29598887D01*
X5326147Y29598887D01*
X5326149Y29598887D01*
X5415293Y29622773D01*
X5495217Y29668918D01*
X5560474Y29734175D01*
X5606619Y29814099D01*
X5630505Y29903243D01*
X5630505Y29995531D01*
X5629030Y30001037D01*
X5629030Y30001039D01*
X5625147Y30015529D01*
X6068429Y30015529D01*
X6068429Y29923246D01*
X6068430Y29923238D01*
X6092314Y29834101D01*
X6092315Y29834099D01*
X6137002Y29756699D01*
X6138460Y29754175D01*
X6203717Y29688918D01*
X6283641Y29642773D01*
X6372785Y29618887D01*
X6372787Y29618887D01*
X6465071Y29618887D01*
X6465073Y29618887D01*
X6554217Y29642773D01*
X6634141Y29688918D01*
X6699398Y29754175D01*
X6745543Y29834099D01*
X6769429Y29923243D01*
X6769429Y30015529D01*
X7239505Y30015529D01*
X7239505Y29923246D01*
X7239506Y29923238D01*
X7263390Y29834101D01*
X7263391Y29834099D01*
X7308078Y29756699D01*
X7309536Y29754175D01*
X7374793Y29688918D01*
X7454717Y29642773D01*
X7543861Y29618887D01*
X7543863Y29618887D01*
X7636147Y29618887D01*
X7636149Y29618887D01*
X7725293Y29642773D01*
X7805217Y29688918D01*
X7870474Y29754175D01*
X7916619Y29834099D01*
X7940505Y29923243D01*
X7940505Y30015529D01*
X8539505Y30015529D01*
X8539505Y29923246D01*
X8539506Y29923238D01*
X8563390Y29834101D01*
X8563391Y29834099D01*
X8608078Y29756699D01*
X8609536Y29754175D01*
X8674793Y29688918D01*
X8754717Y29642773D01*
X8843861Y29618887D01*
X8843863Y29618887D01*
X8936147Y29618887D01*
X8936149Y29618887D01*
X9025293Y29642773D01*
X9105217Y29688918D01*
X9161828Y29745529D01*
X14537004Y29745529D01*
X14537004Y29653246D01*
X14537005Y29653238D01*
X14560889Y29564101D01*
X14560890Y29564099D01*
X14597672Y29500391D01*
X14606581Y29449868D01*
X14597672Y29425391D01*
X14568391Y29374676D01*
X14568390Y29374674D01*
X14544506Y29285537D01*
X14544505Y29285529D01*
X14544505Y29193246D01*
X14544506Y29193238D01*
X14568390Y29104101D01*
X14568391Y29104099D01*
X14613749Y29025537D01*
X14614536Y29024175D01*
X14679793Y28958918D01*
X14759717Y28912773D01*
X14848861Y28888887D01*
X14848863Y28888887D01*
X14909726Y28888887D01*
X14957935Y28871340D01*
X14975126Y28847891D01*
X14975933Y28848356D01*
X14996195Y28813261D01*
X15024536Y28764175D01*
X15089793Y28698918D01*
X15169717Y28652773D01*
X15258861Y28628887D01*
X15258863Y28628887D01*
X15351147Y28628887D01*
X15351149Y28628887D01*
X15440293Y28652773D01*
X15520217Y28698918D01*
X15585474Y28764175D01*
X15631619Y28844099D01*
X15655505Y28933243D01*
X15655505Y29015529D01*
X25499505Y29015529D01*
X25499505Y28923246D01*
X25499506Y28923238D01*
X25523390Y28834101D01*
X25523391Y28834099D01*
X25569535Y28754176D01*
X25588792Y28734919D01*
X25610474Y28688423D01*
X25597195Y28638868D01*
X25588792Y28628853D01*
X25569536Y28609598D01*
X25523392Y28529675D01*
X25523391Y28529673D01*
X25499507Y28440536D01*
X25499506Y28440528D01*
X25499506Y28348245D01*
X25499507Y28348237D01*
X25523391Y28259100D01*
X25523392Y28259098D01*
X25545102Y28221495D01*
X25569537Y28179174D01*
X25634794Y28113917D01*
X25714718Y28067772D01*
X25803862Y28043886D01*
X25807767Y28043886D01*
X25855976Y28026339D01*
X25880211Y27988297D01*
X25884390Y27972699D01*
X25884392Y27972695D01*
X25923705Y27904603D01*
X25930537Y27892771D01*
X25995794Y27827514D01*
X26075718Y27781369D01*
X26164862Y27757483D01*
X26164864Y27757483D01*
X26257148Y27757483D01*
X26257150Y27757483D01*
X26346294Y27781369D01*
X26426218Y27827514D01*
X26444233Y27845529D01*
X28054505Y27845529D01*
X28054505Y27753246D01*
X28054506Y27753238D01*
X28078390Y27664101D01*
X28078391Y27664099D01*
X28121265Y27589839D01*
X28124536Y27584175D01*
X28189793Y27518918D01*
X28269717Y27472773D01*
X28358861Y27448887D01*
X28358863Y27448887D01*
X28451147Y27448887D01*
X28451149Y27448887D01*
X28540293Y27472773D01*
X28617504Y27517353D01*
X28668028Y27526261D01*
X28692504Y27517353D01*
X28769717Y27472773D01*
X28858861Y27448887D01*
X28858863Y27448887D01*
X28951147Y27448887D01*
X28951149Y27448887D01*
X29040293Y27472773D01*
X29117504Y27517353D01*
X29168028Y27526261D01*
X29192504Y27517353D01*
X29269717Y27472773D01*
X29358861Y27448887D01*
X29358863Y27448887D01*
X29451147Y27448887D01*
X29451149Y27448887D01*
X29540293Y27472773D01*
X29620217Y27518918D01*
X29685474Y27584175D01*
X29731619Y27664099D01*
X29755505Y27753243D01*
X29755505Y27845531D01*
X29731619Y27934675D01*
X29685474Y28014599D01*
X29620217Y28079856D01*
X29620216Y28079857D01*
X29540293Y28126001D01*
X29540291Y28126002D01*
X29451154Y28149886D01*
X29451151Y28149887D01*
X29451149Y28149887D01*
X29358861Y28149887D01*
X29358859Y28149887D01*
X29358855Y28149886D01*
X29269718Y28126002D01*
X29269715Y28126001D01*
X29192505Y28081423D01*
X29141981Y28072514D01*
X29117505Y28081423D01*
X29040294Y28126001D01*
X29040291Y28126002D01*
X28951154Y28149886D01*
X28951151Y28149887D01*
X28951149Y28149887D01*
X28858861Y28149887D01*
X28858859Y28149887D01*
X28858855Y28149886D01*
X28769718Y28126002D01*
X28769715Y28126001D01*
X28692505Y28081423D01*
X28641981Y28072514D01*
X28617505Y28081423D01*
X28540294Y28126001D01*
X28540291Y28126002D01*
X28451154Y28149886D01*
X28451151Y28149887D01*
X28451149Y28149887D01*
X28358861Y28149887D01*
X28358859Y28149887D01*
X28358855Y28149886D01*
X28269718Y28126002D01*
X28269716Y28126001D01*
X28189793Y28079857D01*
X28124535Y28014599D01*
X28078391Y27934676D01*
X28078391Y27934675D01*
X28054506Y27845537D01*
X28054505Y27845529D01*
X26444233Y27845529D01*
X26491475Y27892771D01*
X26537620Y27972695D01*
X26543865Y27996003D01*
X26547502Y28003097D01*
X26560813Y28015451D01*
X26571227Y28030322D01*
X26579728Y28033003D01*
X26585108Y28037995D01*
X26597530Y28038616D01*
X26606514Y28041449D01*
X26606278Y28043245D01*
X26611140Y28043886D01*
X26611150Y28043886D01*
X26700294Y28067772D01*
X26780218Y28113917D01*
X26845475Y28179174D01*
X26891620Y28259098D01*
X26915506Y28348242D01*
X26915506Y28440530D01*
X26891620Y28529674D01*
X26845475Y28609598D01*
X26823719Y28631354D01*
X26802037Y28677850D01*
X26815316Y28727405D01*
X26823719Y28737420D01*
X26829073Y28742774D01*
X26840474Y28754175D01*
X26886619Y28834099D01*
X26910505Y28923243D01*
X26910505Y29015531D01*
X26886619Y29104675D01*
X26840474Y29184599D01*
X26775217Y29249856D01*
X26775216Y29249857D01*
X26695293Y29296001D01*
X26695291Y29296002D01*
X26606144Y29319889D01*
X26604526Y29320102D01*
X26603654Y29320557D01*
X26601400Y29321160D01*
X26601533Y29321660D01*
X26559022Y29343796D01*
X26541879Y29375047D01*
X26536620Y29394675D01*
X26517237Y29428246D01*
X26490475Y29474599D01*
X26425217Y29539857D01*
X26345294Y29586001D01*
X26345292Y29586002D01*
X26256155Y29609886D01*
X26256152Y29609887D01*
X26256150Y29609887D01*
X26163862Y29609887D01*
X26163860Y29609887D01*
X26163856Y29609886D01*
X26074719Y29586002D01*
X26074717Y29586001D01*
X25994794Y29539857D01*
X25929536Y29474599D01*
X25883392Y29394676D01*
X25883391Y29394674D01*
X25878247Y29375475D01*
X25848821Y29333450D01*
X25808697Y29320800D01*
X25808733Y29320528D01*
X25807193Y29320326D01*
X25805803Y29319887D01*
X25803861Y29319887D01*
X25803859Y29319887D01*
X25803855Y29319886D01*
X25714718Y29296002D01*
X25714716Y29296001D01*
X25634793Y29249857D01*
X25569535Y29184599D01*
X25523391Y29104676D01*
X25523390Y29104674D01*
X25499506Y29015537D01*
X25499505Y29015529D01*
X15655505Y29015529D01*
X15655505Y29025531D01*
X15631619Y29114675D01*
X15631121Y29115537D01*
X15588484Y29189386D01*
X15579574Y29239910D01*
X15588484Y29264388D01*
X15620897Y29320528D01*
X15631619Y29339099D01*
X15655505Y29428243D01*
X15655505Y29520531D01*
X15631619Y29609675D01*
X15599836Y29664723D01*
X15590928Y29715245D01*
X15599836Y29739721D01*
X15634120Y29799099D01*
X15658006Y29888243D01*
X15658006Y29980531D01*
X15634120Y30069675D01*
X15587975Y30149599D01*
X15522718Y30214856D01*
X15522717Y30214857D01*
X15442794Y30261001D01*
X15442792Y30261002D01*
X15353655Y30284886D01*
X15353652Y30284887D01*
X15353650Y30284887D01*
X15265571Y30284887D01*
X15242620Y30293241D01*
X15219374Y30300803D01*
X15218231Y30302118D01*
X15217362Y30302434D01*
X15201953Y30320167D01*
X15201260Y30321276D01*
X15170474Y30374599D01*
X15121740Y30423333D01*
X17647309Y30423333D01*
X17647309Y30331050D01*
X17647310Y30331042D01*
X17671194Y30241905D01*
X17671195Y30241903D01*
X17716881Y30162773D01*
X17717340Y30161979D01*
X17782597Y30096722D01*
X17862521Y30050577D01*
X17951665Y30026691D01*
X17951667Y30026691D01*
X18043951Y30026691D01*
X18043953Y30026691D01*
X18133097Y30050577D01*
X18213021Y30096722D01*
X18278278Y30161979D01*
X18324423Y30241903D01*
X18348309Y30331047D01*
X18348309Y30423335D01*
X18328800Y30496142D01*
X18899500Y30496142D01*
X18899500Y30403859D01*
X18899501Y30403851D01*
X18923385Y30314714D01*
X18923386Y30314712D01*
X18963534Y30245174D01*
X18969531Y30234788D01*
X19034788Y30169531D01*
X19114712Y30123386D01*
X19203856Y30099500D01*
X19203858Y30099500D01*
X19296142Y30099500D01*
X19296144Y30099500D01*
X19385288Y30123386D01*
X19465212Y30169531D01*
X19530469Y30234788D01*
X19576614Y30314712D01*
X19600500Y30403856D01*
X19600500Y30496144D01*
X19599874Y30498480D01*
X19597686Y30506649D01*
X19593802Y30521142D01*
X19899500Y30521142D01*
X19899500Y30428859D01*
X19899501Y30428851D01*
X19923385Y30339714D01*
X19923386Y30339712D01*
X19968830Y30261001D01*
X19969531Y30259788D01*
X20034788Y30194531D01*
X20114712Y30148386D01*
X20203856Y30124500D01*
X20203858Y30124500D01*
X20296142Y30124500D01*
X20296144Y30124500D01*
X20385288Y30148386D01*
X20465212Y30194531D01*
X20530469Y30259788D01*
X20576614Y30339712D01*
X20600500Y30428856D01*
X20600500Y30445529D01*
X20924500Y30445529D01*
X20924500Y30353246D01*
X20924501Y30353238D01*
X20948385Y30264101D01*
X20948386Y30264099D01*
X20988551Y30194531D01*
X20994531Y30184175D01*
X21059788Y30118918D01*
X21139712Y30072773D01*
X21228856Y30048887D01*
X21228858Y30048887D01*
X21321142Y30048887D01*
X21321144Y30048887D01*
X21410288Y30072773D01*
X21490212Y30118918D01*
X21555469Y30184175D01*
X21601614Y30264099D01*
X21625500Y30353243D01*
X21625500Y30445531D01*
X21621346Y30461035D01*
X21621346Y30461036D01*
X21617463Y30475529D01*
X21849505Y30475529D01*
X21849505Y30383246D01*
X21849506Y30383238D01*
X21873390Y30294101D01*
X21873391Y30294099D01*
X21919142Y30214856D01*
X21919536Y30214175D01*
X21984793Y30148918D01*
X22064717Y30102773D01*
X22153861Y30078887D01*
X22153863Y30078887D01*
X22246147Y30078887D01*
X22246149Y30078887D01*
X22335293Y30102773D01*
X22415217Y30148918D01*
X22480474Y30214175D01*
X22526619Y30294099D01*
X22550505Y30383243D01*
X22550505Y30475531D01*
X22538312Y30521037D01*
X22538312Y30521039D01*
X22534429Y30535529D01*
X22899505Y30535529D01*
X22899505Y30443246D01*
X22899506Y30443238D01*
X22923390Y30354101D01*
X22923391Y30354099D01*
X22969430Y30274357D01*
X22969536Y30274175D01*
X23034793Y30208918D01*
X23114717Y30162773D01*
X23203861Y30138887D01*
X23203863Y30138887D01*
X23296147Y30138887D01*
X23296149Y30138887D01*
X23385293Y30162773D01*
X23465217Y30208918D01*
X23530474Y30274175D01*
X23576619Y30354099D01*
X23600505Y30443243D01*
X23600505Y30535531D01*
X23576619Y30624675D01*
X23530474Y30704599D01*
X23465217Y30769856D01*
X23465216Y30769857D01*
X23385293Y30816001D01*
X23385291Y30816002D01*
X23296154Y30839886D01*
X23296151Y30839887D01*
X23296149Y30839887D01*
X23203861Y30839887D01*
X23203859Y30839887D01*
X23203855Y30839886D01*
X23114718Y30816002D01*
X23114716Y30816001D01*
X23034793Y30769857D01*
X22969535Y30704599D01*
X22923391Y30624676D01*
X22923390Y30624674D01*
X22899506Y30535537D01*
X22899505Y30535529D01*
X22534429Y30535529D01*
X22526619Y30564674D01*
X22526618Y30564676D01*
X22521985Y30572700D01*
X22480474Y30644599D01*
X22415217Y30709856D01*
X22415216Y30709857D01*
X22335293Y30756001D01*
X22335291Y30756002D01*
X22246154Y30779886D01*
X22246151Y30779887D01*
X22246149Y30779887D01*
X22153861Y30779887D01*
X22153859Y30779887D01*
X22153855Y30779886D01*
X22064718Y30756002D01*
X22064716Y30756001D01*
X21984793Y30709857D01*
X21919535Y30644599D01*
X21873391Y30564676D01*
X21873390Y30564674D01*
X21849506Y30475537D01*
X21849505Y30475529D01*
X21617463Y30475529D01*
X21601615Y30534672D01*
X21601614Y30534674D01*
X21601614Y30534675D01*
X21555469Y30614599D01*
X21490212Y30679856D01*
X21490211Y30679857D01*
X21410288Y30726001D01*
X21410286Y30726002D01*
X21321149Y30749886D01*
X21321146Y30749887D01*
X21321144Y30749887D01*
X21228856Y30749887D01*
X21228854Y30749887D01*
X21228850Y30749886D01*
X21139713Y30726002D01*
X21139711Y30726001D01*
X21059788Y30679857D01*
X20994530Y30614599D01*
X20948386Y30534676D01*
X20948385Y30534674D01*
X20924501Y30445537D01*
X20924500Y30445529D01*
X20600500Y30445529D01*
X20600500Y30521144D01*
X20576614Y30610288D01*
X20530469Y30690212D01*
X20465212Y30755469D01*
X20465211Y30755470D01*
X20385288Y30801614D01*
X20385286Y30801615D01*
X20296149Y30825499D01*
X20296146Y30825500D01*
X20296144Y30825500D01*
X20203856Y30825500D01*
X20203854Y30825500D01*
X20203850Y30825499D01*
X20114713Y30801615D01*
X20114711Y30801614D01*
X20034788Y30755470D01*
X19969530Y30690212D01*
X19923386Y30610289D01*
X19923385Y30610287D01*
X19899501Y30521150D01*
X19899500Y30521142D01*
X19593802Y30521142D01*
X19579987Y30572700D01*
X19576614Y30585288D01*
X19530469Y30665212D01*
X19465212Y30730469D01*
X19465211Y30730470D01*
X19385288Y30776614D01*
X19385286Y30776615D01*
X19296149Y30800499D01*
X19296146Y30800500D01*
X19296144Y30800500D01*
X19203856Y30800500D01*
X19203854Y30800500D01*
X19203850Y30800499D01*
X19114713Y30776615D01*
X19114711Y30776614D01*
X19034788Y30730470D01*
X18969530Y30665212D01*
X18923386Y30585289D01*
X18923385Y30585287D01*
X18899501Y30496150D01*
X18899500Y30496142D01*
X18328800Y30496142D01*
X18324423Y30512479D01*
X18278278Y30592403D01*
X18213021Y30657660D01*
X18213020Y30657661D01*
X18133097Y30703805D01*
X18133095Y30703806D01*
X18043958Y30727690D01*
X18043955Y30727691D01*
X18043953Y30727691D01*
X17951665Y30727691D01*
X17951663Y30727691D01*
X17951659Y30727690D01*
X17862522Y30703806D01*
X17862520Y30703805D01*
X17782597Y30657661D01*
X17717339Y30592403D01*
X17671195Y30512480D01*
X17671194Y30512478D01*
X17647310Y30423341D01*
X17647309Y30423333D01*
X15121740Y30423333D01*
X15105217Y30439856D01*
X15105216Y30439857D01*
X15025293Y30486001D01*
X15025291Y30486002D01*
X14936154Y30509886D01*
X14936151Y30509887D01*
X14936149Y30509887D01*
X14843861Y30509887D01*
X14843859Y30509887D01*
X14843855Y30509886D01*
X14754718Y30486002D01*
X14754716Y30486001D01*
X14674793Y30439857D01*
X14609535Y30374599D01*
X14563391Y30294676D01*
X14563390Y30294674D01*
X14539506Y30205537D01*
X14539505Y30205529D01*
X14539505Y30113246D01*
X14539506Y30113238D01*
X14563390Y30024101D01*
X14563391Y30024099D01*
X14595172Y29969053D01*
X14604081Y29918530D01*
X14595172Y29894053D01*
X14560890Y29834677D01*
X14560889Y29834674D01*
X14537005Y29745537D01*
X14537004Y29745529D01*
X9161828Y29745529D01*
X9170474Y29754175D01*
X9216619Y29834099D01*
X9240505Y29923243D01*
X9240505Y30015531D01*
X9216619Y30104675D01*
X9170474Y30184599D01*
X9105217Y30249856D01*
X9105216Y30249857D01*
X9025293Y30296001D01*
X9025291Y30296002D01*
X8936154Y30319886D01*
X8936151Y30319887D01*
X8936149Y30319887D01*
X8843861Y30319887D01*
X8843859Y30319887D01*
X8843855Y30319886D01*
X8754718Y30296002D01*
X8754716Y30296001D01*
X8674793Y30249857D01*
X8609535Y30184599D01*
X8563391Y30104676D01*
X8563390Y30104674D01*
X8539506Y30015537D01*
X8539505Y30015529D01*
X7940505Y30015529D01*
X7940505Y30015531D01*
X7916619Y30104675D01*
X7870474Y30184599D01*
X7805217Y30249856D01*
X7805216Y30249857D01*
X7725293Y30296001D01*
X7725291Y30296002D01*
X7636154Y30319886D01*
X7636151Y30319887D01*
X7636149Y30319887D01*
X7543861Y30319887D01*
X7543859Y30319887D01*
X7543855Y30319886D01*
X7454718Y30296002D01*
X7454716Y30296001D01*
X7374793Y30249857D01*
X7309535Y30184599D01*
X7263391Y30104676D01*
X7263390Y30104674D01*
X7239506Y30015537D01*
X7239505Y30015529D01*
X6769429Y30015529D01*
X6769429Y30015531D01*
X6745543Y30104675D01*
X6699398Y30184599D01*
X6634141Y30249856D01*
X6634140Y30249857D01*
X6554217Y30296001D01*
X6554215Y30296002D01*
X6465078Y30319886D01*
X6465075Y30319887D01*
X6465073Y30319887D01*
X6372785Y30319887D01*
X6372783Y30319887D01*
X6372779Y30319886D01*
X6283642Y30296002D01*
X6283640Y30296001D01*
X6203717Y30249857D01*
X6138459Y30184599D01*
X6092315Y30104676D01*
X6092314Y30104674D01*
X6068430Y30015537D01*
X6068429Y30015529D01*
X5625147Y30015529D01*
X5606619Y30084674D01*
X5606618Y30084676D01*
X5599663Y30096722D01*
X5560474Y30164599D01*
X5495217Y30229856D01*
X5495216Y30229857D01*
X5415293Y30276001D01*
X5415291Y30276002D01*
X5326154Y30299886D01*
X5326151Y30299887D01*
X5326149Y30299887D01*
X5233861Y30299887D01*
X5233859Y30299887D01*
X5233855Y30299886D01*
X5144718Y30276002D01*
X5144716Y30276001D01*
X5064793Y30229857D01*
X4999535Y30164599D01*
X4953391Y30084676D01*
X4953390Y30084674D01*
X4929506Y29995537D01*
X4929505Y29995529D01*
X3630505Y29995529D01*
X3630505Y30065531D01*
X3606619Y30154675D01*
X3602401Y30161980D01*
X3567814Y30221886D01*
X3558904Y30272410D01*
X3567814Y30296888D01*
X3600845Y30354099D01*
X3606619Y30364099D01*
X3630505Y30453243D01*
X3630505Y30545531D01*
X3606619Y30634675D01*
X3560474Y30714599D01*
X3495217Y30779856D01*
X3495216Y30779857D01*
X3485392Y30785529D01*
X9879505Y30785529D01*
X9879505Y30693246D01*
X9879506Y30693238D01*
X9903390Y30604101D01*
X9903391Y30604099D01*
X9946360Y30529675D01*
X9949536Y30524175D01*
X10014793Y30458918D01*
X10094717Y30412773D01*
X10183861Y30388887D01*
X10183863Y30388887D01*
X10276147Y30388887D01*
X10276149Y30388887D01*
X10365293Y30412773D01*
X10413367Y30440529D01*
X11279505Y30440529D01*
X11279505Y30348246D01*
X11279506Y30348238D01*
X11303390Y30259101D01*
X11303391Y30259099D01*
X11349163Y30179820D01*
X11349536Y30179175D01*
X11414793Y30113918D01*
X11494717Y30067773D01*
X11583861Y30043887D01*
X11583863Y30043887D01*
X11676147Y30043887D01*
X11676149Y30043887D01*
X11765293Y30067773D01*
X11845217Y30113918D01*
X11910474Y30179175D01*
X11956619Y30259099D01*
X11980505Y30348243D01*
X11980505Y30440531D01*
X11956619Y30529675D01*
X11910474Y30609599D01*
X11845217Y30674856D01*
X11845216Y30674857D01*
X11792150Y30705495D01*
X11765293Y30721001D01*
X11765290Y30721002D01*
X11676154Y30744886D01*
X11676151Y30744887D01*
X11676149Y30744887D01*
X11583861Y30744887D01*
X11583859Y30744887D01*
X11583855Y30744886D01*
X11494718Y30721002D01*
X11494716Y30721001D01*
X11414793Y30674857D01*
X11349535Y30609599D01*
X11303391Y30529676D01*
X11303390Y30529674D01*
X11279506Y30440537D01*
X11279505Y30440529D01*
X10413367Y30440529D01*
X10445217Y30458918D01*
X10510474Y30524175D01*
X10556619Y30604099D01*
X10580505Y30693243D01*
X10580505Y30765529D01*
X12609505Y30765529D01*
X12609505Y30673246D01*
X12609506Y30673238D01*
X12633390Y30584101D01*
X12633391Y30584099D01*
X12678107Y30506649D01*
X12679536Y30504175D01*
X12744793Y30438918D01*
X12824717Y30392773D01*
X12913861Y30368887D01*
X12913863Y30368887D01*
X13006147Y30368887D01*
X13006149Y30368887D01*
X13095293Y30392773D01*
X13175217Y30438918D01*
X13240474Y30504175D01*
X13286619Y30584099D01*
X13310505Y30673243D01*
X13310505Y30765531D01*
X13286619Y30854675D01*
X13240474Y30934599D01*
X13175217Y30999856D01*
X13175216Y30999857D01*
X13095293Y31046001D01*
X13095291Y31046002D01*
X13006154Y31069886D01*
X13006151Y31069887D01*
X13006149Y31069887D01*
X12913861Y31069887D01*
X12913859Y31069887D01*
X12913855Y31069886D01*
X12824718Y31046002D01*
X12824716Y31046001D01*
X12744793Y30999857D01*
X12679535Y30934599D01*
X12633391Y30854676D01*
X12633390Y30854674D01*
X12609506Y30765537D01*
X12609505Y30765529D01*
X10580505Y30765529D01*
X10580505Y30785531D01*
X10556619Y30874675D01*
X10510474Y30954599D01*
X10445217Y31019856D01*
X10445216Y31019857D01*
X10365293Y31066001D01*
X10365291Y31066002D01*
X10276154Y31089886D01*
X10276151Y31089887D01*
X10276149Y31089887D01*
X10183861Y31089887D01*
X10183859Y31089887D01*
X10183855Y31089886D01*
X10094718Y31066002D01*
X10094716Y31066001D01*
X10014793Y31019857D01*
X9949535Y30954599D01*
X9903391Y30874676D01*
X9903390Y30874674D01*
X9879506Y30785537D01*
X9879505Y30785529D01*
X3485392Y30785529D01*
X3415293Y30826001D01*
X3415291Y30826002D01*
X3326154Y30849886D01*
X3326151Y30849887D01*
X3326149Y30849887D01*
X3233861Y30849887D01*
X3233859Y30849887D01*
X3233855Y30849886D01*
X3144718Y30826002D01*
X3144716Y30826001D01*
X3064793Y30779857D01*
X2999535Y30714599D01*
X2953391Y30634676D01*
X2953390Y30634674D01*
X2929506Y30545537D01*
X2929505Y30545529D01*
X2929505Y30453246D01*
X2929506Y30453238D01*
X2953390Y30364101D01*
X2953391Y30364098D01*
X2992196Y30296887D01*
X3001105Y30246364D01*
X2992196Y30221887D01*
X2953391Y30154677D01*
X2953390Y30154674D01*
X2929506Y30065537D01*
X2929505Y30065529D01*
X2929505Y29973246D01*
X2929506Y29973238D01*
X2952282Y29888238D01*
X2953391Y29884099D01*
X2982479Y29833718D01*
X2991388Y29783195D01*
X2982479Y29758718D01*
X2948391Y29699677D01*
X2948390Y29699674D01*
X2924506Y29610537D01*
X2924505Y29610529D01*
X1606097Y29610529D01*
X1629261Y29653246D01*
X1662047Y29713709D01*
X1673862Y29735498D01*
X1765782Y29985031D01*
X1820958Y30245169D01*
X1838249Y30510532D01*
X1817299Y30775630D01*
X1816341Y30779857D01*
X1758540Y31034978D01*
X1758539Y31034979D01*
X1758539Y31034982D01*
X1663185Y31283224D01*
X1533210Y31515221D01*
X1371301Y31726175D01*
X1259033Y31835529D01*
X14119505Y31835529D01*
X14119505Y31743246D01*
X14119506Y31743238D01*
X14130447Y31702404D01*
X14143391Y31654099D01*
X14189536Y31574175D01*
X14254793Y31508918D01*
X14334717Y31462773D01*
X14423861Y31438887D01*
X14423863Y31438887D01*
X14516147Y31438887D01*
X14516149Y31438887D01*
X14605293Y31462773D01*
X14685217Y31508918D01*
X14711972Y31535673D01*
X14758468Y31557355D01*
X14808023Y31544076D01*
X14818038Y31535673D01*
X14844793Y31508918D01*
X14924717Y31462773D01*
X15013861Y31438887D01*
X15013863Y31438887D01*
X15106147Y31438887D01*
X15106149Y31438887D01*
X15195293Y31462773D01*
X15275217Y31508918D01*
X15340474Y31574175D01*
X15386619Y31654099D01*
X15410505Y31743243D01*
X15410505Y31835531D01*
X15386619Y31924675D01*
X15340474Y32004599D01*
X15318719Y32026354D01*
X15297037Y32072850D01*
X15310316Y32122405D01*
X15318719Y32132420D01*
X15326186Y32139887D01*
X15340474Y32154175D01*
X15386619Y32234099D01*
X15410505Y32323243D01*
X15410505Y32415531D01*
X15386619Y32504675D01*
X15340474Y32584599D01*
X15340473Y32584600D01*
X15337484Y32588496D01*
X15339623Y32590138D01*
X15322037Y32627850D01*
X15335316Y32677405D01*
X15337631Y32680165D01*
X15337484Y32680278D01*
X15340469Y32684171D01*
X15340474Y32684175D01*
X15386619Y32764099D01*
X15410505Y32853243D01*
X15410505Y32945531D01*
X15386619Y33034675D01*
X15340474Y33114599D01*
X15275217Y33179856D01*
X15275216Y33179857D01*
X15195293Y33226001D01*
X15195291Y33226002D01*
X15106154Y33249886D01*
X15106151Y33249887D01*
X15106149Y33249887D01*
X15013861Y33249887D01*
X15013859Y33249887D01*
X15013855Y33249886D01*
X14924718Y33226002D01*
X14924716Y33226001D01*
X14844793Y33179857D01*
X14779535Y33114599D01*
X14733391Y33034676D01*
X14733390Y33034674D01*
X14709506Y32945537D01*
X14709505Y32945529D01*
X14709505Y32853246D01*
X14709506Y32853238D01*
X14733390Y32764101D01*
X14733391Y32764099D01*
X14779536Y32684175D01*
X14782526Y32680278D01*
X14780386Y32678637D01*
X14797973Y32640924D01*
X14784694Y32591369D01*
X14782378Y32588610D01*
X14782526Y32588496D01*
X14779536Y32584600D01*
X14733391Y32504676D01*
X14733390Y32504674D01*
X14709506Y32415537D01*
X14709505Y32415529D01*
X14709505Y32323246D01*
X14709506Y32323238D01*
X14733390Y32234101D01*
X14733391Y32234099D01*
X14759764Y32188420D01*
X14768673Y32137897D01*
X14743021Y32093467D01*
X14694812Y32075920D01*
X14657312Y32085968D01*
X14605294Y32116001D01*
X14605291Y32116002D01*
X14516154Y32139886D01*
X14516151Y32139887D01*
X14516149Y32139887D01*
X14423861Y32139887D01*
X14423859Y32139887D01*
X14423855Y32139886D01*
X14334718Y32116002D01*
X14334716Y32116001D01*
X14254793Y32069857D01*
X14189535Y32004599D01*
X14143391Y31924676D01*
X14143390Y31924674D01*
X14119506Y31835537D01*
X14119505Y31835529D01*
X1259033Y31835529D01*
X1180807Y31911724D01*
X965669Y32068029D01*
X965667Y32068030D01*
X965663Y32068033D01*
X730342Y32191856D01*
X613834Y32233127D01*
X479671Y32280652D01*
X323425Y32311757D01*
X218860Y32332573D01*
X218851Y32332574D01*
X-46695Y32346546D01*
X-46700Y32346546D01*
X-311512Y32322282D01*
X-394829Y32302357D01*
X-394832Y32302356D01*
X-401988Y32300646D01*
X-402043Y32300654D01*
X-434694Y32292826D01*
X-436283Y32292446D01*
X-437102Y32292249D01*
X-437112Y32292248D01*
X-437146Y32292239D01*
X-437152Y32292240D01*
X-444622Y32290848D01*
X-545409Y32277339D01*
X-560687Y32276863D01*
X-587072Y32278736D01*
X-658286Y32283794D01*
X-673342Y32286425D01*
X-767502Y32312998D01*
X-781711Y32318626D01*
X-868535Y32363738D01*
X-881310Y32372131D01*
X-960166Y32436335D01*
X-965845Y32441462D01*
X-991338Y32466955D01*
X-1235606Y32711226D01*
X-1241203Y32717488D01*
X-1310880Y32804861D01*
X-1319805Y32819067D01*
X-1366448Y32915924D01*
X-1371991Y32931765D01*
X-1395913Y33036571D01*
X-1397792Y33053259D01*
X-1397792Y33055155D01*
X-1397792Y33160759D01*
X-1395912Y33177432D01*
X-1371990Y33282241D01*
X-1366447Y33298082D01*
X-1319801Y33394939D01*
X-1310873Y33409149D01*
X-1241198Y33496517D01*
X-1235612Y33502768D01*
X-1210378Y33528001D01*
X-1210378Y33528002D01*
X-239918Y34498451D01*
X-239914Y34498453D01*
X-229368Y34508999D01*
X-229367Y34508999D01*
X-203239Y34535128D01*
X-198939Y34539103D01*
X-94255Y34628509D01*
X-84750Y34635415D01*
X30100Y34705793D01*
X40564Y34711126D01*
X165023Y34762675D01*
X176201Y34766306D01*
X307168Y34797746D01*
X318789Y34799586D01*
X456005Y34810382D01*
X461883Y34810612D01*
X1879985Y34810569D01*
G37*
%TD.AperFunction*%
%TD*%
M02*
