%TF.GenerationSoftware,KiCad,Pcbnew,10.0.3*%
%TF.CreationDate,2026-06-28T18:18:48+02:00*%
%TF.ProjectId,LEVIA_H7,4c455649-415f-4483-972e-6b696361645f,0.1*%
%TF.SameCoordinates,Original*%
%TF.FileFunction,Legend,Top*%
%TF.FilePolarity,Positive*%
%FSLAX46Y46*%
G04 Gerber Fmt 4.6, Leading zero omitted, Abs format (unit mm)*
G04 Created by KiCad (PCBNEW 10.0.3) date 2026-06-28 18:18:48*
%MOMM*%
%LPD*%
G01*
G04 APERTURE LIST*
G04 Aperture macros list*
%AMRoundRect*
0 Rectangle with rounded corners*
0 $1 Rounding radius*
0 $2 $3 $4 $5 $6 $7 $8 $9 X,Y pos of 4 corners*
0 Add a 4 corners polygon primitive as box body*
4,1,4,$2,$3,$4,$5,$6,$7,$8,$9,$2,$3,0*
0 Add four circle primitives for the rounded corners*
1,1,$1+$1,$2,$3*
1,1,$1+$1,$4,$5*
1,1,$1+$1,$6,$7*
1,1,$1+$1,$8,$9*
0 Add four rect primitives between the rounded corners*
20,1,$1+$1,$2,$3,$4,$5,0*
20,1,$1+$1,$4,$5,$6,$7,0*
20,1,$1+$1,$6,$7,$8,$9,0*
20,1,$1+$1,$8,$9,$2,$3,0*%
G04 Aperture macros list end*
%ADD10C,0.250000*%
%ADD11C,0.375000*%
%ADD12C,0.100000*%
%ADD13C,0.000000*%
%ADD14C,0.150000*%
%ADD15C,0.060000*%
%ADD16C,0.120000*%
%ADD17C,0.300000*%
%ADD18RoundRect,0.135000X0.135000X0.185000X-0.135000X0.185000X-0.135000X-0.185000X0.135000X-0.185000X0*%
%ADD19RoundRect,0.125000X0.675000X-0.125000X0.675000X0.125000X-0.675000X0.125000X-0.675000X-0.125000X0*%
%ADD20RoundRect,0.250000X0.950000X-0.325000X0.950000X0.325000X-0.950000X0.325000X-0.950000X-0.325000X0*%
%ADD21RoundRect,0.100000X0.175000X0.100000X-0.175000X0.100000X-0.175000X-0.100000X0.175000X-0.100000X0*%
%ADD22RoundRect,0.125000X0.225000X0.125000X-0.225000X0.125000X-0.225000X-0.125000X0.225000X-0.125000X0*%
%ADD23RoundRect,0.140000X-0.170000X0.140000X-0.170000X-0.140000X0.170000X-0.140000X0.170000X0.140000X0*%
%ADD24RoundRect,0.125000X-0.675000X0.125000X-0.675000X-0.125000X0.675000X-0.125000X0.675000X0.125000X0*%
%ADD25RoundRect,0.250000X-0.950000X0.325000X-0.950000X-0.325000X0.950000X-0.325000X0.950000X0.325000X0*%
%ADD26RoundRect,0.140000X-0.140000X-0.170000X0.140000X-0.170000X0.140000X0.170000X-0.140000X0.170000X0*%
%ADD27RoundRect,0.135000X-0.185000X0.135000X-0.185000X-0.135000X0.185000X-0.135000X0.185000X0.135000X0*%
%ADD28RoundRect,0.140000X0.140000X0.170000X-0.140000X0.170000X-0.140000X-0.170000X0.140000X-0.170000X0*%
%ADD29RoundRect,0.225000X0.225000X0.375000X-0.225000X0.375000X-0.225000X-0.375000X0.225000X-0.375000X0*%
%ADD30R,0.600000X1.400000*%
%ADD31RoundRect,0.135000X0.185000X-0.135000X0.185000X0.135000X-0.185000X0.135000X-0.185000X-0.135000X0*%
%ADD32RoundRect,0.225000X-0.225000X-0.250000X0.225000X-0.250000X0.225000X0.250000X-0.225000X0.250000X0*%
%ADD33RoundRect,0.225000X0.225000X0.250000X-0.225000X0.250000X-0.225000X-0.250000X0.225000X-0.250000X0*%
%ADD34R,0.800000X0.364000*%
%ADD35R,1.500000X2.800000*%
%ADD36RoundRect,0.125000X0.125000X0.675000X-0.125000X0.675000X-0.125000X-0.675000X0.125000X-0.675000X0*%
%ADD37RoundRect,0.250000X0.300000X0.950000X-0.300000X0.950000X-0.300000X-0.950000X0.300000X-0.950000X0*%
%ADD38RoundRect,0.175000X-0.175000X0.425000X-0.175000X-0.425000X0.175000X-0.425000X0.175000X0.425000X0*%
%ADD39RoundRect,0.250000X0.450000X-1.625000X0.450000X1.625000X-0.450000X1.625000X-0.450000X-1.625000X0*%
%ADD40RoundRect,0.250000X0.425000X-0.425000X0.425000X0.425000X-0.425000X0.425000X-0.425000X-0.425000X0*%
%ADD41RoundRect,0.225000X-0.225000X-0.375000X0.225000X-0.375000X0.225000X0.375000X-0.225000X0.375000X0*%
%ADD42R,0.280000X0.675000*%
%ADD43R,0.675000X0.280000*%
%ADD44RoundRect,0.250000X0.475000X-0.250000X0.475000X0.250000X-0.475000X0.250000X-0.475000X-0.250000X0*%
%ADD45RoundRect,0.135000X-0.135000X-0.185000X0.135000X-0.185000X0.135000X0.185000X-0.135000X0.185000X0*%
%ADD46R,0.625000X0.280000*%
%ADD47R,1.500000X2.250000*%
%ADD48RoundRect,0.162500X0.237500X0.162500X-0.237500X0.162500X-0.237500X-0.162500X0.237500X-0.162500X0*%
%ADD49C,0.470000*%
%ADD50RoundRect,0.140000X0.170000X-0.140000X0.170000X0.140000X-0.170000X0.140000X-0.170000X-0.140000X0*%
%ADD51RoundRect,0.250000X0.950000X-0.300000X0.950000X0.300000X-0.950000X0.300000X-0.950000X-0.300000X0*%
%ADD52RoundRect,0.150000X0.150000X-0.587500X0.150000X0.587500X-0.150000X0.587500X-0.150000X-0.587500X0*%
%ADD53RoundRect,0.250000X-0.950000X0.300000X-0.950000X-0.300000X0.950000X-0.300000X0.950000X0.300000X0*%
%ADD54RoundRect,0.225000X-0.250000X0.225000X-0.250000X-0.225000X0.250000X-0.225000X0.250000X0.225000X0*%
%ADD55R,0.450000X0.250000*%
%ADD56R,0.250000X0.450000*%
%ADD57R,0.400000X0.600000*%
%ADD58RoundRect,0.225000X0.250000X-0.225000X0.250000X0.225000X-0.250000X0.225000X-0.250000X-0.225000X0*%
%ADD59RoundRect,0.250000X1.000000X0.650000X-1.000000X0.650000X-1.000000X-0.650000X1.000000X-0.650000X0*%
%ADD60O,1.800000X1.000000*%
%ADD61O,2.200000X1.000000*%
%ADD62R,1.150000X0.300000*%
%ADD63RoundRect,0.200000X-0.200000X0.250000X-0.200000X-0.250000X0.200000X-0.250000X0.200000X0.250000X0*%
G04 APERTURE END LIST*
D10*
G36*
X13493299Y14470306D02*
G01*
X13561446Y14461463D01*
X13608877Y14448984D01*
X13651267Y14427660D01*
X13684737Y14397372D01*
X13710421Y14357027D01*
X13725499Y14311263D01*
X13729985Y14257545D01*
X13722328Y14193629D01*
X13707030Y14139461D01*
X13685345Y14091616D01*
X13657360Y14049281D01*
X13623366Y14011432D01*
X13584662Y13978702D01*
X13540856Y13950851D01*
X13493725Y13929966D01*
X13432412Y13912505D01*
X13473187Y13894322D01*
X13497869Y13877334D01*
X13512397Y13860702D01*
X13535727Y13823967D01*
X13556213Y13785010D01*
X13565402Y13761013D01*
X13652353Y13469387D01*
X13306200Y13469387D01*
X13207648Y13776767D01*
X13186878Y13829467D01*
X13169546Y13853093D01*
X13139436Y13869931D01*
X13101463Y13875808D01*
X13076367Y13875808D01*
X12991859Y13469387D01*
X12683808Y13469387D01*
X12808093Y14067294D01*
X13116118Y14067294D01*
X13241353Y14067294D01*
X13323907Y14080849D01*
X13352649Y14091400D01*
X13378618Y14111685D01*
X13398326Y14138541D01*
X13409209Y14168716D01*
X13411913Y14199658D01*
X13406818Y14223129D01*
X13394982Y14241317D01*
X13376653Y14253632D01*
X13343707Y14262811D01*
X13288919Y14266596D01*
X13157578Y14266596D01*
X13116118Y14067294D01*
X12808093Y14067294D01*
X12892574Y14473714D01*
X13398645Y14473714D01*
X13493299Y14470306D01*
G37*
G36*
X14556784Y14489346D02*
G01*
X14344781Y13469387D01*
X14065489Y13469387D01*
X14203120Y14131347D01*
X14129143Y14085803D01*
X14060177Y14050380D01*
X13986223Y14020285D01*
X13887375Y13988281D01*
X13935369Y14219274D01*
X14033669Y14254263D01*
X14112484Y14291268D01*
X14174727Y14329794D01*
X14231544Y14375883D01*
X14282605Y14428905D01*
X14328173Y14489346D01*
X14556784Y14489346D01*
G37*
G36*
X14742286Y13750755D02*
G01*
X15036904Y13750755D01*
X14978408Y13469387D01*
X14683790Y13469387D01*
X14742286Y13750755D01*
G37*
G36*
X15809811Y14486102D02*
G01*
X15861606Y14477351D01*
X15901585Y14464311D01*
X15954897Y14434592D01*
X15992382Y14399098D01*
X16020257Y14357426D01*
X16038483Y14314773D01*
X16049224Y14268559D01*
X16054359Y14211825D01*
X16051345Y14099058D01*
X16033354Y13978634D01*
X15997701Y13840051D01*
X15956168Y13730506D01*
X15910005Y13645239D01*
X15859942Y13580152D01*
X15811151Y13536213D01*
X15754348Y13501485D01*
X15688326Y13475769D01*
X15611460Y13459507D01*
X15521787Y13453756D01*
X15439494Y13459010D01*
X15376661Y13473110D01*
X15329263Y13494178D01*
X15287958Y13525093D01*
X15254396Y13564254D01*
X15228085Y13612819D01*
X15215570Y13650639D01*
X15207161Y13700189D01*
X15204089Y13764189D01*
X15204136Y13764975D01*
X15475586Y13764975D01*
X15481304Y13717782D01*
X15494062Y13686175D01*
X15511250Y13665562D01*
X15533025Y13653418D01*
X15560927Y13649150D01*
X15599860Y13656193D01*
X15637742Y13678276D01*
X15670001Y13713632D01*
X15701306Y13770966D01*
X15726527Y13843932D01*
X15756810Y13969414D01*
X15779951Y14105166D01*
X15785032Y14187948D01*
X15779342Y14234478D01*
X15766479Y14265065D01*
X15748769Y14285321D01*
X15725872Y14297453D01*
X15696055Y14301767D01*
X15655429Y14294533D01*
X15619123Y14272559D01*
X15585535Y14232769D01*
X15560783Y14183812D01*
X15532958Y14102282D01*
X15502370Y13976069D01*
X15480379Y13846140D01*
X15475586Y13764975D01*
X15204136Y13764975D01*
X15209924Y13862195D01*
X15228391Y13976069D01*
X15258350Y14095595D01*
X15292471Y14192032D01*
X15329859Y14268824D01*
X15369913Y14329022D01*
X15412367Y14375223D01*
X15463829Y14415211D01*
X15521659Y14446699D01*
X15586753Y14469828D01*
X15660265Y14484291D01*
X15743560Y14489346D01*
X15809811Y14486102D01*
G37*
D11*
G36*
X5592814Y16460877D02*
G01*
X6052785Y16460877D01*
X5817579Y15329545D01*
X6526310Y15329545D01*
X6448366Y14954387D01*
X5279664Y14954387D01*
X5592814Y16460877D01*
G37*
G36*
X6991410Y16460877D02*
G01*
X8214151Y16460877D01*
X8145915Y16132615D01*
X7384061Y16132615D01*
X7335334Y15898142D01*
X8041959Y15898142D01*
X7977388Y15587465D01*
X7270763Y15587465D01*
X7211045Y15300235D01*
X7994882Y15300235D01*
X7922983Y14954387D01*
X6678260Y14954387D01*
X6991410Y16460877D01*
G37*
G36*
X8361246Y16460877D02*
G01*
X8842465Y16460877D01*
X8947978Y15388254D01*
X9494502Y16460877D01*
X9962349Y16460877D01*
X9101851Y14954387D01*
X8605519Y14954387D01*
X8361246Y16460877D01*
G37*
G36*
X10158263Y16460877D02*
G01*
X10619240Y16460877D01*
X10306091Y14954387D01*
X9845113Y14954387D01*
X10158263Y16460877D01*
G37*
G36*
X12101642Y14954387D02*
G01*
X11620422Y14954387D01*
X11599448Y15200584D01*
X11086813Y15200584D01*
X10964356Y14954387D01*
X10493486Y14954387D01*
X10824338Y15528847D01*
X11254974Y15528847D01*
X11570688Y15528847D01*
X11522145Y16057052D01*
X11254974Y15528847D01*
X10824338Y15528847D01*
X11361128Y16460877D01*
X11860299Y16460877D01*
X12101642Y14954387D01*
G37*
G36*
X13290036Y16460877D02*
G01*
X13749915Y16460877D01*
X13641471Y15939175D01*
X14131666Y15939175D01*
X14240110Y16460877D01*
X14702187Y16460877D01*
X14389037Y14954387D01*
X13926960Y14954387D01*
X14053722Y15564018D01*
X13563527Y15564018D01*
X13436765Y14954387D01*
X12976886Y14954387D01*
X13290036Y16460877D01*
G37*
G36*
X14977143Y16460877D02*
G01*
X16174788Y16460877D01*
X16115437Y16175113D01*
X15995300Y16075344D01*
X15887394Y15971902D01*
X15791022Y15864711D01*
X15684538Y15725747D01*
X15586909Y15575645D01*
X15498113Y15413717D01*
X15437688Y15282884D01*
X15379571Y15130584D01*
X15324274Y14954387D01*
X14910923Y14954387D01*
X15002932Y15200076D01*
X15096888Y15405412D01*
X15192108Y15575283D01*
X15302506Y15735830D01*
X15445259Y15911308D01*
X15625059Y16103306D01*
X14902863Y16103306D01*
X14977143Y16460877D01*
G37*
%TO.C,R4*%
D12*
X7803641Y-1530002D02*
X7496359Y-1530002D01*
X7803641Y-2290002D02*
X7496359Y-2290002D01*
D13*
%TO.C,U13*%
G36*
X29272983Y4258132D02*
G01*
X28891983Y4512132D01*
X29272983Y4766132D01*
X29272983Y4258132D01*
G37*
%TO.C,D1*%
D14*
X9640000Y-990000D02*
X9940000Y-990000D01*
X9640000Y-1620000D02*
X9640000Y-350000D01*
D15*
X10600000Y-1800000D02*
G75*
G02*
X10540000Y-1800000I-30000J0D01*
G01*
X10540000Y-1800000D02*
G75*
G02*
X10600000Y-1800000I30000J0D01*
G01*
%TO.C,C51*%
D12*
X24295005Y5132839D02*
X24295005Y4917167D01*
X25015005Y5132839D02*
X25015005Y4917167D01*
D13*
%TO.C,U18*%
G36*
X1583022Y16592872D02*
G01*
X1202022Y16338872D01*
X1202022Y16846872D01*
X1583022Y16592872D01*
G37*
%TO.C,U10*%
G36*
X29272983Y18703132D02*
G01*
X28891983Y18957132D01*
X29272983Y19211132D01*
X29272983Y18703132D01*
G37*
%TO.C,C44*%
D12*
X20582169Y-789996D02*
X20797841Y-789996D01*
X20582169Y-1509996D02*
X20797841Y-1509996D01*
%TO.C,R31*%
X2430005Y14803028D02*
X2430005Y14495746D01*
X3190005Y14803028D02*
X3190005Y14495746D01*
%TO.C,R5*%
X7803641Y-590001D02*
X7496359Y-590001D01*
X7803641Y-1350001D02*
X7496359Y-1350001D01*
%TO.C,C38*%
X26257169Y16344387D02*
X26472841Y16344387D01*
X26257169Y15624387D02*
X26472841Y15624387D01*
%TO.C,C50*%
X21907841Y12000004D02*
X21692169Y12000004D01*
X21907841Y11280004D02*
X21692169Y11280004D01*
%TO.C,C34*%
X21082169Y20144387D02*
X21297841Y20144387D01*
X21082169Y19424387D02*
X21297841Y19424387D01*
D13*
%TO.C,kibuzzard-6A40F4B5*%
G36*
X28046328Y3985746D02*
G01*
X28108131Y3943686D01*
X28150191Y3881883D01*
X28164211Y3808636D01*
X28150191Y3735531D01*
X28108131Y3674158D01*
X28046614Y3632527D01*
X27974225Y3618650D01*
X27881521Y3618650D01*
X27881521Y3999766D01*
X27973081Y3999766D01*
X28046328Y3985746D01*
G37*
G36*
X28469027Y2439442D02*
G01*
X28373653Y2439442D01*
X27594254Y2439442D01*
X26881235Y2439442D01*
X26330735Y2439442D01*
X26066357Y2439442D01*
X25970983Y2439442D01*
X25970983Y2851841D01*
X26066357Y2851841D01*
X26073224Y2796905D01*
X26095541Y2768293D01*
X26121865Y2758564D01*
X26154483Y2756848D01*
X26236886Y2756848D01*
X26236886Y2682456D01*
X26238603Y2647549D01*
X26248331Y2618936D01*
X26276943Y2594902D01*
X26330735Y2587463D01*
X26385670Y2594902D01*
X26414283Y2618364D01*
X26424011Y2646404D01*
X26425727Y2681311D01*
X26425727Y2684745D01*
X26616858Y2684745D01*
X26660348Y2614931D01*
X26684383Y2594330D01*
X26762208Y2554845D01*
X26819433Y2539823D01*
X26881235Y2534816D01*
X26955627Y2543909D01*
X27021626Y2571186D01*
X27079232Y2616647D01*
X27123740Y2675462D01*
X27150445Y2742796D01*
X27159347Y2818650D01*
X27150191Y2886748D01*
X27122723Y2949122D01*
X27076943Y3005775D01*
X27019083Y3050601D01*
X26955373Y3077496D01*
X26885813Y3086461D01*
X26880091Y3086461D01*
X26860634Y3084172D01*
X26868646Y3144830D01*
X27044898Y3144830D01*
X27081521Y3146547D01*
X27111278Y3156848D01*
X27135885Y3187177D01*
X27143324Y3244401D01*
X27138253Y3283886D01*
X27208560Y3283886D01*
X27220005Y3204344D01*
X27491250Y2608064D01*
X27530162Y2565145D01*
X27594254Y2550839D01*
X27653195Y2566290D01*
X27692680Y2608064D01*
X27963925Y3204344D01*
X27977087Y3283314D01*
X27911278Y3338250D01*
X27826586Y3354845D01*
X27776228Y3294308D01*
X27772795Y3290181D01*
X27591965Y2844974D01*
X27411135Y3290181D01*
X27358489Y3355417D01*
X27272652Y3338250D01*
X27208560Y3283886D01*
X27138253Y3283886D01*
X27135313Y3306776D01*
X27109562Y3338822D01*
X27078660Y3349695D01*
X27039175Y3351984D01*
X27008274Y3352119D01*
X26856057Y3352783D01*
X26777087Y3353128D01*
X26722723Y3342828D01*
X26690677Y3312499D01*
X26677516Y3281025D01*
X26671793Y3248979D01*
X26629447Y2923944D01*
X26643753Y2890753D01*
X26694683Y2856418D01*
X26769075Y2833529D01*
X26833167Y2860996D01*
X26877802Y2877019D01*
X26928160Y2858135D01*
X26948760Y2810639D01*
X26929304Y2762570D01*
X26874368Y2745403D01*
X26807988Y2763715D01*
X26730162Y2801483D01*
X26659204Y2762570D01*
X26616858Y2684745D01*
X26425727Y2684745D01*
X26425727Y2756848D01*
X26506986Y2756848D01*
X26539604Y2758564D01*
X26565928Y2768293D01*
X26588245Y2796905D01*
X26595112Y2850696D01*
X26587673Y2906204D01*
X26564211Y2935388D01*
X26536171Y2945117D01*
X26501264Y2946833D01*
X26493252Y2946833D01*
X26425727Y2946833D01*
X26425727Y3021225D01*
X26424011Y3056132D01*
X26414283Y3084172D01*
X26385670Y3107634D01*
X26331879Y3115074D01*
X26276943Y3108207D01*
X26248331Y3085317D01*
X26238603Y3057277D01*
X26236886Y3022370D01*
X26236886Y2946833D01*
X26162494Y2946833D01*
X26127015Y2945117D01*
X26097830Y2935388D01*
X26073796Y2906776D01*
X26066357Y2851841D01*
X25970983Y2851841D01*
X25970983Y3820081D01*
X26090391Y3820081D01*
X26097830Y3736175D01*
X26120148Y3658421D01*
X26157344Y3586819D01*
X26209418Y3521368D01*
X26271793Y3466790D01*
X26339891Y3427806D01*
X26413710Y3404416D01*
X26493252Y3396619D01*
X26580997Y3401578D01*
X26656533Y3416457D01*
X26719862Y3441254D01*
X26761922Y3467720D01*
X26794254Y3499051D01*
X26821722Y3564859D01*
X26821722Y3799480D01*
X26821149Y3828092D01*
X26815999Y3853271D01*
X26802265Y3876161D01*
X26775370Y3891039D01*
X26731307Y3899051D01*
X26531021Y3899051D01*
X26500119Y3897334D01*
X26474941Y3888178D01*
X26453768Y3861283D01*
X26447473Y3810925D01*
X26453195Y3759423D01*
X26472652Y3732527D01*
X26496686Y3723371D01*
X26527587Y3721655D01*
X26612280Y3721655D01*
X26612280Y3623228D01*
X26563639Y3612069D01*
X26497830Y3608350D01*
X26423725Y3624087D01*
X26359347Y3671297D01*
X26314712Y3739394D01*
X26299833Y3817792D01*
X26314139Y3893758D01*
X26357058Y3956848D01*
X26420291Y3999337D01*
X26495541Y4013500D01*
X26566214Y4005489D01*
X26624869Y3981454D01*
X26686672Y3955131D01*
X26729018Y3970295D01*
X26771364Y4015789D01*
X26797687Y4079881D01*
X26788690Y4107348D01*
X26905270Y4107348D01*
X26905270Y3513357D01*
X26907559Y3473300D01*
X26918431Y3441826D01*
X26949333Y3416075D01*
X27008274Y3408064D01*
X27068932Y3416075D01*
X27100978Y3441826D01*
X27111850Y3472727D01*
X27113567Y3512212D01*
X27113567Y3830381D01*
X27409991Y3438965D01*
X27443753Y3414358D01*
X27502695Y3408064D01*
X27563353Y3416075D01*
X27595398Y3441826D01*
X27606271Y3472727D01*
X27607988Y3512212D01*
X27607988Y4102770D01*
X27607839Y4106204D01*
X27672079Y4106204D01*
X27672079Y3514501D01*
X27674941Y3473872D01*
X27686958Y3441826D01*
X27718431Y3417220D01*
X27776228Y3409208D01*
X27970792Y3409208D01*
X28051264Y3416612D01*
X28125584Y3438822D01*
X28193753Y3475839D01*
X28255770Y3527663D01*
X28307344Y3589931D01*
X28344182Y3658278D01*
X28366285Y3732706D01*
X28373653Y3813214D01*
X28366285Y3891612D01*
X28344182Y3964287D01*
X28307344Y4031240D01*
X28255770Y4092470D01*
X28193968Y4143543D01*
X28126443Y4180024D01*
X28053195Y4201912D01*
X27974225Y4209208D01*
X27777373Y4209208D01*
X27716715Y4201769D01*
X27684669Y4176018D01*
X27673796Y4144544D01*
X27672079Y4106204D01*
X27607839Y4106204D01*
X27606271Y4142255D01*
X27595398Y4173729D01*
X27563353Y4200052D01*
X27550763Y4201747D01*
X27503839Y4208064D01*
X27444325Y4200052D01*
X27412280Y4175446D01*
X27400835Y4145117D01*
X27398546Y4107348D01*
X27398546Y3778879D01*
X27112423Y4163428D01*
X27091822Y4186891D01*
X27062637Y4201197D01*
X27010563Y4208064D01*
X26950477Y4200624D01*
X26919004Y4176018D01*
X26907559Y4145689D01*
X26905270Y4107348D01*
X26788690Y4107348D01*
X26786815Y4113071D01*
X26765642Y4137105D01*
X26733596Y4159995D01*
X26684526Y4186461D01*
X26624297Y4206347D01*
X26560634Y4218793D01*
X26501264Y4222942D01*
X26480663Y4221074D01*
X26419612Y4215539D01*
X26344039Y4193328D01*
X26274547Y4156311D01*
X26211135Y4104487D01*
X26158310Y4042291D01*
X26120577Y3974158D01*
X26097938Y3900088D01*
X26090391Y3820081D01*
X25970983Y3820081D01*
X25970983Y4671583D01*
X26066357Y4671583D01*
X26073653Y4588321D01*
X26095541Y4512499D01*
X26128589Y4446833D01*
X26169361Y4394044D01*
X26217001Y4351125D01*
X26270649Y4315074D01*
X26326443Y4287177D01*
X26380520Y4268722D01*
X26432165Y4258421D01*
X26480663Y4254988D01*
X26554674Y4262109D01*
X26625632Y4283473D01*
X26693539Y4319079D01*
X26740463Y4353986D01*
X26741561Y4356848D01*
X26786242Y4356848D01*
X26791965Y4311068D01*
X26856057Y4277878D01*
X27305842Y4277878D01*
X27355055Y4287034D01*
X27371650Y4311068D01*
X27376800Y4356275D01*
X27371078Y4401483D01*
X27306986Y4435818D01*
X26857201Y4435818D01*
X26856057Y4435605D01*
X26807988Y4426662D01*
X26790820Y4402627D01*
X26786242Y4356848D01*
X26741561Y4356848D01*
X26756486Y4395760D01*
X26731307Y4462141D01*
X26690105Y4511068D01*
X26651192Y4527377D01*
X26593968Y4504487D01*
X26536457Y4476161D01*
X26476085Y4466719D01*
X26389104Y4485031D01*
X26347759Y4510639D01*
X26310706Y4550839D01*
X26284526Y4603343D01*
X26275799Y4665861D01*
X26280663Y4714501D01*
X26295255Y4757420D01*
X26346185Y4819795D01*
X26410849Y4853557D01*
X26476085Y4865002D01*
X26503553Y4863858D01*
X26526443Y4859852D01*
X26544755Y4855274D01*
X26560205Y4849552D01*
X26571078Y4843257D01*
X26580806Y4836962D01*
X26588245Y4831812D01*
X26650048Y4805489D01*
X26689533Y4820939D01*
X26732451Y4867291D01*
X26757630Y4931383D01*
X26747483Y4963428D01*
X27446614Y4963428D01*
X27446614Y4371726D01*
X27448331Y4332241D01*
X27459204Y4300768D01*
X27491250Y4274444D01*
X27550763Y4266433D01*
X27934168Y4266433D01*
X27966786Y4268150D01*
X27994254Y4277878D01*
X28016572Y4305346D01*
X28023438Y4355703D01*
X28016572Y4407205D01*
X27994254Y4434101D01*
X27967931Y4443257D01*
X27935313Y4444974D01*
X27656057Y4444974D01*
X27656057Y4962284D01*
X27654340Y5001769D01*
X27643467Y5033243D01*
X27611421Y5059566D01*
X27551908Y5067577D01*
X27525584Y5064101D01*
X27491250Y5059566D01*
X27459204Y5033243D01*
X27448331Y5001769D01*
X27446614Y4963428D01*
X26747483Y4963428D01*
X26746758Y4965717D01*
X26725584Y4989752D01*
X26694683Y5011497D01*
X26622453Y5047104D01*
X26552257Y5068467D01*
X26484097Y5075589D01*
X26480663Y5075355D01*
X26433596Y5072155D01*
X26380520Y5061855D01*
X26325584Y5043686D01*
X26269504Y5016647D01*
X26215856Y4981740D01*
X26168217Y4939966D01*
X26127587Y4888607D01*
X26094969Y4824945D01*
X26073510Y4751697D01*
X26066357Y4671583D01*
X25970983Y4671583D01*
X25970983Y5529952D01*
X26066357Y5529952D01*
X26073653Y5446690D01*
X26095541Y5370868D01*
X26128589Y5305202D01*
X26169361Y5252413D01*
X26217001Y5209494D01*
X26270649Y5173443D01*
X26326443Y5145546D01*
X26380520Y5127091D01*
X26432165Y5116790D01*
X26480663Y5113357D01*
X26554674Y5120478D01*
X26625632Y5141842D01*
X26693539Y5177449D01*
X26740463Y5212356D01*
X26741560Y5215217D01*
X26786242Y5215217D01*
X26791965Y5169437D01*
X26856057Y5136247D01*
X27305842Y5136247D01*
X27355055Y5145403D01*
X27371650Y5169437D01*
X27376800Y5214645D01*
X27371078Y5259852D01*
X27306986Y5294187D01*
X26857201Y5294187D01*
X26807988Y5285031D01*
X26790820Y5260996D01*
X26786242Y5215217D01*
X26741560Y5215217D01*
X26756486Y5254129D01*
X26731307Y5320510D01*
X26690105Y5369437D01*
X26651192Y5385746D01*
X26593968Y5362856D01*
X26536457Y5334530D01*
X26476085Y5325088D01*
X26389104Y5343400D01*
X26347759Y5369008D01*
X26310706Y5409208D01*
X26284526Y5461712D01*
X26275799Y5524230D01*
X26280663Y5572871D01*
X26295255Y5615789D01*
X26346185Y5678164D01*
X26410849Y5711926D01*
X26476085Y5723371D01*
X26503553Y5722227D01*
X26526443Y5718221D01*
X26544755Y5713643D01*
X26560205Y5707921D01*
X26571078Y5701626D01*
X26580806Y5695331D01*
X26588245Y5690181D01*
X26650048Y5663858D01*
X26689533Y5679308D01*
X26732451Y5725660D01*
X26757630Y5789752D01*
X26747483Y5821798D01*
X27421436Y5821798D01*
X27421436Y5231240D01*
X27423152Y5191755D01*
X27434025Y5160281D01*
X27466071Y5133958D01*
X27525584Y5125946D01*
X27586242Y5133958D01*
X27618288Y5159709D01*
X27629161Y5190610D01*
X27630878Y5230095D01*
X27630878Y5436104D01*
X27891822Y5436104D01*
X27891822Y5231240D01*
X27893539Y5191755D01*
X27904411Y5160281D01*
X27936457Y5133958D01*
X27995971Y5125946D01*
X28056629Y5133958D01*
X28088675Y5159709D01*
X28099547Y5190610D01*
X28101264Y5230095D01*
X28101264Y5820653D01*
X28099547Y5860138D01*
X28088675Y5891612D01*
X28056629Y5917935D01*
X27997115Y5925946D01*
X27936457Y5917935D01*
X27904411Y5891612D01*
X27893539Y5860138D01*
X27891822Y5821798D01*
X27891822Y5614645D01*
X27630878Y5614645D01*
X27630878Y5820653D01*
X27629161Y5860138D01*
X27618288Y5891612D01*
X27586242Y5917935D01*
X27526729Y5925946D01*
X27466071Y5917935D01*
X27434025Y5891612D01*
X27423152Y5860138D01*
X27421436Y5821798D01*
X26747483Y5821798D01*
X26746758Y5824087D01*
X26725584Y5848121D01*
X26694683Y5869866D01*
X26622453Y5905473D01*
X26552257Y5926837D01*
X26484097Y5933958D01*
X26433596Y5930524D01*
X26380520Y5920224D01*
X26325584Y5902055D01*
X26269504Y5875016D01*
X26215856Y5840109D01*
X26168217Y5798335D01*
X26127587Y5746976D01*
X26094969Y5683314D01*
X26073510Y5610067D01*
X26066357Y5529952D01*
X25970983Y5529952D01*
X25970983Y6029332D01*
X26066357Y6029332D01*
X28373653Y6029332D01*
X28469027Y6029332D01*
X28469027Y2439442D01*
G37*
%TO.C,R27*%
D12*
X16933646Y-245613D02*
X16626364Y-245613D01*
X16933646Y-1005613D02*
X16626364Y-1005613D01*
%TO.C,D4*%
X10850005Y29360004D02*
X6840005Y29360004D01*
X10850005Y27360004D02*
X6840005Y27360004D01*
X10850005Y27360004D02*
X10850005Y29360004D01*
%TO.C,Y1*%
X7955000Y3350000D02*
X7955000Y2050000D01*
X8955001Y3350000D02*
X9195000Y3350000D01*
X8955001Y2050000D02*
X9195000Y2050000D01*
X10155000Y3350000D02*
X10394999Y3350000D01*
X10155000Y2050000D02*
X10394999Y2050000D01*
X11395000Y2060000D02*
X11395000Y3360000D01*
X7635000Y2700000D02*
G75*
G02*
X7395000Y2700000I-120000J0D01*
G01*
X7395000Y2700000D02*
G75*
G02*
X7635000Y2700000I120000J0D01*
G01*
X8105000Y2050000D02*
G75*
G02*
X8045000Y2050000I-30000J0D01*
G01*
X8045000Y2050000D02*
G75*
G02*
X8105000Y2050000I30000J0D01*
G01*
%TO.C,R19*%
X10890005Y23626363D02*
X10890005Y23933645D01*
X11650005Y23626363D02*
X11650005Y23933645D01*
%TO.C,R24*%
X27653647Y8649387D02*
X27346365Y8649387D01*
X27653647Y7889387D02*
X27346365Y7889387D01*
%TO.C,C30*%
X13128174Y23865004D02*
X13409336Y23865004D01*
X13128174Y22845004D02*
X13409336Y22845004D01*
%TO.C,C35*%
X26062169Y17799387D02*
X26277841Y17799387D01*
X26062169Y17079387D02*
X26277841Y17079387D01*
%TO.C,C48*%
X23737841Y12000004D02*
X23522169Y12000004D01*
X23737841Y11280004D02*
X23522169Y11280004D01*
%TO.C,R22*%
X27330005Y18820746D02*
X27330005Y19128028D01*
X28090005Y18820746D02*
X28090005Y19128028D01*
%TO.C,C29*%
X9308086Y26945006D02*
X9026924Y26945006D01*
X9308086Y25925006D02*
X9026924Y25925006D01*
%TO.C,R23*%
X27610005Y14550746D02*
X27610005Y14858028D01*
X28370005Y14550746D02*
X28370005Y14858028D01*
%TO.C,R3*%
X4753641Y630000D02*
X4446359Y630000D01*
X4753641Y-130000D02*
X4446359Y-130000D01*
%TO.C,C45*%
X11957836Y-309996D02*
X11742164Y-309996D01*
X11957836Y-1029996D02*
X11742164Y-1029996D01*
%TO.C,U9*%
X21060005Y19260003D02*
X25060005Y19260003D01*
X21060005Y18870004D02*
X21060005Y19260003D01*
X21060005Y12460004D02*
X21060005Y13490004D01*
X25060005Y19260003D02*
X25060005Y18870004D01*
X25060005Y13490004D02*
X25060005Y12460004D01*
X25060005Y12460004D02*
X21060005Y12460004D01*
X20670005Y18140004D02*
G75*
G02*
X20370005Y18140004I-150000J0D01*
G01*
X20370005Y18140004D02*
G75*
G02*
X20670005Y18140004I150000J0D01*
G01*
X21090006Y19260003D02*
G75*
G02*
X21030004Y19260003I-30001J0D01*
G01*
X21030004Y19260003D02*
G75*
G02*
X21090006Y19260003I30001J0D01*
G01*
%TO.C,R20*%
X10870005Y26333645D02*
X10870005Y26026363D01*
X11630005Y26333645D02*
X11630005Y26026363D01*
D13*
%TO.C,U22*%
G36*
X26037949Y28901906D02*
G01*
X25783949Y29282906D01*
X26291949Y29282906D01*
X26037949Y28901906D01*
G37*
%TO.C,J1*%
D12*
X5032505Y22570000D02*
X15192505Y22570000D01*
X5032505Y20830000D02*
X5032505Y22570000D01*
X5032505Y17880000D02*
X5032505Y18970000D01*
X6382505Y17880000D02*
X5032505Y17880000D01*
X7692505Y16990000D02*
X7692505Y17370000D01*
X13792505Y17320000D02*
X13792505Y16990000D01*
X13792505Y16990000D02*
X7692505Y16990000D01*
X16462505Y18520000D02*
X16462505Y17880000D01*
X16462505Y17880000D02*
X15192505Y17880000D01*
D10*
X6350016Y17120000D02*
G75*
G02*
X6190994Y17120000I-79511J0D01*
G01*
X6190994Y17120000D02*
G75*
G02*
X6350016Y17120000I79511J0D01*
G01*
D15*
X16452505Y17000000D02*
G75*
G02*
X16392505Y17000000I-30000J0D01*
G01*
X16392505Y17000000D02*
G75*
G02*
X16452505Y17000000I30000J0D01*
G01*
%TO.C,R30*%
D12*
X2445000Y12606358D02*
X2445000Y12913640D01*
X3205000Y12606358D02*
X3205000Y12913640D01*
%TO.C,D3*%
X10877504Y29360004D02*
X10877504Y27360004D01*
X10877504Y29360004D02*
X14887504Y29360004D01*
X10877504Y27360004D02*
X14887504Y27360004D01*
%TO.C,R26*%
X18470005Y10073028D02*
X18470005Y9765746D01*
X19230005Y10073028D02*
X19230005Y9765746D01*
%TO.C,U14*%
X12850005Y1490004D02*
X13100005Y1490004D01*
X12850005Y740005D02*
X12850005Y1490004D01*
X12850005Y-919997D02*
X12850005Y-1669996D01*
X12850005Y-1669996D02*
X13100005Y-1669996D01*
X15510005Y1490004D02*
X15260005Y1490004D01*
X15510005Y740005D02*
X15510005Y1490004D01*
X15510005Y-919997D02*
X15510005Y-1669996D01*
X15510005Y-1669996D02*
X15260005Y-1669996D01*
X15020005Y1820004D02*
G75*
G02*
X14860005Y1820004I-80000J0D01*
G01*
X14860005Y1820004D02*
G75*
G02*
X15020005Y1820004I80000J0D01*
G01*
X15460006Y1410004D02*
G75*
G02*
X15400004Y1410004I-30001J0D01*
G01*
X15400004Y1410004D02*
G75*
G02*
X15460006Y1410004I30001J0D01*
G01*
%TO.C,C52*%
X2225005Y9718134D02*
X2225005Y10240640D01*
X3695005Y9718134D02*
X3695005Y10240640D01*
%TO.C,C37*%
X26062169Y18729387D02*
X26277841Y18729387D01*
X26062169Y18009387D02*
X26277841Y18009387D01*
%TO.C,R11*%
X23518647Y26339387D02*
X23211365Y26339387D01*
X23518647Y25579387D02*
X23211365Y25579387D01*
%TO.C,R10*%
X25403646Y26345005D02*
X25096364Y26345005D01*
X25403646Y25585005D02*
X25096364Y25585005D01*
%TO.C,R21*%
X19146364Y11979387D02*
X19453646Y11979387D01*
X19146364Y11219387D02*
X19453646Y11219387D01*
%TO.C,U6*%
X7162505Y25780006D02*
X7162505Y25780006D01*
X7162505Y25780006D02*
X7172505Y25550006D01*
X7162505Y22620006D02*
X7162505Y22620006D01*
X7162505Y22620006D02*
X10322505Y22620006D01*
X7172505Y22880006D02*
X7162505Y22620006D01*
X10312505Y25520006D02*
X10322505Y25780006D01*
X10322505Y25780006D02*
X7162505Y25780006D01*
X10322505Y25780006D02*
X10322505Y25780006D01*
X10322505Y22620006D02*
X10312505Y22850006D01*
X10322505Y22620006D02*
X10322505Y22620006D01*
X6882505Y25670006D02*
G75*
G02*
X6742505Y25670006I-70000J0D01*
G01*
X6742505Y25670006D02*
G75*
G02*
X6882505Y25670006I70000J0D01*
G01*
X7272505Y25700006D02*
G75*
G02*
X7212505Y25700006I-30000J0D01*
G01*
X7212505Y25700006D02*
G75*
G02*
X7272505Y25700006I30000J0D01*
G01*
D13*
%TO.C,kibuzzard-6A4131D0*%
G36*
X5259583Y7719058D02*
G01*
X5281114Y7666984D01*
X5258081Y7611905D01*
X5210012Y7593879D01*
X5099855Y7593879D01*
X5099855Y7740088D01*
X5208009Y7740088D01*
X5259583Y7719058D01*
G37*
G36*
X5259583Y6216912D02*
G01*
X5281114Y6164838D01*
X5258081Y6109759D01*
X5210012Y6091733D01*
X5099855Y6091733D01*
X5099855Y6237942D01*
X5208009Y6237942D01*
X5259583Y6216912D01*
G37*
G36*
X5677180Y10003321D02*
G01*
X5691700Y9961261D01*
X5673675Y9926712D01*
X5624604Y9914194D01*
X5582544Y9927713D01*
X5566521Y9963264D01*
X5581543Y10003822D01*
X5629612Y10016340D01*
X5677180Y10003321D01*
G37*
G36*
X6628038Y9229966D02*
G01*
X6682115Y9193164D01*
X6718918Y9139087D01*
X6731185Y9074995D01*
X6718918Y9011029D01*
X6682115Y8957327D01*
X6628288Y8920900D01*
X6564948Y8908758D01*
X6483832Y8908758D01*
X6483832Y9242234D01*
X6563946Y9242234D01*
X6628038Y9229966D01*
G37*
G36*
X6628038Y6976748D02*
G01*
X6682115Y6939945D01*
X6718918Y6885868D01*
X6731185Y6821776D01*
X6718918Y6757810D01*
X6682115Y6704108D01*
X6628288Y6667681D01*
X6564948Y6655539D01*
X6483832Y6655539D01*
X6483832Y6989015D01*
X6563946Y6989015D01*
X6628038Y6976748D01*
G37*
G36*
X6997900Y5624733D02*
G01*
X6914447Y5624733D01*
X6457795Y5624733D01*
X6060227Y5624733D01*
X5356221Y5624733D01*
X4895563Y5624733D01*
X4812110Y5624733D01*
X4812110Y6330074D01*
X4916593Y6330074D01*
X4916593Y5813335D01*
X4918095Y5778786D01*
X4927609Y5751247D01*
X4955649Y5728214D01*
X5007723Y5721204D01*
X5060799Y5728214D01*
X5088839Y5750746D01*
X5098353Y5777785D01*
X5099855Y5812334D01*
X5099855Y5909473D01*
X5192988Y5909473D01*
X5300141Y5764265D01*
X5356221Y5717699D01*
X5427323Y5745238D01*
X5475391Y5804323D01*
X5448353Y5873421D01*
X5376250Y5969559D01*
X5425208Y6024081D01*
X5454584Y6088840D01*
X5464376Y6163836D01*
X5458117Y6223296D01*
X5439340Y6277499D01*
X5410674Y6323690D01*
X5402168Y6332077D01*
X5494919Y6332077D01*
X5528467Y6267985D01*
X5708725Y6070703D01*
X5529469Y5873421D01*
X5494919Y5808829D01*
X5534476Y5745238D01*
X5602573Y5709687D01*
X5663660Y5751247D01*
X5831901Y5935510D01*
X5999139Y5751247D01*
X6060227Y5709687D01*
X6128324Y5745238D01*
X6167881Y5808829D01*
X6133331Y5873421D01*
X6079645Y5932506D01*
X6190413Y5932506D01*
X6199314Y5875480D01*
X6226019Y5823239D01*
X6270527Y5775782D01*
X6326941Y5738228D01*
X6389364Y5715696D01*
X6457795Y5708185D01*
X6531400Y5715696D01*
X6595992Y5738228D01*
X6651572Y5775782D01*
X6694132Y5824796D01*
X6719669Y5881711D01*
X6728181Y5946526D01*
X6721421Y5994594D01*
X6701142Y6034652D01*
X6645062Y6088729D01*
X6696886Y6138550D01*
X6714161Y6211905D01*
X6706428Y6265648D01*
X6683228Y6316054D01*
X6644562Y6363121D01*
X6592877Y6400953D01*
X6530621Y6423652D01*
X6457795Y6431218D01*
X6402215Y6426712D01*
X6391700Y6423969D01*
X6356149Y6414695D01*
X6319097Y6397170D01*
X6289554Y6376640D01*
X6267523Y6355109D01*
X6251500Y6335081D01*
X6241486Y6318557D01*
X6235978Y6307542D01*
X6234476Y6304036D01*
X6219955Y6234938D01*
X6269526Y6179859D01*
X6323158Y6161945D01*
X6365218Y6173628D01*
X6395706Y6214909D01*
X6424747Y6244952D01*
X6467809Y6254966D01*
X6513374Y6242449D01*
X6529898Y6207899D01*
X6515377Y6182363D01*
X6468810Y6175853D01*
X6461800Y6175853D01*
X6429755Y6174351D01*
X6404218Y6165839D01*
X6383188Y6139802D01*
X6376679Y6089730D01*
X6382687Y6045667D01*
X6394705Y6019630D01*
X6417237Y6007112D01*
X6440270Y6002606D01*
X6467809Y6002606D01*
X6525642Y5988085D01*
X6544919Y5944523D01*
X6521386Y5902964D01*
X6458796Y5887441D01*
X6423245Y5892949D01*
X6399211Y5904966D01*
X6384190Y5919988D01*
X6376679Y5932005D01*
X6374676Y5937513D01*
X6345634Y5984580D01*
X6290556Y5995596D01*
X6215448Y5979823D01*
X6190413Y5932506D01*
X6079645Y5932506D01*
X5954075Y6070703D01*
X6134333Y6267985D01*
X6168381Y6332077D01*
X6129325Y6397170D01*
X6061228Y6432720D01*
X6000141Y6391161D01*
X5831901Y6205896D01*
X5719740Y6328675D01*
X5662659Y6391161D01*
X5601572Y6432720D01*
X5533474Y6397170D01*
X5494919Y6332077D01*
X5402168Y6332077D01*
X5374747Y6359115D01*
X5334440Y6385653D01*
X5292630Y6405181D01*
X5269097Y6411925D01*
X5250695Y6417198D01*
X5210012Y6421204D01*
X5008725Y6421204D01*
X4955649Y6414194D01*
X4927609Y6391161D01*
X4918095Y6363622D01*
X4916593Y6330074D01*
X4812110Y6330074D01*
X4812110Y6831790D01*
X4916593Y6831790D01*
X4923102Y6758373D01*
X4942630Y6690338D01*
X4975177Y6627686D01*
X5020742Y6570417D01*
X5075320Y6522661D01*
X5134905Y6488550D01*
X5199497Y6468083D01*
X5269097Y6461261D01*
X5345873Y6465601D01*
X5411967Y6478619D01*
X5467380Y6500317D01*
X5504182Y6523475D01*
X5532473Y6550889D01*
X5556507Y6608471D01*
X5556507Y6813765D01*
X5556006Y6838800D01*
X5551500Y6860832D01*
X5539483Y6880861D01*
X5515949Y6893879D01*
X5477394Y6900889D01*
X5302144Y6900889D01*
X5275105Y6899387D01*
X5253074Y6891376D01*
X5234547Y6867842D01*
X5229039Y6823779D01*
X5234046Y6778715D01*
X5251071Y6755181D01*
X5272101Y6747170D01*
X5299139Y6745667D01*
X5373245Y6745667D01*
X5373245Y6659544D01*
X5330685Y6649780D01*
X5273102Y6646526D01*
X5208260Y6660295D01*
X5151929Y6701604D01*
X5112873Y6761190D01*
X5099855Y6829788D01*
X5112373Y6896258D01*
X5149926Y6951461D01*
X5205255Y6988640D01*
X5271099Y7001032D01*
X5332938Y6994022D01*
X5384261Y6972992D01*
X5438338Y6949959D01*
X5475391Y6963228D01*
X5512444Y7003035D01*
X5535477Y7059115D01*
X5527604Y7083150D01*
X5629612Y7083150D01*
X5629612Y6563407D01*
X5631614Y6528357D01*
X5641128Y6500818D01*
X5668167Y6478285D01*
X5719740Y6471275D01*
X5772816Y6478285D01*
X5800856Y6500818D01*
X5810370Y6527856D01*
X5811872Y6562406D01*
X5811872Y6840803D01*
X6071242Y6498314D01*
X6100785Y6476783D01*
X6152358Y6471275D01*
X6205434Y6478285D01*
X6233474Y6500818D01*
X6242988Y6527856D01*
X6244490Y6562406D01*
X6244490Y7079144D01*
X6244359Y7082148D01*
X6300570Y7082148D01*
X6300570Y6564408D01*
X6303074Y6528858D01*
X6313589Y6500818D01*
X6341128Y6479287D01*
X6391700Y6472277D01*
X6561943Y6472277D01*
X6632357Y6478755D01*
X6697387Y6498189D01*
X6757035Y6530579D01*
X6811300Y6575925D01*
X6856427Y6630409D01*
X6888660Y6690213D01*
X6908000Y6755337D01*
X6914447Y6825782D01*
X6908000Y6894380D01*
X6888660Y6957971D01*
X6856427Y7016554D01*
X6811300Y7070131D01*
X6757222Y7114820D01*
X6698138Y7146740D01*
X6634046Y7165893D01*
X6607008Y7168391D01*
X6564948Y7172277D01*
X6392702Y7172277D01*
X6339626Y7165768D01*
X6311586Y7143235D01*
X6302072Y7115696D01*
X6300570Y7082148D01*
X6244359Y7082148D01*
X6242988Y7113693D01*
X6233474Y7141232D01*
X6205434Y7164265D01*
X6153360Y7171275D01*
X6101285Y7164265D01*
X6073245Y7142735D01*
X6063231Y7116197D01*
X6061228Y7083150D01*
X6061228Y6795739D01*
X6060227Y6797085D01*
X5810871Y7132220D01*
X5792845Y7152749D01*
X5767308Y7165267D01*
X5721743Y7171275D01*
X5669168Y7164766D01*
X5641629Y7143235D01*
X5631614Y7116697D01*
X5629612Y7083150D01*
X5527604Y7083150D01*
X5525964Y7088157D01*
X5507437Y7109187D01*
X5479397Y7129215D01*
X5436461Y7152373D01*
X5383760Y7169773D01*
X5356221Y7175157D01*
X5328056Y7180664D01*
X5276107Y7184294D01*
X5204661Y7177816D01*
X5138535Y7158382D01*
X5077729Y7125992D01*
X5022244Y7080646D01*
X4976022Y7026224D01*
X4943006Y6966608D01*
X4923196Y6901797D01*
X4916593Y6831790D01*
X4812110Y6831790D01*
X4812110Y7832220D01*
X4916593Y7832220D01*
X4916593Y7315481D01*
X4918095Y7280932D01*
X4927609Y7253393D01*
X4955649Y7230360D01*
X5007723Y7223350D01*
X5060799Y7230360D01*
X5088839Y7252892D01*
X5098353Y7279931D01*
X5099855Y7314480D01*
X5099855Y7411619D01*
X5192988Y7411619D01*
X5300141Y7266411D01*
X5356221Y7219845D01*
X5427323Y7247384D01*
X5475391Y7306469D01*
X5448353Y7375567D01*
X5376250Y7471705D01*
X5425208Y7526227D01*
X5454584Y7590986D01*
X5464376Y7665982D01*
X5458117Y7725442D01*
X5439340Y7779645D01*
X5410674Y7825835D01*
X5402168Y7834222D01*
X5494919Y7834222D01*
X5528467Y7770131D01*
X5708725Y7572849D01*
X5529469Y7375567D01*
X5494919Y7310975D01*
X5534476Y7247384D01*
X5602573Y7211833D01*
X5663660Y7253393D01*
X5831901Y7437656D01*
X5999139Y7253393D01*
X6060227Y7211833D01*
X6128324Y7247384D01*
X6167881Y7310975D01*
X6133331Y7375567D01*
X6009580Y7511762D01*
X6181400Y7511762D01*
X6182902Y7477212D01*
X6192416Y7449673D01*
X6220456Y7426640D01*
X6272530Y7419630D01*
X6515878Y7419630D01*
X6515878Y7315481D01*
X6517380Y7280932D01*
X6526893Y7253393D01*
X6554933Y7230360D01*
X6607008Y7223350D01*
X6660084Y7230360D01*
X6688124Y7252391D01*
X6698138Y7279931D01*
X6700141Y7314480D01*
X6700141Y7832220D01*
X6698138Y7866268D01*
X6688624Y7894308D01*
X6661085Y7917341D01*
X6643059Y7919768D01*
X6609011Y7924351D01*
X6555434Y7917842D01*
X6526893Y7896311D01*
X6517380Y7870274D01*
X6515878Y7837227D01*
X6515878Y7591876D01*
X6384690Y7591876D01*
X6446779Y7847241D01*
X6432759Y7891304D01*
X6374676Y7920346D01*
X6299068Y7921347D01*
X6261514Y7855253D01*
X6184404Y7543808D01*
X6181400Y7511762D01*
X6009580Y7511762D01*
X5954075Y7572849D01*
X6134333Y7770131D01*
X6168381Y7834222D01*
X6129325Y7899315D01*
X6096278Y7916568D01*
X6061228Y7934866D01*
X6000141Y7893307D01*
X5831901Y7708042D01*
X5662659Y7893307D01*
X5601572Y7934866D01*
X5533474Y7899315D01*
X5494919Y7834222D01*
X5402168Y7834222D01*
X5374747Y7861261D01*
X5334440Y7887799D01*
X5292630Y7907327D01*
X5250695Y7919344D01*
X5210012Y7923350D01*
X5200999Y7923350D01*
X5008725Y7923350D01*
X4955649Y7916340D01*
X4927609Y7893307D01*
X4918095Y7865768D01*
X4916593Y7832220D01*
X4812110Y7832220D01*
X4812110Y8599315D01*
X4896564Y8599315D01*
X4902573Y8554251D01*
X4921600Y8530717D01*
X4944132Y8522706D01*
X4972673Y8521204D01*
X5111872Y8521204D01*
X5111872Y8063550D01*
X5113374Y8030002D01*
X5122387Y8002964D01*
X5149426Y7980431D01*
X5200999Y7973421D01*
X5253074Y7980431D01*
X5281114Y8002463D01*
X5290627Y8029001D01*
X5292129Y8062549D01*
X5292129Y8521204D01*
X5430327Y8521204D01*
X5458868Y8522706D01*
X5481901Y8530717D01*
X5501428Y8554251D01*
X5505662Y8585295D01*
X5530971Y8585295D01*
X5564519Y8521204D01*
X5744776Y8323922D01*
X5565520Y8126640D01*
X5530971Y8062048D01*
X5570527Y7998457D01*
X5638624Y7962906D01*
X5699712Y8004466D01*
X5867952Y8188729D01*
X6035191Y8004466D01*
X6096278Y7962906D01*
X6164376Y7998457D01*
X6203932Y8062048D01*
X6169383Y8126640D01*
X6045632Y8262835D01*
X6217451Y8262835D01*
X6218953Y8228285D01*
X6228467Y8200746D01*
X6256507Y8177713D01*
X6308582Y8170703D01*
X6551929Y8170703D01*
X6551929Y8066554D01*
X6553431Y8032005D01*
X6562945Y8004466D01*
X6590985Y7981433D01*
X6643059Y7974423D01*
X6696135Y7981433D01*
X6724175Y8003464D01*
X6734190Y8031004D01*
X6736192Y8065553D01*
X6736192Y8583293D01*
X6734190Y8617341D01*
X6724676Y8645381D01*
X6697137Y8668414D01*
X6645062Y8675424D01*
X6591486Y8668915D01*
X6562945Y8647384D01*
X6553431Y8621347D01*
X6551929Y8588300D01*
X6551929Y8342949D01*
X6420742Y8342949D01*
X6482830Y8598314D01*
X6468810Y8642377D01*
X6410727Y8671418D01*
X6391700Y8671670D01*
X6335119Y8672420D01*
X6297566Y8606325D01*
X6260513Y8456670D01*
X6220456Y8294881D01*
X6217451Y8262835D01*
X6045632Y8262835D01*
X5990127Y8323922D01*
X6170384Y8521204D01*
X6204433Y8585295D01*
X6165377Y8650388D01*
X6097280Y8685939D01*
X6036192Y8644380D01*
X5867952Y8459115D01*
X5719740Y8621359D01*
X5698710Y8644380D01*
X5637623Y8685939D01*
X5569526Y8650388D01*
X5530971Y8585295D01*
X5505662Y8585295D01*
X5507437Y8598314D01*
X5501428Y8642377D01*
X5482401Y8665911D01*
X5459869Y8673922D01*
X5431328Y8675424D01*
X5269097Y8675424D01*
X4973675Y8675424D01*
X4945134Y8673922D01*
X4922101Y8665911D01*
X4902573Y8642878D01*
X4896564Y8599315D01*
X4812110Y8599315D01*
X4812110Y9085009D01*
X4916593Y9085009D01*
X4923102Y9011592D01*
X4942630Y8943557D01*
X4975177Y8880905D01*
X5020742Y8823636D01*
X5075320Y8775880D01*
X5134905Y8741769D01*
X5199497Y8721302D01*
X5269097Y8714480D01*
X5345873Y8718820D01*
X5411967Y8731838D01*
X5467380Y8753536D01*
X5504182Y8776694D01*
X5532473Y8804108D01*
X5556507Y8861690D01*
X5556507Y9066984D01*
X5556006Y9092019D01*
X5551500Y9114051D01*
X5539483Y9134079D01*
X5515949Y9147098D01*
X5477394Y9154108D01*
X5302144Y9154108D01*
X5275105Y9152606D01*
X5253074Y9144594D01*
X5234547Y9121061D01*
X5229039Y9076998D01*
X5234046Y9031933D01*
X5251071Y9008400D01*
X5272101Y9000388D01*
X5299139Y8998886D01*
X5373245Y8998886D01*
X5373245Y8912763D01*
X5330685Y8902999D01*
X5273102Y8899745D01*
X5208260Y8913514D01*
X5151929Y8954823D01*
X5112873Y9014408D01*
X5099855Y9083006D01*
X5112373Y9149476D01*
X5149926Y9204680D01*
X5205255Y9241858D01*
X5271099Y9254251D01*
X5332938Y9247241D01*
X5384261Y9226211D01*
X5438338Y9203178D01*
X5475391Y9216447D01*
X5512444Y9256254D01*
X5535477Y9312334D01*
X5527604Y9336368D01*
X5629612Y9336368D01*
X5629612Y8816626D01*
X5631614Y8781576D01*
X5641128Y8754036D01*
X5668167Y8731504D01*
X5719740Y8724494D01*
X5772816Y8731504D01*
X5800856Y8754036D01*
X5810370Y8781075D01*
X5811872Y8815624D01*
X5811872Y9094022D01*
X6071242Y8751533D01*
X6100785Y8730002D01*
X6152358Y8724494D01*
X6205434Y8731504D01*
X6233474Y8754036D01*
X6242988Y8781075D01*
X6244490Y8815624D01*
X6244490Y9332363D01*
X6244359Y9335367D01*
X6300570Y9335367D01*
X6300570Y8817627D01*
X6303074Y8782077D01*
X6313589Y8754036D01*
X6341128Y8732506D01*
X6391700Y8725496D01*
X6561943Y8725496D01*
X6632357Y8731974D01*
X6697387Y8751408D01*
X6757035Y8783798D01*
X6811300Y8829144D01*
X6856427Y8883628D01*
X6888660Y8943432D01*
X6908000Y9008556D01*
X6914447Y9079001D01*
X6908000Y9147599D01*
X6888660Y9211190D01*
X6856427Y9269773D01*
X6811300Y9323350D01*
X6757222Y9368039D01*
X6698138Y9399959D01*
X6634046Y9419112D01*
X6564948Y9425496D01*
X6392702Y9425496D01*
X6339626Y9418986D01*
X6311586Y9396454D01*
X6302072Y9368915D01*
X6300570Y9335367D01*
X6244359Y9335367D01*
X6242988Y9366912D01*
X6233474Y9394451D01*
X6205434Y9417484D01*
X6153360Y9424494D01*
X6101285Y9417484D01*
X6073245Y9395954D01*
X6063231Y9369416D01*
X6061228Y9336368D01*
X6061228Y9048958D01*
X5810871Y9385439D01*
X5792845Y9405968D01*
X5767308Y9418486D01*
X5721743Y9424494D01*
X5669168Y9417985D01*
X5641629Y9396454D01*
X5631614Y9369916D01*
X5629612Y9336368D01*
X5527604Y9336368D01*
X5525964Y9341376D01*
X5507437Y9362406D01*
X5489411Y9375281D01*
X5479397Y9382434D01*
X5436461Y9405592D01*
X5383760Y9422992D01*
X5328056Y9433883D01*
X5276107Y9437513D01*
X5204661Y9431035D01*
X5138535Y9411601D01*
X5126893Y9405400D01*
X5077729Y9379211D01*
X5022244Y9333865D01*
X4976022Y9279443D01*
X4943006Y9219827D01*
X4923196Y9155016D01*
X4916593Y9085009D01*
X4812110Y9085009D01*
X4812110Y9739945D01*
X4895563Y9739945D01*
X4901572Y9691876D01*
X4921099Y9666841D01*
X4944132Y9658328D01*
X4972673Y9656826D01*
X5044776Y9656826D01*
X5044776Y9591733D01*
X5046278Y9561190D01*
X5054790Y9536154D01*
X5079826Y9515124D01*
X5126893Y9508614D01*
X5174962Y9515124D01*
X5199998Y9535653D01*
X5208510Y9560188D01*
X5210012Y9590732D01*
X5210012Y9656826D01*
X5281114Y9656826D01*
X5309654Y9658328D01*
X5332687Y9666841D01*
X5352215Y9691876D01*
X5358224Y9738944D01*
X5351715Y9787513D01*
X5331185Y9813049D01*
X5306650Y9821562D01*
X5276107Y9823064D01*
X5210012Y9823064D01*
X5210012Y9888157D01*
X5208510Y9918700D01*
X5199998Y9943235D01*
X5182901Y9957255D01*
X5386264Y9957255D01*
X5393997Y9904180D01*
X5417197Y9855777D01*
X5455863Y9812048D01*
X5504878Y9777554D01*
X5559122Y9756858D01*
X5618596Y9749959D01*
X5671672Y9758972D01*
X5630502Y9702781D01*
X5572419Y9669066D01*
X5497423Y9657828D01*
X5462373Y9656325D01*
X5434333Y9646812D01*
X5411300Y9618772D01*
X5404290Y9566697D01*
X5410799Y9514623D01*
X5431829Y9486583D01*
X5457866Y9476569D01*
X5489411Y9474566D01*
X5557148Y9479253D01*
X5619357Y9493313D01*
X5676038Y9516746D01*
X5727191Y9549553D01*
X5772816Y9591733D01*
X5811391Y9641564D01*
X5841394Y9697324D01*
X5862825Y9759012D01*
X5875683Y9826629D01*
X5879969Y9900174D01*
X5872459Y9983237D01*
X5849926Y10053504D01*
X5812373Y10110975D01*
X5804007Y10117985D01*
X5923031Y10117985D01*
X5933045Y10048386D01*
X6170384Y9526640D01*
X6204433Y9489087D01*
X6260513Y9476569D01*
X6312087Y9490088D01*
X6346636Y9526640D01*
X6583975Y10048386D01*
X6595491Y10117484D01*
X6537909Y10165553D01*
X6463803Y10180074D01*
X6416736Y10123493D01*
X6258510Y9733936D01*
X6100284Y10123493D01*
X6054218Y10180574D01*
X5979111Y10165553D01*
X5923031Y10117985D01*
X5804007Y10117985D01*
X5761578Y10153536D01*
X5699322Y10179072D01*
X5625606Y10187584D01*
X5561737Y10180185D01*
X5504989Y10157987D01*
X5455363Y10120989D01*
X5416974Y10073199D01*
X5393942Y10018621D01*
X5386264Y9957255D01*
X5182901Y9957255D01*
X5174962Y9963765D01*
X5127895Y9970274D01*
X5079826Y9964265D01*
X5054790Y9944237D01*
X5046278Y9919702D01*
X5044776Y9889158D01*
X5044776Y9823064D01*
X4979683Y9823064D01*
X4948639Y9821562D01*
X4923102Y9813049D01*
X4902072Y9788014D01*
X4895563Y9739945D01*
X4812110Y9739945D01*
X4812110Y10274041D01*
X4895563Y10274041D01*
X6914447Y10274041D01*
X6997900Y10274041D01*
X6997900Y5624733D01*
G37*
%TO.C,C47*%
D12*
X23647169Y8260004D02*
X23862841Y8260004D01*
X23647169Y7540004D02*
X23862841Y7540004D01*
%TO.C,U7*%
X12000005Y27220004D02*
X12000005Y27220004D01*
X12000005Y27220004D02*
X12010005Y26990004D01*
X12000005Y24060004D02*
X12000005Y24060004D01*
X12000005Y24060004D02*
X15160005Y24060004D01*
X12010005Y24320004D02*
X12000005Y24060004D01*
X15150005Y26960004D02*
X15160005Y27220004D01*
X15160005Y27220004D02*
X12000005Y27220004D01*
X15160005Y27220004D02*
X15160005Y27220004D01*
X15160005Y24060004D02*
X15150005Y24290004D01*
X15160005Y24060004D02*
X15160005Y24060004D01*
X15110005Y24140004D02*
G75*
G02*
X15050005Y24140004I-30000J0D01*
G01*
X15050005Y24140004D02*
G75*
G02*
X15110005Y24140004I30000J0D01*
G01*
X15580005Y24170004D02*
G75*
G02*
X15440005Y24170004I-70000J0D01*
G01*
X15440005Y24170004D02*
G75*
G02*
X15580005Y24170004I70000J0D01*
G01*
%TO.C,SW2*%
X2600000Y-1270000D02*
X2600000Y-1940000D01*
X3140000Y-300000D02*
X5060000Y-300000D01*
X3140000Y-2900000D02*
X5060000Y-2900000D01*
X5600000Y-1940000D02*
X5600000Y-1260000D01*
X4500000Y-1600000D02*
G75*
G02*
X3700000Y-1600000I-400000J0D01*
G01*
X3700000Y-1600000D02*
G75*
G02*
X4500000Y-1600000I400000J0D01*
G01*
X5920711Y-3025000D02*
G75*
G02*
X5779289Y-3025000I-70711J0D01*
G01*
X5779289Y-3025000D02*
G75*
G02*
X5920711Y-3025000I70711J0D01*
G01*
%TO.C,C17*%
X23447841Y25384387D02*
X23232169Y25384387D01*
X23447841Y24664387D02*
X23232169Y24664387D01*
%TO.C,C33*%
X25540005Y14552223D02*
X25540005Y14336551D01*
X26260005Y14552223D02*
X26260005Y14336551D01*
%TO.C,U2*%
X7170005Y12609387D02*
X15390005Y12609387D01*
X7170005Y5389387D02*
X7170005Y12609387D01*
X15390005Y12609387D02*
X15390005Y4389387D01*
X15390005Y4389387D02*
X8170005Y4389387D01*
X7170005Y4389387D02*
X7170005Y3889387D01*
X6670005Y4389387D01*
X7170005Y4389387D01*
G36*
X7170005Y3889387D02*
G01*
X6670005Y4389387D01*
X7170005Y4389387D01*
X7170005Y3889387D01*
G37*
%TO.C,U15*%
X19480005Y2180004D02*
X19480005Y1930004D01*
X19480005Y-479996D02*
X19480005Y-229996D01*
X20230005Y2180004D02*
X19480005Y2180004D01*
X20230005Y-479996D02*
X19480005Y-479996D01*
X21890005Y2180004D02*
X22640005Y2180004D01*
X21890005Y-479996D02*
X22640005Y-479996D01*
X22640005Y2180004D02*
X22640005Y1930004D01*
X22640005Y-479996D02*
X22640005Y-229996D01*
X19230005Y1610004D02*
G75*
G02*
X19070005Y1610004I-80000J0D01*
G01*
X19070005Y1610004D02*
G75*
G02*
X19230005Y1610004I80000J0D01*
G01*
X19590005Y2100004D02*
G75*
G02*
X19530005Y2100004I-30000J0D01*
G01*
X19530005Y2100004D02*
G75*
G02*
X19590005Y2100004I30000J0D01*
G01*
%TO.C,C42*%
X23820005Y491551D02*
X23820005Y707223D01*
X24540005Y491551D02*
X24540005Y707223D01*
%TO.C,R28*%
X22388646Y3234387D02*
X22081364Y3234387D01*
X22388646Y2474387D02*
X22081364Y2474387D01*
D13*
%TO.C,U11*%
G36*
X29272984Y13008131D02*
G01*
X28891984Y13262131D01*
X29272984Y13516131D01*
X29272984Y13008131D01*
G37*
%TO.C,kibuzzard-6A40F45A*%
G36*
X28305570Y11486969D02*
G01*
X28330177Y11427456D01*
X28303853Y11364509D01*
X28248918Y11343908D01*
X28123024Y11343908D01*
X28123024Y11511004D01*
X28246629Y11511004D01*
X28305570Y11486969D01*
G37*
G36*
X29036328Y12355353D02*
G01*
X29098131Y12313293D01*
X29140191Y12251490D01*
X29154211Y12178243D01*
X29140191Y12105138D01*
X29098131Y12043765D01*
X29036614Y12002134D01*
X28964225Y11988257D01*
X28871521Y11988257D01*
X28871521Y12369373D01*
X28963081Y12369373D01*
X29036328Y12355353D01*
G37*
G36*
X29459027Y10810193D02*
G01*
X29363653Y10810193D01*
X29220592Y10810193D01*
X28416014Y10810193D01*
X27871235Y10810193D01*
X27459218Y10810193D01*
X27056357Y10810193D01*
X26960983Y10810193D01*
X26960983Y11653493D01*
X27073524Y11653493D01*
X27084969Y11573951D01*
X27356214Y10977670D01*
X27395127Y10934752D01*
X27459218Y10920446D01*
X27518160Y10935896D01*
X27557644Y10977670D01*
X27828889Y11573951D01*
X27835947Y11616297D01*
X27913582Y11616297D01*
X27913582Y11025739D01*
X27915298Y10986254D01*
X27926171Y10954780D01*
X27958217Y10928457D01*
X28017730Y10920446D01*
X28078388Y10928457D01*
X28110434Y10954208D01*
X28121307Y10985109D01*
X28123024Y11024594D01*
X28123024Y11135610D01*
X28229461Y11135610D01*
X28351922Y10969659D01*
X28416014Y10916440D01*
X28497273Y10947913D01*
X28552208Y11015439D01*
X28521307Y11094408D01*
X28438903Y11204280D01*
X28494856Y11266591D01*
X28528428Y11340601D01*
X28539619Y11426311D01*
X28532466Y11494265D01*
X28511006Y11556211D01*
X28478245Y11609001D01*
X28468525Y11618586D01*
X28574526Y11618586D01*
X28612866Y11545338D01*
X28818875Y11319873D01*
X28614011Y11094408D01*
X28574526Y11020589D01*
X28619733Y10947913D01*
X28697559Y10907284D01*
X28767373Y10954780D01*
X28959647Y11165367D01*
X29150778Y10954780D01*
X29220592Y10907284D01*
X29298417Y10947913D01*
X29343624Y11020589D01*
X29304139Y11094408D01*
X29099275Y11319873D01*
X29305284Y11545338D01*
X29344197Y11618586D01*
X29299562Y11692978D01*
X29221736Y11733607D01*
X29151922Y11686111D01*
X28959647Y11474380D01*
X28766228Y11686111D01*
X28696414Y11733607D01*
X28618589Y11692978D01*
X28574526Y11618586D01*
X28468525Y11618586D01*
X28437187Y11649487D01*
X28391121Y11679816D01*
X28343338Y11702134D01*
X28295413Y11715868D01*
X28248918Y11720446D01*
X28018875Y11720446D01*
X27998274Y11717725D01*
X27958217Y11712434D01*
X27926171Y11686111D01*
X27915298Y11654637D01*
X27913582Y11616297D01*
X27835947Y11616297D01*
X27842051Y11652921D01*
X27776242Y11707856D01*
X27691550Y11724451D01*
X27637759Y11659788D01*
X27483252Y11279389D01*
X27456929Y11214580D01*
X27276099Y11659788D01*
X27223453Y11725024D01*
X27137616Y11707856D01*
X27073524Y11653493D01*
X26960983Y11653493D01*
X26960983Y12189687D01*
X27080391Y12189687D01*
X27087830Y12105782D01*
X27110148Y12028028D01*
X27147344Y11956426D01*
X27199418Y11890975D01*
X27261793Y11836397D01*
X27329891Y11797413D01*
X27403710Y11774022D01*
X27483252Y11766225D01*
X27570997Y11771185D01*
X27646533Y11786063D01*
X27709862Y11810861D01*
X27751922Y11837327D01*
X27784254Y11868657D01*
X27811722Y11934466D01*
X27811722Y12169087D01*
X27811149Y12197699D01*
X27805999Y12222878D01*
X27792265Y12245768D01*
X27765370Y12260646D01*
X27721307Y12268657D01*
X27521021Y12268657D01*
X27490119Y12266941D01*
X27464941Y12257785D01*
X27443768Y12230889D01*
X27437473Y12180531D01*
X27443195Y12129029D01*
X27462652Y12102134D01*
X27486686Y12092978D01*
X27517587Y12091261D01*
X27602280Y12091261D01*
X27602280Y11992835D01*
X27553639Y11981676D01*
X27487830Y11977956D01*
X27413725Y11993693D01*
X27349347Y12040903D01*
X27304712Y12109001D01*
X27289833Y12187398D01*
X27304139Y12263364D01*
X27347058Y12326454D01*
X27410291Y12368944D01*
X27485541Y12383107D01*
X27556214Y12375095D01*
X27614869Y12351061D01*
X27676672Y12324738D01*
X27719018Y12339902D01*
X27761364Y12385396D01*
X27787687Y12449487D01*
X27778689Y12476955D01*
X27895270Y12476955D01*
X27895270Y11882964D01*
X27897559Y11842906D01*
X27908431Y11811433D01*
X27939333Y11785682D01*
X27998274Y11777670D01*
X28058932Y11785682D01*
X28090978Y11811433D01*
X28101850Y11842334D01*
X28103567Y11881819D01*
X28103567Y12199988D01*
X28399991Y11808572D01*
X28433753Y11783965D01*
X28492695Y11777670D01*
X28553353Y11785682D01*
X28585398Y11811433D01*
X28596271Y11842334D01*
X28597988Y11881819D01*
X28597988Y12472377D01*
X28597839Y12475810D01*
X28662079Y12475810D01*
X28662079Y11884108D01*
X28664941Y11843479D01*
X28676958Y11811433D01*
X28708431Y11786826D01*
X28766228Y11778815D01*
X28960792Y11778815D01*
X29041264Y11786218D01*
X29115584Y11808428D01*
X29183753Y11845446D01*
X29245770Y11897270D01*
X29297344Y11959537D01*
X29334182Y12027885D01*
X29356285Y12102313D01*
X29363653Y12182820D01*
X29356285Y12261218D01*
X29334182Y12333893D01*
X29297344Y12400846D01*
X29245770Y12462077D01*
X29183968Y12513150D01*
X29116443Y12549630D01*
X29043195Y12571519D01*
X28964225Y12578815D01*
X28767373Y12578815D01*
X28706715Y12571376D01*
X28674669Y12545624D01*
X28663796Y12514151D01*
X28662079Y12475810D01*
X28597839Y12475810D01*
X28596271Y12511862D01*
X28585398Y12543335D01*
X28584254Y12544276D01*
X28553353Y12569659D01*
X28493839Y12577670D01*
X28434325Y12569659D01*
X28402280Y12545052D01*
X28390835Y12514723D01*
X28388546Y12476955D01*
X28388546Y12148486D01*
X28102423Y12533035D01*
X28081822Y12556497D01*
X28052637Y12570803D01*
X28000563Y12577670D01*
X27940477Y12570231D01*
X27909004Y12545624D01*
X27897559Y12515295D01*
X27895270Y12476955D01*
X27778689Y12476955D01*
X27776815Y12482677D01*
X27755642Y12506712D01*
X27723596Y12529602D01*
X27674526Y12556068D01*
X27614297Y12575954D01*
X27550634Y12588400D01*
X27491264Y12592549D01*
X27409612Y12585145D01*
X27334039Y12562935D01*
X27320735Y12555848D01*
X27264547Y12525918D01*
X27201135Y12474094D01*
X27148310Y12411898D01*
X27110577Y12343765D01*
X27087938Y12269695D01*
X27080391Y12189687D01*
X26960983Y12189687D01*
X26960983Y12938185D01*
X27056357Y12938185D01*
X27063224Y12883250D01*
X27085541Y12854637D01*
X27111865Y12844909D01*
X27144483Y12843192D01*
X27226886Y12843192D01*
X27226886Y12768800D01*
X27228603Y12733893D01*
X27238331Y12705281D01*
X27266943Y12681247D01*
X27320735Y12673808D01*
X27375670Y12681247D01*
X27404283Y12704709D01*
X27414011Y12732749D01*
X27415727Y12767656D01*
X27415727Y12771089D01*
X27606858Y12771089D01*
X27650348Y12701275D01*
X27674383Y12680675D01*
X27752208Y12641190D01*
X27809433Y12626168D01*
X27871235Y12621161D01*
X27945627Y12630253D01*
X28011626Y12657530D01*
X28069232Y12702992D01*
X28113740Y12761806D01*
X28140445Y12829141D01*
X28149347Y12904995D01*
X28140191Y12973092D01*
X28112723Y13035467D01*
X28066943Y13092119D01*
X28009083Y13136945D01*
X27945373Y13163841D01*
X27875813Y13172806D01*
X27870091Y13172806D01*
X27850634Y13170517D01*
X27858646Y13231175D01*
X28034898Y13231175D01*
X28071521Y13232892D01*
X28101278Y13243192D01*
X28125885Y13273521D01*
X28133324Y13330746D01*
X28128253Y13370231D01*
X28198560Y13370231D01*
X28210005Y13290689D01*
X28481250Y12694408D01*
X28520162Y12651490D01*
X28584254Y12637184D01*
X28643195Y12652634D01*
X28682680Y12694408D01*
X28953925Y13290689D01*
X28967087Y13369659D01*
X28901278Y13424594D01*
X28816586Y13441190D01*
X28762795Y13376526D01*
X28581965Y12931318D01*
X28401135Y13376526D01*
X28348489Y13441762D01*
X28262652Y13424594D01*
X28198560Y13370231D01*
X28128253Y13370231D01*
X28125313Y13393121D01*
X28099562Y13425167D01*
X28068660Y13436039D01*
X28029175Y13438328D01*
X27767087Y13439473D01*
X27712723Y13429172D01*
X27680677Y13398843D01*
X27667516Y13367370D01*
X27661793Y13335324D01*
X27619447Y13010288D01*
X27633753Y12977098D01*
X27684683Y12942763D01*
X27759075Y12919873D01*
X27823167Y12947341D01*
X27867802Y12963364D01*
X27918160Y12944480D01*
X27938760Y12896984D01*
X27919304Y12848915D01*
X27864368Y12831748D01*
X27797988Y12850059D01*
X27720162Y12887828D01*
X27649204Y12848915D01*
X27606858Y12771089D01*
X27415727Y12771089D01*
X27415727Y12843192D01*
X27496986Y12843192D01*
X27529604Y12844909D01*
X27555928Y12854637D01*
X27578245Y12883250D01*
X27585112Y12937041D01*
X27577673Y12992549D01*
X27554211Y13021733D01*
X27526171Y13031461D01*
X27491264Y13033178D01*
X27415727Y13033178D01*
X27415727Y13107570D01*
X27414011Y13142477D01*
X27404283Y13170517D01*
X27375670Y13193979D01*
X27321879Y13201418D01*
X27266943Y13194552D01*
X27238331Y13171662D01*
X27228603Y13143622D01*
X27226886Y13108715D01*
X27226886Y13033178D01*
X27152494Y13033178D01*
X27117015Y13031461D01*
X27087830Y13021733D01*
X27063796Y12993121D01*
X27056357Y12938185D01*
X26960983Y12938185D01*
X26960983Y13548581D01*
X27056357Y13548581D01*
X29363653Y13548581D01*
X29459027Y13548581D01*
X29459027Y10810193D01*
G37*
%TO.C,C46*%
D12*
X22627841Y-789996D02*
X22412169Y-789996D01*
X22627841Y-1509996D02*
X22412169Y-1509996D01*
%TO.C,C41*%
X11957836Y-1249996D02*
X11742164Y-1249996D01*
X11957836Y-1969996D02*
X11742164Y-1969996D01*
D13*
%TO.C,kibuzzard-6A4131DD*%
G36*
X6484333Y11847778D02*
G01*
X6390198Y11847778D01*
X6437265Y11944916D01*
X6484333Y11847778D01*
G37*
G36*
X5781328Y12051819D02*
G01*
X5835406Y12015016D01*
X5872208Y11960939D01*
X5884476Y11896848D01*
X5872208Y11832881D01*
X5835406Y11779180D01*
X5781579Y11742753D01*
X5718238Y11730610D01*
X5637122Y11730610D01*
X5637122Y12064087D01*
X5717237Y12064087D01*
X5781328Y12051819D01*
G37*
G36*
X6629540Y12802892D02*
G01*
X6683617Y12766089D01*
X6720420Y12712012D01*
X6732687Y12647921D01*
X6720420Y12583954D01*
X6683617Y12530253D01*
X6629790Y12493825D01*
X6566450Y12481683D01*
X6485334Y12481683D01*
X6485334Y12815160D01*
X6565448Y12815160D01*
X6629540Y12802892D01*
G37*
G36*
X6999402Y10701807D02*
G01*
X6915949Y10701807D01*
X6656579Y10701807D01*
X6198925Y10701807D01*
X5802358Y10701807D01*
X5154433Y10701807D01*
X4894061Y10701807D01*
X4810608Y10701807D01*
X4810608Y10959509D01*
X4898067Y10959509D01*
X4923102Y10894416D01*
X4929111Y10887406D01*
X4940127Y10873386D01*
X4957652Y10855861D01*
X4981686Y10836333D01*
X5012730Y10817305D01*
X5051285Y10800782D01*
X5098353Y10789766D01*
X5154433Y10785260D01*
X5221028Y10792770D01*
X5289626Y10818307D01*
X5351214Y10862871D01*
X5394776Y10930467D01*
X5407544Y10973779D01*
X5411800Y11021597D01*
X5402412Y11096454D01*
X5374766Y11149780D01*
X5439840Y11149780D01*
X5446225Y11076926D01*
X5465377Y11010582D01*
X5494293Y10953124D01*
X5529969Y10906933D01*
X5571654Y10869380D01*
X5618596Y10837835D01*
X5667416Y10813425D01*
X5714733Y10797277D01*
X5759923Y10788264D01*
X5802358Y10785260D01*
X5867118Y10791491D01*
X5929206Y10810184D01*
X5988624Y10841340D01*
X6029683Y10871883D01*
X6043703Y10908436D01*
X6021672Y10966519D01*
X5985620Y11009330D01*
X5951572Y11023600D01*
X5901500Y11003572D01*
X5851178Y10978786D01*
X5798353Y10970524D01*
X5722244Y10986547D01*
X5686067Y11008954D01*
X5653646Y11044129D01*
X5630738Y11090070D01*
X5623102Y11144773D01*
X5627358Y11187334D01*
X5640127Y11224888D01*
X5684690Y11279466D01*
X5741271Y11309008D01*
X5798353Y11319022D01*
X5822387Y11318021D01*
X5842416Y11314516D01*
X5858438Y11310510D01*
X5871958Y11305503D01*
X5881471Y11299995D01*
X5889984Y11294487D01*
X5896493Y11289981D01*
X5950570Y11266948D01*
X5985119Y11280467D01*
X6022673Y11321025D01*
X6044705Y11377105D01*
X6035825Y11405145D01*
X6107795Y11405145D01*
X6107795Y10887406D01*
X6109297Y10852856D01*
X6118810Y10825317D01*
X6146850Y10802284D01*
X6198925Y10795274D01*
X6534404Y10795274D01*
X6562945Y10796776D01*
X6586979Y10805288D01*
X6606507Y10829323D01*
X6612516Y10873386D01*
X6606507Y10918450D01*
X6586979Y10941984D01*
X6563946Y10949995D01*
X6535406Y10951497D01*
X6291057Y10951497D01*
X6291057Y11404144D01*
X6289554Y11438693D01*
X6280041Y11466232D01*
X6252001Y11489265D01*
X6199926Y11496275D01*
X6146850Y11489265D01*
X6118810Y11466232D01*
X6109297Y11438693D01*
X6107795Y11405145D01*
X6035825Y11405145D01*
X6035191Y11407148D01*
X6016665Y11428178D01*
X5989626Y11447205D01*
X5926424Y11478361D01*
X5865003Y11497054D01*
X5805363Y11503285D01*
X5761175Y11500281D01*
X5714733Y11491268D01*
X5666665Y11475371D01*
X5617594Y11451712D01*
X5570652Y11421168D01*
X5544991Y11398666D01*
X5528968Y11384616D01*
X5493417Y11339677D01*
X5464876Y11283972D01*
X5446099Y11219881D01*
X5439840Y11149780D01*
X5374766Y11149780D01*
X5374247Y11150782D01*
X5330309Y11188836D01*
X5273603Y11214873D01*
X5209511Y11230396D01*
X5148424Y11242913D01*
X5108868Y11260439D01*
X5091343Y11292985D01*
X5107366Y11323529D01*
X5144418Y11336047D01*
X5177466Y11332542D01*
X5196994Y11325031D01*
X5211014Y11313514D01*
X5222530Y11304001D01*
X5289626Y11285474D01*
X5348710Y11334044D01*
X5372745Y11395632D01*
X5336693Y11447205D01*
X5284730Y11480586D01*
X5220972Y11500615D01*
X5154433Y11506495D01*
X5145420Y11507291D01*
X5081217Y11500559D01*
X5024803Y11480364D01*
X4976178Y11446705D01*
X4938903Y11402809D01*
X4916537Y11351902D01*
X4909082Y11293986D01*
X4917094Y11228893D01*
X4941128Y11174816D01*
X4981185Y11131755D01*
X5037265Y11099709D01*
X5075195Y11086064D01*
X5122888Y11073171D01*
X5201500Y11049637D01*
X5227537Y11018593D01*
X5209511Y10972026D01*
X5150427Y10957506D01*
X5110871Y10967019D01*
X5070313Y11003572D01*
X5025137Y11040068D01*
X4981742Y11046744D01*
X4940127Y11023600D01*
X4898067Y10959509D01*
X4810608Y10959509D01*
X4810608Y11710582D01*
X4898067Y11710582D01*
X4923102Y11645489D01*
X4929111Y11638479D01*
X4940127Y11624459D01*
X4957652Y11606933D01*
X4981686Y11587406D01*
X5012730Y11568378D01*
X5051285Y11551855D01*
X5098353Y11540839D01*
X5154433Y11536333D01*
X5221028Y11543843D01*
X5289626Y11569380D01*
X5351214Y11613944D01*
X5394776Y11681540D01*
X5407544Y11724852D01*
X5411800Y11772670D01*
X5402412Y11847527D01*
X5374247Y11901855D01*
X5330309Y11939909D01*
X5273603Y11965946D01*
X5209511Y11981469D01*
X5148424Y11993986D01*
X5108868Y12011511D01*
X5091343Y12044058D01*
X5107366Y12074602D01*
X5144418Y12087119D01*
X5177466Y12083614D01*
X5196994Y12076104D01*
X5211014Y12064587D01*
X5222530Y12055074D01*
X5289626Y12036547D01*
X5348710Y12085117D01*
X5372745Y12146705D01*
X5365395Y12157220D01*
X5453861Y12157220D01*
X5453861Y11639480D01*
X5456364Y11603929D01*
X5466879Y11575889D01*
X5494418Y11554358D01*
X5544991Y11547348D01*
X5715234Y11547348D01*
X5785647Y11553826D01*
X5850677Y11573260D01*
X5905312Y11602928D01*
X6089769Y11602928D01*
X6145849Y11554358D01*
X6218953Y11539838D01*
X6269025Y11595417D01*
X6315091Y11691554D01*
X6561443Y11691554D01*
X6607509Y11596418D01*
X6656579Y11538836D01*
X6730685Y11553357D01*
X6786264Y11602427D01*
X6772745Y11673529D01*
X6521386Y12193271D01*
X6487087Y12233829D01*
X6438267Y12247348D01*
X6393202Y12234013D01*
X6389197Y12232828D01*
X6354147Y12194273D01*
X6102788Y11673529D01*
X6089769Y11602928D01*
X5905312Y11602928D01*
X5910325Y11605650D01*
X5964590Y11650996D01*
X6009717Y11705481D01*
X6041951Y11765285D01*
X6061291Y11830409D01*
X6067737Y11900853D01*
X6061291Y11969451D01*
X6041951Y12033042D01*
X6009717Y12091626D01*
X5964590Y12145202D01*
X5910513Y12189891D01*
X5851428Y12221812D01*
X5787337Y12240964D01*
X5721242Y12247071D01*
X5718238Y12247348D01*
X5610084Y12247348D01*
X5545992Y12247348D01*
X5492916Y12240839D01*
X5464876Y12218307D01*
X5455363Y12190768D01*
X5453861Y12157220D01*
X5365395Y12157220D01*
X5336693Y12198278D01*
X5284730Y12231659D01*
X5270599Y12236098D01*
X5220972Y12251688D01*
X5145420Y12258364D01*
X5081217Y12251632D01*
X5024803Y12231437D01*
X4976178Y12197778D01*
X4938903Y12153882D01*
X4916537Y12102975D01*
X4909082Y12045059D01*
X4917094Y11979966D01*
X4941128Y11925889D01*
X4981185Y11882828D01*
X5037265Y11850782D01*
X5075195Y11837137D01*
X5122888Y11824244D01*
X5201500Y11800710D01*
X5227537Y11769666D01*
X5209511Y11723099D01*
X5150427Y11708579D01*
X5110871Y11718092D01*
X5070313Y11754645D01*
X5025137Y11791141D01*
X4981742Y11797817D01*
X4940127Y11774673D01*
X4898067Y11710582D01*
X4810608Y11710582D01*
X4810608Y12657935D01*
X4918095Y12657935D01*
X4924604Y12584518D01*
X4944132Y12516483D01*
X4976679Y12453831D01*
X5022244Y12396562D01*
X5076822Y12348806D01*
X5136407Y12314695D01*
X5200999Y12294228D01*
X5270599Y12287406D01*
X5347375Y12291745D01*
X5413469Y12304764D01*
X5468882Y12326461D01*
X5505685Y12349619D01*
X5533975Y12377034D01*
X5558009Y12434616D01*
X5558009Y12639909D01*
X5557509Y12664945D01*
X5553002Y12686976D01*
X5540985Y12707005D01*
X5517451Y12720024D01*
X5478896Y12727034D01*
X5303646Y12727034D01*
X5276607Y12725531D01*
X5254576Y12717520D01*
X5236049Y12693986D01*
X5230541Y12649923D01*
X5235549Y12604859D01*
X5252573Y12581325D01*
X5273603Y12573314D01*
X5300642Y12571812D01*
X5374747Y12571812D01*
X5374747Y12485689D01*
X5332187Y12475925D01*
X5274604Y12472670D01*
X5209762Y12486440D01*
X5153431Y12527749D01*
X5114376Y12587334D01*
X5101357Y12655932D01*
X5113875Y12722402D01*
X5151428Y12777606D01*
X5206758Y12814784D01*
X5272602Y12827177D01*
X5334440Y12820167D01*
X5385763Y12799137D01*
X5439840Y12776104D01*
X5476893Y12789373D01*
X5513946Y12829180D01*
X5536979Y12885260D01*
X5529106Y12909294D01*
X5631114Y12909294D01*
X5631114Y12389552D01*
X5633117Y12354501D01*
X5642630Y12326962D01*
X5669669Y12304430D01*
X5721242Y12297420D01*
X5774318Y12304430D01*
X5802358Y12326962D01*
X5811872Y12354001D01*
X5813374Y12388550D01*
X5813374Y12666948D01*
X6072745Y12324459D01*
X6102287Y12302928D01*
X6153861Y12297420D01*
X6206936Y12304430D01*
X6234976Y12326962D01*
X6244490Y12354001D01*
X6245992Y12388550D01*
X6245992Y12905288D01*
X6245861Y12908293D01*
X6302072Y12908293D01*
X6302072Y12390553D01*
X6304576Y12355002D01*
X6315091Y12326962D01*
X6342630Y12305431D01*
X6393202Y12298421D01*
X6563446Y12298421D01*
X6633859Y12304899D01*
X6698889Y12324333D01*
X6758537Y12356723D01*
X6812802Y12402069D01*
X6857929Y12456553D01*
X6890162Y12516358D01*
X6909502Y12581482D01*
X6915949Y12651926D01*
X6909502Y12720524D01*
X6890162Y12784115D01*
X6857929Y12842699D01*
X6812802Y12896275D01*
X6758725Y12940964D01*
X6699640Y12972885D01*
X6635549Y12992037D01*
X6566450Y12998421D01*
X6394204Y12998421D01*
X6341128Y12991912D01*
X6313088Y12969380D01*
X6303574Y12941841D01*
X6302072Y12908293D01*
X6245861Y12908293D01*
X6244490Y12939838D01*
X6234976Y12967377D01*
X6233975Y12968200D01*
X6206936Y12990410D01*
X6154862Y12997420D01*
X6102788Y12990410D01*
X6074747Y12968879D01*
X6064733Y12942341D01*
X6062730Y12909294D01*
X6062730Y12621883D01*
X5812373Y12958364D01*
X5794347Y12978893D01*
X5768810Y12991411D01*
X5723245Y12997420D01*
X5670670Y12990911D01*
X5643131Y12969380D01*
X5633117Y12942842D01*
X5631114Y12909294D01*
X5529106Y12909294D01*
X5527466Y12914301D01*
X5508939Y12935331D01*
X5480899Y12955360D01*
X5437963Y12978518D01*
X5385263Y12995918D01*
X5329558Y13006808D01*
X5277609Y13010439D01*
X5206163Y13003960D01*
X5140037Y12984526D01*
X5128396Y12978325D01*
X5079232Y12952136D01*
X5023746Y12906790D01*
X4977524Y12852369D01*
X4944508Y12792753D01*
X4924698Y12727941D01*
X4918095Y12657935D01*
X4810608Y12657935D01*
X4810608Y13312871D01*
X4897065Y13312871D01*
X4903074Y13264802D01*
X4922602Y13239766D01*
X4945634Y13231254D01*
X4974175Y13229752D01*
X5046278Y13229752D01*
X5046278Y13164659D01*
X5047780Y13134115D01*
X5056293Y13109079D01*
X5081328Y13088049D01*
X5128396Y13081540D01*
X5176464Y13088049D01*
X5201500Y13108579D01*
X5210012Y13133114D01*
X5211514Y13163657D01*
X5211514Y13166662D01*
X5378753Y13166662D01*
X5416808Y13105574D01*
X5437838Y13087549D01*
X5505935Y13052999D01*
X5556006Y13039856D01*
X5610084Y13035474D01*
X5675177Y13043430D01*
X5732926Y13067298D01*
X5783331Y13107077D01*
X5822276Y13158539D01*
X5845642Y13217456D01*
X5853431Y13283829D01*
X5845420Y13343414D01*
X5821386Y13397992D01*
X5781328Y13447563D01*
X5730700Y13486786D01*
X5674954Y13510319D01*
X5614089Y13518164D01*
X5609082Y13518164D01*
X5592058Y13516161D01*
X5599068Y13569237D01*
X5753288Y13569237D01*
X5785334Y13570739D01*
X5811371Y13579752D01*
X5832902Y13606290D01*
X5839411Y13656361D01*
X5834973Y13690911D01*
X5896493Y13690911D01*
X5906507Y13621311D01*
X6143846Y13099566D01*
X6177895Y13062012D01*
X6233975Y13049494D01*
X6285549Y13063014D01*
X6320098Y13099566D01*
X6557437Y13621311D01*
X6568953Y13690410D01*
X6511371Y13738479D01*
X6437265Y13752999D01*
X6390198Y13696418D01*
X6231972Y13306862D01*
X6073746Y13696418D01*
X6027680Y13753500D01*
X5952573Y13738479D01*
X5896493Y13690911D01*
X5834973Y13690911D01*
X5832401Y13710939D01*
X5809869Y13738979D01*
X5782830Y13748493D01*
X5748281Y13750496D01*
X5518953Y13751497D01*
X5471386Y13742484D01*
X5443345Y13715946D01*
X5431829Y13688407D01*
X5426822Y13660367D01*
X5389769Y13375961D01*
X5402287Y13346919D01*
X5446850Y13316876D01*
X5511943Y13296848D01*
X5568024Y13320882D01*
X5607079Y13334902D01*
X5651142Y13318378D01*
X5669168Y13276819D01*
X5652144Y13234759D01*
X5604075Y13219738D01*
X5545992Y13235760D01*
X5477895Y13268808D01*
X5415806Y13234759D01*
X5378753Y13166662D01*
X5211514Y13166662D01*
X5211514Y13229752D01*
X5282616Y13229752D01*
X5311157Y13231254D01*
X5334190Y13239766D01*
X5353717Y13264802D01*
X5359726Y13311869D01*
X5353217Y13360439D01*
X5332687Y13385975D01*
X5308152Y13394487D01*
X5277609Y13395989D01*
X5211514Y13395989D01*
X5211514Y13461082D01*
X5210012Y13491626D01*
X5201500Y13516161D01*
X5176464Y13536690D01*
X5129397Y13543200D01*
X5081328Y13537191D01*
X5056293Y13517162D01*
X5047780Y13492627D01*
X5046278Y13462084D01*
X5046278Y13395989D01*
X4981185Y13395989D01*
X4950141Y13394487D01*
X4924604Y13385975D01*
X4903574Y13360939D01*
X4897065Y13312871D01*
X4810608Y13312871D01*
X4810608Y13846967D01*
X4894061Y13846967D01*
X6915949Y13846967D01*
X6999402Y13846967D01*
X6999402Y10701807D01*
G37*
%TO.C,R29*%
D12*
X20460005Y10101363D02*
X20460005Y10408645D01*
X21220005Y10101363D02*
X21220005Y10408645D01*
%TO.C,C49*%
X20145003Y6491551D02*
X20145003Y6707223D01*
X20865003Y6491551D02*
X20865003Y6707223D01*
%TO.C,C1*%
X11720005Y2682836D02*
X11720005Y2467164D01*
X12440005Y2682836D02*
X12440005Y2467164D01*
%TO.C,R6*%
X7803641Y370000D02*
X7496359Y370000D01*
X7803641Y-390000D02*
X7496359Y-390000D01*
%TO.C,Q1*%
D16*
X2940000Y4772499D02*
X3940000Y4772499D01*
X2940000Y3252499D02*
X2940000Y4772499D01*
X2990000Y3252499D02*
X2940000Y3252499D01*
X4890000Y3252499D02*
X4110000Y3252499D01*
X5060000Y4772499D02*
X6060000Y4772499D01*
X6060000Y4772499D02*
X6060000Y3252499D01*
X6060000Y3252499D02*
X6010000Y3252499D01*
X4120000Y2712499D02*
X4450000Y2952499D01*
X4450000Y2472499D01*
X4120000Y2712499D01*
G36*
X4450000Y2472499D02*
G01*
X4120000Y2712499D01*
X4450000Y2952499D01*
X4450000Y2472499D01*
G37*
D13*
%TO.C,U20*%
G36*
X1583022Y9817870D02*
G01*
X1202022Y9563870D01*
X1202022Y10071870D01*
X1583022Y9817870D01*
G37*
%TO.C,C31*%
D12*
X5590005Y24550587D02*
X5590005Y24269425D01*
X6610005Y24550587D02*
X6610005Y24269425D01*
%TO.C,C36*%
X26057169Y19809387D02*
X26272841Y19809387D01*
X26057169Y19089387D02*
X26272841Y19089387D01*
%TO.C,C43*%
X11957836Y660000D02*
X11742164Y660000D01*
X11957836Y-60000D02*
X11742164Y-60000D01*
D13*
%TO.C,kibuzzard-6A40F422*%
G36*
X26813760Y23163371D02*
G01*
X26830356Y23115303D01*
X26809755Y23075818D01*
X26753675Y23061511D01*
X26705606Y23076962D01*
X26687294Y23117592D01*
X26704461Y23163944D01*
X26759397Y23178250D01*
X26813760Y23163371D01*
G37*
G36*
X27900456Y22279537D02*
G01*
X27962258Y22237477D01*
X28004318Y22175675D01*
X28018338Y22102427D01*
X28004318Y22029323D01*
X27962258Y21967949D01*
X27900742Y21926318D01*
X27828353Y21912441D01*
X27735649Y21912441D01*
X27735649Y22293557D01*
X27827208Y22293557D01*
X27900456Y22279537D01*
G37*
G36*
X28344900Y19876008D02*
G01*
X28249526Y19876008D01*
X28125921Y19876008D01*
X27102745Y19876008D01*
X26323345Y19876008D01*
X25920484Y19876008D01*
X25825110Y19876008D01*
X25825110Y20719308D01*
X25937652Y20719308D01*
X25949097Y20639766D01*
X26220341Y20043486D01*
X26259254Y20000567D01*
X26323345Y19986261D01*
X26382287Y20001712D01*
X26421772Y20043486D01*
X26693016Y20639766D01*
X26703126Y20700424D01*
X26754819Y20700424D01*
X26761686Y20648922D01*
X26783431Y20622026D01*
X26809182Y20612871D01*
X26841800Y20611154D01*
X27000885Y20611154D01*
X27000885Y20088121D01*
X27002602Y20049780D01*
X27012902Y20018879D01*
X27043803Y19993128D01*
X27102745Y19985117D01*
X27162258Y19993128D01*
X27194304Y20018307D01*
X27205177Y20048636D01*
X27206893Y20086976D01*
X27206893Y20611154D01*
X27364833Y20611154D01*
X27397451Y20612871D01*
X27423775Y20622026D01*
X27446092Y20648922D01*
X27450930Y20684401D01*
X27479855Y20684401D01*
X27518195Y20611154D01*
X27724204Y20385689D01*
X27519340Y20160224D01*
X27479855Y20086404D01*
X27525062Y20013729D01*
X27602888Y19973099D01*
X27672702Y20020596D01*
X27864976Y20231182D01*
X28056107Y20020596D01*
X28125921Y19973099D01*
X28203746Y20013729D01*
X28248953Y20086404D01*
X28209469Y20160224D01*
X28004604Y20385689D01*
X28210613Y20611154D01*
X28249526Y20684401D01*
X28204891Y20758793D01*
X28127065Y20799423D01*
X28057251Y20751926D01*
X27864976Y20540195D01*
X27721915Y20696801D01*
X27671557Y20751926D01*
X27601743Y20799423D01*
X27523918Y20758793D01*
X27479855Y20684401D01*
X27450930Y20684401D01*
X27452959Y20699280D01*
X27446092Y20749637D01*
X27424347Y20776533D01*
X27398596Y20785689D01*
X27365978Y20787406D01*
X27292730Y20787406D01*
X26842945Y20787406D01*
X26810327Y20785689D01*
X26784004Y20776533D01*
X26761686Y20750210D01*
X26754819Y20700424D01*
X26703126Y20700424D01*
X26706178Y20718736D01*
X26640370Y20773672D01*
X26555677Y20790267D01*
X26501886Y20725603D01*
X26321057Y20280396D01*
X26269554Y20407195D01*
X26140227Y20725603D01*
X26087580Y20790839D01*
X26001743Y20773672D01*
X25937652Y20719308D01*
X25825110Y20719308D01*
X25825110Y21558793D01*
X25921629Y21558793D01*
X25928496Y21507291D01*
X25950241Y21480396D01*
X25975992Y21471240D01*
X26008610Y21469523D01*
X26167695Y21469523D01*
X26167695Y20946490D01*
X26169411Y20908150D01*
X26179712Y20877248D01*
X26210613Y20851497D01*
X26269554Y20843486D01*
X26329068Y20851497D01*
X26361114Y20876676D01*
X26371986Y20907005D01*
X26373703Y20945346D01*
X26373703Y21469523D01*
X26531643Y21469523D01*
X26564261Y21471240D01*
X26590584Y21480396D01*
X26612902Y21507291D01*
X26617740Y21542770D01*
X26646665Y21542770D01*
X26685005Y21469523D01*
X26891014Y21244058D01*
X26686149Y21018593D01*
X26646665Y20944773D01*
X26691872Y20872098D01*
X26769697Y20831469D01*
X26839511Y20878965D01*
X27031786Y21089552D01*
X27222916Y20878965D01*
X27292730Y20831469D01*
X27370556Y20872098D01*
X27415763Y20944773D01*
X27376278Y21018593D01*
X27171414Y21244058D01*
X27317816Y21404287D01*
X27433503Y21404287D01*
X27468982Y21328750D01*
X27537079Y21288693D01*
X27607466Y21321883D01*
X27618911Y21332184D01*
X27618911Y20945346D01*
X27641800Y20864087D01*
X27721915Y20841197D01*
X27803174Y20864087D01*
X27826064Y20944201D01*
X27826064Y21539337D01*
X27803174Y21621168D01*
X27723059Y21644630D01*
X27645234Y21625174D01*
X27630356Y21613085D01*
X27626922Y21610295D01*
X27481572Y21479823D01*
X27480427Y21478548D01*
X27446665Y21440911D01*
X27433503Y21404287D01*
X27317816Y21404287D01*
X27377423Y21469523D01*
X27416335Y21542770D01*
X27371700Y21617162D01*
X27293875Y21657792D01*
X27224061Y21610295D01*
X27031786Y21398564D01*
X26862401Y21583986D01*
X26838367Y21610295D01*
X26768553Y21657792D01*
X26690727Y21617162D01*
X26646665Y21542770D01*
X26617740Y21542770D01*
X26619769Y21557649D01*
X26612902Y21608006D01*
X26591157Y21634902D01*
X26565406Y21644058D01*
X26532788Y21645775D01*
X26347380Y21645775D01*
X26009755Y21645775D01*
X25977137Y21644058D01*
X25950813Y21634902D01*
X25928496Y21608579D01*
X25921629Y21558793D01*
X25825110Y21558793D01*
X25825110Y22113872D01*
X25944519Y22113872D01*
X25951958Y22029966D01*
X25974275Y21952212D01*
X26011471Y21880610D01*
X26063546Y21815160D01*
X26125921Y21760582D01*
X26194018Y21721597D01*
X26267838Y21698207D01*
X26347380Y21690410D01*
X26435124Y21695369D01*
X26510661Y21710248D01*
X26573989Y21735045D01*
X26616049Y21761511D01*
X26648381Y21792842D01*
X26675849Y21858650D01*
X26675849Y22093271D01*
X26675277Y22121883D01*
X26670127Y22147062D01*
X26656393Y22169952D01*
X26629497Y22184830D01*
X26585434Y22192842D01*
X26385148Y22192842D01*
X26354247Y22191125D01*
X26329068Y22181969D01*
X26307895Y22155074D01*
X26301600Y22104716D01*
X26307323Y22053214D01*
X26326779Y22026318D01*
X26350813Y22017162D01*
X26381715Y22015446D01*
X26466407Y22015446D01*
X26466407Y21917019D01*
X26417766Y21905861D01*
X26351958Y21902141D01*
X26277852Y21917878D01*
X26213474Y21965088D01*
X26168839Y22033185D01*
X26153961Y22111583D01*
X26168267Y22187549D01*
X26211185Y22250639D01*
X26274418Y22293128D01*
X26349669Y22307291D01*
X26420341Y22299280D01*
X26478996Y22275245D01*
X26540799Y22248922D01*
X26583145Y22264087D01*
X26625491Y22309580D01*
X26651815Y22373672D01*
X26642817Y22401140D01*
X26759397Y22401140D01*
X26759397Y21807148D01*
X26761686Y21767091D01*
X26772559Y21735617D01*
X26803460Y21709866D01*
X26862401Y21701855D01*
X26923059Y21709866D01*
X26955105Y21735617D01*
X26965978Y21766519D01*
X26967695Y21806004D01*
X26967695Y22124172D01*
X27264118Y21732756D01*
X27297881Y21708150D01*
X27356822Y21701855D01*
X27417480Y21709866D01*
X27449526Y21735617D01*
X27460398Y21766519D01*
X27462115Y21806004D01*
X27462115Y22396562D01*
X27461966Y22399995D01*
X27526207Y22399995D01*
X27526207Y21808293D01*
X27529068Y21767663D01*
X27541085Y21735617D01*
X27572559Y21711011D01*
X27630356Y21702999D01*
X27824919Y21702999D01*
X27905391Y21710403D01*
X27979712Y21732613D01*
X28047881Y21769630D01*
X28109898Y21821454D01*
X28161471Y21883722D01*
X28198310Y21952069D01*
X28220413Y22026497D01*
X28227780Y22107005D01*
X28220413Y22185403D01*
X28198310Y22258078D01*
X28161471Y22325031D01*
X28109898Y22386261D01*
X28048095Y22437334D01*
X27980570Y22473815D01*
X27907323Y22495703D01*
X27828353Y22502999D01*
X27631500Y22502999D01*
X27570842Y22495560D01*
X27538796Y22469809D01*
X27527923Y22438335D01*
X27526207Y22399995D01*
X27461966Y22399995D01*
X27460398Y22436047D01*
X27449526Y22467520D01*
X27417480Y22493843D01*
X27357966Y22501855D01*
X27298453Y22493843D01*
X27266407Y22469237D01*
X27254962Y22438908D01*
X27252673Y22401140D01*
X27252673Y22072670D01*
X26966550Y22457220D01*
X26945949Y22480682D01*
X26916765Y22494988D01*
X26864690Y22501855D01*
X26804604Y22494416D01*
X26773131Y22469809D01*
X26761686Y22439480D01*
X26759397Y22401140D01*
X26642817Y22401140D01*
X26640942Y22406862D01*
X26619769Y22430896D01*
X26599168Y22445611D01*
X26587723Y22453786D01*
X26538653Y22480253D01*
X26478424Y22500138D01*
X26414762Y22512584D01*
X26355391Y22516733D01*
X26273739Y22509330D01*
X26198167Y22487119D01*
X26184862Y22480032D01*
X26128675Y22450102D01*
X26065263Y22398278D01*
X26012437Y22336082D01*
X25974705Y22267949D01*
X25952065Y22193879D01*
X25944519Y22113872D01*
X25825110Y22113872D01*
X25825110Y22862370D01*
X25920484Y22862370D01*
X25927351Y22807434D01*
X25949669Y22778822D01*
X25975992Y22769094D01*
X26008610Y22767377D01*
X26091014Y22767377D01*
X26091014Y22692985D01*
X26092730Y22658078D01*
X26102459Y22629466D01*
X26131071Y22605431D01*
X26184862Y22597992D01*
X26239798Y22605431D01*
X26268410Y22628893D01*
X26278138Y22656933D01*
X26279855Y22691841D01*
X26279855Y22767377D01*
X26361114Y22767377D01*
X26393732Y22769094D01*
X26420055Y22778822D01*
X26442373Y22807434D01*
X26449240Y22861225D01*
X26441800Y22916733D01*
X26418338Y22945918D01*
X26390298Y22955646D01*
X26355391Y22957363D01*
X26279855Y22957363D01*
X26279855Y23031755D01*
X26278138Y23066662D01*
X26268410Y23094702D01*
X26248870Y23110725D01*
X26481285Y23110725D01*
X26490123Y23050067D01*
X26516637Y22994749D01*
X26560828Y22944773D01*
X26616844Y22905352D01*
X26678837Y22881699D01*
X26746808Y22873815D01*
X26807466Y22884115D01*
X26760414Y22819896D01*
X26694034Y22781365D01*
X26608324Y22768521D01*
X26568267Y22766805D01*
X26536221Y22755932D01*
X26509898Y22723886D01*
X26501886Y22664373D01*
X26509325Y22604859D01*
X26533360Y22572813D01*
X26563117Y22561368D01*
X26599168Y22559079D01*
X26676582Y22564436D01*
X26747677Y22580504D01*
X26812456Y22607285D01*
X26870916Y22644779D01*
X26923059Y22692985D01*
X26967145Y22749935D01*
X27001434Y22813660D01*
X27025926Y22884161D01*
X27040622Y22961437D01*
X27045520Y23045489D01*
X27036936Y23140418D01*
X27011185Y23220723D01*
X26968267Y23286404D01*
X26958705Y23294416D01*
X27094733Y23294416D01*
X27106178Y23214873D01*
X27377423Y22618593D01*
X27416335Y22575675D01*
X27480427Y22561368D01*
X27539368Y22576819D01*
X27578853Y22618593D01*
X27850098Y23214873D01*
X27863260Y23293843D01*
X27797451Y23348779D01*
X27712759Y23365374D01*
X27658968Y23300710D01*
X27478138Y22855503D01*
X27297308Y23300710D01*
X27244662Y23365946D01*
X27158825Y23348779D01*
X27094733Y23294416D01*
X26958705Y23294416D01*
X26910216Y23335045D01*
X26839066Y23364230D01*
X26754819Y23373958D01*
X26681826Y23365501D01*
X26616971Y23340132D01*
X26560255Y23297849D01*
X26516383Y23243231D01*
X26490060Y23180857D01*
X26481285Y23110725D01*
X26248870Y23110725D01*
X26239798Y23118164D01*
X26186006Y23125603D01*
X26131071Y23118736D01*
X26102459Y23095846D01*
X26092730Y23067806D01*
X26091014Y23032899D01*
X26091014Y22957363D01*
X26016622Y22957363D01*
X25981142Y22955646D01*
X25951958Y22945918D01*
X25927923Y22917305D01*
X25920484Y22862370D01*
X25825110Y22862370D01*
X25825110Y23472766D01*
X25920484Y23472766D01*
X28249526Y23472766D01*
X28344900Y23472766D01*
X28344900Y19876008D01*
G37*
%TO.C,kibuzzard-6A40F56A*%
G36*
X22488095Y27963972D02*
G01*
X22518853Y27889580D01*
X22485949Y27810896D01*
X22417280Y27785145D01*
X22259912Y27785145D01*
X22259912Y27994015D01*
X22414418Y27994015D01*
X22488095Y27963972D01*
G37*
G36*
X26107313Y27118002D02*
G01*
X25988095Y27118002D01*
X25657623Y27118002D01*
X24849325Y27118002D01*
X23686235Y27118002D01*
X22626149Y27118002D01*
X21440170Y27118002D01*
X20073932Y27118002D01*
X19181228Y27118002D01*
X18269926Y27118002D01*
X17661915Y27118002D01*
X17542697Y27118002D01*
X17542697Y27667835D01*
X17661915Y27667835D01*
X17664061Y27618479D01*
X17677652Y27579137D01*
X17717709Y27546232D01*
X17792101Y27536218D01*
X18139740Y27536218D01*
X18139740Y27387434D01*
X18141886Y27338078D01*
X18155477Y27298736D01*
X18195534Y27265832D01*
X18269926Y27255818D01*
X18345749Y27265832D01*
X18385806Y27297305D01*
X18400112Y27336647D01*
X18402974Y27386004D01*
X18402974Y27557677D01*
X18799254Y27557677D01*
X18811971Y27476212D01*
X18850120Y27401581D01*
X18913703Y27333786D01*
X18994294Y27280138D01*
X19083469Y27247949D01*
X19181228Y27237220D01*
X19286378Y27247949D01*
X19378653Y27280138D01*
X19458052Y27333786D01*
X19518853Y27403807D01*
X19555334Y27485113D01*
X19567494Y27577706D01*
X19557838Y27646376D01*
X19528868Y27703600D01*
X19448753Y27780853D01*
X19522788Y27852026D01*
X19533990Y27899594D01*
X19943746Y27899594D01*
X19945892Y27850238D01*
X19959483Y27810896D01*
X19999540Y27777992D01*
X20073932Y27767978D01*
X20149755Y27777277D01*
X20189812Y27807320D01*
X20203403Y27843800D01*
X20205549Y27889580D01*
X20233446Y27978636D01*
X20317137Y28008321D01*
X20389383Y27989008D01*
X20420856Y27951812D01*
X20425863Y27913901D01*
X20413167Y27858822D01*
X20375077Y27805174D01*
X20320534Y27756533D01*
X20258481Y27716476D01*
X20189454Y27676240D01*
X20113989Y27627062D01*
X20044962Y27574308D01*
X19995248Y27523343D01*
X19956622Y27457177D01*
X19943746Y27384573D01*
X19982373Y27290868D01*
X20073932Y27251526D01*
X20590384Y27251526D01*
X20639740Y27254387D01*
X20680513Y27268693D01*
X20713417Y27308035D01*
X20723431Y27381712D01*
X20713417Y27457534D01*
X20681228Y27497592D01*
X20642602Y27511898D01*
X20593245Y27514759D01*
X20414418Y27514759D01*
X20500255Y27565546D01*
X20587523Y27640653D01*
X20628832Y27691440D01*
X20661200Y27752241D01*
X20682122Y27820195D01*
X20689097Y27892441D01*
X20681467Y27955388D01*
X21079654Y27955388D01*
X21124004Y27860968D01*
X21209125Y27810896D01*
X21297108Y27852384D01*
X21311414Y27865260D01*
X21311414Y27381712D01*
X21340026Y27280138D01*
X21440170Y27251526D01*
X21541743Y27280138D01*
X21570356Y27380281D01*
X21570356Y28124201D01*
X21569956Y28125632D01*
X21998109Y28125632D01*
X21998109Y27387434D01*
X22000255Y27338078D01*
X22013846Y27298736D01*
X22053903Y27265832D01*
X22128295Y27255818D01*
X22204118Y27265832D01*
X22244175Y27298021D01*
X22257766Y27336647D01*
X22259912Y27386004D01*
X22259912Y27524773D01*
X22392959Y27524773D01*
X22546035Y27317334D01*
X22626149Y27250810D01*
X22727723Y27290152D01*
X22796393Y27374559D01*
X22757766Y27473271D01*
X22654762Y27610610D01*
X22724703Y27688499D01*
X22757511Y27760825D01*
X23168353Y27760825D01*
X23177473Y27656748D01*
X23204833Y27561969D01*
X23246142Y27479888D01*
X23297108Y27413901D01*
X23356657Y27360253D01*
X23423717Y27315188D01*
X23493460Y27280317D01*
X23561057Y27257248D01*
X23625613Y27244373D01*
X23686235Y27240081D01*
X23778748Y27248982D01*
X23867447Y27275687D01*
X23952330Y27320195D01*
X24010985Y27363829D01*
X24031014Y27416047D01*
X23999540Y27499022D01*
X23948038Y27560181D01*
X23899397Y27580567D01*
X23827866Y27551955D01*
X23755978Y27516547D01*
X23680513Y27504745D01*
X23571786Y27527634D01*
X23520105Y27559645D01*
X23473789Y27609895D01*
X23462732Y27632069D01*
X25327151Y27632069D01*
X25335735Y27563400D01*
X25363632Y27527634D01*
X25396536Y27515474D01*
X25437308Y27513328D01*
X25540313Y27513328D01*
X25540313Y27420338D01*
X25542459Y27376705D01*
X25554619Y27340939D01*
X25590384Y27310896D01*
X25657623Y27301597D01*
X25726293Y27310896D01*
X25762058Y27340224D01*
X25774218Y27375274D01*
X25776364Y27418908D01*
X25776364Y27513328D01*
X25877938Y27513328D01*
X25918710Y27515474D01*
X25951614Y27527634D01*
X25979511Y27563400D01*
X25988095Y27630639D01*
X25978796Y27700024D01*
X25949469Y27736504D01*
X25914418Y27748665D01*
X25870785Y27750810D01*
X25776364Y27750810D01*
X25776364Y27843800D01*
X25774218Y27887434D01*
X25762058Y27922484D01*
X25726293Y27951812D01*
X25659054Y27961111D01*
X25590384Y27952527D01*
X25554619Y27923915D01*
X25542459Y27888865D01*
X25540313Y27845231D01*
X25540313Y27750810D01*
X25447323Y27750810D01*
X25402974Y27748665D01*
X25366493Y27736504D01*
X25336450Y27700739D01*
X25327151Y27632069D01*
X23462732Y27632069D01*
X23441064Y27675524D01*
X23430155Y27753672D01*
X23436235Y27814473D01*
X23444261Y27838078D01*
X24405835Y27838078D01*
X24412988Y27772270D01*
X24444819Y27735789D01*
X24508839Y27723629D01*
X24849325Y27723629D01*
X24920856Y27736504D01*
X24945892Y27771554D01*
X24953760Y27836647D01*
X24945177Y27902456D01*
X24914418Y27937863D01*
X24850756Y27949666D01*
X24510270Y27949666D01*
X24441600Y27936790D01*
X24414418Y27902456D01*
X24405835Y27838078D01*
X23444261Y27838078D01*
X23454476Y27868121D01*
X23518138Y27946089D01*
X23598968Y27988293D01*
X23680513Y28002599D01*
X23714848Y28001168D01*
X23743460Y27996161D01*
X23766350Y27990439D01*
X23785663Y27983285D01*
X23799254Y27975417D01*
X23811414Y27967549D01*
X23820713Y27961111D01*
X23897966Y27928207D01*
X23947323Y27947520D01*
X24000971Y28005460D01*
X24032444Y28085574D01*
X24018853Y28128493D01*
X23992387Y28158536D01*
X23953760Y28185717D01*
X23863473Y28230225D01*
X23775728Y28256930D01*
X23690527Y28265832D01*
X23627401Y28261540D01*
X23561057Y28248665D01*
X23492387Y28225954D01*
X23422287Y28192155D01*
X23355227Y28148521D01*
X23295677Y28096304D01*
X23244891Y28032105D01*
X23204118Y27952527D01*
X23177294Y27860968D01*
X23168353Y27760825D01*
X22757511Y27760825D01*
X22766668Y27781012D01*
X22780656Y27888150D01*
X22771715Y27973092D01*
X22744891Y28050524D01*
X22703939Y28116511D01*
X22652616Y28167119D01*
X22595034Y28205031D01*
X22535305Y28232928D01*
X22475398Y28250095D01*
X22417280Y28255818D01*
X22129726Y28255818D01*
X22053903Y28245803D01*
X22013846Y28212899D01*
X22000255Y28173557D01*
X21998109Y28125632D01*
X21569956Y28125632D01*
X21541743Y28226490D01*
X21441600Y28255818D01*
X21344318Y28231497D01*
X21321428Y28212899D01*
X21139740Y28049809D01*
X21096107Y28001168D01*
X21079654Y27955388D01*
X20681467Y27955388D01*
X20677016Y27992108D01*
X20640774Y28081283D01*
X20580370Y28159966D01*
X20502640Y28221165D01*
X20414418Y28257884D01*
X20315706Y28270124D01*
X20212066Y28257407D01*
X20122414Y28219257D01*
X20046750Y28155675D01*
X19989526Y28076355D01*
X19955191Y27990995D01*
X19943746Y27899594D01*
X19533990Y27899594D01*
X19547466Y27956819D01*
X19536418Y28033595D01*
X19503276Y28105603D01*
X19448038Y28172842D01*
X19374202Y28226887D01*
X19285266Y28259315D01*
X19181228Y28270124D01*
X19101829Y28263686D01*
X19036021Y28246519D01*
X18983088Y28221483D01*
X18940885Y28192155D01*
X18909411Y28161397D01*
X18886521Y28132785D01*
X18872215Y28109180D01*
X18864347Y28093443D01*
X18862201Y28088436D01*
X18841457Y27989723D01*
X18912273Y27911039D01*
X18988890Y27885447D01*
X19048976Y27902138D01*
X19092530Y27961111D01*
X19134018Y28004029D01*
X19195534Y28018335D01*
X19260627Y28000453D01*
X19284232Y27951097D01*
X19263489Y27914616D01*
X19196965Y27905317D01*
X19186951Y27905317D01*
X19141171Y27903171D01*
X19104690Y27891011D01*
X19074647Y27853815D01*
X19065348Y27782284D01*
X19073932Y27719337D01*
X19091099Y27682141D01*
X19123288Y27664258D01*
X19156192Y27657820D01*
X19195534Y27657820D01*
X19278152Y27637077D01*
X19305692Y27574845D01*
X19272072Y27515474D01*
X19182659Y27493300D01*
X19131872Y27501168D01*
X19097537Y27518335D01*
X19076078Y27539795D01*
X19065348Y27556962D01*
X19062487Y27564830D01*
X19020999Y27632069D01*
X18942315Y27647806D01*
X18835019Y27625274D01*
X18799254Y27557677D01*
X18402974Y27557677D01*
X18402974Y28125632D01*
X18400112Y28174273D01*
X18386521Y28214330D01*
X18347180Y28247234D01*
X18272788Y28257248D01*
X18196250Y28247949D01*
X18155477Y28217191D01*
X18141886Y28179995D01*
X18139740Y28132785D01*
X18139740Y27782284D01*
X17952330Y27782284D01*
X18041028Y28147091D01*
X18020999Y28210038D01*
X17938024Y28251526D01*
X17830012Y28252956D01*
X17776364Y28158536D01*
X17666207Y27713614D01*
X17661915Y27667835D01*
X17542697Y27667835D01*
X17542697Y28390772D01*
X17661915Y28390772D01*
X25988095Y28390772D01*
X26107313Y28390772D01*
X26107313Y27118002D01*
G37*
%TO.C,U17*%
D12*
X20920005Y4190004D02*
X20920005Y4600004D01*
X20930005Y7400004D02*
X21340005Y7400004D01*
X20930005Y6990004D02*
X20930005Y7400004D01*
X21330005Y4190004D02*
X20920005Y4190004D01*
X23720005Y7390004D02*
X24130005Y7390004D01*
X24130005Y7390004D02*
X24130005Y6980004D01*
X24130005Y4590004D02*
X24130005Y4180004D01*
X24130005Y4180004D02*
X23720005Y4180004D01*
X20830005Y6590004D02*
G75*
G02*
X20829980Y6592433I-120000J-20D01*
G01*
X21060005Y7290004D02*
G75*
G02*
X21000005Y7290004I-30000J0D01*
G01*
X21000005Y7290004D02*
G75*
G02*
X21060005Y7290004I30000J0D01*
G01*
%TO.C,U16*%
X21300005Y11090004D02*
X21300005Y8890004D01*
X21360004Y11090004D02*
X21300005Y11090004D01*
X21360004Y8890004D02*
X21300005Y8890004D01*
X24100005Y11090004D02*
X24040006Y11090004D01*
X24100005Y11090004D02*
X24100005Y8890004D01*
X24100005Y8890004D02*
X24040006Y8890004D01*
X23800005Y8690004D02*
G75*
G02*
X23600005Y8690004I-100000J0D01*
G01*
X23600005Y8690004D02*
G75*
G02*
X23800005Y8690004I100000J0D01*
G01*
X23980005Y8990004D02*
G75*
G02*
X23920005Y8990004I-30000J0D01*
G01*
X23920005Y8990004D02*
G75*
G02*
X23980005Y8990004I30000J0D01*
G01*
%TO.C,C26*%
X13792841Y30330000D02*
X13577169Y30330000D01*
X13792841Y29610000D02*
X13577169Y29610000D01*
%TO.C,C32*%
X15812504Y25319423D02*
X15812504Y25600585D01*
X16832504Y25319423D02*
X16832504Y25600585D01*
%TO.C,R25*%
X19420000Y10353641D02*
X19420000Y10046359D01*
X20180000Y10353641D02*
X20180000Y10046359D01*
%TO.C,D2*%
X33482505Y28149387D02*
X27972505Y28149387D01*
X33482505Y24849387D02*
X27972505Y24849387D01*
X33482505Y24849387D02*
X33482505Y28149387D01*
%TO.C,USB1*%
X-3672495Y27560004D02*
X-3672495Y18620004D01*
X-3672495Y27560004D02*
X-2882495Y27560004D01*
X-3672495Y18620004D02*
X-2882495Y18620004D01*
X-252495Y27560004D02*
X1317505Y27560004D01*
X-252495Y18620004D02*
X1317505Y18620004D01*
%TO.C,Y2*%
D16*
X17725345Y18488022D02*
X17725345Y17778022D01*
X18335345Y18488022D02*
X17725345Y18488022D01*
%TD*%
%LPC*%
D17*
X24017349Y21076464D02*
X23260849Y19815630D01*
X24773850Y19815630D01*
X24017349Y21076464D01*
G36*
X24773850Y19815630D02*
G01*
X23260849Y19815630D01*
X24017349Y21076464D01*
X24773850Y19815630D01*
G37*
D18*
%TO.C,R4*%
X8159999Y-1910002D03*
X7140001Y-1910002D03*
%TD*%
D19*
%TO.C,U13*%
X29400005Y5290004D03*
X29400005Y6290004D03*
X29400005Y7290004D03*
X29400005Y8290004D03*
D20*
X32800005Y9390004D03*
X32800005Y4190004D03*
%TD*%
D21*
%TO.C,D1*%
X10470000Y-1710000D03*
D22*
X10520000Y-990000D03*
D21*
X10470000Y-270000D03*
X9070000Y-1710000D03*
D22*
X9020000Y-990000D03*
D21*
X9070000Y-270000D03*
%TD*%
D23*
%TO.C,C51*%
X24655005Y5505003D03*
X24655005Y4545003D03*
%TD*%
D24*
%TO.C,U18*%
X1075000Y15815000D03*
X1075000Y14815000D03*
X1075000Y13815000D03*
X1075000Y12815000D03*
D25*
X-2325000Y11715000D03*
X-2325000Y16915000D03*
%TD*%
D19*
%TO.C,U10*%
X29400005Y19735004D03*
X29400005Y20735004D03*
X29400005Y21735004D03*
X29400005Y22735004D03*
D20*
X32800005Y23835004D03*
X32800005Y18635004D03*
%TD*%
D26*
%TO.C,C44*%
X20210005Y-1149996D03*
X21170005Y-1149996D03*
%TD*%
D27*
%TO.C,R31*%
X2810005Y15159386D03*
X2810005Y14139388D03*
%TD*%
D18*
%TO.C,R5*%
X8159999Y-970001D03*
X7140001Y-970001D03*
%TD*%
D26*
%TO.C,C38*%
X25885005Y15984387D03*
X26845005Y15984387D03*
%TD*%
D28*
%TO.C,C50*%
X22280005Y11640004D03*
X21320005Y11640004D03*
%TD*%
D26*
%TO.C,C34*%
X20710005Y19784387D03*
X21670005Y19784387D03*
%TD*%
D18*
%TO.C,R27*%
X17290004Y-625613D03*
X16270006Y-625613D03*
%TD*%
D29*
%TO.C,D4*%
X10140005Y28360004D03*
X6840005Y28360004D03*
%TD*%
D30*
%TO.C,Y1*%
X8475000Y2700000D03*
X9675000Y2700000D03*
X10875000Y2700000D03*
%TD*%
D31*
%TO.C,R19*%
X11270005Y23270005D03*
X11270005Y24290003D03*
%TD*%
D18*
%TO.C,R24*%
X28010005Y8269387D03*
X26990007Y8269387D03*
%TD*%
D32*
%TO.C,C30*%
X12493755Y23355004D03*
X14043755Y23355004D03*
%TD*%
D26*
%TO.C,C35*%
X25690005Y17439387D03*
X26650005Y17439387D03*
%TD*%
D28*
%TO.C,C48*%
X24110005Y11640004D03*
X23150005Y11640004D03*
%TD*%
D31*
%TO.C,R22*%
X27710005Y18464388D03*
X27710005Y19484386D03*
%TD*%
D33*
%TO.C,C29*%
X9942505Y26435006D03*
X8392505Y26435006D03*
%TD*%
D31*
%TO.C,R23*%
X27990005Y14194388D03*
X27990005Y15214386D03*
%TD*%
D18*
%TO.C,R3*%
X5109999Y250000D03*
X4090001Y250000D03*
%TD*%
D28*
%TO.C,C45*%
X12330000Y-669996D03*
X11370000Y-669996D03*
%TD*%
D34*
%TO.C,U9*%
X21480005Y18450004D03*
X21480005Y17800004D03*
X21480005Y17150004D03*
X21480005Y16500004D03*
X21480005Y15850004D03*
X21480005Y15200004D03*
X21480005Y14550004D03*
X21480005Y13900004D03*
X24640005Y13900004D03*
X24640005Y14550004D03*
X24640005Y15200004D03*
X24640005Y15850004D03*
X24640005Y16500004D03*
X24640005Y17150004D03*
X24640005Y17800004D03*
X24640005Y18450004D03*
D35*
X23060005Y17350004D03*
X23060005Y14350005D03*
%TD*%
D27*
%TO.C,R20*%
X11250005Y26690003D03*
X11250005Y25670005D03*
%TD*%
D36*
%TO.C,U22*%
X25260005Y29410004D03*
X24260005Y29410004D03*
X23260005Y29410004D03*
X22260005Y29410004D03*
X21260005Y29410004D03*
X20260005Y29410004D03*
X19260005Y29410004D03*
X18260005Y29410004D03*
D37*
X17160005Y32810004D03*
X26360005Y32810004D03*
%TD*%
D38*
%TO.C,J1*%
X6972505Y18150000D03*
X8072505Y18150000D03*
X9162505Y18150000D03*
X10262505Y18150000D03*
X11372505Y18150000D03*
X12472505Y18150000D03*
X13562505Y18150000D03*
X14672505Y18150000D03*
D39*
X16162505Y20650000D03*
D40*
X5272505Y19900000D03*
%TD*%
D31*
%TO.C,R30*%
X2825000Y12250000D03*
X2825000Y13269998D03*
%TD*%
D41*
%TO.C,D3*%
X11587504Y28360004D03*
X14887504Y28360004D03*
%TD*%
D27*
%TO.C,R26*%
X18850005Y10429386D03*
X18850005Y9409388D03*
%TD*%
D42*
%TO.C,U14*%
X14930006Y1170004D03*
X14430005Y1170004D03*
X13930005Y1170004D03*
X13430004Y1170004D03*
D43*
X13170005Y410004D03*
X13170005Y-89996D03*
X13170005Y-589996D03*
D42*
X13430004Y-1349996D03*
X13930005Y-1349996D03*
X14430005Y-1349996D03*
X14930006Y-1349996D03*
D43*
X15190005Y-589996D03*
X15190005Y-89996D03*
X15190005Y410004D03*
%TD*%
D44*
%TO.C,C52*%
X2960005Y9029388D03*
X2960005Y10929386D03*
%TD*%
D26*
%TO.C,C37*%
X25690005Y18369387D03*
X26650005Y18369387D03*
%TD*%
D18*
%TO.C,R11*%
X23875005Y25959387D03*
X22855007Y25959387D03*
%TD*%
%TO.C,R10*%
X25760004Y25965005D03*
X24740006Y25965005D03*
%TD*%
D45*
%TO.C,R21*%
X18790006Y11599387D03*
X19810004Y11599387D03*
%TD*%
D46*
%TO.C,U6*%
X7332505Y25170006D03*
X7332505Y24530006D03*
X7332505Y23870006D03*
X7332505Y23230006D03*
X10152505Y23230006D03*
X10152505Y23870006D03*
X10152505Y24530006D03*
X10152505Y25170006D03*
D47*
X8742505Y24200006D03*
%TD*%
D26*
%TO.C,C47*%
X23275005Y7900004D03*
X24235005Y7900004D03*
%TD*%
D46*
%TO.C,U7*%
X14990005Y24670004D03*
X14990005Y25310004D03*
X14990005Y25970004D03*
X14990005Y26610004D03*
X12170005Y26610004D03*
X12170005Y25970004D03*
X12170005Y25310004D03*
X12170005Y24670004D03*
D47*
X13580005Y25640004D03*
%TD*%
D48*
%TO.C,SW2*%
X5600000Y-2500000D03*
X2600000Y-2500000D03*
X5600000Y-700000D03*
X2600000Y-700000D03*
%TD*%
D28*
%TO.C,C17*%
X23820005Y25024387D03*
X22860005Y25024387D03*
%TD*%
D23*
%TO.C,C33*%
X25900005Y14924387D03*
X25900005Y13964387D03*
%TD*%
D49*
%TO.C,U2*%
X7680005Y4899387D03*
X7680006Y5699387D03*
X7680005Y6499387D03*
X7680005Y7299386D03*
X7680005Y8099387D03*
X7680005Y8899387D03*
X7680005Y9699388D03*
X7680005Y10499387D03*
X7680006Y11299387D03*
X7680005Y12099387D03*
X8480005Y4899388D03*
X8480005Y5699387D03*
X8480005Y6499386D03*
X8480005Y7299387D03*
X8480005Y8099387D03*
X8480005Y8899387D03*
X8480005Y9699387D03*
X8480005Y10499388D03*
X8480005Y11299387D03*
X8480005Y12099386D03*
X9280005Y4899387D03*
X9280004Y5699387D03*
X9280005Y6499387D03*
X9280005Y7299386D03*
X9280005Y8099387D03*
X9280005Y8899387D03*
X9280005Y9699388D03*
X9280005Y10499387D03*
X9280004Y11299387D03*
X9280005Y12099387D03*
X10080004Y4899387D03*
X10080005Y5699387D03*
X10080004Y6499387D03*
X10080005Y7299387D03*
X10080005Y8099387D03*
X10080005Y8899387D03*
X10080005Y9699387D03*
X10080004Y10499387D03*
X10080005Y11299387D03*
X10080004Y12099387D03*
X10880005Y4899387D03*
X10880005Y5699387D03*
X10880005Y6499387D03*
X10880005Y7299387D03*
X10880005Y8099387D03*
X10880005Y8899387D03*
X10880005Y9699387D03*
X10880005Y10499387D03*
X10880005Y11299387D03*
X10880005Y12099387D03*
X11680005Y4899387D03*
X11680005Y5699387D03*
X11680005Y6499387D03*
X11680005Y7299387D03*
X11680005Y8099387D03*
X11680005Y8899387D03*
X11680005Y9699387D03*
X11680005Y10499387D03*
X11680005Y11299387D03*
X11680005Y12099387D03*
X12480006Y4899387D03*
X12480005Y5699387D03*
X12480006Y6499387D03*
X12480005Y7299387D03*
X12480005Y8099387D03*
X12480005Y8899387D03*
X12480005Y9699387D03*
X12480006Y10499387D03*
X12480005Y11299387D03*
X12480006Y12099387D03*
X13280005Y4899387D03*
X13280006Y5699387D03*
X13280005Y6499387D03*
X13280005Y7299386D03*
X13280005Y8099387D03*
X13280005Y8899387D03*
X13280005Y9699388D03*
X13280005Y10499387D03*
X13280006Y11299387D03*
X13280005Y12099387D03*
X14080005Y4899388D03*
X14080005Y5699387D03*
X14080005Y6499386D03*
X14080005Y7299387D03*
X14080005Y8099387D03*
X14080005Y8899387D03*
X14080005Y9699387D03*
X14080005Y10499388D03*
X14080005Y11299387D03*
X14080005Y12099386D03*
X14880005Y4899387D03*
X14880004Y5699387D03*
X14880005Y6499387D03*
X14880005Y7299386D03*
X14880005Y8099387D03*
X14880005Y8899387D03*
X14880005Y9699388D03*
X14880005Y10499387D03*
X14880004Y11299387D03*
X14880005Y12099387D03*
%TD*%
D43*
%TO.C,U15*%
X19800005Y1600004D03*
X19800005Y1100004D03*
X19800005Y600004D03*
X19800005Y100004D03*
D42*
X20560005Y-159996D03*
X21060005Y-159996D03*
X21560005Y-159996D03*
D43*
X22320005Y100004D03*
X22320005Y600004D03*
X22320005Y1100004D03*
X22320005Y1600004D03*
D42*
X21560005Y1860004D03*
X21060005Y1860004D03*
X20560005Y1860004D03*
%TD*%
D50*
%TO.C,C42*%
X24180005Y119387D03*
X24180005Y1079387D03*
%TD*%
D18*
%TO.C,R28*%
X22745004Y2854387D03*
X21725006Y2854387D03*
%TD*%
D19*
%TO.C,U11*%
X29400006Y14040004D03*
X29400006Y15040004D03*
X29400006Y16040004D03*
D51*
X32800006Y12940004D03*
X32800006Y17140004D03*
%TD*%
D28*
%TO.C,C46*%
X23000005Y-1149996D03*
X22040005Y-1149996D03*
%TD*%
%TO.C,C41*%
X12330000Y-1609996D03*
X11370000Y-1609996D03*
%TD*%
D31*
%TO.C,R29*%
X20840005Y9745005D03*
X20840005Y10765003D03*
%TD*%
D50*
%TO.C,C49*%
X20505003Y6119387D03*
X20505003Y7079387D03*
%TD*%
D23*
%TO.C,C1*%
X12080005Y3055000D03*
X12080005Y2095000D03*
%TD*%
D18*
%TO.C,R6*%
X8159999Y-10000D03*
X7140001Y-10000D03*
%TD*%
D52*
%TO.C,Q1*%
X3550000Y3074999D03*
X5450000Y3074999D03*
X4500000Y4949999D03*
%TD*%
D24*
%TO.C,U20*%
X1075000Y9040000D03*
X1075000Y8040000D03*
X1075000Y7040000D03*
X1075000Y6040000D03*
X1075000Y5040000D03*
X1075000Y4040000D03*
D53*
X-2325000Y2940000D03*
X-2325000Y10140000D03*
%TD*%
D54*
%TO.C,C31*%
X6100005Y25185006D03*
X6100005Y23635006D03*
%TD*%
D26*
%TO.C,C36*%
X25685005Y19449387D03*
X26645005Y19449387D03*
%TD*%
D28*
%TO.C,C43*%
X12330000Y300000D03*
X11370000Y300000D03*
%TD*%
D55*
%TO.C,U17*%
X21270005Y6540005D03*
X21270005Y6040004D03*
X21270005Y5540004D03*
X21270005Y5040003D03*
D56*
X21780004Y4530004D03*
X22280005Y4530004D03*
X22780005Y4530004D03*
X23280006Y4530004D03*
D55*
X23790005Y5040003D03*
X23790005Y5540004D03*
X23790005Y6040004D03*
X23790005Y6540005D03*
D56*
X23280006Y7050004D03*
X22780005Y7050004D03*
X22280005Y7050004D03*
X21780004Y7050004D03*
%TD*%
D57*
%TO.C,U16*%
X23680006Y9270004D03*
X23020005Y9270004D03*
X22380005Y9270004D03*
X21720004Y9270004D03*
X21720004Y10710004D03*
X22380005Y10710004D03*
X23020005Y10710004D03*
X23680006Y10710004D03*
%TD*%
D28*
%TO.C,C26*%
X14165005Y29970000D03*
X13205005Y29970000D03*
%TD*%
D58*
%TO.C,C32*%
X16322504Y24685004D03*
X16322504Y26235004D03*
%TD*%
D27*
%TO.C,R25*%
X19800000Y10709999D03*
X19800000Y9690001D03*
%TD*%
D59*
%TO.C,D2*%
X31972506Y26499387D03*
X27972504Y26499387D03*
%TD*%
D60*
%TO.C,USB1*%
X2437505Y18770004D03*
D61*
X-1562495Y18770004D03*
X-1562495Y27410004D03*
D60*
X2437505Y27410004D03*
D62*
X2997505Y26440004D03*
X2997505Y25640004D03*
X2997505Y24340004D03*
X2997505Y23340004D03*
X2997505Y22840004D03*
X2997505Y21840004D03*
X2997505Y20540004D03*
X2997505Y19740004D03*
X2997505Y20040004D03*
X2997505Y20840004D03*
X2997505Y21340005D03*
X2997505Y22340003D03*
X2997505Y23840005D03*
X2997505Y24840003D03*
X2997505Y25340004D03*
X2997505Y26140004D03*
%TD*%
D63*
%TO.C,Y2*%
X18385345Y17778022D03*
X18385345Y16378022D03*
X19485345Y16378022D03*
X19485345Y17778022D03*
%TD*%
%LPD*%
M02*
